<svg width="24" height="24" viewBox="0 0 24 24" fill="none" xmlns="http://www.w3.org/2000/svg">
<path d="M3 11C2.44772 11 2 11.4477 2 12C2 12.5523 2.44772 13 3 13V11ZM21 13C21.5523 13 22 12.5523 22 12C22 11.4477 21.5523 11 21 11V13ZM3 4C2.44772 4 2 4.44772 2 5C2 5.55228 2.44772 6 3 6V4ZM21 6C21.5523 6 22 5.55228 22 5C22 4.44772 21.5523 4 21 4V6ZM3 18C2.44772 18 2 18.4477 2 19C2 19.5523 2.44772 20 3 20V18ZM12 20C12.5523 20 13 19.5523 13 19C13 18.4477 12.5523 18 12 18V20ZM3 13H21V11H3V13ZM3 6H21V4H3V6ZM3 20H12V18H3V20Z" fill="white"/>
<path d="M18.5 16V21M21 18.5H18.5H16" stroke="white" stroke-width="2" stroke-linecap="round"/>
</svg>
