<svg width="24" height="24" fill="none" xmlns="http://www.w3.org/2000/svg"><path d="M7.5 17H7c-1.886 0-2.828 0-3.414-.586C3 15.828 3 14.886 3 13V7c0-1.886 0-2.828.586-3.414C4.172 3 5.114 3 7 3h10c1.886 0 2.828 0 3.414.586C21 4.172 21 5.114 21 7v6c0 1.886 0 2.828-.586 3.414C19.828 17 18.886 17 17 17h-.5" stroke="#fff" stroke-width="2" stroke-linecap="round"/><path d="M10.507 18.133c.609-.87.913-1.304 1.323-1.375.113-.019.227-.019.34 0 .41.071.714.506 1.323 1.375.788 1.125 1.181 1.688 1.046 2.15-.037.124-.097.24-.178.341C14.06 21 13.374 21 12 21s-2.06 0-2.36-.376a1 1 0 0 1-.179-.342c-.136-.461.258-1.024 1.046-2.15z" stroke="#fff" stroke-width="2"/></svg>