<svg width="24" height="24" fill="none" xmlns="http://www.w3.org/2000/svg"><path d="M14.828 4.828l1.415 1.415c.867.867 1.3 1.3 1.529 1.852.228.55.228 1.164.228 2.39v9.1c0 1.028 0 1.542-.309 1.67-.308.128-.672-.236-1.398-.962l-1.465-1.465c-1.333-1.333-2-2-2.828-2-.828 0-1.495.667-2.828 2l-1.465 1.465c-.726.726-1.09 1.09-1.398.962C6 21.127 6 20.613 6 19.585v-9.1c0-1.226 0-1.84.228-2.39.229-.552.662-.985 1.53-1.852l1.414-1.415c1.333-1.333 2-2 2.828-2 .828 0 1.495.667 2.828 2z" stroke="#fff" stroke-width="2" stroke-linecap="round" stroke-linejoin="round"/></svg>