<svg width="24" height="24" viewBox="0 0 24 24" fill="none" xmlns="http://www.w3.org/2000/svg">
<path d="M4.12222 13.2857C4.12222 17.5462 7.08172 21 11.5 21C15.9183 21 19.5 17.9415 19.5 13.2857C19.5 8.62985 15.9183 5.57136 11.5 5.57136L4.5 5.57137M4.5 5.57137L7.16665 3M4.5 5.57137L7.16665 8.14288" stroke="white" stroke-width="2" stroke-linecap="round" stroke-linejoin="round"/>
<path d="M10 16.5V10.5L8.5 12M12 13.5C12 11.1893 12.5 10.5 13.5 10.5C14.5 10.5 15 11.3107 15 13.5C15 15.6893 14.5 16.5 13.5 16.5C12.5 16.5 12 15.8107 12 13.5Z" stroke="white" stroke-linecap="round" stroke-linejoin="round"/>
</svg>
