<svg width="24" height="24" viewBox="0 0 24 24" fill="none" xmlns="http://www.w3.org/2000/svg">
<path d="M19.8778 13.2857C19.8778 17.5462 16.9183 21 12.5 21C8.08172 21 4.5 17.9415 4.5 13.2857C4.5 8.62985 8.08172 5.57136 12.5 5.57136L19.5 5.57137M19.5 5.57137L16.8334 3M19.5 5.57137L16.8334 8.14288" stroke="white" stroke-width="2" stroke-linecap="round" stroke-linejoin="round"/>
<path fill-rule="evenodd" clip-rule="evenodd" d="M10.6913 10.0381C10.8782 10.1155 11 10.2978 11 10.5V16.5C11 16.7762 10.7761 17 10.5 17C10.2239 17 10 16.7762 10 16.5V11.7071L9.35355 12.3536C9.15829 12.5488 8.84171 12.5488 8.64645 12.3536C8.45118 12.1583 8.45118 11.8417 8.64645 11.6465L10.1464 10.1465C10.2894 10.0035 10.5045 9.96068 10.6913 10.0381ZM13.3146 11.3718C13.1283 11.7154 13 12.3557 13 13.5C13 14.6443 13.1283 15.2847 13.3146 15.6282C13.3999 15.7857 13.4906 15.8675 13.5804 15.9157C13.6749 15.9665 13.806 16 14 16C14.1816 16 14.3083 15.9637 14.4029 15.9081C14.4963 15.8532 14.5926 15.7594 14.6823 15.5886C14.8732 15.2248 15 14.5777 15 13.5C15 12.4223 14.8732 11.7752 14.6823 11.4114C14.5926 11.2406 14.4963 11.1469 14.4029 11.0919C14.3083 11.0363 14.1816 11 14 11C13.806 11 13.6749 11.0335 13.5804 11.0843C13.4906 11.1325 13.3999 11.2143 13.3146 11.3718ZM13.1071 10.2034C13.3876 10.0527 13.694 10 14 10C14.3184 10 14.6292 10.065 14.9096 10.2298C15.1912 10.3953 15.4074 10.6411 15.5677 10.9467C15.8768 11.5355 16 12.3884 16 13.5C16 14.6116 15.8768 15.4645 15.5677 16.0534C15.4074 16.3589 15.1912 16.6047 14.9096 16.7702C14.6292 16.935 14.3184 17 14 17C13.694 17 13.3876 16.9474 13.1071 16.7967C12.8219 16.6434 12.6001 16.4085 12.4354 16.1048C12.1217 15.5261 12 14.6664 12 13.5C12 12.3336 12.1217 11.474 12.4354 10.8952C12.6001 10.5915 12.8219 10.3566 13.1071 10.2034Z" fill="white"/>
</svg>
