<svg width="24" height="24" viewBox="0 0 24 24" fill="none" xmlns="http://www.w3.org/2000/svg">
<path d="M4.12222 13.2857C4.12222 17.5462 7.08172 21 11.5 21C15.9183 21 19.5 17.9415 19.5 13.2857C19.5 8.62985 15.9183 5.57136 11.5 5.57136L4.5 5.57137M4.5 5.57137L7.16665 3M4.5 5.57137L7.16665 8.14288" stroke="white" stroke-width="2" stroke-linecap="round" stroke-linejoin="round"/>
<path d="M9.5 16.5V10.5L8.125 12M15.5 10.5H12.2552L11.6302 13.6431C12.2552 13.2621 12.4096 13 13.625 13C14.8404 13 15.5 13.5 15.5 15C15.5 16.5 14.1302 16.5 13.625 16.5C13.1198 16.5 11.625 16.5 11.625 15.5" stroke="white" stroke-linecap="round" stroke-linejoin="round"/>
</svg>
