<svg width="24" height="24" fill="none" xmlns="http://www.w3.org/2000/svg"><path d="M19.172 14.828l-1.415 1.415c-.867.867-1.3 1.3-1.852 1.529-.55.228-1.164.228-2.39.228H4.273c-.975 0-1.463 0-1.594-.299-.131-.298.198-.658.857-1.377l1.486-1.621C6.2 13.42 6.787 12.778 6.787 12c0-.778-.588-1.42-1.765-2.703L3.536 7.676c-.659-.72-.988-1.079-.857-1.377C2.81 6 3.298 6 4.273 6h9.242c1.226 0 1.84 0 2.39.228.552.229.985.662 1.852 1.53l1.415 1.414c1.333 1.333 2 2 2 2.828 0 .828-.667 1.495-2 2.828z" stroke="#fff" stroke-width="2" stroke-linecap="round" stroke-linejoin="round"/></svg>