<svg width="24" height="24" fill="none" xmlns="http://www.w3.org/2000/svg"><path d="M5.5 11a1 1 0 1 0-2 0h2zm15 0a1 1 0 1 0-2 0h2zm-5 0a1 1 0 1 0-2 0h2zm-5 0a1 1 0 1 0-2 0h2zM3 20a1 1 0 1 0 0 2v-2zm18 2a1 1 0 1 0 0-2v2zM19.678 9.274l.688-.726-.688.726zm1.032 1.411l-.93-.37.93.37zm-17.42 0l.93-.37-.93.37zM12 2.755v-1 1zM5.01 10l4.927-4.668L8.56 3.88 3.634 8.548 5.01 10zm9.053-4.668L18.99 10l1.376-1.452-4.927-4.668-1.376 1.452zM5.01 12h13.98v-2H5.01v2zm.49 9V11h-2v10h2zm15 0V11h-2v10h2zm-5 0V11h-2v10h2zm-5 0V11h-2v10h2zM3 22h1.5v-2H3v2zm1.5 0h5v-2h-5v2zm5 0h5v-2h-5v2zm5 0h5v-2h-5v2zm5 0H21v-2h-1.5v2zm-.51-12c.196.185.355.336.487.467.134.134.219.226.271.292.058.073.038.066.015-.003a.654.654 0 0 1 .018-.441l1.858.74c.282-.708-.125-1.29-.327-1.543-.232-.29-.585-.621-.946-.964L18.99 10zm0 2c.498 0 .983.002 1.35-.049.32-.045 1.017-.188 1.299-.896l-1.858-.74c.07-.177.199-.284.29-.333.064-.033.084-.025-.008-.012-.084.012-.209.02-.398.025a29.35 29.35 0 0 1-.675.005v2zM3.634 8.548c-.361.343-.714.674-.946.964-.202.253-.609.835-.327 1.543l1.858-.74c.07.177.051.343.018.441-.023.069-.043.076.014.003.053-.066.138-.158.272-.292.132-.131.291-.282.487-.467L3.634 8.548zM5.01 10c-.27 0-.489 0-.675-.005a3.713 3.713 0 0 1-.398-.025c-.092-.013-.072-.021-.008.012.091.049.22.156.29.333l-1.858.74c.283.708.979.851 1.299.896.368.051.852.049 1.35.049v-2zm4.927-4.668c.671-.636 1.105-1.044 1.464-1.305.337-.244.494-.272.599-.272v-2c-.692 0-1.259.28-1.773.653-.49.356-1.034.874-1.666 1.472l1.376 1.452zm5.502-1.452c-.632-.598-1.175-1.116-1.666-1.472-.514-.373-1.081-.653-1.773-.653v2c.105 0 .262.028.599.272.36.261.793.67 1.464 1.305L15.44 3.88z" fill="#fff"/></svg>