<svg width="24" height="24" fill="none" xmlns="http://www.w3.org/2000/svg"><path d="M3 11c0-1.886 0-2.828.586-3.414C4.172 7 5.114 7 7 7h8c1.886 0 2.828 0 3.414.586C19 8.172 19 9.114 19 11v2c0 1.886 0 2.828-.586 3.414C17.828 17 16.886 17 15 17H7c-1.886 0-2.828 0-3.414-.586C3 15.828 3 14.886 3 13v-2z" stroke="#fff" stroke-width="2" stroke-linecap="round" stroke-linejoin="round"/><path d="M19 12.5v-1a1 1 0 1 1 2 0v1a1 1 0 1 1-2 0z" fill="#fff" stroke="#fff" stroke-width="2" stroke-linecap="round" stroke-linejoin="round"/></svg>