<svg width="24" height="24" viewBox="0 0 24 24" fill="none" xmlns="http://www.w3.org/2000/svg">
<path d="M11 21C9.11438 21 8.17157 21 7.58579 20.4142C7 19.8284 7 18.8856 7 17L7 9C7 7.11438 7 6.17157 7.58579 5.58579C8.17157 5 9.11438 5 11 5H13C14.8856 5 15.8284 5 16.4142 5.58579C17 6.17157 17 7.11438 17 9V17C17 18.8856 17 19.8284 16.4142 20.4142C15.8284 21 14.8856 21 13 21H11Z" stroke="white" stroke-width="2" stroke-linecap="round" stroke-linejoin="round"/>
<path d="M12.5 5H11.5C10.9477 5 10.5 4.55228 10.5 4C10.5 3.44772 10.9477 3 11.5 3H12.5C13.0523 3 13.5 3.44772 13.5 4C13.5 4.55228 13.0523 5 12.5 5Z" fill="white" stroke="white" stroke-width="2" stroke-linecap="round" stroke-linejoin="round"/>
<path d="M11.5 17L13.25 13.0539L10.75 13.0001L12.75 8.9462" stroke="white" stroke-width="2" stroke-linecap="round" stroke-linejoin="round"/>
</svg>
