<svg fill="none" height="24" width="24" xmlns="http://www.w3.org/2000/svg"><path d="M19.238 13.682l-.908.42zm.629 1.645l.996-.087zm-1.315 2.055l.339.94-.34-.94zm-13.79-3.7l-.908-.419.908.42zm-.629 1.645l-.996-.087zm1.315 2.055l-.339.94.34-.94zM6 10.776h1zm12.094.428l-.908.419.908-.42zM17 8.5v2.276h2V8.5zM7 10.776V8.5H5v2.276zM5.67 14.1l1.144-2.478-1.816-.838-1.144 2.478zm11.516-2.478l1.144 2.479 1.816-.839-1.144-2.478zm-.39 4.877H12v2h4.795v-2zM12 16.5H7.205v2H12zm6.33-2.399c.204.443.34.738.432.968s.106.317.108.344l1.993-.173a3.23 3.23 0 0 0-.244-.912 22.95 22.95 0 0 0-.473-1.065zM16.795 18.5c.465 0 .854 0 1.165-.016a3.23 3.23 0 0 0 .93-.161l-.677-1.882c-.026.01-.11.033-.358.046-.247.013-.573.013-1.06.013zm2.075-3.087a1 1 0 0 1-.657 1.028l.678 1.882a3 3 0 0 0 1.972-3.083zm-15.016-2.15a22.95 22.95 0 0 0-.473 1.065 3.229 3.229 0 0 0-.244.912l1.993.173c.002-.027.016-.114.108-.344s.228-.525.432-.968zm3.35 3.237c-.486 0-.812 0-1.059-.013-.248-.013-.332-.037-.358-.046l-.678 1.882c.303.109.62.144.93.16.312.017.7.017 1.166.017v-2zm-4.067-1.26a3 3 0 0 0 1.972 3.083l.678-1.882a1 1 0 0 1-.657-1.028zM5 10.776c0 .003 0 .006-.002.009l1.816.838c.122-.266.186-.555.186-.847zm12 0c0 .292.064.581.186.847l1.816-.838a.022.022 0 0 1-.002-.01h-2zM12 3.5a5 5 0 0 1 5 5h2a7 7 0 0 0-7-7zm0-2a7 7 0 0 0-7 7h2a5 5 0 0 1 5-5zM9.164 20.014a1 1 0 1 0-.328 1.972zm6 1.972a1 1 0 1 0-.328-1.972zm-6.328 0l.698.117.329-1.973-.699-.116zm5.63.117l.698-.117-.328-1.972-.699.116zm-4.932 0c1.633.272 3.3.272 4.932 0l-.329-1.973c-1.415.236-2.86.236-4.274 0z" fill="currentColor"/></svg>