<svg fill="none" height="24" width="24" xmlns="http://www.w3.org/2000/svg"><g fill="currentColor"><path clip-rule="evenodd" d="m3.586 3.586c-.586.586-.586 1.528-.586 3.414v5c0 1.886 0 2.828.586 3.414s1.528.586 3.414.586h1v1c0 1.886 0 2.828.586 3.414s1.528.586 3.414.586h5c1.886 0 2.828 0 3.414-.586s.586-1.528.586-3.414v-5c0-1.886 0-2.828-.586-3.414s-1.528-.586-3.414-.586h-1v-1c0-1.886 0-2.828-.586-3.414s-1.528-.586-3.414-.586h-5c-1.886 0-2.828 0-3.414.586zm12.414 4.414h-4c-1.886 0-2.828 0-3.414.586s-.586 1.528-.586 3.414v4h4c1.886 0 2.828 0 3.414-.586s.586-1.528.586-3.414z" fill-rule="evenodd"/><path d="m3.586 15.414.707-.707zm11.828-11.828-.707.707zm0 11.828-.707-.707zm-11.414-8.414c0-.971.002-1.599.064-2.061.059-.434.153-.57.229-.646l-1.414-1.414c-.51.51-.709 1.138-.797 1.793-.084.628-.082 1.413-.082 2.328zm0 5v-5h-2v5zm.293 2.707c-.076-.076-.17-.212-.229-.646-.062-.461-.064-1.09-.064-2.061h-2c0 .915-.002 1.701.082 2.328.088.655.287 1.284.797 1.793zm2.707.293c-.971 0-1.599-.002-2.061-.064-.434-.059-.57-.153-.646-.229l-1.414 1.414c.51.51 1.138.709 1.793.797.628.084 1.413.082 2.328.082zm1 0h-1v2h1zm1 2v-1h-2v1zm.293 2.707c-.076-.076-.17-.212-.229-.646-.062-.461-.064-1.09-.064-2.061h-2c0 .915-.002 1.701.082 2.328.088.655.287 1.284.797 1.793zm2.707.293c-.971 0-1.599-.002-2.061-.064-.434-.059-.57-.153-.646-.229l-1.414 1.414c.51.51 1.138.709 1.793.797.627.084 1.413.082 2.328.082zm5 0h-5v2h5zm2.707-.293c-.076.076-.212.17-.646.229-.462.062-1.09.064-2.061.064v2c.915 0 1.701.002 2.328-.082.655-.088 1.284-.287 1.793-.797zm.293-2.707c0 .971-.002 1.599-.064 2.061-.059.434-.153.57-.229.646l1.414 1.414c.51-.51.709-1.138.797-1.793.084-.628.082-1.413.082-2.328zm0-5v5h2v-5zm-.293-2.707c.076.076.17.212.229.646.062.462.064 1.09.064 2.061h2c0-.915.002-1.701-.082-2.328-.088-.655-.287-1.284-.797-1.793zm-2.707-.293c.971 0 1.599.002 2.061.064.434.059.57.153.646.229l1.414-1.414c-.51-.51-1.138-.709-1.793-.797-.628-.084-1.413-.082-2.328-.082zm-1 0h1v-2h-1zm-1-2v1h2v-1zm-.293-2.707c.076.076.17.212.229.646.062.461.064 1.09.064 2.061h2c0-.915.002-1.701-.082-2.328-.088-.655-.287-1.284-.797-1.793zm-2.707-.293c.971 0 1.599.002 2.061.064.434.059.57.153.646.229l1.414-1.414c-.51-.51-1.138-.709-1.793-.797-.628-.084-1.413-.082-2.328-.082zm-5 0h5v-2h-5zm-2.707.293c.076-.076.212-.17.646-.229.461-.062 1.09-.064 2.061-.064v-2c-.915 0-1.701-.002-2.328.082-.655.088-1.284.287-1.793.797zm7.707 4.707h4v-2h-4zm-2.707.293c.076-.076.212-.17.646-.229.461-.062 1.09-.064 2.061-.064v-2c-.915 0-1.701-.002-2.328.082-.655.088-1.284.287-1.793.797zm-.293 2.707c0-.971.002-1.599.064-2.061.059-.434.153-.57.229-.646l-1.414-1.414c-.51.51-.709 1.138-.797 1.793-.084.628-.082 1.413-.082 2.328zm0 4v-4h-2v4zm3-1h-4v2h4zm2.707-.293c-.076.076-.212.17-.646.229-.462.062-1.09.064-2.061.064v2c.915 0 1.701.002 2.328-.082.655-.088 1.284-.287 1.793-.797zm.293-2.707c0 .971-.002 1.599-.064 2.061-.059.434-.153.57-.229.646l1.414 1.414c.51-.51.709-1.138.797-1.793.084-.628.082-1.413.082-2.328zm0-4v4h2v-4z"/></g></svg>