<svg width="24" height="24" viewBox="0 0 24 24" fill="none" xmlns="http://www.w3.org/2000/svg">
<path d="M8 7H21M8 12H21M8 17H21" stroke="white" stroke-width="2" stroke-linecap="round"/>
<path d="M4 7C4 7.55228 3.55228 8 3 8C2.44772 8 2 7.55228 2 7C2 6.44772 2.44772 6 3 6C3.55228 6 4 6.44772 4 7Z" fill="white"/>
<path d="M4 12C4 12.5523 3.55228 13 3 13C2.44772 13 2 12.5523 2 12C2 11.4477 2.44772 11 3 11C3.55228 11 4 11.4477 4 12Z" fill="white"/>
<path d="M4 17C4 17.5523 3.55228 18 3 18C2.44772 18 2 17.5523 2 17C2 16.4477 2.44772 16 3 16C3.55228 16 4 16.4477 4 17Z" fill="white"/>
</svg>
