<svg width="24" height="24" fill="none" xmlns="http://www.w3.org/2000/svg"><path d="M4.5 7c0-1.886 0-2.828.586-3.414C5.672 3 6.614 3 8.5 3h7c1.886 0 2.828 0 3.414.586.586.586.586 1.528.586 3.414v10c0 1.886 0 2.828-.586 3.414C18.328 21 17.386 21 15.5 21h-7c-1.886 0-2.828 0-3.414-.586C4.5 19.828 4.5 18.886 4.5 17V7z" stroke="#fff" stroke-width="2" stroke-linecap="round" stroke-linejoin="round"/><path d="M7 17.5a1 1 0 0 1 1-1h2a1 1 0 1 1 0 2H8a1 1 0 0 1-1-1zm0-11a1 1 0 0 1 1-1h8a1 1 0 1 1 0 2H8a1 1 0 0 1-1-1zM9 10a1 1 0 1 1-2 0 1 1 0 0 1 2 0zm0 4a1 1 0 1 1-2 0 1 1 0 0 1 2 0zm4 0a1 1 0 1 1-2 0 1 1 0 0 1 2 0zm0-4a1 1 0 1 1-2 0 1 1 0 0 1 2 0zm4 0a1 1 0 1 1-2 0 1 1 0 0 1 2 0zm0 4a1 1 0 1 1-2 0 1 1 0 0 1 2 0zm0 3.5a1 1 0 1 1-2 0 1 1 0 0 1 2 0z" fill="#fff"/></svg>