<svg width="24" height="24" viewBox="0 0 24 24" fill="none" xmlns="http://www.w3.org/2000/svg">
<path d="M4.5 7C4.5 5.11438 4.5 4.17157 5.08579 3.58579C5.67157 3 6.61438 3 8.5 3H15.5C17.3856 3 18.3284 3 18.9142 3.58579C19.5 4.17157 19.5 5.11438 19.5 7V17C19.5 18.8856 19.5 19.8284 18.9142 20.4142C18.3284 21 17.3856 21 15.5 21H8.5C6.61438 21 5.67157 21 5.08579 20.4142C4.5 19.8284 4.5 18.8856 4.5 17V7Z" stroke="white" stroke-width="2" stroke-linecap="round" stroke-linejoin="round"/>
<path d="M7 17.5C7 16.9477 7.44772 16.5 8 16.5H10C10.5523 16.5 11 16.9477 11 17.5V17.5C11 18.0523 10.5523 18.5 10 18.5H8C7.44772 18.5 7 18.0523 7 17.5V17.5Z" fill="white"/>
<path d="M7 6.5C7 5.94772 7.44772 5.5 8 5.5H16C16.5523 5.5 17 5.94772 17 6.5V6.5C17 7.05228 16.5523 7.5 16 7.5H8C7.44772 7.5 7 7.05228 7 6.5V6.5Z" fill="white"/>
<path d="M9 10C9 10.5523 8.55228 11 8 11C7.44772 11 7 10.5523 7 10C7 9.44772 7.44772 9 8 9C8.55228 9 9 9.44772 9 10Z" fill="white"/>
<path d="M9 14C9 14.5523 8.55228 15 8 15C7.44772 15 7 14.5523 7 14C7 13.4477 7.44772 13 8 13C8.55228 13 9 13.4477 9 14Z" fill="white"/>
<path d="M13 14C13 14.5523 12.5523 15 12 15C11.4477 15 11 14.5523 11 14C11 13.4477 11.4477 13 12 13C12.5523 13 13 13.4477 13 14Z" fill="white"/>
<path d="M13 10C13 10.5523 12.5523 11 12 11C11.4477 11 11 10.5523 11 10C11 9.44772 11.4477 9 12 9C12.5523 9 13 9.44772 13 10Z" fill="white"/>
<path d="M17 10C17 10.5523 16.5523 11 16 11C15.4477 11 15 10.5523 15 10C15 9.44772 15.4477 9 16 9C16.5523 9 17 9.44772 17 10Z" fill="white"/>
<path d="M17 14C17 14.5523 16.5523 15 16 15C15.4477 15 15 14.5523 15 14C15 13.4477 15.4477 13 16 13C16.5523 13 17 13.4477 17 14Z" fill="white"/>
<path d="M17 17.5C17 18.0523 16.5523 18.5 16 18.5C15.4477 18.5 15 18.0523 15 17.5C15 16.9477 15.4477 16.5 16 16.5C16.5523 16.5 17 16.9477 17 17.5Z" fill="white"/>
</svg>
