<svg width="24" height="24" viewBox="0 0 24 24" fill="none" xmlns="http://www.w3.org/2000/svg">
<path d="M18.4 3C18.4 2.44772 17.9523 2 17.4 2C16.8477 2 16.4 2.44772 16.4 3H18.4ZM16.4 6.6C16.4 7.15228 16.8477 7.6 17.4 7.6C17.9523 7.6 18.4 7.15228 18.4 6.6H16.4ZM7.6 3C7.6 2.44772 7.15228 2 6.6 2C6.04772 2 5.6 2.44772 5.6 3H7.6ZM5.6 6.6C5.6 7.15228 6.04772 7.6 6.6 7.6C7.15228 7.6 7.6 7.15228 7.6 6.6H5.6ZM3.58579 20.4142L4.29289 19.7071L3.58579 20.4142ZM20.4142 20.4142L21.1213 21.1213L20.4142 20.4142ZM20.4142 5.38579L21.1213 4.67868L20.4142 5.38579ZM3.58579 5.38579L2.87868 4.67868L3.58579 5.38579ZM20 8.8V17H22V8.8H20ZM17 20H7V22H17V20ZM4 17V8.8H2V17H4ZM7.0013 5.8C7.00822 5.8 7.01513 5.8 7.02205 5.8C7.02896 5.8 7.03587 5.8 7.04278 5.8C7.04969 5.8 7.0566 5.8 7.0635 5.8C7.0704 5.8 7.07731 5.8 7.08421 5.8C7.0911 5.8 7.098 5.8 7.1049 5.8C7.11179 5.8 7.11868 5.8 7.12557 5.8C7.13246 5.8 7.13935 5.8 7.14624 5.8C7.15312 5.8 7.16 5.8 7.16688 5.8C7.17376 5.8 7.18064 5.8 7.18752 5.8C7.19439 5.8 7.20127 5.8 7.20814 5.8C7.21501 5.8 7.22188 5.8 7.22875 5.8C7.23561 5.8 7.24248 5.8 7.24934 5.8C7.2562 5.8 7.26306 5.8 7.26992 5.8C7.27678 5.8 7.28363 5.8 7.29048 5.8C7.29734 5.8 7.30419 5.8 7.31104 5.8C7.31788 5.8 7.32473 5.8 7.33158 5.8C7.33842 5.8 7.34526 5.8 7.3521 5.8C7.35894 5.8 7.36578 5.8 7.37261 5.8C7.37945 5.8 7.38628 5.8 7.39311 5.8C7.39994 5.8 7.40677 5.8 7.41359 5.8C7.42042 5.8 7.42724 5.8 7.43407 5.8C7.44089 5.8 7.44771 5.8 7.45452 5.8C7.46134 5.8 7.46816 5.8 7.47497 5.8C7.48178 5.8 7.48859 5.8 7.4954 5.8C7.50221 5.8 7.50902 5.8 7.51582 5.8C7.52263 5.8 7.52943 5.8 7.53623 5.8C7.54303 5.8 7.54983 5.8 7.55662 5.8C7.56342 5.8 7.57021 5.8 7.577 5.8C7.58379 5.8 7.59058 5.8 7.59737 5.8C7.60416 5.8 7.61094 5.8 7.61772 5.8C7.62451 5.8 7.63129 5.8 7.63806 5.8C7.64484 5.8 7.65162 5.8 7.65839 5.8C7.66517 5.8 7.67194 5.8 7.67871 5.8C7.68548 5.8 7.69225 5.8 7.69902 5.8C7.70578 5.8 7.71254 5.8 7.71931 5.8C7.72607 5.8 7.73283 5.8 7.73959 5.8C7.74634 5.8 7.7531 5.8 7.75985 5.8C7.76661 5.8 7.77336 5.8 7.78011 5.8C7.78686 5.8 7.7936 5.8 7.80035 5.8C7.8071 5.8 7.81384 5.8 7.82058 5.8C7.82732 5.8 7.83406 5.8 7.8408 5.8C7.84754 5.8 7.85427 5.8 7.861 5.8C7.86774 5.8 7.87447 5.8 7.8812 5.8C7.88793 5.8 7.89465 5.8 7.90138 5.8C7.9081 5.8 7.91483 5.8 7.92155 5.8C7.92827 5.8 7.93499 5.8 7.94171 5.8C7.94842 5.8 7.95514 5.8 7.96185 5.8C7.96857 5.8 7.97528 5.8 7.98199 5.8C7.9887 5.8 7.9954 5.8 8.00211 5.8C8.00882 5.8 8.01552 5.8 8.02222 5.8C8.02892 5.8 8.03562 5.8 8.04232 5.8C8.04902 5.8 8.05572 5.8 8.06241 5.8C8.0691 5.8 8.0758 5.8 8.08249 5.8C8.08918 5.8 8.09586 5.8 8.10255 5.8C8.10924 5.8 8.11592 5.8 8.1226 5.8C8.12929 5.8 8.13597 5.8 8.14265 5.8C8.14933 5.8 8.156 5.8 8.16268 5.8C8.16935 5.8 8.17603 5.8 8.1827 5.8C8.18937 5.8 8.19604 5.8 8.20271 5.8C8.20937 5.8 8.21604 5.8 8.2227 5.8C8.22937 5.8 8.23603 5.8 8.24269 5.8C8.24935 5.8 8.25601 5.8 8.26267 5.8C8.26932 5.8 8.27598 5.8 8.28263 5.8C8.28929 5.8 8.29594 5.8 8.30259 5.8C8.30924 5.8 8.31588 5.8 8.32253 5.8C8.32918 5.8 8.33582 5.8 8.34246 5.8C8.3491 5.8 8.35574 5.8 8.36238 5.8C8.36902 5.8 8.37566 5.8 8.38229 5.8C8.38893 5.8 8.39556 5.8 8.4022 5.8C8.40883 5.8 8.41546 5.8 8.42209 5.8C8.42871 5.8 8.43534 5.8 8.44196 5.8C8.44859 5.8 8.45521 5.8 8.46183 5.8C8.46846 5.8 8.47507 5.8 8.48169 5.8C8.48831 5.8 8.49493 5.8 8.50154 5.8C8.50816 5.8 8.51477 5.8 8.52138 5.8C8.52799 5.8 8.5346 5.8 8.54121 5.8C8.54782 5.8 8.55442 5.8 8.56103 5.8C8.56763 5.8 8.57423 5.8 8.58083 5.8C8.58743 5.8 8.59403 5.8 8.60063 5.8C8.60723 5.8 8.61382 5.8 8.62042 5.8C8.62701 5.8 8.63361 5.8 8.6402 5.8C8.64679 5.8 8.65338 5.8 8.65997 5.8C8.66655 5.8 8.67314 5.8 8.67972 5.8C8.68631 5.8 8.69289 5.8 8.69947 5.8C8.70605 5.8 8.71263 5.8 8.71921 5.8C8.72579 5.8 8.73237 5.8 8.73894 5.8C8.74552 5.8 8.75209 5.8 8.75866 5.8C8.76523 5.8 8.7718 5.8 8.77837 5.8C8.78494 5.8 8.79151 5.8 8.79807 5.8C8.80464 5.8 8.8112 5.8 8.81776 5.8C8.82433 5.8 8.83089 5.8 8.83745 5.8C8.844 5.8 8.85056 5.8 8.85712 5.8C8.86367 5.8 8.87023 5.8 8.87678 5.8C8.88334 5.8 8.88989 5.8 8.89644 5.8C8.90299 5.8 8.90953 5.8 8.91608 5.8C8.92263 5.8 8.92917 5.8 8.93572 5.8C8.94226 5.8 8.9488 5.8 8.95535 5.8C8.96189 5.8 8.96843 5.8 8.97496 5.8C8.9815 5.8 8.98804 5.8 8.99457 5.8C9.00111 5.8 9.00764 5.8 9.01417 5.8C9.02071 5.8 9.02724 5.8 9.03377 5.8C9.04029 5.8 9.04682 5.8 9.05335 5.8C9.05987 5.8 9.0664 5.8 9.07292 5.8C9.07945 5.8 9.08597 5.8 9.09249 5.8C9.09901 5.8 9.10553 5.8 9.11205 5.8C9.11856 5.8 9.12508 5.8 9.1316 5.8C9.13811 5.8 9.14462 5.8 9.15114 5.8C9.15765 5.8 9.16416 5.8 9.17067 5.8C9.17718 5.8 9.18368 5.8 9.19019 5.8C9.1967 5.8 9.2032 5.8 9.20971 5.8C9.21621 5.8 9.22271 5.8 9.22921 5.8C9.23571 5.8 9.24221 5.8 9.24871 5.8C9.25521 5.8 9.26171 5.8 9.2682 5.8C9.2747 5.8 9.28119 5.8 9.28769 5.8C9.29418 5.8 9.30067 5.8 9.30716 5.8C9.31365 5.8 9.32014 5.8 9.32663 5.8C9.33312 5.8 9.3396 5.8 9.34609 5.8C9.35257 5.8 9.35906 5.8 9.36554 5.8C9.37202 5.8 9.3785 5.8 9.38498 5.8C9.39146 5.8 9.39794 5.8 9.40442 5.8C9.4109 5.8 9.41737 5.8 9.42385 5.8C9.43032 5.8 9.43679 5.8 9.44327 5.8C9.44974 5.8 9.45621 5.8 9.46268 5.8C9.46915 5.8 9.47562 5.8 9.48209 5.8C9.48855 5.8 9.49502 5.8 9.50148 5.8C9.50795 5.8 9.51441 5.8 9.52087 5.8C9.52734 5.8 9.5338 5.8 9.54026 5.8C9.54672 5.8 9.55318 5.8 9.55963 5.8C9.56609 5.8 9.57255 5.8 9.579 5.8C9.58546 5.8 9.59191 5.8 9.59836 5.8C9.60482 5.8 9.61127 5.8 9.61772 5.8C9.62417 5.8 9.63062 5.8 9.63707 5.8C9.64352 5.8 9.64996 5.8 9.65641 5.8C9.66285 5.8 9.6693 5.8 9.67574 5.8C9.68219 5.8 9.68863 5.8 9.69507 5.8C9.70151 5.8 9.70795 5.8 9.71439 5.8C9.72083 5.8 9.72727 5.8 9.7337 5.8C9.74014 5.8 9.74657 5.8 9.75301 5.8C9.75944 5.8 9.76588 5.8 9.77231 5.8C9.77874 5.8 9.78517 5.8 9.7916 5.8C9.79803 5.8 9.80446 5.8 9.81089 5.8C9.81732 5.8 9.82374 5.8 9.83017 5.8C9.8366 5.8 9.84302 5.8 9.84944 5.8C9.85587 5.8 9.86229 5.8 9.86871 5.8C9.87513 5.8 9.88155 5.8 9.88797 5.8C9.89439 5.8 9.90081 5.8 9.90723 5.8C9.91365 5.8 9.92006 5.8 9.92648 5.8C9.93289 5.8 9.93931 5.8 9.94572 5.8C9.95213 5.8 9.95855 5.8 9.96496 5.8C9.97137 5.8 9.97778 5.8 9.98419 5.8C9.9906 5.8 9.99701 5.8 10.0034 5.8C10.0098 5.8 10.0162 5.8 10.0226 5.8C10.029 5.8 10.0354 5.8 10.0418 5.8C10.0482 5.8 10.0547 5.8 10.0611 5.8C10.0675 5.8 10.0739 5.8 10.0803 5.8C10.0867 5.8 10.0931 5.8 10.0994 5.8C10.1058 5.8 10.1122 5.8 10.1186 5.8C10.125 5.8 10.1314 5.8 10.1378 5.8C10.1442 5.8 10.1506 5.8 10.157 5.8C10.1634 5.8 10.1698 5.8 10.1762 5.8C10.1826 5.8 10.189 5.8 10.1953 5.8C10.2017 5.8 10.2081 5.8 10.2145 5.8C10.2209 5.8 10.2273 5.8 10.2337 5.8C10.2401 5.8 10.2464 5.8 10.2528 5.8C10.2592 5.8 10.2656 5.8 10.272 5.8C10.2783 5.8 10.2847 5.8 10.2911 5.8C10.2975 5.8 10.3039 5.8 10.3102 5.8C10.3166 5.8 10.323 5.8 10.3294 5.8C10.3358 5.8 10.3421 5.8 10.3485 5.8C10.3549 5.8 10.3613 5.8 10.3676 5.8C10.374 5.8 10.3804 5.8 10.3867 5.8C10.3931 5.8 10.3995 5.8 10.4059 5.8C10.4122 5.8 10.4186 5.8 10.425 5.8C10.4313 5.8 10.4377 5.8 10.4441 5.8C10.4504 5.8 10.4568 5.8 10.4632 5.8C10.4695 5.8 10.4759 5.8 10.4823 5.8C10.4886 5.8 10.495 5.8 10.5013 5.8C10.5077 5.8 10.5141 5.8 10.5204 5.8C10.5268 5.8 10.5332 5.8 10.5395 5.8C10.5459 5.8 10.5522 5.8 10.5586 5.8C10.5649 5.8 10.5713 5.8 10.5777 5.8C10.584 5.8 10.5904 5.8 10.5967 5.8C10.6031 5.8 10.6094 5.8 10.6158 5.8C10.6221 5.8 10.6285 5.8 10.6349 5.8C10.6412 5.8 10.6476 5.8 10.6539 5.8C10.6603 5.8 10.6666 5.8 10.673 5.8C10.6793 5.8 10.6857 5.8 10.692 5.8C10.6984 5.8 10.7047 5.8 10.7111 5.8C10.7174 5.8 10.7237 5.8 10.7301 5.8C10.7364 5.8 10.7428 5.8 10.7491 5.8C10.7555 5.8 10.7618 5.8 10.7682 5.8C10.7745 5.8 10.7808 5.8 10.7872 5.8C10.7935 5.8 10.7999 5.8 10.8062 5.8C10.8126 5.8 10.8189 5.8 10.8252 5.8C10.8316 5.8 10.8379 5.8 10.8443 5.8C10.8506 5.8 10.8569 5.8 10.8633 5.8C10.8696 5.8 10.8759 5.8 10.8823 5.8C10.8886 5.8 10.895 5.8 10.9013 5.8C10.9076 5.8 10.914 5.8 10.9203 5.8C10.9266 5.8 10.933 5.8 10.9393 5.8C10.9456 5.8 10.952 5.8 10.9583 5.8C10.9646 5.8 10.971 5.8 10.9773 5.8C10.9836 5.8 10.99 5.8 10.9963 5.8C11.0026 5.8 11.0089 5.8 11.0153 5.8C11.0216 5.8 11.0279 5.8 11.0343 5.8C11.0406 5.8 11.0469 5.8 11.0532 5.8C11.0596 5.8 11.0659 5.8 11.0722 5.8C11.0785 5.8 11.0849 5.8 11.0912 5.8C11.0975 5.8 11.1038 5.8 11.1102 5.8C11.1165 5.8 11.1228 5.8 11.1291 5.8C11.1355 5.8 11.1418 5.8 11.1481 5.8C11.1544 5.8 11.1608 5.8 11.1671 5.8C11.1734 5.8 11.1797 5.8 11.186 5.8C11.1924 5.8 11.1987 5.8 11.205 5.8C11.2113 5.8 11.2177 5.8 11.224 5.8C11.2303 5.8 11.2366 5.8 11.2429 5.8C11.2492 5.8 11.2556 5.8 11.2619 5.8C11.2682 5.8 11.2745 5.8 11.2808 5.8C11.2872 5.8 11.2935 5.8 11.2998 5.8C11.3061 5.8 11.3124 5.8 11.3187 5.8C11.3251 5.8 11.3314 5.8 11.3377 5.8C11.344 5.8 11.3503 5.8 11.3566 5.8C11.3629 5.8 11.3693 5.8 11.3756 5.8C11.3819 5.8 11.3882 5.8 11.3945 5.8C11.4008 5.8 11.4071 5.8 11.4135 5.8C11.4198 5.8 11.4261 5.8 11.4324 5.8C11.4387 5.8 11.445 5.8 11.4513 5.8C11.4576 5.8 11.464 5.8 11.4703 5.8C11.4766 5.8 11.4829 5.8 11.4892 5.8C11.4955 5.8 11.5018 5.8 11.5081 5.8C11.5144 5.8 11.5207 5.8 11.5271 5.8C11.5334 5.8 11.5397 5.8 11.546 5.8C11.5523 5.8 11.5586 5.8 11.5649 5.8C11.5712 5.8 11.5775 5.8 11.5838 5.8C11.5901 5.8 11.5965 5.8 11.6028 5.8C11.6091 5.8 11.6154 5.8 11.6217 5.8C11.628 5.8 11.6343 5.8 11.6406 5.8C11.6469 5.8 11.6532 5.8 11.6595 5.8C11.6658 5.8 11.6721 5.8 11.6785 5.8C11.6848 5.8 11.6911 5.8 11.6974 5.8C11.7037 5.8 11.71 5.8 11.7163 5.8C11.7226 5.8 11.7289 5.8 11.7352 5.8C11.7415 5.8 11.7478 5.8 11.7541 5.8C11.7604 5.8 11.7667 5.8 11.773 5.8C11.7793 5.8 11.7857 5.8 11.792 5.8C11.7983 5.8 11.8046 5.8 11.8109 5.8C11.8172 5.8 11.8235 5.8 11.8298 5.8C11.8361 5.8 11.8424 5.8 11.8487 5.8C11.855 5.8 11.8613 5.8 11.8676 5.8C11.8739 5.8 11.8802 5.8 11.8865 5.8C11.8928 5.8 11.8991 5.8 11.9054 5.8C11.9117 5.8 11.918 5.8 11.9244 5.8C11.9307 5.8 11.937 5.8 11.9433 5.8C11.9496 5.8 11.9559 5.8 11.9622 5.8C11.9685 5.8 11.9748 5.8 11.9811 5.8C11.9874 5.8 11.9937 5.8 12 5.8C12.0063 5.8 12.0126 5.8 12.0189 5.8C12.0252 5.8 12.0315 5.8 12.0378 5.8C12.0441 5.8 12.0504 5.8 12.0567 5.8C12.063 5.8 12.0693 5.8 12.0756 5.8C12.082 5.8 12.0883 5.8 12.0946 5.8C12.1009 5.8 12.1072 5.8 12.1135 5.8C12.1198 5.8 12.1261 5.8 12.1324 5.8C12.1387 5.8 12.145 5.8 12.1513 5.8C12.1576 5.8 12.1639 5.8 12.1702 5.8C12.1765 5.8 12.1828 5.8 12.1891 5.8C12.1954 5.8 12.2017 5.8 12.208 5.8C12.2143 5.8 12.2207 5.8 12.227 5.8C12.2333 5.8 12.2396 5.8 12.2459 5.8C12.2522 5.8 12.2585 5.8 12.2648 5.8C12.2711 5.8 12.2774 5.8 12.2837 5.8C12.29 5.8 12.2963 5.8 12.3026 5.8C12.3089 5.8 12.3152 5.8 12.3215 5.8C12.3279 5.8 12.3342 5.8 12.3405 5.8C12.3468 5.8 12.3531 5.8 12.3594 5.8C12.3657 5.8 12.372 5.8 12.3783 5.8C12.3846 5.8 12.3909 5.8 12.3972 5.8C12.4035 5.8 12.4098 5.8 12.4162 5.8C12.4225 5.8 12.4288 5.8 12.4351 5.8C12.4414 5.8 12.4477 5.8 12.454 5.8C12.4603 5.8 12.4666 5.8 12.4729 5.8C12.4792 5.8 12.4856 5.8 12.4919 5.8C12.4982 5.8 12.5045 5.8 12.5108 5.8C12.5171 5.8 12.5234 5.8 12.5297 5.8C12.536 5.8 12.5424 5.8 12.5487 5.8C12.555 5.8 12.5613 5.8 12.5676 5.8C12.5739 5.8 12.5802 5.8 12.5865 5.8C12.5929 5.8 12.5992 5.8 12.6055 5.8C12.6118 5.8 12.6181 5.8 12.6244 5.8C12.6307 5.8 12.6371 5.8 12.6434 5.8C12.6497 5.8 12.656 5.8 12.6623 5.8C12.6686 5.8 12.6749 5.8 12.6813 5.8C12.6876 5.8 12.6939 5.8 12.7002 5.8C12.7065 5.8 12.7128 5.8 12.7192 5.8C12.7255 5.8 12.7318 5.8 12.7381 5.8C12.7444 5.8 12.7508 5.8 12.7571 5.8C12.7634 5.8 12.7697 5.8 12.776 5.8C12.7823 5.8 12.7887 5.8 12.795 5.8C12.8013 5.8 12.8076 5.8 12.8139 5.8C12.8203 5.8 12.8266 5.8 12.8329 5.8C12.8392 5.8 12.8456 5.8 12.8519 5.8C12.8582 5.8 12.8645 5.8 12.8709 5.8C12.8772 5.8 12.8835 5.8 12.8898 5.8C12.8961 5.8 12.9025 5.8 12.9088 5.8C12.9151 5.8 12.9215 5.8 12.9278 5.8C12.9341 5.8 12.9404 5.8 12.9468 5.8C12.9531 5.8 12.9594 5.8 12.9657 5.8C12.9721 5.8 12.9784 5.8 12.9847 5.8C12.9911 5.8 12.9974 5.8 13.0037 5.8C13.01 5.8 13.0164 5.8 13.0227 5.8C13.029 5.8 13.0354 5.8 13.0417 5.8C13.048 5.8 13.0544 5.8 13.0607 5.8C13.067 5.8 13.0734 5.8 13.0797 5.8C13.086 5.8 13.0924 5.8 13.0987 5.8C13.105 5.8 13.1114 5.8 13.1177 5.8C13.1241 5.8 13.1304 5.8 13.1367 5.8C13.1431 5.8 13.1494 5.8 13.1557 5.8C13.1621 5.8 13.1684 5.8 13.1748 5.8C13.1811 5.8 13.1874 5.8 13.1938 5.8C13.2001 5.8 13.2065 5.8 13.2128 5.8C13.2192 5.8 13.2255 5.8 13.2318 5.8C13.2382 5.8 13.2445 5.8 13.2509 5.8C13.2572 5.8 13.2636 5.8 13.2699 5.8C13.2763 5.8 13.2826 5.8 13.2889 5.8C13.2953 5.8 13.3016 5.8 13.308 5.8C13.3143 5.8 13.3207 5.8 13.327 5.8C13.3334 5.8 13.3397 5.8 13.3461 5.8C13.3524 5.8 13.3588 5.8 13.3651 5.8C13.3715 5.8 13.3779 5.8 13.3842 5.8C13.3906 5.8 13.3969 5.8 13.4033 5.8C13.4096 5.8 13.416 5.8 13.4223 5.8C13.4287 5.8 13.435 5.8 13.4414 5.8C13.4478 5.8 13.4541 5.8 13.4605 5.8C13.4668 5.8 13.4732 5.8 13.4796 5.8C13.4859 5.8 13.4923 5.8 13.4986 5.8C13.505 5.8 13.5114 5.8 13.5177 5.8C13.5241 5.8 13.5305 5.8 13.5368 5.8C13.5432 5.8 13.5496 5.8 13.5559 5.8C13.5623 5.8 13.5687 5.8 13.575 5.8C13.5814 5.8 13.5878 5.8 13.5941 5.8C13.6005 5.8 13.6069 5.8 13.6133 5.8C13.6196 5.8 13.626 5.8 13.6324 5.8C13.6387 5.8 13.6451 5.8 13.6515 5.8C13.6579 5.8 13.6642 5.8 13.6706 5.8C13.677 5.8 13.6834 5.8 13.6898 5.8C13.6961 5.8 13.7025 5.8 13.7089 5.8C13.7153 5.8 13.7217 5.8 13.728 5.8C13.7344 5.8 13.7408 5.8 13.7472 5.8C13.7536 5.8 13.7599 5.8 13.7663 5.8C13.7727 5.8 13.7791 5.8 13.7855 5.8C13.7919 5.8 13.7983 5.8 13.8047 5.8C13.811 5.8 13.8174 5.8 13.8238 5.8C13.8302 5.8 13.8366 5.8 13.843 5.8C13.8494 5.8 13.8558 5.8 13.8622 5.8C13.8686 5.8 13.875 5.8 13.8814 5.8C13.8878 5.8 13.8942 5.8 13.9005 5.8C13.9069 5.8 13.9133 5.8 13.9197 5.8C13.9261 5.8 13.9325 5.8 13.9389 5.8C13.9453 5.8 13.9518 5.8 13.9582 5.8C13.9646 5.8 13.971 5.8 13.9774 5.8C13.9838 5.8 13.9902 5.8 13.9966 5.8C14.003 5.8 14.0094 5.8 14.0158 5.8C14.0222 5.8 14.0286 5.8 14.035 5.8C14.0415 5.8 14.0479 5.8 14.0543 5.8C14.0607 5.8 14.0671 5.8 14.0735 5.8C14.0799 5.8 14.0864 5.8 14.0928 5.8C14.0992 5.8 14.1056 5.8 14.112 5.8C14.1184 5.8 14.1249 5.8 14.1313 5.8C14.1377 5.8 14.1441 5.8 14.1506 5.8C14.157 5.8 14.1634 5.8 14.1698 5.8C14.1763 5.8 14.1827 5.8 14.1891 5.8C14.1955 5.8 14.202 5.8 14.2084 5.8C14.2148 5.8 14.2213 5.8 14.2277 5.8C14.2341 5.8 14.2406 5.8 14.247 5.8C14.2534 5.8 14.2599 5.8 14.2663 5.8C14.2727 5.8 14.2792 5.8 14.2856 5.8C14.292 5.8 14.2985 5.8 14.3049 5.8C14.3114 5.8 14.3178 5.8 14.3243 5.8C14.3307 5.8 14.3371 5.8 14.3436 5.8C14.35 5.8 14.3565 5.8 14.3629 5.8C14.3694 5.8 14.3758 5.8 14.3823 5.8C14.3887 5.8 14.3952 5.8 14.4016 5.8C14.4081 5.8 14.4145 5.8 14.421 5.8C14.4275 5.8 14.4339 5.8 14.4404 5.8C14.4468 5.8 14.4533 5.8 14.4597 5.8C14.4662 5.8 14.4727 5.8 14.4791 5.8C14.4856 5.8 14.4921 5.8 14.4985 5.8C14.505 5.8 14.5114 5.8 14.5179 5.8C14.5244 5.8 14.5308 5.8 14.5373 5.8C14.5438 5.8 14.5503 5.8 14.5567 5.8C14.5632 5.8 14.5697 5.8 14.5762 5.8C14.5826 5.8 14.5891 5.8 14.5956 5.8C14.6021 5.8 14.6085 5.8 14.615 5.8C14.6215 5.8 14.628 5.8 14.6345 5.8C14.6409 5.8 14.6474 5.8 14.6539 5.8C14.6604 5.8 14.6669 5.8 14.6734 5.8C14.6799 5.8 14.6863 5.8 14.6928 5.8C14.6993 5.8 14.7058 5.8 14.7123 5.8C14.7188 5.8 14.7253 5.8 14.7318 5.8C14.7383 5.8 14.7448 5.8 14.7513 5.8C14.7578 5.8 14.7643 5.8 14.7708 5.8C14.7773 5.8 14.7838 5.8 14.7903 5.8C14.7968 5.8 14.8033 5.8 14.8098 5.8C14.8163 5.8 14.8228 5.8 14.8293 5.8C14.8358 5.8 14.8424 5.8 14.8489 5.8C14.8554 5.8 14.8619 5.8 14.8684 5.8C14.8749 5.8 14.8814 5.8 14.888 5.8C14.8945 5.8 14.901 5.8 14.9075 5.8C14.914 5.8 14.9206 5.8 14.9271 5.8C14.9336 5.8 14.9401 5.8 14.9466 5.8C14.9532 5.8 14.9597 5.8 14.9662 5.8C14.9728 5.8 14.9793 5.8 14.9858 5.8C14.9924 5.8 14.9989 5.8 15.0054 5.8C15.012 5.8 15.0185 5.8 15.025 5.8C15.0316 5.8 15.0381 5.8 15.0447 5.8C15.0512 5.8 15.0577 5.8 15.0643 5.8C15.0708 5.8 15.0774 5.8 15.0839 5.8C15.0905 5.8 15.097 5.8 15.1036 5.8C15.1101 5.8 15.1167 5.8 15.1232 5.8C15.1298 5.8 15.1363 5.8 15.1429 5.8C15.1494 5.8 15.156 5.8 15.1626 5.8C15.1691 5.8 15.1757 5.8 15.1822 5.8C15.1888 5.8 15.1954 5.8 15.2019 5.8C15.2085 5.8 15.2151 5.8 15.2216 5.8C15.2282 5.8 15.2348 5.8 15.2413 5.8C15.2479 5.8 15.2545 5.8 15.2611 5.8C15.2676 5.8 15.2742 5.8 15.2808 5.8C15.2874 5.8 15.2939 5.8 15.3005 5.8C15.3071 5.8 15.3137 5.8 15.3203 5.8C15.3269 5.8 15.3334 5.8 15.34 5.8C15.3466 5.8 15.3532 5.8 15.3598 5.8C15.3664 5.8 15.373 5.8 15.3796 5.8C15.3862 5.8 15.3928 5.8 15.3994 5.8C15.406 5.8 15.4126 5.8 15.4192 5.8C15.4258 5.8 15.4324 5.8 15.439 5.8C15.4456 5.8 15.4522 5.8 15.4588 5.8C15.4654 5.8 15.472 5.8 15.4786 5.8C15.4852 5.8 15.4918 5.8 15.4985 5.8C15.5051 5.8 15.5117 5.8 15.5183 5.8C15.5249 5.8 15.5315 5.8 15.5382 5.8C15.5448 5.8 15.5514 5.8 15.558 5.8C15.5647 5.8 15.5713 5.8 15.5779 5.8C15.5845 5.8 15.5912 5.8 15.5978 5.8C15.6044 5.8 15.6111 5.8 15.6177 5.8C15.6243 5.8 15.631 5.8 15.6376 5.8C15.6443 5.8 15.6509 5.8 15.6575 5.8C15.6642 5.8 15.6708 5.8 15.6775 5.8C15.6841 5.8 15.6908 5.8 15.6974 5.8C15.7041 5.8 15.7107 5.8 15.7174 5.8C15.724 5.8 15.7307 5.8 15.7373 5.8C15.744 5.8 15.7506 5.8 15.7573 5.8C15.764 5.8 15.7706 5.8 15.7773 5.8C15.784 5.8 15.7906 5.8 15.7973 5.8C15.804 5.8 15.8106 5.8 15.8173 5.8C15.824 5.8 15.8306 5.8 15.8373 5.8C15.844 5.8 15.8507 5.8 15.8574 5.8C15.864 5.8 15.8707 5.8 15.8774 5.8C15.8841 5.8 15.8908 5.8 15.8974 5.8C15.9041 5.8 15.9108 5.8 15.9175 5.8C15.9242 5.8 15.9309 5.8 15.9376 5.8C15.9443 5.8 15.951 5.8 15.9577 5.8C15.9644 5.8 15.9711 5.8 15.9778 5.8C15.9845 5.8 15.9912 5.8 15.9979 5.8C16.0046 5.8 16.0113 5.8 16.018 5.8C16.0247 5.8 16.0314 5.8 16.0381 5.8C16.0449 5.8 16.0516 5.8 16.0583 5.8C16.065 5.8 16.0717 5.8 16.0784 5.8C16.0852 5.8 16.0919 5.8 16.0986 5.8C16.1053 5.8 16.1121 5.8 16.1188 5.8C16.1255 5.8 16.1323 5.8 16.139 5.8C16.1457 5.8 16.1525 5.8 16.1592 5.8C16.1659 5.8 16.1727 5.8 16.1794 5.8C16.1862 5.8 16.1929 5.8 16.1996 5.8C16.2064 5.8 16.2131 5.8 16.2199 5.8C16.2266 5.8 16.2334 5.8 16.2401 5.8C16.2469 5.8 16.2537 5.8 16.2604 5.8C16.2672 5.8 16.2739 5.8 16.2807 5.8C16.2875 5.8 16.2942 5.8 16.301 5.8C16.3077 5.8 16.3145 5.8 16.3213 5.8C16.3281 5.8 16.3348 5.8 16.3416 5.8C16.3484 5.8 16.3552 5.8 16.3619 5.8C16.3687 5.8 16.3755 5.8 16.3823 5.8C16.3891 5.8 16.3958 5.8 16.4026 5.8C16.4094 5.8 16.4162 5.8 16.423 5.8C16.4298 5.8 16.4366 5.8 16.4434 5.8C16.4502 5.8 16.457 5.8 16.4638 5.8C16.4706 5.8 16.4774 5.8 16.4842 5.8C16.491 5.8 16.4978 5.8 16.5046 5.8C16.5114 5.8 16.5182 5.8 16.525 5.8C16.5318 5.8 16.5387 5.8 16.5455 5.8C16.5523 5.8 16.5591 5.8 16.5659 5.8C16.5728 5.8 16.5796 5.8 16.5864 5.8C16.5932 5.8 16.6001 5.8 16.6069 5.8C16.6137 5.8 16.6206 5.8 16.6274 5.8C16.6342 5.8 16.6411 5.8 16.6479 5.8C16.6547 5.8 16.6616 5.8 16.6684 5.8C16.6753 5.8 16.6821 5.8 16.689 5.8C16.6958 5.8 16.7027 5.8 16.7095 5.8C16.7164 5.8 16.7232 5.8 16.7301 5.8C16.7369 5.8 16.7438 5.8 16.7507 5.8C16.7575 5.8 16.7644 5.8 16.7713 5.8C16.7781 5.8 16.785 5.8 16.7919 5.8C16.7987 5.8 16.8056 5.8 16.8125 5.8C16.8194 5.8 16.8262 5.8 16.8331 5.8C16.84 5.8 16.8469 5.8 16.8538 5.8C16.8606 5.8 16.8675 5.8 16.8744 5.8C16.8813 5.8 16.8882 5.8 16.8951 5.8C16.902 5.8 16.9089 5.8 16.9158 5.8C16.9227 5.8 16.9296 5.8 16.9365 5.8C16.9434 5.8 16.9503 5.8 16.9572 5.8C16.9641 5.8 16.971 5.8 16.978 5.8C16.9849 5.8 16.9918 5.8 16.9987 5.8V3.8C16.9918 3.8 16.9849 3.8 16.978 3.8C16.971 3.8 16.9641 3.8 16.9572 3.8C16.9503 3.8 16.9434 3.8 16.9365 3.8C16.9296 3.8 16.9227 3.8 16.9158 3.8C16.9089 3.8 16.902 3.8 16.8951 3.8C16.8882 3.8 16.8813 3.8 16.8744 3.8C16.8675 3.8 16.8606 3.8 16.8538 3.8C16.8469 3.8 16.84 3.8 16.8331 3.8C16.8262 3.8 16.8194 3.8 16.8125 3.8C16.8056 3.8 16.7987 3.8 16.7919 3.8C16.785 3.8 16.7781 3.8 16.7713 3.8C16.7644 3.8 16.7575 3.8 16.7507 3.8C16.7438 3.8 16.7369 3.8 16.7301 3.8C16.7232 3.8 16.7164 3.8 16.7095 3.8C16.7027 3.8 16.6958 3.8 16.689 3.8C16.6821 3.8 16.6753 3.8 16.6684 3.8C16.6616 3.8 16.6547 3.8 16.6479 3.8C16.6411 3.8 16.6342 3.8 16.6274 3.8C16.6206 3.8 16.6137 3.8 16.6069 3.8C16.6001 3.8 16.5932 3.8 16.5864 3.8C16.5796 3.8 16.5728 3.8 16.5659 3.8C16.5591 3.8 16.5523 3.8 16.5455 3.8C16.5387 3.8 16.5318 3.8 16.525 3.8C16.5182 3.8 16.5114 3.8 16.5046 3.8C16.4978 3.8 16.491 3.8 16.4842 3.8C16.4774 3.8 16.4706 3.8 16.4638 3.8C16.457 3.8 16.4502 3.8 16.4434 3.8C16.4366 3.8 16.4298 3.8 16.423 3.8C16.4162 3.8 16.4094 3.8 16.4026 3.8C16.3958 3.8 16.3891 3.8 16.3823 3.8C16.3755 3.8 16.3687 3.8 16.3619 3.8C16.3552 3.8 16.3484 3.8 16.3416 3.8C16.3348 3.8 16.3281 3.8 16.3213 3.8C16.3145 3.8 16.3077 3.8 16.301 3.8C16.2942 3.8 16.2875 3.8 16.2807 3.8C16.2739 3.8 16.2672 3.8 16.2604 3.8C16.2537 3.8 16.2469 3.8 16.2401 3.8C16.2334 3.8 16.2266 3.8 16.2199 3.8C16.2131 3.8 16.2064 3.8 16.1996 3.8C16.1929 3.8 16.1862 3.8 16.1794 3.8C16.1727 3.8 16.1659 3.8 16.1592 3.8C16.1525 3.8 16.1457 3.8 16.139 3.8C16.1323 3.8 16.1255 3.8 16.1188 3.8C16.1121 3.8 16.1053 3.8 16.0986 3.8C16.0919 3.8 16.0852 3.8 16.0784 3.8C16.0717 3.8 16.065 3.8 16.0583 3.8C16.0516 3.8 16.0449 3.8 16.0381 3.8C16.0314 3.8 16.0247 3.8 16.018 3.8C16.0113 3.8 16.0046 3.8 15.9979 3.8C15.9912 3.8 15.9845 3.8 15.9778 3.8C15.9711 3.8 15.9644 3.8 15.9577 3.8C15.951 3.8 15.9443 3.8 15.9376 3.8C15.9309 3.8 15.9242 3.8 15.9175 3.8C15.9108 3.8 15.9041 3.8 15.8974 3.8C15.8908 3.8 15.8841 3.8 15.8774 3.8C15.8707 3.8 15.864 3.8 15.8574 3.8C15.8507 3.8 15.844 3.8 15.8373 3.8C15.8306 3.8 15.824 3.8 15.8173 3.8C15.8106 3.8 15.804 3.8 15.7973 3.8C15.7906 3.8 15.784 3.8 15.7773 3.8C15.7706 3.8 15.764 3.8 15.7573 3.8C15.7506 3.8 15.744 3.8 15.7373 3.8C15.7307 3.8 15.724 3.8 15.7174 3.8C15.7107 3.8 15.7041 3.8 15.6974 3.8C15.6908 3.8 15.6841 3.8 15.6775 3.8C15.6708 3.8 15.6642 3.8 15.6575 3.8C15.6509 3.8 15.6443 3.8 15.6376 3.8C15.631 3.8 15.6243 3.8 15.6177 3.8C15.6111 3.8 15.6044 3.8 15.5978 3.8C15.5912 3.8 15.5845 3.8 15.5779 3.8C15.5713 3.8 15.5647 3.8 15.558 3.8C15.5514 3.8 15.5448 3.8 15.5382 3.8C15.5315 3.8 15.5249 3.8 15.5183 3.8C15.5117 3.8 15.5051 3.8 15.4985 3.8C15.4918 3.8 15.4852 3.8 15.4786 3.8C15.472 3.8 15.4654 3.8 15.4588 3.8C15.4522 3.8 15.4456 3.8 15.439 3.8C15.4324 3.8 15.4258 3.8 15.4192 3.8C15.4126 3.8 15.406 3.8 15.3994 3.8C15.3928 3.8 15.3862 3.8 15.3796 3.8C15.373 3.8 15.3664 3.8 15.3598 3.8C15.3532 3.8 15.3466 3.8 15.34 3.8C15.3334 3.8 15.3269 3.8 15.3203 3.8C15.3137 3.8 15.3071 3.8 15.3005 3.8C15.2939 3.8 15.2874 3.8 15.2808 3.8C15.2742 3.8 15.2676 3.8 15.2611 3.8C15.2545 3.8 15.2479 3.8 15.2413 3.8C15.2348 3.8 15.2282 3.8 15.2216 3.8C15.2151 3.8 15.2085 3.8 15.2019 3.8C15.1954 3.8 15.1888 3.8 15.1822 3.8C15.1757 3.8 15.1691 3.8 15.1626 3.8C15.156 3.8 15.1494 3.8 15.1429 3.8C15.1363 3.8 15.1298 3.8 15.1232 3.8C15.1167 3.8 15.1101 3.8 15.1036 3.8C15.097 3.8 15.0905 3.8 15.0839 3.8C15.0774 3.8 15.0708 3.8 15.0643 3.8C15.0577 3.8 15.0512 3.8 15.0447 3.8C15.0381 3.8 15.0316 3.8 15.025 3.8C15.0185 3.8 15.012 3.8 15.0054 3.8C14.9989 3.8 14.9924 3.8 14.9858 3.8C14.9793 3.8 14.9728 3.8 14.9662 3.8C14.9597 3.8 14.9532 3.8 14.9466 3.8C14.9401 3.8 14.9336 3.8 14.9271 3.8C14.9206 3.8 14.914 3.8 14.9075 3.8C14.901 3.8 14.8945 3.8 14.888 3.8C14.8814 3.8 14.8749 3.8 14.8684 3.8C14.8619 3.8 14.8554 3.8 14.8489 3.8C14.8424 3.8 14.8358 3.8 14.8293 3.8C14.8228 3.8 14.8163 3.8 14.8098 3.8C14.8033 3.8 14.7968 3.8 14.7903 3.8C14.7838 3.8 14.7773 3.8 14.7708 3.8C14.7643 3.8 14.7578 3.8 14.7513 3.8C14.7448 3.8 14.7383 3.8 14.7318 3.8C14.7253 3.8 14.7188 3.8 14.7123 3.8C14.7058 3.8 14.6993 3.8 14.6928 3.8C14.6863 3.8 14.6799 3.8 14.6734 3.8C14.6669 3.8 14.6604 3.8 14.6539 3.8C14.6474 3.8 14.6409 3.8 14.6345 3.8C14.628 3.8 14.6215 3.8 14.615 3.8C14.6085 3.8 14.6021 3.8 14.5956 3.8C14.5891 3.8 14.5826 3.8 14.5762 3.8C14.5697 3.8 14.5632 3.8 14.5567 3.8C14.5503 3.8 14.5438 3.8 14.5373 3.8C14.5308 3.8 14.5244 3.8 14.5179 3.8C14.5114 3.8 14.505 3.8 14.4985 3.8C14.4921 3.8 14.4856 3.8 14.4791 3.8C14.4727 3.8 14.4662 3.8 14.4597 3.8C14.4533 3.8 14.4468 3.8 14.4404 3.8C14.4339 3.8 14.4275 3.8 14.421 3.8C14.4145 3.8 14.4081 3.8 14.4016 3.8C14.3952 3.8 14.3887 3.8 14.3823 3.8C14.3758 3.8 14.3694 3.8 14.3629 3.8C14.3565 3.8 14.35 3.8 14.3436 3.8C14.3371 3.8 14.3307 3.8 14.3243 3.8C14.3178 3.8 14.3114 3.8 14.3049 3.8C14.2985 3.8 14.292 3.8 14.2856 3.8C14.2792 3.8 14.2727 3.8 14.2663 3.8C14.2599 3.8 14.2534 3.8 14.247 3.8C14.2406 3.8 14.2341 3.8 14.2277 3.8C14.2213 3.8 14.2148 3.8 14.2084 3.8C14.202 3.8 14.1955 3.8 14.1891 3.8C14.1827 3.8 14.1763 3.8 14.1698 3.8C14.1634 3.8 14.157 3.8 14.1506 3.8C14.1441 3.8 14.1377 3.8 14.1313 3.8C14.1249 3.8 14.1184 3.8 14.112 3.8C14.1056 3.8 14.0992 3.8 14.0928 3.8C14.0864 3.8 14.0799 3.8 14.0735 3.8C14.0671 3.8 14.0607 3.8 14.0543 3.8C14.0479 3.8 14.0415 3.8 14.035 3.8C14.0286 3.8 14.0222 3.8 14.0158 3.8C14.0094 3.8 14.003 3.8 13.9966 3.8C13.9902 3.8 13.9838 3.8 13.9774 3.8C13.971 3.8 13.9646 3.8 13.9582 3.8C13.9518 3.8 13.9453 3.8 13.9389 3.8C13.9325 3.8 13.9261 3.8 13.9197 3.8C13.9133 3.8 13.9069 3.8 13.9005 3.8C13.8942 3.8 13.8878 3.8 13.8814 3.8C13.875 3.8 13.8686 3.8 13.8622 3.8C13.8558 3.8 13.8494 3.8 13.843 3.8C13.8366 3.8 13.8302 3.8 13.8238 3.8C13.8174 3.8 13.811 3.8 13.8047 3.8C13.7983 3.8 13.7919 3.8 13.7855 3.8C13.7791 3.8 13.7727 3.8 13.7663 3.8C13.7599 3.8 13.7536 3.8 13.7472 3.8C13.7408 3.8 13.7344 3.8 13.728 3.8C13.7217 3.8 13.7153 3.8 13.7089 3.8C13.7025 3.8 13.6961 3.8 13.6898 3.8C13.6834 3.8 13.677 3.8 13.6706 3.8C13.6642 3.8 13.6579 3.8 13.6515 3.8C13.6451 3.8 13.6387 3.8 13.6324 3.8C13.626 3.8 13.6196 3.8 13.6133 3.8C13.6069 3.8 13.6005 3.8 13.5941 3.8C13.5878 3.8 13.5814 3.8 13.575 3.8C13.5687 3.8 13.5623 3.8 13.5559 3.8C13.5496 3.8 13.5432 3.8 13.5368 3.8C13.5305 3.8 13.5241 3.8 13.5177 3.8C13.5114 3.8 13.505 3.8 13.4986 3.8C13.4923 3.8 13.4859 3.8 13.4796 3.8C13.4732 3.8 13.4668 3.8 13.4605 3.8C13.4541 3.8 13.4478 3.8 13.4414 3.8C13.435 3.8 13.4287 3.8 13.4223 3.8C13.416 3.8 13.4096 3.8 13.4033 3.8C13.3969 3.8 13.3906 3.8 13.3842 3.8C13.3779 3.8 13.3715 3.8 13.3651 3.8C13.3588 3.8 13.3524 3.8 13.3461 3.8C13.3397 3.8 13.3334 3.8 13.327 3.8C13.3207 3.8 13.3143 3.8 13.308 3.8C13.3016 3.8 13.2953 3.8 13.2889 3.8C13.2826 3.8 13.2763 3.8 13.2699 3.8C13.2636 3.8 13.2572 3.8 13.2509 3.8C13.2445 3.8 13.2382 3.8 13.2318 3.8C13.2255 3.8 13.2192 3.8 13.2128 3.8C13.2065 3.8 13.2001 3.8 13.1938 3.8C13.1874 3.8 13.1811 3.8 13.1748 3.8C13.1684 3.8 13.1621 3.8 13.1557 3.8C13.1494 3.8 13.1431 3.8 13.1367 3.8C13.1304 3.8 13.1241 3.8 13.1177 3.8C13.1114 3.8 13.105 3.8 13.0987 3.8C13.0924 3.8 13.086 3.8 13.0797 3.8C13.0734 3.8 13.067 3.8 13.0607 3.8C13.0544 3.8 13.048 3.8 13.0417 3.8C13.0354 3.8 13.029 3.8 13.0227 3.8C13.0164 3.8 13.01 3.8 13.0037 3.8C12.9974 3.8 12.9911 3.8 12.9847 3.8C12.9784 3.8 12.9721 3.8 12.9657 3.8C12.9594 3.8 12.9531 3.8 12.9468 3.8C12.9404 3.8 12.9341 3.8 12.9278 3.8C12.9215 3.8 12.9151 3.8 12.9088 3.8C12.9025 3.8 12.8961 3.8 12.8898 3.8C12.8835 3.8 12.8772 3.8 12.8709 3.8C12.8645 3.8 12.8582 3.8 12.8519 3.8C12.8456 3.8 12.8392 3.8 12.8329 3.8C12.8266 3.8 12.8203 3.8 12.8139 3.8C12.8076 3.8 12.8013 3.8 12.795 3.8C12.7887 3.8 12.7823 3.8 12.776 3.8C12.7697 3.8 12.7634 3.8 12.7571 3.8C12.7508 3.8 12.7444 3.8 12.7381 3.8C12.7318 3.8 12.7255 3.8 12.7192 3.8C12.7128 3.8 12.7065 3.8 12.7002 3.8C12.6939 3.8 12.6876 3.8 12.6813 3.8C12.6749 3.8 12.6686 3.8 12.6623 3.8C12.656 3.8 12.6497 3.8 12.6434 3.8C12.6371 3.8 12.6307 3.8 12.6244 3.8C12.6181 3.8 12.6118 3.8 12.6055 3.8C12.5992 3.8 12.5929 3.8 12.5865 3.8C12.5802 3.8 12.5739 3.8 12.5676 3.8C12.5613 3.8 12.555 3.8 12.5487 3.8C12.5424 3.8 12.536 3.8 12.5297 3.8C12.5234 3.8 12.5171 3.8 12.5108 3.8C12.5045 3.8 12.4982 3.8 12.4919 3.8C12.4856 3.8 12.4792 3.8 12.4729 3.8C12.4666 3.8 12.4603 3.8 12.454 3.8C12.4477 3.8 12.4414 3.8 12.4351 3.8C12.4288 3.8 12.4225 3.8 12.4162 3.8C12.4098 3.8 12.4035 3.8 12.3972 3.8C12.3909 3.8 12.3846 3.8 12.3783 3.8C12.372 3.8 12.3657 3.8 12.3594 3.8C12.3531 3.8 12.3468 3.8 12.3405 3.8C12.3342 3.8 12.3279 3.8 12.3215 3.8C12.3152 3.8 12.3089 3.8 12.3026 3.8C12.2963 3.8 12.29 3.8 12.2837 3.8C12.2774 3.8 12.2711 3.8 12.2648 3.8C12.2585 3.8 12.2522 3.8 12.2459 3.8C12.2396 3.8 12.2333 3.8 12.227 3.8C12.2207 3.8 12.2143 3.8 12.208 3.8C12.2017 3.8 12.1954 3.8 12.1891 3.8C12.1828 3.8 12.1765 3.8 12.1702 3.8C12.1639 3.8 12.1576 3.8 12.1513 3.8C12.145 3.8 12.1387 3.8 12.1324 3.8C12.1261 3.8 12.1198 3.8 12.1135 3.8C12.1072 3.8 12.1009 3.8 12.0946 3.8C12.0883 3.8 12.082 3.8 12.0756 3.8C12.0693 3.8 12.063 3.8 12.0567 3.8C12.0504 3.8 12.0441 3.8 12.0378 3.8C12.0315 3.8 12.0252 3.8 12.0189 3.8C12.0126 3.8 12.0063 3.8 12 3.8C11.9937 3.8 11.9874 3.8 11.9811 3.8C11.9748 3.8 11.9685 3.8 11.9622 3.8C11.9559 3.8 11.9496 3.8 11.9433 3.8C11.937 3.8 11.9307 3.8 11.9244 3.8C11.918 3.8 11.9117 3.8 11.9054 3.8C11.8991 3.8 11.8928 3.8 11.8865 3.8C11.8802 3.8 11.8739 3.8 11.8676 3.8C11.8613 3.8 11.855 3.8 11.8487 3.8C11.8424 3.8 11.8361 3.8 11.8298 3.8C11.8235 3.8 11.8172 3.8 11.8109 3.8C11.8046 3.8 11.7983 3.8 11.792 3.8C11.7857 3.8 11.7793 3.8 11.773 3.8C11.7667 3.8 11.7604 3.8 11.7541 3.8C11.7478 3.8 11.7415 3.8 11.7352 3.8C11.7289 3.8 11.7226 3.8 11.7163 3.8C11.71 3.8 11.7037 3.8 11.6974 3.8C11.6911 3.8 11.6848 3.8 11.6785 3.8C11.6721 3.8 11.6658 3.8 11.6595 3.8C11.6532 3.8 11.6469 3.8 11.6406 3.8C11.6343 3.8 11.628 3.8 11.6217 3.8C11.6154 3.8 11.6091 3.8 11.6028 3.8C11.5965 3.8 11.5901 3.8 11.5838 3.8C11.5775 3.8 11.5712 3.8 11.5649 3.8C11.5586 3.8 11.5523 3.8 11.546 3.8C11.5397 3.8 11.5334 3.8 11.5271 3.8C11.5207 3.8 11.5144 3.8 11.5081 3.8C11.5018 3.8 11.4955 3.8 11.4892 3.8C11.4829 3.8 11.4766 3.8 11.4703 3.8C11.464 3.8 11.4576 3.8 11.4513 3.8C11.445 3.8 11.4387 3.8 11.4324 3.8C11.4261 3.8 11.4198 3.8 11.4135 3.8C11.4071 3.8 11.4008 3.8 11.3945 3.8C11.3882 3.8 11.3819 3.8 11.3756 3.8C11.3693 3.8 11.3629 3.8 11.3566 3.8C11.3503 3.8 11.344 3.8 11.3377 3.8C11.3314 3.8 11.3251 3.8 11.3187 3.8C11.3124 3.8 11.3061 3.8 11.2998 3.8C11.2935 3.8 11.2872 3.8 11.2808 3.8C11.2745 3.8 11.2682 3.8 11.2619 3.8C11.2556 3.8 11.2492 3.8 11.2429 3.8C11.2366 3.8 11.2303 3.8 11.224 3.8C11.2177 3.8 11.2113 3.8 11.205 3.8C11.1987 3.8 11.1924 3.8 11.186 3.8C11.1797 3.8 11.1734 3.8 11.1671 3.8C11.1608 3.8 11.1544 3.8 11.1481 3.8C11.1418 3.8 11.1355 3.8 11.1291 3.8C11.1228 3.8 11.1165 3.8 11.1102 3.8C11.1038 3.8 11.0975 3.8 11.0912 3.8C11.0849 3.8 11.0785 3.8 11.0722 3.8C11.0659 3.8 11.0596 3.8 11.0532 3.8C11.0469 3.8 11.0406 3.8 11.0343 3.8C11.0279 3.8 11.0216 3.8 11.0153 3.8C11.0089 3.8 11.0026 3.8 10.9963 3.8C10.99 3.8 10.9836 3.8 10.9773 3.8C10.971 3.8 10.9646 3.8 10.9583 3.8C10.952 3.8 10.9456 3.8 10.9393 3.8C10.933 3.8 10.9266 3.8 10.9203 3.8C10.914 3.8 10.9076 3.8 10.9013 3.8C10.895 3.8 10.8886 3.8 10.8823 3.8C10.8759 3.8 10.8696 3.8 10.8633 3.8C10.8569 3.8 10.8506 3.8 10.8443 3.8C10.8379 3.8 10.8316 3.8 10.8252 3.8C10.8189 3.8 10.8126 3.8 10.8062 3.8C10.7999 3.8 10.7935 3.8 10.7872 3.8C10.7808 3.8 10.7745 3.8 10.7682 3.8C10.7618 3.8 10.7555 3.8 10.7491 3.8C10.7428 3.8 10.7364 3.8 10.7301 3.8C10.7237 3.8 10.7174 3.8 10.7111 3.8C10.7047 3.8 10.6984 3.8 10.692 3.8C10.6857 3.8 10.6793 3.8 10.673 3.8C10.6666 3.8 10.6603 3.8 10.6539 3.8C10.6476 3.8 10.6412 3.8 10.6349 3.8C10.6285 3.8 10.6221 3.8 10.6158 3.8C10.6094 3.8 10.6031 3.8 10.5967 3.8C10.5904 3.8 10.584 3.8 10.5777 3.8C10.5713 3.8 10.5649 3.8 10.5586 3.8C10.5522 3.8 10.5459 3.8 10.5395 3.8C10.5332 3.8 10.5268 3.8 10.5204 3.8C10.5141 3.8 10.5077 3.8 10.5013 3.8C10.495 3.8 10.4886 3.8 10.4823 3.8C10.4759 3.8 10.4695 3.8 10.4632 3.8C10.4568 3.8 10.4504 3.8 10.4441 3.8C10.4377 3.8 10.4313 3.8 10.425 3.8C10.4186 3.8 10.4122 3.8 10.4059 3.8C10.3995 3.8 10.3931 3.8 10.3867 3.8C10.3804 3.8 10.374 3.8 10.3676 3.8C10.3613 3.8 10.3549 3.8 10.3485 3.8C10.3421 3.8 10.3358 3.8 10.3294 3.8C10.323 3.8 10.3166 3.8 10.3102 3.8C10.3039 3.8 10.2975 3.8 10.2911 3.8C10.2847 3.8 10.2783 3.8 10.272 3.8C10.2656 3.8 10.2592 3.8 10.2528 3.8C10.2464 3.8 10.2401 3.8 10.2337 3.8C10.2273 3.8 10.2209 3.8 10.2145 3.8C10.2081 3.8 10.2017 3.8 10.1953 3.8C10.189 3.8 10.1826 3.8 10.1762 3.8C10.1698 3.8 10.1634 3.8 10.157 3.8C10.1506 3.8 10.1442 3.8 10.1378 3.8C10.1314 3.8 10.125 3.8 10.1186 3.8C10.1122 3.8 10.1058 3.8 10.0994 3.8C10.0931 3.8 10.0867 3.8 10.0803 3.8C10.0739 3.8 10.0675 3.8 10.0611 3.8C10.0547 3.8 10.0482 3.8 10.0418 3.8C10.0354 3.8 10.029 3.8 10.0226 3.8C10.0162 3.8 10.0098 3.8 10.0034 3.8C9.99701 3.8 9.9906 3.8 9.98419 3.8C9.97778 3.8 9.97137 3.8 9.96496 3.8C9.95855 3.8 9.95213 3.8 9.94572 3.8C9.93931 3.8 9.93289 3.8 9.92648 3.8C9.92006 3.8 9.91365 3.8 9.90723 3.8C9.90081 3.8 9.89439 3.8 9.88797 3.8C9.88155 3.8 9.87513 3.8 9.86871 3.8C9.86229 3.8 9.85587 3.8 9.84944 3.8C9.84302 3.8 9.8366 3.8 9.83017 3.8C9.82374 3.8 9.81732 3.8 9.81089 3.8C9.80446 3.8 9.79803 3.8 9.7916 3.8C9.78517 3.8 9.77874 3.8 9.77231 3.8C9.76588 3.8 9.75944 3.8 9.75301 3.8C9.74657 3.8 9.74014 3.8 9.7337 3.8C9.72727 3.8 9.72083 3.8 9.71439 3.8C9.70795 3.8 9.70151 3.8 9.69507 3.8C9.68863 3.8 9.68219 3.8 9.67574 3.8C9.6693 3.8 9.66285 3.8 9.65641 3.8C9.64996 3.8 9.64352 3.8 9.63707 3.8C9.63062 3.8 9.62417 3.8 9.61772 3.8C9.61127 3.8 9.60482 3.8 9.59836 3.8C9.59191 3.8 9.58546 3.8 9.579 3.8C9.57255 3.8 9.56609 3.8 9.55963 3.8C9.55318 3.8 9.54672 3.8 9.54026 3.8C9.5338 3.8 9.52734 3.8 9.52087 3.8C9.51441 3.8 9.50795 3.8 9.50148 3.8C9.49502 3.8 9.48855 3.8 9.48209 3.8C9.47562 3.8 9.46915 3.8 9.46268 3.8C9.45621 3.8 9.44974 3.8 9.44327 3.8C9.43679 3.8 9.43032 3.8 9.42385 3.8C9.41737 3.8 9.4109 3.8 9.40442 3.8C9.39794 3.8 9.39146 3.8 9.38498 3.8C9.3785 3.8 9.37202 3.8 9.36554 3.8C9.35906 3.8 9.35257 3.8 9.34609 3.8C9.3396 3.8 9.33312 3.8 9.32663 3.8C9.32014 3.8 9.31365 3.8 9.30716 3.8C9.30067 3.8 9.29418 3.8 9.28769 3.8C9.28119 3.8 9.2747 3.8 9.2682 3.8C9.26171 3.8 9.25521 3.8 9.24871 3.8C9.24221 3.8 9.23571 3.8 9.22921 3.8C9.22271 3.8 9.21621 3.8 9.20971 3.8C9.2032 3.8 9.1967 3.8 9.19019 3.8C9.18368 3.8 9.17718 3.8 9.17067 3.8C9.16416 3.8 9.15765 3.8 9.15114 3.8C9.14462 3.8 9.13811 3.8 9.1316 3.8C9.12508 3.8 9.11856 3.8 9.11205 3.8C9.10553 3.8 9.09901 3.8 9.09249 3.8C9.08597 3.8 9.07945 3.8 9.07292 3.8C9.0664 3.8 9.05987 3.8 9.05335 3.8C9.04682 3.8 9.04029 3.8 9.03377 3.8C9.02724 3.8 9.02071 3.8 9.01417 3.8C9.00764 3.8 9.00111 3.8 8.99457 3.8C8.98804 3.8 8.9815 3.8 8.97496 3.8C8.96843 3.8 8.96189 3.8 8.95535 3.8C8.9488 3.8 8.94226 3.8 8.93572 3.8C8.92917 3.8 8.92263 3.8 8.91608 3.8C8.90953 3.8 8.90299 3.8 8.89644 3.8C8.88989 3.8 8.88334 3.8 8.87678 3.8C8.87023 3.8 8.86367 3.8 8.85712 3.8C8.85056 3.8 8.844 3.8 8.83745 3.8C8.83089 3.8 8.82433 3.8 8.81776 3.8C8.8112 3.8 8.80464 3.8 8.79807 3.8C8.79151 3.8 8.78494 3.8 8.77837 3.8C8.7718 3.8 8.76523 3.8 8.75866 3.8C8.75209 3.8 8.74552 3.8 8.73894 3.8C8.73237 3.8 8.72579 3.8 8.71921 3.8C8.71263 3.8 8.70605 3.8 8.69947 3.8C8.69289 3.8 8.68631 3.8 8.67972 3.8C8.67314 3.8 8.66655 3.8 8.65997 3.8C8.65338 3.8 8.64679 3.8 8.6402 3.8C8.63361 3.8 8.62701 3.8 8.62042 3.8C8.61382 3.8 8.60723 3.8 8.60063 3.8C8.59403 3.8 8.58743 3.8 8.58083 3.8C8.57423 3.8 8.56763 3.8 8.56103 3.8C8.55442 3.8 8.54782 3.8 8.54121 3.8C8.5346 3.8 8.52799 3.8 8.52138 3.8C8.51477 3.8 8.50816 3.8 8.50154 3.8C8.49493 3.8 8.48831 3.8 8.48169 3.8C8.47507 3.8 8.46846 3.8 8.46183 3.8C8.45521 3.8 8.44859 3.8 8.44196 3.8C8.43534 3.8 8.42871 3.8 8.42209 3.8C8.41546 3.8 8.40883 3.8 8.4022 3.8C8.39556 3.8 8.38893 3.8 8.38229 3.8C8.37566 3.8 8.36902 3.8 8.36238 3.8C8.35574 3.8 8.3491 3.8 8.34246 3.8C8.33582 3.8 8.32918 3.8 8.32253 3.8C8.31588 3.8 8.30924 3.8 8.30259 3.8C8.29594 3.8 8.28929 3.8 8.28263 3.8C8.27598 3.8 8.26932 3.8 8.26267 3.8C8.25601 3.8 8.24935 3.8 8.24269 3.8C8.23603 3.8 8.22937 3.8 8.2227 3.8C8.21604 3.8 8.20937 3.8 8.20271 3.8C8.19604 3.8 8.18937 3.8 8.1827 3.8C8.17603 3.8 8.16935 3.8 8.16268 3.8C8.156 3.8 8.14933 3.8 8.14265 3.8C8.13597 3.8 8.12929 3.8 8.1226 3.8C8.11592 3.8 8.10924 3.8 8.10255 3.8C8.09586 3.8 8.08918 3.8 8.08249 3.8C8.0758 3.8 8.0691 3.8 8.06241 3.8C8.05572 3.8 8.04902 3.8 8.04232 3.8C8.03562 3.8 8.02892 3.8 8.02222 3.8C8.01552 3.8 8.00882 3.8 8.00211 3.8C7.9954 3.8 7.9887 3.8 7.98199 3.8C7.97528 3.8 7.96857 3.8 7.96185 3.8C7.95514 3.8 7.94842 3.8 7.94171 3.8C7.93499 3.8 7.92827 3.8 7.92155 3.8C7.91483 3.8 7.9081 3.8 7.90138 3.8C7.89465 3.8 7.88793 3.8 7.8812 3.8C7.87447 3.8 7.86774 3.8 7.861 3.8C7.85427 3.8 7.84754 3.8 7.8408 3.8C7.83406 3.8 7.82732 3.8 7.82058 3.8C7.81384 3.8 7.8071 3.8 7.80035 3.8C7.7936 3.8 7.78686 3.8 7.78011 3.8C7.77336 3.8 7.76661 3.8 7.75985 3.8C7.7531 3.8 7.74634 3.8 7.73959 3.8C7.73283 3.8 7.72607 3.8 7.71931 3.8C7.71254 3.8 7.70578 3.8 7.69902 3.8C7.69225 3.8 7.68548 3.8 7.67871 3.8C7.67194 3.8 7.66517 3.8 7.65839 3.8C7.65162 3.8 7.64484 3.8 7.63806 3.8C7.63129 3.8 7.62451 3.8 7.61772 3.8C7.61094 3.8 7.60416 3.8 7.59737 3.8C7.59058 3.8 7.58379 3.8 7.577 3.8C7.57021 3.8 7.56342 3.8 7.55662 3.8C7.54983 3.8 7.54303 3.8 7.53623 3.8C7.52943 3.8 7.52263 3.8 7.51582 3.8C7.50902 3.8 7.50221 3.8 7.4954 3.8C7.48859 3.8 7.48178 3.8 7.47497 3.8C7.46816 3.8 7.46134 3.8 7.45452 3.8C7.44771 3.8 7.44089 3.8 7.43407 3.8C7.42724 3.8 7.42042 3.8 7.41359 3.8C7.40677 3.8 7.39994 3.8 7.39311 3.8C7.38628 3.8 7.37945 3.8 7.37261 3.8C7.36578 3.8 7.35894 3.8 7.3521 3.8C7.34526 3.8 7.33842 3.8 7.33158 3.8C7.32473 3.8 7.31788 3.8 7.31104 3.8C7.30419 3.8 7.29734 3.8 7.29048 3.8C7.28363 3.8 7.27678 3.8 7.26992 3.8C7.26306 3.8 7.2562 3.8 7.24934 3.8C7.24248 3.8 7.23561 3.8 7.22875 3.8C7.22188 3.8 7.21501 3.8 7.20814 3.8C7.20127 3.8 7.19439 3.8 7.18752 3.8C7.18064 3.8 7.17376 3.8 7.16688 3.8C7.16 3.8 7.15312 3.8 7.14624 3.8C7.13935 3.8 7.13246 3.8 7.12557 3.8C7.11868 3.8 7.11179 3.8 7.1049 3.8C7.098 3.8 7.0911 3.8 7.08421 3.8C7.07731 3.8 7.0704 3.8 7.0635 3.8C7.0566 3.8 7.04969 3.8 7.04278 3.8C7.03587 3.8 7.02896 3.8 7.02205 3.8C7.01513 3.8 7.00822 3.8 7.0013 3.8V5.8ZM21 9.2H3V11.2H21V9.2ZM16.4 3V6.6H18.4V3H16.4ZM5.6 3V6.6H7.6V3H5.6ZM7 20C6.02892 20 5.40121 19.9979 4.9387 19.9357C4.50496 19.8774 4.36902 19.7832 4.29289 19.7071L2.87868 21.1213C3.38834 21.631 4.01669 21.8297 4.67221 21.9179C5.29896 22.0021 6.08546 22 7 22V20ZM2 17C2 17.9145 1.99788 18.701 2.08214 19.3278C2.17027 19.9833 2.36902 20.6117 2.87868 21.1213L4.29289 19.7071C4.21677 19.631 4.12262 19.495 4.06431 19.0613C4.00212 18.5988 4 17.9711 4 17H2ZM20 17C20 17.9711 19.9979 18.5988 19.9357 19.0613C19.8774 19.495 19.7832 19.631 19.7071 19.7071L21.1213 21.1213C21.631 20.6117 21.8297 19.9833 21.9179 19.3278C22.0021 18.701 22 17.9145 22 17H20ZM17 22C17.9145 22 18.701 22.0021 19.3278 21.9179C19.9833 21.8297 20.6117 21.631 21.1213 21.1213L19.7071 19.7071C19.631 19.7832 19.495 19.8774 19.0613 19.9357C18.5988 19.9979 17.9711 20 17 20V22ZM22 8.8C22 7.88546 22.0021 7.09896 21.9179 6.47221C21.8297 5.81669 21.631 5.18834 21.1213 4.67868L19.7071 6.09289C19.7832 6.16902 19.8774 6.30496 19.9357 6.7387C19.9979 7.20121 20 7.82892 20 8.8H22ZM16.9987 5.8C17.9702 5.8 18.5983 5.80212 19.061 5.86431C19.4951 5.92265 19.6311 6.01684 19.7071 6.09289L21.1213 4.67868C20.6116 4.16895 19.983 3.97025 19.3274 3.88213C18.7005 3.79788 17.9137 3.8 16.9987 3.8V5.8ZM4 8.8C4 7.82892 4.00212 7.20121 4.06431 6.7387C4.12262 6.30496 4.21677 6.16902 4.29289 6.09289L2.87868 4.67868C2.36902 5.18834 2.17027 5.81669 2.08214 6.47221C1.99788 7.09896 2 7.88546 2 8.8H4ZM7.0013 3.8C6.08632 3.8 5.29952 3.79788 4.67259 3.88213C4.01695 3.97025 3.38841 4.16895 2.87868 4.67868L4.29289 6.09289C4.36895 6.01684 4.50492 5.92265 4.93898 5.86431C5.40173 5.80212 6.0298 5.8 7.0013 5.8V3.8Z" fill="white"/>
</svg>
