<svg width="24" height="24" viewBox="0 0 24 24" fill="none" xmlns="http://www.w3.org/2000/svg">
<path d="M9.5 5.5V5.5C7.61438 5.5 6.67157 5.5 6.08579 6.08579C5.5 6.67157 5.5 7.61438 5.5 9.5V9.5M9.5 5.5V3M9.5 5.5H14.5M14.5 5.5V5.5C16.3856 5.5 17.3284 5.5 17.9142 6.08579C18.5 6.67157 18.5 7.61438 18.5 9.5V9.5M14.5 5.5V3M18.5 9.5H21M18.5 9.5V14.5M18.5 14.5V14.5C18.5 16.3856 18.5 17.3284 17.9142 17.9142C17.3284 18.5 16.3856 18.5 14.5 18.5V18.5M18.5 14.5H21M14.5 18.5V21M14.5 18.5H9.5M9.5 18.5V18.5C7.61438 18.5 6.67157 18.5 6.08579 17.9142C5.5 17.3284 5.5 16.3856 5.5 14.5V14.5M9.5 18.5V21M5.5 14.5H3M5.5 14.5V9.5M5.5 9.5H3M14.5 10.5V13.5C14.5 13.9714 14.5 14.2071 14.3536 14.3536C14.2071 14.5 13.9714 14.5 13.5 14.5H10.5C10.0286 14.5 9.79289 14.5 9.64645 14.3536C9.5 14.2071 9.5 13.9714 9.5 13.5V10.5C9.5 10.0286 9.5 9.79289 9.64645 9.64645C9.79289 9.5 10.0286 9.5 10.5 9.5H13.5C13.9714 9.5 14.2071 9.5 14.3536 9.64645C14.5 9.79289 14.5 10.0286 14.5 10.5Z" stroke="white" stroke-width="2" stroke-linecap="round" stroke-linejoin="round"/>
</svg>
