<svg width="24" height="24" fill="none" xmlns="http://www.w3.org/2000/svg"><circle cx="12" cy="12" r="9" stroke="#fff" stroke-width="2"/><path d="M15.013 13.472l.882.472-.882-.472zM12 8.802v1-1zm-1.095 2.643l.263-.394-1.664-1.11-.263.395 1.664 1.11zm1.927-.394l.263.394 1.664-1.11-.263-.394-1.664 1.11zM12.263 13h-.526v2h.526v-2zm-3.022-2.664c-.438.656-.832 1.242-1.064 1.733-.232.493-.444 1.18-.072 1.875L9.87 13c.089.166-.036.248.117-.076.154-.326.444-.766.919-1.479l-1.664-1.11zM11.737 13c-.857 0-1.384-.003-1.74-.055-.354-.053-.218-.111-.128.055l-1.764.944c.372.694 1.061.9 1.6.98.537.079 1.243.076 2.032.076v-2zm1.358-1.555c.475.713.765 1.153.92 1.479.152.324.027.242.117.076l1.763.944c.372-.695.16-1.382-.072-1.875-.232-.49-.627-1.077-1.064-1.733l-1.664 1.11zM12.263 15c.789 0 1.495.003 2.032-.077.539-.08 1.228-.285 1.6-.98L14.132 13c.088-.166.225-.108-.13-.055-.355.052-.883.055-1.739.055v2zm-1.095-3.95c.395-.591.63-.94.823-1.153.18-.2.16-.094.009-.094v-2c-.685 0-1.163.388-1.492.753-.317.35-.646.848-1.004 1.385l1.664 1.11zm3.328-1.109c-.358-.537-.687-1.035-1.004-1.385-.33-.365-.807-.753-1.492-.753v2c-.15 0-.172-.106.009.094.193.214.428.562.823 1.154l1.664-1.11z" fill="#fff"/></svg>