<svg width="24" height="24" fill="none" xmlns="http://www.w3.org/2000/svg"><path d="M7 3.5c-.932 0-1.398 0-1.765.152a2 2 0 0 0-1.083 1.083C4 5.102 4 5.568 4 6.5V17c0 1.886 0 2.828.586 3.414C5.172 21 6.114 21 8 21h8c1.886 0 2.828 0 3.414-.586C20 19.828 20 18.886 20 17V6.5c0-.932 0-1.398-.152-1.765a2 2 0 0 0-1.083-1.083C18.398 3.5 17.932 3.5 17 3.5" stroke="#fff" stroke-width="2"/><path d="M7 3.75C7 2.784 7.784 2 8.75 2h6.5a1.75 1.75 0 1 1 0 3.5h-6.5A1.75 1.75 0 0 1 7 3.75z" stroke="#fff" stroke-width="2"/><path d="M8 9h8m-8 4h8m-8 4h4" stroke="#fff" stroke-width="2" stroke-linecap="round" stroke-linejoin="round"/></svg>