<svg width="24" height="24" fill="none" xmlns="http://www.w3.org/2000/svg"><path d="M18.3 15.6v1-1zm0-7.2v1-1zm-9.9 1h7.2v-2H8.4v2zm1 6.2V8.4h-2v7.2h2zm6.2-1H8.4v2h7.2v-2zm-1-6.2v7.2h2V8.4h-2zm2 0V5.7h-2v2.7h2zM7.4 5.7v2.7h2V5.7h-2zM5.7 16.6h2.7v-2H5.7v2zm9.9 0h2.7v-2h-2.7v2zm1 1.7v-2.7h-2v2.7h2zm1.7-10.9h-2.7v2h2.7v-2zm-9.9 0H5.7v2h2.7v-2zm1 10.9v-2.7h-2v2.7h2zm8.9-1.7a1.7 1.7 0 0 1 1.7 1.7h2a3.7 3.7 0 0 0-3.7-3.7v2zm-3.7 1.7a3.7 3.7 0 0 0 3.7 3.7v-2a1.7 1.7 0 0 1-1.7-1.7h-2zm3.7 3.7a3.7 3.7 0 0 0 3.7-3.7h-2a1.7 1.7 0 0 1-1.7 1.7v2zM5.7 14.6A3.7 3.7 0 0 0 2 18.3h2a1.7 1.7 0 0 1 1.7-1.7v-2zm0 7.4a3.7 3.7 0 0 0 3.7-3.7h-2A1.7 1.7 0 0 1 5.7 20v2zm0-2A1.7 1.7 0 0 1 4 18.3H2A3.7 3.7 0 0 0 5.7 22v-2zM9.4 5.7A3.7 3.7 0 0 0 5.7 2v2a1.7 1.7 0 0 1 1.7 1.7h2zM5.7 2A3.7 3.7 0 0 0 2 5.7h2A1.7 1.7 0 0 1 5.7 4V2zM2 5.7a3.7 3.7 0 0 0 3.7 3.7v-2A1.7 1.7 0 0 1 4 5.7H2zm14.6 0A1.7 1.7 0 0 1 18.3 4V2a3.7 3.7 0 0 0-3.7 3.7h2zm5.4 0A3.7 3.7 0 0 0 18.3 2v2A1.7 1.7 0 0 1 20 5.7h2zm-3.7 3.7A3.7 3.7 0 0 0 22 5.7h-2a1.7 1.7 0 0 1-1.7 1.7v2z" fill="#fff"/></svg>