<svg width="24" height="24" viewBox="0 0 24 24" fill="none" xmlns="http://www.w3.org/2000/svg">
<path d="M3 9C3 7.11438 3 6.17157 3.58579 5.58579C4.17157 5 5.11438 5 7 5H17C18.8856 5 19.8284 5 20.4142 5.58579C21 6.17157 21 7.11438 21 9V15C21 16.8856 21 17.8284 20.4142 18.4142C19.8284 19 18.8856 19 17 19H7C5.11438 19 4.17157 19 3.58579 18.4142C3 17.8284 3 16.8856 3 15V9Z" stroke="white" stroke-width="2" stroke-linecap="round" stroke-linejoin="round"/>
<line x1="3" y1="9.00003" x2="21" y2="9.00003" stroke="white" stroke-width="2" stroke-linecap="round" stroke-linejoin="round"/>
<path d="M7 15H13" stroke="white" stroke-width="2" stroke-linecap="round" stroke-linejoin="round"/>
</svg>
