<svg width="24" height="24" viewBox="0 0 24 24" fill="none" xmlns="http://www.w3.org/2000/svg">
<path d="M4 6.99997C4 5.11435 4 4.17154 4.58579 3.58576C5.17157 2.99997 6.11438 2.99997 8 2.99997H16C17.8856 2.99997 18.8284 2.99997 19.4142 3.58576C20 4.17154 20 5.11435 20 6.99997V17C20 18.8856 20 19.8284 19.4142 20.4142C18.8284 21 17.8856 21 16 21H8C6.11438 21 5.17157 21 4.58579 20.4142C4 19.8284 4 18.8856 4 17V6.99997Z" stroke="white" stroke-width="2"/>
<path d="M4 8.99997L20 8.99997" stroke="white" stroke-width="2" stroke-linecap="round"/>
<path d="M4 15L20 15" stroke="white" stroke-width="2" stroke-linecap="round"/>
<path d="M9 12C9 12.5523 8.55228 13 8 13C7.44772 13 7 12.5523 7 12C7 11.4477 7.44772 11 8 11C8.55228 11 9 11.4477 9 12Z" fill="white"/>
<path d="M9 5.99997C9 6.55225 8.55228 6.99997 8 6.99997C7.44772 6.99997 7 6.55225 7 5.99997C7 5.44768 7.44772 4.99997 8 4.99997C8.55228 4.99997 9 5.44768 9 5.99997Z" fill="white"/>
<path d="M9 18C9 18.5523 8.55228 19 8 19C7.44772 19 7 18.5523 7 18C7 17.4477 7.44772 17 8 17C8.55228 17 9 17.4477 9 18Z" fill="white"/>
</svg>
