<svg width="24" height="24" fill="none" xmlns="http://www.w3.org/2000/svg"><path d="M4 7c0-1.886 0-2.828.586-3.414C5.172 3 6.114 3 8 3h8c1.886 0 2.828 0 3.414.586C20 4.172 20 5.114 20 7v10c0 1.886 0 2.828-.586 3.414C18.828 21 17.886 21 16 21H8c-1.886 0-2.828 0-3.414-.586C4 19.828 4 18.886 4 17V7z" stroke="#fff" stroke-width="2"/><path d="M4 9h16M4 15h16" stroke="#fff" stroke-width="2" stroke-linecap="round"/><path d="M9 12a1 1 0 1 1-2 0 1 1 0 0 1 2 0zm0-6a1 1 0 1 1-2 0 1 1 0 0 1 2 0zm0 12a1 1 0 1 1-2 0 1 1 0 0 1 2 0z" fill="#fff"/></svg>