<svg width="24" height="24" fill="none" xmlns="http://www.w3.org/2000/svg"><path d="M17.676 6.308l-.67.744.67-.744zm1.151 1.269l.913-.407-.913.407zm-4.878-4.444l-.358.933.358-.933zm4.465 17.281l-.707-.707.707.707zm-12.828 0l.707-.707-.707.707zM6 17V7H4v10h2zm9 3H9v2h6v-2zM9 4h3.465V2H9v2zm9 5.281V17h2V9.281h-2zm-3.528-4.51l2.535 2.28 1.338-1.486-2.535-2.281-1.338 1.486zM20 9.28c0-.789.02-1.483-.26-2.11l-1.826.813c.066.149.086.332.086 1.297h2zm-2.993-2.23c.718.647.84.784.906.933l1.828-.814c-.28-.628-.81-1.077-1.396-1.605l-1.338 1.487zM12.465 4c.834 0 .993.015 1.126.066l.716-1.867C13.748 1.985 13.15 2 12.465 2v2zm3.345-.716c-.508-.458-.944-.87-1.503-1.085l-.716 1.867c.133.051.261.146.881.704l1.338-1.486zM15 22c.915 0 1.701.002 2.328-.082.655-.088 1.284-.287 1.793-.797l-1.414-1.414c-.076.076-.212.17-.646.229-.462.062-1.09.064-2.061.064v2zm3-5c0 .971-.002 1.599-.064 2.061-.059.434-.153.57-.229.646l1.414 1.414c.51-.51.709-1.138.797-1.793C20.002 18.7 20 17.915 20 17h-2zM4 17c0 .915-.002 1.701.082 2.328.088.655.287 1.284.797 1.793l1.414-1.414c-.076-.076-.17-.212-.229-.646C6.002 18.6 6 17.971 6 17H4zm5 3c-.971 0-1.599-.002-2.061-.064-.434-.059-.57-.153-.646-.229l-1.414 1.414c.51.51 1.138.709 1.793.797C7.3 22.002 8.085 22 9 22v-2zM6 7c0-.971.002-1.599.064-2.061.059-.434.153-.57.229-.646L4.879 2.879c-.51.51-.709 1.138-.797 1.793C3.998 5.3 4 6.085 4 7h2zm3-5c-.915 0-1.701-.002-2.328.082-.655.088-1.284.287-1.793.797l1.414 1.414c.076-.076.212-.17.646-.229C7.4 4.002 8.029 4 9 4V2z" fill="#fff"/><path d="M13 3v2c0 1.886 0 2.828.586 3.414C14.172 9 15.114 9 17 9h2" stroke="#fff" stroke-width="2"/><path d="M11.447 16.276l-.335-.67.335.67zm-1.21.34l-.394.638.394-.638zm4.222-1.845l.335.67-.335-.67zm1.046-.802l.748.047-.748-.047zm-4.366-2.308l3.011 2.007.832-1.248-3.011-2.008-.832 1.248zm2.984 2.439l-3.011 1.506.67 1.341 3.012-1.506-.67-1.341zm-3.373 1.282v-3.514h-1.5v3.514h1.5zm1.22-4.97c-.32-.214-.632-.424-.898-.55-.267-.125-.707-.273-1.162-.03l.708 1.323c-.19.102-.328-.003-.187.064.142.067.344.2.708.442l.832-1.249zm-1.22 1.456c0-.436.002-.678.025-.833.023-.154.034.018-.157.12L9.91 9.832c-.455.244-.576.692-.619.984-.043.291-.041.667-.041 1.052h1.5zm.362 3.738c-.165.082-.297.148-.412.201a2.337 2.337 0 0 1-.245.103c-.056.018-.053.01-.017.01.051 0 .124.016.193.058l-.788 1.276c.4.248.81.17 1.078.082.257-.084.56-.238.862-.389l-.671-1.341zm-1.862-.224c0 .338-.002.676.038.944.041.279.155.681.555.928l.788-1.276c.07.043.115.102.138.147.017.033.011.038.002-.019a2.33 2.33 0 0 1-.018-.266 18.58 18.58 0 0 1-.003-.458h-1.5zm4.9-1.714c.162.108.293.195.402.272.11.078.18.133.226.175.047.042.04.046.022.013a.386.386 0 0 1-.044-.205l1.497.093c.03-.49-.255-.82-.469-1.014-.208-.188-.504-.383-.802-.582l-.832 1.248zm.644 1.773c.32-.16.638-.316.868-.478.236-.165.56-.458.591-.947l-1.497-.093a.388.388 0 0 1 .07-.2c.021-.029.028-.025-.024.012-.05.035-.127.08-.246.145-.118.063-.259.133-.433.22l.671 1.341z" fill="#fff"/></svg>