<svg width="24" height="24" fill="none" xmlns="http://www.w3.org/2000/svg"><path d="M15.323 10.623l-.726-.688.726.688zm0 2.754l-.726.688.726-.688zm2.111 1.118l.07-.997-.07.997zm-.8-.23l.47-.882-.47.883zM17.717 9.5v-1 1zm-.283.005l.07.997-.07-.997zm-.8.23l-.469-.884.47.883zm2.756-.197l.195-.98-.195.98zM18.5 8.5h-.783v2h.783v-2zm-.783 7h.783v-2h-.783v2zm-1.855-6.468c-.533.333-.978.601-1.265.903l1.451 1.377c.064-.068.215-.172.874-.584l-1.06-1.696zm1.06 4.24c-.66-.412-.81-.516-.874-.584l-1.45 1.377c.286.302.731.57 1.264.903l1.06-1.696zm-2.325-3.337a3 3 0 0 0 0 4.13l1.451-1.377a1 1 0 0 1 0-1.376l-1.45-1.377zM20 12c0 .513-.005.623-.02.695l1.962.39c.063-.314.058-.668.058-1.085h-2zm-1.5 3.5c.417 0 .771.005 1.085-.058l-.39-1.961c-.072.014-.182.019-.695.019v2zm1.48-2.805a1 1 0 0 1-.785.786l.39 1.961a3 3 0 0 0 2.357-2.357l-1.961-.39zm-2.263.805c-.156 0-.186 0-.213-.002l-.14 1.995c.113.008.224.007.353.007v-2zm-1.855 1.468c.11.068.203.128.303.18l.939-1.765a3.605 3.605 0 0 1-.182-.111l-1.06 1.696zm1.642-1.47a1.001 1.001 0 0 1-.4-.115l-.939 1.766c.371.197.78.314 1.2.344l.139-1.995zm.213-4.998c-.129 0-.24 0-.353.007l.14 1.995c.027-.001.057-.002.213-.002v-2zm-.795 2.228c.132-.082.158-.098.182-.11l-.939-1.767c-.1.053-.194.113-.303.181l1.06 1.696zm.442-2.22a3 3 0 0 0-1.199.343l.939 1.766c.124-.066.26-.105.4-.115l-.14-1.995zM22 12c0-.417.005-.771-.058-1.085l-1.961.39c.014.072.019.182.019.695h2zm-3.5-1.5c.513 0 .623.005.695.02l.39-1.962c-.314-.063-.668-.058-1.085-.058v2zm3.442.415a3 3 0 0 0-2.357-2.357l-.39 1.961a1 1 0 0 1 .786.786l1.961-.39zM10.623 8.677l-.688.726.688-.726zm2.754 0l.688.726-.688-.726zm-.487-5.639l.195-.98-.195.98zm1.376 4.328l.883.469-.883-.47zM9.5 6.282h1-1zm.005.283l.997-.07-.997.07zm.23.8l.882-.47-.883.47zm1.375-4.328l-.195-.98.195.98zM9.5 5.5h-1 1zm.038-.89l-.98-.195.98.195zM8.5 5.5v.783h2V5.5h-2zm7 .783V5.5h-2v.783h2zM9.032 8.138c.333.533.601.978.903 1.265l1.377-1.451c-.068-.064-.172-.215-.584-.874l-1.696 1.06zm4.24-1.06c-.412.66-.516.81-.584.874l1.377 1.45c.302-.286.57-.731.903-1.264l-1.696-1.06zM9.935 9.403a3 3 0 0 0 4.13 0l-1.377-1.451a1 1 0 0 1-1.376 0l-1.377 1.45zM12 4c.513 0 .623.005.695.02l.39-1.962C12.771 1.995 12.417 2 12 2v2zm3.5 1.5c0-.417.005-.771-.058-1.085l-1.961.39c.014.072.019.182.019.695h2zm-2.805-1.48a1 1 0 0 1 .786.785l1.961-.39a3 3 0 0 0-2.357-2.357l-.39 1.961zm.805 2.263c0 .156 0 .186-.002.213l1.995.14c.008-.113.007-.224.007-.353h-2zm1.468 1.855c.068-.11.128-.203.18-.303l-1.765-.939c-.013.024-.028.05-.111.182l1.696 1.06zm-1.47-1.642a1 1 0 0 1-.115.4l1.766.939c.197-.371.314-.78.344-1.2l-1.995-.139zM8.5 6.283c0 .129 0 .24.007.353l1.995-.14a3.706 3.706 0 0 1-.002-.213h-2zm2.228.795a3.549 3.549 0 0 1-.11-.182l-1.767.939c.053.1.113.194.181.303l1.696-1.06zm-2.22-.442a3 3 0 0 0 .343 1.199l1.766-.939a1 1 0 0 1-.115-.4l-1.995.14zM12 2c-.417 0-.771-.005-1.085.058l.39 1.961C11.377 4.005 11.487 4 12 4V2zm-1.5 3.5c0-.513.005-.623.02-.695l-1.962-.39c-.063.314-.058.668-.058 1.085h2zm.415-3.442a3 3 0 0 0-2.357 2.357l1.961.39a1 1 0 0 1 .786-.786l-.39-1.961zM8.677 13.377l.726.688-.726-.688zm0-2.754l-.725.689.725-.689zM4.61 9.538l-.195-.98.195.98zm2.755.196l.47-.883-.47.883zM6.284 14.5v1-1zm.283-.005l-.07-.997.07.997zm.8-.23l-.47-.882.47.883zM3.037 12.89l-.98.195.98-.195zM5.5 14.5v1-1zm0 1h.783v-2H5.5v2zm.783-7H5.5v2h.783v-2zm1.855 6.468c.533-.333.978-.601 1.265-.903l-1.451-1.377c-.064.068-.215.172-.874.584l1.06 1.696zm-1.06-4.24c.66.412.81.516.874.584l1.45-1.377c-.286-.302-.731-.57-1.264-.903l-1.06 1.696zm2.325 3.337a3 3 0 0 0 0-4.13l-1.451 1.377a1 1 0 0 1 0 1.376l1.45 1.377zM4 12c0-.513.005-.623.02-.695l-1.962-.39C1.995 11.229 2 11.583 2 12h2zm1.5-3.5c-.417 0-.771-.005-1.085.058l.39 1.961c.072-.014.182-.019.695-.019v-2zm-1.48 2.805a1 1 0 0 1 .785-.786l-.39-1.961a3 3 0 0 0-2.357 2.357l1.961.39zm2.263-.805c.156 0 .186 0 .213.002l.14-1.995C6.523 8.5 6.412 8.5 6.283 8.5v2zm1.855-1.468c-.11-.068-.203-.128-.303-.18l-.939 1.765c.024.013.05.028.182.111l1.06-1.696zm-1.642 1.47a1 1 0 0 1 .4.115l.939-1.766a3 3 0 0 0-1.2-.344l-.139 1.995zM6.283 15.5c.129 0 .24 0 .353-.007l-.14-1.995a3.706 3.706 0 0 1-.213.002v2zm.795-2.228a3.549 3.549 0 0 1-.182.11l.939 1.767c.1-.053.194-.113.303-.181l-1.06-1.696zm-.442 2.22c.42-.029.828-.146 1.199-.343l-.939-1.766a1 1 0 0 1-.4.115l.14 1.995zM2 12c0 .417-.005.771.058 1.085l1.961-.39C4.005 12.623 4 12.513 4 12H2zm3.5 1.5c-.513 0-.623-.005-.695-.02l-.39 1.962c.314.063.668.058 1.085.058v-2zm-3.442-.415a3 3 0 0 0 2.357 2.357l.39-1.961a1 1 0 0 1-.786-.786l-1.961.39zm11.319 2.238l.688-.726-.688.726zm-2.754 0l-.688-.726.688.726zM9.538 19.39l-.98.195.98-.195zm.196-2.756l-.883-.469.883.47zm4.766 1.083h1-1zm-.005-.283l-.997.07.997-.07zm-.23-.8l.884-.469-.883.47zm.197 2.756l.98.195-.98-.195zm1.038-.89v-.783h-2v.783h2zm-7-.783v.783h2v-.783h-2zm6.468-1.855c-.333-.533-.601-.978-.903-1.265l-1.377 1.451c.068.064.172.215.584.874l1.696-1.06zm-4.24 1.06c.412-.66.516-.81.584-.874l-1.377-1.45c-.302.286-.57.731-.903 1.264l1.696 1.06zm3.337-2.325a3 3 0 0 0-4.13 0l1.377 1.451a1 1 0 0 1 1.376 0l1.377-1.45zM12 20c-.513 0-.623-.005-.695-.02l-.39 1.962c.314.063.668.058 1.085.058v-2zm-3.5-1.5c0 .417-.005.771.058 1.085l1.961-.39c-.014-.072-.019-.182-.019-.695h-2zm2.805 1.48a1 1 0 0 1-.786-.785l-1.961.39a3 3 0 0 0 2.357 2.357l.39-1.961zm-.805-2.263c0-.156 0-.186.002-.213l-1.995-.14c-.008.113-.007.224-.007.353h2zm-1.468-1.855c-.068.11-.128.203-.18.303l1.765.939c.013-.024.028-.05.111-.182l-1.696-1.06zm1.47 1.642c.01-.14.05-.276.115-.4l-1.766-.939a3 3 0 0 0-.344 1.2l1.995.139zm4.998.213c0-.129 0-.24-.007-.353l-1.995.14c.001.027.002.057.002.213h2zm-2.228-.795c.082.132.098.158.11.182l1.767-.939c-.053-.1-.113-.194-.181-.303l-1.696 1.06zm2.22.442a2.998 2.998 0 0 0-.343-1.199l-1.766.939c.066.124.105.26.115.4l1.995-.14zM12 22c.417 0 .771.005 1.085-.058l-.39-1.961c-.072.014-.182.019-.695.019v2zm1.5-3.5c0 .513-.005.623-.02.695l1.962.39c.063-.314.058-.668.058-1.085h-2zm-.415 3.442a3 3 0 0 0 2.357-2.357l-1.961-.39a1 1 0 0 1-.786.786l.39 1.961z" fill="#fff"/></svg>