<svg width="24" height="24" viewBox="0 0 24 24" fill="none" xmlns="http://www.w3.org/2000/svg">
<circle cx="12" cy="12" r="9" stroke="white" stroke-width="2"/>
<path d="M10.7308 17.1227L11.0597 17.2732C11.4946 17.4723 11.7693 17.8793 11.7693 18.3245C11.7693 18.9737 12.7911 20.25 13.5 20.25C15.6396 20.25 16.4484 20.1708 18 18.75C18.2754 18.4978 18.75 17.6067 18.75 17.25C18.75 16.5073 17.3425 15.6963 16.5314 15.6963H16.4423C15.582 15.6963 14.8846 15.0577 14.8846 14.2699V13.7945C14.8846 12.7441 13.9548 11.8927 12.8077 11.8927H9.69234C9.11881 11.8927 8.65388 11.4669 8.65388 10.9418C8.65388 10.4166 9.11881 9.99085 9.69234 9.99085H10.4643C11.185 9.99085 11.7693 9.45588 11.7693 8.79596V8.64165C11.7693 7.90198 12.5606 7.37968 13.327 7.61358C14.0933 7.84749 14.8846 7.32519 14.8846 6.58552V6.29587C14.8846 5.73188 14.2772 4.16815 13.6683 3.81504C13.5638 3.75442 13.4392 3.74993 13.3184 3.74993L11.4317 3.74995C11.3108 3.74996 11.1904 3.73694 11.0703 3.72367C10.108 3.61733 9.08397 4.04182 8.25003 4.5L6.00003 6C5.0429 6.52586 4.50003 7.76351 4.50003 8.7856C4.50003 9.55731 4.83482 10.2974 5.43074 10.8431L9.10303 14.2058C9.48036 14.5513 9.69234 15.0199 9.69234 15.5085V15.5841C9.69234 16.2356 10.0944 16.8313 10.7308 17.1227Z" fill="white"/>
</svg>
