<svg width="24" height="24" viewBox="0 0 24 24" fill="none" xmlns="http://www.w3.org/2000/svg">
<path d="M3 8C3 6.11438 3 5.17157 3.58579 4.58579C4.17157 4 5.11438 4 7 4H17C18.8856 4 19.8284 4 20.4142 4.58579C21 5.17157 21 6.11438 21 8V16C21 17.8856 21 18.8284 20.4142 19.4142C19.8284 20 18.8856 20 17 20H7C5.11438 20 4.17157 20 3.58579 19.4142C3 18.8284 3 17.8856 3 16V8Z" stroke="white" stroke-width="2" stroke-linecap="round" stroke-linejoin="round"/>
<path d="M7 4V9.5M7 20V12M17 4V9.5M17 20V14.5M3 9.5H7M7 9.5V12M7 12H17M3 14.5H7M17 14.5H21M17 14.5V9.5M17 9.5H21" stroke="white" stroke-width="2"/>
</svg>
