<svg width="24" height="24" fill="none" xmlns="http://www.w3.org/2000/svg"><path d="M21.5 11.5V11c0-1.886 0-2.828-.586-3.414C20.328 7 19.386 7 17.5 7H17c-.981 0-1.472 0-1.894-.211-.423-.211-.717-.604-1.306-1.389l-.6-.8c-.589-.785-.883-1.178-1.306-1.389C11.472 3 10.981 3 10 3H7c-1.886 0-2.828 0-3.414.586C3 4.172 3 5.114 3 7v10c0 1.886 0 2.828.586 3.414C4.172 21 5.114 21 7 21h4" stroke="#fff" stroke-width="2" stroke-linecap="round"/><path d="M16 20.5l5-5m-5 0l5 5" stroke="#fff" stroke-width="2" stroke-linecap="round" stroke-linejoin="round"/><path d="M18 7H3.5" stroke="#fff" stroke-width="2"/></svg>