<svg width="24" height="24" fill="none" xmlns="http://www.w3.org/2000/svg"><path d="M21 12v-1c0-1.886 0-2.828-.586-3.414C19.828 7 18.886 7 17 7c-.981 0-1.472 0-1.894-.211-.423-.211-.717-.604-1.306-1.389l-.6-.8c-.589-.785-.883-1.178-1.306-1.389C11.472 3 10.981 3 10 3H7c-1.886 0-2.828 0-3.414.586C3 4.172 3 5.114 3 7v10c0 1.886 0 2.828.586 3.414C4.172 21 5.114 21 7 21h5" stroke="#fff" stroke-width="2" stroke-linecap="round"/><path d="M18.5 21a1 1 0 1 1-2 0 1 1 0 0 1 2 0z" fill="#fff"/><path d="M17.5 13v4.5" stroke="#fff" stroke-width="2" stroke-linecap="round"/><path d="M18 7H2" stroke="#fff" stroke-width="2"/></svg>