<svg width="24" height="24" viewBox="0 0 24 24" fill="none" xmlns="http://www.w3.org/2000/svg">
<path d="M3 15.375V16.5V17C3 18.8856 3 19.8284 3.58579 20.4142C4.17157 21 5.11438 21 7 21H7.5H8.625M3 8.625V7.5V7C3 5.11438 3 4.17157 3.58579 3.58579C4.17157 3 5.11438 3 7 3H7.5H8.625M21 8.625V7.5V7C21 5.11438 21 4.17157 20.4142 3.58579C19.8284 3 18.8856 3 17 3H16.5H15.375M21 15.375V16.5V17C21 18.8856 21 19.8284 20.4142 20.4142C19.8284 21 18.8856 21 17 21H16.5H15.375" stroke="white" stroke-width="2" stroke-linecap="round" stroke-linejoin="round"/>
</svg>
