<svg width="24" height="24" viewBox="0 0 24 24" fill="none" xmlns="http://www.w3.org/2000/svg">
<path fill-rule="evenodd" clip-rule="evenodd" d="M4.73241 3.13869C4.94693 2.4938 5.57324 1.94149 6.40044 2.01311C7.07405 2.07143 8.12076 2.3434 9.60037 3.20487C9.61833 3.21532 9.64131 3.21902 9.66197 3.21454C11.6554 2.78181 13.7292 2.78181 15.7226 3.21454C15.7433 3.21902 15.7663 3.21532 15.7842 3.20487C17.2639 2.3434 18.3106 2.07143 18.9842 2.01311C19.8114 1.94149 20.4377 2.4938 20.6522 3.13869C20.9415 4.00825 20.9887 4.93276 20.7905 5.82328C20.7642 5.94128 20.794 6.05818 20.8533 6.13498C21.5902 7.08865 21.9998 8.24733 22 9.45213V9.45233C22 11.7011 21.3493 13.3261 20.2152 14.4457C19.2176 15.4306 17.9442 15.925 16.7104 16.1922C16.8836 16.6722 16.9605 17.1882 16.9231 17.7075L16.9231 21C16.9231 21.5523 16.4754 22 15.9231 22C15.3708 22 14.9231 21.5523 14.9231 21L14.9231 17.6686C14.9231 17.6403 14.9243 17.6121 14.9267 17.584C14.9507 17.3012 14.8982 17.0061 14.7715 16.7302C14.5509 16.2494 14.5835 15.7204 14.7549 15.3035C14.9273 14.884 15.3147 14.4188 15.9498 14.3042C17.1248 14.0923 18.114 13.7097 18.8102 13.0224C19.4797 12.3614 20 11.2967 20 9.45253M6.54991 4.05679C6.4497 4.496 6.4485 4.94909 6.54636 5.38866C6.69652 6.06317 6.55092 6.7922 6.11385 7.35784C5.63359 7.97937 5.38027 8.71865 5.3846 9.47224L5.38463 9.47798C5.38462 11.3091 5.90574 12.3668 6.57893 13.0272C7.28045 13.7154 8.27725 14.1015 9.46062 14.3236C10.0908 14.4419 10.4746 14.9049 10.6445 15.3256C10.8132 15.7431 10.8406 16.269 10.6189 16.7453C10.4916 17.0189 10.4373 17.3117 10.4587 17.5929C10.4606 17.6181 10.4615 17.6433 10.4615 17.6686L10.4615 18.8636C10.4619 18.8784 10.4619 18.8933 10.4615 18.908L10.4616 21C10.4616 21.5523 10.0138 22 9.46156 22C8.90927 22 8.46156 21.5523 8.46155 21L8.46155 20.104C7.73111 20.1892 7.08567 20.1458 6.50733 19.9919C5.60836 19.7527 4.97096 19.2729 4.48791 18.7935C4.25175 18.5592 4.04666 18.3188 3.87469 18.1151C3.85881 18.0963 3.84329 18.0779 3.82809 18.0599C3.66917 17.8714 3.54614 17.7256 3.423 17.5991C3.15946 17.3285 3.05803 17.3203 3 17.3203C2.44772 17.3203 2 16.8726 2 16.3203C2 15.7681 2.44772 15.3203 3 15.3203C3.86505 15.3203 4.45592 15.7931 4.85585 16.2038C5.03231 16.385 5.20308 16.5877 5.35223 16.7648C5.36943 16.7852 5.38635 16.8053 5.40295 16.825C5.57353 17.0271 5.72902 17.2075 5.8967 17.3739C6.22135 17.6961 6.56472 17.9376 7.02152 18.0591C7.36489 18.1505 7.82644 18.1882 8.46154 18.0852L8.46154 17.7034C8.42844 17.1894 8.50707 16.6794 8.67999 16.2049C7.44863 15.93 6.17631 15.4339 5.17833 14.4549C4.04072 13.3389 3.38516 11.7214 3.38462 9.48076M6.54991 4.05679C6.95806 4.14592 7.62897 4.37136 8.59406 4.93326C9.04419 5.19534 9.57757 5.27944 10.0862 5.16902C11.8001 4.79698 13.5845 4.79698 15.2984 5.16902C15.807 5.27944 16.3404 5.19534 16.7906 4.93326C17.7556 4.37136 18.4266 4.14592 18.8347 4.05679C18.9349 4.49601 18.9361 4.9491 18.8383 5.38868C18.6881 6.06317 18.8337 6.79217 19.2707 7.35782C19.7467 7.9738 19.9998 8.70553 20 9.45233" fill="white"/>
</svg>
