<svg width="24" height="24" viewBox="0 0 24 24" fill="none" xmlns="http://www.w3.org/2000/svg">
<path d="M15.5 9C15.5 12.3137 12.8137 15 9.5 15C6.18629 15 3.5 12.3137 3.5 9C3.5 5.68629 6.18629 3 9.5 3C12.8137 3 15.5 5.68629 15.5 9Z" stroke="white" stroke-width="2"/>
<path d="M12 14.5C12 10 8.5 5 5 5" stroke="white" stroke-width="2"/>
<path d="M4 11C8 12 13.3655 8.67057 14 5" stroke="white" stroke-width="2"/>
<path d="M3 16.0009C4.5 17 6.5 18 9 18C15 18 18.5 14 18.5 8.5C18.5 6 17.5 4 16.5 3" stroke="white" stroke-width="2" stroke-linecap="round"/>
<path d="M14.5 17V21M14.5 21H11M14.5 21H17.5" stroke="white" stroke-width="2" stroke-linecap="round"/>
</svg>
