<svg width="24" height="24" fill="none" xmlns="http://www.w3.org/2000/svg"><path d="M21.692 12.723c.39-.39.397-1.03.015-1.43a.974.974 0 0 0-1.399-.016l1.384 1.446zm-6.884 4.054c-.39.39-.397 1.03-.015 1.43a.974.974 0 0 0 1.399.016l-1.384-1.446zm1.384 1.446l5.5-5.5-1.384-1.446-5.5 5.5 1.384 1.446z" fill="#fff"/><path d="M14 19.95c0 .792-1.454 1.268-3.878.95-.532-.069.84-.316.97-.95.128-.633.408-.95 1.211-.95.803 0 1.697.425 1.697.95z" fill="#fff" stroke="#fff"/><path d="M7.5 18a1 1 0 1 0 0-2v2zM16 9a1 1 0 1 0 2 0h-2zM3.586 16.414l.707-.707-.707.707zM16.414 4.586l.707-.707-.707.707zM7 5h6V3H7v2zm-3 8V8H2v5h2zm3.5 3H7v2h.5v-2zM16 8v1h2V8h-2zM2 13c0 .915-.002 1.701.082 2.328.088.655.287 1.284.797 1.793l1.414-1.414c-.076-.076-.17-.212-.229-.646C4.002 14.6 4 13.971 4 13H2zm5 3c-.971 0-1.599-.002-2.061-.064-.434-.059-.57-.153-.646-.229l-1.414 1.414c.51.51 1.138.709 1.793.797C5.3 18.002 6.085 18 7 18v-2zm6-11c.971 0 1.599.002 2.061.064.434.059.57.153.646.229l1.414-1.414c-.51-.51-1.138-.709-1.793-.797C14.7 2.998 13.915 3 13 3v2zm5 3c0-.915.002-1.701-.082-2.328-.088-.655-.287-1.284-.797-1.793l-1.414 1.414c.076.076.17.212.229.646C15.998 6.4 16 7.029 16 8h2zM7 3c-.915 0-1.701-.002-2.328.082-.655.088-1.284.287-1.793.797l1.414 1.414c.076-.076.212-.17.646-.229C5.4 5.002 6.029 5 7 5V3zM4 8c0-.971.002-1.599.064-2.061.059-.434.153-.57.229-.646L2.879 3.879c-.51.51-.709 1.138-.797 1.793C1.998 6.3 2 7.085 2 8h2z" fill="#fff"/><path d="M10 13l-2.036-1.842c-.692-.626-1.038-.939-1.466-.938-.427 0-.773.313-1.464.938L3 13m14-4l-2.67-1.335c-.642-.32-.963-.481-1.298-.441-.336.04-.602.27-1.133.73l-3.526 3.054" stroke="#fff" stroke-width="2" stroke-linecap="round" stroke-linejoin="round"/></svg>