<svg width="24" height="24" fill="none" xmlns="http://www.w3.org/2000/svg"><path d="M16.546 3V2c-.02 0-.041 0-.061.002l.06.998zm-2.608.835l-.528-.849.528.85zM7.454 3l.061-.998A1.001 1.001 0 0 0 7.455 2v1zM2 8.655H1h1zM12 21l-.57.821a1 1 0 0 0 1.136.003L12 21zM22 8.655h-1 1zm-9.983-2.857l.859.513-.859-.513zm-.034 0l-.859.513.859-.513zm.017.02v-1 1zm4.485-3.816a6.58 6.58 0 0 0-3.075.984l1.056 1.698a4.58 4.58 0 0 1 2.14-.686l-.121-1.996zm-3.075.984a6.829 6.829 0 0 0-2.251 2.3l1.717 1.025c.4-.669.946-1.226 1.59-1.627L13.41 2.986zm-.569 2.3a6.829 6.829 0 0 0-2.25-2.3L9.533 4.684c.644.401 1.19.958 1.59 1.627l1.717-1.026zm-2.25-2.3a6.58 6.58 0 0 0-3.076-.984l-.122 1.996a4.58 4.58 0 0 1 2.14.686l1.057-1.698zM7.453 2c-1.723 0-3.369.71-4.576 1.962l1.44 1.388A4.358 4.358 0 0 1 7.453 4V2zM2.878 3.962A6.762 6.762 0 0 0 1 8.655h2c0-1.246.478-2.434 1.317-3.305l-1.44-1.388zM1 8.655c0 1.639.749 3.285 1.73 4.76.993 1.494 2.298 2.925 3.576 4.157a46.419 46.419 0 0 0 5.09 4.226l.024.017.007.004.002.002L12 21l.57-.821-.004-.004a3.82 3.82 0 0 1-.098-.069 43.018 43.018 0 0 1-1.413-1.063 44.396 44.396 0 0 1-3.36-2.91c-1.223-1.18-2.418-2.498-3.3-3.825C3.501 10.963 3 9.715 3 8.655H1zM12 21l.567.824.002-.002.007-.005.024-.016.089-.062c.077-.055.188-.134.328-.236a45.462 45.462 0 0 0 4.676-3.902c1.278-1.229 2.585-2.658 3.578-4.156C22.253 11.964 23 10.31 23 8.655h-2c0 1.08-.503 2.338-1.396 3.685-.881 1.33-2.075 2.644-3.297 3.819a43.462 43.462 0 0 1-4.771 3.945l-.079.055-.019.014-.004.002v.001L12 21zM23 8.655a6.762 6.762 0 0 0-1.878-4.693l-1.44 1.388A4.762 4.762 0 0 1 21 8.655h2zm-1.878-4.693A6.358 6.358 0 0 0 16.546 2v2c1.17 0 2.298.481 3.137 1.35l1.44-1.388zM11.16 5.285c-.021.035.02-.037.074-.104A.99.99 0 0 1 12 4.818v2a1.01 1.01 0 0 0 .87-.497l.006-.01-1.717-1.026zm-.035 1.026l.006.01a1.101 1.101 0 0 0 .087.124c.066.08.324.373.783.373v-2a.99.99 0 0 1 .767.363c.055.067.095.14.074.104l-1.717 1.026z" fill="#fff"/></svg>