<svg width="24" height="24" fill="none" xmlns="http://www.w3.org/2000/svg"><path d="M15.5 14.5s-3.679-.378-5.5-1c-2.455-.839-4-2-4-2" stroke="#fff" stroke-width="2"/><path d="M4.207 5.793a1 1 0 0 0-1.414 1.414l1.414-1.414zm-.914 1.914a1 1 0 0 0 1.414-1.414L3.293 7.707zM2 10a1 1 0 1 0 0 2v-2zm.5 2a1 1 0 1 0 0-2v2zM2 14.5a1 1 0 1 0 0 2v-2zm.5 2a1 1 0 1 0 0-2v2zM4.707 6.293l-.5-.5-1.414 1.414.5.5 1.414-1.414zM2.5 10H2v2h.5v-2zm0 4.5H2v2h.5v-2z" fill="#fff"/><path d="M21.042 14c-1.633.852-4.144.5-7 .5-1.633 0-3.552 4.278-6 3C5.593 16.222 5.5 16.408 5.5 13c0-4.235 3.042-7 7.542-7 3.909 0 6.795 3.296 7.5 5 .705 1.704 2.132 2.148.5 3z" stroke="#fff" stroke-width="2"/></svg>