<svg width="24" height="24" viewBox="0 0 24 24" fill="none" xmlns="http://www.w3.org/2000/svg">
<path d="M15.5 14.5C15.5 14.5 11.8212 14.1223 10 13.5C7.54545 12.6613 6 11.5 6 11.5" stroke="white" stroke-width="2"/>
<path d="M4.20711 5.79289C3.81658 5.40237 3.18342 5.40237 2.79289 5.79289C2.40237 6.18342 2.40237 6.81658 2.79289 7.20711L4.20711 5.79289ZM3.29289 7.70711C3.68342 8.09763 4.31658 8.09763 4.70711 7.70711C5.09763 7.31658 5.09763 6.68342 4.70711 6.29289L3.29289 7.70711ZM2 10C1.44772 10 1 10.4477 1 11C1 11.5523 1.44772 12 2 12V10ZM2.5 12C3.05228 12 3.5 11.5523 3.5 11C3.5 10.4477 3.05228 10 2.5 10V12ZM2 14.5C1.44772 14.5 1 14.9477 1 15.5C1 16.0523 1.44772 16.5 2 16.5V14.5ZM2.5 16.5C3.05228 16.5 3.5 16.0523 3.5 15.5C3.5 14.9477 3.05228 14.5 2.5 14.5V16.5ZM4.70711 6.29289L4.20711 5.79289L2.79289 7.20711L3.29289 7.70711L4.70711 6.29289ZM2.5 10H2V12H2.5V10ZM2.5 14.5H2V16.5H2.5V14.5Z" fill="white"/>
<path d="M21.0417 14C19.4094 14.8519 16.8977 14.5 14.0417 14.5C12.4094 14.5 10.4902 18.7779 8.04173 17.5C5.59326 16.2221 5.5 16.4078 5.5 13C5.5 8.76535 8.54174 6 13.0417 6C16.9507 6 19.8366 9.29611 20.5417 11C21.2469 12.7039 22.674 13.1481 21.0417 14Z" stroke="white" stroke-width="2"/>
</svg>
