<svg fill="none" height="24" width="24" xmlns="http://www.w3.org/2000/svg"><g stroke="currentColor" stroke-width="2"><path d="M3 12.429c0-.4 0-.599.056-.76a1 1 0 0 1 .614-.613C3.83 11 4.03 11 4.429 11H14.57c.4 0 .599 0 .76.056a1 1 0 0 1 .613.614c.056.16.056.36.056.759V14.5c0 .464 0 .696-.013.892a6 6 0 0 1-5.595 5.595C10.196 21 9.964 21 9.5 21s-.696 0-.892-.013a6 6 0 0 1-5.595-5.595C3 15.196 3 14.964 3 14.5z" stroke-linecap="round"/><path d="M12 11h5.222C18.756 11 20 12.25 20 13.908 20 15.565 18.756 17 17.222 17h-1.11"/><path d="M6.188 3l-.106.212c-.254.506-.38.76-.364 1.028.017.269.174.505.488.976l.064.095c.266.4.4.6.43.829.031.23-.045.457-.197.913L6.187 8m8.125-5l-.105.212c-.254.506-.38.76-.364 1.028.017.269.174.505.488.976l.064.095c.266.4.4.6.43.829.031.23-.045.457-.197.913L14.312 8" stroke-linecap="round"/></g></svg>