<svg width="24" height="24" fill="none" xmlns="http://www.w3.org/2000/svg"><circle cx="12" cy="12" r="9" stroke="#fff" stroke-width="2"/><path fill-rule="evenodd" clip-rule="evenodd" d="M11.39 10.649a2.501 2.501 0 0 0-.741.74l-2.963 4.58c-.146.226.12.492.346.345l4.579-2.963a2.5 2.5 0 0 0 .74-.74l2.963-4.58c.146-.226-.12-.491-.346-.345l-4.579 2.963zM11 13a1.414 1.414 0 1 0 2-2 1.414 1.414 0 0 0-2 2z" fill="#fff"/><path d="M10.649 11.39l-.42-.272.42.271zm.74-.741l-.271-.42.271.42zm-3.703 5.32l-.42-.272.42.271zm.346.345l.271.42-.271-.42zm4.579-2.963l-.272-.42.271.42zm.74-.74l-.42-.272.42.271zm2.963-4.58l-.42-.271.42.272zm-.346-.345l-.271-.42.271.42zm-4.9 3.975a2 2 0 0 1 .593-.592l-.543-.84a3 3 0 0 0-.889.889l.84.543zM8.107 16.24l2.963-4.579-.84-.543-2.963 4.579.84.543zm-.346-.346c.226-.146.492.12.346.346l-.84-.543c-.439.678.359 1.476 1.037 1.037l-.543-.84zm4.579-2.963L7.76 15.895l.543.84 4.58-2.963-.544-.84zm.592-.592a2 2 0 0 1-.592.592l.543.84a3 3 0 0 0 .89-.889l-.84-.543zm2.963-4.579l-2.963 4.579.84.543 2.963-4.579-.84-.543zm.346.346c-.226.146-.492-.12-.346-.346l.84.543c.44-.679-.359-1.476-1.037-1.037l.543.84zm-4.579 2.963l4.579-2.963-.543-.84-4.58 2.963.544.84zm.985 1.577a.914.914 0 0 1-1.292 0l-.707.708c.747.747 1.959.747 2.707 0l-.708-.707zm0-1.292a.914.914 0 0 1 0 1.293l.707.707a1.914 1.914 0 0 0 0-2.707l-.707.707zm-1.292 0a.914.914 0 0 1 1.292 0l.707-.707a1.914 1.914 0 0 0-2.707 0l.708.707zm0 1.293a.914.914 0 0 1 0-1.293l-.707-.707a1.914 1.914 0 0 0 0 2.707l.707-.707z" fill="#fff"/></svg>