<svg width="24" height="24" viewBox="0 0 24 24" fill="none" xmlns="http://www.w3.org/2000/svg">
<path d="M12 12.5H15C16.8921 12.5 17.8382 12.5 18.3939 11.4053C18.9496 10.3106 18.5696 9.7908 17.8095 8.75123C16.5522 7.03163 14.4194 6 12 6M12 12.5H9.5M12 12.5H14.5C14.5 14 14.5 15.5 12 15.5C9.5 15.5 9.5 14 9.5 12.5M12 6C9.58057 6 7.44782 7.03163 6.19051 8.75123C5.43042 9.7908 5.05038 10.3106 5.60608 11.4053C6.16179 12.5 7.10786 12.5 9 12.5H9.5M12 6V3M6.5 20L8 18M12 21V19M17.5 20L16 18" stroke="white" stroke-width="2" stroke-linecap="round" stroke-linejoin="round"/>
</svg>
