<svg width="24" height="24" viewBox="0 0 24 24" fill="none" xmlns="http://www.w3.org/2000/svg">
<path d="M18 8.95304C18 10.3001 17.6952 11.6298 17.1085 12.8424L15.0027 17.1944C13.9731 19.3221 13.4584 20.3859 12.7271 20.6713C12.2595 20.8537 11.7405 20.8537 11.2729 20.6713C10.5416 20.3859 10.0269 19.3221 8.99734 17.1944L6.89153 12.8424C6.30479 11.6298 6 10.3001 6 8.95304V8.95304C6 5.66527 8.71223 3 12 3V3C15.2878 3 18 5.66527 18 8.95304V8.95304Z" stroke="white" stroke-width="2"/>
<path d="M14 9C14 10.1046 13.1046 11 12 11C10.8954 11 10 10.1046 10 9C10 7.89543 10.8954 7 12 7C13.1046 7 14 7.89543 14 9Z" fill="white"/>
</svg>
