<svg width="24" height="24" viewBox="0 0 24 24" fill="none" xmlns="http://www.w3.org/2000/svg">
<path d="M4.5 7C4.5 5.11438 4.5 4.17157 5.08579 3.58579C5.67157 3 6.61438 3 8.5 3H15.5C17.3856 3 18.3284 3 18.9142 3.58579C19.5 4.17157 19.5 5.11438 19.5 7V14C19.5 15.8856 19.5 16.8284 18.9142 17.4142C18.3284 18 17.3856 18 15.5 18H8.5C6.61438 18 5.67157 18 5.08579 17.4142C4.5 16.8284 4.5 15.8856 4.5 14V7Z" stroke="white" stroke-width="2"/>
<path d="M8 7.5C8 7.0286 8 6.79289 8.14645 6.64645C8.29289 6.5 8.5286 6.5 9 6.5H15C15.4714 6.5 15.7071 6.5 15.8536 6.64645C16 6.79289 16 7.0286 16 7.5V10C16 10.4714 16 10.7071 15.8536 10.8536C15.7071 11 15.4714 11 15 11H9C8.5286 11 8.29289 11 8.14645 10.8536C8 10.7071 8 10.4714 8 10V7.5Z" fill="white" stroke="white" stroke-width="2"/>
<path d="M6 18H18V18C18 18.9319 18 19.3978 17.8478 19.7654C17.6448 20.2554 17.2554 20.6448 16.7654 20.8478C16.3978 21 15.9319 21 15 21H9C8.06812 21 7.60218 21 7.23463 20.8478C6.74458 20.6448 6.35523 20.2554 6.15224 19.7654C6 19.3978 6 18.9319 6 18V18Z" stroke="white" stroke-width="2"/>
<path d="M9 14.5C9 15.0523 8.55228 15.5 8 15.5C7.44772 15.5 7 15.0523 7 14.5C7 13.9477 7.44772 13.5 8 13.5C8.55228 13.5 9 13.9477 9 14.5Z" fill="white"/>
<path d="M13 14.5H16.5" stroke="white" stroke-linecap="round" stroke-linejoin="round"/>
</svg>
