<svg width="24" height="24" viewBox="0 0 24 24" fill="none" xmlns="http://www.w3.org/2000/svg">
<rect x="3" y="6" width="18" height="12" rx="2" stroke="white" stroke-width="2"/>
<path d="M8 18C8 15.3333 6.66667 14 4 14" stroke="white" stroke-width="2"/>
<path d="M4 10C6.66667 10 8 8.66667 8 6" stroke="white" stroke-width="2"/>
<path d="M16 6C16 8.66667 17.3333 10 20 10" stroke="white" stroke-width="2"/>
<path d="M20 14C17.3333 14 16 15.3333 16 18" stroke="white" stroke-width="2"/>
<path d="M14 12C14 13.1046 13.1046 14 12 14C10.8954 14 10 13.1046 10 12C10 10.8954 10.8954 10 12 10C13.1046 10 14 10.8954 14 12Z" stroke="white" stroke-width="2" stroke-linecap="round" stroke-linejoin="round"/>
</svg>
