<svg width="28" height="29" viewBox="0 0 28 29" fill="none" xmlns="http://www.w3.org/2000/svg">
<g clip-path="url(#clip0_263_108517)">
<mask id="mask0_263_108517" style="mask-type:alpha" maskUnits="userSpaceOnUse" x="0" y="0" width="16" height="26">
<path d="M0 0.277603H15.217V25.7696H0V0.277603Z" fill="white"/>
</mask>
<g mask="url(#mask0_263_108517)">
<path fill-rule="evenodd" clip-rule="evenodd" d="M13.8919 15.2591C11.5246 22.1883 6.79054 26.8052 3.31997 25.5695C-0.149243 24.337 -1.04474 17.7169 1.32494 10.7875C3.69462 3.86012 8.42686 -0.757974 11.8974 0.477577C15.3666 1.71092 16.2616 8.32931 13.8919 15.2591Z" fill="#FFC000"/>
</g>
<path fill-rule="evenodd" clip-rule="evenodd" d="M21.0662 13.8821C16.0964 19.1868 10.7633 22.2169 9.1561 20.6493C7.54658 19.0776 10.2702 13.5065 15.2396 8.20064C20.2098 2.89718 25.5453 -0.132762 27.1555 1.43809C28.7619 3.00454 26.0371 8.57749 21.0662 13.8821Z" fill="#FF380D"/>
<path fill-rule="evenodd" clip-rule="evenodd" d="M15.2107 8.23352C10.2597 13.5276 7.54806 19.0819 9.15589 20.6489C9.57006 21.0537 10.238 21.1494 11.0844 20.9779C12.1748 19.3703 13.1507 17.4293 13.8917 15.2591C14.7336 12.8014 15.1612 10.3851 15.2107 8.23352Z" fill="#171714"/>
<path fill-rule="evenodd" clip-rule="evenodd" d="M16.1332 25.3858C16.1332 26.7718 15.0312 27.8983 13.6742 27.8983C12.3121 27.8983 11.2102 26.7718 11.2102 25.3858C11.2102 23.998 12.3121 22.8727 13.6742 22.8727C15.0312 22.8727 16.1332 23.998 16.1332 25.3858Z" fill="#FFC000"/>
<path fill-rule="evenodd" clip-rule="evenodd" d="M9.07356 8.42697C9.07356 9.15677 8.49725 9.74783 7.78136 9.74783C7.06327 9.74783 6.4834 9.15677 6.4834 8.42697C6.4834 7.69666 7.06327 7.10339 7.78136 7.10339C8.49725 7.10339 9.07356 7.69666 9.07356 8.42697Z" fill="#171714"/>
</g>
<defs>
<clipPath id="clip0_263_108517">
<rect width="28" height="28" fill="white" transform="translate(0 0.182739)"/>
</clipPath>
</defs>
</svg>
