<svg width="24" height="24" viewBox="0 0 24 24" fill="none" xmlns="http://www.w3.org/2000/svg">
<path d="M6.5 15.5356V7C6.5 5.11438 6.5 4.17157 7.08579 3.58579C7.67157 3 8.61438 3 10.5 3H17C18.8856 3 19.8284 3 20.4142 3.58579C21 4.17157 21 5.11438 21 7V16.9999C21 18.8855 21 19.8283 20.4142 20.4141C19.8284 20.9999 18.8856 20.9999 17 20.9999L7.00003 21C5.1144 21 4.17158 21 3.58579 20.4142C3 19.8284 3 18.8856 3 17V8.4" stroke="white" stroke-width="2" stroke-linecap="round"/>
<path d="M16.5 14.5L10.5 14.5" stroke="white" stroke-width="2" stroke-linecap="round"/>
<path d="M16.5 17.5L10.5 17.5" stroke="white" stroke-width="2" stroke-linecap="round"/>
<path d="M10 8.5C10 7.55719 10 7.08579 10.2929 6.79289C10.5858 6.5 11.0572 6.5 12 6.5H15C15.9428 6.5 16.4142 6.5 16.7071 6.79289C17 7.08579 17 7.55719 17 8.5V9C17 9.94281 17 10.4142 16.7071 10.7071C16.4142 11 15.9428 11 15 11H12C11.0572 11 10.5858 11 10.2929 10.7071C10 10.4142 10 9.94281 10 9V8.5Z" stroke="white" stroke-width="2" stroke-linecap="round"/>
</svg>
