<svg width="24" height="24" fill="none" xmlns="http://www.w3.org/2000/svg"><path d="M6.5 15.536V7c0-1.886 0-2.828.586-3.414C7.672 3 8.614 3 10.5 3H17c1.886 0 2.828 0 3.414.586C21 4.172 21 5.114 21 7v10c0 1.886 0 2.828-.586 3.414C19.828 21 18.886 21 17 21H7c-1.886 0-2.828 0-3.414-.586C3 19.828 3 18.886 3 17V8.4m13.5 6.1h-6m6 3h-6" stroke="#fff" stroke-width="2" stroke-linecap="round"/><path d="M10 8.5c0-.943 0-1.414.293-1.707.293-.293.764-.293 1.707-.293h3c.943 0 1.414 0 1.707.293C17 7.086 17 7.557 17 8.5V9c0 .943 0 1.414-.293 1.707C16.414 11 15.943 11 15 11h-3c-.943 0-1.414 0-1.707-.293C10 10.414 10 9.943 10 9v-.5z" stroke="#fff" stroke-width="2" stroke-linecap="round"/></svg>