<svg width="24" height="24" viewBox="0 0 24 24" fill="none" xmlns="http://www.w3.org/2000/svg">
<path d="M1.83054 8.25716C1.42027 8.6269 1.38742 9.25921 1.75716 9.66947C2.12689 10.0797 2.7592 10.1126 3.16946 9.74285L1.83054 8.25716ZM4.63157 7.079H5.63157C5.63157 6.68396 5.39902 6.32595 5.0381 6.16536C4.67719 6.00477 4.25555 6.07169 3.96211 6.33615L4.63157 7.079ZM2.99999 14.5001C2.44771 14.5001 1.99999 14.9478 1.99999 15.5001C1.99999 16.0523 2.44771 16.5001 2.99999 16.5001V14.5001ZM6.26315 16.5001C6.81543 16.5001 7.26315 16.0523 7.26315 15.5001C7.26315 14.9478 6.81543 14.5001 6.26315 14.5001V16.5001ZM13.5 16.5001C14.0523 16.5001 14.5 16.0523 14.5 15.5001C14.5 14.9478 14.0523 14.5001 13.5 14.5001V16.5001ZM9.00001 15.5001L8.28489 14.8011C8.00362 15.0888 7.92222 15.5171 8.07833 15.888C8.23443 16.2589 8.59762 16.5001 9.00001 16.5001V15.5001ZM12.4211 12.0001L13.1362 12.6991L13.1458 12.6893L13.155 12.6793L12.4211 12.0001ZM8.13176 8.00392C7.85776 8.48344 8.02436 9.0943 8.50388 9.3683C8.9834 9.64231 9.59425 9.47571 9.86826 8.99619L8.13176 8.00392ZM15.8464 7.24317C15.4284 7.60415 15.3822 8.23563 15.7432 8.65361C16.1042 9.0716 16.7356 9.11781 17.1536 8.75683L15.8464 7.24317ZM21 9.07904L20 9.07903L21 9.07904ZM17.5526 11.1843L17.4317 10.1917C16.9169 10.2544 16.5355 10.7002 16.5532 11.2185C16.5709 11.7368 16.9819 12.1555 17.4997 12.1829L17.5526 11.1843ZM17.3681 13.8457C17.0939 13.3663 16.483 13.1999 16.0036 13.4741C15.5241 13.7483 15.3578 14.3592 15.6319 14.8386L17.3681 13.8457ZM3.16946 9.74285L5.30104 7.82184L3.96211 6.33615L1.83054 8.25716L3.16946 9.74285ZM3.63157 7.079C3.63157 7.08542 3.63157 7.09184 3.63157 7.09825C3.63157 7.10466 3.63157 7.11107 3.63157 7.11747C3.63157 7.12387 3.63157 7.13027 3.63157 7.13666C3.63157 7.14305 3.63157 7.14943 3.63157 7.15581C3.63157 7.16219 3.63157 7.16856 3.63157 7.17493C3.63157 7.1813 3.63157 7.18766 3.63157 7.19402C3.63157 7.20038 3.63157 7.20673 3.63157 7.21308C3.63157 7.21943 3.63157 7.22577 3.63157 7.2321C3.63157 7.23844 3.63157 7.24477 3.63157 7.2511C3.63157 7.25742 3.63157 7.26374 3.63157 7.27006C3.63157 7.27637 3.63157 7.28268 3.63157 7.28899C3.63157 7.29529 3.63157 7.30159 3.63157 7.30788C3.63157 7.31418 3.63157 7.32047 3.63157 7.32675C3.63157 7.33303 3.63157 7.33931 3.63157 7.34558C3.63157 7.35186 3.63157 7.35813 3.63157 7.36439C3.63157 7.37065 3.63157 7.37691 3.63157 7.38316C3.63157 7.38941 3.63157 7.39566 3.63157 7.4019C3.63157 7.40814 3.63157 7.41438 3.63157 7.42061C3.63157 7.42684 3.63157 7.43307 3.63157 7.43929C3.63157 7.44551 3.63157 7.45173 3.63157 7.45794C3.63157 7.46415 3.63157 7.47036 3.63157 7.47656C3.63157 7.48276 3.63157 7.48896 3.63157 7.49515C3.63157 7.50134 3.63157 7.50752 3.63157 7.51371C3.63157 7.51989 3.63157 7.52606 3.63157 7.53223C3.63157 7.5384 3.63157 7.54457 3.63157 7.55073C3.63157 7.55689 3.63157 7.56305 3.63157 7.5692C3.63157 7.57535 3.63157 7.5815 3.63157 7.58764C3.63157 7.59378 3.63157 7.59991 3.63157 7.60605C3.63157 7.61218 3.63157 7.6183 3.63157 7.62443C3.63157 7.63055 3.63157 7.63666 3.63157 7.64278C3.63157 7.64889 3.63157 7.65499 3.63157 7.6611C3.63157 7.6672 3.63157 7.6733 3.63157 7.67939C3.63157 7.68548 3.63157 7.69157 3.63157 7.69765C3.63157 7.70373 3.63157 7.70981 3.63157 7.71588C3.63157 7.72196 3.63157 7.72803 3.63157 7.73409C3.63157 7.74015 3.63157 7.74621 3.63157 7.75227C3.63157 7.75832 3.63157 7.76437 3.63157 7.77041C3.63157 7.77646 3.63157 7.7825 3.63157 7.78853C3.63157 7.79457 3.63157 7.8006 3.63157 7.80663C3.63157 7.81265 3.63157 7.81867 3.63157 7.82469C3.63157 7.83071 3.63157 7.83672 3.63157 7.84273C3.63157 7.84873 3.63157 7.85474 3.63157 7.86073C3.63157 7.86673 3.63157 7.87273 3.63157 7.87871C3.63157 7.8847 3.63157 7.89069 3.63157 7.89667C3.63157 7.90265 3.63157 7.90862 3.63157 7.91459C3.63157 7.92056 3.63157 7.92653 3.63157 7.93249C3.63157 7.93845 3.63157 7.94441 3.63157 7.95036C3.63157 7.95632 3.63157 7.96226 3.63157 7.96821C3.63157 7.97415 3.63157 7.98009 3.63157 7.98602C3.63157 7.99196 3.63157 7.99789 3.63157 8.00382C3.63157 8.00974 3.63157 8.01566 3.63157 8.02158C3.63157 8.0275 3.63157 8.03341 3.63157 8.03932C3.63157 8.04523 3.63157 8.05113 3.63157 8.05703C3.63157 8.06293 3.63157 8.06882 3.63157 8.07471C3.63157 8.0806 3.63157 8.08649 3.63157 8.09237C3.63157 8.09825 3.63157 8.10413 3.63157 8.11C3.63157 8.11588 3.63157 8.12175 3.63157 8.12761C3.63157 8.13348 3.63157 8.13934 3.63157 8.14519C3.63157 8.15105 3.63157 8.1569 3.63157 8.16275C3.63157 8.1686 3.63157 8.17444 3.63157 8.18028C3.63157 8.18612 3.63157 8.19195 3.63157 8.19778C3.63157 8.20362 3.63157 8.20944 3.63157 8.21526C3.63157 8.22109 3.63157 8.2269 3.63157 8.23272C3.63157 8.23853 3.63157 8.24434 3.63157 8.25015C3.63157 8.25595 3.63157 8.26176 3.63157 8.26755C3.63157 8.27335 3.63157 8.27914 3.63157 8.28493C3.63157 8.29072 3.63157 8.29651 3.63157 8.30229C3.63157 8.30807 3.63157 8.31385 3.63157 8.31962C3.63157 8.32539 3.63157 8.33116 3.63157 8.33693C3.63157 8.34269 3.63157 8.34845 3.63157 8.35421C3.63157 8.35997 3.63157 8.36572 3.63157 8.37147C3.63157 8.37722 3.63157 8.38296 3.63157 8.38871C3.63157 8.39445 3.63157 8.40018 3.63157 8.40592C3.63157 8.41165 3.63157 8.41738 3.63157 8.4231C3.63157 8.42883 3.63157 8.43455 3.63157 8.44027C3.63157 8.44599 3.63157 8.4517 3.63157 8.45741C3.63157 8.46312 3.63157 8.46882 3.63157 8.47453C3.63157 8.48023 3.63157 8.48593 3.63157 8.49162C3.63157 8.49732 3.63157 8.50301 3.63157 8.50869C3.63157 8.51438 3.63157 8.52006 3.63157 8.52574C3.63157 8.53142 3.63157 8.5371 3.63157 8.54277C3.63157 8.54844 3.63157 8.55411 3.63157 8.55977C3.63157 8.56543 3.63157 8.57109 3.63157 8.57675C3.63157 8.58241 3.63157 8.58806 3.63157 8.59371C3.63157 8.59936 3.63157 8.605 3.63157 8.61064C3.63157 8.61629 3.63157 8.62192 3.63157 8.62756C3.63157 8.63319 3.63157 8.63882 3.63157 8.64445C3.63157 8.65008 3.63157 8.6557 3.63157 8.66132C3.63157 8.66694 3.63157 8.67256 3.63157 8.67817C3.63157 8.68378 3.63157 8.68939 3.63157 8.695C3.63157 8.7006 3.63157 8.7062 3.63157 8.7118C3.63157 8.7174 3.63157 8.723 3.63157 8.72859C3.63157 8.73418 3.63157 8.73977 3.63157 8.74535C3.63157 8.75093 3.63157 8.75651 3.63157 8.76209C3.63157 8.76767 3.63157 8.77324 3.63157 8.77881C3.63157 8.78438 3.63157 8.78995 3.63157 8.79551C3.63157 8.80108 3.63157 8.80664 3.63157 8.81219C3.63157 8.81775 3.63157 8.8233 3.63157 8.82885C3.63157 8.8344 3.63157 8.83995 3.63157 8.84549C3.63157 8.85103 3.63157 8.85657 3.63157 8.86211C3.63157 8.86764 3.63157 8.87318 3.63157 8.87871C3.63157 8.88424 3.63157 8.88976 3.63157 8.89528C3.63157 8.90081 3.63157 8.90633 3.63157 8.91184C3.63157 8.91736 3.63157 8.92287 3.63157 8.92838C3.63157 8.93389 3.63157 8.9394 3.63157 8.9449C3.63157 8.9504 3.63157 8.9559 3.63157 8.9614C3.63157 8.9669 3.63157 8.97239 3.63157 8.97788C3.63157 8.98337 3.63157 8.98886 3.63157 8.99434C3.63157 8.99982 3.63157 9.0053 3.63157 9.01078C3.63157 9.01626 3.63157 9.02173 3.63157 9.0272C3.63157 9.03268 3.63157 9.03814 3.63157 9.04361C3.63157 9.04907 3.63157 9.05453 3.63157 9.05999C3.63157 9.06545 3.63157 9.07091 3.63157 9.07636C3.63157 9.08181 3.63157 9.08726 3.63157 9.09271C3.63157 9.09815 3.63157 9.1036 3.63157 9.10904C3.63157 9.11448 3.63157 9.11991 3.63157 9.12535C3.63157 9.13078 3.63157 9.13621 3.63157 9.14164C3.63157 9.14707 3.63157 9.1525 3.63157 9.15792C3.63157 9.16334 3.63157 9.16876 3.63157 9.17417C3.63157 9.17959 3.63157 9.185 3.63157 9.19041C3.63157 9.19583 3.63157 9.20123 3.63157 9.20664C3.63157 9.21204 3.63157 9.21744 3.63157 9.22284C3.63157 9.22824 3.63157 9.23364 3.63157 9.23903C3.63157 9.24442 3.63157 9.24981 3.63157 9.2552C3.63157 9.26059 3.63157 9.26597 3.63157 9.27135C3.63157 9.27673 3.63157 9.28211 3.63157 9.28749C3.63157 9.29287 3.63157 9.29824 3.63157 9.30361C3.63157 9.30898 3.63157 9.31435 3.63157 9.31971C3.63157 9.32508 3.63157 9.33044 3.63157 9.3358C3.63157 9.34116 3.63157 9.34651 3.63157 9.35187C3.63157 9.35722 3.63157 9.36257 3.63157 9.36792C3.63157 9.37327 3.63157 9.37862 3.63157 9.38396C3.63157 9.3893 3.63157 9.39464 3.63157 9.39998C3.63157 9.40532 3.63157 9.41065 3.63157 9.41599C3.63157 9.42132 3.63157 9.42665 3.63157 9.43198C3.63157 9.4373 3.63157 9.44263 3.63157 9.44795C3.63157 9.45327 3.63157 9.45859 3.63157 9.46391C3.63157 9.46923 3.63157 9.47454 3.63157 9.47985C3.63157 9.48517 3.63157 9.49047 3.63157 9.49578C3.63157 9.50109 3.63157 9.50639 3.63157 9.51169C3.63157 9.517 3.63157 9.5223 3.63157 9.52759C3.63157 9.53289 3.63157 9.53818 3.63157 9.54348C3.63157 9.54877 3.63157 9.55406 3.63157 9.55934C3.63157 9.56463 3.63157 9.56992 3.63157 9.5752C3.63157 9.58048 3.63157 9.58576 3.63157 9.59104C3.63157 9.59631 3.63157 9.60159 3.63157 9.60686C3.63157 9.61213 3.63157 9.61741 3.63157 9.62267C3.63157 9.62794 3.63157 9.63321 3.63157 9.63847C3.63157 9.64373 3.63157 9.64899 3.63157 9.65425C3.63157 9.65951 3.63157 9.66477 3.63157 9.67002C3.63157 9.67528 3.63157 9.68053 3.63157 9.68578C3.63157 9.69103 3.63157 9.69627 3.63157 9.70152C3.63157 9.70676 3.63157 9.71201 3.63157 9.71725C3.63157 9.72249 3.63157 9.72773 3.63157 9.73296C3.63157 9.7382 3.63157 9.74343 3.63157 9.74866C3.63157 9.7539 3.63157 9.75913 3.63157 9.76435C3.63157 9.76958 3.63157 9.77481 3.63157 9.78003C3.63157 9.78525 3.63157 9.79047 3.63157 9.79569C3.63157 9.80091 3.63157 9.80613 3.63157 9.81134C3.63157 9.81656 3.63157 9.82177 3.63157 9.82698C3.63157 9.83219 3.63157 9.8374 3.63157 9.84261C3.63157 9.84781 3.63157 9.85302 3.63157 9.85822C3.63157 9.86342 3.63157 9.86862 3.63157 9.87382C3.63157 9.87902 3.63157 9.88421 3.63157 9.88941C3.63157 9.8946 3.63157 9.8998 3.63157 9.90499C3.63157 9.91018 3.63157 9.91536 3.63157 9.92055C3.63157 9.92574 3.63157 9.93092 3.63157 9.93611C3.63157 9.94129 3.63157 9.94647 3.63157 9.95165C3.63157 9.95683 3.63157 9.962 3.63157 9.96718C3.63157 9.97235 3.63157 9.97753 3.63157 9.9827C3.63157 9.98787 3.63157 9.99304 3.63157 9.99821C3.63157 10.0034 3.63157 10.0085 3.63157 10.0137C3.63157 10.0189 3.63157 10.024 3.63157 10.0292C3.63157 10.0344 3.63157 10.0395 3.63157 10.0447C3.63157 10.0498 3.63157 10.055 3.63157 10.0601C3.63157 10.0653 3.63157 10.0704 3.63157 10.0756C3.63157 10.0807 3.63157 10.0859 3.63157 10.091C3.63157 10.0962 3.63157 10.1013 3.63157 10.1065C3.63157 10.1116 3.63157 10.1168 3.63157 10.1219C3.63157 10.127 3.63157 10.1322 3.63157 10.1373C3.63157 10.1424 3.63157 10.1476 3.63157 10.1527C3.63157 10.1578 3.63157 10.163 3.63157 10.1681C3.63157 10.1732 3.63157 10.1784 3.63157 10.1835C3.63157 10.1886 3.63157 10.1937 3.63157 10.1989C3.63157 10.204 3.63157 10.2091 3.63157 10.2142C3.63157 10.2194 3.63157 10.2245 3.63157 10.2296C3.63157 10.2347 3.63157 10.2398 3.63157 10.2449C3.63157 10.2501 3.63157 10.2552 3.63157 10.2603C3.63157 10.2654 3.63157 10.2705 3.63157 10.2756C3.63157 10.2807 3.63157 10.2858 3.63157 10.2909C3.63157 10.296 3.63157 10.3011 3.63157 10.3062C3.63157 10.3113 3.63157 10.3164 3.63157 10.3215C3.63157 10.3266 3.63157 10.3317 3.63157 10.3368C3.63157 10.3419 3.63157 10.347 3.63157 10.3521C3.63157 10.3572 3.63157 10.3623 3.63157 10.3674C3.63157 10.3725 3.63157 10.3776 3.63157 10.3827C3.63157 10.3878 3.63157 10.3929 3.63157 10.398C3.63157 10.403 3.63157 10.4081 3.63157 10.4132C3.63157 10.4183 3.63157 10.4234 3.63157 10.4285C3.63157 10.4335 3.63157 10.4386 3.63157 10.4437C3.63157 10.4488 3.63157 10.4539 3.63157 10.4589C3.63157 10.464 3.63157 10.4691 3.63157 10.4742C3.63157 10.4792 3.63157 10.4843 3.63157 10.4894C3.63157 10.4945 3.63157 10.4995 3.63157 10.5046C3.63157 10.5097 3.63157 10.5147 3.63157 10.5198C3.63157 10.5249 3.63157 10.5299 3.63157 10.535C3.63157 10.5401 3.63157 10.5451 3.63157 10.5502C3.63157 10.5553 3.63157 10.5603 3.63157 10.5654C3.63157 10.5705 3.63157 10.5755 3.63157 10.5806C3.63157 10.5856 3.63157 10.5907 3.63157 10.5958C3.63157 10.6008 3.63157 10.6059 3.63157 10.6109C3.63157 10.616 3.63157 10.621 3.63157 10.6261C3.63157 10.6311 3.63157 10.6362 3.63157 10.6412C3.63157 10.6463 3.63157 10.6513 3.63157 10.6564C3.63157 10.6614 3.63157 10.6665 3.63157 10.6715C3.63157 10.6766 3.63157 10.6816 3.63157 10.6867C3.63157 10.6917 3.63157 10.6968 3.63157 10.7018C3.63157 10.7069 3.63157 10.7119 3.63157 10.717C3.63157 10.722 3.63157 10.727 3.63157 10.7321C3.63157 10.7371 3.63157 10.7422 3.63157 10.7472C3.63157 10.7522 3.63157 10.7573 3.63157 10.7623C3.63157 10.7674 3.63157 10.7724 3.63157 10.7774C3.63157 10.7825 3.63157 10.7875 3.63157 10.7925C3.63157 10.7976 3.63157 10.8026 3.63157 10.8077C3.63157 10.8127 3.63157 10.8177 3.63157 10.8228C3.63157 10.8278 3.63157 10.8328 3.63157 10.8378C3.63157 10.8429 3.63157 10.8479 3.63157 10.8529C3.63157 10.858 3.63157 10.863 3.63157 10.868C3.63157 10.8731 3.63157 10.8781 3.63157 10.8831C3.63157 10.8881 3.63157 10.8932 3.63157 10.8982C3.63157 10.9032 3.63157 10.9083 3.63157 10.9133C3.63157 10.9183 3.63157 10.9233 3.63157 10.9284C3.63157 10.9334 3.63157 10.9384 3.63157 10.9434C3.63157 10.9484 3.63157 10.9535 3.63157 10.9585C3.63157 10.9635 3.63157 10.9685 3.63157 10.9736C3.63157 10.9786 3.63157 10.9836 3.63157 10.9886C3.63157 10.9936 3.63157 10.9987 3.63157 11.0037C3.63157 11.0087 3.63157 11.0137 3.63157 11.0187C3.63157 11.0238 3.63157 11.0288 3.63157 11.0338C3.63157 11.0388 3.63157 11.0438 3.63157 11.0489C3.63157 11.0539 3.63157 11.0589 3.63157 11.0639C3.63157 11.0689 3.63157 11.0739 3.63157 11.079C3.63157 11.084 3.63157 11.089 3.63157 11.094C3.63157 11.099 3.63157 11.104 3.63157 11.109C3.63157 11.1141 3.63157 11.1191 3.63157 11.1241C3.63157 11.1291 3.63157 11.1341 3.63157 11.1391C3.63157 11.1442 3.63157 11.1492 3.63157 11.1542C3.63157 11.1592 3.63157 11.1642 3.63157 11.1692C3.63157 11.1742 3.63157 11.1792 3.63157 11.1843C3.63157 11.1893 3.63157 11.1943 3.63157 11.1993C3.63157 11.2043 3.63157 11.2093 3.63157 11.2143C3.63157 11.2194 3.63157 11.2244 3.63157 11.2294C3.63157 11.2344 3.63157 11.2394 3.63157 11.2444C3.63157 11.2494 3.63157 11.2544 3.63157 11.2595C3.63157 11.2645 3.63157 11.2695 3.63157 11.2745C3.63157 11.2795 3.63157 11.2845 3.63157 11.2895C3.63157 11.2945 3.63157 11.2995 3.63157 11.3046C3.63157 11.3096 3.63157 11.3146 3.63157 11.3196C3.63157 11.3246 3.63157 11.3296 3.63157 11.3346C3.63157 11.3396 3.63157 11.3447 3.63157 11.3497C3.63157 11.3547 3.63157 11.3597 3.63157 11.3647C3.63157 11.3697 3.63157 11.3747 3.63157 11.3797C3.63157 11.3848 3.63157 11.3898 3.63157 11.3948C3.63157 11.3998 3.63157 11.4048 3.63157 11.4098C3.63157 11.4148 3.63157 11.4199 3.63157 11.4249C3.63157 11.4299 3.63157 11.4349 3.63157 11.4399C3.63157 11.4449 3.63157 11.4499 3.63157 11.455C3.63157 11.46 3.63157 11.465 3.63157 11.47C3.63157 11.475 3.63157 11.48 3.63157 11.485C3.63157 11.4901 3.63157 11.4951 3.63157 11.5001C3.63157 11.5051 3.63157 11.5101 3.63157 11.5151C3.63157 11.5202 3.63157 11.5252 3.63157 11.5302C3.63157 11.5352 3.63157 11.5402 3.63157 11.5452C3.63157 11.5503 3.63157 11.5553 3.63157 11.5603C3.63157 11.5653 3.63157 11.5703 3.63157 11.5754C3.63157 11.5804 3.63157 11.5854 3.63157 11.5904C3.63157 11.5954 3.63157 11.6005 3.63157 11.6055C3.63157 11.6105 3.63157 11.6155 3.63157 11.6206C3.63157 11.6256 3.63157 11.6306 3.63157 11.6356C3.63157 11.6406 3.63157 11.6457 3.63157 11.6507C3.63157 11.6557 3.63157 11.6607 3.63157 11.6658C3.63157 11.6708 3.63157 11.6758 3.63157 11.6808C3.63157 11.6859 3.63157 11.6909 3.63157 11.6959C3.63157 11.701 3.63157 11.706 3.63157 11.711C3.63157 11.716 3.63157 11.7211 3.63157 11.7261C3.63157 11.7311 3.63157 11.7362 3.63157 11.7412C3.63157 11.7462 3.63157 11.7513 3.63157 11.7563C3.63157 11.7613 3.63157 11.7664 3.63157 11.7714C3.63157 11.7764 3.63157 11.7815 3.63157 11.7865C3.63157 11.7915 3.63157 11.7966 3.63157 11.8016C3.63157 11.8066 3.63157 11.8117 3.63157 11.8167C3.63157 11.8218 3.63157 11.8268 3.63157 11.8318C3.63157 11.8369 3.63157 11.8419 3.63157 11.847C3.63157 11.852 3.63157 11.857 3.63157 11.8621C3.63157 11.8671 3.63157 11.8722 3.63157 11.8772C3.63157 11.8823 3.63157 11.8873 3.63157 11.8924C3.63157 11.8974 3.63157 11.9025 3.63157 11.9075C3.63157 11.9125 3.63157 11.9176 3.63157 11.9226C3.63157 11.9277 3.63157 11.9327 3.63157 11.9378C3.63157 11.9429 3.63157 11.9479 3.63157 11.953C3.63157 11.958 3.63157 11.9631 3.63157 11.9681C3.63157 11.9732 3.63157 11.9782 3.63157 11.9833C3.63157 11.9884 3.63157 11.9934 3.63157 11.9985C3.63157 12.0035 3.63157 12.0086 3.63157 12.0137C3.63157 12.0187 3.63157 12.0238 3.63157 12.0288C3.63157 12.0339 3.63157 12.039 3.63157 12.044C3.63157 12.0491 3.63157 12.0542 3.63157 12.0592C3.63157 12.0643 3.63157 12.0694 3.63157 12.0744C3.63157 12.0795 3.63157 12.0846 3.63157 12.0897C3.63157 12.0947 3.63157 12.0998 3.63157 12.1049C3.63157 12.11 3.63157 12.115 3.63157 12.1201C3.63157 12.1252 3.63157 12.1303 3.63157 12.1353C3.63157 12.1404 3.63157 12.1455 3.63157 12.1506C3.63157 12.1557 3.63157 12.1608 3.63157 12.1658C3.63157 12.1709 3.63157 12.176 3.63157 12.1811C3.63157 12.1862 3.63157 12.1913 3.63157 12.1964C3.63157 12.2014 3.63157 12.2065 3.63157 12.2116C3.63157 12.2167 3.63157 12.2218 3.63157 12.2269C3.63157 12.232 3.63157 12.2371 3.63157 12.2422C3.63157 12.2473 3.63157 12.2524 3.63157 12.2575C3.63157 12.2626 3.63157 12.2677 3.63157 12.2728C3.63157 12.2779 3.63157 12.283 3.63157 12.2881C3.63157 12.2932 3.63157 12.2983 3.63157 12.3034C3.63157 12.3085 3.63157 12.3137 3.63157 12.3188C3.63157 12.3239 3.63157 12.329 3.63157 12.3341C3.63157 12.3392 3.63157 12.3443 3.63157 12.3495C3.63157 12.3546 3.63157 12.3597 3.63157 12.3648C3.63157 12.3699 3.63157 12.3751 3.63157 12.3802C3.63157 12.3853 3.63157 12.3904 3.63157 12.3956C3.63157 12.4007 3.63157 12.4058 3.63157 12.4109C3.63157 12.4161 3.63157 12.4212 3.63157 12.4263C3.63157 12.4315 3.63157 12.4366 3.63157 12.4417C3.63157 12.4469 3.63157 12.452 3.63157 12.4572C3.63157 12.4623 3.63157 12.4674 3.63157 12.4726C3.63157 12.4777 3.63157 12.4829 3.63157 12.488C3.63157 12.4932 3.63157 12.4983 3.63157 12.5035C3.63157 12.5086 3.63157 12.5138 3.63157 12.5189C3.63157 12.5241 3.63157 12.5292 3.63157 12.5344C3.63157 12.5395 3.63157 12.5447 3.63157 12.5499C3.63157 12.555 3.63157 12.5602 3.63157 12.5653C3.63157 12.5705 3.63157 12.5757 3.63157 12.5808C3.63157 12.586 3.63157 12.5912 3.63157 12.5963C3.63157 12.6015 3.63157 12.6067 3.63157 12.6119C3.63157 12.617 3.63157 12.6222 3.63157 12.6274C3.63157 12.6326 3.63157 12.6378 3.63157 12.6429C3.63157 12.6481 3.63157 12.6533 3.63157 12.6585C3.63157 12.6637 3.63157 12.6689 3.63157 12.6741C3.63157 12.6793 3.63157 12.6844 3.63157 12.6896C3.63157 12.6948 3.63157 12.7 3.63157 12.7052C3.63157 12.7104 3.63157 12.7156 3.63157 12.7208C3.63157 12.726 3.63157 12.7312 3.63157 12.7364C3.63157 12.7416 3.63157 12.7469 3.63157 12.7521C3.63157 12.7573 3.63157 12.7625 3.63157 12.7677C3.63157 12.7729 3.63157 12.7781 3.63157 12.7834C3.63157 12.7886 3.63157 12.7938 3.63157 12.799C3.63157 12.8042 3.63157 12.8095 3.63157 12.8147C3.63157 12.8199 3.63157 12.8252 3.63157 12.8304C3.63157 12.8356 3.63157 12.8408 3.63157 12.8461C3.63157 12.8513 3.63157 12.8566 3.63157 12.8618C3.63157 12.867 3.63157 12.8723 3.63157 12.8775C3.63157 12.8828 3.63157 12.888 3.63157 12.8933C3.63157 12.8985 3.63157 12.9038 3.63157 12.909C3.63157 12.9143 3.63157 12.9195 3.63157 12.9248C3.63157 12.9301 3.63157 12.9353 3.63157 12.9406C3.63157 12.9458 3.63157 12.9511 3.63157 12.9564C3.63157 12.9616 3.63157 12.9669 3.63157 12.9722C3.63157 12.9775 3.63157 12.9827 3.63157 12.988C3.63157 12.9933 3.63157 12.9986 3.63157 13.0038C3.63157 13.0091 3.63157 13.0144 3.63157 13.0197C3.63157 13.025 3.63157 13.0303 3.63157 13.0356C3.63157 13.0409 3.63157 13.0462 3.63157 13.0515C3.63157 13.0568 3.63157 13.0621 3.63157 13.0674C3.63157 13.0727 3.63157 13.078 3.63157 13.0833C3.63157 13.0886 3.63157 13.0939 3.63157 13.0992C3.63157 13.1045 3.63157 13.1098 3.63157 13.1151C3.63157 13.1205 3.63157 13.1258 3.63157 13.1311C3.63157 13.1364 3.63157 13.1417 3.63157 13.1471C3.63157 13.1524 3.63157 13.1577 3.63157 13.1631C3.63157 13.1684 3.63157 13.1737 3.63157 13.1791C3.63157 13.1844 3.63157 13.1897 3.63157 13.1951C3.63157 13.2004 3.63157 13.2058 3.63157 13.2111C3.63157 13.2165 3.63157 13.2218 3.63157 13.2272C3.63157 13.2325 3.63157 13.2379 3.63157 13.2432C3.63157 13.2486 3.63157 13.254 3.63157 13.2593C3.63157 13.2647 3.63157 13.2701 3.63157 13.2754C3.63157 13.2808 3.63157 13.2862 3.63157 13.2916C3.63157 13.2969 3.63157 13.3023 3.63157 13.3077C3.63157 13.3131 3.63157 13.3185 3.63157 13.3238C3.63157 13.3292 3.63157 13.3346 3.63157 13.34C3.63157 13.3454 3.63157 13.3508 3.63157 13.3562C3.63157 13.3616 3.63157 13.367 3.63157 13.3724C3.63157 13.3778 3.63157 13.3832 3.63157 13.3886C3.63157 13.394 3.63157 13.3995 3.63157 13.4049C3.63157 13.4103 3.63157 13.4157 3.63157 13.4211C3.63157 13.4266 3.63157 13.432 3.63157 13.4374C3.63157 13.4428 3.63157 13.4483 3.63157 13.4537C3.63157 13.4591 3.63157 13.4646 3.63157 13.47C3.63157 13.4754 3.63157 13.4809 3.63157 13.4863C3.63157 13.4918 3.63157 13.4972 3.63157 13.5027C3.63157 13.5081 3.63157 13.5136 3.63157 13.5191C3.63157 13.5245 3.63157 13.53 3.63157 13.5354C3.63157 13.5409 3.63157 13.5464 3.63157 13.5518C3.63157 13.5573 3.63157 13.5628 3.63157 13.5683C3.63157 13.5737 3.63157 13.5792 3.63157 13.5847C3.63157 13.5902 3.63157 13.5957 3.63157 13.6012C3.63157 13.6067 3.63157 13.6122 3.63157 13.6176C3.63157 13.6231 3.63157 13.6286 3.63157 13.6341C3.63157 13.6396 3.63157 13.6452 3.63157 13.6507C3.63157 13.6562 3.63157 13.6617 3.63157 13.6672C3.63157 13.6727 3.63157 13.6782 3.63157 13.6838C3.63157 13.6893 3.63157 13.6948 3.63157 13.7003C3.63157 13.7059 3.63157 13.7114 3.63157 13.7169C3.63157 13.7225 3.63157 13.728 3.63157 13.7336C3.63157 13.7391 3.63157 13.7446 3.63157 13.7502C3.63157 13.7557 3.63157 13.7613 3.63157 13.7669C3.63157 13.7724 3.63157 13.778 3.63157 13.7835C3.63157 13.7891 3.63157 13.7947 3.63157 13.8002C3.63157 13.8058 3.63157 13.8114 3.63157 13.817C3.63157 13.8225 3.63157 13.8281 3.63157 13.8337C3.63157 13.8393 3.63157 13.8449 3.63157 13.8505C3.63157 13.8561 3.63157 13.8616 3.63157 13.8672C3.63157 13.8728 3.63157 13.8784 3.63157 13.8841C3.63157 13.8897 3.63157 13.8953 3.63157 13.9009C3.63157 13.9065 3.63157 13.9121 3.63157 13.9177C3.63157 13.9233 3.63157 13.929 3.63157 13.9346C3.63157 13.9402 3.63157 13.9459 3.63157 13.9515C3.63157 13.9571 3.63157 13.9628 3.63157 13.9684C3.63157 13.974 3.63157 13.9797 3.63157 13.9853C3.63157 13.991 3.63157 13.9966 3.63157 14.0023C3.63157 14.008 3.63157 14.0136 3.63157 14.0193C3.63157 14.0249 3.63157 14.0306 3.63157 14.0363C3.63157 14.042 3.63157 14.0476 3.63157 14.0533C3.63157 14.059 3.63157 14.0647 3.63157 14.0704C3.63157 14.076 3.63157 14.0817 3.63157 14.0874C3.63157 14.0931 3.63157 14.0988 3.63157 14.1045C3.63157 14.1102 3.63157 14.1159 3.63157 14.1216C3.63157 14.1273 3.63157 14.1331 3.63157 14.1388C3.63157 14.1445 3.63157 14.1502 3.63157 14.1559C3.63157 14.1617 3.63157 14.1674 3.63157 14.1731C3.63157 14.1789 3.63157 14.1846 3.63157 14.1903C3.63157 14.1961 3.63157 14.2018 3.63157 14.2076C3.63157 14.2133 3.63157 14.2191 3.63157 14.2248C3.63157 14.2306 3.63157 14.2364 3.63157 14.2421C3.63157 14.2479 3.63157 14.2537 3.63157 14.2594C3.63157 14.2652 3.63157 14.271 3.63157 14.2768C3.63157 14.2825 3.63157 14.2883 3.63157 14.2941C3.63157 14.2999 3.63157 14.3057 3.63157 14.3115C3.63157 14.3173 3.63157 14.3231 3.63157 14.3289C3.63157 14.3347 3.63157 14.3405 3.63157 14.3463C3.63157 14.3521 3.63157 14.358 3.63157 14.3638C3.63157 14.3696 3.63157 14.3754 3.63157 14.3813C3.63157 14.3871 3.63157 14.3929 3.63157 14.3988C3.63157 14.4046 3.63157 14.4105 3.63157 14.4163C3.63157 14.4221 3.63157 14.428 3.63157 14.4339C3.63157 14.4397 3.63157 14.4456 3.63157 14.4514C3.63157 14.4573 3.63157 14.4632 3.63157 14.469C3.63157 14.4749 3.63157 14.4808 3.63157 14.4867C3.63157 14.4926 3.63157 14.4984 3.63157 14.5043C3.63157 14.5102 3.63157 14.5161 3.63157 14.522C3.63157 14.5279 3.63157 14.5338 3.63157 14.5397C3.63157 14.5456 3.63157 14.5516 3.63157 14.5575C3.63157 14.5634 3.63157 14.5693 3.63157 14.5752C3.63157 14.5812 3.63157 14.5871 3.63157 14.593C3.63157 14.599 3.63157 14.6049 3.63157 14.6108C3.63157 14.6168 3.63157 14.6227 3.63157 14.6287C3.63157 14.6346 3.63157 14.6406 3.63157 14.6466C3.63157 14.6525 3.63157 14.6585 3.63157 14.6645C3.63157 14.6704 3.63157 14.6764 3.63157 14.6824C3.63157 14.6884 3.63157 14.6943 3.63157 14.7003C3.63157 14.7063 3.63157 14.7123 3.63157 14.7183C3.63157 14.7243 3.63157 14.7303 3.63157 14.7363C3.63157 14.7423 3.63157 14.7483 3.63157 14.7544C3.63157 14.7604 3.63157 14.7664 3.63157 14.7724C3.63157 14.7784 3.63157 14.7845 3.63157 14.7905C3.63157 14.7965 3.63157 14.8026 3.63157 14.8086C3.63157 14.8147 3.63157 14.8207 3.63157 14.8268C3.63157 14.8328 3.63157 14.8389 3.63157 14.845C3.63157 14.851 3.63157 14.8571 3.63157 14.8632C3.63157 14.8692 3.63157 14.8753 3.63157 14.8814C3.63157 14.8875 3.63157 14.8936 3.63157 14.8997C3.63157 14.9058 3.63157 14.9118 3.63157 14.918C3.63157 14.9241 3.63157 14.9302 3.63157 14.9363C3.63157 14.9424 3.63157 14.9485 3.63157 14.9546C3.63157 14.9607 3.63157 14.9669 3.63157 14.973C3.63157 14.9791 3.63157 14.9853 3.63157 14.9914C3.63157 14.9976 3.63157 15.0037 3.63157 15.0098C3.63157 15.016 3.63157 15.0222 3.63157 15.0283C3.63157 15.0345 3.63157 15.0406 3.63157 15.0468C3.63157 15.053 3.63157 15.0592 3.63157 15.0653C3.63157 15.0715 3.63157 15.0777 3.63157 15.0839C3.63157 15.0901 3.63157 15.0963 3.63157 15.1025C3.63157 15.1087 3.63157 15.1149 3.63157 15.1211C3.63157 15.1273 3.63157 15.1335 3.63157 15.1398C3.63157 15.146 3.63157 15.1522 3.63157 15.1584C3.63157 15.1647 3.63157 15.1709 3.63157 15.1771C3.63157 15.1834 3.63157 15.1896 3.63157 15.1959C3.63157 15.2021 3.63157 15.2084 3.63157 15.2147C3.63157 15.2209 3.63157 15.2272 3.63157 15.2335C3.63157 15.2397 3.63157 15.246 3.63157 15.2523C3.63157 15.2586 3.63157 15.2649 3.63157 15.2712C3.63157 15.2775 3.63157 15.2838 3.63157 15.2901C3.63157 15.2964 3.63157 15.3027 3.63157 15.309C3.63157 15.3153 3.63157 15.3216 3.63157 15.328C3.63157 15.3343 3.63157 15.3406 3.63157 15.3469C3.63157 15.3533 3.63157 15.3596 3.63157 15.366C3.63157 15.3723 3.63157 15.3787 3.63157 15.385C3.63157 15.3914 3.63157 15.3977 3.63157 15.4041C3.63157 15.4105 3.63157 15.4169 3.63157 15.4232C3.63157 15.4296 3.63157 15.436 3.63157 15.4424C3.63157 15.4488 3.63157 15.4552 3.63157 15.4616C3.63157 15.468 3.63157 15.4744 3.63157 15.4808C3.63157 15.4872 3.63157 15.4936 3.63157 15.5001H5.63157C5.63157 15.4936 5.63157 15.4872 5.63157 15.4808C5.63157 15.4744 5.63157 15.468 5.63157 15.4616C5.63157 15.4552 5.63157 15.4488 5.63157 15.4424C5.63157 15.436 5.63157 15.4296 5.63157 15.4232C5.63157 15.4169 5.63157 15.4105 5.63157 15.4041C5.63157 15.3977 5.63157 15.3914 5.63157 15.385C5.63157 15.3787 5.63157 15.3723 5.63157 15.366C5.63157 15.3596 5.63157 15.3533 5.63157 15.3469C5.63157 15.3406 5.63157 15.3343 5.63157 15.328C5.63157 15.3216 5.63157 15.3153 5.63157 15.309C5.63157 15.3027 5.63157 15.2964 5.63157 15.2901C5.63157 15.2838 5.63157 15.2775 5.63157 15.2712C5.63157 15.2649 5.63157 15.2586 5.63157 15.2523C5.63157 15.246 5.63157 15.2397 5.63157 15.2335C5.63157 15.2272 5.63157 15.2209 5.63157 15.2147C5.63157 15.2084 5.63157 15.2021 5.63157 15.1959C5.63157 15.1896 5.63157 15.1834 5.63157 15.1771C5.63157 15.1709 5.63157 15.1647 5.63157 15.1584C5.63157 15.1522 5.63157 15.146 5.63157 15.1398C5.63157 15.1335 5.63157 15.1273 5.63157 15.1211C5.63157 15.1149 5.63157 15.1087 5.63157 15.1025C5.63157 15.0963 5.63157 15.0901 5.63157 15.0839C5.63157 15.0777 5.63157 15.0715 5.63157 15.0653C5.63157 15.0592 5.63157 15.053 5.63157 15.0468C5.63157 15.0406 5.63157 15.0345 5.63157 15.0283C5.63157 15.0222 5.63157 15.016 5.63157 15.0098C5.63157 15.0037 5.63157 14.9976 5.63157 14.9914C5.63157 14.9853 5.63157 14.9791 5.63157 14.973C5.63157 14.9669 5.63157 14.9607 5.63157 14.9546C5.63157 14.9485 5.63157 14.9424 5.63157 14.9363C5.63157 14.9302 5.63157 14.9241 5.63157 14.918C5.63157 14.9118 5.63157 14.9058 5.63157 14.8997C5.63157 14.8936 5.63157 14.8875 5.63157 14.8814C5.63157 14.8753 5.63157 14.8692 5.63157 14.8632C5.63157 14.8571 5.63157 14.851 5.63157 14.845C5.63157 14.8389 5.63157 14.8328 5.63157 14.8268C5.63157 14.8207 5.63157 14.8147 5.63157 14.8086C5.63157 14.8026 5.63157 14.7965 5.63157 14.7905C5.63157 14.7845 5.63157 14.7784 5.63157 14.7724C5.63157 14.7664 5.63157 14.7604 5.63157 14.7544C5.63157 14.7483 5.63157 14.7423 5.63157 14.7363C5.63157 14.7303 5.63157 14.7243 5.63157 14.7183C5.63157 14.7123 5.63157 14.7063 5.63157 14.7003C5.63157 14.6943 5.63157 14.6884 5.63157 14.6824C5.63157 14.6764 5.63157 14.6704 5.63157 14.6645C5.63157 14.6585 5.63157 14.6525 5.63157 14.6466C5.63157 14.6406 5.63157 14.6346 5.63157 14.6287C5.63157 14.6227 5.63157 14.6168 5.63157 14.6108C5.63157 14.6049 5.63157 14.599 5.63157 14.593C5.63157 14.5871 5.63157 14.5812 5.63157 14.5752C5.63157 14.5693 5.63157 14.5634 5.63157 14.5575C5.63157 14.5516 5.63157 14.5456 5.63157 14.5397C5.63157 14.5338 5.63157 14.5279 5.63157 14.522C5.63157 14.5161 5.63157 14.5102 5.63157 14.5043C5.63157 14.4984 5.63157 14.4926 5.63157 14.4867C5.63157 14.4808 5.63157 14.4749 5.63157 14.469C5.63157 14.4632 5.63157 14.4573 5.63157 14.4514C5.63157 14.4456 5.63157 14.4397 5.63157 14.4339C5.63157 14.428 5.63157 14.4221 5.63157 14.4163C5.63157 14.4105 5.63157 14.4046 5.63157 14.3988C5.63157 14.3929 5.63157 14.3871 5.63157 14.3813C5.63157 14.3754 5.63157 14.3696 5.63157 14.3638C5.63157 14.358 5.63157 14.3521 5.63157 14.3463C5.63157 14.3405 5.63157 14.3347 5.63157 14.3289C5.63157 14.3231 5.63157 14.3173 5.63157 14.3115C5.63157 14.3057 5.63157 14.2999 5.63157 14.2941C5.63157 14.2883 5.63157 14.2825 5.63157 14.2768C5.63157 14.271 5.63157 14.2652 5.63157 14.2594C5.63157 14.2537 5.63157 14.2479 5.63157 14.2421C5.63157 14.2364 5.63157 14.2306 5.63157 14.2248C5.63157 14.2191 5.63157 14.2133 5.63157 14.2076C5.63157 14.2018 5.63157 14.1961 5.63157 14.1903C5.63157 14.1846 5.63157 14.1789 5.63157 14.1731C5.63157 14.1674 5.63157 14.1617 5.63157 14.1559C5.63157 14.1502 5.63157 14.1445 5.63157 14.1388C5.63157 14.1331 5.63157 14.1273 5.63157 14.1216C5.63157 14.1159 5.63157 14.1102 5.63157 14.1045C5.63157 14.0988 5.63157 14.0931 5.63157 14.0874C5.63157 14.0817 5.63157 14.076 5.63157 14.0704C5.63157 14.0647 5.63157 14.059 5.63157 14.0533C5.63157 14.0476 5.63157 14.042 5.63157 14.0363C5.63157 14.0306 5.63157 14.0249 5.63157 14.0193C5.63157 14.0136 5.63157 14.008 5.63157 14.0023C5.63157 13.9966 5.63157 13.991 5.63157 13.9853C5.63157 13.9797 5.63157 13.974 5.63157 13.9684C5.63157 13.9628 5.63157 13.9571 5.63157 13.9515C5.63157 13.9459 5.63157 13.9402 5.63157 13.9346C5.63157 13.929 5.63157 13.9233 5.63157 13.9177C5.63157 13.9121 5.63157 13.9065 5.63157 13.9009C5.63157 13.8953 5.63157 13.8897 5.63157 13.8841C5.63157 13.8784 5.63157 13.8728 5.63157 13.8672C5.63157 13.8616 5.63157 13.8561 5.63157 13.8505C5.63157 13.8449 5.63157 13.8393 5.63157 13.8337C5.63157 13.8281 5.63157 13.8225 5.63157 13.817C5.63157 13.8114 5.63157 13.8058 5.63157 13.8002C5.63157 13.7947 5.63157 13.7891 5.63157 13.7835C5.63157 13.778 5.63157 13.7724 5.63157 13.7669C5.63157 13.7613 5.63157 13.7557 5.63157 13.7502C5.63157 13.7446 5.63157 13.7391 5.63157 13.7336C5.63157 13.728 5.63157 13.7225 5.63157 13.7169C5.63157 13.7114 5.63157 13.7059 5.63157 13.7003C5.63157 13.6948 5.63157 13.6893 5.63157 13.6838C5.63157 13.6782 5.63157 13.6727 5.63157 13.6672C5.63157 13.6617 5.63157 13.6562 5.63157 13.6507C5.63157 13.6452 5.63157 13.6396 5.63157 13.6341C5.63157 13.6286 5.63157 13.6231 5.63157 13.6176C5.63157 13.6122 5.63157 13.6067 5.63157 13.6012C5.63157 13.5957 5.63157 13.5902 5.63157 13.5847C5.63157 13.5792 5.63157 13.5737 5.63157 13.5683C5.63157 13.5628 5.63157 13.5573 5.63157 13.5518C5.63157 13.5464 5.63157 13.5409 5.63157 13.5354C5.63157 13.53 5.63157 13.5245 5.63157 13.5191C5.63157 13.5136 5.63157 13.5081 5.63157 13.5027C5.63157 13.4972 5.63157 13.4918 5.63157 13.4863C5.63157 13.4809 5.63157 13.4754 5.63157 13.47C5.63157 13.4646 5.63157 13.4591 5.63157 13.4537C5.63157 13.4483 5.63157 13.4428 5.63157 13.4374C5.63157 13.432 5.63157 13.4266 5.63157 13.4211C5.63157 13.4157 5.63157 13.4103 5.63157 13.4049C5.63157 13.3995 5.63157 13.394 5.63157 13.3886C5.63157 13.3832 5.63157 13.3778 5.63157 13.3724C5.63157 13.367 5.63157 13.3616 5.63157 13.3562C5.63157 13.3508 5.63157 13.3454 5.63157 13.34C5.63157 13.3346 5.63157 13.3292 5.63157 13.3238C5.63157 13.3185 5.63157 13.3131 5.63157 13.3077C5.63157 13.3023 5.63157 13.2969 5.63157 13.2916C5.63157 13.2862 5.63157 13.2808 5.63157 13.2754C5.63157 13.2701 5.63157 13.2647 5.63157 13.2593C5.63157 13.254 5.63157 13.2486 5.63157 13.2432C5.63157 13.2379 5.63157 13.2325 5.63157 13.2272C5.63157 13.2218 5.63157 13.2165 5.63157 13.2111C5.63157 13.2058 5.63157 13.2004 5.63157 13.1951C5.63157 13.1897 5.63157 13.1844 5.63157 13.1791C5.63157 13.1737 5.63157 13.1684 5.63157 13.1631C5.63157 13.1577 5.63157 13.1524 5.63157 13.1471C5.63157 13.1417 5.63157 13.1364 5.63157 13.1311C5.63157 13.1258 5.63157 13.1205 5.63157 13.1151C5.63157 13.1098 5.63157 13.1045 5.63157 13.0992C5.63157 13.0939 5.63157 13.0886 5.63157 13.0833C5.63157 13.078 5.63157 13.0727 5.63157 13.0674C5.63157 13.0621 5.63157 13.0568 5.63157 13.0515C5.63157 13.0462 5.63157 13.0409 5.63157 13.0356C5.63157 13.0303 5.63157 13.025 5.63157 13.0197C5.63157 13.0144 5.63157 13.0091 5.63157 13.0038C5.63157 12.9986 5.63157 12.9933 5.63157 12.988C5.63157 12.9827 5.63157 12.9775 5.63157 12.9722C5.63157 12.9669 5.63157 12.9616 5.63157 12.9564C5.63157 12.9511 5.63157 12.9458 5.63157 12.9406C5.63157 12.9353 5.63157 12.9301 5.63157 12.9248C5.63157 12.9195 5.63157 12.9143 5.63157 12.909C5.63157 12.9038 5.63157 12.8985 5.63157 12.8933C5.63157 12.888 5.63157 12.8828 5.63157 12.8775C5.63157 12.8723 5.63157 12.867 5.63157 12.8618C5.63157 12.8566 5.63157 12.8513 5.63157 12.8461C5.63157 12.8408 5.63157 12.8356 5.63157 12.8304C5.63157 12.8252 5.63157 12.8199 5.63157 12.8147C5.63157 12.8095 5.63157 12.8042 5.63157 12.799C5.63157 12.7938 5.63157 12.7886 5.63157 12.7834C5.63157 12.7781 5.63157 12.7729 5.63157 12.7677C5.63157 12.7625 5.63157 12.7573 5.63157 12.7521C5.63157 12.7469 5.63157 12.7416 5.63157 12.7364C5.63157 12.7312 5.63157 12.726 5.63157 12.7208C5.63157 12.7156 5.63157 12.7104 5.63157 12.7052C5.63157 12.7 5.63157 12.6948 5.63157 12.6896C5.63157 12.6844 5.63157 12.6793 5.63157 12.6741C5.63157 12.6689 5.63157 12.6637 5.63157 12.6585C5.63157 12.6533 5.63157 12.6481 5.63157 12.6429C5.63157 12.6378 5.63157 12.6326 5.63157 12.6274C5.63157 12.6222 5.63157 12.617 5.63157 12.6119C5.63157 12.6067 5.63157 12.6015 5.63157 12.5963C5.63157 12.5912 5.63157 12.586 5.63157 12.5808C5.63157 12.5757 5.63157 12.5705 5.63157 12.5653C5.63157 12.5602 5.63157 12.555 5.63157 12.5499C5.63157 12.5447 5.63157 12.5395 5.63157 12.5344C5.63157 12.5292 5.63157 12.5241 5.63157 12.5189C5.63157 12.5138 5.63157 12.5086 5.63157 12.5035C5.63157 12.4983 5.63157 12.4932 5.63157 12.488C5.63157 12.4829 5.63157 12.4777 5.63157 12.4726C5.63157 12.4674 5.63157 12.4623 5.63157 12.4572C5.63157 12.452 5.63157 12.4469 5.63157 12.4417C5.63157 12.4366 5.63157 12.4315 5.63157 12.4263C5.63157 12.4212 5.63157 12.4161 5.63157 12.4109C5.63157 12.4058 5.63157 12.4007 5.63157 12.3956C5.63157 12.3904 5.63157 12.3853 5.63157 12.3802C5.63157 12.3751 5.63157 12.3699 5.63157 12.3648C5.63157 12.3597 5.63157 12.3546 5.63157 12.3495C5.63157 12.3443 5.63157 12.3392 5.63157 12.3341C5.63157 12.329 5.63157 12.3239 5.63157 12.3188C5.63157 12.3137 5.63157 12.3085 5.63157 12.3034C5.63157 12.2983 5.63157 12.2932 5.63157 12.2881C5.63157 12.283 5.63157 12.2779 5.63157 12.2728C5.63157 12.2677 5.63157 12.2626 5.63157 12.2575C5.63157 12.2524 5.63157 12.2473 5.63157 12.2422C5.63157 12.2371 5.63157 12.232 5.63157 12.2269C5.63157 12.2218 5.63157 12.2167 5.63157 12.2116C5.63157 12.2065 5.63157 12.2014 5.63157 12.1964C5.63157 12.1913 5.63157 12.1862 5.63157 12.1811C5.63157 12.176 5.63157 12.1709 5.63157 12.1658C5.63157 12.1608 5.63157 12.1557 5.63157 12.1506C5.63157 12.1455 5.63157 12.1404 5.63157 12.1353C5.63157 12.1303 5.63157 12.1252 5.63157 12.1201C5.63157 12.115 5.63157 12.11 5.63157 12.1049C5.63157 12.0998 5.63157 12.0947 5.63157 12.0897C5.63157 12.0846 5.63157 12.0795 5.63157 12.0744C5.63157 12.0694 5.63157 12.0643 5.63157 12.0592C5.63157 12.0542 5.63157 12.0491 5.63157 12.044C5.63157 12.039 5.63157 12.0339 5.63157 12.0288C5.63157 12.0238 5.63157 12.0187 5.63157 12.0137C5.63157 12.0086 5.63157 12.0035 5.63157 11.9985C5.63157 11.9934 5.63157 11.9884 5.63157 11.9833C5.63157 11.9782 5.63157 11.9732 5.63157 11.9681C5.63157 11.9631 5.63157 11.958 5.63157 11.953C5.63157 11.9479 5.63157 11.9429 5.63157 11.9378C5.63157 11.9327 5.63157 11.9277 5.63157 11.9226C5.63157 11.9176 5.63157 11.9125 5.63157 11.9075C5.63157 11.9025 5.63157 11.8974 5.63157 11.8924C5.63157 11.8873 5.63157 11.8823 5.63157 11.8772C5.63157 11.8722 5.63157 11.8671 5.63157 11.8621C5.63157 11.857 5.63157 11.852 5.63157 11.847C5.63157 11.8419 5.63157 11.8369 5.63157 11.8318C5.63157 11.8268 5.63157 11.8218 5.63157 11.8167C5.63157 11.8117 5.63157 11.8066 5.63157 11.8016C5.63157 11.7966 5.63157 11.7915 5.63157 11.7865C5.63157 11.7815 5.63157 11.7764 5.63157 11.7714C5.63157 11.7664 5.63157 11.7613 5.63157 11.7563C5.63157 11.7513 5.63157 11.7462 5.63157 11.7412C5.63157 11.7362 5.63157 11.7311 5.63157 11.7261C5.63157 11.7211 5.63157 11.716 5.63157 11.711C5.63157 11.706 5.63157 11.701 5.63157 11.6959C5.63157 11.6909 5.63157 11.6859 5.63157 11.6808C5.63157 11.6758 5.63157 11.6708 5.63157 11.6658C5.63157 11.6607 5.63157 11.6557 5.63157 11.6507C5.63157 11.6457 5.63157 11.6406 5.63157 11.6356C5.63157 11.6306 5.63157 11.6256 5.63157 11.6206C5.63157 11.6155 5.63157 11.6105 5.63157 11.6055C5.63157 11.6005 5.63157 11.5954 5.63157 11.5904C5.63157 11.5854 5.63157 11.5804 5.63157 11.5754C5.63157 11.5703 5.63157 11.5653 5.63157 11.5603C5.63157 11.5553 5.63157 11.5503 5.63157 11.5452C5.63157 11.5402 5.63157 11.5352 5.63157 11.5302C5.63157 11.5252 5.63157 11.5202 5.63157 11.5151C5.63157 11.5101 5.63157 11.5051 5.63157 11.5001C5.63157 11.4951 5.63157 11.4901 5.63157 11.485C5.63157 11.48 5.63157 11.475 5.63157 11.47C5.63157 11.465 5.63157 11.46 5.63157 11.455C5.63157 11.4499 5.63157 11.4449 5.63157 11.4399C5.63157 11.4349 5.63157 11.4299 5.63157 11.4249C5.63157 11.4199 5.63157 11.4148 5.63157 11.4098C5.63157 11.4048 5.63157 11.3998 5.63157 11.3948C5.63157 11.3898 5.63157 11.3848 5.63157 11.3797C5.63157 11.3747 5.63157 11.3697 5.63157 11.3647C5.63157 11.3597 5.63157 11.3547 5.63157 11.3497C5.63157 11.3447 5.63157 11.3396 5.63157 11.3346C5.63157 11.3296 5.63157 11.3246 5.63157 11.3196C5.63157 11.3146 5.63157 11.3096 5.63157 11.3046C5.63157 11.2995 5.63157 11.2945 5.63157 11.2895C5.63157 11.2845 5.63157 11.2795 5.63157 11.2745C5.63157 11.2695 5.63157 11.2645 5.63157 11.2595C5.63157 11.2544 5.63157 11.2494 5.63157 11.2444C5.63157 11.2394 5.63157 11.2344 5.63157 11.2294C5.63157 11.2244 5.63157 11.2194 5.63157 11.2143C5.63157 11.2093 5.63157 11.2043 5.63157 11.1993C5.63157 11.1943 5.63157 11.1893 5.63157 11.1843C5.63157 11.1792 5.63157 11.1742 5.63157 11.1692C5.63157 11.1642 5.63157 11.1592 5.63157 11.1542C5.63157 11.1492 5.63157 11.1442 5.63157 11.1391C5.63157 11.1341 5.63157 11.1291 5.63157 11.1241C5.63157 11.1191 5.63157 11.1141 5.63157 11.109C5.63157 11.104 5.63157 11.099 5.63157 11.094C5.63157 11.089 5.63157 11.084 5.63157 11.079C5.63157 11.0739 5.63157 11.0689 5.63157 11.0639C5.63157 11.0589 5.63157 11.0539 5.63157 11.0489C5.63157 11.0438 5.63157 11.0388 5.63157 11.0338C5.63157 11.0288 5.63157 11.0238 5.63157 11.0187C5.63157 11.0137 5.63157 11.0087 5.63157 11.0037C5.63157 10.9987 5.63157 10.9936 5.63157 10.9886C5.63157 10.9836 5.63157 10.9786 5.63157 10.9736C5.63157 10.9685 5.63157 10.9635 5.63157 10.9585C5.63157 10.9535 5.63157 10.9484 5.63157 10.9434C5.63157 10.9384 5.63157 10.9334 5.63157 10.9284C5.63157 10.9233 5.63157 10.9183 5.63157 10.9133C5.63157 10.9083 5.63157 10.9032 5.63157 10.8982C5.63157 10.8932 5.63157 10.8881 5.63157 10.8831C5.63157 10.8781 5.63157 10.8731 5.63157 10.868C5.63157 10.863 5.63157 10.858 5.63157 10.8529C5.63157 10.8479 5.63157 10.8429 5.63157 10.8378C5.63157 10.8328 5.63157 10.8278 5.63157 10.8228C5.63157 10.8177 5.63157 10.8127 5.63157 10.8077C5.63157 10.8026 5.63157 10.7976 5.63157 10.7925C5.63157 10.7875 5.63157 10.7825 5.63157 10.7774C5.63157 10.7724 5.63157 10.7674 5.63157 10.7623C5.63157 10.7573 5.63157 10.7522 5.63157 10.7472C5.63157 10.7422 5.63157 10.7371 5.63157 10.7321C5.63157 10.727 5.63157 10.722 5.63157 10.717C5.63157 10.7119 5.63157 10.7069 5.63157 10.7018C5.63157 10.6968 5.63157 10.6917 5.63157 10.6867C5.63157 10.6816 5.63157 10.6766 5.63157 10.6715C5.63157 10.6665 5.63157 10.6614 5.63157 10.6564C5.63157 10.6513 5.63157 10.6463 5.63157 10.6412C5.63157 10.6362 5.63157 10.6311 5.63157 10.6261C5.63157 10.621 5.63157 10.616 5.63157 10.6109C5.63157 10.6059 5.63157 10.6008 5.63157 10.5958C5.63157 10.5907 5.63157 10.5856 5.63157 10.5806C5.63157 10.5755 5.63157 10.5705 5.63157 10.5654C5.63157 10.5603 5.63157 10.5553 5.63157 10.5502C5.63157 10.5451 5.63157 10.5401 5.63157 10.535C5.63157 10.5299 5.63157 10.5249 5.63157 10.5198C5.63157 10.5147 5.63157 10.5097 5.63157 10.5046C5.63157 10.4995 5.63157 10.4945 5.63157 10.4894C5.63157 10.4843 5.63157 10.4792 5.63157 10.4742C5.63157 10.4691 5.63157 10.464 5.63157 10.4589C5.63157 10.4539 5.63157 10.4488 5.63157 10.4437C5.63157 10.4386 5.63157 10.4335 5.63157 10.4285C5.63157 10.4234 5.63157 10.4183 5.63157 10.4132C5.63157 10.4081 5.63157 10.403 5.63157 10.398C5.63157 10.3929 5.63157 10.3878 5.63157 10.3827C5.63157 10.3776 5.63157 10.3725 5.63157 10.3674C5.63157 10.3623 5.63157 10.3572 5.63157 10.3521C5.63157 10.347 5.63157 10.3419 5.63157 10.3368C5.63157 10.3317 5.63157 10.3266 5.63157 10.3215C5.63157 10.3164 5.63157 10.3113 5.63157 10.3062C5.63157 10.3011 5.63157 10.296 5.63157 10.2909C5.63157 10.2858 5.63157 10.2807 5.63157 10.2756C5.63157 10.2705 5.63157 10.2654 5.63157 10.2603C5.63157 10.2552 5.63157 10.2501 5.63157 10.2449C5.63157 10.2398 5.63157 10.2347 5.63157 10.2296C5.63157 10.2245 5.63157 10.2194 5.63157 10.2142C5.63157 10.2091 5.63157 10.204 5.63157 10.1989C5.63157 10.1937 5.63157 10.1886 5.63157 10.1835C5.63157 10.1784 5.63157 10.1732 5.63157 10.1681C5.63157 10.163 5.63157 10.1578 5.63157 10.1527C5.63157 10.1476 5.63157 10.1424 5.63157 10.1373C5.63157 10.1322 5.63157 10.127 5.63157 10.1219C5.63157 10.1168 5.63157 10.1116 5.63157 10.1065C5.63157 10.1013 5.63157 10.0962 5.63157 10.091C5.63157 10.0859 5.63157 10.0807 5.63157 10.0756C5.63157 10.0704 5.63157 10.0653 5.63157 10.0601C5.63157 10.055 5.63157 10.0498 5.63157 10.0447C5.63157 10.0395 5.63157 10.0344 5.63157 10.0292C5.63157 10.024 5.63157 10.0189 5.63157 10.0137C5.63157 10.0085 5.63157 10.0034 5.63157 9.99821C5.63157 9.99304 5.63157 9.98787 5.63157 9.9827C5.63157 9.97753 5.63157 9.97235 5.63157 9.96718C5.63157 9.962 5.63157 9.95683 5.63157 9.95165C5.63157 9.94647 5.63157 9.94129 5.63157 9.93611C5.63157 9.93092 5.63157 9.92574 5.63157 9.92055C5.63157 9.91536 5.63157 9.91018 5.63157 9.90499C5.63157 9.8998 5.63157 9.8946 5.63157 9.88941C5.63157 9.88421 5.63157 9.87902 5.63157 9.87382C5.63157 9.86862 5.63157 9.86342 5.63157 9.85822C5.63157 9.85302 5.63157 9.84781 5.63157 9.84261C5.63157 9.8374 5.63157 9.83219 5.63157 9.82698C5.63157 9.82177 5.63157 9.81656 5.63157 9.81134C5.63157 9.80613 5.63157 9.80091 5.63157 9.79569C5.63157 9.79047 5.63157 9.78525 5.63157 9.78003C5.63157 9.77481 5.63157 9.76958 5.63157 9.76435C5.63157 9.75913 5.63157 9.7539 5.63157 9.74866C5.63157 9.74343 5.63157 9.7382 5.63157 9.73296C5.63157 9.72773 5.63157 9.72249 5.63157 9.71725C5.63157 9.71201 5.63157 9.70676 5.63157 9.70152C5.63157 9.69627 5.63157 9.69103 5.63157 9.68578C5.63157 9.68053 5.63157 9.67528 5.63157 9.67002C5.63157 9.66477 5.63157 9.65951 5.63157 9.65425C5.63157 9.64899 5.63157 9.64373 5.63157 9.63847C5.63157 9.63321 5.63157 9.62794 5.63157 9.62267C5.63157 9.61741 5.63157 9.61213 5.63157 9.60686C5.63157 9.60159 5.63157 9.59631 5.63157 9.59104C5.63157 9.58576 5.63157 9.58048 5.63157 9.5752C5.63157 9.56992 5.63157 9.56463 5.63157 9.55934C5.63157 9.55406 5.63157 9.54877 5.63157 9.54348C5.63157 9.53818 5.63157 9.53289 5.63157 9.52759C5.63157 9.5223 5.63157 9.517 5.63157 9.51169C5.63157 9.50639 5.63157 9.50109 5.63157 9.49578C5.63157 9.49047 5.63157 9.48517 5.63157 9.47985C5.63157 9.47454 5.63157 9.46923 5.63157 9.46391C5.63157 9.45859 5.63157 9.45327 5.63157 9.44795C5.63157 9.44263 5.63157 9.4373 5.63157 9.43198C5.63157 9.42665 5.63157 9.42132 5.63157 9.41599C5.63157 9.41065 5.63157 9.40532 5.63157 9.39998C5.63157 9.39464 5.63157 9.3893 5.63157 9.38396C5.63157 9.37862 5.63157 9.37327 5.63157 9.36792C5.63157 9.36257 5.63157 9.35722 5.63157 9.35187C5.63157 9.34651 5.63157 9.34116 5.63157 9.3358C5.63157 9.33044 5.63157 9.32508 5.63157 9.31971C5.63157 9.31435 5.63157 9.30898 5.63157 9.30361C5.63157 9.29824 5.63157 9.29287 5.63157 9.28749C5.63157 9.28211 5.63157 9.27673 5.63157 9.27135C5.63157 9.26597 5.63157 9.26059 5.63157 9.2552C5.63157 9.24981 5.63157 9.24442 5.63157 9.23903C5.63157 9.23364 5.63157 9.22824 5.63157 9.22284C5.63157 9.21744 5.63157 9.21204 5.63157 9.20664C5.63157 9.20123 5.63157 9.19583 5.63157 9.19041C5.63157 9.185 5.63157 9.17959 5.63157 9.17417C5.63157 9.16876 5.63157 9.16334 5.63157 9.15792C5.63157 9.1525 5.63157 9.14707 5.63157 9.14164C5.63157 9.13621 5.63157 9.13078 5.63157 9.12535C5.63157 9.11991 5.63157 9.11448 5.63157 9.10904C5.63157 9.1036 5.63157 9.09815 5.63157 9.09271C5.63157 9.08726 5.63157 9.08181 5.63157 9.07636C5.63157 9.07091 5.63157 9.06545 5.63157 9.05999C5.63157 9.05453 5.63157 9.04907 5.63157 9.04361C5.63157 9.03814 5.63157 9.03268 5.63157 9.0272C5.63157 9.02173 5.63157 9.01626 5.63157 9.01078C5.63157 9.0053 5.63157 8.99982 5.63157 8.99434C5.63157 8.98886 5.63157 8.98337 5.63157 8.97788C5.63157 8.97239 5.63157 8.9669 5.63157 8.9614C5.63157 8.9559 5.63157 8.9504 5.63157 8.9449C5.63157 8.9394 5.63157 8.93389 5.63157 8.92838C5.63157 8.92287 5.63157 8.91736 5.63157 8.91184C5.63157 8.90633 5.63157 8.90081 5.63157 8.89528C5.63157 8.88976 5.63157 8.88424 5.63157 8.87871C5.63157 8.87318 5.63157 8.86764 5.63157 8.86211C5.63157 8.85657 5.63157 8.85103 5.63157 8.84549C5.63157 8.83995 5.63157 8.8344 5.63157 8.82885C5.63157 8.8233 5.63157 8.81775 5.63157 8.81219C5.63157 8.80664 5.63157 8.80108 5.63157 8.79551C5.63157 8.78995 5.63157 8.78438 5.63157 8.77881C5.63157 8.77324 5.63157 8.76767 5.63157 8.76209C5.63157 8.75651 5.63157 8.75093 5.63157 8.74535C5.63157 8.73977 5.63157 8.73418 5.63157 8.72859C5.63157 8.723 5.63157 8.7174 5.63157 8.7118C5.63157 8.7062 5.63157 8.7006 5.63157 8.695C5.63157 8.68939 5.63157 8.68378 5.63157 8.67817C5.63157 8.67256 5.63157 8.66694 5.63157 8.66132C5.63157 8.6557 5.63157 8.65008 5.63157 8.64445C5.63157 8.63882 5.63157 8.63319 5.63157 8.62756C5.63157 8.62192 5.63157 8.61629 5.63157 8.61064C5.63157 8.605 5.63157 8.59936 5.63157 8.59371C5.63157 8.58806 5.63157 8.58241 5.63157 8.57675C5.63157 8.57109 5.63157 8.56543 5.63157 8.55977C5.63157 8.55411 5.63157 8.54844 5.63157 8.54277C5.63157 8.5371 5.63157 8.53142 5.63157 8.52574C5.63157 8.52006 5.63157 8.51438 5.63157 8.50869C5.63157 8.50301 5.63157 8.49732 5.63157 8.49162C5.63157 8.48593 5.63157 8.48023 5.63157 8.47453C5.63157 8.46882 5.63157 8.46312 5.63157 8.45741C5.63157 8.4517 5.63157 8.44599 5.63157 8.44027C5.63157 8.43455 5.63157 8.42883 5.63157 8.4231C5.63157 8.41738 5.63157 8.41165 5.63157 8.40592C5.63157 8.40018 5.63157 8.39445 5.63157 8.38871C5.63157 8.38296 5.63157 8.37722 5.63157 8.37147C5.63157 8.36572 5.63157 8.35997 5.63157 8.35421C5.63157 8.34845 5.63157 8.34269 5.63157 8.33693C5.63157 8.33116 5.63157 8.32539 5.63157 8.31962C5.63157 8.31385 5.63157 8.30807 5.63157 8.30229C5.63157 8.29651 5.63157 8.29072 5.63157 8.28493C5.63157 8.27914 5.63157 8.27335 5.63157 8.26755C5.63157 8.26176 5.63157 8.25595 5.63157 8.25015C5.63157 8.24434 5.63157 8.23853 5.63157 8.23272C5.63157 8.2269 5.63157 8.22109 5.63157 8.21526C5.63157 8.20944 5.63157 8.20362 5.63157 8.19778C5.63157 8.19195 5.63157 8.18612 5.63157 8.18028C5.63157 8.17444 5.63157 8.1686 5.63157 8.16275C5.63157 8.1569 5.63157 8.15105 5.63157 8.14519C5.63157 8.13934 5.63157 8.13348 5.63157 8.12761C5.63157 8.12175 5.63157 8.11588 5.63157 8.11C5.63157 8.10413 5.63157 8.09825 5.63157 8.09237C5.63157 8.08649 5.63157 8.0806 5.63157 8.07471C5.63157 8.06882 5.63157 8.06293 5.63157 8.05703C5.63157 8.05113 5.63157 8.04523 5.63157 8.03932C5.63157 8.03341 5.63157 8.0275 5.63157 8.02158C5.63157 8.01566 5.63157 8.00974 5.63157 8.00382C5.63157 7.99789 5.63157 7.99196 5.63157 7.98602C5.63157 7.98009 5.63157 7.97415 5.63157 7.96821C5.63157 7.96226 5.63157 7.95632 5.63157 7.95036C5.63157 7.94441 5.63157 7.93845 5.63157 7.93249C5.63157 7.92653 5.63157 7.92056 5.63157 7.91459C5.63157 7.90862 5.63157 7.90265 5.63157 7.89667C5.63157 7.89069 5.63157 7.8847 5.63157 7.87871C5.63157 7.87273 5.63157 7.86673 5.63157 7.86073C5.63157 7.85474 5.63157 7.84873 5.63157 7.84273C5.63157 7.83672 5.63157 7.83071 5.63157 7.82469C5.63157 7.81867 5.63157 7.81265 5.63157 7.80663C5.63157 7.8006 5.63157 7.79457 5.63157 7.78853C5.63157 7.7825 5.63157 7.77646 5.63157 7.77041C5.63157 7.76437 5.63157 7.75832 5.63157 7.75227C5.63157 7.74621 5.63157 7.74015 5.63157 7.73409C5.63157 7.72803 5.63157 7.72196 5.63157 7.71588C5.63157 7.70981 5.63157 7.70373 5.63157 7.69765C5.63157 7.69157 5.63157 7.68548 5.63157 7.67939C5.63157 7.6733 5.63157 7.6672 5.63157 7.6611C5.63157 7.65499 5.63157 7.64889 5.63157 7.64278C5.63157 7.63666 5.63157 7.63055 5.63157 7.62443C5.63157 7.6183 5.63157 7.61218 5.63157 7.60605C5.63157 7.59991 5.63157 7.59378 5.63157 7.58764C5.63157 7.5815 5.63157 7.57535 5.63157 7.5692C5.63157 7.56305 5.63157 7.55689 5.63157 7.55073C5.63157 7.54457 5.63157 7.5384 5.63157 7.53223C5.63157 7.52606 5.63157 7.51989 5.63157 7.51371C5.63157 7.50752 5.63157 7.50134 5.63157 7.49515C5.63157 7.48896 5.63157 7.48276 5.63157 7.47656C5.63157 7.47036 5.63157 7.46415 5.63157 7.45794C5.63157 7.45173 5.63157 7.44551 5.63157 7.43929C5.63157 7.43307 5.63157 7.42684 5.63157 7.42061C5.63157 7.41438 5.63157 7.40814 5.63157 7.4019C5.63157 7.39566 5.63157 7.38941 5.63157 7.38316C5.63157 7.37691 5.63157 7.37065 5.63157 7.36439C5.63157 7.35813 5.63157 7.35186 5.63157 7.34558C5.63157 7.33931 5.63157 7.33303 5.63157 7.32675C5.63157 7.32047 5.63157 7.31418 5.63157 7.30788C5.63157 7.30159 5.63157 7.29529 5.63157 7.28899C5.63157 7.28268 5.63157 7.27637 5.63157 7.27006C5.63157 7.26374 5.63157 7.25742 5.63157 7.2511C5.63157 7.24477 5.63157 7.23844 5.63157 7.2321C5.63157 7.22577 5.63157 7.21943 5.63157 7.21308C5.63157 7.20673 5.63157 7.20038 5.63157 7.19402C5.63157 7.18766 5.63157 7.1813 5.63157 7.17493C5.63157 7.16856 5.63157 7.16219 5.63157 7.15581C5.63157 7.14943 5.63157 7.14305 5.63157 7.13666C5.63157 7.13027 5.63157 7.12387 5.63157 7.11747C5.63157 7.11107 5.63157 7.10466 5.63157 7.09825C5.63157 7.09184 5.63157 7.08542 5.63157 7.079H3.63157ZM4.63157 14.5001H2.99999V16.5001H4.63157V14.5001ZM4.63157 16.5001H6.26315V14.5001H4.63157V16.5001ZM13.5 14.5001H9.00001V16.5001H13.5V14.5001ZM9.71513 16.199L13.1362 12.6991L11.706 11.3011L8.28489 14.8011L9.71513 16.199ZM13.155 12.6793C14.224 11.5241 14.7666 10.3439 14.7885 9.22906C14.8107 8.09413 14.2869 7.15477 13.4915 6.5733C11.9075 5.41542 9.41732 5.75414 8.13176 8.00392L9.86826 8.99619C10.5827 7.74591 11.7241 7.75872 12.3112 8.1879C12.6013 8.39996 12.7978 8.73238 12.7888 9.18983C12.7795 9.66735 12.5391 10.4002 11.6871 11.3209L13.155 12.6793ZM20 9.07903C20 9.36475 19.9061 9.5223 19.7754 9.64549C19.6152 9.7965 19.3556 9.92939 19.0077 10.0264C18.6687 10.1209 18.3142 10.1626 18.0337 10.1788C17.8962 10.1867 17.7829 10.1882 17.7063 10.1877C17.6682 10.1875 17.6396 10.1868 17.6222 10.1863C17.6135 10.186 17.6076 10.1858 17.6047 10.1857C17.6033 10.1856 17.6027 10.1856 17.6028 10.1856C17.6028 10.1856 17.6031 10.1856 17.6035 10.1856C17.6038 10.1856 17.6041 10.1857 17.6044 10.1857C17.6045 10.1857 17.6048 10.1857 17.6049 10.1857C17.6052 10.1857 17.6055 10.1857 17.5526 11.1843C17.4997 12.1829 17.5001 12.183 17.5004 12.183C17.5006 12.183 17.5009 12.183 17.5012 12.183C17.5017 12.183 17.5023 12.1831 17.503 12.1831C17.5043 12.1832 17.5058 12.1832 17.5075 12.1833C17.5109 12.1835 17.5152 12.1837 17.5203 12.1839C17.5305 12.1843 17.544 12.1848 17.5605 12.1854C17.5936 12.1864 17.6391 12.1874 17.6952 12.1877C17.8072 12.1883 17.9631 12.1862 18.1488 12.1755C18.5147 12.1544 19.022 12.0987 19.5449 11.9529C20.0589 11.8096 20.6611 11.5591 21.1472 11.1009C21.6629 10.6149 22 9.93728 22 9.07905L20 9.07903ZM17.5526 11.1843C17.6736 12.177 17.6732 12.177 17.6729 12.1771C17.6728 12.1771 17.6724 12.1771 17.6722 12.1772C17.6718 12.1772 17.6715 12.1773 17.6712 12.1773C17.6706 12.1774 17.6701 12.1774 17.6699 12.1774C17.6695 12.1775 17.6698 12.1774 17.6709 12.1773C17.6731 12.1771 17.6783 12.1765 17.6863 12.1758C17.7023 12.1742 17.7294 12.1719 17.7658 12.1695C17.839 12.1647 17.9482 12.16 18.0809 12.1614C18.3527 12.1642 18.6912 12.1925 19.0112 12.2805C19.3348 12.3694 19.5762 12.5018 19.7312 12.6673C19.8656 12.811 20 13.0464 20 13.5H22C22 12.5857 21.7034 11.8478 21.1915 11.3007C20.7001 10.7756 20.0797 10.5 19.5414 10.352C18.9996 10.2031 18.4763 10.1654 18.1017 10.1615C17.9111 10.1595 17.751 10.1662 17.6357 10.1737C17.5779 10.1775 17.5309 10.1815 17.4964 10.1848C17.4791 10.1865 17.4649 10.1879 17.4541 10.1891C17.4487 10.1897 17.4441 10.1902 17.4403 10.1907C17.4385 10.1909 17.4368 10.1911 17.4353 10.1912C17.4346 10.1913 17.434 10.1914 17.4333 10.1915C17.433 10.1915 17.4326 10.1916 17.4325 10.1916C17.4321 10.1916 17.4317 10.1917 17.5526 11.1843ZM20 13.5C20 13.881 19.6971 14.2862 18.9689 14.4163C18.2422 14.5462 17.618 14.2828 17.3681 13.8457L15.6319 14.8386C16.4346 16.2421 18.0604 16.6103 19.3206 16.3852C20.5792 16.1603 22 15.2242 22 13.5H20ZM17.1536 8.75683C17.7915 8.20592 18.5978 8.04605 19.1889 8.17456C19.4776 8.23734 19.6783 8.35949 19.8001 8.49391C19.9119 8.61732 20 8.79584 20 9.07903L22 9.07905C22 8.32273 21.7426 7.65911 21.2821 7.15091C20.8316 6.65373 20.2329 6.35481 19.6138 6.22021C18.3891 5.95396 16.9453 6.29409 15.8464 7.24317L17.1536 8.75683Z" fill="white"/>
</svg>
