<svg width="24" height="24" fill="none" xmlns="http://www.w3.org/2000/svg"><path d="M12 3v8.5m0 0l-2.5-2m2.5 2l2.5-2" stroke="#fff" stroke-width="2" stroke-linecap="round" stroke-linejoin="round"/><path d="M3 14h4.546c.42 0 .63 0 .833.043.07.014.138.032.205.054.197.064.38.168.744.376 1.153.659 1.73.988 2.354 1.055.211.022.425.022.636 0 .625-.067 1.201-.396 2.354-1.055.364-.208.547-.312.744-.376.067-.022.136-.04.205-.054.203-.043.413-.043.832-.043H21v3c0 1.886 0 2.828-.586 3.414C19.828 21 18.886 21 17 21H7c-1.886 0-2.828 0-3.414-.586C3 19.828 3 18.886 3 17v-3z" stroke="#fff" stroke-width="2"/><path d="M2 14a1 1 0 1 0 2 0H2zm18 0a1 1 0 1 0 2 0h-2zm-3.5-8a1 1 0 1 0 0 2V6zm-9 2a1 1 0 0 0 0-2v2zm-4.385 3.304l.943.334-.943-.334zm-.1.423l-.992-.123.992.123zm17.891-.408l.953-.302-.953.302zm.082.384l-.994.11.994-.11zm-1.18-2.886l.913-.406-.913.406zm-.609-1.141l-.75.662.75-.662zm-.897-.583L18 8.046l.3-.953zm-13.27.533l.727.687-.727-.687zm13.862 1.597l.929 2.09 1.827-.813-.928-2.089-1.828.812zM4.217 11.301L5.3 9.14l-1.79-.895-1.08 2.163 1.788.894zM2 12.222V14h2v-1.778H2zm18-.073V14h2v-1.85h-2zM16.5 8h.511V6H16.5v2zM7.141 8H7.5V6h-.359v2zM2.43 10.407c-.101.201-.19.375-.256.563l1.885.668c.015-.045.038-.093.16-.337l-1.79-.894zM4 12.222c0-.272.002-.325.008-.372l-1.985-.245c-.025.197-.023.392-.023.617h2zM2.173 10.97a3 3 0 0 0-.15.634l1.985.246a.999.999 0 0 1 .05-.212l-1.885-.668zm17.65.343c.099.224.117.268.13.309l1.906-.605c-.054-.171-.127-.331-.209-.516l-1.827.812zm2.177.836c0-.202.001-.378-.018-.556l-1.988.22c.005.043.006.091.006.336h2zm-2.047-.527a1 1 0 0 1 .04.192l1.989-.221a3.005 3.005 0 0 0-.123-.576l-1.906.605zm.768-3.21c-.242-.547-.442-1.025-.773-1.398L18.45 8.338c.077.088.147.217.444.885l1.828-.812zM17.011 8c.732 0 .878.011.99.046l.601-1.907c-.475-.15-.993-.139-1.59-.139v2zm2.937-.986a3 3 0 0 0-1.346-.875l-.601 1.907a1 1 0 0 1 .449.292l1.498-1.324zM5.298 9.139c.313-.624.384-.744.461-.826L4.305 6.94c-.328.348-.54.794-.795 1.304l1.789.895zM7.142 6c-.57 0-1.064-.01-1.523.128l.579 1.915C6.305 8.01 6.444 8 7.14 8V6zM5.76 8.313a1 1 0 0 1 .438-.27l-.579-1.915a3 3 0 0 0-1.313.812L5.76 8.313z" fill="#fff"/></svg>