<svg width="24" height="24" fill="none" xmlns="http://www.w3.org/2000/svg"><path d="M17.935 19.5C13.535 23.9.1 10.465 4.5 6.065l1.232-1.232a2 2 0 0 1 3.14.405l.535.914a2 2 0 0 1-.071 2.131l-.363.535a1.5 1.5 0 0 0 .182 1.902l2.062 2.063 2.063 2.062a1.5 1.5 0 0 0 1.902.181l.535-.362a2 2 0 0 1 2.131-.07l.914.534a2 2 0 0 1 .404 3.14L17.935 19.5z" stroke="#fff" stroke-width="2" stroke-linecap="round" stroke-linejoin="round"/><path d="M15 9l5-5m0 0h-4m4 0v4" stroke="#fff" stroke-width="1.5" stroke-linecap="round" stroke-linejoin="round"/></svg>