<svg width="24" height="24" fill="none" xmlns="http://www.w3.org/2000/svg"><path d="M3 10.238c0-1.282 0-1.923.283-2.397a2 2 0 0 1 .691-.691c.474-.283 1.115-.283 2.397-.283h.639c.08 0 .12 0 .158-.002a2 2 0 0 0 1.618-.932l.09-.13a2 2 0 0 1 1.528-.802L10.562 5h2.876l.158.001a2 2 0 0 1 1.527.803c.023.03.046.063.091.13l.091.129a2 2 0 0 0 1.685.804h.639c1.282 0 1.923 0 2.397.283.284.17.521.407.69.691.284.474.284 1.115.284 2.397V15c0 1.886 0 2.828-.586 3.414C19.828 19 18.886 19 17 19H7c-1.886 0-2.828 0-3.414-.586C3 17.828 3 16.886 3 15v-4.762z" stroke="#fff" stroke-width="2" stroke-linecap="round"/><path d="M15.143 12.571a3.143 3.143 0 1 1-6.286 0 3.143 3.143 0 0 1 6.286 0z" stroke="#fff" stroke-width="2" stroke-linecap="round"/><path d="M16.571 10a.571.571 0 1 1 1.143 0 .571.571 0 1 1-1.143 0z" fill="#fff"/></svg>