<svg fill="none" height="24" width="24" xmlns="http://www.w3.org/2000/svg"><clipPath id="a"><path d="M0 0h24v24H0z"/></clipPath><g clip-path="url(#a)"><path d="M13.317 8.048l.372-.928zm-1.241-.577l-.568.823zm-.615-.566l.773-.634zm-3.99 5.17l.823-.567-.823.568zm-.566-.614l-.634.773zm3.96 5.657l.029-1-.03 1zm-2.728-3.579l-.929.371zm2.052 3.44l.367-.93zm6.929-6.115l-1 .03zm-.139-.675l.93-.367zM9.233 3.353l.5-.866zM3.125 7.827l-.98-.202zm2.459-1.511l.732-.732-1.414-1.415-.733.733zm8.473 7.083l-.658.658 1.414 1.414.658-.658zm-4.992-.231l-.088-.222-1.857.743.088.221zm3.88-4.191l.223.088.742-1.857-.221-.088-.743 1.857zm.744-1.857c-.685-.274-.882-.359-1.045-.472l-1.136 1.646c.39.27.837.442 1.438.683zm-3.8-.957c.289.58.497 1.01.799 1.377l1.546-1.27c-.126-.153-.227-.342-.557-1.001l-1.789.894zm2.755.485a2.003 2.003 0 0 1-.41-.377L10.688 7.54c.236.288.513.542.82.754zm-3.667 6.298c-.24-.601-.413-1.047-.683-1.438l-1.646 1.136c.113.163.198.36.472 1.045zm-3.708-1.269c.66.33.848.43 1.002.557l1.269-1.546c-.368-.302-.797-.51-1.377-.8l-.894 1.79zm3.025-.17a3.999 3.999 0 0 0-.754-.82l-1.27 1.547c.145.118.272.256.378.41l1.646-1.136zm5.105 2.55c-.812.812-1.356 1.353-1.8 1.7-.437.34-.621.364-.705.361l-.059 2c.778.022 1.422-.339 1.994-.784.564-.44 1.21-1.089 1.984-1.863zm-6.19-.147c.406 1.017.744 1.867 1.09 2.494.35.635.8 1.22 1.523 1.506l.734-1.861c-.079-.03-.238-.124-.506-.61-.271-.493-.558-1.205-.985-2.271l-1.857.742zm3.685 2.208a.998.998 0 0 1-.338-.069l-.734 1.86a3 3 0 0 0 1.013.209zm4.577-1.305c.774-.774 1.422-1.42 1.863-1.984.445-.572.806-1.216.784-1.994l-2 .059c.003.084-.02.268-.361.705-.347.444-.888.988-1.7 1.8zm-2.303-5.748c1.066.427 1.778.714 2.27.985.487.268.58.427.611.506l1.86-.734c-.285-.724-.87-1.174-1.505-1.523-.627-.346-1.477-.684-2.494-1.09zm4.95 1.77a3 3 0 0 0-.208-1.013l-1.861.734a.998.998 0 0 1 .07.338l1.998-.059zM6.316 5.584c.557-.558.927-.926 1.229-1.177.297-.247.428-.291.483-.303l-.403-1.959c-.531.11-.966.397-1.359.724-.389.323-.834.77-1.364 1.3zm5.361-.315c-.335-.67-.616-1.235-.883-1.665-.27-.434-.591-.845-1.06-1.117L8.73 4.218c.05.029.16.112.364.44.206.334.44.8.793 1.505zM8.028 4.104a1 1 0 0 1 .703.114l1.003-1.73a3 3 0 0 0-2.11-.343zm-3.859.798c-.53.53-.977.975-1.3 1.364-.327.393-.614.828-.724 1.359l1.959.403c.012-.055.056-.186.303-.483.25-.302.62-.672 1.177-1.23L4.169 4.903zm1.994 4.986c-.705-.352-1.171-.587-1.504-.793-.329-.204-.412-.314-.44-.364L2.486 9.734c.272.469.683.79 1.117 1.06.43.267.994.548 1.665.883l.894-1.789zM2.145 7.625a3 3 0 0 0 .342 2.109L4.218 8.73a1 1 0 0 1-.114-.703l-1.959-.403z" fill="currentColor"/><path d="M20 20l-4.95-4.95" stroke="currentColor" stroke-linecap="round" stroke-width="2"/></g></svg>