<svg width="24" height="24" fill="none" xmlns="http://www.w3.org/2000/svg"><g clip-path="url(#clip0_821_19365)" stroke="#fff" stroke-width="2"><path d="M3 6.513c0-.944 0-1.416.156-1.788a2 2 0 0 1 1.07-1.069c.37-.156.843-.156 1.787-.156h11.974c.944 0 1.416 0 1.788.156a2 2 0 0 1 1.069 1.07c.156.37.156.843.156 1.787v2.044a16 16 0 0 1-1.874 7.483l-.088.165c-3.024 5.596-11.052 5.596-14.076 0l-.088-.165-.029-.055A16 16 0 0 1 3 8.557V6.513z"/><path d="M8 10l2.586 2.586c.666.666 1 1 1.414 1 .414 0 .748-.334 1.414-1L16 10" stroke-linecap="round"/></g><defs><clipPath id="clip0_821_19365"><path fill="#fff" d="M0 0H24V24H0z"/></clipPath></defs></svg>