<svg width="24" height="24" viewBox="0 0 24 24" fill="none" xmlns="http://www.w3.org/2000/svg">
<path d="M5.61932 5.63623C3.94626 7.25648 2.90909 9.50913 2.90909 11.9998C2.90909 14.4447 3.90839 16.6601 5.52749 18.2733" stroke="white" stroke-width="2" stroke-linecap="round"/>
<path d="M18.3806 18.3638C20.0537 16.7435 21.0909 14.4909 21.0909 12.0002C21.0909 9.55533 20.0916 7.33987 18.4725 5.72673" stroke="white" stroke-width="2" stroke-linecap="round"/>
<path d="M8.01207 8.02271C6.96641 9.03536 6.31818 10.4433 6.31818 12C6.31818 13.528 6.94274 14.9126 7.95468 15.9209" stroke="white" stroke-width="2" stroke-linecap="round"/>
<path d="M15.9879 15.9773C17.0336 14.9646 17.6818 13.5567 17.6818 12C17.6818 10.472 17.0573 9.08736 16.0453 8.07915" stroke="white" stroke-width="2" stroke-linecap="round"/>
<path d="M13.2727 12.0001C13.2727 12.6649 12.7194 13.2335 12 13.2335C11.2806 13.2335 10.7273 12.6649 10.7273 12.0001C10.7273 11.3352 11.2806 10.7666 12 10.7666C12.7194 10.7666 13.2727 11.3352 13.2727 12.0001Z" fill="white" stroke="white" stroke-width="2"/>
</svg>
