<svg width="24" height="24" fill="none" xmlns="http://www.w3.org/2000/svg"><path d="M9.586 20.414l-.707.707.707-.707zm10.828 0l-.707-.707.707.707zm0-12.828l.707-.707-.707.707zM20 11v6h2v-6h-2zm-3 9h-4v2h4v-2zm-7-3v-6H8v6h2zm3-9H17V6H13v2zm0 12c-.971 0-1.599-.002-2.061-.064-.434-.059-.57-.153-.646-.229l-1.414 1.414c.51.51 1.138.709 1.793.797.627.084 1.413.082 2.328.082v-2zm-5-3c0 .915-.002 1.701.082 2.328.088.655.287 1.284.797 1.793l1.414-1.414c-.076-.076-.17-.212-.229-.646C10.002 18.6 10 17.971 10 17H8zm12 0c0 .971-.002 1.599-.064 2.061-.059.434-.153.57-.229.646l1.414 1.414c.51-.51.709-1.138.797-1.793C22.002 18.7 22 17.915 22 17h-2zm-3 5c.915 0 1.701.002 2.328-.082.655-.088 1.284-.287 1.793-.797l-1.414-1.414c-.076.076-.212.17-.646.229-.462.062-1.09.064-2.061.064v2zm5-11c0-.915.002-1.701-.082-2.328-.088-.655-.287-1.284-.797-1.793l-1.414 1.414c.076.076.17.212.229.646.062.462.064 1.09.064 2.061h2zm-5-3c.97 0 1.599.002 2.061.064.434.059.57.153.646.229l1.414-1.414c-.51-.51-1.138-.709-1.793-.797C18.7 5.998 17.914 6 17 6v2zm-7 3c0-.971.002-1.599.064-2.061.059-.434.153-.57.229-.646L8.879 6.879c-.51.51-.709 1.138-.797 1.793C7.998 9.3 8 10.085 8 11h2zm3-5c-.914 0-1.7-.002-2.328.082-.655.088-1.284.287-1.793.797l1.414 1.414c.076-.076.212-.17.646-.229C11.4 8.002 12.029 8 13 8V6z" fill="#fff"/><path d="M4.586 16.414l-.707.707.707-.707zM15.414 3.586l-.707.707.707-.707zM5 13V7H3v6h2zm3-9H12V2H8v2zm1 12H8v2h1v-2zm-6-3c0 .915-.002 1.701.082 2.328.088.655.287 1.284.797 1.793l1.414-1.414c-.076-.076-.17-.212-.229-.646C5.002 14.6 5 13.971 5 13H3zm5 3c-.971 0-1.599-.002-2.061-.064-.434-.059-.57-.153-.646-.229l-1.414 1.414c.51.51 1.138.709 1.793.797C6.3 18.002 7.085 18 8 18v-2zm4-12c.97 0 1.599.002 2.061.064.434.059.57.153.646.229l1.414-1.414c-.51-.51-1.138-.709-1.793-.797C13.7 1.998 12.914 2 12 2v2zm5 3c0-.915.002-1.701-.082-2.328-.088-.655-.287-1.284-.797-1.793l-1.414 1.414c.076.076.17.212.229.646C14.998 5.4 15 6.029 15 7h2zM5 7c0-.971.002-1.599.064-2.061.059-.434.153-.57.229-.646L3.879 2.879c-.51.51-.709 1.138-.797 1.793C2.998 5.3 3 6.085 3 7h2zm3-5c-.914 0-1.7-.002-2.328.082-.655.088-1.284.287-1.793.797l1.414 1.414c.076-.076.212-.17.646-.229C6.4 4.002 7.029 4 8 4V2z" fill="#fff"/></svg>