<svg width="24" height="24" viewBox="0 0 24 24" fill="none" xmlns="http://www.w3.org/2000/svg">
<path d="M2.58579 19.4142L1.87868 20.1213L2.58579 19.4142ZM21.4142 19.4142L22.1213 20.1213L21.4142 19.4142ZM21.4142 4.58579L22.1213 3.87868L21.4142 4.58579ZM21 8V16H23V8H21ZM18 19H6V21H18V19ZM3 16V8H1V16H3ZM6.00069 5C6.00906 5 6.01744 5 6.02581 5C6.03418 5 6.04255 5 6.05091 5C6.05927 5 6.06763 5 6.07599 5C6.08435 5 6.0927 5 6.10105 5C6.1094 5 6.11775 5 6.12609 5C6.13444 5 6.14278 5 6.15112 5C6.15945 5 6.16779 5 6.17612 5C6.18445 5 6.19278 5 6.2011 5C6.20943 5 6.21775 5 6.22607 5C6.23439 5 6.2427 5 6.25101 5C6.25932 5 6.26763 5 6.27594 5C6.28424 5 6.29255 5 6.30085 5C6.30914 5 6.31744 5 6.32573 5C6.33403 5 6.34232 5 6.3506 5C6.35889 5 6.36717 5 6.37545 5C6.38373 5 6.39201 5 6.40029 5C6.40856 5 6.41683 5 6.4251 5C6.43337 5 6.44163 5 6.44989 5C6.45816 5 6.46641 5 6.47467 5C6.48293 5 6.49118 5 6.49943 5C6.50768 5 6.51592 5 6.52417 5C6.53241 5 6.54065 5 6.54889 5C6.55713 5 6.56536 5 6.57359 5C6.58182 5 6.59005 5 6.59828 5C6.6065 5 6.61472 5 6.62294 5C6.63116 5 6.63938 5 6.64759 5C6.65581 5 6.66402 5 6.67222 5C6.68043 5 6.68864 5 6.69684 5C6.70504 5 6.71324 5 6.72143 5C6.72963 5 6.73782 5 6.74601 5C6.7542 5 6.76239 5 6.77057 5C6.77876 5 6.78694 5 6.79511 5C6.80329 5 6.81147 5 6.81964 5C6.82781 5 6.83598 5 6.84415 5C6.85232 5 6.86048 5 6.86864 5C6.8768 5 6.88496 5 6.89311 5C6.90127 5 6.90942 5 6.91757 5C6.92572 5 6.93387 5 6.94201 5C6.95015 5 6.9583 5 6.96643 5C6.97457 5 6.98271 5 6.99084 5C6.99897 5 7.0071 5 7.01523 5C7.02336 5 7.03148 5 7.0396 5C7.04772 5 7.05584 5 7.06396 5C7.07207 5 7.08019 5 7.0883 5C7.09641 5 7.10452 5 7.11262 5C7.12073 5 7.12883 5 7.13693 5C7.14503 5 7.15312 5 7.16122 5C7.16931 5 7.1774 5 7.18549 5C7.19358 5 7.20167 5 7.20975 5C7.21783 5 7.22591 5 7.23399 5C7.24207 5 7.25015 5 7.25822 5C7.26629 5 7.27436 5 7.28243 5C7.2905 5 7.29856 5 7.30662 5C7.31468 5 7.32274 5 7.3308 5C7.33886 5 7.34691 5 7.35496 5C7.36302 5 7.37106 5 7.37911 5C7.38716 5 7.3952 5 7.40324 5C7.41128 5 7.41932 5 7.42736 5C7.4354 5 7.44343 5 7.45146 5C7.45949 5 7.46752 5 7.47555 5C7.48357 5 7.49159 5 7.49962 5C7.50764 5 7.51566 5 7.52367 5C7.53169 5 7.5397 5 7.54771 5C7.55572 5 7.56373 5 7.57174 5C7.57974 5 7.58775 5 7.59575 5C7.60375 5 7.61175 5 7.61974 5C7.62774 5 7.63573 5 7.64372 5C7.65171 5 7.6597 5 7.66769 5C7.67568 5 7.68366 5 7.69164 5C7.69962 5 7.7076 5 7.71558 5C7.72355 5 7.73153 5 7.7395 5C7.74747 5 7.75544 5 7.76341 5C7.77137 5 7.77934 5 7.7873 5C7.79526 5 7.80322 5 7.81118 5C7.81914 5 7.82709 5 7.83505 5C7.843 5 7.85095 5 7.8589 5C7.86685 5 7.87479 5 7.88274 5C7.89068 5 7.89862 5 7.90656 5C7.9145 5 7.92243 5 7.93037 5C7.9383 5 7.94624 5 7.95417 5C7.9621 5 7.97002 5 7.97795 5C7.98587 5 7.9938 5 8.00172 5C8.00964 5 8.01756 5 8.02547 5C8.03339 5 8.0413 5 8.04921 5C8.05713 5 8.06503 5 8.07294 5C8.08085 5 8.08875 5 8.09666 5C8.10456 5 8.11246 5 8.12036 5C8.12826 5 8.13615 5 8.14405 5C8.15194 5 8.15983 5 8.16772 5C8.17561 5 8.1835 5 8.19139 5C8.19927 5 8.20716 5 8.21504 5C8.22292 5 8.2308 5 8.23867 5C8.24655 5 8.25443 5 8.2623 5C8.27017 5 8.27804 5 8.28591 5C8.29378 5 8.30165 5 8.30951 5C8.31737 5 8.32524 5 8.3331 5C8.34096 5 8.34881 5 8.35667 5C8.36453 5 8.37238 5 8.38023 5C8.38808 5 8.39593 5 8.40378 5C8.41163 5 8.41948 5 8.42732 5C8.43516 5 8.44301 5 8.45085 5C8.45869 5 8.46652 5 8.47436 5C8.48219 5 8.49003 5 8.49786 5C8.50569 5 8.51352 5 8.52135 5C8.52918 5 8.537 5 8.54483 5C8.55265 5 8.56047 5 8.56829 5C8.57611 5 8.58393 5 8.59175 5C8.59956 5 8.60738 5 8.61519 5C8.623 5 8.63081 5 8.63862 5C8.64643 5 8.65424 5 8.66204 5C8.66985 5 8.67765 5 8.68545 5C8.69325 5 8.70105 5 8.70885 5C8.71665 5 8.72444 5 8.73223 5C8.74003 5 8.74782 5 8.75561 5C8.7634 5 8.77119 5 8.77897 5C8.78676 5 8.79454 5 8.80233 5C8.81011 5 8.81789 5 8.82567 5C8.83345 5 8.84123 5 8.849 5C8.85678 5 8.86455 5 8.87232 5C8.88009 5 8.88786 5 8.89563 5C8.9034 5 8.91117 5 8.91893 5C8.9267 5 8.93446 5 8.94222 5C8.94998 5 8.95774 5 8.9655 5C8.97326 5 8.98101 5 8.98877 5C8.99652 5 9.00427 5 9.01203 5C9.01978 5 9.02753 5 9.03527 5C9.04302 5 9.05077 5 9.05851 5C9.06626 5 9.074 5 9.08174 5C9.08948 5 9.09722 5 9.10496 5C9.11269 5 9.12043 5 9.12816 5C9.1359 5 9.14363 5 9.15136 5C9.15909 5 9.16682 5 9.17455 5C9.18228 5 9.19001 5 9.19773 5C9.20546 5 9.21318 5 9.2209 5C9.22862 5 9.23634 5 9.24406 5C9.25178 5 9.2595 5 9.26721 5C9.27493 5 9.28264 5 9.29035 5C9.29806 5 9.30577 5 9.31348 5C9.32119 5 9.3289 5 9.33661 5C9.34431 5 9.35202 5 9.35972 5C9.36742 5 9.37512 5 9.38282 5C9.39052 5 9.39822 5 9.40592 5C9.41362 5 9.42131 5 9.42901 5C9.4367 5 9.44439 5 9.45209 5C9.45978 5 9.46747 5 9.47516 5C9.48284 5 9.49053 5 9.49822 5C9.5059 5 9.51359 5 9.52127 5C9.52895 5 9.53663 5 9.54431 5C9.55199 5 9.55967 5 9.56735 5C9.57502 5 9.5827 5 9.59037 5C9.59805 5 9.60572 5 9.61339 5C9.62107 5 9.62874 5 9.6364 5C9.64407 5 9.65174 5 9.65941 5C9.66707 5 9.67474 5 9.6824 5C9.69007 5 9.69773 5 9.70539 5C9.71305 5 9.72071 5 9.72837 5C9.73603 5 9.74368 5 9.75134 5C9.75899 5 9.76665 5 9.7743 5C9.78196 5 9.78961 5 9.79726 5C9.80491 5 9.81256 5 9.82021 5C9.82786 5 9.8355 5 9.84315 5C9.85079 5 9.85844 5 9.86608 5C9.87372 5 9.88137 5 9.88901 5C9.89665 5 9.90429 5 9.91193 5C9.91957 5 9.9272 5 9.93484 5C9.94247 5 9.95011 5 9.95774 5C9.96538 5 9.97301 5 9.98064 5C9.98827 5 9.9959 5 10.0035 5C10.0112 5 10.0188 5 10.0264 5C10.034 5 10.0417 5 10.0493 5C10.0569 5 10.0645 5 10.0722 5C10.0798 5 10.0874 5 10.095 5C10.1026 5 10.1103 5 10.1179 5C10.1255 5 10.1331 5 10.1407 5C10.1484 5 10.156 5 10.1636 5C10.1712 5 10.1788 5 10.1864 5C10.194 5 10.2016 5 10.2093 5C10.2169 5 10.2245 5 10.2321 5C10.2397 5 10.2473 5 10.2549 5C10.2625 5 10.2701 5 10.2777 5C10.2853 5 10.2929 5 10.3005 5C10.3081 5 10.3157 5 10.3233 5C10.3309 5 10.3385 5 10.3461 5C10.3537 5 10.3613 5 10.3689 5C10.3765 5 10.3841 5 10.3917 5C10.3993 5 10.4069 5 10.4145 5C10.4221 5 10.4297 5 10.4373 5C10.4448 5 10.4524 5 10.46 5C10.4676 5 10.4752 5 10.4828 5C10.4904 5 10.498 5 10.5055 5C10.5131 5 10.5207 5 10.5283 5C10.5359 5 10.5435 5 10.551 5C10.5586 5 10.5662 5 10.5738 5C10.5814 5 10.5889 5 10.5965 5C10.6041 5 10.6117 5 10.6193 5C10.6268 5 10.6344 5 10.642 5C10.6496 5 10.6571 5 10.6647 5C10.6723 5 10.6799 5 10.6874 5C10.695 5 10.7026 5 10.7101 5C10.7177 5 10.7253 5 10.7329 5C10.7404 5 10.748 5 10.7556 5C10.7631 5 10.7707 5 10.7783 5C10.7858 5 10.7934 5 10.801 5C10.8085 5 10.8161 5 10.8237 5C10.8312 5 10.8388 5 10.8463 5C10.8539 5 10.8615 5 10.869 5C10.8766 5 10.8842 5 10.8917 5C10.8993 5 10.9068 5 10.9144 5C10.922 5 10.9295 5 10.9371 5C10.9446 5 10.9522 5 10.9597 5C10.9673 5 10.9749 5 10.9824 5C10.99 5 10.9975 5 11.0051 5C11.0126 5 11.0202 5 11.0277 5C11.0353 5 11.0428 5 11.0504 5C11.0579 5 11.0655 5 11.073 5C11.0806 5 11.0881 5 11.0957 5C11.1032 5 11.1108 5 11.1183 5C11.1259 5 11.1334 5 11.141 5C11.1485 5 11.1561 5 11.1636 5C11.1712 5 11.1787 5 11.1863 5C11.1938 5 11.2014 5 11.2089 5C11.2164 5 11.224 5 11.2315 5C11.2391 5 11.2466 5 11.2542 5C11.2617 5 11.2693 5 11.2768 5C11.2843 5 11.2919 5 11.2994 5C11.307 5 11.3145 5 11.322 5C11.3296 5 11.3371 5 11.3447 5C11.3522 5 11.3597 5 11.3673 5C11.3748 5 11.3824 5 11.3899 5C11.3974 5 11.405 5 11.4125 5C11.42 5 11.4276 5 11.4351 5C11.4427 5 11.4502 5 11.4577 5C11.4653 5 11.4728 5 11.4803 5C11.4879 5 11.4954 5 11.5029 5C11.5105 5 11.518 5 11.5256 5C11.5331 5 11.5406 5 11.5482 5C11.5557 5 11.5632 5 11.5708 5C11.5783 5 11.5858 5 11.5934 5C11.6009 5 11.6084 5 11.616 5C11.6235 5 11.631 5 11.6386 5C11.6461 5 11.6536 5 11.6612 5C11.6687 5 11.6762 5 11.6837 5C11.6913 5 11.6988 5 11.7063 5C11.7139 5 11.7214 5 11.7289 5C11.7365 5 11.744 5 11.7515 5C11.7591 5 11.7666 5 11.7741 5C11.7816 5 11.7892 5 11.7967 5C11.8042 5 11.8118 5 11.8193 5C11.8268 5 11.8344 5 11.8419 5C11.8494 5 11.8569 5 11.8645 5C11.872 5 11.8795 5 11.8871 5C11.8946 5 11.9021 5 11.9097 5C11.9172 5 11.9247 5 11.9322 5C11.9398 5 11.9473 5 11.9548 5C11.9624 5 11.9699 5 11.9774 5C11.9849 5 11.9925 5 12 5C12.0075 5 12.0151 5 12.0226 5C12.0301 5 12.0376 5 12.0452 5C12.0527 5 12.0602 5 12.0678 5C12.0753 5 12.0828 5 12.0903 5C12.0979 5 12.1054 5 12.1129 5C12.1205 5 12.128 5 12.1355 5C12.1431 5 12.1506 5 12.1581 5C12.1656 5 12.1732 5 12.1807 5C12.1882 5 12.1958 5 12.2033 5C12.2108 5 12.2184 5 12.2259 5C12.2334 5 12.2409 5 12.2485 5C12.256 5 12.2635 5 12.2711 5C12.2786 5 12.2861 5 12.2937 5C12.3012 5 12.3087 5 12.3163 5C12.3238 5 12.3313 5 12.3388 5C12.3464 5 12.3539 5 12.3614 5C12.369 5 12.3765 5 12.384 5C12.3916 5 12.3991 5 12.4066 5C12.4142 5 12.4217 5 12.4292 5C12.4368 5 12.4443 5 12.4518 5C12.4594 5 12.4669 5 12.4744 5C12.482 5 12.4895 5 12.4971 5C12.5046 5 12.5121 5 12.5197 5C12.5272 5 12.5347 5 12.5423 5C12.5498 5 12.5573 5 12.5649 5C12.5724 5 12.58 5 12.5875 5C12.595 5 12.6026 5 12.6101 5C12.6176 5 12.6252 5 12.6327 5C12.6403 5 12.6478 5 12.6553 5C12.6629 5 12.6704 5 12.678 5C12.6855 5 12.693 5 12.7006 5C12.7081 5 12.7157 5 12.7232 5C12.7307 5 12.7383 5 12.7458 5C12.7534 5 12.7609 5 12.7685 5C12.776 5 12.7836 5 12.7911 5C12.7986 5 12.8062 5 12.8137 5C12.8213 5 12.8288 5 12.8364 5C12.8439 5 12.8515 5 12.859 5C12.8666 5 12.8741 5 12.8817 5C12.8892 5 12.8968 5 12.9043 5C12.9119 5 12.9194 5 12.927 5C12.9345 5 12.9421 5 12.9496 5C12.9572 5 12.9647 5 12.9723 5C12.9798 5 12.9874 5 12.9949 5C13.0025 5 13.01 5 13.0176 5C13.0251 5 13.0327 5 13.0403 5C13.0478 5 13.0554 5 13.0629 5C13.0705 5 13.078 5 13.0856 5C13.0932 5 13.1007 5 13.1083 5C13.1158 5 13.1234 5 13.131 5C13.1385 5 13.1461 5 13.1537 5C13.1612 5 13.1688 5 13.1763 5C13.1839 5 13.1915 5 13.199 5C13.2066 5 13.2142 5 13.2217 5C13.2293 5 13.2369 5 13.2444 5C13.252 5 13.2596 5 13.2671 5C13.2747 5 13.2823 5 13.2899 5C13.2974 5 13.305 5 13.3126 5C13.3201 5 13.3277 5 13.3353 5C13.3429 5 13.3504 5 13.358 5C13.3656 5 13.3732 5 13.3807 5C13.3883 5 13.3959 5 13.4035 5C13.4111 5 13.4186 5 13.4262 5C13.4338 5 13.4414 5 13.449 5C13.4565 5 13.4641 5 13.4717 5C13.4793 5 13.4869 5 13.4945 5C13.502 5 13.5096 5 13.5172 5C13.5248 5 13.5324 5 13.54 5C13.5476 5 13.5552 5 13.5627 5C13.5703 5 13.5779 5 13.5855 5C13.5931 5 13.6007 5 13.6083 5C13.6159 5 13.6235 5 13.6311 5C13.6387 5 13.6463 5 13.6539 5C13.6615 5 13.6691 5 13.6767 5C13.6843 5 13.6919 5 13.6995 5C13.7071 5 13.7147 5 13.7223 5C13.7299 5 13.7375 5 13.7451 5C13.7527 5 13.7603 5 13.7679 5C13.7755 5 13.7831 5 13.7907 5C13.7984 5 13.806 5 13.8136 5C13.8212 5 13.8288 5 13.8364 5C13.844 5 13.8516 5 13.8593 5C13.8669 5 13.8745 5 13.8821 5C13.8897 5 13.8974 5 13.905 5C13.9126 5 13.9202 5 13.9278 5C13.9355 5 13.9431 5 13.9507 5C13.9583 5 13.966 5 13.9736 5C13.9812 5 13.9888 5 13.9965 5C14.0041 5 14.0117 5 14.0194 5C14.027 5 14.0346 5 14.0423 5C14.0499 5 14.0575 5 14.0652 5C14.0728 5 14.0804 5 14.0881 5C14.0957 5 14.1034 5 14.111 5C14.1186 5 14.1263 5 14.1339 5C14.1416 5 14.1492 5 14.1569 5C14.1645 5 14.1721 5 14.1798 5C14.1874 5 14.1951 5 14.2027 5C14.2104 5 14.218 5 14.2257 5C14.2334 5 14.241 5 14.2487 5C14.2563 5 14.264 5 14.2716 5C14.2793 5 14.287 5 14.2946 5C14.3023 5 14.3099 5 14.3176 5C14.3253 5 14.3329 5 14.3406 5C14.3483 5 14.3559 5 14.3636 5C14.3713 5 14.3789 5 14.3866 5C14.3943 5 14.402 5 14.4096 5C14.4173 5 14.425 5 14.4327 5C14.4403 5 14.448 5 14.4557 5C14.4634 5 14.471 5 14.4787 5C14.4864 5 14.4941 5 14.5018 5C14.5095 5 14.5172 5 14.5248 5C14.5325 5 14.5402 5 14.5479 5C14.5556 5 14.5633 5 14.571 5C14.5787 5 14.5864 5 14.5941 5C14.6018 5 14.6095 5 14.6172 5C14.6249 5 14.6326 5 14.6403 5C14.648 5 14.6557 5 14.6634 5C14.6711 5 14.6788 5 14.6865 5C14.6942 5 14.7019 5 14.7096 5C14.7174 5 14.7251 5 14.7328 5C14.7405 5 14.7482 5 14.7559 5C14.7637 5 14.7714 5 14.7791 5C14.7868 5 14.7945 5 14.8023 5C14.81 5 14.8177 5 14.8254 5C14.8332 5 14.8409 5 14.8486 5C14.8564 5 14.8641 5 14.8718 5C14.8796 5 14.8873 5 14.895 5C14.9028 5 14.9105 5 14.9183 5C14.926 5 14.9337 5 14.9415 5C14.9492 5 14.957 5 14.9647 5C14.9725 5 14.9802 5 14.988 5C14.9957 5 15.0035 5 15.0112 5C15.019 5 15.0267 5 15.0345 5C15.0423 5 15.05 5 15.0578 5C15.0655 5 15.0733 5 15.0811 5C15.0888 5 15.0966 5 15.1044 5C15.1121 5 15.1199 5 15.1277 5C15.1355 5 15.1432 5 15.151 5C15.1588 5 15.1666 5 15.1743 5C15.1821 5 15.1899 5 15.1977 5C15.2055 5 15.2132 5 15.221 5C15.2288 5 15.2366 5 15.2444 5C15.2522 5 15.26 5 15.2678 5C15.2756 5 15.2834 5 15.2912 5C15.2989 5 15.3067 5 15.3145 5C15.3223 5 15.3302 5 15.338 5C15.3458 5 15.3536 5 15.3614 5C15.3692 5 15.377 5 15.3848 5C15.3926 5 15.4004 5 15.4083 5C15.4161 5 15.4239 5 15.4317 5C15.4395 5 15.4473 5 15.4552 5C15.463 5 15.4708 5 15.4786 5C15.4865 5 15.4943 5 15.5021 5C15.51 5 15.5178 5 15.5256 5C15.5335 5 15.5413 5 15.5492 5C15.557 5 15.5648 5 15.5727 5C15.5805 5 15.5884 5 15.5962 5C15.6041 5 15.6119 5 15.6198 5C15.6276 5 15.6355 5 15.6433 5C15.6512 5 15.659 5 15.6669 5C15.6748 5 15.6826 5 15.6905 5C15.6984 5 15.7062 5 15.7141 5C15.722 5 15.7298 5 15.7377 5C15.7456 5 15.7534 5 15.7613 5C15.7692 5 15.7771 5 15.785 5C15.7928 5 15.8007 5 15.8086 5C15.8165 5 15.8244 5 15.8323 5C15.8402 5 15.8481 5 15.856 5C15.8638 5 15.8717 5 15.8796 5C15.8875 5 15.8954 5 15.9033 5C15.9112 5 15.9192 5 15.9271 5C15.935 5 15.9429 5 15.9508 5C15.9587 5 15.9666 5 15.9745 5C15.9824 5 15.9904 5 15.9983 5C16.0062 5 16.0141 5 16.0221 5C16.03 5 16.0379 5 16.0458 5C16.0538 5 16.0617 5 16.0696 5C16.0776 5 16.0855 5 16.0934 5C16.1014 5 16.1093 5 16.1173 5C16.1252 5 16.1332 5 16.1411 5C16.149 5 16.157 5 16.165 5C16.1729 5 16.1809 5 16.1888 5C16.1968 5 16.2047 5 16.2127 5C16.2207 5 16.2286 5 16.2366 5C16.2446 5 16.2525 5 16.2605 5C16.2685 5 16.2764 5 16.2844 5C16.2924 5 16.3004 5 16.3084 5C16.3163 5 16.3243 5 16.3323 5C16.3403 5 16.3483 5 16.3563 5C16.3643 5 16.3723 5 16.3803 5C16.3883 5 16.3963 5 16.4043 5C16.4123 5 16.4203 5 16.4283 5C16.4363 5 16.4443 5 16.4523 5C16.4603 5 16.4683 5 16.4763 5C16.4843 5 16.4924 5 16.5004 5C16.5084 5 16.5164 5 16.5245 5C16.5325 5 16.5405 5 16.5485 5C16.5566 5 16.5646 5 16.5726 5C16.5807 5 16.5887 5 16.5968 5C16.6048 5 16.6128 5 16.6209 5C16.6289 5 16.637 5 16.645 5C16.6531 5 16.6611 5 16.6692 5C16.6773 5 16.6853 5 16.6934 5C16.7014 5 16.7095 5 16.7176 5C16.7256 5 16.7337 5 16.7418 5C16.7499 5 16.7579 5 16.766 5C16.7741 5 16.7822 5 16.7902 5C16.7983 5 16.8064 5 16.8145 5C16.8226 5 16.8307 5 16.8388 5C16.8469 5 16.855 5 16.8631 5C16.8712 5 16.8793 5 16.8874 5C16.8955 5 16.9036 5 16.9117 5C16.9198 5 16.9279 5 16.936 5C16.9442 5 16.9523 5 16.9604 5C16.9685 5 16.9766 5 16.9848 5C16.9929 5 17.001 5 17.0092 5C17.0173 5 17.0254 5 17.0336 5C17.0417 5 17.0498 5 17.058 5C17.0661 5 17.0743 5 17.0824 5C17.0906 5 17.0987 5 17.1069 5C17.115 5 17.1232 5 17.1314 5C17.1395 5 17.1477 5 17.1559 5C17.164 5 17.1722 5 17.1804 5C17.1885 5 17.1967 5 17.2049 5C17.2131 5 17.2212 5 17.2294 5C17.2376 5 17.2458 5 17.254 5C17.2622 5 17.2704 5 17.2786 5C17.2868 5 17.295 5 17.3032 5C17.3114 5 17.3196 5 17.3278 5C17.336 5 17.3442 5 17.3524 5C17.3606 5 17.3688 5 17.3771 5C17.3853 5 17.3935 5 17.4017 5C17.4099 5 17.4182 5 17.4264 5C17.4346 5 17.4429 5 17.4511 5C17.4593 5 17.4676 5 17.4758 5C17.4841 5 17.4923 5 17.5006 5C17.5088 5 17.5171 5 17.5253 5C17.5336 5 17.5418 5 17.5501 5C17.5584 5 17.5666 5 17.5749 5C17.5832 5 17.5914 5 17.5997 5C17.608 5 17.6163 5 17.6245 5C17.6328 5 17.6411 5 17.6494 5C17.6577 5 17.666 5 17.6743 5C17.6826 5 17.6909 5 17.6992 5C17.7075 5 17.7158 5 17.7241 5C17.7324 5 17.7407 5 17.749 5C17.7573 5 17.7656 5 17.7739 5C17.7823 5 17.7906 5 17.7989 5C17.8072 5 17.8156 5 17.8239 5C17.8322 5 17.8405 5 17.8489 5C17.8572 5 17.8656 5 17.8739 5C17.8823 5 17.8906 5 17.8989 5C17.9073 5 17.9157 5 17.924 5C17.9324 5 17.9407 5 17.9491 5C17.9575 5 17.9658 5 17.9742 5C17.9826 5 17.9909 5 17.9993 5V3C17.9909 3 17.9826 3 17.9742 3C17.9658 3 17.9575 3 17.9491 3C17.9407 3 17.9324 3 17.924 3C17.9157 3 17.9073 3 17.8989 3C17.8906 3 17.8823 3 17.8739 3C17.8656 3 17.8572 3 17.8489 3C17.8405 3 17.8322 3 17.8239 3C17.8156 3 17.8072 3 17.7989 3C17.7906 3 17.7823 3 17.7739 3C17.7656 3 17.7573 3 17.749 3C17.7407 3 17.7324 3 17.7241 3C17.7158 3 17.7075 3 17.6992 3C17.6909 3 17.6826 3 17.6743 3C17.666 3 17.6577 3 17.6494 3C17.6411 3 17.6328 3 17.6245 3C17.6163 3 17.608 3 17.5997 3C17.5914 3 17.5832 3 17.5749 3C17.5666 3 17.5584 3 17.5501 3C17.5418 3 17.5336 3 17.5253 3C17.5171 3 17.5088 3 17.5006 3C17.4923 3 17.4841 3 17.4758 3C17.4676 3 17.4593 3 17.4511 3C17.4429 3 17.4346 3 17.4264 3C17.4182 3 17.4099 3 17.4017 3C17.3935 3 17.3853 3 17.3771 3C17.3688 3 17.3606 3 17.3524 3C17.3442 3 17.336 3 17.3278 3C17.3196 3 17.3114 3 17.3032 3C17.295 3 17.2868 3 17.2786 3C17.2704 3 17.2622 3 17.254 3C17.2458 3 17.2376 3 17.2294 3C17.2212 3 17.2131 3 17.2049 3C17.1967 3 17.1885 3 17.1804 3C17.1722 3 17.164 3 17.1559 3C17.1477 3 17.1395 3 17.1314 3C17.1232 3 17.115 3 17.1069 3C17.0987 3 17.0906 3 17.0824 3C17.0743 3 17.0661 3 17.058 3C17.0498 3 17.0417 3 17.0336 3C17.0254 3 17.0173 3 17.0092 3C17.001 3 16.9929 3 16.9848 3C16.9766 3 16.9685 3 16.9604 3C16.9523 3 16.9442 3 16.936 3C16.9279 3 16.9198 3 16.9117 3C16.9036 3 16.8955 3 16.8874 3C16.8793 3 16.8712 3 16.8631 3C16.855 3 16.8469 3 16.8388 3C16.8307 3 16.8226 3 16.8145 3C16.8064 3 16.7983 3 16.7902 3C16.7822 3 16.7741 3 16.766 3C16.7579 3 16.7499 3 16.7418 3C16.7337 3 16.7256 3 16.7176 3C16.7095 3 16.7014 3 16.6934 3C16.6853 3 16.6773 3 16.6692 3C16.6611 3 16.6531 3 16.645 3C16.637 3 16.6289 3 16.6209 3C16.6128 3 16.6048 3 16.5968 3C16.5887 3 16.5807 3 16.5726 3C16.5646 3 16.5566 3 16.5485 3C16.5405 3 16.5325 3 16.5245 3C16.5164 3 16.5084 3 16.5004 3C16.4924 3 16.4843 3 16.4763 3C16.4683 3 16.4603 3 16.4523 3C16.4443 3 16.4363 3 16.4283 3C16.4203 3 16.4123 3 16.4043 3C16.3963 3 16.3883 3 16.3803 3C16.3723 3 16.3643 3 16.3563 3C16.3483 3 16.3403 3 16.3323 3C16.3243 3 16.3163 3 16.3084 3C16.3004 3 16.2924 3 16.2844 3C16.2764 3 16.2685 3 16.2605 3C16.2525 3 16.2446 3 16.2366 3C16.2286 3 16.2207 3 16.2127 3C16.2047 3 16.1968 3 16.1888 3C16.1809 3 16.1729 3 16.165 3C16.157 3 16.149 3 16.1411 3C16.1332 3 16.1252 3 16.1173 3C16.1093 3 16.1014 3 16.0934 3C16.0855 3 16.0776 3 16.0696 3C16.0617 3 16.0538 3 16.0458 3C16.0379 3 16.03 3 16.0221 3C16.0141 3 16.0062 3 15.9983 3C15.9904 3 15.9824 3 15.9745 3C15.9666 3 15.9587 3 15.9508 3C15.9429 3 15.935 3 15.9271 3C15.9192 3 15.9112 3 15.9033 3C15.8954 3 15.8875 3 15.8796 3C15.8717 3 15.8638 3 15.856 3C15.8481 3 15.8402 3 15.8323 3C15.8244 3 15.8165 3 15.8086 3C15.8007 3 15.7928 3 15.785 3C15.7771 3 15.7692 3 15.7613 3C15.7534 3 15.7456 3 15.7377 3C15.7298 3 15.722 3 15.7141 3C15.7062 3 15.6984 3 15.6905 3C15.6826 3 15.6748 3 15.6669 3C15.659 3 15.6512 3 15.6433 3C15.6355 3 15.6276 3 15.6198 3C15.6119 3 15.6041 3 15.5962 3C15.5884 3 15.5805 3 15.5727 3C15.5648 3 15.557 3 15.5492 3C15.5413 3 15.5335 3 15.5256 3C15.5178 3 15.51 3 15.5021 3C15.4943 3 15.4865 3 15.4786 3C15.4708 3 15.463 3 15.4552 3C15.4473 3 15.4395 3 15.4317 3C15.4239 3 15.4161 3 15.4083 3C15.4004 3 15.3926 3 15.3848 3C15.377 3 15.3692 3 15.3614 3C15.3536 3 15.3458 3 15.338 3C15.3302 3 15.3223 3 15.3145 3C15.3067 3 15.2989 3 15.2912 3C15.2834 3 15.2756 3 15.2678 3C15.26 3 15.2522 3 15.2444 3C15.2366 3 15.2288 3 15.221 3C15.2132 3 15.2055 3 15.1977 3C15.1899 3 15.1821 3 15.1743 3C15.1666 3 15.1588 3 15.151 3C15.1432 3 15.1355 3 15.1277 3C15.1199 3 15.1121 3 15.1044 3C15.0966 3 15.0888 3 15.0811 3C15.0733 3 15.0655 3 15.0578 3C15.05 3 15.0423 3 15.0345 3C15.0267 3 15.019 3 15.0112 3C15.0035 3 14.9957 3 14.988 3C14.9802 3 14.9725 3 14.9647 3C14.957 3 14.9492 3 14.9415 3C14.9337 3 14.926 3 14.9183 3C14.9105 3 14.9028 3 14.895 3C14.8873 3 14.8796 3 14.8718 3C14.8641 3 14.8564 3 14.8486 3C14.8409 3 14.8332 3 14.8254 3C14.8177 3 14.81 3 14.8023 3C14.7945 3 14.7868 3 14.7791 3C14.7714 3 14.7637 3 14.7559 3C14.7482 3 14.7405 3 14.7328 3C14.7251 3 14.7174 3 14.7096 3C14.7019 3 14.6942 3 14.6865 3C14.6788 3 14.6711 3 14.6634 3C14.6557 3 14.648 3 14.6403 3C14.6326 3 14.6249 3 14.6172 3C14.6095 3 14.6018 3 14.5941 3C14.5864 3 14.5787 3 14.571 3C14.5633 3 14.5556 3 14.5479 3C14.5402 3 14.5325 3 14.5248 3C14.5172 3 14.5095 3 14.5018 3C14.4941 3 14.4864 3 14.4787 3C14.471 3 14.4634 3 14.4557 3C14.448 3 14.4403 3 14.4327 3C14.425 3 14.4173 3 14.4096 3C14.402 3 14.3943 3 14.3866 3C14.3789 3 14.3713 3 14.3636 3C14.3559 3 14.3483 3 14.3406 3C14.3329 3 14.3253 3 14.3176 3C14.3099 3 14.3023 3 14.2946 3C14.287 3 14.2793 3 14.2716 3C14.264 3 14.2563 3 14.2487 3C14.241 3 14.2334 3 14.2257 3C14.218 3 14.2104 3 14.2027 3C14.1951 3 14.1874 3 14.1798 3C14.1721 3 14.1645 3 14.1569 3C14.1492 3 14.1416 3 14.1339 3C14.1263 3 14.1186 3 14.111 3C14.1034 3 14.0957 3 14.0881 3C14.0804 3 14.0728 3 14.0652 3C14.0575 3 14.0499 3 14.0423 3C14.0346 3 14.027 3 14.0194 3C14.0117 3 14.0041 3 13.9965 3C13.9888 3 13.9812 3 13.9736 3C13.966 3 13.9583 3 13.9507 3C13.9431 3 13.9355 3 13.9278 3C13.9202 3 13.9126 3 13.905 3C13.8974 3 13.8897 3 13.8821 3C13.8745 3 13.8669 3 13.8593 3C13.8516 3 13.844 3 13.8364 3C13.8288 3 13.8212 3 13.8136 3C13.806 3 13.7984 3 13.7907 3C13.7831 3 13.7755 3 13.7679 3C13.7603 3 13.7527 3 13.7451 3C13.7375 3 13.7299 3 13.7223 3C13.7147 3 13.7071 3 13.6995 3C13.6919 3 13.6843 3 13.6767 3C13.6691 3 13.6615 3 13.6539 3C13.6463 3 13.6387 3 13.6311 3C13.6235 3 13.6159 3 13.6083 3C13.6007 3 13.5931 3 13.5855 3C13.5779 3 13.5703 3 13.5627 3C13.5552 3 13.5476 3 13.54 3C13.5324 3 13.5248 3 13.5172 3C13.5096 3 13.502 3 13.4945 3C13.4869 3 13.4793 3 13.4717 3C13.4641 3 13.4565 3 13.449 3C13.4414 3 13.4338 3 13.4262 3C13.4186 3 13.4111 3 13.4035 3C13.3959 3 13.3883 3 13.3807 3C13.3732 3 13.3656 3 13.358 3C13.3504 3 13.3429 3 13.3353 3C13.3277 3 13.3201 3 13.3126 3C13.305 3 13.2974 3 13.2899 3C13.2823 3 13.2747 3 13.2671 3C13.2596 3 13.252 3 13.2444 3C13.2369 3 13.2293 3 13.2217 3C13.2142 3 13.2066 3 13.199 3C13.1915 3 13.1839 3 13.1763 3C13.1688 3 13.1612 3 13.1537 3C13.1461 3 13.1385 3 13.131 3C13.1234 3 13.1158 3 13.1083 3C13.1007 3 13.0932 3 13.0856 3C13.078 3 13.0705 3 13.0629 3C13.0554 3 13.0478 3 13.0403 3C13.0327 3 13.0251 3 13.0176 3C13.01 3 13.0025 3 12.9949 3C12.9874 3 12.9798 3 12.9723 3C12.9647 3 12.9572 3 12.9496 3C12.9421 3 12.9345 3 12.927 3C12.9194 3 12.9119 3 12.9043 3C12.8968 3 12.8892 3 12.8817 3C12.8741 3 12.8666 3 12.859 3C12.8515 3 12.8439 3 12.8364 3C12.8288 3 12.8213 3 12.8137 3C12.8062 3 12.7986 3 12.7911 3C12.7836 3 12.776 3 12.7685 3C12.7609 3 12.7534 3 12.7458 3C12.7383 3 12.7307 3 12.7232 3C12.7157 3 12.7081 3 12.7006 3C12.693 3 12.6855 3 12.678 3C12.6704 3 12.6629 3 12.6553 3C12.6478 3 12.6403 3 12.6327 3C12.6252 3 12.6176 3 12.6101 3C12.6026 3 12.595 3 12.5875 3C12.58 3 12.5724 3 12.5649 3C12.5573 3 12.5498 3 12.5423 3C12.5347 3 12.5272 3 12.5197 3C12.5121 3 12.5046 3 12.4971 3C12.4895 3 12.482 3 12.4744 3C12.4669 3 12.4594 3 12.4518 3C12.4443 3 12.4368 3 12.4292 3C12.4217 3 12.4142 3 12.4066 3C12.3991 3 12.3916 3 12.384 3C12.3765 3 12.369 3 12.3614 3C12.3539 3 12.3464 3 12.3388 3C12.3313 3 12.3238 3 12.3163 3C12.3087 3 12.3012 3 12.2937 3C12.2861 3 12.2786 3 12.2711 3C12.2635 3 12.256 3 12.2485 3C12.2409 3 12.2334 3 12.2259 3C12.2184 3 12.2108 3 12.2033 3C12.1958 3 12.1882 3 12.1807 3C12.1732 3 12.1656 3 12.1581 3C12.1506 3 12.1431 3 12.1355 3C12.128 3 12.1205 3 12.1129 3C12.1054 3 12.0979 3 12.0903 3C12.0828 3 12.0753 3 12.0678 3C12.0602 3 12.0527 3 12.0452 3C12.0376 3 12.0301 3 12.0226 3C12.0151 3 12.0075 3 12 3C11.9925 3 11.9849 3 11.9774 3C11.9699 3 11.9624 3 11.9548 3C11.9473 3 11.9398 3 11.9322 3C11.9247 3 11.9172 3 11.9097 3C11.9021 3 11.8946 3 11.8871 3C11.8795 3 11.872 3 11.8645 3C11.8569 3 11.8494 3 11.8419 3C11.8344 3 11.8268 3 11.8193 3C11.8118 3 11.8042 3 11.7967 3C11.7892 3 11.7816 3 11.7741 3C11.7666 3 11.7591 3 11.7515 3C11.744 3 11.7365 3 11.7289 3C11.7214 3 11.7139 3 11.7063 3C11.6988 3 11.6913 3 11.6837 3C11.6762 3 11.6687 3 11.6612 3C11.6536 3 11.6461 3 11.6386 3C11.631 3 11.6235 3 11.616 3C11.6084 3 11.6009 3 11.5934 3C11.5858 3 11.5783 3 11.5708 3C11.5632 3 11.5557 3 11.5482 3C11.5406 3 11.5331 3 11.5256 3C11.518 3 11.5105 3 11.5029 3C11.4954 3 11.4879 3 11.4803 3C11.4728 3 11.4653 3 11.4577 3C11.4502 3 11.4427 3 11.4351 3C11.4276 3 11.42 3 11.4125 3C11.405 3 11.3974 3 11.3899 3C11.3824 3 11.3748 3 11.3673 3C11.3597 3 11.3522 3 11.3447 3C11.3371 3 11.3296 3 11.322 3C11.3145 3 11.307 3 11.2994 3C11.2919 3 11.2843 3 11.2768 3C11.2693 3 11.2617 3 11.2542 3C11.2466 3 11.2391 3 11.2315 3C11.224 3 11.2164 3 11.2089 3C11.2014 3 11.1938 3 11.1863 3C11.1787 3 11.1712 3 11.1636 3C11.1561 3 11.1485 3 11.141 3C11.1334 3 11.1259 3 11.1183 3C11.1108 3 11.1032 3 11.0957 3C11.0881 3 11.0806 3 11.073 3C11.0655 3 11.0579 3 11.0504 3C11.0428 3 11.0353 3 11.0277 3C11.0202 3 11.0126 3 11.0051 3C10.9975 3 10.99 3 10.9824 3C10.9749 3 10.9673 3 10.9597 3C10.9522 3 10.9446 3 10.9371 3C10.9295 3 10.922 3 10.9144 3C10.9068 3 10.8993 3 10.8917 3C10.8842 3 10.8766 3 10.869 3C10.8615 3 10.8539 3 10.8463 3C10.8388 3 10.8312 3 10.8237 3C10.8161 3 10.8085 3 10.801 3C10.7934 3 10.7858 3 10.7783 3C10.7707 3 10.7631 3 10.7556 3C10.748 3 10.7404 3 10.7329 3C10.7253 3 10.7177 3 10.7101 3C10.7026 3 10.695 3 10.6874 3C10.6799 3 10.6723 3 10.6647 3C10.6571 3 10.6496 3 10.642 3C10.6344 3 10.6268 3 10.6193 3C10.6117 3 10.6041 3 10.5965 3C10.5889 3 10.5814 3 10.5738 3C10.5662 3 10.5586 3 10.551 3C10.5435 3 10.5359 3 10.5283 3C10.5207 3 10.5131 3 10.5055 3C10.498 3 10.4904 3 10.4828 3C10.4752 3 10.4676 3 10.46 3C10.4524 3 10.4448 3 10.4373 3C10.4297 3 10.4221 3 10.4145 3C10.4069 3 10.3993 3 10.3917 3C10.3841 3 10.3765 3 10.3689 3C10.3613 3 10.3537 3 10.3461 3C10.3385 3 10.3309 3 10.3233 3C10.3157 3 10.3081 3 10.3005 3C10.2929 3 10.2853 3 10.2777 3C10.2701 3 10.2625 3 10.2549 3C10.2473 3 10.2397 3 10.2321 3C10.2245 3 10.2169 3 10.2093 3C10.2016 3 10.194 3 10.1864 3C10.1788 3 10.1712 3 10.1636 3C10.156 3 10.1484 3 10.1407 3C10.1331 3 10.1255 3 10.1179 3C10.1103 3 10.1026 3 10.095 3C10.0874 3 10.0798 3 10.0722 3C10.0645 3 10.0569 3 10.0493 3C10.0417 3 10.034 3 10.0264 3C10.0188 3 10.0112 3 10.0035 3C9.9959 3 9.98827 3 9.98064 3C9.97301 3 9.96538 3 9.95774 3C9.95011 3 9.94247 3 9.93484 3C9.9272 3 9.91957 3 9.91193 3C9.90429 3 9.89665 3 9.88901 3C9.88137 3 9.87372 3 9.86608 3C9.85844 3 9.85079 3 9.84315 3C9.8355 3 9.82786 3 9.82021 3C9.81256 3 9.80491 3 9.79726 3C9.78961 3 9.78196 3 9.7743 3C9.76665 3 9.75899 3 9.75134 3C9.74368 3 9.73603 3 9.72837 3C9.72071 3 9.71305 3 9.70539 3C9.69773 3 9.69007 3 9.6824 3C9.67474 3 9.66707 3 9.65941 3C9.65174 3 9.64407 3 9.6364 3C9.62874 3 9.62107 3 9.61339 3C9.60572 3 9.59805 3 9.59037 3C9.5827 3 9.57502 3 9.56735 3C9.55967 3 9.55199 3 9.54431 3C9.53663 3 9.52895 3 9.52127 3C9.51359 3 9.5059 3 9.49822 3C9.49053 3 9.48284 3 9.47516 3C9.46747 3 9.45978 3 9.45209 3C9.44439 3 9.4367 3 9.42901 3C9.42131 3 9.41362 3 9.40592 3C9.39822 3 9.39052 3 9.38282 3C9.37512 3 9.36742 3 9.35972 3C9.35202 3 9.34431 3 9.33661 3C9.3289 3 9.32119 3 9.31348 3C9.30577 3 9.29806 3 9.29035 3C9.28264 3 9.27493 3 9.26721 3C9.2595 3 9.25178 3 9.24406 3C9.23634 3 9.22862 3 9.2209 3C9.21318 3 9.20546 3 9.19773 3C9.19001 3 9.18228 3 9.17455 3C9.16682 3 9.15909 3 9.15136 3C9.14363 3 9.1359 3 9.12816 3C9.12043 3 9.11269 3 9.10496 3C9.09722 3 9.08948 3 9.08174 3C9.074 3 9.06626 3 9.05851 3C9.05077 3 9.04302 3 9.03527 3C9.02753 3 9.01978 3 9.01203 3C9.00427 3 8.99652 3 8.98877 3C8.98101 3 8.97326 3 8.9655 3C8.95774 3 8.94998 3 8.94222 3C8.93446 3 8.9267 3 8.91893 3C8.91117 3 8.9034 3 8.89563 3C8.88786 3 8.88009 3 8.87232 3C8.86455 3 8.85678 3 8.849 3C8.84123 3 8.83345 3 8.82567 3C8.81789 3 8.81011 3 8.80233 3C8.79454 3 8.78676 3 8.77897 3C8.77119 3 8.7634 3 8.75561 3C8.74782 3 8.74003 3 8.73223 3C8.72444 3 8.71665 3 8.70885 3C8.70105 3 8.69325 3 8.68545 3C8.67765 3 8.66985 3 8.66204 3C8.65424 3 8.64643 3 8.63862 3C8.63081 3 8.623 3 8.61519 3C8.60738 3 8.59956 3 8.59175 3C8.58393 3 8.57611 3 8.56829 3C8.56047 3 8.55265 3 8.54483 3C8.537 3 8.52918 3 8.52135 3C8.51352 3 8.50569 3 8.49786 3C8.49003 3 8.48219 3 8.47436 3C8.46652 3 8.45869 3 8.45085 3C8.44301 3 8.43516 3 8.42732 3C8.41948 3 8.41163 3 8.40378 3C8.39593 3 8.38808 3 8.38023 3C8.37238 3 8.36453 3 8.35667 3C8.34881 3 8.34096 3 8.3331 3C8.32524 3 8.31737 3 8.30951 3C8.30165 3 8.29378 3 8.28591 3C8.27804 3 8.27017 3 8.2623 3C8.25443 3 8.24655 3 8.23867 3C8.2308 3 8.22292 3 8.21504 3C8.20716 3 8.19927 3 8.19139 3C8.1835 3 8.17561 3 8.16772 3C8.15983 3 8.15194 3 8.14405 3C8.13615 3 8.12826 3 8.12036 3C8.11246 3 8.10456 3 8.09666 3C8.08875 3 8.08085 3 8.07294 3C8.06503 3 8.05713 3 8.04921 3C8.0413 3 8.03339 3 8.02547 3C8.01756 3 8.00964 3 8.00172 3C7.9938 3 7.98587 3 7.97795 3C7.97002 3 7.9621 3 7.95417 3C7.94624 3 7.9383 3 7.93037 3C7.92243 3 7.9145 3 7.90656 3C7.89862 3 7.89068 3 7.88274 3C7.87479 3 7.86685 3 7.8589 3C7.85095 3 7.843 3 7.83505 3C7.82709 3 7.81914 3 7.81118 3C7.80322 3 7.79526 3 7.7873 3C7.77934 3 7.77137 3 7.76341 3C7.75544 3 7.74747 3 7.7395 3C7.73153 3 7.72355 3 7.71558 3C7.7076 3 7.69962 3 7.69164 3C7.68366 3 7.67568 3 7.66769 3C7.6597 3 7.65171 3 7.64372 3C7.63573 3 7.62774 3 7.61974 3C7.61175 3 7.60375 3 7.59575 3C7.58775 3 7.57974 3 7.57174 3C7.56373 3 7.55572 3 7.54771 3C7.5397 3 7.53169 3 7.52367 3C7.51566 3 7.50764 3 7.49962 3C7.49159 3 7.48357 3 7.47555 3C7.46752 3 7.45949 3 7.45146 3C7.44343 3 7.4354 3 7.42736 3C7.41932 3 7.41128 3 7.40324 3C7.3952 3 7.38716 3 7.37911 3C7.37106 3 7.36302 3 7.35496 3C7.34691 3 7.33886 3 7.3308 3C7.32274 3 7.31468 3 7.30662 3C7.29856 3 7.2905 3 7.28243 3C7.27436 3 7.26629 3 7.25822 3C7.25015 3 7.24207 3 7.23399 3C7.22591 3 7.21783 3 7.20975 3C7.20167 3 7.19358 3 7.18549 3C7.1774 3 7.16931 3 7.16122 3C7.15312 3 7.14503 3 7.13693 3C7.12883 3 7.12073 3 7.11262 3C7.10452 3 7.09641 3 7.0883 3C7.08019 3 7.07207 3 7.06396 3C7.05584 3 7.04772 3 7.0396 3C7.03148 3 7.02336 3 7.01523 3C7.0071 3 6.99897 3 6.99084 3C6.98271 3 6.97457 3 6.96643 3C6.9583 3 6.95015 3 6.94201 3C6.93387 3 6.92572 3 6.91757 3C6.90942 3 6.90127 3 6.89311 3C6.88496 3 6.8768 3 6.86864 3C6.86048 3 6.85232 3 6.84415 3C6.83598 3 6.82781 3 6.81964 3C6.81147 3 6.80329 3 6.79511 3C6.78694 3 6.77876 3 6.77057 3C6.76239 3 6.7542 3 6.74601 3C6.73782 3 6.72963 3 6.72143 3C6.71324 3 6.70504 3 6.69684 3C6.68864 3 6.68043 3 6.67222 3C6.66402 3 6.65581 3 6.64759 3C6.63938 3 6.63116 3 6.62294 3C6.61472 3 6.6065 3 6.59828 3C6.59005 3 6.58182 3 6.57359 3C6.56536 3 6.55713 3 6.54889 3C6.54065 3 6.53241 3 6.52417 3C6.51592 3 6.50768 3 6.49943 3C6.49118 3 6.48293 3 6.47467 3C6.46641 3 6.45816 3 6.44989 3C6.44163 3 6.43337 3 6.4251 3C6.41683 3 6.40856 3 6.40029 3C6.39201 3 6.38373 3 6.37545 3C6.36717 3 6.35889 3 6.3506 3C6.34232 3 6.33403 3 6.32573 3C6.31744 3 6.30914 3 6.30085 3C6.29255 3 6.28424 3 6.27594 3C6.26763 3 6.25932 3 6.25101 3C6.2427 3 6.23439 3 6.22607 3C6.21775 3 6.20943 3 6.2011 3C6.19278 3 6.18445 3 6.17612 3C6.16779 3 6.15945 3 6.15112 3C6.14278 3 6.13444 3 6.12609 3C6.11775 3 6.1094 3 6.10105 3C6.0927 3 6.08435 3 6.07599 3C6.06763 3 6.05927 3 6.05091 3C6.04255 3 6.03418 3 6.02581 3C6.01744 3 6.00906 3 6.00069 3V5ZM6 19C5.02892 19 4.40121 18.9979 3.9387 18.9357C3.50496 18.8774 3.36902 18.7832 3.29289 18.7071L1.87868 20.1213C2.38834 20.631 3.01669 20.8297 3.67221 20.9179C4.29896 21.0021 5.08546 21 6 21V19ZM1 16C1 16.9145 0.997876 17.701 1.08214 18.3278C1.17027 18.9833 1.36902 19.6117 1.87868 20.1213L3.29289 18.7071C3.21677 18.631 3.12262 18.495 3.06431 18.0613C3.00212 17.5988 3 16.9711 3 16H1ZM21 16C21 16.9711 20.9979 17.5988 20.9357 18.0613C20.8774 18.495 20.7832 18.631 20.7071 18.7071L22.1213 20.1213C22.631 19.6117 22.8297 18.9833 22.9179 18.3278C23.0021 17.701 23 16.9145 23 16H21ZM18 21C18.9145 21 19.701 21.0021 20.3278 20.9179C20.9833 20.8297 21.6117 20.631 22.1213 20.1213L20.7071 18.7071C20.631 18.7832 20.495 18.8774 20.0613 18.9357C19.5988 18.9979 18.9711 19 18 19V21ZM23 8C23 7.08546 23.0021 6.29896 22.9179 5.67221C22.8297 5.01669 22.631 4.38834 22.1213 3.87868L20.7071 5.29289C20.7832 5.36902 20.8774 5.50496 20.9357 5.9387C20.9979 6.40121 21 7.02892 21 8H23ZM17.9993 5C18.9706 5 19.5985 5.00212 20.0612 5.06431C20.4951 5.12263 20.631 5.21681 20.7071 5.29289L22.1213 3.87868C21.6116 3.36898 20.9832 3.17026 20.3276 3.08214C19.7007 2.99788 18.9141 3 17.9993 3V5ZM3 8C3 7.02892 3.00212 6.40121 3.06431 5.9387C3.12262 5.50496 3.21677 5.36902 3.29289 5.29289L1.87868 3.87868C1.36902 4.38834 1.17027 5.01669 1.08214 5.67221C0.997876 6.29896 1 7.08546 1 8H3ZM6.00069 3C5.08591 3 4.29926 2.99788 3.67241 3.08214C3.01683 3.17026 2.38838 3.36898 1.87868 3.87868L3.29289 5.29289C3.36898 5.21681 3.50494 5.12263 3.93885 5.06431C4.40149 5.00212 5.02938 5 6.00069 5V3Z" fill="white"/>
<path d="M12 16V8C12 6.11438 12 5.17157 11.4142 4.58579C10.8284 4 9.88553 4 7.99973 4H6.00027C4.11447 4 3.17157 4 2.58579 4.58579C2 5.17157 2 6.11438 2 8V16C2 17.8856 2 18.8284 2.58579 19.4142C3.17157 20 4.11438 20 6 20H8C9.88562 20 10.8284 20 11.4142 19.4142C12 18.8284 12 17.8856 12 16Z" fill="white"/>
</svg>
