<svg width="24" height="24" viewBox="0 0 24 24" fill="none" xmlns="http://www.w3.org/2000/svg">
<path d="M3.58579 18.4142L2.87868 19.1213L3.58579 18.4142ZM20.4142 18.4142L21.1213 19.1213L20.4142 18.4142ZM20.4142 5.58579L19.7071 6.29289L20.4142 5.58579ZM20 9V15H22V9H20ZM17 18H7V20H17V18ZM4 15V9H2V15H4ZM7.0013 6C7.00822 6 7.01513 6 7.02205 6C7.02896 6 7.03587 6 7.04278 6C7.04969 6 7.0566 6 7.0635 6C7.0704 6 7.07731 6 7.08421 6C7.0911 6 7.098 6 7.1049 6C7.11179 6 7.11868 6 7.12557 6C7.13246 6 7.13935 6 7.14624 6C7.15312 6 7.16 6 7.16688 6C7.17376 6 7.18064 6 7.18752 6C7.19439 6 7.20127 6 7.20814 6C7.21501 6 7.22188 6 7.22875 6C7.23561 6 7.24248 6 7.24934 6C7.2562 6 7.26306 6 7.26992 6C7.27678 6 7.28363 6 7.29048 6C7.29734 6 7.30419 6 7.31104 6C7.31788 6 7.32473 6 7.33158 6C7.33842 6 7.34526 6 7.3521 6C7.35894 6 7.36578 6 7.37261 6C7.37945 6 7.38628 6 7.39311 6C7.39994 6 7.40677 6 7.41359 6C7.42042 6 7.42724 6 7.43407 6C7.44089 6 7.44771 6 7.45452 6C7.46134 6 7.46816 6 7.47497 6C7.48178 6 7.48859 6 7.4954 6C7.50221 6 7.50902 6 7.51582 6C7.52263 6 7.52943 6 7.53623 6C7.54303 6 7.54983 6 7.55662 6C7.56342 6 7.57021 6 7.577 6C7.58379 6 7.59058 6 7.59737 6C7.60416 6 7.61094 6 7.61772 6C7.62451 6 7.63129 6 7.63806 6C7.64484 6 7.65162 6 7.65839 6C7.66517 6 7.67194 6 7.67871 6C7.68548 6 7.69225 6 7.69902 6C7.70578 6 7.71254 6 7.71931 6C7.72607 6 7.73283 6 7.73959 6C7.74634 6 7.7531 6 7.75985 6C7.76661 6 7.77336 6 7.78011 6C7.78686 6 7.7936 6 7.80035 6C7.8071 6 7.81384 6 7.82058 6C7.82732 6 7.83406 6 7.8408 6C7.84754 6 7.85427 6 7.861 6C7.86774 6 7.87447 6 7.8812 6C7.88793 6 7.89465 6 7.90138 6C7.9081 6 7.91483 6 7.92155 6C7.92827 6 7.93499 6 7.94171 6C7.94842 6 7.95514 6 7.96185 6C7.96857 6 7.97528 6 7.98199 6C7.9887 6 7.9954 6 8.00211 6C8.00882 6 8.01552 6 8.02222 6C8.02892 6 8.03562 6 8.04232 6C8.04902 6 8.05572 6 8.06241 6C8.0691 6 8.0758 6 8.08249 6C8.08918 6 8.09586 6 8.10255 6C8.10924 6 8.11592 6 8.1226 6C8.12929 6 8.13597 6 8.14265 6C8.14933 6 8.156 6 8.16268 6C8.16935 6 8.17603 6 8.1827 6C8.18937 6 8.19604 6 8.20271 6C8.20937 6 8.21604 6 8.2227 6C8.22937 6 8.23603 6 8.24269 6C8.24935 6 8.25601 6 8.26267 6C8.26932 6 8.27598 6 8.28263 6C8.28929 6 8.29594 6 8.30259 6C8.30924 6 8.31588 6 8.32253 6C8.32918 6 8.33582 6 8.34246 6C8.3491 6 8.35574 6 8.36238 6C8.36902 6 8.37566 6 8.38229 6C8.38893 6 8.39556 6 8.4022 6C8.40883 6 8.41546 6 8.42209 6C8.42871 6 8.43534 6 8.44196 6C8.44859 6 8.45521 6 8.46183 6C8.46846 6 8.47507 6 8.48169 6C8.48831 6 8.49493 6 8.50154 6C8.50816 6 8.51477 6 8.52138 6C8.52799 6 8.5346 6 8.54121 6C8.54782 6 8.55442 6 8.56103 6C8.56763 6 8.57423 6 8.58083 6C8.58743 6 8.59403 6 8.60063 6C8.60723 6 8.61382 6 8.62042 6C8.62701 6 8.63361 6 8.6402 6C8.64679 6 8.65338 6 8.65997 6C8.66655 6 8.67314 6 8.67972 6C8.68631 6 8.69289 6 8.69947 6C8.70605 6 8.71263 6 8.71921 6C8.72579 6 8.73237 6 8.73894 6C8.74552 6 8.75209 6 8.75866 6C8.76523 6 8.7718 6 8.77837 6C8.78494 6 8.79151 6 8.79807 6C8.80464 6 8.8112 6 8.81776 6C8.82433 6 8.83089 6 8.83745 6C8.844 6 8.85056 6 8.85712 6C8.86367 6 8.87023 6 8.87678 6C8.88334 6 8.88989 6 8.89644 6C8.90299 6 8.90953 6 8.91608 6C8.92263 6 8.92917 6 8.93572 6C8.94226 6 8.9488 6 8.95535 6C8.96189 6 8.96843 6 8.97496 6C8.9815 6 8.98804 6 8.99457 6C9.00111 6 9.00764 6 9.01417 6C9.02071 6 9.02724 6 9.03377 6C9.04029 6 9.04682 6 9.05335 6C9.05987 6 9.0664 6 9.07292 6C9.07945 6 9.08597 6 9.09249 6C9.09901 6 9.10553 6 9.11205 6C9.11856 6 9.12508 6 9.1316 6C9.13811 6 9.14462 6 9.15114 6C9.15765 6 9.16416 6 9.17067 6C9.17718 6 9.18368 6 9.19019 6C9.1967 6 9.2032 6 9.20971 6C9.21621 6 9.22271 6 9.22921 6C9.23571 6 9.24221 6 9.24871 6C9.25521 6 9.26171 6 9.2682 6C9.2747 6 9.28119 6 9.28769 6C9.29418 6 9.30067 6 9.30716 6C9.31365 6 9.32014 6 9.32663 6C9.33312 6 9.3396 6 9.34609 6C9.35257 6 9.35906 6 9.36554 6C9.37202 6 9.3785 6 9.38498 6C9.39146 6 9.39794 6 9.40442 6C9.4109 6 9.41737 6 9.42385 6C9.43032 6 9.43679 6 9.44327 6C9.44974 6 9.45621 6 9.46268 6C9.46915 6 9.47562 6 9.48209 6C9.48855 6 9.49502 6 9.50148 6C9.50795 6 9.51441 6 9.52087 6C9.52734 6 9.5338 6 9.54026 6C9.54672 6 9.55318 6 9.55963 6C9.56609 6 9.57255 6 9.579 6C9.58546 6 9.59191 6 9.59836 6C9.60482 6 9.61127 6 9.61772 6C9.62417 6 9.63062 6 9.63707 6C9.64352 6 9.64996 6 9.65641 6C9.66285 6 9.6693 6 9.67574 6C9.68219 6 9.68863 6 9.69507 6C9.70151 6 9.70795 6 9.71439 6C9.72083 6 9.72727 6 9.7337 6C9.74014 6 9.74657 6 9.75301 6C9.75944 6 9.76588 6 9.77231 6C9.77874 6 9.78517 6 9.7916 6C9.79803 6 9.80446 6 9.81089 6C9.81732 6 9.82374 6 9.83017 6C9.8366 6 9.84302 6 9.84944 6C9.85587 6 9.86229 6 9.86871 6C9.87513 6 9.88155 6 9.88797 6C9.89439 6 9.90081 6 9.90723 6C9.91365 6 9.92006 6 9.92648 6C9.93289 6 9.93931 6 9.94572 6C9.95213 6 9.95855 6 9.96496 6C9.97137 6 9.97778 6 9.98419 6C9.9906 6 9.99701 6 10.0034 6C10.0098 6 10.0162 6 10.0226 6C10.029 6 10.0354 6 10.0418 6C10.0482 6 10.0547 6 10.0611 6C10.0675 6 10.0739 6 10.0803 6C10.0867 6 10.0931 6 10.0994 6C10.1058 6 10.1122 6 10.1186 6C10.125 6 10.1314 6 10.1378 6C10.1442 6 10.1506 6 10.157 6C10.1634 6 10.1698 6 10.1762 6C10.1826 6 10.189 6 10.1953 6C10.2017 6 10.2081 6 10.2145 6C10.2209 6 10.2273 6 10.2337 6C10.2401 6 10.2464 6 10.2528 6C10.2592 6 10.2656 6 10.272 6C10.2783 6 10.2847 6 10.2911 6C10.2975 6 10.3039 6 10.3102 6C10.3166 6 10.323 6 10.3294 6C10.3358 6 10.3421 6 10.3485 6C10.3549 6 10.3613 6 10.3676 6C10.374 6 10.3804 6 10.3867 6C10.3931 6 10.3995 6 10.4059 6C10.4122 6 10.4186 6 10.425 6C10.4313 6 10.4377 6 10.4441 6C10.4504 6 10.4568 6 10.4632 6C10.4695 6 10.4759 6 10.4823 6C10.4886 6 10.495 6 10.5013 6C10.5077 6 10.5141 6 10.5204 6C10.5268 6 10.5332 6 10.5395 6C10.5459 6 10.5522 6 10.5586 6C10.5649 6 10.5713 6 10.5777 6C10.584 6 10.5904 6 10.5967 6C10.6031 6 10.6094 6 10.6158 6C10.6221 6 10.6285 6 10.6349 6C10.6412 6 10.6476 6 10.6539 6C10.6603 6 10.6666 6 10.673 6C10.6793 6 10.6857 6 10.692 6C10.6984 6 10.7047 6 10.7111 6C10.7174 6 10.7237 6 10.7301 6C10.7364 6 10.7428 6 10.7491 6C10.7555 6 10.7618 6 10.7682 6C10.7745 6 10.7808 6 10.7872 6C10.7935 6 10.7999 6 10.8062 6C10.8126 6 10.8189 6 10.8252 6C10.8316 6 10.8379 6 10.8443 6C10.8506 6 10.8569 6 10.8633 6C10.8696 6 10.8759 6 10.8823 6C10.8886 6 10.895 6 10.9013 6C10.9076 6 10.914 6 10.9203 6C10.9266 6 10.933 6 10.9393 6C10.9456 6 10.952 6 10.9583 6C10.9646 6 10.971 6 10.9773 6C10.9836 6 10.99 6 10.9963 6C11.0026 6 11.0089 6 11.0153 6C11.0216 6 11.0279 6 11.0343 6C11.0406 6 11.0469 6 11.0532 6C11.0596 6 11.0659 6 11.0722 6C11.0785 6 11.0849 6 11.0912 6C11.0975 6 11.1038 6 11.1102 6C11.1165 6 11.1228 6 11.1291 6C11.1355 6 11.1418 6 11.1481 6C11.1544 6 11.1608 6 11.1671 6C11.1734 6 11.1797 6 11.186 6C11.1924 6 11.1987 6 11.205 6C11.2113 6 11.2177 6 11.224 6C11.2303 6 11.2366 6 11.2429 6C11.2492 6 11.2556 6 11.2619 6C11.2682 6 11.2745 6 11.2808 6C11.2872 6 11.2935 6 11.2998 6C11.3061 6 11.3124 6 11.3187 6C11.3251 6 11.3314 6 11.3377 6C11.344 6 11.3503 6 11.3566 6C11.3629 6 11.3693 6 11.3756 6C11.3819 6 11.3882 6 11.3945 6C11.4008 6 11.4071 6 11.4135 6C11.4198 6 11.4261 6 11.4324 6C11.4387 6 11.445 6 11.4513 6C11.4576 6 11.464 6 11.4703 6C11.4766 6 11.4829 6 11.4892 6C11.4955 6 11.5018 6 11.5081 6C11.5144 6 11.5207 6 11.5271 6C11.5334 6 11.5397 6 11.546 6C11.5523 6 11.5586 6 11.5649 6C11.5712 6 11.5775 6 11.5838 6C11.5901 6 11.5965 6 11.6028 6C11.6091 6 11.6154 6 11.6217 6C11.628 6 11.6343 6 11.6406 6C11.6469 6 11.6532 6 11.6595 6C11.6658 6 11.6721 6 11.6785 6C11.6848 6 11.6911 6 11.6974 6C11.7037 6 11.71 6 11.7163 6C11.7226 6 11.7289 6 11.7352 6C11.7415 6 11.7478 6 11.7541 6C11.7604 6 11.7667 6 11.773 6C11.7793 6 11.7857 6 11.792 6C11.7983 6 11.8046 6 11.8109 6C11.8172 6 11.8235 6 11.8298 6C11.8361 6 11.8424 6 11.8487 6C11.855 6 11.8613 6 11.8676 6C11.8739 6 11.8802 6 11.8865 6C11.8928 6 11.8991 6 11.9054 6C11.9117 6 11.918 6 11.9244 6C11.9307 6 11.937 6 11.9433 6C11.9496 6 11.9559 6 11.9622 6C11.9685 6 11.9748 6 11.9811 6C11.9874 6 11.9937 6 12 6C12.0063 6 12.0126 6 12.0189 6C12.0252 6 12.0315 6 12.0378 6C12.0441 6 12.0504 6 12.0567 6C12.063 6 12.0693 6 12.0756 6C12.082 6 12.0883 6 12.0946 6C12.1009 6 12.1072 6 12.1135 6C12.1198 6 12.1261 6 12.1324 6C12.1387 6 12.145 6 12.1513 6C12.1576 6 12.1639 6 12.1702 6C12.1765 6 12.1828 6 12.1891 6C12.1954 6 12.2017 6 12.208 6C12.2143 6 12.2207 6 12.227 6C12.2333 6 12.2396 6 12.2459 6C12.2522 6 12.2585 6 12.2648 6C12.2711 6 12.2774 6 12.2837 6C12.29 6 12.2963 6 12.3026 6C12.3089 6 12.3152 6 12.3215 6C12.3279 6 12.3342 6 12.3405 6C12.3468 6 12.3531 6 12.3594 6C12.3657 6 12.372 6 12.3783 6C12.3846 6 12.3909 6 12.3972 6C12.4035 6 12.4098 6 12.4162 6C12.4225 6 12.4288 6 12.4351 6C12.4414 6 12.4477 6 12.454 6C12.4603 6 12.4666 6 12.4729 6C12.4792 6 12.4856 6 12.4919 6C12.4982 6 12.5045 6 12.5108 6C12.5171 6 12.5234 6 12.5297 6C12.536 6 12.5424 6 12.5487 6C12.555 6 12.5613 6 12.5676 6C12.5739 6 12.5802 6 12.5865 6C12.5929 6 12.5992 6 12.6055 6C12.6118 6 12.6181 6 12.6244 6C12.6307 6 12.6371 6 12.6434 6C12.6497 6 12.656 6 12.6623 6C12.6686 6 12.6749 6 12.6813 6C12.6876 6 12.6939 6 12.7002 6C12.7065 6 12.7128 6 12.7192 6C12.7255 6 12.7318 6 12.7381 6C12.7444 6 12.7508 6 12.7571 6C12.7634 6 12.7697 6 12.776 6C12.7823 6 12.7887 6 12.795 6C12.8013 6 12.8076 6 12.8139 6C12.8203 6 12.8266 6 12.8329 6C12.8392 6 12.8456 6 12.8519 6C12.8582 6 12.8645 6 12.8709 6C12.8772 6 12.8835 6 12.8898 6C12.8961 6 12.9025 6 12.9088 6C12.9151 6 12.9215 6 12.9278 6C12.9341 6 12.9404 6 12.9468 6C12.9531 6 12.9594 6 12.9657 6C12.9721 6 12.9784 6 12.9847 6C12.9911 6 12.9974 6 13.0037 6C13.01 6 13.0164 6 13.0227 6C13.029 6 13.0354 6 13.0417 6C13.048 6 13.0544 6 13.0607 6C13.067 6 13.0734 6 13.0797 6C13.086 6 13.0924 6 13.0987 6C13.105 6 13.1114 6 13.1177 6C13.1241 6 13.1304 6 13.1367 6C13.1431 6 13.1494 6 13.1557 6C13.1621 6 13.1684 6 13.1748 6C13.1811 6 13.1874 6 13.1938 6C13.2001 6 13.2065 6 13.2128 6C13.2192 6 13.2255 6 13.2318 6C13.2382 6 13.2445 6 13.2509 6C13.2572 6 13.2636 6 13.2699 6C13.2763 6 13.2826 6 13.2889 6C13.2953 6 13.3016 6 13.308 6C13.3143 6 13.3207 6 13.327 6C13.3334 6 13.3397 6 13.3461 6C13.3524 6 13.3588 6 13.3651 6C13.3715 6 13.3779 6 13.3842 6C13.3906 6 13.3969 6 13.4033 6C13.4096 6 13.416 6 13.4223 6C13.4287 6 13.435 6 13.4414 6C13.4478 6 13.4541 6 13.4605 6C13.4668 6 13.4732 6 13.4796 6C13.4859 6 13.4923 6 13.4986 6C13.505 6 13.5114 6 13.5177 6C13.5241 6 13.5305 6 13.5368 6C13.5432 6 13.5496 6 13.5559 6C13.5623 6 13.5687 6 13.575 6C13.5814 6 13.5878 6 13.5941 6C13.6005 6 13.6069 6 13.6133 6C13.6196 6 13.626 6 13.6324 6C13.6387 6 13.6451 6 13.6515 6C13.6579 6 13.6642 6 13.6706 6C13.677 6 13.6834 6 13.6898 6C13.6961 6 13.7025 6 13.7089 6C13.7153 6 13.7217 6 13.728 6C13.7344 6 13.7408 6 13.7472 6C13.7536 6 13.7599 6 13.7663 6C13.7727 6 13.7791 6 13.7855 6C13.7919 6 13.7983 6 13.8047 6C13.811 6 13.8174 6 13.8238 6C13.8302 6 13.8366 6 13.843 6C13.8494 6 13.8558 6 13.8622 6C13.8686 6 13.875 6 13.8814 6C13.8878 6 13.8942 6 13.9005 6C13.9069 6 13.9133 6 13.9197 6C13.9261 6 13.9325 6 13.9389 6C13.9453 6 13.9518 6 13.9582 6C13.9646 6 13.971 6 13.9774 6C13.9838 6 13.9902 6 13.9966 6C14.003 6 14.0094 6 14.0158 6C14.0222 6 14.0286 6 14.035 6C14.0415 6 14.0479 6 14.0543 6C14.0607 6 14.0671 6 14.0735 6C14.0799 6 14.0864 6 14.0928 6C14.0992 6 14.1056 6 14.112 6C14.1184 6 14.1249 6 14.1313 6C14.1377 6 14.1441 6 14.1506 6C14.157 6 14.1634 6 14.1698 6C14.1763 6 14.1827 6 14.1891 6C14.1955 6 14.202 6 14.2084 6C14.2148 6 14.2213 6 14.2277 6C14.2341 6 14.2406 6 14.247 6C14.2534 6 14.2599 6 14.2663 6C14.2727 6 14.2792 6 14.2856 6C14.292 6 14.2985 6 14.3049 6C14.3114 6 14.3178 6 14.3243 6C14.3307 6 14.3371 6 14.3436 6C14.35 6 14.3565 6 14.3629 6C14.3694 6 14.3758 6 14.3823 6C14.3887 6 14.3952 6 14.4016 6C14.4081 6 14.4145 6 14.421 6C14.4275 6 14.4339 6 14.4404 6C14.4468 6 14.4533 6 14.4597 6C14.4662 6 14.4727 6 14.4791 6C14.4856 6 14.4921 6 14.4985 6C14.505 6 14.5114 6 14.5179 6C14.5244 6 14.5308 6 14.5373 6C14.5438 6 14.5503 6 14.5567 6C14.5632 6 14.5697 6 14.5762 6C14.5826 6 14.5891 6 14.5956 6C14.6021 6 14.6085 6 14.615 6C14.6215 6 14.628 6 14.6345 6C14.6409 6 14.6474 6 14.6539 6C14.6604 6 14.6669 6 14.6734 6C14.6799 6 14.6863 6 14.6928 6C14.6993 6 14.7058 6 14.7123 6C14.7188 6 14.7253 6 14.7318 6C14.7383 6 14.7448 6 14.7513 6C14.7578 6 14.7643 6 14.7708 6C14.7773 6 14.7838 6 14.7903 6C14.7968 6 14.8033 6 14.8098 6C14.8163 6 14.8228 6 14.8293 6C14.8358 6 14.8424 6 14.8489 6C14.8554 6 14.8619 6 14.8684 6C14.8749 6 14.8814 6 14.888 6C14.8945 6 14.901 6 14.9075 6C14.914 6 14.9206 6 14.9271 6C14.9336 6 14.9401 6 14.9466 6C14.9532 6 14.9597 6 14.9662 6C14.9728 6 14.9793 6 14.9858 6C14.9924 6 14.9989 6 15.0054 6C15.012 6 15.0185 6 15.025 6C15.0316 6 15.0381 6 15.0447 6C15.0512 6 15.0577 6 15.0643 6C15.0708 6 15.0774 6 15.0839 6C15.0905 6 15.097 6 15.1036 6C15.1101 6 15.1167 6 15.1232 6C15.1298 6 15.1363 6 15.1429 6C15.1494 6 15.156 6 15.1626 6C15.1691 6 15.1757 6 15.1822 6C15.1888 6 15.1954 6 15.2019 6C15.2085 6 15.2151 6 15.2216 6C15.2282 6 15.2348 6 15.2413 6C15.2479 6 15.2545 6 15.2611 6C15.2676 6 15.2742 6 15.2808 6C15.2874 6 15.2939 6 15.3005 6C15.3071 6 15.3137 6 15.3203 6C15.3269 6 15.3334 6 15.34 6C15.3466 6 15.3532 6 15.3598 6C15.3664 6 15.373 6 15.3796 6C15.3862 6 15.3928 6 15.3994 6C15.406 6 15.4126 6 15.4192 6C15.4258 6 15.4324 6 15.439 6C15.4456 6 15.4522 6 15.4588 6C15.4654 6 15.472 6 15.4786 6C15.4852 6 15.4918 6 15.4985 6C15.5051 6 15.5117 6 15.5183 6C15.5249 6 15.5315 6 15.5382 6C15.5448 6 15.5514 6 15.558 6C15.5647 6 15.5713 6 15.5779 6C15.5845 6 15.5912 6 15.5978 6C15.6044 6 15.6111 6 15.6177 6C15.6243 6 15.631 6 15.6376 6C15.6443 6 15.6509 6 15.6575 6C15.6642 6 15.6708 6 15.6775 6C15.6841 6 15.6908 6 15.6974 6C15.7041 6 15.7107 6 15.7174 6C15.724 6 15.7307 6 15.7373 6C15.744 6 15.7506 6 15.7573 6C15.764 6 15.7706 6 15.7773 6C15.784 6 15.7906 6 15.7973 6C15.804 6 15.8106 6 15.8173 6C15.824 6 15.8306 6 15.8373 6C15.844 6 15.8507 6 15.8574 6C15.864 6 15.8707 6 15.8774 6C15.8841 6 15.8908 6 15.8974 6C15.9041 6 15.9108 6 15.9175 6C15.9242 6 15.9309 6 15.9376 6C15.9443 6 15.951 6 15.9577 6C15.9644 6 15.9711 6 15.9778 6C15.9845 6 15.9912 6 15.9979 6C16.0046 6 16.0113 6 16.018 6C16.0247 6 16.0314 6 16.0381 6C16.0449 6 16.0516 6 16.0583 6C16.065 6 16.0717 6 16.0784 6C16.0852 6 16.0919 6 16.0986 6C16.1053 6 16.1121 6 16.1188 6C16.1255 6 16.1323 6 16.139 6C16.1457 6 16.1525 6 16.1592 6C16.1659 6 16.1727 6 16.1794 6C16.1862 6 16.1929 6 16.1996 6C16.2064 6 16.2131 6 16.2199 6C16.2266 6 16.2334 6 16.2401 6C16.2469 6 16.2537 6 16.2604 6C16.2672 6 16.2739 6 16.2807 6C16.2875 6 16.2942 6 16.301 6C16.3077 6 16.3145 6 16.3213 6C16.3281 6 16.3348 6 16.3416 6C16.3484 6 16.3552 6 16.3619 6C16.3687 6 16.3755 6 16.3823 6C16.3891 6 16.3958 6 16.4026 6C16.4094 6 16.4162 6 16.423 6C16.4298 6 16.4366 6 16.4434 6C16.4502 6 16.457 6 16.4638 6C16.4706 6 16.4774 6 16.4842 6C16.491 6 16.4978 6 16.5046 6C16.5114 6 16.5182 6 16.525 6C16.5318 6 16.5387 6 16.5455 6C16.5523 6 16.5591 6 16.5659 6C16.5728 6 16.5796 6 16.5864 6C16.5932 6 16.6001 6 16.6069 6C16.6137 6 16.6206 6 16.6274 6C16.6342 6 16.6411 6 16.6479 6C16.6547 6 16.6616 6 16.6684 6C16.6753 6 16.6821 6 16.689 6C16.6958 6 16.7027 6 16.7095 6C16.7164 6 16.7232 6 16.7301 6C16.7369 6 16.7438 6 16.7507 6C16.7575 6 16.7644 6 16.7713 6C16.7781 6 16.785 6 16.7919 6C16.7987 6 16.8056 6 16.8125 6C16.8194 6 16.8262 6 16.8331 6C16.84 6 16.8469 6 16.8538 6C16.8606 6 16.8675 6 16.8744 6C16.8813 6 16.8882 6 16.8951 6C16.902 6 16.9089 6 16.9158 6C16.9227 6 16.9296 6 16.9365 6C16.9434 6 16.9503 6 16.9572 6C16.9641 6 16.971 6 16.978 6C16.9849 6 16.9918 6 16.9987 6V4C16.9918 4 16.9849 4 16.978 4C16.971 4 16.9641 4 16.9572 4C16.9503 4 16.9434 4 16.9365 4C16.9296 4 16.9227 4 16.9158 4C16.9089 4 16.902 4 16.8951 4C16.8882 4 16.8813 4 16.8744 4C16.8675 4 16.8606 4 16.8538 4C16.8469 4 16.84 4 16.8331 4C16.8262 4 16.8194 4 16.8125 4C16.8056 4 16.7987 4 16.7919 4C16.785 4 16.7781 4 16.7713 4C16.7644 4 16.7575 4 16.7507 4C16.7438 4 16.7369 4 16.7301 4C16.7232 4 16.7164 4 16.7095 4C16.7027 4 16.6958 4 16.689 4C16.6821 4 16.6753 4 16.6684 4C16.6616 4 16.6547 4 16.6479 4C16.6411 4 16.6342 4 16.6274 4C16.6206 4 16.6137 4 16.6069 4C16.6001 4 16.5932 4 16.5864 4C16.5796 4 16.5728 4 16.5659 4C16.5591 4 16.5523 4 16.5455 4C16.5387 4 16.5318 4 16.525 4C16.5182 4 16.5114 4 16.5046 4C16.4978 4 16.491 4 16.4842 4C16.4774 4 16.4706 4 16.4638 4C16.457 4 16.4502 4 16.4434 4C16.4366 4 16.4298 4 16.423 4C16.4162 4 16.4094 4 16.4026 4C16.3958 4 16.3891 4 16.3823 4C16.3755 4 16.3687 4 16.3619 4C16.3552 4 16.3484 4 16.3416 4C16.3348 4 16.3281 4 16.3213 4C16.3145 4 16.3077 4 16.301 4C16.2942 4 16.2875 4 16.2807 4C16.2739 4 16.2672 4 16.2604 4C16.2537 4 16.2469 4 16.2401 4C16.2334 4 16.2266 4 16.2199 4C16.2131 4 16.2064 4 16.1996 4C16.1929 4 16.1862 4 16.1794 4C16.1727 4 16.1659 4 16.1592 4C16.1525 4 16.1457 4 16.139 4C16.1323 4 16.1255 4 16.1188 4C16.1121 4 16.1053 4 16.0986 4C16.0919 4 16.0852 4 16.0784 4C16.0717 4 16.065 4 16.0583 4C16.0516 4 16.0449 4 16.0381 4C16.0314 4 16.0247 4 16.018 4C16.0113 4 16.0046 4 15.9979 4C15.9912 4 15.9845 4 15.9778 4C15.9711 4 15.9644 4 15.9577 4C15.951 4 15.9443 4 15.9376 4C15.9309 4 15.9242 4 15.9175 4C15.9108 4 15.9041 4 15.8974 4C15.8908 4 15.8841 4 15.8774 4C15.8707 4 15.864 4 15.8574 4C15.8507 4 15.844 4 15.8373 4C15.8306 4 15.824 4 15.8173 4C15.8106 4 15.804 4 15.7973 4C15.7906 4 15.784 4 15.7773 4C15.7706 4 15.764 4 15.7573 4C15.7506 4 15.744 4 15.7373 4C15.7307 4 15.724 4 15.7174 4C15.7107 4 15.7041 4 15.6974 4C15.6908 4 15.6841 4 15.6775 4C15.6708 4 15.6642 4 15.6575 4C15.6509 4 15.6443 4 15.6376 4C15.631 4 15.6243 4 15.6177 4C15.6111 4 15.6044 4 15.5978 4C15.5912 4 15.5845 4 15.5779 4C15.5713 4 15.5647 4 15.558 4C15.5514 4 15.5448 4 15.5382 4C15.5315 4 15.5249 4 15.5183 4C15.5117 4 15.5051 4 15.4985 4C15.4918 4 15.4852 4 15.4786 4C15.472 4 15.4654 4 15.4588 4C15.4522 4 15.4456 4 15.439 4C15.4324 4 15.4258 4 15.4192 4C15.4126 4 15.406 4 15.3994 4C15.3928 4 15.3862 4 15.3796 4C15.373 4 15.3664 4 15.3598 4C15.3532 4 15.3466 4 15.34 4C15.3334 4 15.3269 4 15.3203 4C15.3137 4 15.3071 4 15.3005 4C15.2939 4 15.2874 4 15.2808 4C15.2742 4 15.2676 4 15.2611 4C15.2545 4 15.2479 4 15.2413 4C15.2348 4 15.2282 4 15.2216 4C15.2151 4 15.2085 4 15.2019 4C15.1954 4 15.1888 4 15.1822 4C15.1757 4 15.1691 4 15.1626 4C15.156 4 15.1494 4 15.1429 4C15.1363 4 15.1298 4 15.1232 4C15.1167 4 15.1101 4 15.1036 4C15.097 4 15.0905 4 15.0839 4C15.0774 4 15.0708 4 15.0643 4C15.0577 4 15.0512 4 15.0447 4C15.0381 4 15.0316 4 15.025 4C15.0185 4 15.012 4 15.0054 4C14.9989 4 14.9924 4 14.9858 4C14.9793 4 14.9728 4 14.9662 4C14.9597 4 14.9532 4 14.9466 4C14.9401 4 14.9336 4 14.9271 4C14.9206 4 14.914 4 14.9075 4C14.901 4 14.8945 4 14.888 4C14.8814 4 14.8749 4 14.8684 4C14.8619 4 14.8554 4 14.8489 4C14.8424 4 14.8358 4 14.8293 4C14.8228 4 14.8163 4 14.8098 4C14.8033 4 14.7968 4 14.7903 4C14.7838 4 14.7773 4 14.7708 4C14.7643 4 14.7578 4 14.7513 4C14.7448 4 14.7383 4 14.7318 4C14.7253 4 14.7188 4 14.7123 4C14.7058 4 14.6993 4 14.6928 4C14.6863 4 14.6799 4 14.6734 4C14.6669 4 14.6604 4 14.6539 4C14.6474 4 14.6409 4 14.6345 4C14.628 4 14.6215 4 14.615 4C14.6085 4 14.6021 4 14.5956 4C14.5891 4 14.5826 4 14.5762 4C14.5697 4 14.5632 4 14.5567 4C14.5503 4 14.5438 4 14.5373 4C14.5308 4 14.5244 4 14.5179 4C14.5114 4 14.505 4 14.4985 4C14.4921 4 14.4856 4 14.4791 4C14.4727 4 14.4662 4 14.4597 4C14.4533 4 14.4468 4 14.4404 4C14.4339 4 14.4275 4 14.421 4C14.4145 4 14.4081 4 14.4016 4C14.3952 4 14.3887 4 14.3823 4C14.3758 4 14.3694 4 14.3629 4C14.3565 4 14.35 4 14.3436 4C14.3371 4 14.3307 4 14.3243 4C14.3178 4 14.3114 4 14.3049 4C14.2985 4 14.292 4 14.2856 4C14.2792 4 14.2727 4 14.2663 4C14.2599 4 14.2534 4 14.247 4C14.2406 4 14.2341 4 14.2277 4C14.2213 4 14.2148 4 14.2084 4C14.202 4 14.1955 4 14.1891 4C14.1827 4 14.1763 4 14.1698 4C14.1634 4 14.157 4 14.1506 4C14.1441 4 14.1377 4 14.1313 4C14.1249 4 14.1184 4 14.112 4C14.1056 4 14.0992 4 14.0928 4C14.0864 4 14.0799 4 14.0735 4C14.0671 4 14.0607 4 14.0543 4C14.0479 4 14.0415 4 14.035 4C14.0286 4 14.0222 4 14.0158 4C14.0094 4 14.003 4 13.9966 4C13.9902 4 13.9838 4 13.9774 4C13.971 4 13.9646 4 13.9582 4C13.9518 4 13.9453 4 13.9389 4C13.9325 4 13.9261 4 13.9197 4C13.9133 4 13.9069 4 13.9005 4C13.8942 4 13.8878 4 13.8814 4C13.875 4 13.8686 4 13.8622 4C13.8558 4 13.8494 4 13.843 4C13.8366 4 13.8302 4 13.8238 4C13.8174 4 13.811 4 13.8047 4C13.7983 4 13.7919 4 13.7855 4C13.7791 4 13.7727 4 13.7663 4C13.7599 4 13.7536 4 13.7472 4C13.7408 4 13.7344 4 13.728 4C13.7217 4 13.7153 4 13.7089 4C13.7025 4 13.6961 4 13.6898 4C13.6834 4 13.677 4 13.6706 4C13.6642 4 13.6579 4 13.6515 4C13.6451 4 13.6387 4 13.6324 4C13.626 4 13.6196 4 13.6133 4C13.6069 4 13.6005 4 13.5941 4C13.5878 4 13.5814 4 13.575 4C13.5687 4 13.5623 4 13.5559 4C13.5496 4 13.5432 4 13.5368 4C13.5305 4 13.5241 4 13.5177 4C13.5114 4 13.505 4 13.4986 4C13.4923 4 13.4859 4 13.4796 4C13.4732 4 13.4668 4 13.4605 4C13.4541 4 13.4478 4 13.4414 4C13.435 4 13.4287 4 13.4223 4C13.416 4 13.4096 4 13.4033 4C13.3969 4 13.3906 4 13.3842 4C13.3779 4 13.3715 4 13.3651 4C13.3588 4 13.3524 4 13.3461 4C13.3397 4 13.3334 4 13.327 4C13.3207 4 13.3143 4 13.308 4C13.3016 4 13.2953 4 13.2889 4C13.2826 4 13.2763 4 13.2699 4C13.2636 4 13.2572 4 13.2509 4C13.2445 4 13.2382 4 13.2318 4C13.2255 4 13.2192 4 13.2128 4C13.2065 4 13.2001 4 13.1938 4C13.1874 4 13.1811 4 13.1748 4C13.1684 4 13.1621 4 13.1557 4C13.1494 4 13.1431 4 13.1367 4C13.1304 4 13.1241 4 13.1177 4C13.1114 4 13.105 4 13.0987 4C13.0924 4 13.086 4 13.0797 4C13.0734 4 13.067 4 13.0607 4C13.0544 4 13.048 4 13.0417 4C13.0354 4 13.029 4 13.0227 4C13.0164 4 13.01 4 13.0037 4C12.9974 4 12.9911 4 12.9847 4C12.9784 4 12.9721 4 12.9657 4C12.9594 4 12.9531 4 12.9468 4C12.9404 4 12.9341 4 12.9278 4C12.9215 4 12.9151 4 12.9088 4C12.9025 4 12.8961 4 12.8898 4C12.8835 4 12.8772 4 12.8709 4C12.8645 4 12.8582 4 12.8519 4C12.8456 4 12.8392 4 12.8329 4C12.8266 4 12.8203 4 12.8139 4C12.8076 4 12.8013 4 12.795 4C12.7887 4 12.7823 4 12.776 4C12.7697 4 12.7634 4 12.7571 4C12.7508 4 12.7444 4 12.7381 4C12.7318 4 12.7255 4 12.7192 4C12.7128 4 12.7065 4 12.7002 4C12.6939 4 12.6876 4 12.6813 4C12.6749 4 12.6686 4 12.6623 4C12.656 4 12.6497 4 12.6434 4C12.6371 4 12.6307 4 12.6244 4C12.6181 4 12.6118 4 12.6055 4C12.5992 4 12.5929 4 12.5865 4C12.5802 4 12.5739 4 12.5676 4C12.5613 4 12.555 4 12.5487 4C12.5424 4 12.536 4 12.5297 4C12.5234 4 12.5171 4 12.5108 4C12.5045 4 12.4982 4 12.4919 4C12.4856 4 12.4792 4 12.4729 4C12.4666 4 12.4603 4 12.454 4C12.4477 4 12.4414 4 12.4351 4C12.4288 4 12.4225 4 12.4162 4C12.4098 4 12.4035 4 12.3972 4C12.3909 4 12.3846 4 12.3783 4C12.372 4 12.3657 4 12.3594 4C12.3531 4 12.3468 4 12.3405 4C12.3342 4 12.3279 4 12.3215 4C12.3152 4 12.3089 4 12.3026 4C12.2963 4 12.29 4 12.2837 4C12.2774 4 12.2711 4 12.2648 4C12.2585 4 12.2522 4 12.2459 4C12.2396 4 12.2333 4 12.227 4C12.2207 4 12.2143 4 12.208 4C12.2017 4 12.1954 4 12.1891 4C12.1828 4 12.1765 4 12.1702 4C12.1639 4 12.1576 4 12.1513 4C12.145 4 12.1387 4 12.1324 4C12.1261 4 12.1198 4 12.1135 4C12.1072 4 12.1009 4 12.0946 4C12.0883 4 12.082 4 12.0756 4C12.0693 4 12.063 4 12.0567 4C12.0504 4 12.0441 4 12.0378 4C12.0315 4 12.0252 4 12.0189 4C12.0126 4 12.0063 4 12 4C11.9937 4 11.9874 4 11.9811 4C11.9748 4 11.9685 4 11.9622 4C11.9559 4 11.9496 4 11.9433 4C11.937 4 11.9307 4 11.9244 4C11.918 4 11.9117 4 11.9054 4C11.8991 4 11.8928 4 11.8865 4C11.8802 4 11.8739 4 11.8676 4C11.8613 4 11.855 4 11.8487 4C11.8424 4 11.8361 4 11.8298 4C11.8235 4 11.8172 4 11.8109 4C11.8046 4 11.7983 4 11.792 4C11.7857 4 11.7793 4 11.773 4C11.7667 4 11.7604 4 11.7541 4C11.7478 4 11.7415 4 11.7352 4C11.7289 4 11.7226 4 11.7163 4C11.71 4 11.7037 4 11.6974 4C11.6911 4 11.6848 4 11.6785 4C11.6721 4 11.6658 4 11.6595 4C11.6532 4 11.6469 4 11.6406 4C11.6343 4 11.628 4 11.6217 4C11.6154 4 11.6091 4 11.6028 4C11.5965 4 11.5901 4 11.5838 4C11.5775 4 11.5712 4 11.5649 4C11.5586 4 11.5523 4 11.546 4C11.5397 4 11.5334 4 11.5271 4C11.5207 4 11.5144 4 11.5081 4C11.5018 4 11.4955 4 11.4892 4C11.4829 4 11.4766 4 11.4703 4C11.464 4 11.4576 4 11.4513 4C11.445 4 11.4387 4 11.4324 4C11.4261 4 11.4198 4 11.4135 4C11.4071 4 11.4008 4 11.3945 4C11.3882 4 11.3819 4 11.3756 4C11.3693 4 11.3629 4 11.3566 4C11.3503 4 11.344 4 11.3377 4C11.3314 4 11.3251 4 11.3187 4C11.3124 4 11.3061 4 11.2998 4C11.2935 4 11.2872 4 11.2808 4C11.2745 4 11.2682 4 11.2619 4C11.2556 4 11.2492 4 11.2429 4C11.2366 4 11.2303 4 11.224 4C11.2177 4 11.2113 4 11.205 4C11.1987 4 11.1924 4 11.186 4C11.1797 4 11.1734 4 11.1671 4C11.1608 4 11.1544 4 11.1481 4C11.1418 4 11.1355 4 11.1291 4C11.1228 4 11.1165 4 11.1102 4C11.1038 4 11.0975 4 11.0912 4C11.0849 4 11.0785 4 11.0722 4C11.0659 4 11.0596 4 11.0532 4C11.0469 4 11.0406 4 11.0343 4C11.0279 4 11.0216 4 11.0153 4C11.0089 4 11.0026 4 10.9963 4C10.99 4 10.9836 4 10.9773 4C10.971 4 10.9646 4 10.9583 4C10.952 4 10.9456 4 10.9393 4C10.933 4 10.9266 4 10.9203 4C10.914 4 10.9076 4 10.9013 4C10.895 4 10.8886 4 10.8823 4C10.8759 4 10.8696 4 10.8633 4C10.8569 4 10.8506 4 10.8443 4C10.8379 4 10.8316 4 10.8252 4C10.8189 4 10.8126 4 10.8062 4C10.7999 4 10.7935 4 10.7872 4C10.7808 4 10.7745 4 10.7682 4C10.7618 4 10.7555 4 10.7491 4C10.7428 4 10.7364 4 10.7301 4C10.7237 4 10.7174 4 10.7111 4C10.7047 4 10.6984 4 10.692 4C10.6857 4 10.6793 4 10.673 4C10.6666 4 10.6603 4 10.6539 4C10.6476 4 10.6412 4 10.6349 4C10.6285 4 10.6221 4 10.6158 4C10.6094 4 10.6031 4 10.5967 4C10.5904 4 10.584 4 10.5777 4C10.5713 4 10.5649 4 10.5586 4C10.5522 4 10.5459 4 10.5395 4C10.5332 4 10.5268 4 10.5204 4C10.5141 4 10.5077 4 10.5013 4C10.495 4 10.4886 4 10.4823 4C10.4759 4 10.4695 4 10.4632 4C10.4568 4 10.4504 4 10.4441 4C10.4377 4 10.4313 4 10.425 4C10.4186 4 10.4122 4 10.4059 4C10.3995 4 10.3931 4 10.3867 4C10.3804 4 10.374 4 10.3676 4C10.3613 4 10.3549 4 10.3485 4C10.3421 4 10.3358 4 10.3294 4C10.323 4 10.3166 4 10.3102 4C10.3039 4 10.2975 4 10.2911 4C10.2847 4 10.2783 4 10.272 4C10.2656 4 10.2592 4 10.2528 4C10.2464 4 10.2401 4 10.2337 4C10.2273 4 10.2209 4 10.2145 4C10.2081 4 10.2017 4 10.1953 4C10.189 4 10.1826 4 10.1762 4C10.1698 4 10.1634 4 10.157 4C10.1506 4 10.1442 4 10.1378 4C10.1314 4 10.125 4 10.1186 4C10.1122 4 10.1058 4 10.0994 4C10.0931 4 10.0867 4 10.0803 4C10.0739 4 10.0675 4 10.0611 4C10.0547 4 10.0482 4 10.0418 4C10.0354 4 10.029 4 10.0226 4C10.0162 4 10.0098 4 10.0034 4C9.99701 4 9.9906 4 9.98419 4C9.97778 4 9.97137 4 9.96496 4C9.95855 4 9.95213 4 9.94572 4C9.93931 4 9.93289 4 9.92648 4C9.92006 4 9.91365 4 9.90723 4C9.90081 4 9.89439 4 9.88797 4C9.88155 4 9.87513 4 9.86871 4C9.86229 4 9.85587 4 9.84944 4C9.84302 4 9.8366 4 9.83017 4C9.82374 4 9.81732 4 9.81089 4C9.80446 4 9.79803 4 9.7916 4C9.78517 4 9.77874 4 9.77231 4C9.76588 4 9.75944 4 9.75301 4C9.74657 4 9.74014 4 9.7337 4C9.72727 4 9.72083 4 9.71439 4C9.70795 4 9.70151 4 9.69507 4C9.68863 4 9.68219 4 9.67574 4C9.6693 4 9.66285 4 9.65641 4C9.64996 4 9.64352 4 9.63707 4C9.63062 4 9.62417 4 9.61772 4C9.61127 4 9.60482 4 9.59836 4C9.59191 4 9.58546 4 9.579 4C9.57255 4 9.56609 4 9.55963 4C9.55318 4 9.54672 4 9.54026 4C9.5338 4 9.52734 4 9.52087 4C9.51441 4 9.50795 4 9.50148 4C9.49502 4 9.48855 4 9.48209 4C9.47562 4 9.46915 4 9.46268 4C9.45621 4 9.44974 4 9.44327 4C9.43679 4 9.43032 4 9.42385 4C9.41737 4 9.4109 4 9.40442 4C9.39794 4 9.39146 4 9.38498 4C9.3785 4 9.37202 4 9.36554 4C9.35906 4 9.35257 4 9.34609 4C9.3396 4 9.33312 4 9.32663 4C9.32014 4 9.31365 4 9.30716 4C9.30067 4 9.29418 4 9.28769 4C9.28119 4 9.2747 4 9.2682 4C9.26171 4 9.25521 4 9.24871 4C9.24221 4 9.23571 4 9.22921 4C9.22271 4 9.21621 4 9.20971 4C9.2032 4 9.1967 4 9.19019 4C9.18368 4 9.17718 4 9.17067 4C9.16416 4 9.15765 4 9.15114 4C9.14462 4 9.13811 4 9.1316 4C9.12508 4 9.11856 4 9.11205 4C9.10553 4 9.09901 4 9.09249 4C9.08597 4 9.07945 4 9.07292 4C9.0664 4 9.05987 4 9.05335 4C9.04682 4 9.04029 4 9.03377 4C9.02724 4 9.02071 4 9.01417 4C9.00764 4 9.00111 4 8.99457 4C8.98804 4 8.9815 4 8.97496 4C8.96843 4 8.96189 4 8.95535 4C8.9488 4 8.94226 4 8.93572 4C8.92917 4 8.92263 4 8.91608 4C8.90953 4 8.90299 4 8.89644 4C8.88989 4 8.88334 4 8.87678 4C8.87023 4 8.86367 4 8.85712 4C8.85056 4 8.844 4 8.83745 4C8.83089 4 8.82433 4 8.81776 4C8.8112 4 8.80464 4 8.79807 4C8.79151 4 8.78494 4 8.77837 4C8.7718 4 8.76523 4 8.75866 4C8.75209 4 8.74552 4 8.73894 4C8.73237 4 8.72579 4 8.71921 4C8.71263 4 8.70605 4 8.69947 4C8.69289 4 8.68631 4 8.67972 4C8.67314 4 8.66655 4 8.65997 4C8.65338 4 8.64679 4 8.6402 4C8.63361 4 8.62701 4 8.62042 4C8.61382 4 8.60723 4 8.60063 4C8.59403 4 8.58743 4 8.58083 4C8.57423 4 8.56763 4 8.56103 4C8.55442 4 8.54782 4 8.54121 4C8.5346 4 8.52799 4 8.52138 4C8.51477 4 8.50816 4 8.50154 4C8.49493 4 8.48831 4 8.48169 4C8.47507 4 8.46846 4 8.46183 4C8.45521 4 8.44859 4 8.44196 4C8.43534 4 8.42871 4 8.42209 4C8.41546 4 8.40883 4 8.4022 4C8.39556 4 8.38893 4 8.38229 4C8.37566 4 8.36902 4 8.36238 4C8.35574 4 8.3491 4 8.34246 4C8.33582 4 8.32918 4 8.32253 4C8.31588 4 8.30924 4 8.30259 4C8.29594 4 8.28929 4 8.28263 4C8.27598 4 8.26932 4 8.26267 4C8.25601 4 8.24935 4 8.24269 4C8.23603 4 8.22937 4 8.2227 4C8.21604 4 8.20937 4 8.20271 4C8.19604 4 8.18937 4 8.1827 4C8.17603 4 8.16935 4 8.16268 4C8.156 4 8.14933 4 8.14265 4C8.13597 4 8.12929 4 8.1226 4C8.11592 4 8.10924 4 8.10255 4C8.09586 4 8.08918 4 8.08249 4C8.0758 4 8.0691 4 8.06241 4C8.05572 4 8.04902 4 8.04232 4C8.03562 4 8.02892 4 8.02222 4C8.01552 4 8.00882 4 8.00211 4C7.9954 4 7.9887 4 7.98199 4C7.97528 4 7.96857 4 7.96185 4C7.95514 4 7.94842 4 7.94171 4C7.93499 4 7.92827 4 7.92155 4C7.91483 4 7.9081 4 7.90138 4C7.89465 4 7.88793 4 7.8812 4C7.87447 4 7.86774 4 7.861 4C7.85427 4 7.84754 4 7.8408 4C7.83406 4 7.82732 4 7.82058 4C7.81384 4 7.8071 4 7.80035 4C7.7936 4 7.78686 4 7.78011 4C7.77336 4 7.76661 4 7.75985 4C7.7531 4 7.74634 4 7.73959 4C7.73283 4 7.72607 4 7.71931 4C7.71254 4 7.70578 4 7.69902 4C7.69225 4 7.68548 4 7.67871 4C7.67194 4 7.66517 4 7.65839 4C7.65162 4 7.64484 4 7.63806 4C7.63129 4 7.62451 4 7.61772 4C7.61094 4 7.60416 4 7.59737 4C7.59058 4 7.58379 4 7.577 4C7.57021 4 7.56342 4 7.55662 4C7.54983 4 7.54303 4 7.53623 4C7.52943 4 7.52263 4 7.51582 4C7.50902 4 7.50221 4 7.4954 4C7.48859 4 7.48178 4 7.47497 4C7.46816 4 7.46134 4 7.45452 4C7.44771 4 7.44089 4 7.43407 4C7.42724 4 7.42042 4 7.41359 4C7.40677 4 7.39994 4 7.39311 4C7.38628 4 7.37945 4 7.37261 4C7.36578 4 7.35894 4 7.3521 4C7.34526 4 7.33842 4 7.33158 4C7.32473 4 7.31788 4 7.31104 4C7.30419 4 7.29734 4 7.29048 4C7.28363 4 7.27678 4 7.26992 4C7.26306 4 7.2562 4 7.24934 4C7.24248 4 7.23561 4 7.22875 4C7.22188 4 7.21501 4 7.20814 4C7.20127 4 7.19439 4 7.18752 4C7.18064 4 7.17376 4 7.16688 4C7.16 4 7.15312 4 7.14624 4C7.13935 4 7.13246 4 7.12557 4C7.11868 4 7.11179 4 7.1049 4C7.098 4 7.0911 4 7.08421 4C7.07731 4 7.0704 4 7.0635 4C7.0566 4 7.04969 4 7.04278 4C7.03587 4 7.02896 4 7.02205 4C7.01513 4 7.00822 4 7.0013 4V6ZM7 18C6.02892 18 5.40121 17.9979 4.9387 17.9357C4.50496 17.8774 4.36902 17.7832 4.29289 17.7071L2.87868 19.1213C3.38834 19.631 4.01669 19.8297 4.67221 19.9179C5.29896 20.0021 6.08546 20 7 20V18ZM2 15C2 15.9145 1.99788 16.701 2.08214 17.3278C2.17027 17.9833 2.36902 18.6117 2.87868 19.1213L4.29289 17.7071C4.21677 17.631 4.12262 17.495 4.06431 17.0613C4.00212 16.5988 4 15.9711 4 15H2ZM20 15C20 15.9711 19.9979 16.5988 19.9357 17.0613C19.8774 17.495 19.7832 17.631 19.7071 17.7071L21.1213 19.1213C21.631 18.6117 21.8297 17.9833 21.9179 17.3278C22.0021 16.701 22 15.9145 22 15H20ZM17 20C17.9145 20 18.701 20.0021 19.3278 19.9179C19.9833 19.8297 20.6117 19.631 21.1213 19.1213L19.7071 17.7071C19.631 17.7832 19.495 17.8774 19.0613 17.9357C18.5988 17.9979 17.9711 18 17 18V20ZM22 9C22 8.08546 22.0021 7.29896 21.9179 6.67221C21.8297 6.01669 21.631 5.38834 21.1213 4.87868L19.7071 6.29289C19.7832 6.36902 19.8774 6.50496 19.9357 6.9387C19.9979 7.40121 20 8.02892 20 9H22ZM16.9987 6C17.9702 6 18.5983 6.00212 19.061 6.06431C19.4951 6.12265 19.6311 6.21684 19.7071 6.29289L21.1213 4.87868C20.6116 4.36895 19.983 4.17025 19.3274 4.08213C18.7005 3.99788 17.9137 4 16.9987 4V6ZM4 9C4 8.02892 4.00212 7.40121 4.06431 6.9387C4.12262 6.50496 4.21677 6.36902 4.29289 6.29289L2.87868 4.87868C2.36902 5.38834 2.17027 6.01669 2.08214 6.67221C1.99788 7.29896 2 8.08546 2 9H4ZM7.0013 4C6.08632 4 5.29952 3.99788 4.67259 4.08213C4.01695 4.17025 3.38841 4.36895 2.87868 4.87868L4.29289 6.29289C4.36895 6.21684 4.50492 6.12265 4.93898 6.06431C5.40173 6.00212 6.0298 6 7.0013 6V4Z" fill="white"/>
<path d="M21 15V9C21 7.11438 21 6.17157 20.4142 5.58579C19.8284 5 18.8856 5 17 5H12V19H17C18.8856 19 19.8284 19 20.4142 18.4142C21 17.8284 21 16.8856 21 15Z" fill="white"/>
</svg>
