<svg width="24" height="24" viewBox="0 0 24 24" fill="none" xmlns="http://www.w3.org/2000/svg">
<path d="M9.58579 20.4142L8.87868 21.1213L9.58579 20.4142ZM20.4142 20.4142L19.7071 19.7071L20.4142 20.4142ZM20.4142 7.58579L21.1213 6.87868L20.4142 7.58579ZM20 11V17H22V11H20ZM17 20H13V22H17V20ZM10 17V11H8V17H10ZM13.0004 8C13.003 8 13.0057 8 13.0084 8C13.011 8 13.0137 8 13.0164 8C13.019 8 13.0217 8 13.0244 8C13.027 8 13.0297 8 13.0324 8C13.035 8 13.0377 8 13.0403 8C13.043 8 13.0457 8 13.0483 8C13.051 8 13.0537 8 13.0563 8C13.059 8 13.0616 8 13.0643 8C13.067 8 13.0696 8 13.0723 8C13.0749 8 13.0776 8 13.0803 8C13.0829 8 13.0856 8 13.0882 8C13.0909 8 13.0936 8 13.0962 8C13.0989 8 13.1015 8 13.1042 8C13.1068 8 13.1095 8 13.1122 8C13.1148 8 13.1175 8 13.1201 8C13.1228 8 13.1254 8 13.1281 8C13.1307 8 13.1334 8 13.1361 8C13.1387 8 13.1414 8 13.144 8C13.1467 8 13.1493 8 13.152 8C13.1546 8 13.1573 8 13.1599 8C13.1626 8 13.1652 8 13.1679 8C13.1705 8 13.1732 8 13.1758 8C13.1785 8 13.1811 8 13.1838 8C13.1864 8 13.1891 8 13.1917 8C13.1944 8 13.197 8 13.1997 8C13.2023 8 13.205 8 13.2076 8C13.2103 8 13.2129 8 13.2156 8C13.2182 8 13.2209 8 13.2235 8C13.2262 8 13.2288 8 13.2315 8C13.2341 8 13.2368 8 13.2394 8C13.242 8 13.2447 8 13.2473 8C13.25 8 13.2526 8 13.2553 8C13.2579 8 13.2606 8 13.2632 8C13.2658 8 13.2685 8 13.2711 8C13.2738 8 13.2764 8 13.2791 8C13.2817 8 13.2843 8 13.287 8C13.2896 8 13.2923 8 13.2949 8C13.2975 8 13.3002 8 13.3028 8C13.3055 8 13.3081 8 13.3107 8C13.3134 8 13.316 8 13.3187 8C13.3213 8 13.3239 8 13.3266 8C13.3292 8 13.3319 8 13.3345 8C13.3371 8 13.3398 8 13.3424 8C13.345 8 13.3477 8 13.3503 8C13.353 8 13.3556 8 13.3582 8C13.3609 8 13.3635 8 13.3661 8C13.3688 8 13.3714 8 13.374 8C13.3767 8 13.3793 8 13.3819 8C13.3846 8 13.3872 8 13.3899 8C13.3925 8 13.3951 8 13.3978 8C13.4004 8 13.403 8 13.4057 8C13.4083 8 13.4109 8 13.4135 8C13.4162 8 13.4188 8 13.4214 8C13.4241 8 13.4267 8 13.4293 8C13.432 8 13.4346 8 13.4372 8C13.4399 8 13.4425 8 13.4451 8C13.4477 8 13.4504 8 13.453 8C13.4556 8 13.4583 8 13.4609 8C13.4635 8 13.4661 8 13.4688 8C13.4714 8 13.474 8 13.4767 8C13.4793 8 13.4819 8 13.4845 8C13.4872 8 13.4898 8 13.4924 8C13.495 8 13.4977 8 13.5003 8C13.5029 8 13.5056 8 13.5082 8C13.5108 8 13.5134 8 13.5161 8C13.5187 8 13.5213 8 13.5239 8C13.5265 8 13.5292 8 13.5318 8C13.5344 8 13.537 8 13.5397 8C13.5423 8 13.5449 8 13.5475 8C13.5502 8 13.5528 8 13.5554 8C13.558 8 13.5606 8 13.5633 8C13.5659 8 13.5685 8 13.5711 8C13.5738 8 13.5764 8 13.579 8C13.5816 8 13.5842 8 13.5869 8C13.5895 8 13.5921 8 13.5947 8C13.5973 8 13.5999 8 13.6026 8C13.6052 8 13.6078 8 13.6104 8C13.613 8 13.6157 8 13.6183 8C13.6209 8 13.6235 8 13.6261 8C13.6287 8 13.6314 8 13.634 8C13.6366 8 13.6392 8 13.6418 8C13.6444 8 13.6471 8 13.6497 8C13.6523 8 13.6549 8 13.6575 8C13.6601 8 13.6628 8 13.6654 8C13.668 8 13.6706 8 13.6732 8C13.6758 8 13.6784 8 13.6811 8C13.6837 8 13.6863 8 13.6889 8C13.6915 8 13.6941 8 13.6967 8C13.6993 8 13.702 8 13.7046 8C13.7072 8 13.7098 8 13.7124 8C13.715 8 13.7176 8 13.7202 8C13.7229 8 13.7255 8 13.7281 8C13.7307 8 13.7333 8 13.7359 8C13.7385 8 13.7411 8 13.7437 8C13.7463 8 13.749 8 13.7516 8C13.7542 8 13.7568 8 13.7594 8C13.762 8 13.7646 8 13.7672 8C13.7698 8 13.7724 8 13.775 8C13.7777 8 13.7803 8 13.7829 8C13.7855 8 13.7881 8 13.7907 8C13.7933 8 13.7959 8 13.7985 8C13.8011 8 13.8037 8 13.8063 8C13.8089 8 13.8115 8 13.8142 8C13.8168 8 13.8194 8 13.822 8C13.8246 8 13.8272 8 13.8298 8C13.8324 8 13.835 8 13.8376 8C13.8402 8 13.8428 8 13.8454 8C13.848 8 13.8506 8 13.8532 8C13.8558 8 13.8584 8 13.861 8C13.8636 8 13.8662 8 13.8688 8C13.8714 8 13.8741 8 13.8767 8C13.8793 8 13.8819 8 13.8845 8C13.8871 8 13.8897 8 13.8923 8C13.8949 8 13.8975 8 13.9001 8C13.9027 8 13.9053 8 13.9079 8C13.9105 8 13.9131 8 13.9157 8C13.9183 8 13.9209 8 13.9235 8C13.9261 8 13.9287 8 13.9313 8C13.9339 8 13.9365 8 13.9391 8C13.9417 8 13.9443 8 13.9469 8C13.9495 8 13.9521 8 13.9547 8C13.9573 8 13.9599 8 13.9625 8C13.9651 8 13.9677 8 13.9703 8C13.9729 8 13.9755 8 13.978 8C13.9806 8 13.9832 8 13.9858 8C13.9884 8 13.991 8 13.9936 8C13.9962 8 13.9988 8 14.0014 8C14.004 8 14.0066 8 14.0092 8C14.0118 8 14.0144 8 14.017 8C14.0196 8 14.0222 8 14.0248 8C14.0274 8 14.03 8 14.0326 8C14.0352 8 14.0378 8 14.0403 8C14.0429 8 14.0455 8 14.0481 8C14.0507 8 14.0533 8 14.0559 8C14.0585 8 14.0611 8 14.0637 8C14.0663 8 14.0689 8 14.0715 8C14.0741 8 14.0767 8 14.0793 8C14.0818 8 14.0844 8 14.087 8C14.0896 8 14.0922 8 14.0948 8C14.0974 8 14.1 8 14.1026 8C14.1052 8 14.1078 8 14.1104 8C14.1129 8 14.1155 8 14.1181 8C14.1207 8 14.1233 8 14.1259 8C14.1285 8 14.1311 8 14.1337 8C14.1363 8 14.1389 8 14.1414 8C14.144 8 14.1466 8 14.1492 8C14.1518 8 14.1544 8 14.157 8C14.1596 8 14.1622 8 14.1648 8C14.1673 8 14.1699 8 14.1725 8C14.1751 8 14.1777 8 14.1803 8C14.1829 8 14.1855 8 14.188 8C14.1906 8 14.1932 8 14.1958 8C14.1984 8 14.201 8 14.2036 8C14.2062 8 14.2088 8 14.2113 8C14.2139 8 14.2165 8 14.2191 8C14.2217 8 14.2243 8 14.2269 8C14.2294 8 14.232 8 14.2346 8C14.2372 8 14.2398 8 14.2424 8C14.245 8 14.2475 8 14.2501 8C14.2527 8 14.2553 8 14.2579 8C14.2605 8 14.2631 8 14.2656 8C14.2682 8 14.2708 8 14.2734 8C14.276 8 14.2786 8 14.2812 8C14.2837 8 14.2863 8 14.2889 8C14.2915 8 14.2941 8 14.2967 8C14.2993 8 14.3018 8 14.3044 8C14.307 8 14.3096 8 14.3122 8C14.3148 8 14.3173 8 14.3199 8C14.3225 8 14.3251 8 14.3277 8C14.3303 8 14.3328 8 14.3354 8C14.338 8 14.3406 8 14.3432 8C14.3458 8 14.3483 8 14.3509 8C14.3535 8 14.3561 8 14.3587 8C14.3612 8 14.3638 8 14.3664 8C14.369 8 14.3716 8 14.3742 8C14.3767 8 14.3793 8 14.3819 8C14.3845 8 14.3871 8 14.3896 8C14.3922 8 14.3948 8 14.3974 8C14.4 8 14.4026 8 14.4051 8C14.4077 8 14.4103 8 14.4129 8C14.4155 8 14.418 8 14.4206 8C14.4232 8 14.4258 8 14.4284 8C14.4309 8 14.4335 8 14.4361 8C14.4387 8 14.4413 8 14.4438 8C14.4464 8 14.449 8 14.4516 8C14.4542 8 14.4567 8 14.4593 8C14.4619 8 14.4645 8 14.4671 8C14.4696 8 14.4722 8 14.4748 8C14.4774 8 14.4799 8 14.4825 8C14.4851 8 14.4877 8 14.4903 8C14.4928 8 14.4954 8 14.498 8C14.5006 8 14.5032 8 14.5057 8C14.5083 8 14.5109 8 14.5135 8C14.516 8 14.5186 8 14.5212 8C14.5238 8 14.5264 8 14.5289 8C14.5315 8 14.5341 8 14.5367 8C14.5392 8 14.5418 8 14.5444 8C14.547 8 14.5496 8 14.5521 8C14.5547 8 14.5573 8 14.5599 8C14.5624 8 14.565 8 14.5676 8C14.5702 8 14.5727 8 14.5753 8C14.5779 8 14.5805 8 14.5831 8C14.5856 8 14.5882 8 14.5908 8C14.5934 8 14.5959 8 14.5985 8C14.6011 8 14.6037 8 14.6062 8C14.6088 8 14.6114 8 14.614 8C14.6165 8 14.6191 8 14.6217 8C14.6243 8 14.6268 8 14.6294 8C14.632 8 14.6346 8 14.6371 8C14.6397 8 14.6423 8 14.6449 8C14.6475 8 14.65 8 14.6526 8C14.6552 8 14.6578 8 14.6603 8C14.6629 8 14.6655 8 14.6681 8C14.6706 8 14.6732 8 14.6758 8C14.6784 8 14.6809 8 14.6835 8C14.6861 8 14.6887 8 14.6912 8C14.6938 8 14.6964 8 14.6989 8C14.7015 8 14.7041 8 14.7067 8C14.7092 8 14.7118 8 14.7144 8C14.717 8 14.7195 8 14.7221 8C14.7247 8 14.7273 8 14.7298 8C14.7324 8 14.735 8 14.7376 8C14.7401 8 14.7427 8 14.7453 8C14.7479 8 14.7504 8 14.753 8C14.7556 8 14.7582 8 14.7607 8C14.7633 8 14.7659 8 14.7684 8C14.771 8 14.7736 8 14.7762 8C14.7787 8 14.7813 8 14.7839 8C14.7865 8 14.789 8 14.7916 8C14.7942 8 14.7968 8 14.7993 8C14.8019 8 14.8045 8 14.8071 8C14.8096 8 14.8122 8 14.8148 8C14.8173 8 14.8199 8 14.8225 8C14.8251 8 14.8276 8 14.8302 8C14.8328 8 14.8354 8 14.8379 8C14.8405 8 14.8431 8 14.8456 8C14.8482 8 14.8508 8 14.8534 8C14.8559 8 14.8585 8 14.8611 8C14.8637 8 14.8662 8 14.8688 8C14.8714 8 14.8739 8 14.8765 8C14.8791 8 14.8817 8 14.8842 8C14.8868 8 14.8894 8 14.892 8C14.8945 8 14.8971 8 14.8997 8C14.9022 8 14.9048 8 14.9074 8C14.91 8 14.9125 8 14.9151 8C14.9177 8 14.9203 8 14.9228 8C14.9254 8 14.928 8 14.9305 8C14.9331 8 14.9357 8 14.9383 8C14.9408 8 14.9434 8 14.946 8C14.9486 8 14.9511 8 14.9537 8C14.9563 8 14.9588 8 14.9614 8C14.964 8 14.9666 8 14.9691 8C14.9717 8 14.9743 8 14.9768 8C14.9794 8 14.982 8 14.9846 8C14.9871 8 14.9897 8 14.9923 8C14.9949 8 14.9974 8 15 8C15.0026 8 15.0051 8 15.0077 8C15.0103 8 15.0129 8 15.0154 8C15.018 8 15.0206 8 15.0232 8C15.0257 8 15.0283 8 15.0309 8C15.0334 8 15.036 8 15.0386 8C15.0412 8 15.0437 8 15.0463 8C15.0489 8 15.0514 8 15.054 8C15.0566 8 15.0592 8 15.0617 8C15.0643 8 15.0669 8 15.0695 8C15.072 8 15.0746 8 15.0772 8C15.0797 8 15.0823 8 15.0849 8C15.0875 8 15.09 8 15.0926 8C15.0952 8 15.0978 8 15.1003 8C15.1029 8 15.1055 8 15.108 8C15.1106 8 15.1132 8 15.1158 8C15.1183 8 15.1209 8 15.1235 8C15.1261 8 15.1286 8 15.1312 8C15.1338 8 15.1363 8 15.1389 8C15.1415 8 15.1441 8 15.1466 8C15.1492 8 15.1518 8 15.1544 8C15.1569 8 15.1595 8 15.1621 8C15.1646 8 15.1672 8 15.1698 8C15.1724 8 15.1749 8 15.1775 8C15.1801 8 15.1827 8 15.1852 8C15.1878 8 15.1904 8 15.1929 8C15.1955 8 15.1981 8 15.2007 8C15.2032 8 15.2058 8 15.2084 8C15.211 8 15.2135 8 15.2161 8C15.2187 8 15.2213 8 15.2238 8C15.2264 8 15.229 8 15.2316 8C15.2341 8 15.2367 8 15.2393 8C15.2418 8 15.2444 8 15.247 8C15.2496 8 15.2521 8 15.2547 8C15.2573 8 15.2599 8 15.2624 8C15.265 8 15.2676 8 15.2702 8C15.2727 8 15.2753 8 15.2779 8C15.2805 8 15.283 8 15.2856 8C15.2882 8 15.2908 8 15.2933 8C15.2959 8 15.2985 8 15.3011 8C15.3036 8 15.3062 8 15.3088 8C15.3113 8 15.3139 8 15.3165 8C15.3191 8 15.3216 8 15.3242 8C15.3268 8 15.3294 8 15.3319 8C15.3345 8 15.3371 8 15.3397 8C15.3422 8 15.3448 8 15.3474 8C15.35 8 15.3526 8 15.3551 8C15.3577 8 15.3603 8 15.3629 8C15.3654 8 15.368 8 15.3706 8C15.3732 8 15.3757 8 15.3783 8C15.3809 8 15.3835 8 15.386 8C15.3886 8 15.3912 8 15.3938 8C15.3963 8 15.3989 8 15.4015 8C15.4041 8 15.4066 8 15.4092 8C15.4118 8 15.4144 8 15.4169 8C15.4195 8 15.4221 8 15.4247 8C15.4273 8 15.4298 8 15.4324 8C15.435 8 15.4376 8 15.4401 8C15.4427 8 15.4453 8 15.4479 8C15.4504 8 15.453 8 15.4556 8C15.4582 8 15.4608 8 15.4633 8C15.4659 8 15.4685 8 15.4711 8C15.4736 8 15.4762 8 15.4788 8C15.4814 8 15.484 8 15.4865 8C15.4891 8 15.4917 8 15.4943 8C15.4968 8 15.4994 8 15.502 8C15.5046 8 15.5072 8 15.5097 8C15.5123 8 15.5149 8 15.5175 8C15.5201 8 15.5226 8 15.5252 8C15.5278 8 15.5304 8 15.5329 8C15.5355 8 15.5381 8 15.5407 8C15.5433 8 15.5458 8 15.5484 8C15.551 8 15.5536 8 15.5562 8C15.5587 8 15.5613 8 15.5639 8C15.5665 8 15.5691 8 15.5716 8C15.5742 8 15.5768 8 15.5794 8C15.582 8 15.5845 8 15.5871 8C15.5897 8 15.5923 8 15.5949 8C15.5975 8 15.6 8 15.6026 8C15.6052 8 15.6078 8 15.6104 8C15.6129 8 15.6155 8 15.6181 8C15.6207 8 15.6233 8 15.6258 8C15.6284 8 15.631 8 15.6336 8C15.6362 8 15.6388 8 15.6413 8C15.6439 8 15.6465 8 15.6491 8C15.6517 8 15.6542 8 15.6568 8C15.6594 8 15.662 8 15.6646 8C15.6672 8 15.6697 8 15.6723 8C15.6749 8 15.6775 8 15.6801 8C15.6827 8 15.6852 8 15.6878 8C15.6904 8 15.693 8 15.6956 8C15.6982 8 15.7008 8 15.7033 8C15.7059 8 15.7085 8 15.7111 8C15.7137 8 15.7163 8 15.7188 8C15.7214 8 15.724 8 15.7266 8C15.7292 8 15.7318 8 15.7344 8C15.7369 8 15.7395 8 15.7421 8C15.7447 8 15.7473 8 15.7499 8C15.7525 8 15.755 8 15.7576 8C15.7602 8 15.7628 8 15.7654 8C15.768 8 15.7706 8 15.7731 8C15.7757 8 15.7783 8 15.7809 8C15.7835 8 15.7861 8 15.7887 8C15.7913 8 15.7938 8 15.7964 8C15.799 8 15.8016 8 15.8042 8C15.8068 8 15.8094 8 15.812 8C15.8145 8 15.8171 8 15.8197 8C15.8223 8 15.8249 8 15.8275 8C15.8301 8 15.8327 8 15.8353 8C15.8378 8 15.8404 8 15.843 8C15.8456 8 15.8482 8 15.8508 8C15.8534 8 15.856 8 15.8586 8C15.8611 8 15.8637 8 15.8663 8C15.8689 8 15.8715 8 15.8741 8C15.8767 8 15.8793 8 15.8819 8C15.8845 8 15.8871 8 15.8896 8C15.8922 8 15.8948 8 15.8974 8C15.9 8 15.9026 8 15.9052 8C15.9078 8 15.9104 8 15.913 8C15.9156 8 15.9182 8 15.9207 8C15.9233 8 15.9259 8 15.9285 8C15.9311 8 15.9337 8 15.9363 8C15.9389 8 15.9415 8 15.9441 8C15.9467 8 15.9493 8 15.9519 8C15.9545 8 15.9571 8 15.9597 8C15.9622 8 15.9648 8 15.9674 8C15.97 8 15.9726 8 15.9752 8C15.9778 8 15.9804 8 15.983 8C15.9856 8 15.9882 8 15.9908 8C15.9934 8 15.996 8 15.9986 8C16.0012 8 16.0038 8 16.0064 8C16.009 8 16.0116 8 16.0142 8C16.0168 8 16.0194 8 16.022 8C16.0245 8 16.0271 8 16.0297 8C16.0323 8 16.0349 8 16.0375 8C16.0401 8 16.0427 8 16.0453 8C16.0479 8 16.0505 8 16.0531 8C16.0557 8 16.0583 8 16.0609 8C16.0635 8 16.0661 8 16.0687 8C16.0713 8 16.0739 8 16.0765 8C16.0791 8 16.0817 8 16.0843 8C16.0869 8 16.0895 8 16.0921 8C16.0947 8 16.0973 8 16.0999 8C16.1025 8 16.1051 8 16.1077 8C16.1103 8 16.1129 8 16.1155 8C16.1181 8 16.1207 8 16.1233 8C16.1259 8 16.1286 8 16.1312 8C16.1338 8 16.1364 8 16.139 8C16.1416 8 16.1442 8 16.1468 8C16.1494 8 16.152 8 16.1546 8C16.1572 8 16.1598 8 16.1624 8C16.165 8 16.1676 8 16.1702 8C16.1728 8 16.1754 8 16.178 8C16.1806 8 16.1832 8 16.1858 8C16.1885 8 16.1911 8 16.1937 8C16.1963 8 16.1989 8 16.2015 8C16.2041 8 16.2067 8 16.2093 8C16.2119 8 16.2145 8 16.2171 8C16.2197 8 16.2223 8 16.225 8C16.2276 8 16.2302 8 16.2328 8C16.2354 8 16.238 8 16.2406 8C16.2432 8 16.2458 8 16.2484 8C16.251 8 16.2537 8 16.2563 8C16.2589 8 16.2615 8 16.2641 8C16.2667 8 16.2693 8 16.2719 8C16.2745 8 16.2771 8 16.2798 8C16.2824 8 16.285 8 16.2876 8C16.2902 8 16.2928 8 16.2954 8C16.298 8 16.3007 8 16.3033 8C16.3059 8 16.3085 8 16.3111 8C16.3137 8 16.3163 8 16.3189 8C16.3216 8 16.3242 8 16.3268 8C16.3294 8 16.332 8 16.3346 8C16.3372 8 16.3399 8 16.3425 8C16.3451 8 16.3477 8 16.3503 8C16.3529 8 16.3556 8 16.3582 8C16.3608 8 16.3634 8 16.366 8C16.3686 8 16.3713 8 16.3739 8C16.3765 8 16.3791 8 16.3817 8C16.3843 8 16.387 8 16.3896 8C16.3922 8 16.3948 8 16.3974 8C16.4001 8 16.4027 8 16.4053 8C16.4079 8 16.4105 8 16.4131 8C16.4158 8 16.4184 8 16.421 8C16.4236 8 16.4263 8 16.4289 8C16.4315 8 16.4341 8 16.4367 8C16.4394 8 16.442 8 16.4446 8C16.4472 8 16.4498 8 16.4525 8C16.4551 8 16.4577 8 16.4603 8C16.463 8 16.4656 8 16.4682 8C16.4708 8 16.4735 8 16.4761 8C16.4787 8 16.4813 8 16.4839 8C16.4866 8 16.4892 8 16.4918 8C16.4944 8 16.4971 8 16.4997 8C16.5023 8 16.505 8 16.5076 8C16.5102 8 16.5128 8 16.5155 8C16.5181 8 16.5207 8 16.5233 8C16.526 8 16.5286 8 16.5312 8C16.5339 8 16.5365 8 16.5391 8C16.5417 8 16.5444 8 16.547 8C16.5496 8 16.5523 8 16.5549 8C16.5575 8 16.5601 8 16.5628 8C16.5654 8 16.568 8 16.5707 8C16.5733 8 16.5759 8 16.5786 8C16.5812 8 16.5838 8 16.5865 8C16.5891 8 16.5917 8 16.5943 8C16.597 8 16.5996 8 16.6022 8C16.6049 8 16.6075 8 16.6101 8C16.6128 8 16.6154 8 16.6181 8C16.6207 8 16.6233 8 16.626 8C16.6286 8 16.6312 8 16.6339 8C16.6365 8 16.6391 8 16.6418 8C16.6444 8 16.647 8 16.6497 8C16.6523 8 16.655 8 16.6576 8C16.6602 8 16.6629 8 16.6655 8C16.6681 8 16.6708 8 16.6734 8C16.6761 8 16.6787 8 16.6813 8C16.684 8 16.6866 8 16.6893 8C16.6919 8 16.6945 8 16.6972 8C16.6998 8 16.7025 8 16.7051 8C16.7077 8 16.7104 8 16.713 8C16.7157 8 16.7183 8 16.7209 8C16.7236 8 16.7262 8 16.7289 8C16.7315 8 16.7342 8 16.7368 8C16.7394 8 16.7421 8 16.7447 8C16.7474 8 16.75 8 16.7527 8C16.7553 8 16.758 8 16.7606 8C16.7633 8 16.7659 8 16.7685 8C16.7712 8 16.7738 8 16.7765 8C16.7791 8 16.7818 8 16.7844 8C16.7871 8 16.7897 8 16.7924 8C16.795 8 16.7977 8 16.8003 8C16.803 8 16.8056 8 16.8083 8C16.8109 8 16.8136 8 16.8162 8C16.8189 8 16.8215 8 16.8242 8C16.8268 8 16.8295 8 16.8321 8C16.8348 8 16.8374 8 16.8401 8C16.8427 8 16.8454 8 16.848 8C16.8507 8 16.8533 8 16.856 8C16.8586 8 16.8613 8 16.8639 8C16.8666 8 16.8693 8 16.8719 8C16.8746 8 16.8772 8 16.8799 8C16.8825 8 16.8852 8 16.8878 8C16.8905 8 16.8932 8 16.8958 8C16.8985 8 16.9011 8 16.9038 8C16.9064 8 16.9091 8 16.9118 8C16.9144 8 16.9171 8 16.9197 8C16.9224 8 16.9251 8 16.9277 8C16.9304 8 16.933 8 16.9357 8C16.9384 8 16.941 8 16.9437 8C16.9463 8 16.949 8 16.9517 8C16.9543 8 16.957 8 16.9597 8C16.9623 8 16.965 8 16.9676 8C16.9703 8 16.973 8 16.9756 8C16.9783 8 16.981 8 16.9836 8C16.9863 8 16.989 8 16.9916 8C16.9943 8 16.997 8 16.9996 8V6C16.997 6 16.9943 6 16.9916 6C16.989 6 16.9863 6 16.9836 6C16.981 6 16.9783 6 16.9756 6C16.973 6 16.9703 6 16.9676 6C16.965 6 16.9623 6 16.9597 6C16.957 6 16.9543 6 16.9517 6C16.949 6 16.9463 6 16.9437 6C16.941 6 16.9384 6 16.9357 6C16.933 6 16.9304 6 16.9277 6C16.9251 6 16.9224 6 16.9197 6C16.9171 6 16.9144 6 16.9118 6C16.9091 6 16.9064 6 16.9038 6C16.9011 6 16.8985 6 16.8958 6C16.8932 6 16.8905 6 16.8878 6C16.8852 6 16.8825 6 16.8799 6C16.8772 6 16.8746 6 16.8719 6C16.8693 6 16.8666 6 16.8639 6C16.8613 6 16.8586 6 16.856 6C16.8533 6 16.8507 6 16.848 6C16.8454 6 16.8427 6 16.8401 6C16.8374 6 16.8348 6 16.8321 6C16.8295 6 16.8268 6 16.8242 6C16.8215 6 16.8189 6 16.8162 6C16.8136 6 16.8109 6 16.8083 6C16.8056 6 16.803 6 16.8003 6C16.7977 6 16.795 6 16.7924 6C16.7897 6 16.7871 6 16.7844 6C16.7818 6 16.7791 6 16.7765 6C16.7738 6 16.7712 6 16.7685 6C16.7659 6 16.7633 6 16.7606 6C16.758 6 16.7553 6 16.7527 6C16.75 6 16.7474 6 16.7447 6C16.7421 6 16.7394 6 16.7368 6C16.7342 6 16.7315 6 16.7289 6C16.7262 6 16.7236 6 16.7209 6C16.7183 6 16.7157 6 16.713 6C16.7104 6 16.7077 6 16.7051 6C16.7025 6 16.6998 6 16.6972 6C16.6945 6 16.6919 6 16.6893 6C16.6866 6 16.684 6 16.6813 6C16.6787 6 16.6761 6 16.6734 6C16.6708 6 16.6681 6 16.6655 6C16.6629 6 16.6602 6 16.6576 6C16.655 6 16.6523 6 16.6497 6C16.647 6 16.6444 6 16.6418 6C16.6391 6 16.6365 6 16.6339 6C16.6312 6 16.6286 6 16.626 6C16.6233 6 16.6207 6 16.6181 6C16.6154 6 16.6128 6 16.6101 6C16.6075 6 16.6049 6 16.6022 6C16.5996 6 16.597 6 16.5943 6C16.5917 6 16.5891 6 16.5865 6C16.5838 6 16.5812 6 16.5786 6C16.5759 6 16.5733 6 16.5707 6C16.568 6 16.5654 6 16.5628 6C16.5601 6 16.5575 6 16.5549 6C16.5523 6 16.5496 6 16.547 6C16.5444 6 16.5417 6 16.5391 6C16.5365 6 16.5339 6 16.5312 6C16.5286 6 16.526 6 16.5233 6C16.5207 6 16.5181 6 16.5155 6C16.5128 6 16.5102 6 16.5076 6C16.505 6 16.5023 6 16.4997 6C16.4971 6 16.4944 6 16.4918 6C16.4892 6 16.4866 6 16.4839 6C16.4813 6 16.4787 6 16.4761 6C16.4735 6 16.4708 6 16.4682 6C16.4656 6 16.463 6 16.4603 6C16.4577 6 16.4551 6 16.4525 6C16.4498 6 16.4472 6 16.4446 6C16.442 6 16.4394 6 16.4367 6C16.4341 6 16.4315 6 16.4289 6C16.4263 6 16.4236 6 16.421 6C16.4184 6 16.4158 6 16.4131 6C16.4105 6 16.4079 6 16.4053 6C16.4027 6 16.4001 6 16.3974 6C16.3948 6 16.3922 6 16.3896 6C16.387 6 16.3843 6 16.3817 6C16.3791 6 16.3765 6 16.3739 6C16.3713 6 16.3686 6 16.366 6C16.3634 6 16.3608 6 16.3582 6C16.3556 6 16.3529 6 16.3503 6C16.3477 6 16.3451 6 16.3425 6C16.3399 6 16.3372 6 16.3346 6C16.332 6 16.3294 6 16.3268 6C16.3242 6 16.3216 6 16.3189 6C16.3163 6 16.3137 6 16.3111 6C16.3085 6 16.3059 6 16.3033 6C16.3007 6 16.298 6 16.2954 6C16.2928 6 16.2902 6 16.2876 6C16.285 6 16.2824 6 16.2798 6C16.2771 6 16.2745 6 16.2719 6C16.2693 6 16.2667 6 16.2641 6C16.2615 6 16.2589 6 16.2563 6C16.2537 6 16.251 6 16.2484 6C16.2458 6 16.2432 6 16.2406 6C16.238 6 16.2354 6 16.2328 6C16.2302 6 16.2276 6 16.225 6C16.2223 6 16.2197 6 16.2171 6C16.2145 6 16.2119 6 16.2093 6C16.2067 6 16.2041 6 16.2015 6C16.1989 6 16.1963 6 16.1937 6C16.1911 6 16.1885 6 16.1858 6C16.1832 6 16.1806 6 16.178 6C16.1754 6 16.1728 6 16.1702 6C16.1676 6 16.165 6 16.1624 6C16.1598 6 16.1572 6 16.1546 6C16.152 6 16.1494 6 16.1468 6C16.1442 6 16.1416 6 16.139 6C16.1364 6 16.1338 6 16.1312 6C16.1286 6 16.1259 6 16.1233 6C16.1207 6 16.1181 6 16.1155 6C16.1129 6 16.1103 6 16.1077 6C16.1051 6 16.1025 6 16.0999 6C16.0973 6 16.0947 6 16.0921 6C16.0895 6 16.0869 6 16.0843 6C16.0817 6 16.0791 6 16.0765 6C16.0739 6 16.0713 6 16.0687 6C16.0661 6 16.0635 6 16.0609 6C16.0583 6 16.0557 6 16.0531 6C16.0505 6 16.0479 6 16.0453 6C16.0427 6 16.0401 6 16.0375 6C16.0349 6 16.0323 6 16.0297 6C16.0271 6 16.0245 6 16.022 6C16.0194 6 16.0168 6 16.0142 6C16.0116 6 16.009 6 16.0064 6C16.0038 6 16.0012 6 15.9986 6C15.996 6 15.9934 6 15.9908 6C15.9882 6 15.9856 6 15.983 6C15.9804 6 15.9778 6 15.9752 6C15.9726 6 15.97 6 15.9674 6C15.9648 6 15.9622 6 15.9597 6C15.9571 6 15.9545 6 15.9519 6C15.9493 6 15.9467 6 15.9441 6C15.9415 6 15.9389 6 15.9363 6C15.9337 6 15.9311 6 15.9285 6C15.9259 6 15.9233 6 15.9207 6C15.9182 6 15.9156 6 15.913 6C15.9104 6 15.9078 6 15.9052 6C15.9026 6 15.9 6 15.8974 6C15.8948 6 15.8922 6 15.8896 6C15.8871 6 15.8845 6 15.8819 6C15.8793 6 15.8767 6 15.8741 6C15.8715 6 15.8689 6 15.8663 6C15.8637 6 15.8611 6 15.8586 6C15.856 6 15.8534 6 15.8508 6C15.8482 6 15.8456 6 15.843 6C15.8404 6 15.8378 6 15.8353 6C15.8327 6 15.8301 6 15.8275 6C15.8249 6 15.8223 6 15.8197 6C15.8171 6 15.8145 6 15.812 6C15.8094 6 15.8068 6 15.8042 6C15.8016 6 15.799 6 15.7964 6C15.7938 6 15.7913 6 15.7887 6C15.7861 6 15.7835 6 15.7809 6C15.7783 6 15.7757 6 15.7731 6C15.7706 6 15.768 6 15.7654 6C15.7628 6 15.7602 6 15.7576 6C15.755 6 15.7525 6 15.7499 6C15.7473 6 15.7447 6 15.7421 6C15.7395 6 15.7369 6 15.7344 6C15.7318 6 15.7292 6 15.7266 6C15.724 6 15.7214 6 15.7188 6C15.7163 6 15.7137 6 15.7111 6C15.7085 6 15.7059 6 15.7033 6C15.7008 6 15.6982 6 15.6956 6C15.693 6 15.6904 6 15.6878 6C15.6852 6 15.6827 6 15.6801 6C15.6775 6 15.6749 6 15.6723 6C15.6697 6 15.6672 6 15.6646 6C15.662 6 15.6594 6 15.6568 6C15.6542 6 15.6517 6 15.6491 6C15.6465 6 15.6439 6 15.6413 6C15.6388 6 15.6362 6 15.6336 6C15.631 6 15.6284 6 15.6258 6C15.6233 6 15.6207 6 15.6181 6C15.6155 6 15.6129 6 15.6104 6C15.6078 6 15.6052 6 15.6026 6C15.6 6 15.5975 6 15.5949 6C15.5923 6 15.5897 6 15.5871 6C15.5845 6 15.582 6 15.5794 6C15.5768 6 15.5742 6 15.5716 6C15.5691 6 15.5665 6 15.5639 6C15.5613 6 15.5587 6 15.5562 6C15.5536 6 15.551 6 15.5484 6C15.5458 6 15.5433 6 15.5407 6C15.5381 6 15.5355 6 15.5329 6C15.5304 6 15.5278 6 15.5252 6C15.5226 6 15.5201 6 15.5175 6C15.5149 6 15.5123 6 15.5097 6C15.5072 6 15.5046 6 15.502 6C15.4994 6 15.4968 6 15.4943 6C15.4917 6 15.4891 6 15.4865 6C15.484 6 15.4814 6 15.4788 6C15.4762 6 15.4736 6 15.4711 6C15.4685 6 15.4659 6 15.4633 6C15.4608 6 15.4582 6 15.4556 6C15.453 6 15.4504 6 15.4479 6C15.4453 6 15.4427 6 15.4401 6C15.4376 6 15.435 6 15.4324 6C15.4298 6 15.4273 6 15.4247 6C15.4221 6 15.4195 6 15.4169 6C15.4144 6 15.4118 6 15.4092 6C15.4066 6 15.4041 6 15.4015 6C15.3989 6 15.3963 6 15.3938 6C15.3912 6 15.3886 6 15.386 6C15.3835 6 15.3809 6 15.3783 6C15.3757 6 15.3732 6 15.3706 6C15.368 6 15.3654 6 15.3629 6C15.3603 6 15.3577 6 15.3551 6C15.3526 6 15.35 6 15.3474 6C15.3448 6 15.3422 6 15.3397 6C15.3371 6 15.3345 6 15.3319 6C15.3294 6 15.3268 6 15.3242 6C15.3216 6 15.3191 6 15.3165 6C15.3139 6 15.3113 6 15.3088 6C15.3062 6 15.3036 6 15.3011 6C15.2985 6 15.2959 6 15.2933 6C15.2908 6 15.2882 6 15.2856 6C15.283 6 15.2805 6 15.2779 6C15.2753 6 15.2727 6 15.2702 6C15.2676 6 15.265 6 15.2624 6C15.2599 6 15.2573 6 15.2547 6C15.2521 6 15.2496 6 15.247 6C15.2444 6 15.2418 6 15.2393 6C15.2367 6 15.2341 6 15.2316 6C15.229 6 15.2264 6 15.2238 6C15.2213 6 15.2187 6 15.2161 6C15.2135 6 15.211 6 15.2084 6C15.2058 6 15.2032 6 15.2007 6C15.1981 6 15.1955 6 15.1929 6C15.1904 6 15.1878 6 15.1852 6C15.1827 6 15.1801 6 15.1775 6C15.1749 6 15.1724 6 15.1698 6C15.1672 6 15.1646 6 15.1621 6C15.1595 6 15.1569 6 15.1544 6C15.1518 6 15.1492 6 15.1466 6C15.1441 6 15.1415 6 15.1389 6C15.1363 6 15.1338 6 15.1312 6C15.1286 6 15.1261 6 15.1235 6C15.1209 6 15.1183 6 15.1158 6C15.1132 6 15.1106 6 15.108 6C15.1055 6 15.1029 6 15.1003 6C15.0978 6 15.0952 6 15.0926 6C15.09 6 15.0875 6 15.0849 6C15.0823 6 15.0797 6 15.0772 6C15.0746 6 15.072 6 15.0695 6C15.0669 6 15.0643 6 15.0617 6C15.0592 6 15.0566 6 15.054 6C15.0514 6 15.0489 6 15.0463 6C15.0437 6 15.0412 6 15.0386 6C15.036 6 15.0334 6 15.0309 6C15.0283 6 15.0257 6 15.0232 6C15.0206 6 15.018 6 15.0154 6C15.0129 6 15.0103 6 15.0077 6C15.0051 6 15.0026 6 15 6C14.9974 6 14.9949 6 14.9923 6C14.9897 6 14.9871 6 14.9846 6C14.982 6 14.9794 6 14.9768 6C14.9743 6 14.9717 6 14.9691 6C14.9666 6 14.964 6 14.9614 6C14.9588 6 14.9563 6 14.9537 6C14.9511 6 14.9486 6 14.946 6C14.9434 6 14.9408 6 14.9383 6C14.9357 6 14.9331 6 14.9305 6C14.928 6 14.9254 6 14.9228 6C14.9203 6 14.9177 6 14.9151 6C14.9125 6 14.91 6 14.9074 6C14.9048 6 14.9022 6 14.8997 6C14.8971 6 14.8945 6 14.892 6C14.8894 6 14.8868 6 14.8842 6C14.8817 6 14.8791 6 14.8765 6C14.8739 6 14.8714 6 14.8688 6C14.8662 6 14.8637 6 14.8611 6C14.8585 6 14.8559 6 14.8534 6C14.8508 6 14.8482 6 14.8456 6C14.8431 6 14.8405 6 14.8379 6C14.8354 6 14.8328 6 14.8302 6C14.8276 6 14.8251 6 14.8225 6C14.8199 6 14.8173 6 14.8148 6C14.8122 6 14.8096 6 14.8071 6C14.8045 6 14.8019 6 14.7993 6C14.7968 6 14.7942 6 14.7916 6C14.789 6 14.7865 6 14.7839 6C14.7813 6 14.7787 6 14.7762 6C14.7736 6 14.771 6 14.7684 6C14.7659 6 14.7633 6 14.7607 6C14.7582 6 14.7556 6 14.753 6C14.7504 6 14.7479 6 14.7453 6C14.7427 6 14.7401 6 14.7376 6C14.735 6 14.7324 6 14.7298 6C14.7273 6 14.7247 6 14.7221 6C14.7195 6 14.717 6 14.7144 6C14.7118 6 14.7092 6 14.7067 6C14.7041 6 14.7015 6 14.6989 6C14.6964 6 14.6938 6 14.6912 6C14.6887 6 14.6861 6 14.6835 6C14.6809 6 14.6784 6 14.6758 6C14.6732 6 14.6706 6 14.6681 6C14.6655 6 14.6629 6 14.6603 6C14.6578 6 14.6552 6 14.6526 6C14.65 6 14.6475 6 14.6449 6C14.6423 6 14.6397 6 14.6371 6C14.6346 6 14.632 6 14.6294 6C14.6268 6 14.6243 6 14.6217 6C14.6191 6 14.6165 6 14.614 6C14.6114 6 14.6088 6 14.6062 6C14.6037 6 14.6011 6 14.5985 6C14.5959 6 14.5934 6 14.5908 6C14.5882 6 14.5856 6 14.5831 6C14.5805 6 14.5779 6 14.5753 6C14.5727 6 14.5702 6 14.5676 6C14.565 6 14.5624 6 14.5599 6C14.5573 6 14.5547 6 14.5521 6C14.5496 6 14.547 6 14.5444 6C14.5418 6 14.5392 6 14.5367 6C14.5341 6 14.5315 6 14.5289 6C14.5264 6 14.5238 6 14.5212 6C14.5186 6 14.516 6 14.5135 6C14.5109 6 14.5083 6 14.5057 6C14.5032 6 14.5006 6 14.498 6C14.4954 6 14.4928 6 14.4903 6C14.4877 6 14.4851 6 14.4825 6C14.4799 6 14.4774 6 14.4748 6C14.4722 6 14.4696 6 14.4671 6C14.4645 6 14.4619 6 14.4593 6C14.4567 6 14.4542 6 14.4516 6C14.449 6 14.4464 6 14.4438 6C14.4413 6 14.4387 6 14.4361 6C14.4335 6 14.4309 6 14.4284 6C14.4258 6 14.4232 6 14.4206 6C14.418 6 14.4155 6 14.4129 6C14.4103 6 14.4077 6 14.4051 6C14.4026 6 14.4 6 14.3974 6C14.3948 6 14.3922 6 14.3896 6C14.3871 6 14.3845 6 14.3819 6C14.3793 6 14.3767 6 14.3742 6C14.3716 6 14.369 6 14.3664 6C14.3638 6 14.3612 6 14.3587 6C14.3561 6 14.3535 6 14.3509 6C14.3483 6 14.3458 6 14.3432 6C14.3406 6 14.338 6 14.3354 6C14.3328 6 14.3303 6 14.3277 6C14.3251 6 14.3225 6 14.3199 6C14.3173 6 14.3148 6 14.3122 6C14.3096 6 14.307 6 14.3044 6C14.3018 6 14.2993 6 14.2967 6C14.2941 6 14.2915 6 14.2889 6C14.2863 6 14.2837 6 14.2812 6C14.2786 6 14.276 6 14.2734 6C14.2708 6 14.2682 6 14.2656 6C14.2631 6 14.2605 6 14.2579 6C14.2553 6 14.2527 6 14.2501 6C14.2475 6 14.245 6 14.2424 6C14.2398 6 14.2372 6 14.2346 6C14.232 6 14.2294 6 14.2269 6C14.2243 6 14.2217 6 14.2191 6C14.2165 6 14.2139 6 14.2113 6C14.2088 6 14.2062 6 14.2036 6C14.201 6 14.1984 6 14.1958 6C14.1932 6 14.1906 6 14.188 6C14.1855 6 14.1829 6 14.1803 6C14.1777 6 14.1751 6 14.1725 6C14.1699 6 14.1673 6 14.1648 6C14.1622 6 14.1596 6 14.157 6C14.1544 6 14.1518 6 14.1492 6C14.1466 6 14.144 6 14.1414 6C14.1389 6 14.1363 6 14.1337 6C14.1311 6 14.1285 6 14.1259 6C14.1233 6 14.1207 6 14.1181 6C14.1155 6 14.1129 6 14.1104 6C14.1078 6 14.1052 6 14.1026 6C14.1 6 14.0974 6 14.0948 6C14.0922 6 14.0896 6 14.087 6C14.0844 6 14.0818 6 14.0793 6C14.0767 6 14.0741 6 14.0715 6C14.0689 6 14.0663 6 14.0637 6C14.0611 6 14.0585 6 14.0559 6C14.0533 6 14.0507 6 14.0481 6C14.0455 6 14.0429 6 14.0403 6C14.0378 6 14.0352 6 14.0326 6C14.03 6 14.0274 6 14.0248 6C14.0222 6 14.0196 6 14.017 6C14.0144 6 14.0118 6 14.0092 6C14.0066 6 14.004 6 14.0014 6C13.9988 6 13.9962 6 13.9936 6C13.991 6 13.9884 6 13.9858 6C13.9832 6 13.9806 6 13.978 6C13.9755 6 13.9729 6 13.9703 6C13.9677 6 13.9651 6 13.9625 6C13.9599 6 13.9573 6 13.9547 6C13.9521 6 13.9495 6 13.9469 6C13.9443 6 13.9417 6 13.9391 6C13.9365 6 13.9339 6 13.9313 6C13.9287 6 13.9261 6 13.9235 6C13.9209 6 13.9183 6 13.9157 6C13.9131 6 13.9105 6 13.9079 6C13.9053 6 13.9027 6 13.9001 6C13.8975 6 13.8949 6 13.8923 6C13.8897 6 13.8871 6 13.8845 6C13.8819 6 13.8793 6 13.8767 6C13.8741 6 13.8714 6 13.8688 6C13.8662 6 13.8636 6 13.861 6C13.8584 6 13.8558 6 13.8532 6C13.8506 6 13.848 6 13.8454 6C13.8428 6 13.8402 6 13.8376 6C13.835 6 13.8324 6 13.8298 6C13.8272 6 13.8246 6 13.822 6C13.8194 6 13.8168 6 13.8142 6C13.8115 6 13.8089 6 13.8063 6C13.8037 6 13.8011 6 13.7985 6C13.7959 6 13.7933 6 13.7907 6C13.7881 6 13.7855 6 13.7829 6C13.7803 6 13.7777 6 13.775 6C13.7724 6 13.7698 6 13.7672 6C13.7646 6 13.762 6 13.7594 6C13.7568 6 13.7542 6 13.7516 6C13.749 6 13.7463 6 13.7437 6C13.7411 6 13.7385 6 13.7359 6C13.7333 6 13.7307 6 13.7281 6C13.7255 6 13.7229 6 13.7202 6C13.7176 6 13.715 6 13.7124 6C13.7098 6 13.7072 6 13.7046 6C13.702 6 13.6993 6 13.6967 6C13.6941 6 13.6915 6 13.6889 6C13.6863 6 13.6837 6 13.6811 6C13.6784 6 13.6758 6 13.6732 6C13.6706 6 13.668 6 13.6654 6C13.6628 6 13.6601 6 13.6575 6C13.6549 6 13.6523 6 13.6497 6C13.6471 6 13.6444 6 13.6418 6C13.6392 6 13.6366 6 13.634 6C13.6314 6 13.6287 6 13.6261 6C13.6235 6 13.6209 6 13.6183 6C13.6157 6 13.613 6 13.6104 6C13.6078 6 13.6052 6 13.6026 6C13.5999 6 13.5973 6 13.5947 6C13.5921 6 13.5895 6 13.5869 6C13.5842 6 13.5816 6 13.579 6C13.5764 6 13.5738 6 13.5711 6C13.5685 6 13.5659 6 13.5633 6C13.5606 6 13.558 6 13.5554 6C13.5528 6 13.5502 6 13.5475 6C13.5449 6 13.5423 6 13.5397 6C13.537 6 13.5344 6 13.5318 6C13.5292 6 13.5265 6 13.5239 6C13.5213 6 13.5187 6 13.5161 6C13.5134 6 13.5108 6 13.5082 6C13.5056 6 13.5029 6 13.5003 6C13.4977 6 13.495 6 13.4924 6C13.4898 6 13.4872 6 13.4845 6C13.4819 6 13.4793 6 13.4767 6C13.474 6 13.4714 6 13.4688 6C13.4661 6 13.4635 6 13.4609 6C13.4583 6 13.4556 6 13.453 6C13.4504 6 13.4477 6 13.4451 6C13.4425 6 13.4399 6 13.4372 6C13.4346 6 13.432 6 13.4293 6C13.4267 6 13.4241 6 13.4214 6C13.4188 6 13.4162 6 13.4135 6C13.4109 6 13.4083 6 13.4057 6C13.403 6 13.4004 6 13.3978 6C13.3951 6 13.3925 6 13.3899 6C13.3872 6 13.3846 6 13.3819 6C13.3793 6 13.3767 6 13.374 6C13.3714 6 13.3688 6 13.3661 6C13.3635 6 13.3609 6 13.3582 6C13.3556 6 13.353 6 13.3503 6C13.3477 6 13.345 6 13.3424 6C13.3398 6 13.3371 6 13.3345 6C13.3319 6 13.3292 6 13.3266 6C13.3239 6 13.3213 6 13.3187 6C13.316 6 13.3134 6 13.3107 6C13.3081 6 13.3055 6 13.3028 6C13.3002 6 13.2975 6 13.2949 6C13.2923 6 13.2896 6 13.287 6C13.2843 6 13.2817 6 13.2791 6C13.2764 6 13.2738 6 13.2711 6C13.2685 6 13.2658 6 13.2632 6C13.2606 6 13.2579 6 13.2553 6C13.2526 6 13.25 6 13.2473 6C13.2447 6 13.242 6 13.2394 6C13.2368 6 13.2341 6 13.2315 6C13.2288 6 13.2262 6 13.2235 6C13.2209 6 13.2182 6 13.2156 6C13.2129 6 13.2103 6 13.2076 6C13.205 6 13.2023 6 13.1997 6C13.197 6 13.1944 6 13.1917 6C13.1891 6 13.1864 6 13.1838 6C13.1811 6 13.1785 6 13.1758 6C13.1732 6 13.1705 6 13.1679 6C13.1652 6 13.1626 6 13.1599 6C13.1573 6 13.1546 6 13.152 6C13.1493 6 13.1467 6 13.144 6C13.1414 6 13.1387 6 13.1361 6C13.1334 6 13.1307 6 13.1281 6C13.1254 6 13.1228 6 13.1201 6C13.1175 6 13.1148 6 13.1122 6C13.1095 6 13.1068 6 13.1042 6C13.1015 6 13.0989 6 13.0962 6C13.0936 6 13.0909 6 13.0882 6C13.0856 6 13.0829 6 13.0803 6C13.0776 6 13.0749 6 13.0723 6C13.0696 6 13.067 6 13.0643 6C13.0616 6 13.059 6 13.0563 6C13.0537 6 13.051 6 13.0483 6C13.0457 6 13.043 6 13.0403 6C13.0377 6 13.035 6 13.0324 6C13.0297 6 13.027 6 13.0244 6C13.0217 6 13.019 6 13.0164 6C13.0137 6 13.011 6 13.0084 6C13.0057 6 13.003 6 13.0004 6V8ZM13 20C12.0289 20 11.4012 19.9979 10.9387 19.9357C10.505 19.8774 10.369 19.7832 10.2929 19.7071L8.87868 21.1213C9.38834 21.631 10.0167 21.8297 10.6722 21.9179C11.299 22.0021 12.0855 22 13 22V20ZM8 17C8 17.9145 7.99788 18.701 8.08214 19.3278C8.17027 19.9833 8.36902 20.6117 8.87868 21.1213L10.2929 19.7071C10.2168 19.631 10.1226 19.495 10.0643 19.0613C10.0021 18.5988 10 17.9711 10 17H8ZM20 17C20 17.9711 19.9979 18.5988 19.9357 19.0613C19.8774 19.495 19.7832 19.631 19.7071 19.7071L21.1213 21.1213C21.631 20.6117 21.8297 19.9833 21.9179 19.3278C22.0021 18.701 22 17.9145 22 17H20ZM17 22C17.9145 22 18.701 22.0021 19.3278 21.9179C19.9833 21.8297 20.6117 21.631 21.1213 21.1213L19.7071 19.7071C19.631 19.7832 19.495 19.8774 19.0613 19.9357C18.5988 19.9979 17.9711 20 17 20V22ZM22 11C22 10.0855 22.0021 9.29896 21.9179 8.67221C21.8297 8.01669 21.631 7.38834 21.1213 6.87868L19.7071 8.29289C19.7832 8.36902 19.8774 8.50496 19.9357 8.9387C19.9979 9.40121 20 10.0289 20 11H22ZM16.9996 8C17.9708 8 18.5986 8.00212 19.0612 8.06431C19.495 8.12263 19.631 8.21679 19.7071 8.29289L21.1213 6.87868C20.6116 6.369 19.9832 6.17026 19.3277 6.08214C18.7009 5.99788 17.9143 6 16.9996 6V8ZM10 11C10 10.0289 10.0021 9.40121 10.0643 8.9387C10.1226 8.50496 10.2168 8.36902 10.2929 8.29289L8.87868 6.87868C8.36902 7.38834 8.17027 8.01669 8.08214 8.67221C7.99788 9.29896 8 10.0855 8 11H10ZM13.0004 6C12.0857 6 11.2991 5.99788 10.6723 6.08214C10.0168 6.17026 9.38836 6.369 8.87868 6.87868L10.2929 8.29289C10.369 8.21679 10.505 8.12263 10.9388 8.06431C11.4014 8.00212 12.0292 8 13.0004 8V6Z" fill="white"/>
<path d="M4.58579 16.4142L3.87868 17.1213L4.58579 16.4142ZM15.4142 3.58579L14.7071 4.29289L15.4142 3.58579ZM5 13V7H3V13H5ZM8.00038 4C8.00305 4 8.00571 4 8.00838 4C8.01104 4 8.01371 4 8.01637 4C8.01904 4 8.0217 4 8.02437 4C8.02703 4 8.0297 4 8.03236 4C8.03502 4 8.03769 4 8.04035 4C8.04301 4 8.04567 4 8.04834 4C8.051 4 8.05366 4 8.05632 4C8.05898 4 8.06164 4 8.0643 4C8.06696 4 8.06962 4 8.07228 4C8.07494 4 8.0776 4 8.08026 4C8.08292 4 8.08558 4 8.08824 4C8.0909 4 8.09355 4 8.09621 4C8.09887 4 8.10153 4 8.10418 4C8.10684 4 8.1095 4 8.11215 4C8.11481 4 8.11747 4 8.12012 4C8.12278 4 8.12543 4 8.12809 4C8.13074 4 8.1334 4 8.13605 4C8.13871 4 8.14136 4 8.14401 4C8.14667 4 8.14932 4 8.15197 4C8.15463 4 8.15728 4 8.15993 4C8.16258 4 8.16523 4 8.16789 4C8.17054 4 8.17319 4 8.17584 4C8.17849 4 8.18114 4 8.18379 4C8.18644 4 8.18909 4 8.19174 4C8.19439 4 8.19704 4 8.19969 4C8.20234 4 8.20499 4 8.20763 4C8.21028 4 8.21293 4 8.21558 4C8.21822 4 8.22087 4 8.22352 4C8.22617 4 8.22881 4 8.23146 4C8.2341 4 8.23675 4 8.2394 4C8.24204 4 8.24469 4 8.24733 4C8.24998 4 8.25262 4 8.25527 4C8.25791 4 8.26055 4 8.2632 4C8.26584 4 8.26848 4 8.27113 4C8.27377 4 8.27641 4 8.27906 4C8.2817 4 8.28434 4 8.28698 4C8.28962 4 8.29226 4 8.29491 4C8.29755 4 8.30019 4 8.30283 4C8.30547 4 8.30811 4 8.31075 4C8.31339 4 8.31603 4 8.31867 4C8.32131 4 8.32395 4 8.32658 4C8.32922 4 8.33186 4 8.3345 4C8.33714 4 8.33977 4 8.34241 4C8.34505 4 8.34769 4 8.35032 4C8.35296 4 8.3556 4 8.35823 4C8.36087 4 8.3635 4 8.36614 4C8.36878 4 8.37141 4 8.37405 4C8.37668 4 8.37932 4 8.38195 4C8.38458 4 8.38722 4 8.38985 4C8.39249 4 8.39512 4 8.39775 4C8.40039 4 8.40302 4 8.40565 4C8.40828 4 8.41092 4 8.41355 4C8.41618 4 8.41881 4 8.42144 4C8.42407 4 8.42671 4 8.42934 4C8.43197 4 8.4346 4 8.43723 4C8.43986 4 8.44249 4 8.44512 4C8.44775 4 8.45038 4 8.45301 4C8.45564 4 8.45826 4 8.46089 4C8.46352 4 8.46615 4 8.46878 4C8.47141 4 8.47403 4 8.47666 4C8.47929 4 8.48192 4 8.48454 4C8.48717 4 8.4898 4 8.49242 4C8.49505 4 8.49767 4 8.5003 4C8.50293 4 8.50555 4 8.50818 4C8.5108 4 8.51343 4 8.51605 4C8.51868 4 8.5213 4 8.52392 4C8.52655 4 8.52917 4 8.5318 4C8.53442 4 8.53704 4 8.53967 4C8.54229 4 8.54491 4 8.54753 4C8.55016 4 8.55278 4 8.5554 4C8.55802 4 8.56064 4 8.56327 4C8.56589 4 8.56851 4 8.57113 4C8.57375 4 8.57637 4 8.57899 4C8.58161 4 8.58423 4 8.58685 4C8.58947 4 8.59209 4 8.59471 4C8.59733 4 8.59995 4 8.60257 4C8.60519 4 8.6078 4 8.61042 4C8.61304 4 8.61566 4 8.61828 4C8.62089 4 8.62351 4 8.62613 4C8.62875 4 8.63136 4 8.63398 4C8.6366 4 8.63921 4 8.64183 4C8.64445 4 8.64706 4 8.64968 4C8.65229 4 8.65491 4 8.65752 4C8.66014 4 8.66275 4 8.66537 4C8.66798 4 8.6706 4 8.67321 4C8.67583 4 8.67844 4 8.68106 4C8.68367 4 8.68628 4 8.6889 4C8.69151 4 8.69412 4 8.69673 4C8.69935 4 8.70196 4 8.70457 4C8.70718 4 8.7098 4 8.71241 4C8.71502 4 8.71763 4 8.72024 4C8.72286 4 8.72547 4 8.72808 4C8.73069 4 8.7333 4 8.73591 4C8.73852 4 8.74113 4 8.74374 4C8.74635 4 8.74896 4 8.75157 4C8.75418 4 8.75679 4 8.7594 4C8.76201 4 8.76461 4 8.76722 4C8.76983 4 8.77244 4 8.77505 4C8.77766 4 8.78026 4 8.78287 4C8.78548 4 8.78809 4 8.79069 4C8.7933 4 8.79591 4 8.79852 4C8.80112 4 8.80373 4 8.80634 4C8.80894 4 8.81155 4 8.81415 4C8.81676 4 8.81937 4 8.82197 4C8.82458 4 8.82718 4 8.82979 4C8.83239 4 8.835 4 8.8376 4C8.84021 4 8.84281 4 8.84541 4C8.84802 4 8.85062 4 8.85323 4C8.85583 4 8.85843 4 8.86104 4C8.86364 4 8.86624 4 8.86885 4C8.87145 4 8.87405 4 8.87665 4C8.87926 4 8.88186 4 8.88446 4C8.88706 4 8.88967 4 8.89227 4C8.89487 4 8.89747 4 8.90007 4C8.90267 4 8.90527 4 8.90787 4C8.91048 4 8.91308 4 8.91568 4C8.91828 4 8.92088 4 8.92348 4C8.92608 4 8.92868 4 8.93128 4C8.93388 4 8.93648 4 8.93907 4C8.94167 4 8.94427 4 8.94687 4C8.94947 4 8.95207 4 8.95467 4C8.95727 4 8.95986 4 8.96246 4C8.96506 4 8.96766 4 8.97026 4C8.97285 4 8.97545 4 8.97805 4C8.98065 4 8.98324 4 8.98584 4C8.98844 4 8.99103 4 8.99363 4C8.99623 4 8.99882 4 9.00142 4C9.00402 4 9.00661 4 9.00921 4C9.0118 4 9.0144 4 9.017 4C9.01959 4 9.02219 4 9.02478 4C9.02738 4 9.02997 4 9.03257 4C9.03516 4 9.03776 4 9.04035 4C9.04294 4 9.04554 4 9.04813 4C9.05073 4 9.05332 4 9.05591 4C9.05851 4 9.0611 4 9.06369 4C9.06629 4 9.06888 4 9.07147 4C9.07407 4 9.07666 4 9.07925 4C9.08185 4 9.08444 4 9.08703 4C9.08962 4 9.09221 4 9.09481 4C9.0974 4 9.09999 4 9.10258 4C9.10517 4 9.10776 4 9.11036 4C9.11295 4 9.11554 4 9.11813 4C9.12072 4 9.12331 4 9.1259 4C9.12849 4 9.13108 4 9.13367 4C9.13626 4 9.13885 4 9.14144 4C9.14403 4 9.14662 4 9.14921 4C9.1518 4 9.15439 4 9.15698 4C9.15957 4 9.16216 4 9.16475 4C9.16734 4 9.16993 4 9.17252 4C9.17511 4 9.17769 4 9.18028 4C9.18287 4 9.18546 4 9.18805 4C9.19064 4 9.19322 4 9.19581 4C9.1984 4 9.20099 4 9.20357 4C9.20616 4 9.20875 4 9.21134 4C9.21392 4 9.21651 4 9.2191 4C9.22169 4 9.22427 4 9.22686 4C9.22945 4 9.23203 4 9.23462 4C9.23721 4 9.23979 4 9.24238 4C9.24496 4 9.24755 4 9.25014 4C9.25272 4 9.25531 4 9.25789 4C9.26048 4 9.26306 4 9.26565 4C9.26823 4 9.27082 4 9.2734 4C9.27599 4 9.27857 4 9.28116 4C9.28374 4 9.28633 4 9.28891 4C9.2915 4 9.29408 4 9.29667 4C9.29925 4 9.30183 4 9.30442 4C9.307 4 9.30959 4 9.31217 4C9.31475 4 9.31734 4 9.31992 4C9.3225 4 9.32509 4 9.32767 4C9.33025 4 9.33284 4 9.33542 4C9.338 4 9.34059 4 9.34317 4C9.34575 4 9.34833 4 9.35092 4C9.3535 4 9.35608 4 9.35866 4C9.36125 4 9.36383 4 9.36641 4C9.36899 4 9.37157 4 9.37416 4C9.37674 4 9.37932 4 9.3819 4C9.38448 4 9.38706 4 9.38964 4C9.39223 4 9.39481 4 9.39739 4C9.39997 4 9.40255 4 9.40513 4C9.40771 4 9.41029 4 9.41287 4C9.41545 4 9.41803 4 9.42061 4C9.4232 4 9.42578 4 9.42836 4C9.43094 4 9.43352 4 9.4361 4C9.43868 4 9.44126 4 9.44384 4C9.44642 4 9.449 4 9.45157 4C9.45415 4 9.45673 4 9.45931 4C9.46189 4 9.46447 4 9.46705 4C9.46963 4 9.47221 4 9.47479 4C9.47737 4 9.47995 4 9.48252 4C9.4851 4 9.48768 4 9.49026 4C9.49284 4 9.49542 4 9.498 4C9.50057 4 9.50315 4 9.50573 4C9.50831 4 9.51089 4 9.51347 4C9.51604 4 9.51862 4 9.5212 4C9.52378 4 9.52636 4 9.52893 4C9.53151 4 9.53409 4 9.53667 4C9.53924 4 9.54182 4 9.5444 4C9.54698 4 9.54955 4 9.55213 4C9.55471 4 9.55728 4 9.55986 4C9.56244 4 9.56502 4 9.56759 4C9.57017 4 9.57275 4 9.57532 4C9.5779 4 9.58048 4 9.58305 4C9.58563 4 9.58821 4 9.59078 4C9.59336 4 9.59593 4 9.59851 4C9.60109 4 9.60366 4 9.60624 4C9.60882 4 9.61139 4 9.61397 4C9.61654 4 9.61912 4 9.62169 4C9.62427 4 9.62685 4 9.62942 4C9.632 4 9.63457 4 9.63715 4C9.63972 4 9.6423 4 9.64488 4C9.64745 4 9.65003 4 9.6526 4C9.65518 4 9.65775 4 9.66033 4C9.6629 4 9.66548 4 9.66805 4C9.67063 4 9.6732 4 9.67578 4C9.67835 4 9.68093 4 9.6835 4C9.68608 4 9.68865 4 9.69123 4C9.6938 4 9.69637 4 9.69895 4C9.70152 4 9.7041 4 9.70667 4C9.70925 4 9.71182 4 9.7144 4C9.71697 4 9.71954 4 9.72212 4C9.72469 4 9.72727 4 9.72984 4C9.73242 4 9.73499 4 9.73756 4C9.74014 4 9.74271 4 9.74529 4C9.74786 4 9.75043 4 9.75301 4C9.75558 4 9.75815 4 9.76073 4C9.7633 4 9.76588 4 9.76845 4C9.77102 4 9.7736 4 9.77617 4C9.77874 4 9.78132 4 9.78389 4C9.78646 4 9.78904 4 9.79161 4C9.79418 4 9.79676 4 9.79933 4C9.8019 4 9.80448 4 9.80705 4C9.80962 4 9.8122 4 9.81477 4C9.81734 4 9.81992 4 9.82249 4C9.82506 4 9.82764 4 9.83021 4C9.83278 4 9.83536 4 9.83793 4C9.8405 4 9.84307 4 9.84565 4C9.84822 4 9.85079 4 9.85337 4C9.85594 4 9.85851 4 9.86108 4C9.86366 4 9.86623 4 9.8688 4C9.87138 4 9.87395 4 9.87652 4C9.87909 4 9.88167 4 9.88424 4C9.88681 4 9.88938 4 9.89196 4C9.89453 4 9.8971 4 9.89967 4C9.90225 4 9.90482 4 9.90739 4C9.90997 4 9.91254 4 9.91511 4C9.91768 4 9.92026 4 9.92283 4C9.9254 4 9.92797 4 9.93055 4C9.93312 4 9.93569 4 9.93826 4C9.94084 4 9.94341 4 9.94598 4C9.94855 4 9.95112 4 9.9537 4C9.95627 4 9.95884 4 9.96141 4C9.96399 4 9.96656 4 9.96913 4C9.9717 4 9.97428 4 9.97685 4C9.97942 4 9.98199 4 9.98457 4C9.98714 4 9.98971 4 9.99228 4C9.99486 4 9.99743 4 10 4C10.0026 4 10.0051 4 10.0077 4C10.0103 4 10.0129 4 10.0154 4C10.018 4 10.0206 4 10.0232 4C10.0257 4 10.0283 4 10.0309 4C10.0334 4 10.036 4 10.0386 4C10.0412 4 10.0437 4 10.0463 4C10.0489 4 10.0514 4 10.054 4C10.0566 4 10.0592 4 10.0617 4C10.0643 4 10.0669 4 10.0695 4C10.072 4 10.0746 4 10.0772 4C10.0797 4 10.0823 4 10.0849 4C10.0875 4 10.09 4 10.0926 4C10.0952 4 10.0978 4 10.1003 4C10.1029 4 10.1055 4 10.108 4C10.1106 4 10.1132 4 10.1158 4C10.1183 4 10.1209 4 10.1235 4C10.1261 4 10.1286 4 10.1312 4C10.1338 4 10.1363 4 10.1389 4C10.1415 4 10.1441 4 10.1466 4C10.1492 4 10.1518 4 10.1544 4C10.1569 4 10.1595 4 10.1621 4C10.1646 4 10.1672 4 10.1698 4C10.1724 4 10.1749 4 10.1775 4C10.1801 4 10.1827 4 10.1852 4C10.1878 4 10.1904 4 10.1929 4C10.1955 4 10.1981 4 10.2007 4C10.2032 4 10.2058 4 10.2084 4C10.211 4 10.2135 4 10.2161 4C10.2187 4 10.2213 4 10.2238 4C10.2264 4 10.229 4 10.2316 4C10.2341 4 10.2367 4 10.2393 4C10.2418 4 10.2444 4 10.247 4C10.2496 4 10.2521 4 10.2547 4C10.2573 4 10.2599 4 10.2624 4C10.265 4 10.2676 4 10.2702 4C10.2727 4 10.2753 4 10.2779 4C10.2805 4 10.283 4 10.2856 4C10.2882 4 10.2908 4 10.2933 4C10.2959 4 10.2985 4 10.3011 4C10.3036 4 10.3062 4 10.3088 4C10.3113 4 10.3139 4 10.3165 4C10.3191 4 10.3216 4 10.3242 4C10.3268 4 10.3294 4 10.3319 4C10.3345 4 10.3371 4 10.3397 4C10.3422 4 10.3448 4 10.3474 4C10.35 4 10.3525 4 10.3551 4C10.3577 4 10.3603 4 10.3629 4C10.3654 4 10.368 4 10.3706 4C10.3732 4 10.3757 4 10.3783 4C10.3809 4 10.3835 4 10.386 4C10.3886 4 10.3912 4 10.3938 4C10.3963 4 10.3989 4 10.4015 4C10.4041 4 10.4066 4 10.4092 4C10.4118 4 10.4144 4 10.4169 4C10.4195 4 10.4221 4 10.4247 4C10.4273 4 10.4298 4 10.4324 4C10.435 4 10.4376 4 10.4401 4C10.4427 4 10.4453 4 10.4479 4C10.4504 4 10.453 4 10.4556 4C10.4582 4 10.4608 4 10.4633 4C10.4659 4 10.4685 4 10.4711 4C10.4736 4 10.4762 4 10.4788 4C10.4814 4 10.484 4 10.4865 4C10.4891 4 10.4917 4 10.4943 4C10.4968 4 10.4994 4 10.502 4C10.5046 4 10.5072 4 10.5097 4C10.5123 4 10.5149 4 10.5175 4C10.5201 4 10.5226 4 10.5252 4C10.5278 4 10.5304 4 10.5329 4C10.5355 4 10.5381 4 10.5407 4C10.5433 4 10.5458 4 10.5484 4C10.551 4 10.5536 4 10.5562 4C10.5587 4 10.5613 4 10.5639 4C10.5665 4 10.5691 4 10.5716 4C10.5742 4 10.5768 4 10.5794 4C10.582 4 10.5845 4 10.5871 4C10.5897 4 10.5923 4 10.5949 4C10.5975 4 10.6 4 10.6026 4C10.6052 4 10.6078 4 10.6104 4C10.6129 4 10.6155 4 10.6181 4C10.6207 4 10.6233 4 10.6258 4C10.6284 4 10.631 4 10.6336 4C10.6362 4 10.6388 4 10.6413 4C10.6439 4 10.6465 4 10.6491 4C10.6517 4 10.6542 4 10.6568 4C10.6594 4 10.662 4 10.6646 4C10.6672 4 10.6697 4 10.6723 4C10.6749 4 10.6775 4 10.6801 4C10.6827 4 10.6852 4 10.6878 4C10.6904 4 10.693 4 10.6956 4C10.6982 4 10.7008 4 10.7033 4C10.7059 4 10.7085 4 10.7111 4C10.7137 4 10.7163 4 10.7188 4C10.7214 4 10.724 4 10.7266 4C10.7292 4 10.7318 4 10.7344 4C10.7369 4 10.7395 4 10.7421 4C10.7447 4 10.7473 4 10.7499 4C10.7525 4 10.755 4 10.7576 4C10.7602 4 10.7628 4 10.7654 4C10.768 4 10.7706 4 10.7731 4C10.7757 4 10.7783 4 10.7809 4C10.7835 4 10.7861 4 10.7887 4C10.7913 4 10.7938 4 10.7964 4C10.799 4 10.8016 4 10.8042 4C10.8068 4 10.8094 4 10.812 4C10.8145 4 10.8171 4 10.8197 4C10.8223 4 10.8249 4 10.8275 4C10.8301 4 10.8327 4 10.8353 4C10.8378 4 10.8404 4 10.843 4C10.8456 4 10.8482 4 10.8508 4C10.8534 4 10.856 4 10.8586 4C10.8611 4 10.8637 4 10.8663 4C10.8689 4 10.8715 4 10.8741 4C10.8767 4 10.8793 4 10.8819 4C10.8845 4 10.8871 4 10.8896 4C10.8922 4 10.8948 4 10.8974 4C10.9 4 10.9026 4 10.9052 4C10.9078 4 10.9104 4 10.913 4C10.9156 4 10.9182 4 10.9207 4C10.9233 4 10.9259 4 10.9285 4C10.9311 4 10.9337 4 10.9363 4C10.9389 4 10.9415 4 10.9441 4C10.9467 4 10.9493 4 10.9519 4C10.9545 4 10.9571 4 10.9597 4C10.9622 4 10.9648 4 10.9674 4C10.97 4 10.9726 4 10.9752 4C10.9778 4 10.9804 4 10.983 4C10.9856 4 10.9882 4 10.9908 4C10.9934 4 10.996 4 10.9986 4C11.0012 4 11.0038 4 11.0064 4C11.009 4 11.0116 4 11.0142 4C11.0168 4 11.0194 4 11.022 4C11.0245 4 11.0271 4 11.0297 4C11.0323 4 11.0349 4 11.0375 4C11.0401 4 11.0427 4 11.0453 4C11.0479 4 11.0505 4 11.0531 4C11.0557 4 11.0583 4 11.0609 4C11.0635 4 11.0661 4 11.0687 4C11.0713 4 11.0739 4 11.0765 4C11.0791 4 11.0817 4 11.0843 4C11.0869 4 11.0895 4 11.0921 4C11.0947 4 11.0973 4 11.0999 4C11.1025 4 11.1051 4 11.1077 4C11.1103 4 11.1129 4 11.1155 4C11.1181 4 11.1207 4 11.1233 4C11.1259 4 11.1286 4 11.1312 4C11.1338 4 11.1364 4 11.139 4C11.1416 4 11.1442 4 11.1468 4C11.1494 4 11.152 4 11.1546 4C11.1572 4 11.1598 4 11.1624 4C11.165 4 11.1676 4 11.1702 4C11.1728 4 11.1754 4 11.178 4C11.1806 4 11.1832 4 11.1858 4C11.1885 4 11.1911 4 11.1937 4C11.1963 4 11.1989 4 11.2015 4C11.2041 4 11.2067 4 11.2093 4C11.2119 4 11.2145 4 11.2171 4C11.2197 4 11.2223 4 11.225 4C11.2276 4 11.2302 4 11.2328 4C11.2354 4 11.238 4 11.2406 4C11.2432 4 11.2458 4 11.2484 4C11.251 4 11.2537 4 11.2563 4C11.2589 4 11.2615 4 11.2641 4C11.2667 4 11.2693 4 11.2719 4C11.2745 4 11.2771 4 11.2798 4C11.2824 4 11.285 4 11.2876 4C11.2902 4 11.2928 4 11.2954 4C11.298 4 11.3007 4 11.3033 4C11.3059 4 11.3085 4 11.3111 4C11.3137 4 11.3163 4 11.3189 4C11.3216 4 11.3242 4 11.3268 4C11.3294 4 11.332 4 11.3346 4C11.3372 4 11.3399 4 11.3425 4C11.3451 4 11.3477 4 11.3503 4C11.3529 4 11.3556 4 11.3582 4C11.3608 4 11.3634 4 11.366 4C11.3686 4 11.3713 4 11.3739 4C11.3765 4 11.3791 4 11.3817 4C11.3843 4 11.387 4 11.3896 4C11.3922 4 11.3948 4 11.3974 4C11.4001 4 11.4027 4 11.4053 4C11.4079 4 11.4105 4 11.4131 4C11.4158 4 11.4184 4 11.421 4C11.4236 4 11.4263 4 11.4289 4C11.4315 4 11.4341 4 11.4367 4C11.4394 4 11.442 4 11.4446 4C11.4472 4 11.4498 4 11.4525 4C11.4551 4 11.4577 4 11.4603 4C11.463 4 11.4656 4 11.4682 4C11.4708 4 11.4735 4 11.4761 4C11.4787 4 11.4813 4 11.4839 4C11.4866 4 11.4892 4 11.4918 4C11.4944 4 11.4971 4 11.4997 4C11.5023 4 11.505 4 11.5076 4C11.5102 4 11.5128 4 11.5155 4C11.5181 4 11.5207 4 11.5233 4C11.526 4 11.5286 4 11.5312 4C11.5339 4 11.5365 4 11.5391 4C11.5417 4 11.5444 4 11.547 4C11.5496 4 11.5523 4 11.5549 4C11.5575 4 11.5601 4 11.5628 4C11.5654 4 11.568 4 11.5707 4C11.5733 4 11.5759 4 11.5786 4C11.5812 4 11.5838 4 11.5865 4C11.5891 4 11.5917 4 11.5943 4C11.597 4 11.5996 4 11.6022 4C11.6049 4 11.6075 4 11.6101 4C11.6128 4 11.6154 4 11.6181 4C11.6207 4 11.6233 4 11.626 4C11.6286 4 11.6312 4 11.6339 4C11.6365 4 11.6391 4 11.6418 4C11.6444 4 11.647 4 11.6497 4C11.6523 4 11.655 4 11.6576 4C11.6602 4 11.6629 4 11.6655 4C11.6681 4 11.6708 4 11.6734 4C11.6761 4 11.6787 4 11.6813 4C11.684 4 11.6866 4 11.6893 4C11.6919 4 11.6945 4 11.6972 4C11.6998 4 11.7025 4 11.7051 4C11.7077 4 11.7104 4 11.713 4C11.7157 4 11.7183 4 11.7209 4C11.7236 4 11.7262 4 11.7289 4C11.7315 4 11.7342 4 11.7368 4C11.7394 4 11.7421 4 11.7447 4C11.7474 4 11.75 4 11.7527 4C11.7553 4 11.758 4 11.7606 4C11.7633 4 11.7659 4 11.7685 4C11.7712 4 11.7738 4 11.7765 4C11.7791 4 11.7818 4 11.7844 4C11.7871 4 11.7897 4 11.7924 4C11.795 4 11.7977 4 11.8003 4C11.803 4 11.8056 4 11.8083 4C11.8109 4 11.8136 4 11.8162 4C11.8189 4 11.8215 4 11.8242 4C11.8268 4 11.8295 4 11.8321 4C11.8348 4 11.8374 4 11.8401 4C11.8427 4 11.8454 4 11.848 4C11.8507 4 11.8533 4 11.856 4C11.8586 4 11.8613 4 11.8639 4C11.8666 4 11.8693 4 11.8719 4C11.8746 4 11.8772 4 11.8799 4C11.8825 4 11.8852 4 11.8878 4C11.8905 4 11.8932 4 11.8958 4C11.8985 4 11.9011 4 11.9038 4C11.9064 4 11.9091 4 11.9118 4C11.9144 4 11.9171 4 11.9197 4C11.9224 4 11.9251 4 11.9277 4C11.9304 4 11.933 4 11.9357 4C11.9384 4 11.941 4 11.9437 4C11.9463 4 11.949 4 11.9517 4C11.9543 4 11.957 4 11.9597 4C11.9623 4 11.965 4 11.9676 4C11.9703 4 11.973 4 11.9756 4C11.9783 4 11.981 4 11.9836 4C11.9863 4 11.989 4 11.9916 4C11.9943 4 11.997 4 11.9996 4V2C11.997 2 11.9943 2 11.9916 2C11.989 2 11.9863 2 11.9836 2C11.981 2 11.9783 2 11.9756 2C11.973 2 11.9703 2 11.9676 2C11.965 2 11.9623 2 11.9597 2C11.957 2 11.9543 2 11.9517 2C11.949 2 11.9463 2 11.9437 2C11.941 2 11.9384 2 11.9357 2C11.933 2 11.9304 2 11.9277 2C11.9251 2 11.9224 2 11.9197 2C11.9171 2 11.9144 2 11.9118 2C11.9091 2 11.9064 2 11.9038 2C11.9011 2 11.8985 2 11.8958 2C11.8932 2 11.8905 2 11.8878 2C11.8852 2 11.8825 2 11.8799 2C11.8772 2 11.8746 2 11.8719 2C11.8693 2 11.8666 2 11.8639 2C11.8613 2 11.8586 2 11.856 2C11.8533 2 11.8507 2 11.848 2C11.8454 2 11.8427 2 11.8401 2C11.8374 2 11.8348 2 11.8321 2C11.8295 2 11.8268 2 11.8242 2C11.8215 2 11.8189 2 11.8162 2C11.8136 2 11.8109 2 11.8083 2C11.8056 2 11.803 2 11.8003 2C11.7977 2 11.795 2 11.7924 2C11.7897 2 11.7871 2 11.7844 2C11.7818 2 11.7791 2 11.7765 2C11.7738 2 11.7712 2 11.7685 2C11.7659 2 11.7633 2 11.7606 2C11.758 2 11.7553 2 11.7527 2C11.75 2 11.7474 2 11.7447 2C11.7421 2 11.7394 2 11.7368 2C11.7342 2 11.7315 2 11.7289 2C11.7262 2 11.7236 2 11.7209 2C11.7183 2 11.7157 2 11.713 2C11.7104 2 11.7077 2 11.7051 2C11.7025 2 11.6998 2 11.6972 2C11.6945 2 11.6919 2 11.6893 2C11.6866 2 11.684 2 11.6813 2C11.6787 2 11.6761 2 11.6734 2C11.6708 2 11.6681 2 11.6655 2C11.6629 2 11.6602 2 11.6576 2C11.655 2 11.6523 2 11.6497 2C11.647 2 11.6444 2 11.6418 2C11.6391 2 11.6365 2 11.6339 2C11.6312 2 11.6286 2 11.626 2C11.6233 2 11.6207 2 11.6181 2C11.6154 2 11.6128 2 11.6101 2C11.6075 2 11.6049 2 11.6022 2C11.5996 2 11.597 2 11.5943 2C11.5917 2 11.5891 2 11.5865 2C11.5838 2 11.5812 2 11.5786 2C11.5759 2 11.5733 2 11.5707 2C11.568 2 11.5654 2 11.5628 2C11.5601 2 11.5575 2 11.5549 2C11.5523 2 11.5496 2 11.547 2C11.5444 2 11.5417 2 11.5391 2C11.5365 2 11.5339 2 11.5312 2C11.5286 2 11.526 2 11.5233 2C11.5207 2 11.5181 2 11.5155 2C11.5128 2 11.5102 2 11.5076 2C11.505 2 11.5023 2 11.4997 2C11.4971 2 11.4944 2 11.4918 2C11.4892 2 11.4866 2 11.4839 2C11.4813 2 11.4787 2 11.4761 2C11.4735 2 11.4708 2 11.4682 2C11.4656 2 11.463 2 11.4603 2C11.4577 2 11.4551 2 11.4525 2C11.4498 2 11.4472 2 11.4446 2C11.442 2 11.4394 2 11.4367 2C11.4341 2 11.4315 2 11.4289 2C11.4263 2 11.4236 2 11.421 2C11.4184 2 11.4158 2 11.4131 2C11.4105 2 11.4079 2 11.4053 2C11.4027 2 11.4001 2 11.3974 2C11.3948 2 11.3922 2 11.3896 2C11.387 2 11.3843 2 11.3817 2C11.3791 2 11.3765 2 11.3739 2C11.3713 2 11.3686 2 11.366 2C11.3634 2 11.3608 2 11.3582 2C11.3556 2 11.3529 2 11.3503 2C11.3477 2 11.3451 2 11.3425 2C11.3399 2 11.3372 2 11.3346 2C11.332 2 11.3294 2 11.3268 2C11.3242 2 11.3216 2 11.3189 2C11.3163 2 11.3137 2 11.3111 2C11.3085 2 11.3059 2 11.3033 2C11.3007 2 11.298 2 11.2954 2C11.2928 2 11.2902 2 11.2876 2C11.285 2 11.2824 2 11.2798 2C11.2771 2 11.2745 2 11.2719 2C11.2693 2 11.2667 2 11.2641 2C11.2615 2 11.2589 2 11.2563 2C11.2537 2 11.251 2 11.2484 2C11.2458 2 11.2432 2 11.2406 2C11.238 2 11.2354 2 11.2328 2C11.2302 2 11.2276 2 11.225 2C11.2223 2 11.2197 2 11.2171 2C11.2145 2 11.2119 2 11.2093 2C11.2067 2 11.2041 2 11.2015 2C11.1989 2 11.1963 2 11.1937 2C11.1911 2 11.1885 2 11.1858 2C11.1832 2 11.1806 2 11.178 2C11.1754 2 11.1728 2 11.1702 2C11.1676 2 11.165 2 11.1624 2C11.1598 2 11.1572 2 11.1546 2C11.152 2 11.1494 2 11.1468 2C11.1442 2 11.1416 2 11.139 2C11.1364 2 11.1338 2 11.1312 2C11.1286 2 11.1259 2 11.1233 2C11.1207 2 11.1181 2 11.1155 2C11.1129 2 11.1103 2 11.1077 2C11.1051 2 11.1025 2 11.0999 2C11.0973 2 11.0947 2 11.0921 2C11.0895 2 11.0869 2 11.0843 2C11.0817 2 11.0791 2 11.0765 2C11.0739 2 11.0713 2 11.0687 2C11.0661 2 11.0635 2 11.0609 2C11.0583 2 11.0557 2 11.0531 2C11.0505 2 11.0479 2 11.0453 2C11.0427 2 11.0401 2 11.0375 2C11.0349 2 11.0323 2 11.0297 2C11.0271 2 11.0245 2 11.022 2C11.0194 2 11.0168 2 11.0142 2C11.0116 2 11.009 2 11.0064 2C11.0038 2 11.0012 2 10.9986 2C10.996 2 10.9934 2 10.9908 2C10.9882 2 10.9856 2 10.983 2C10.9804 2 10.9778 2 10.9752 2C10.9726 2 10.97 2 10.9674 2C10.9648 2 10.9622 2 10.9597 2C10.9571 2 10.9545 2 10.9519 2C10.9493 2 10.9467 2 10.9441 2C10.9415 2 10.9389 2 10.9363 2C10.9337 2 10.9311 2 10.9285 2C10.9259 2 10.9233 2 10.9207 2C10.9182 2 10.9156 2 10.913 2C10.9104 2 10.9078 2 10.9052 2C10.9026 2 10.9 2 10.8974 2C10.8948 2 10.8922 2 10.8896 2C10.8871 2 10.8845 2 10.8819 2C10.8793 2 10.8767 2 10.8741 2C10.8715 2 10.8689 2 10.8663 2C10.8637 2 10.8611 2 10.8586 2C10.856 2 10.8534 2 10.8508 2C10.8482 2 10.8456 2 10.843 2C10.8404 2 10.8378 2 10.8353 2C10.8327 2 10.8301 2 10.8275 2C10.8249 2 10.8223 2 10.8197 2C10.8171 2 10.8145 2 10.812 2C10.8094 2 10.8068 2 10.8042 2C10.8016 2 10.799 2 10.7964 2C10.7938 2 10.7913 2 10.7887 2C10.7861 2 10.7835 2 10.7809 2C10.7783 2 10.7757 2 10.7731 2C10.7706 2 10.768 2 10.7654 2C10.7628 2 10.7602 2 10.7576 2C10.755 2 10.7525 2 10.7499 2C10.7473 2 10.7447 2 10.7421 2C10.7395 2 10.7369 2 10.7344 2C10.7318 2 10.7292 2 10.7266 2C10.724 2 10.7214 2 10.7188 2C10.7163 2 10.7137 2 10.7111 2C10.7085 2 10.7059 2 10.7033 2C10.7008 2 10.6982 2 10.6956 2C10.693 2 10.6904 2 10.6878 2C10.6852 2 10.6827 2 10.6801 2C10.6775 2 10.6749 2 10.6723 2C10.6697 2 10.6672 2 10.6646 2C10.662 2 10.6594 2 10.6568 2C10.6542 2 10.6517 2 10.6491 2C10.6465 2 10.6439 2 10.6413 2C10.6388 2 10.6362 2 10.6336 2C10.631 2 10.6284 2 10.6258 2C10.6233 2 10.6207 2 10.6181 2C10.6155 2 10.6129 2 10.6104 2C10.6078 2 10.6052 2 10.6026 2C10.6 2 10.5975 2 10.5949 2C10.5923 2 10.5897 2 10.5871 2C10.5845 2 10.582 2 10.5794 2C10.5768 2 10.5742 2 10.5716 2C10.5691 2 10.5665 2 10.5639 2C10.5613 2 10.5587 2 10.5562 2C10.5536 2 10.551 2 10.5484 2C10.5458 2 10.5433 2 10.5407 2C10.5381 2 10.5355 2 10.5329 2C10.5304 2 10.5278 2 10.5252 2C10.5226 2 10.5201 2 10.5175 2C10.5149 2 10.5123 2 10.5097 2C10.5072 2 10.5046 2 10.502 2C10.4994 2 10.4968 2 10.4943 2C10.4917 2 10.4891 2 10.4865 2C10.484 2 10.4814 2 10.4788 2C10.4762 2 10.4736 2 10.4711 2C10.4685 2 10.4659 2 10.4633 2C10.4608 2 10.4582 2 10.4556 2C10.453 2 10.4504 2 10.4479 2C10.4453 2 10.4427 2 10.4401 2C10.4376 2 10.435 2 10.4324 2C10.4298 2 10.4273 2 10.4247 2C10.4221 2 10.4195 2 10.4169 2C10.4144 2 10.4118 2 10.4092 2C10.4066 2 10.4041 2 10.4015 2C10.3989 2 10.3963 2 10.3938 2C10.3912 2 10.3886 2 10.386 2C10.3835 2 10.3809 2 10.3783 2C10.3757 2 10.3732 2 10.3706 2C10.368 2 10.3654 2 10.3629 2C10.3603 2 10.3577 2 10.3551 2C10.3525 2 10.35 2 10.3474 2C10.3448 2 10.3422 2 10.3397 2C10.3371 2 10.3345 2 10.3319 2C10.3294 2 10.3268 2 10.3242 2C10.3216 2 10.3191 2 10.3165 2C10.3139 2 10.3113 2 10.3088 2C10.3062 2 10.3036 2 10.3011 2C10.2985 2 10.2959 2 10.2933 2C10.2908 2 10.2882 2 10.2856 2C10.283 2 10.2805 2 10.2779 2C10.2753 2 10.2727 2 10.2702 2C10.2676 2 10.265 2 10.2624 2C10.2599 2 10.2573 2 10.2547 2C10.2521 2 10.2496 2 10.247 2C10.2444 2 10.2418 2 10.2393 2C10.2367 2 10.2341 2 10.2316 2C10.229 2 10.2264 2 10.2238 2C10.2213 2 10.2187 2 10.2161 2C10.2135 2 10.211 2 10.2084 2C10.2058 2 10.2032 2 10.2007 2C10.1981 2 10.1955 2 10.1929 2C10.1904 2 10.1878 2 10.1852 2C10.1827 2 10.1801 2 10.1775 2C10.1749 2 10.1724 2 10.1698 2C10.1672 2 10.1646 2 10.1621 2C10.1595 2 10.1569 2 10.1544 2C10.1518 2 10.1492 2 10.1466 2C10.1441 2 10.1415 2 10.1389 2C10.1363 2 10.1338 2 10.1312 2C10.1286 2 10.1261 2 10.1235 2C10.1209 2 10.1183 2 10.1158 2C10.1132 2 10.1106 2 10.108 2C10.1055 2 10.1029 2 10.1003 2C10.0978 2 10.0952 2 10.0926 2C10.09 2 10.0875 2 10.0849 2C10.0823 2 10.0797 2 10.0772 2C10.0746 2 10.072 2 10.0695 2C10.0669 2 10.0643 2 10.0617 2C10.0592 2 10.0566 2 10.054 2C10.0514 2 10.0489 2 10.0463 2C10.0437 2 10.0412 2 10.0386 2C10.036 2 10.0334 2 10.0309 2C10.0283 2 10.0257 2 10.0232 2C10.0206 2 10.018 2 10.0154 2C10.0129 2 10.0103 2 10.0077 2C10.0051 2 10.0026 2 10 2C9.99743 2 9.99486 2 9.99228 2C9.98971 2 9.98714 2 9.98457 2C9.98199 2 9.97942 2 9.97685 2C9.97428 2 9.9717 2 9.96913 2C9.96656 2 9.96399 2 9.96141 2C9.95884 2 9.95627 2 9.9537 2C9.95112 2 9.94855 2 9.94598 2C9.94341 2 9.94084 2 9.93826 2C9.93569 2 9.93312 2 9.93055 2C9.92797 2 9.9254 2 9.92283 2C9.92026 2 9.91768 2 9.91511 2C9.91254 2 9.90997 2 9.90739 2C9.90482 2 9.90225 2 9.89967 2C9.8971 2 9.89453 2 9.89196 2C9.88938 2 9.88681 2 9.88424 2C9.88167 2 9.87909 2 9.87652 2C9.87395 2 9.87138 2 9.8688 2C9.86623 2 9.86366 2 9.86108 2C9.85851 2 9.85594 2 9.85337 2C9.85079 2 9.84822 2 9.84565 2C9.84307 2 9.8405 2 9.83793 2C9.83536 2 9.83278 2 9.83021 2C9.82764 2 9.82506 2 9.82249 2C9.81992 2 9.81734 2 9.81477 2C9.8122 2 9.80962 2 9.80705 2C9.80448 2 9.8019 2 9.79933 2C9.79676 2 9.79418 2 9.79161 2C9.78904 2 9.78646 2 9.78389 2C9.78132 2 9.77874 2 9.77617 2C9.7736 2 9.77102 2 9.76845 2C9.76588 2 9.7633 2 9.76073 2C9.75815 2 9.75558 2 9.75301 2C9.75043 2 9.74786 2 9.74529 2C9.74271 2 9.74014 2 9.73756 2C9.73499 2 9.73242 2 9.72984 2C9.72727 2 9.72469 2 9.72212 2C9.71954 2 9.71697 2 9.7144 2C9.71182 2 9.70925 2 9.70667 2C9.7041 2 9.70152 2 9.69895 2C9.69637 2 9.6938 2 9.69123 2C9.68865 2 9.68608 2 9.6835 2C9.68093 2 9.67835 2 9.67578 2C9.6732 2 9.67063 2 9.66805 2C9.66548 2 9.6629 2 9.66033 2C9.65775 2 9.65518 2 9.6526 2C9.65003 2 9.64745 2 9.64488 2C9.6423 2 9.63972 2 9.63715 2C9.63457 2 9.632 2 9.62942 2C9.62685 2 9.62427 2 9.62169 2C9.61912 2 9.61654 2 9.61397 2C9.61139 2 9.60882 2 9.60624 2C9.60366 2 9.60109 2 9.59851 2C9.59593 2 9.59336 2 9.59078 2C9.58821 2 9.58563 2 9.58305 2C9.58048 2 9.5779 2 9.57532 2C9.57275 2 9.57017 2 9.56759 2C9.56502 2 9.56244 2 9.55986 2C9.55728 2 9.55471 2 9.55213 2C9.54955 2 9.54698 2 9.5444 2C9.54182 2 9.53924 2 9.53667 2C9.53409 2 9.53151 2 9.52893 2C9.52636 2 9.52378 2 9.5212 2C9.51862 2 9.51604 2 9.51347 2C9.51089 2 9.50831 2 9.50573 2C9.50315 2 9.50057 2 9.498 2C9.49542 2 9.49284 2 9.49026 2C9.48768 2 9.4851 2 9.48252 2C9.47995 2 9.47737 2 9.47479 2C9.47221 2 9.46963 2 9.46705 2C9.46447 2 9.46189 2 9.45931 2C9.45673 2 9.45415 2 9.45157 2C9.449 2 9.44642 2 9.44384 2C9.44126 2 9.43868 2 9.4361 2C9.43352 2 9.43094 2 9.42836 2C9.42578 2 9.4232 2 9.42061 2C9.41803 2 9.41545 2 9.41287 2C9.41029 2 9.40771 2 9.40513 2C9.40255 2 9.39997 2 9.39739 2C9.39481 2 9.39223 2 9.38964 2C9.38706 2 9.38448 2 9.3819 2C9.37932 2 9.37674 2 9.37416 2C9.37157 2 9.36899 2 9.36641 2C9.36383 2 9.36125 2 9.35866 2C9.35608 2 9.3535 2 9.35092 2C9.34833 2 9.34575 2 9.34317 2C9.34059 2 9.338 2 9.33542 2C9.33284 2 9.33025 2 9.32767 2C9.32509 2 9.3225 2 9.31992 2C9.31734 2 9.31475 2 9.31217 2C9.30959 2 9.307 2 9.30442 2C9.30183 2 9.29925 2 9.29667 2C9.29408 2 9.2915 2 9.28891 2C9.28633 2 9.28374 2 9.28116 2C9.27857 2 9.27599 2 9.2734 2C9.27082 2 9.26823 2 9.26565 2C9.26306 2 9.26048 2 9.25789 2C9.25531 2 9.25272 2 9.25014 2C9.24755 2 9.24496 2 9.24238 2C9.23979 2 9.23721 2 9.23462 2C9.23203 2 9.22945 2 9.22686 2C9.22427 2 9.22169 2 9.2191 2C9.21651 2 9.21392 2 9.21134 2C9.20875 2 9.20616 2 9.20357 2C9.20099 2 9.1984 2 9.19581 2C9.19322 2 9.19064 2 9.18805 2C9.18546 2 9.18287 2 9.18028 2C9.17769 2 9.17511 2 9.17252 2C9.16993 2 9.16734 2 9.16475 2C9.16216 2 9.15957 2 9.15698 2C9.15439 2 9.1518 2 9.14921 2C9.14662 2 9.14403 2 9.14144 2C9.13885 2 9.13626 2 9.13367 2C9.13108 2 9.12849 2 9.1259 2C9.12331 2 9.12072 2 9.11813 2C9.11554 2 9.11295 2 9.11036 2C9.10776 2 9.10517 2 9.10258 2C9.09999 2 9.0974 2 9.09481 2C9.09221 2 9.08962 2 9.08703 2C9.08444 2 9.08185 2 9.07925 2C9.07666 2 9.07407 2 9.07147 2C9.06888 2 9.06629 2 9.06369 2C9.0611 2 9.05851 2 9.05591 2C9.05332 2 9.05073 2 9.04813 2C9.04554 2 9.04294 2 9.04035 2C9.03776 2 9.03516 2 9.03257 2C9.02997 2 9.02738 2 9.02478 2C9.02219 2 9.01959 2 9.017 2C9.0144 2 9.0118 2 9.00921 2C9.00661 2 9.00402 2 9.00142 2C8.99882 2 8.99623 2 8.99363 2C8.99103 2 8.98844 2 8.98584 2C8.98324 2 8.98065 2 8.97805 2C8.97545 2 8.97285 2 8.97026 2C8.96766 2 8.96506 2 8.96246 2C8.95986 2 8.95727 2 8.95467 2C8.95207 2 8.94947 2 8.94687 2C8.94427 2 8.94167 2 8.93907 2C8.93648 2 8.93388 2 8.93128 2C8.92868 2 8.92608 2 8.92348 2C8.92088 2 8.91828 2 8.91568 2C8.91308 2 8.91048 2 8.90787 2C8.90527 2 8.90267 2 8.90007 2C8.89747 2 8.89487 2 8.89227 2C8.88967 2 8.88706 2 8.88446 2C8.88186 2 8.87926 2 8.87665 2C8.87405 2 8.87145 2 8.86885 2C8.86624 2 8.86364 2 8.86104 2C8.85843 2 8.85583 2 8.85323 2C8.85062 2 8.84802 2 8.84541 2C8.84281 2 8.84021 2 8.8376 2C8.835 2 8.83239 2 8.82979 2C8.82718 2 8.82458 2 8.82197 2C8.81937 2 8.81676 2 8.81415 2C8.81155 2 8.80894 2 8.80634 2C8.80373 2 8.80112 2 8.79852 2C8.79591 2 8.7933 2 8.79069 2C8.78809 2 8.78548 2 8.78287 2C8.78026 2 8.77766 2 8.77505 2C8.77244 2 8.76983 2 8.76722 2C8.76461 2 8.76201 2 8.7594 2C8.75679 2 8.75418 2 8.75157 2C8.74896 2 8.74635 2 8.74374 2C8.74113 2 8.73852 2 8.73591 2C8.7333 2 8.73069 2 8.72808 2C8.72547 2 8.72286 2 8.72024 2C8.71763 2 8.71502 2 8.71241 2C8.7098 2 8.70718 2 8.70457 2C8.70196 2 8.69935 2 8.69673 2C8.69412 2 8.69151 2 8.6889 2C8.68628 2 8.68367 2 8.68106 2C8.67844 2 8.67583 2 8.67321 2C8.6706 2 8.66798 2 8.66537 2C8.66275 2 8.66014 2 8.65752 2C8.65491 2 8.65229 2 8.64968 2C8.64706 2 8.64445 2 8.64183 2C8.63921 2 8.6366 2 8.63398 2C8.63136 2 8.62875 2 8.62613 2C8.62351 2 8.62089 2 8.61828 2C8.61566 2 8.61304 2 8.61042 2C8.6078 2 8.60519 2 8.60257 2C8.59995 2 8.59733 2 8.59471 2C8.59209 2 8.58947 2 8.58685 2C8.58423 2 8.58161 2 8.57899 2C8.57637 2 8.57375 2 8.57113 2C8.56851 2 8.56589 2 8.56327 2C8.56064 2 8.55802 2 8.5554 2C8.55278 2 8.55016 2 8.54753 2C8.54491 2 8.54229 2 8.53967 2C8.53704 2 8.53442 2 8.5318 2C8.52917 2 8.52655 2 8.52392 2C8.5213 2 8.51868 2 8.51605 2C8.51343 2 8.5108 2 8.50818 2C8.50555 2 8.50293 2 8.5003 2C8.49767 2 8.49505 2 8.49242 2C8.4898 2 8.48717 2 8.48454 2C8.48192 2 8.47929 2 8.47666 2C8.47403 2 8.47141 2 8.46878 2C8.46615 2 8.46352 2 8.46089 2C8.45826 2 8.45564 2 8.45301 2C8.45038 2 8.44775 2 8.44512 2C8.44249 2 8.43986 2 8.43723 2C8.4346 2 8.43197 2 8.42934 2C8.42671 2 8.42407 2 8.42144 2C8.41881 2 8.41618 2 8.41355 2C8.41092 2 8.40828 2 8.40565 2C8.40302 2 8.40039 2 8.39775 2C8.39512 2 8.39249 2 8.38985 2C8.38722 2 8.38458 2 8.38195 2C8.37932 2 8.37668 2 8.37405 2C8.37141 2 8.36878 2 8.36614 2C8.3635 2 8.36087 2 8.35823 2C8.3556 2 8.35296 2 8.35032 2C8.34769 2 8.34505 2 8.34241 2C8.33977 2 8.33714 2 8.3345 2C8.33186 2 8.32922 2 8.32658 2C8.32395 2 8.32131 2 8.31867 2C8.31603 2 8.31339 2 8.31075 2C8.30811 2 8.30547 2 8.30283 2C8.30019 2 8.29755 2 8.29491 2C8.29226 2 8.28962 2 8.28698 2C8.28434 2 8.2817 2 8.27906 2C8.27641 2 8.27377 2 8.27113 2C8.26848 2 8.26584 2 8.2632 2C8.26055 2 8.25791 2 8.25527 2C8.25262 2 8.24998 2 8.24733 2C8.24469 2 8.24204 2 8.2394 2C8.23675 2 8.2341 2 8.23146 2C8.22881 2 8.22617 2 8.22352 2C8.22087 2 8.21822 2 8.21558 2C8.21293 2 8.21028 2 8.20763 2C8.20499 2 8.20234 2 8.19969 2C8.19704 2 8.19439 2 8.19174 2C8.18909 2 8.18644 2 8.18379 2C8.18114 2 8.17849 2 8.17584 2C8.17319 2 8.17054 2 8.16789 2C8.16523 2 8.16258 2 8.15993 2C8.15728 2 8.15463 2 8.15197 2C8.14932 2 8.14667 2 8.14401 2C8.14136 2 8.13871 2 8.13605 2C8.1334 2 8.13074 2 8.12809 2C8.12543 2 8.12278 2 8.12012 2C8.11747 2 8.11481 2 8.11215 2C8.1095 2 8.10684 2 8.10418 2C8.10153 2 8.09887 2 8.09621 2C8.09355 2 8.0909 2 8.08824 2C8.08558 2 8.08292 2 8.08026 2C8.0776 2 8.07494 2 8.07228 2C8.06962 2 8.06696 2 8.0643 2C8.06164 2 8.05898 2 8.05632 2C8.05366 2 8.051 2 8.04834 2C8.04567 2 8.04301 2 8.04035 2C8.03769 2 8.03502 2 8.03236 2C8.0297 2 8.02703 2 8.02437 2C8.0217 2 8.01904 2 8.01637 2C8.01371 2 8.01104 2 8.00838 2C8.00571 2 8.00305 2 8.00038 2V4ZM9 16H8V18H9V16ZM3 13C3 13.9145 2.99788 14.701 3.08214 15.3278C3.17027 15.9833 3.36902 16.6117 3.87868 17.1213L5.29289 15.7071C5.21677 15.631 5.12262 15.495 5.06431 15.0613C5.00212 14.5988 5 13.9711 5 13H3ZM8 16C7.02892 16 6.40121 15.9979 5.9387 15.9357C5.50496 15.8774 5.36902 15.7832 5.29289 15.7071L3.87868 17.1213C4.38834 17.631 5.01669 17.8297 5.67221 17.9179C6.29896 18.0021 7.08546 18 8 18V16ZM11.9996 4C12.9708 4 13.5986 4.00212 14.0612 4.06431C14.495 4.12263 14.631 4.21679 14.7071 4.29289L16.1213 2.87868C15.6116 2.369 14.9832 2.17026 14.3277 2.08214C13.7009 1.99788 12.9143 2 11.9996 2V4ZM17 7C17 6.08546 17.0021 5.29896 16.9179 4.67221C16.8297 4.01669 16.631 3.38834 16.1213 2.87868L14.7071 4.29289C14.7832 4.36902 14.8774 4.50496 14.9357 4.9387C14.9979 5.40121 15 6.02892 15 7H17ZM5 7C5 6.02892 5.00212 5.40121 5.06431 4.9387C5.12262 4.50496 5.21677 4.36902 5.29289 4.29289L3.87868 2.87868C3.36902 3.38834 3.17027 4.01669 3.08214 4.67221C2.99788 5.29896 3 6.08546 3 7H5ZM8.00038 2C7.08571 2 6.29912 1.99788 5.67232 2.08214C5.01677 2.17026 4.38836 2.369 3.87868 2.87868L5.29289 4.29289C5.369 4.21679 5.50495 4.12263 5.93878 4.06431C6.40136 4.00212 7.02918 4 8.00038 4V2Z" fill="white"/>
</svg>
