<svg width="24" height="24" fill="none" xmlns="http://www.w3.org/2000/svg"><path d="M9 12c0-.932 0-1.398.152-1.765a2 2 0 0 1 1.083-1.083C10.602 9 11.068 9 12 9c.932 0 1.398 0 1.765.152a2 2 0 0 1 1.083 1.083C15 10.602 15 11.068 15 12c0 .932 0 1.398-.152 1.765a2 2 0 0 1-1.083 1.083C13.398 15 12.932 15 12 15c-.932 0-1.398 0-1.765-.152a2 2 0 0 1-1.083-1.083C9 13.398 9 12.932 9 12z" stroke="#fff" stroke-width="2"/><circle cx="18.5" cy="5.5" r="2.5" stroke="#fff" stroke-width="2"/><circle cx="18.5" cy="18.5" r="2.5" stroke="#fff" stroke-width="2"/><circle cx="5.5" cy="18.5" r="2.5" stroke="#fff" stroke-width="2"/><circle cx="5.5" cy="5.5" r="2.5" stroke="#fff" stroke-width="2"/><path d="M8.207 6.793L7.5 6.086 6.086 7.5l.707.707 1.414-1.414zm.586 3.414l.707.707L10.914 9.5l-.707-.707-1.414 1.414zm-2 5.586l-.707.707L7.5 17.914l.707-.707-1.414-1.414zm2.914-.086l.707-.707L9 13.586l-.707.707 1.414 1.414zm6.086 1.5l.707.707 1.414-1.414-.707-.707-1.414 1.414zm-.086-2.914L15 13.586 13.586 15l.707.707 1.414-1.414zm-1.414-6L13.586 9 15 10.414l.707-.707-1.414-1.414zm2.914-.086l.707-.707L16.5 6.086l-.707.707 1.414 1.414zm-10.414 0l2 2 1.414-1.414-2-2-1.414 1.414zm1.414 9l1.5-1.5-1.414-1.414-1.5 1.5 1.414 1.414zm9-1.414l-1.5-1.5-1.414 1.414 1.5 1.5 1.414-1.414zm-1.5-6.086l1.5-1.5-1.414-1.414-1.5 1.5 1.414 1.414z" fill="#fff"/></svg>