<svg width="24" height="24" viewBox="0 0 24 24" fill="none" xmlns="http://www.w3.org/2000/svg">
<path d="M3.45398 14.2688L4.22699 13.6344L3.45398 14.2688ZM3.73121 14.546L4.36561 13.773L3.73121 14.546ZM4 11.25V7H2V11.25H4ZM7.00007 4C7.00483 4 7.0096 4 7.01436 4C7.01912 4 7.02388 4 7.02864 4C7.0334 4 7.03816 4 7.04292 4C7.04768 4 7.05244 4 7.05719 4C7.06195 4 7.0667 4 7.07145 4C7.07621 4 7.08096 4 7.08571 4C7.09046 4 7.09521 4 7.09996 4C7.10471 4 7.10945 4 7.1142 4C7.11895 4 7.12369 4 7.12843 4C7.13318 4 7.13792 4 7.14266 4C7.1474 4 7.15214 4 7.15688 4C7.16162 4 7.16636 4 7.17109 4C7.17583 4 7.18057 4 7.1853 4C7.19004 4 7.19477 4 7.1995 4C7.20423 4 7.20896 4 7.21369 4C7.21842 4 7.22315 4 7.22788 4C7.23261 4 7.23733 4 7.24206 4C7.24678 4 7.25151 4 7.25623 4C7.26095 4 7.26567 4 7.27039 4C7.27511 4 7.27983 4 7.28455 4C7.28927 4 7.29399 4 7.2987 4C7.30342 4 7.30813 4 7.31285 4C7.31756 4 7.32228 4 7.32699 4C7.3317 4 7.33641 4 7.34112 4C7.34583 4 7.35054 4 7.35524 4C7.35995 4 7.36466 4 7.36936 4C7.37407 4 7.37877 4 7.38347 4C7.38818 4 7.39288 4 7.39758 4C7.40228 4 7.40698 4 7.41168 4C7.41638 4 7.42107 4 7.42577 4C7.43047 4 7.43516 4 7.43986 4C7.44455 4 7.44924 4 7.45393 4C7.45863 4 7.46332 4 7.46801 4C7.4727 4 7.47739 4 7.48207 4C7.48676 4 7.49145 4 7.49613 4C7.50082 4 7.5055 4 7.51019 4C7.51487 4 7.51955 4 7.52424 4C7.52892 4 7.5336 4 7.53828 4C7.54296 4 7.54763 4 7.55231 4C7.55699 4 7.56167 4 7.56634 4C7.57102 4 7.57569 4 7.58036 4C7.58504 4 7.58971 4 7.59438 4C7.59905 4 7.60372 4 7.60839 4C7.61306 4 7.61773 4 7.6224 4C7.62706 4 7.63173 4 7.63639 4C7.64106 4 7.64572 4 7.65039 4C7.65505 4 7.65971 4 7.66437 4C7.66903 4 7.67369 4 7.67835 4C7.68301 4 7.68767 4 7.69233 4C7.69698 4 7.70164 4 7.7063 4C7.71095 4 7.71561 4 7.72026 4C7.72491 4 7.72956 4 7.73422 4C7.73887 4 7.74352 4 7.74817 4C7.75282 4 7.75746 4 7.76211 4C7.76676 4 7.77141 4 7.77605 4C7.7807 4 7.78534 4 7.78998 4C7.79463 4 7.79927 4 7.80391 4C7.80855 4 7.8132 4 7.81783 4C7.82247 4 7.82711 4 7.83175 4C7.83639 4 7.84103 4 7.84566 4C7.8503 4 7.85493 4 7.85957 4C7.8642 4 7.86884 4 7.87347 4C7.8781 4 7.88273 4 7.88736 4C7.89199 4 7.89662 4 7.90125 4C7.90588 4 7.91051 4 7.91513 4C7.91976 4 7.92439 4 7.92901 4C7.93364 4 7.93826 4 7.94288 4C7.94751 4 7.95213 4 7.95675 4C7.96137 4 7.96599 4 7.97061 4C7.97523 4 7.97985 4 7.98447 4C7.98909 4 7.9937 4 7.99832 4C8.00294 4 8.00755 4 8.01217 4C8.01678 4 8.02139 4 8.02601 4C8.03062 4 8.03523 4 8.03984 4C8.04445 4 8.04906 4 8.05367 4C8.05828 4 8.06289 4 8.0675 4C8.0721 4 8.07671 4 8.08132 4C8.08592 4 8.09053 4 8.09513 4C8.09974 4 8.10434 4 8.10894 4C8.11354 4 8.11814 4 8.12275 4C8.12735 4 8.13195 4 8.13654 4C8.14114 4 8.14574 4 8.15034 4C8.15494 4 8.15953 4 8.16413 4C8.16872 4 8.17332 4 8.17791 4C8.18251 4 8.1871 4 8.19169 4C8.19629 4 8.20088 4 8.20547 4C8.21006 4 8.21465 4 8.21924 4C8.22383 4 8.22842 4 8.233 4C8.23759 4 8.24218 4 8.24676 4C8.25135 4 8.25593 4 8.26052 4C8.2651 4 8.26969 4 8.27427 4C8.27885 4 8.28343 4 8.28802 4C8.2926 4 8.29718 4 8.30176 4C8.30634 4 8.31092 4 8.31549 4C8.32007 4 8.32465 4 8.32923 4C8.3338 4 8.33838 4 8.34295 4C8.34753 4 8.3521 4 8.35668 4C8.36125 4 8.36582 4 8.37039 4C8.37497 4 8.37954 4 8.38411 4C8.38868 4 8.39325 4 8.39782 4C8.40239 4 8.40696 4 8.41152 4C8.41609 4 8.42066 4 8.42522 4C8.42979 4 8.43435 4 8.43892 4C8.44348 4 8.44805 4 8.45261 4C8.45717 4 8.46174 4 8.4663 4C8.47086 4 8.47542 4 8.47998 4C8.48454 4 8.4891 4 8.49366 4C8.49822 4 8.50278 4 8.50734 4C8.51189 4 8.51645 4 8.52101 4C8.52556 4 8.53012 4 8.53467 4C8.53923 4 8.54378 4 8.54833 4C8.55289 4 8.55744 4 8.56199 4C8.56654 4 8.57109 4 8.57565 4C8.5802 4 8.58475 4 8.58929 4C8.59384 4 8.59839 4 8.60294 4C8.60749 4 8.61204 4 8.61658 4C8.62113 4 8.62567 4 8.63022 4C8.63476 4 8.63931 4 8.64385 4C8.6484 4 8.65294 4 8.65748 4C8.66203 4 8.66657 4 8.67111 4C8.67565 4 8.68019 4 8.68473 4C8.68927 4 8.69381 4 8.69835 4C8.70289 4 8.70742 4 8.71196 4C8.7165 4 8.72104 4 8.72557 4C8.73011 4 8.73464 4 8.73918 4C8.74371 4 8.74825 4 8.75278 4C8.75732 4 8.76185 4 8.76638 4C8.77091 4 8.77545 4 8.77998 4C8.78451 4 8.78904 4 8.79357 4C8.7981 4 8.80263 4 8.80716 4C8.81169 4 8.81621 4 8.82074 4C8.82527 4 8.8298 4 8.83432 4C8.83885 4 8.84337 4 8.8479 4C8.85243 4 8.85695 4 8.86147 4C8.866 4 8.87052 4 8.87504 4C8.87957 4 8.88409 4 8.88861 4C8.89313 4 8.89765 4 8.90217 4C8.9067 4 8.91122 4 8.91574 4C8.92025 4 8.92477 4 8.92929 4C8.93381 4 8.93833 4 8.94285 4C8.94736 4 8.95188 4 8.9564 4C8.96091 4 8.96543 4 8.96994 4C8.97446 4 8.97897 4 8.98349 4C8.988 4 8.99251 4 8.99703 4C9.00154 4 9.00605 4 9.01056 4C9.01508 4 9.01959 4 9.0241 4C9.02861 4 9.03312 4 9.03763 4C9.04214 4 9.04665 4 9.05116 4C9.05567 4 9.06017 4 9.06468 4C9.06919 4 9.0737 4 9.0782 4C9.08271 4 9.08722 4 9.09172 4C9.09623 4 9.10073 4 9.10524 4C9.10974 4 9.11425 4 9.11875 4C9.12325 4 9.12776 4 9.13226 4C9.13676 4 9.14126 4 9.14577 4C9.15027 4 9.15477 4 9.15927 4C9.16377 4 9.16827 4 9.17277 4C9.17727 4 9.18177 4 9.18627 4C9.19077 4 9.19527 4 9.19976 4C9.20426 4 9.20876 4 9.21326 4C9.21775 4 9.22225 4 9.22675 4C9.23124 4 9.23574 4 9.24023 4C9.24473 4 9.24922 4 9.25372 4C9.25821 4 9.26271 4 9.2672 4C9.27169 4 9.27619 4 9.28068 4C9.28517 4 9.28967 4 9.29416 4C9.29865 4 9.30314 4 9.30763 4C9.31212 4 9.31661 4 9.3211 4C9.32559 4 9.33008 4 9.33457 4C9.33906 4 9.34355 4 9.34804 4C9.35253 4 9.35701 4 9.3615 4C9.36599 4 9.37048 4 9.37496 4C9.37945 4 9.38394 4 9.38842 4C9.39291 4 9.39739 4 9.40188 4C9.40637 4 9.41085 4 9.41533 4C9.41982 4 9.4243 4 9.42879 4C9.43327 4 9.43775 4 9.44224 4C9.44672 4 9.4512 4 9.45568 4C9.46017 4 9.46465 4 9.46913 4C9.47361 4 9.47809 4 9.48257 4C9.48705 4 9.49153 4 9.49601 4C9.50049 4 9.50497 4 9.50945 4C9.51393 4 9.51841 4 9.52289 4C9.52737 4 9.53185 4 9.53632 4C9.5408 4 9.54528 4 9.54976 4C9.55423 4 9.55871 4 9.56319 4C9.56766 4 9.57214 4 9.57662 4C9.58109 4 9.58557 4 9.59004 4C9.59452 4 9.59899 4 9.60347 4C9.60794 4 9.61242 4 9.61689 4C9.62137 4 9.62584 4 9.63031 4C9.63479 4 9.63926 4 9.64373 4C9.6482 4 9.65268 4 9.65715 4C9.66162 4 9.66609 4 9.67056 4C9.67504 4 9.67951 4 9.68398 4C9.68845 4 9.69292 4 9.69739 4C9.70186 4 9.70633 4 9.7108 4C9.71527 4 9.71974 4 9.72421 4C9.72868 4 9.73315 4 9.73762 4C9.74208 4 9.74655 4 9.75102 4C9.75549 4 9.75996 4 9.76442 4C9.76889 4 9.77336 4 9.77783 4C9.78229 4 9.78676 4 9.79123 4C9.79569 4 9.80016 4 9.80463 4C9.80909 4 9.81356 4 9.81802 4C9.82249 4 9.82695 4 9.83142 4C9.83588 4 9.84035 4 9.84481 4C9.84928 4 9.85374 4 9.85821 4C9.86267 4 9.86714 4 9.8716 4C9.87606 4 9.88053 4 9.88499 4C9.88945 4 9.89392 4 9.89838 4C9.90284 4 9.9073 4 9.91177 4C9.91623 4 9.92069 4 9.92515 4C9.92962 4 9.93408 4 9.93854 4C9.943 4 9.94746 4 9.95192 4C9.95639 4 9.96085 4 9.96531 4C9.96977 4 9.97423 4 9.97869 4C9.98315 4 9.98761 4 9.99207 4C9.99653 4 10.001 4 10.0054 4C10.0099 4 10.0144 4 10.0188 4C10.0233 4 10.0277 4 10.0322 4C10.0367 4 10.0411 4 10.0456 4C10.05 4 10.0545 4 10.059 4C10.0634 4 10.0679 4 10.0723 4C10.0768 4 10.0812 4 10.0857 4C10.0902 4 10.0946 4 10.0991 4C10.1035 4 10.108 4 10.1125 4C10.1169 4 10.1214 4 10.1258 4C10.1303 4 10.1347 4 10.1392 4C10.1437 4 10.1481 4 10.1526 4C10.157 4 10.1615 4 10.1659 4C10.1704 4 10.1748 4 10.1793 4C10.1838 4 10.1882 4 10.1927 4C10.1971 4 10.2016 4 10.206 4C10.2105 4 10.2149 4 10.2194 4C10.2239 4 10.2283 4 10.2328 4C10.2372 4 10.2417 4 10.2461 4C10.2506 4 10.255 4 10.2595 4C10.264 4 10.2684 4 10.2729 4C10.2773 4 10.2818 4 10.2862 4C10.2907 4 10.2951 4 10.2996 4C10.304 4 10.3085 4 10.313 4C10.3174 4 10.3219 4 10.3263 4C10.3308 4 10.3352 4 10.3397 4C10.3441 4 10.3486 4 10.353 4C10.3575 4 10.3619 4 10.3664 4C10.3709 4 10.3753 4 10.3798 4C10.3842 4 10.3887 4 10.3931 4C10.3976 4 10.402 4 10.4065 4C10.4109 4 10.4154 4 10.4198 4C10.4243 4 10.4287 4 10.4332 4C10.4377 4 10.4421 4 10.4466 4C10.451 4 10.4555 4 10.4599 4C10.4644 4 10.4688 4 10.4733 4C10.4777 4 10.4822 4 10.4866 4C10.4911 4 10.4955 4 10.5 4C10.5045 4 10.5089 4 10.5134 4C10.5178 4 10.5223 4 10.5267 4C10.5312 4 10.5356 4 10.5401 4C10.5445 4 10.549 4 10.5534 4C10.5579 4 10.5623 4 10.5668 4C10.5713 4 10.5757 4 10.5802 4C10.5846 4 10.5891 4 10.5935 4C10.598 4 10.6024 4 10.6069 4C10.6113 4 10.6158 4 10.6202 4C10.6247 4 10.6291 4 10.6336 4C10.6381 4 10.6425 4 10.647 4C10.6514 4 10.6559 4 10.6603 4C10.6648 4 10.6692 4 10.6737 4C10.6781 4 10.6826 4 10.687 4C10.6915 4 10.696 4 10.7004 4C10.7049 4 10.7093 4 10.7138 4C10.7182 4 10.7227 4 10.7271 4C10.7316 4 10.736 4 10.7405 4C10.745 4 10.7494 4 10.7539 4C10.7583 4 10.7628 4 10.7672 4C10.7717 4 10.7761 4 10.7806 4C10.7851 4 10.7895 4 10.794 4C10.7984 4 10.8029 4 10.8073 4C10.8118 4 10.8162 4 10.8207 4C10.8252 4 10.8296 4 10.8341 4C10.8385 4 10.843 4 10.8474 4C10.8519 4 10.8563 4 10.8608 4C10.8653 4 10.8697 4 10.8742 4C10.8786 4 10.8831 4 10.8875 4C10.892 4 10.8965 4 10.9009 4C10.9054 4 10.9098 4 10.9143 4C10.9188 4 10.9232 4 10.9277 4C10.9321 4 10.9366 4 10.941 4C10.9455 4 10.95 4 10.9544 4C10.9589 4 10.9633 4 10.9678 4C10.9723 4 10.9767 4 10.9812 4C10.9856 4 10.9901 4 10.9945 4C10.999 4 11.0035 4 11.0079 4C11.0124 4 11.0169 4 11.0213 4C11.0258 4 11.0302 4 11.0347 4C11.0392 4 11.0436 4 11.0481 4C11.0525 4 11.057 4 11.0615 4C11.0659 4 11.0704 4 11.0748 4C11.0793 4 11.0838 4 11.0882 4C11.0927 4 11.0972 4 11.1016 4C11.1061 4 11.1105 4 11.115 4C11.1195 4 11.1239 4 11.1284 4C11.1329 4 11.1373 4 11.1418 4C11.1463 4 11.1507 4 11.1552 4C11.1596 4 11.1641 4 11.1686 4C11.173 4 11.1775 4 11.182 4C11.1864 4 11.1909 4 11.1954 4C11.1998 4 11.2043 4 11.2088 4C11.2132 4 11.2177 4 11.2222 4C11.2266 4 11.2311 4 11.2356 4C11.24 4 11.2445 4 11.249 4C11.2534 4 11.2579 4 11.2624 4C11.2669 4 11.2713 4 11.2758 4C11.2803 4 11.2847 4 11.2892 4C11.2937 4 11.2981 4 11.3026 4C11.3071 4 11.3116 4 11.316 4C11.3205 4 11.325 4 11.3294 4C11.3339 4 11.3384 4 11.3429 4C11.3473 4 11.3518 4 11.3563 4C11.3607 4 11.3652 4 11.3697 4C11.3742 4 11.3786 4 11.3831 4C11.3876 4 11.3921 4 11.3965 4C11.401 4 11.4055 4 11.41 4C11.4144 4 11.4189 4 11.4234 4C11.4279 4 11.4323 4 11.4368 4C11.4413 4 11.4458 4 11.4502 4C11.4547 4 11.4592 4 11.4637 4C11.4682 4 11.4726 4 11.4771 4C11.4816 4 11.4861 4 11.4905 4C11.495 4 11.4995 4 11.504 4C11.5085 4 11.5129 4 11.5174 4C11.5219 4 11.5264 4 11.5309 4C11.5354 4 11.5398 4 11.5443 4C11.5488 4 11.5533 4 11.5578 4C11.5622 4 11.5667 4 11.5712 4C11.5757 4 11.5802 4 11.5847 4C11.5891 4 11.5936 4 11.5981 4C11.6026 4 11.6071 4 11.6116 4C11.6161 4 11.6205 4 11.625 4C11.6295 4 11.634 4 11.6385 4C11.643 4 11.6475 4 11.652 4C11.6564 4 11.6609 4 11.6654 4C11.6699 4 11.6744 4 11.6789 4C11.6834 4 11.6879 4 11.6924 4C11.6969 4 11.7014 4 11.7058 4C11.7103 4 11.7148 4 11.7193 4C11.7238 4 11.7283 4 11.7328 4C11.7373 4 11.7418 4 11.7463 4C11.7508 4 11.7553 4 11.7598 4C11.7643 4 11.7688 4 11.7733 4C11.7777 4 11.7822 4 11.7867 4C11.7912 4 11.7957 4 11.8002 4C11.8047 4 11.8092 4 11.8137 4C11.8182 4 11.8227 4 11.8272 4C11.8317 4 11.8362 4 11.8407 4C11.8452 4 11.8497 4 11.8542 4C11.8587 4 11.8632 4 11.8677 4C11.8722 4 11.8767 4 11.8812 4C11.8858 4 11.8903 4 11.8948 4C11.8993 4 11.9038 4 11.9083 4C11.9128 4 11.9173 4 11.9218 4C11.9263 4 11.9308 4 11.9353 4C11.9398 4 11.9443 4 11.9488 4C11.9534 4 11.9579 4 11.9624 4C11.9669 4 11.9714 4 11.9759 4C11.9804 4 11.9849 4 11.9894 4C11.9939 4 11.9985 4 12.003 4C12.0075 4 12.012 4 12.0165 4C12.021 4 12.0255 4 12.0301 4C12.0346 4 12.0391 4 12.0436 4C12.0481 4 12.0526 4 12.0572 4C12.0617 4 12.0662 4 12.0707 4C12.0752 4 12.0797 4 12.0843 4C12.0888 4 12.0933 4 12.0978 4C12.1023 4 12.1069 4 12.1114 4C12.1159 4 12.1204 4 12.125 4C12.1295 4 12.134 4 12.1385 4C12.143 4 12.1476 4 12.1521 4C12.1566 4 12.1612 4 12.1657 4C12.1702 4 12.1747 4 12.1793 4C12.1838 4 12.1883 4 12.1928 4C12.1974 4 12.2019 4 12.2064 4C12.211 4 12.2155 4 12.22 4C12.2246 4 12.2291 4 12.2336 4C12.2382 4 12.2427 4 12.2472 4C12.2518 4 12.2563 4 12.2608 4C12.2654 4 12.2699 4 12.2744 4C12.279 4 12.2835 4 12.288 4C12.2926 4 12.2971 4 12.3017 4C12.3062 4 12.3107 4 12.3153 4C12.3198 4 12.3243 4 12.3289 4C12.3334 4 12.338 4 12.3425 4C12.3471 4 12.3516 4 12.3561 4C12.3607 4 12.3652 4 12.3698 4C12.3743 4 12.3789 4 12.3834 4C12.388 4 12.3925 4 12.3971 4C12.4016 4 12.4062 4 12.4107 4C12.4153 4 12.4198 4 12.4244 4C12.4289 4 12.4335 4 12.438 4C12.4426 4 12.4471 4 12.4517 4C12.4562 4 12.4608 4 12.4653 4C12.4699 4 12.4744 4 12.479 4C12.4836 4 12.4881 4 12.4927 4C12.4972 4 12.5018 4 12.5063 4C12.5109 4 12.5155 4 12.52 4C12.5246 4 12.5291 4 12.5337 4C12.5383 4 12.5428 4 12.5474 4C12.552 4 12.5565 4 12.5611 4C12.5656 4 12.5702 4 12.5748 4C12.5793 4 12.5839 4 12.5885 4C12.593 4 12.5976 4 12.6022 4C12.6068 4 12.6113 4 12.6159 4C12.6205 4 12.625 4 12.6296 4C12.6342 4 12.6387 4 12.6433 4C12.6479 4 12.6525 4 12.657 4C12.6616 4 12.6662 4 12.6708 4C12.6754 4 12.6799 4 12.6845 4C12.6891 4 12.6937 4 12.6982 4C12.7028 4 12.7074 4 12.712 4C12.7166 4 12.7211 4 12.7257 4C12.7303 4 12.7349 4 12.7395 4C12.7441 4 12.7487 4 12.7532 4C12.7578 4 12.7624 4 12.767 4C12.7716 4 12.7762 4 12.7808 4C12.7854 4 12.7899 4 12.7945 4C12.7991 4 12.8037 4 12.8083 4C12.8129 4 12.8175 4 12.8221 4C12.8267 4 12.8313 4 12.8359 4C12.8405 4 12.8451 4 12.8497 4C12.8543 4 12.8589 4 12.8635 4C12.8681 4 12.8727 4 12.8773 4C12.8819 4 12.8865 4 12.8911 4C12.8957 4 12.9003 4 12.9049 4C12.9095 4 12.9141 4 12.9187 4C12.9233 4 12.9279 4 12.9325 4C12.9371 4 12.9417 4 12.9463 4C12.9509 4 12.9555 4 12.9602 4C12.9648 4 12.9694 4 12.974 4C12.9786 4 12.9832 4 12.9878 4C12.9924 4 12.9971 4 13.0017 4C13.0063 4 13.0109 4 13.0155 4C13.0201 4 13.0248 4 13.0294 4C13.034 4 13.0386 4 13.0432 4C13.0479 4 13.0525 4 13.0571 4C13.0617 4 13.0664 4 13.071 4C13.0756 4 13.0802 4 13.0849 4C13.0895 4 13.0941 4 13.0987 4C13.1034 4 13.108 4 13.1126 4C13.1173 4 13.1219 4 13.1265 4C13.1312 4 13.1358 4 13.1404 4C13.1451 4 13.1497 4 13.1543 4C13.159 4 13.1636 4 13.1682 4C13.1729 4 13.1775 4 13.1822 4C13.1868 4 13.1914 4 13.1961 4C13.2007 4 13.2054 4 13.21 4C13.2147 4 13.2193 4 13.2239 4C13.2286 4 13.2332 4 13.2379 4C13.2425 4 13.2472 4 13.2518 4C13.2565 4 13.2611 4 13.2658 4C13.2704 4 13.2751 4 13.2797 4C13.2844 4 13.289 4 13.2937 4C13.2984 4 13.303 4 13.3077 4C13.3123 4 13.317 4 13.3216 4C13.3263 4 13.331 4 13.3356 4C13.3403 4 13.345 4 13.3496 4C13.3543 4 13.3589 4 13.3636 4C13.3683 4 13.3729 4 13.3776 4C13.3823 4 13.3869 4 13.3916 4C13.3963 4 13.4009 4 13.4056 4C13.4103 4 13.415 4 13.4196 4C13.4243 4 13.429 4 13.4337 4C13.4383 4 13.443 4 13.4477 4C13.4524 4 13.457 4 13.4617 4C13.4664 4 13.4711 4 13.4758 4C13.4804 4 13.4851 4 13.4898 4C13.4945 4 13.4992 4 13.5039 4C13.5086 4 13.5132 4 13.5179 4C13.5226 4 13.5273 4 13.532 4C13.5367 4 13.5414 4 13.5461 4C13.5508 4 13.5555 4 13.5601 4C13.5648 4 13.5695 4 13.5742 4C13.5789 4 13.5836 4 13.5883 4C13.593 4 13.5977 4 13.6024 4C13.6071 4 13.6118 4 13.6165 4C13.6212 4 13.6259 4 13.6306 4C13.6353 4 13.64 4 13.6448 4C13.6495 4 13.6542 4 13.6589 4C13.6636 4 13.6683 4 13.673 4C13.6777 4 13.6824 4 13.6872 4C13.6919 4 13.6966 4 13.7013 4C13.706 4 13.7107 4 13.7154 4C13.7202 4 13.7249 4 13.7296 4C13.7343 4 13.739 4 13.7438 4C13.7485 4 13.7532 4 13.7579 4C13.7627 4 13.7674 4 13.7721 4C13.7768 4 13.7816 4 13.7863 4C13.791 4 13.7958 4 13.8005 4C13.8052 4 13.81 4 13.8147 4C13.8194 4 13.8242 4 13.8289 4C13.8336 4 13.8384 4 13.8431 4C13.8479 4 13.8526 4 13.8573 4C13.8621 4 13.8668 4 13.8716 4C13.8763 4 13.8811 4 13.8858 4C13.8905 4 13.8953 4 13.9 4C13.9048 4 13.9095 4 13.9143 4C13.919 4 13.9238 4 13.9285 4C13.9333 4 13.9381 4 13.9428 4C13.9476 4 13.9523 4 13.9571 4C13.9618 4 13.9666 4 13.9714 4C13.9761 4 13.9809 4 13.9856 4C13.9904 4 13.9952 4 13.9999 4V2C13.9952 2 13.9904 2 13.9856 2C13.9809 2 13.9761 2 13.9714 2C13.9666 2 13.9618 2 13.9571 2C13.9523 2 13.9476 2 13.9428 2C13.9381 2 13.9333 2 13.9285 2C13.9238 2 13.919 2 13.9143 2C13.9095 2 13.9048 2 13.9 2C13.8953 2 13.8905 2 13.8858 2C13.8811 2 13.8763 2 13.8716 2C13.8668 2 13.8621 2 13.8573 2C13.8526 2 13.8479 2 13.8431 2C13.8384 2 13.8336 2 13.8289 2C13.8242 2 13.8194 2 13.8147 2C13.81 2 13.8052 2 13.8005 2C13.7958 2 13.791 2 13.7863 2C13.7816 2 13.7768 2 13.7721 2C13.7674 2 13.7627 2 13.7579 2C13.7532 2 13.7485 2 13.7438 2C13.739 2 13.7343 2 13.7296 2C13.7249 2 13.7202 2 13.7154 2C13.7107 2 13.706 2 13.7013 2C13.6966 2 13.6919 2 13.6872 2C13.6824 2 13.6777 2 13.673 2C13.6683 2 13.6636 2 13.6589 2C13.6542 2 13.6495 2 13.6448 2C13.64 2 13.6353 2 13.6306 2C13.6259 2 13.6212 2 13.6165 2C13.6118 2 13.6071 2 13.6024 2C13.5977 2 13.593 2 13.5883 2C13.5836 2 13.5789 2 13.5742 2C13.5695 2 13.5648 2 13.5601 2C13.5555 2 13.5508 2 13.5461 2C13.5414 2 13.5367 2 13.532 2C13.5273 2 13.5226 2 13.5179 2C13.5132 2 13.5086 2 13.5039 2C13.4992 2 13.4945 2 13.4898 2C13.4851 2 13.4804 2 13.4758 2C13.4711 2 13.4664 2 13.4617 2C13.457 2 13.4524 2 13.4477 2C13.443 2 13.4383 2 13.4337 2C13.429 2 13.4243 2 13.4196 2C13.415 2 13.4103 2 13.4056 2C13.4009 2 13.3963 2 13.3916 2C13.3869 2 13.3823 2 13.3776 2C13.3729 2 13.3683 2 13.3636 2C13.3589 2 13.3543 2 13.3496 2C13.345 2 13.3403 2 13.3356 2C13.331 2 13.3263 2 13.3216 2C13.317 2 13.3123 2 13.3077 2C13.303 2 13.2984 2 13.2937 2C13.289 2 13.2844 2 13.2797 2C13.2751 2 13.2704 2 13.2658 2C13.2611 2 13.2565 2 13.2518 2C13.2472 2 13.2425 2 13.2379 2C13.2332 2 13.2286 2 13.2239 2C13.2193 2 13.2147 2 13.21 2C13.2054 2 13.2007 2 13.1961 2C13.1914 2 13.1868 2 13.1822 2C13.1775 2 13.1729 2 13.1682 2C13.1636 2 13.159 2 13.1543 2C13.1497 2 13.1451 2 13.1404 2C13.1358 2 13.1312 2 13.1265 2C13.1219 2 13.1173 2 13.1126 2C13.108 2 13.1034 2 13.0987 2C13.0941 2 13.0895 2 13.0849 2C13.0802 2 13.0756 2 13.071 2C13.0664 2 13.0617 2 13.0571 2C13.0525 2 13.0479 2 13.0432 2C13.0386 2 13.034 2 13.0294 2C13.0248 2 13.0201 2 13.0155 2C13.0109 2 13.0063 2 13.0017 2C12.9971 2 12.9924 2 12.9878 2C12.9832 2 12.9786 2 12.974 2C12.9694 2 12.9648 2 12.9602 2C12.9555 2 12.9509 2 12.9463 2C12.9417 2 12.9371 2 12.9325 2C12.9279 2 12.9233 2 12.9187 2C12.9141 2 12.9095 2 12.9049 2C12.9003 2 12.8957 2 12.8911 2C12.8865 2 12.8819 2 12.8773 2C12.8727 2 12.8681 2 12.8635 2C12.8589 2 12.8543 2 12.8497 2C12.8451 2 12.8405 2 12.8359 2C12.8313 2 12.8267 2 12.8221 2C12.8175 2 12.8129 2 12.8083 2C12.8037 2 12.7991 2 12.7945 2C12.7899 2 12.7854 2 12.7808 2C12.7762 2 12.7716 2 12.767 2C12.7624 2 12.7578 2 12.7532 2C12.7487 2 12.7441 2 12.7395 2C12.7349 2 12.7303 2 12.7257 2C12.7211 2 12.7166 2 12.712 2C12.7074 2 12.7028 2 12.6982 2C12.6937 2 12.6891 2 12.6845 2C12.6799 2 12.6754 2 12.6708 2C12.6662 2 12.6616 2 12.657 2C12.6525 2 12.6479 2 12.6433 2C12.6387 2 12.6342 2 12.6296 2C12.625 2 12.6205 2 12.6159 2C12.6113 2 12.6068 2 12.6022 2C12.5976 2 12.593 2 12.5885 2C12.5839 2 12.5793 2 12.5748 2C12.5702 2 12.5656 2 12.5611 2C12.5565 2 12.552 2 12.5474 2C12.5428 2 12.5383 2 12.5337 2C12.5291 2 12.5246 2 12.52 2C12.5155 2 12.5109 2 12.5063 2C12.5018 2 12.4972 2 12.4927 2C12.4881 2 12.4836 2 12.479 2C12.4744 2 12.4699 2 12.4653 2C12.4608 2 12.4562 2 12.4517 2C12.4471 2 12.4426 2 12.438 2C12.4335 2 12.4289 2 12.4244 2C12.4198 2 12.4153 2 12.4107 2C12.4062 2 12.4016 2 12.3971 2C12.3925 2 12.388 2 12.3834 2C12.3789 2 12.3743 2 12.3698 2C12.3652 2 12.3607 2 12.3561 2C12.3516 2 12.3471 2 12.3425 2C12.338 2 12.3334 2 12.3289 2C12.3243 2 12.3198 2 12.3153 2C12.3107 2 12.3062 2 12.3017 2C12.2971 2 12.2926 2 12.288 2C12.2835 2 12.279 2 12.2744 2C12.2699 2 12.2654 2 12.2608 2C12.2563 2 12.2518 2 12.2472 2C12.2427 2 12.2382 2 12.2336 2C12.2291 2 12.2246 2 12.22 2C12.2155 2 12.211 2 12.2064 2C12.2019 2 12.1974 2 12.1928 2C12.1883 2 12.1838 2 12.1793 2C12.1747 2 12.1702 2 12.1657 2C12.1612 2 12.1566 2 12.1521 2C12.1476 2 12.143 2 12.1385 2C12.134 2 12.1295 2 12.125 2C12.1204 2 12.1159 2 12.1114 2C12.1069 2 12.1023 2 12.0978 2C12.0933 2 12.0888 2 12.0843 2C12.0797 2 12.0752 2 12.0707 2C12.0662 2 12.0617 2 12.0572 2C12.0526 2 12.0481 2 12.0436 2C12.0391 2 12.0346 2 12.0301 2C12.0255 2 12.021 2 12.0165 2C12.012 2 12.0075 2 12.003 2C11.9985 2 11.9939 2 11.9894 2C11.9849 2 11.9804 2 11.9759 2C11.9714 2 11.9669 2 11.9624 2C11.9579 2 11.9534 2 11.9488 2C11.9443 2 11.9398 2 11.9353 2C11.9308 2 11.9263 2 11.9218 2C11.9173 2 11.9128 2 11.9083 2C11.9038 2 11.8993 2 11.8948 2C11.8903 2 11.8858 2 11.8812 2C11.8767 2 11.8722 2 11.8677 2C11.8632 2 11.8587 2 11.8542 2C11.8497 2 11.8452 2 11.8407 2C11.8362 2 11.8317 2 11.8272 2C11.8227 2 11.8182 2 11.8137 2C11.8092 2 11.8047 2 11.8002 2C11.7957 2 11.7912 2 11.7867 2C11.7822 2 11.7777 2 11.7733 2C11.7688 2 11.7643 2 11.7598 2C11.7553 2 11.7508 2 11.7463 2C11.7418 2 11.7373 2 11.7328 2C11.7283 2 11.7238 2 11.7193 2C11.7148 2 11.7103 2 11.7058 2C11.7014 2 11.6969 2 11.6924 2C11.6879 2 11.6834 2 11.6789 2C11.6744 2 11.6699 2 11.6654 2C11.6609 2 11.6564 2 11.652 2C11.6475 2 11.643 2 11.6385 2C11.634 2 11.6295 2 11.625 2C11.6205 2 11.6161 2 11.6116 2C11.6071 2 11.6026 2 11.5981 2C11.5936 2 11.5891 2 11.5847 2C11.5802 2 11.5757 2 11.5712 2C11.5667 2 11.5622 2 11.5578 2C11.5533 2 11.5488 2 11.5443 2C11.5398 2 11.5354 2 11.5309 2C11.5264 2 11.5219 2 11.5174 2C11.5129 2 11.5085 2 11.504 2C11.4995 2 11.495 2 11.4905 2C11.4861 2 11.4816 2 11.4771 2C11.4726 2 11.4682 2 11.4637 2C11.4592 2 11.4547 2 11.4502 2C11.4458 2 11.4413 2 11.4368 2C11.4323 2 11.4279 2 11.4234 2C11.4189 2 11.4144 2 11.41 2C11.4055 2 11.401 2 11.3965 2C11.3921 2 11.3876 2 11.3831 2C11.3786 2 11.3742 2 11.3697 2C11.3652 2 11.3607 2 11.3563 2C11.3518 2 11.3473 2 11.3429 2C11.3384 2 11.3339 2 11.3294 2C11.325 2 11.3205 2 11.316 2C11.3116 2 11.3071 2 11.3026 2C11.2981 2 11.2937 2 11.2892 2C11.2847 2 11.2803 2 11.2758 2C11.2713 2 11.2669 2 11.2624 2C11.2579 2 11.2534 2 11.249 2C11.2445 2 11.24 2 11.2356 2C11.2311 2 11.2266 2 11.2222 2C11.2177 2 11.2132 2 11.2088 2C11.2043 2 11.1998 2 11.1954 2C11.1909 2 11.1864 2 11.182 2C11.1775 2 11.173 2 11.1686 2C11.1641 2 11.1596 2 11.1552 2C11.1507 2 11.1463 2 11.1418 2C11.1373 2 11.1329 2 11.1284 2C11.1239 2 11.1195 2 11.115 2C11.1105 2 11.1061 2 11.1016 2C11.0972 2 11.0927 2 11.0882 2C11.0838 2 11.0793 2 11.0748 2C11.0704 2 11.0659 2 11.0615 2C11.057 2 11.0525 2 11.0481 2C11.0436 2 11.0392 2 11.0347 2C11.0302 2 11.0258 2 11.0213 2C11.0169 2 11.0124 2 11.0079 2C11.0035 2 10.999 2 10.9945 2C10.9901 2 10.9856 2 10.9812 2C10.9767 2 10.9723 2 10.9678 2C10.9633 2 10.9589 2 10.9544 2C10.95 2 10.9455 2 10.941 2C10.9366 2 10.9321 2 10.9277 2C10.9232 2 10.9188 2 10.9143 2C10.9098 2 10.9054 2 10.9009 2C10.8965 2 10.892 2 10.8875 2C10.8831 2 10.8786 2 10.8742 2C10.8697 2 10.8653 2 10.8608 2C10.8563 2 10.8519 2 10.8474 2C10.843 2 10.8385 2 10.8341 2C10.8296 2 10.8252 2 10.8207 2C10.8162 2 10.8118 2 10.8073 2C10.8029 2 10.7984 2 10.794 2C10.7895 2 10.7851 2 10.7806 2C10.7761 2 10.7717 2 10.7672 2C10.7628 2 10.7583 2 10.7539 2C10.7494 2 10.745 2 10.7405 2C10.736 2 10.7316 2 10.7271 2C10.7227 2 10.7182 2 10.7138 2C10.7093 2 10.7049 2 10.7004 2C10.696 2 10.6915 2 10.687 2C10.6826 2 10.6781 2 10.6737 2C10.6692 2 10.6648 2 10.6603 2C10.6559 2 10.6514 2 10.647 2C10.6425 2 10.6381 2 10.6336 2C10.6291 2 10.6247 2 10.6202 2C10.6158 2 10.6113 2 10.6069 2C10.6024 2 10.598 2 10.5935 2C10.5891 2 10.5846 2 10.5802 2C10.5757 2 10.5713 2 10.5668 2C10.5623 2 10.5579 2 10.5534 2C10.549 2 10.5445 2 10.5401 2C10.5356 2 10.5312 2 10.5267 2C10.5223 2 10.5178 2 10.5134 2C10.5089 2 10.5045 2 10.5 2C10.4955 2 10.4911 2 10.4866 2C10.4822 2 10.4777 2 10.4733 2C10.4688 2 10.4644 2 10.4599 2C10.4555 2 10.451 2 10.4466 2C10.4421 2 10.4377 2 10.4332 2C10.4287 2 10.4243 2 10.4198 2C10.4154 2 10.4109 2 10.4065 2C10.402 2 10.3976 2 10.3931 2C10.3887 2 10.3842 2 10.3798 2C10.3753 2 10.3709 2 10.3664 2C10.3619 2 10.3575 2 10.353 2C10.3486 2 10.3441 2 10.3397 2C10.3352 2 10.3308 2 10.3263 2C10.3219 2 10.3174 2 10.313 2C10.3085 2 10.304 2 10.2996 2C10.2951 2 10.2907 2 10.2862 2C10.2818 2 10.2773 2 10.2729 2C10.2684 2 10.264 2 10.2595 2C10.255 2 10.2506 2 10.2461 2C10.2417 2 10.2372 2 10.2328 2C10.2283 2 10.2239 2 10.2194 2C10.2149 2 10.2105 2 10.206 2C10.2016 2 10.1971 2 10.1927 2C10.1882 2 10.1838 2 10.1793 2C10.1748 2 10.1704 2 10.1659 2C10.1615 2 10.157 2 10.1526 2C10.1481 2 10.1437 2 10.1392 2C10.1347 2 10.1303 2 10.1258 2C10.1214 2 10.1169 2 10.1125 2C10.108 2 10.1035 2 10.0991 2C10.0946 2 10.0902 2 10.0857 2C10.0812 2 10.0768 2 10.0723 2C10.0679 2 10.0634 2 10.059 2C10.0545 2 10.05 2 10.0456 2C10.0411 2 10.0367 2 10.0322 2C10.0277 2 10.0233 2 10.0188 2C10.0144 2 10.0099 2 10.0054 2C10.001 2 9.99653 2 9.99207 2C9.98761 2 9.98315 2 9.97869 2C9.97423 2 9.96977 2 9.96531 2C9.96085 2 9.95639 2 9.95192 2C9.94746 2 9.943 2 9.93854 2C9.93408 2 9.92962 2 9.92515 2C9.92069 2 9.91623 2 9.91177 2C9.9073 2 9.90284 2 9.89838 2C9.89392 2 9.88945 2 9.88499 2C9.88053 2 9.87606 2 9.8716 2C9.86714 2 9.86267 2 9.85821 2C9.85374 2 9.84928 2 9.84481 2C9.84035 2 9.83588 2 9.83142 2C9.82695 2 9.82249 2 9.81802 2C9.81356 2 9.80909 2 9.80463 2C9.80016 2 9.79569 2 9.79123 2C9.78676 2 9.78229 2 9.77783 2C9.77336 2 9.76889 2 9.76442 2C9.75996 2 9.75549 2 9.75102 2C9.74655 2 9.74208 2 9.73762 2C9.73315 2 9.72868 2 9.72421 2C9.71974 2 9.71527 2 9.7108 2C9.70633 2 9.70186 2 9.69739 2C9.69292 2 9.68845 2 9.68398 2C9.67951 2 9.67504 2 9.67056 2C9.66609 2 9.66162 2 9.65715 2C9.65268 2 9.6482 2 9.64373 2C9.63926 2 9.63479 2 9.63031 2C9.62584 2 9.62137 2 9.61689 2C9.61242 2 9.60794 2 9.60347 2C9.59899 2 9.59452 2 9.59004 2C9.58557 2 9.58109 2 9.57662 2C9.57214 2 9.56766 2 9.56319 2C9.55871 2 9.55423 2 9.54976 2C9.54528 2 9.5408 2 9.53632 2C9.53185 2 9.52737 2 9.52289 2C9.51841 2 9.51393 2 9.50945 2C9.50497 2 9.50049 2 9.49601 2C9.49153 2 9.48705 2 9.48257 2C9.47809 2 9.47361 2 9.46913 2C9.46465 2 9.46017 2 9.45568 2C9.4512 2 9.44672 2 9.44224 2C9.43775 2 9.43327 2 9.42879 2C9.4243 2 9.41982 2 9.41533 2C9.41085 2 9.40637 2 9.40188 2C9.39739 2 9.39291 2 9.38842 2C9.38394 2 9.37945 2 9.37496 2C9.37048 2 9.36599 2 9.3615 2C9.35701 2 9.35253 2 9.34804 2C9.34355 2 9.33906 2 9.33457 2C9.33008 2 9.32559 2 9.3211 2C9.31661 2 9.31212 2 9.30763 2C9.30314 2 9.29865 2 9.29416 2C9.28967 2 9.28517 2 9.28068 2C9.27619 2 9.27169 2 9.2672 2C9.26271 2 9.25821 2 9.25372 2C9.24922 2 9.24473 2 9.24023 2C9.23574 2 9.23124 2 9.22675 2C9.22225 2 9.21775 2 9.21326 2C9.20876 2 9.20426 2 9.19976 2C9.19527 2 9.19077 2 9.18627 2C9.18177 2 9.17727 2 9.17277 2C9.16827 2 9.16377 2 9.15927 2C9.15477 2 9.15027 2 9.14577 2C9.14126 2 9.13676 2 9.13226 2C9.12776 2 9.12325 2 9.11875 2C9.11425 2 9.10974 2 9.10524 2C9.10073 2 9.09623 2 9.09172 2C9.08722 2 9.08271 2 9.0782 2C9.0737 2 9.06919 2 9.06468 2C9.06017 2 9.05567 2 9.05116 2C9.04665 2 9.04214 2 9.03763 2C9.03312 2 9.02861 2 9.0241 2C9.01959 2 9.01508 2 9.01056 2C9.00605 2 9.00154 2 8.99703 2C8.99251 2 8.988 2 8.98349 2C8.97897 2 8.97446 2 8.96994 2C8.96543 2 8.96091 2 8.9564 2C8.95188 2 8.94736 2 8.94285 2C8.93833 2 8.93381 2 8.92929 2C8.92477 2 8.92025 2 8.91574 2C8.91122 2 8.9067 2 8.90217 2C8.89765 2 8.89313 2 8.88861 2C8.88409 2 8.87957 2 8.87504 2C8.87052 2 8.866 2 8.86147 2C8.85695 2 8.85243 2 8.8479 2C8.84337 2 8.83885 2 8.83432 2C8.8298 2 8.82527 2 8.82074 2C8.81621 2 8.81169 2 8.80716 2C8.80263 2 8.7981 2 8.79357 2C8.78904 2 8.78451 2 8.77998 2C8.77545 2 8.77091 2 8.76638 2C8.76185 2 8.75732 2 8.75278 2C8.74825 2 8.74371 2 8.73918 2C8.73464 2 8.73011 2 8.72557 2C8.72104 2 8.7165 2 8.71196 2C8.70742 2 8.70289 2 8.69835 2C8.69381 2 8.68927 2 8.68473 2C8.68019 2 8.67565 2 8.67111 2C8.66657 2 8.66203 2 8.65748 2C8.65294 2 8.6484 2 8.64385 2C8.63931 2 8.63476 2 8.63022 2C8.62567 2 8.62113 2 8.61658 2C8.61204 2 8.60749 2 8.60294 2C8.59839 2 8.59384 2 8.58929 2C8.58475 2 8.5802 2 8.57565 2C8.57109 2 8.56654 2 8.56199 2C8.55744 2 8.55289 2 8.54833 2C8.54378 2 8.53923 2 8.53467 2C8.53012 2 8.52556 2 8.52101 2C8.51645 2 8.51189 2 8.50734 2C8.50278 2 8.49822 2 8.49366 2C8.4891 2 8.48454 2 8.47998 2C8.47542 2 8.47086 2 8.4663 2C8.46174 2 8.45717 2 8.45261 2C8.44805 2 8.44348 2 8.43892 2C8.43435 2 8.42979 2 8.42522 2C8.42066 2 8.41609 2 8.41152 2C8.40696 2 8.40239 2 8.39782 2C8.39325 2 8.38868 2 8.38411 2C8.37954 2 8.37497 2 8.37039 2C8.36582 2 8.36125 2 8.35668 2C8.3521 2 8.34753 2 8.34295 2C8.33838 2 8.3338 2 8.32923 2C8.32465 2 8.32007 2 8.31549 2C8.31092 2 8.30634 2 8.30176 2C8.29718 2 8.2926 2 8.28802 2C8.28343 2 8.27885 2 8.27427 2C8.26969 2 8.2651 2 8.26052 2C8.25593 2 8.25135 2 8.24676 2C8.24218 2 8.23759 2 8.233 2C8.22842 2 8.22383 2 8.21924 2C8.21465 2 8.21006 2 8.20547 2C8.20088 2 8.19629 2 8.19169 2C8.1871 2 8.18251 2 8.17791 2C8.17332 2 8.16872 2 8.16413 2C8.15953 2 8.15494 2 8.15034 2C8.14574 2 8.14114 2 8.13654 2C8.13195 2 8.12735 2 8.12275 2C8.11814 2 8.11354 2 8.10894 2C8.10434 2 8.09974 2 8.09513 2C8.09053 2 8.08592 2 8.08132 2C8.07671 2 8.0721 2 8.0675 2C8.06289 2 8.05828 2 8.05367 2C8.04906 2 8.04445 2 8.03984 2C8.03523 2 8.03062 2 8.02601 2C8.02139 2 8.01678 2 8.01217 2C8.00755 2 8.00294 2 7.99832 2C7.9937 2 7.98909 2 7.98447 2C7.97985 2 7.97523 2 7.97061 2C7.96599 2 7.96137 2 7.95675 2C7.95213 2 7.94751 2 7.94288 2C7.93826 2 7.93364 2 7.92901 2C7.92439 2 7.91976 2 7.91513 2C7.91051 2 7.90588 2 7.90125 2C7.89662 2 7.89199 2 7.88736 2C7.88273 2 7.8781 2 7.87347 2C7.86884 2 7.8642 2 7.85957 2C7.85493 2 7.8503 2 7.84566 2C7.84103 2 7.83639 2 7.83175 2C7.82711 2 7.82247 2 7.81783 2C7.8132 2 7.80855 2 7.80391 2C7.79927 2 7.79463 2 7.78998 2C7.78534 2 7.7807 2 7.77605 2C7.77141 2 7.76676 2 7.76211 2C7.75746 2 7.75282 2 7.74817 2C7.74352 2 7.73887 2 7.73422 2C7.72956 2 7.72491 2 7.72026 2C7.71561 2 7.71095 2 7.7063 2C7.70164 2 7.69698 2 7.69233 2C7.68767 2 7.68301 2 7.67835 2C7.67369 2 7.66903 2 7.66437 2C7.65971 2 7.65505 2 7.65039 2C7.64572 2 7.64106 2 7.63639 2C7.63173 2 7.62706 2 7.6224 2C7.61773 2 7.61306 2 7.60839 2C7.60372 2 7.59905 2 7.59438 2C7.58971 2 7.58504 2 7.58036 2C7.57569 2 7.57102 2 7.56634 2C7.56167 2 7.55699 2 7.55231 2C7.54763 2 7.54296 2 7.53828 2C7.5336 2 7.52892 2 7.52424 2C7.51955 2 7.51487 2 7.51019 2C7.5055 2 7.50082 2 7.49613 2C7.49145 2 7.48676 2 7.48207 2C7.47739 2 7.4727 2 7.46801 2C7.46332 2 7.45863 2 7.45393 2C7.44924 2 7.44455 2 7.43986 2C7.43516 2 7.43047 2 7.42577 2C7.42107 2 7.41638 2 7.41168 2C7.40698 2 7.40228 2 7.39758 2C7.39288 2 7.38818 2 7.38347 2C7.37877 2 7.37407 2 7.36936 2C7.36466 2 7.35995 2 7.35524 2C7.35054 2 7.34583 2 7.34112 2C7.33641 2 7.3317 2 7.32699 2C7.32228 2 7.31756 2 7.31285 2C7.30813 2 7.30342 2 7.2987 2C7.29399 2 7.28927 2 7.28455 2C7.27983 2 7.27511 2 7.27039 2C7.26567 2 7.26095 2 7.25623 2C7.25151 2 7.24678 2 7.24206 2C7.23733 2 7.23261 2 7.22788 2C7.22315 2 7.21842 2 7.21369 2C7.20896 2 7.20423 2 7.1995 2C7.19477 2 7.19004 2 7.1853 2C7.18057 2 7.17583 2 7.17109 2C7.16636 2 7.16162 2 7.15688 2C7.15214 2 7.1474 2 7.14266 2C7.13792 2 7.13318 2 7.12843 2C7.12369 2 7.11895 2 7.1142 2C7.10945 2 7.10471 2 7.09996 2C7.09521 2 7.09046 2 7.08571 2C7.08096 2 7.07621 2 7.07145 2C7.0667 2 7.06195 2 7.05719 2C7.05244 2 7.04768 2 7.04292 2C7.03816 2 7.0334 2 7.02864 2C7.02388 2 7.01912 2 7.01436 2C7.0096 2 7.00483 2 7.00007 2V4ZM17 7V9H19V7H17ZM2 11.25C2 12.0474 1.99836 12.7333 2.06366 13.2857C2.13157 13.8602 2.28353 14.4189 2.68097 14.9032L4.22699 13.6344C4.17045 13.5655 4.09542 13.4366 4.04983 13.051C4.00164 12.6432 4 12.0964 4 11.25H2ZM6.75 14C5.90363 14 5.35678 13.9984 4.94903 13.9502C4.56336 13.9046 4.4345 13.8295 4.36561 13.773L3.09682 15.319C3.5811 15.7165 4.13977 15.8684 4.71426 15.9363C5.26667 16.0016 5.95262 16 6.75 16V14ZM2.68097 14.9032C2.80563 15.0551 2.94492 15.1944 3.09682 15.319L4.36561 13.773C4.31497 13.7315 4.26854 13.685 4.22699 13.6344L2.68097 14.9032ZM13.9999 4C14.971 4 15.5988 4.00212 16.0613 4.06431C16.495 4.12262 16.631 4.21677 16.7071 4.29289L18.1213 2.87868C17.6117 2.36901 16.9833 2.17027 16.3278 2.08214C15.701 1.99788 14.9145 2 13.9999 2V4ZM19 7C19 6.08546 19.0021 5.29896 18.9179 4.67221C18.8297 4.01669 18.631 3.38834 18.1213 2.87868L16.7071 4.29289C16.7832 4.36902 16.8774 4.50496 16.9357 4.9387C16.9979 5.40121 17 6.02892 17 7H19ZM4 7C4 6.02892 4.00212 5.40121 4.06431 4.9387C4.12262 4.50496 4.21677 4.36902 4.29289 4.29289L2.87868 2.87868C2.36902 3.38834 2.17027 4.01669 2.08214 4.67221C1.99788 5.29896 2 6.08546 2 7H4ZM7.00007 2C6.08551 2 5.29899 1.99788 4.67223 2.08214C4.01671 2.17027 3.38835 2.36901 2.87868 2.87868L4.29289 4.29289C4.36901 4.21677 4.50496 4.12262 4.93872 4.06431C5.40124 4.00212 6.02897 4 7.00007 4V2Z" fill="white"/>
<path d="M6.58579 20.4142L7.29289 19.7071L6.58579 20.4142ZM20.4142 20.4142L19.7071 19.7071L20.4142 20.4142ZM20 13V17H22V13H20ZM17 20H10V22H17V20ZM7 17V13H5V17H7ZM10.0001 10C10.0048 10 10.0096 10 10.0144 10C10.0191 10 10.0239 10 10.0286 10C10.0334 10 10.0382 10 10.0429 10C10.0477 10 10.0524 10 10.0572 10C10.0619 10 10.0667 10 10.0715 10C10.0762 10 10.081 10 10.0857 10C10.0905 10 10.0952 10 10.1 10C10.1047 10 10.1095 10 10.1142 10C10.1189 10 10.1237 10 10.1284 10C10.1332 10 10.1379 10 10.1427 10C10.1474 10 10.1521 10 10.1569 10C10.1616 10 10.1664 10 10.1711 10C10.1758 10 10.1806 10 10.1853 10C10.19 10 10.1948 10 10.1995 10C10.2042 10 10.209 10 10.2137 10C10.2184 10 10.2232 10 10.2279 10C10.2326 10 10.2373 10 10.2421 10C10.2468 10 10.2515 10 10.2562 10C10.261 10 10.2657 10 10.2704 10C10.2751 10 10.2798 10 10.2846 10C10.2893 10 10.294 10 10.2987 10C10.3034 10 10.3081 10 10.3128 10C10.3176 10 10.3223 10 10.327 10C10.3317 10 10.3364 10 10.3411 10C10.3458 10 10.3505 10 10.3552 10C10.36 10 10.3647 10 10.3694 10C10.3741 10 10.3788 10 10.3835 10C10.3882 10 10.3929 10 10.3976 10C10.4023 10 10.407 10 10.4117 10C10.4164 10 10.4211 10 10.4258 10C10.4305 10 10.4352 10 10.4399 10C10.4445 10 10.4492 10 10.4539 10C10.4586 10 10.4633 10 10.468 10C10.4727 10 10.4774 10 10.4821 10C10.4868 10 10.4914 10 10.4961 10C10.5008 10 10.5055 10 10.5102 10C10.5149 10 10.5196 10 10.5242 10C10.5289 10 10.5336 10 10.5383 10C10.543 10 10.5476 10 10.5523 10C10.557 10 10.5617 10 10.5663 10C10.571 10 10.5757 10 10.5804 10C10.585 10 10.5897 10 10.5944 10C10.5991 10 10.6037 10 10.6084 10C10.6131 10 10.6177 10 10.6224 10C10.6271 10 10.6317 10 10.6364 10C10.6411 10 10.6457 10 10.6504 10C10.655 10 10.6597 10 10.6644 10C10.669 10 10.6737 10 10.6784 10C10.683 10 10.6877 10 10.6923 10C10.697 10 10.7016 10 10.7063 10C10.711 10 10.7156 10 10.7203 10C10.7249 10 10.7296 10 10.7342 10C10.7389 10 10.7435 10 10.7482 10C10.7528 10 10.7575 10 10.7621 10C10.7668 10 10.7714 10 10.7761 10C10.7807 10 10.7853 10 10.79 10C10.7946 10 10.7993 10 10.8039 10C10.8086 10 10.8132 10 10.8178 10C10.8225 10 10.8271 10 10.8318 10C10.8364 10 10.841 10 10.8457 10C10.8503 10 10.8549 10 10.8596 10C10.8642 10 10.8688 10 10.8735 10C10.8781 10 10.8827 10 10.8874 10C10.892 10 10.8966 10 10.9013 10C10.9059 10 10.9105 10 10.9151 10C10.9198 10 10.9244 10 10.929 10C10.9336 10 10.9383 10 10.9429 10C10.9475 10 10.9521 10 10.9568 10C10.9614 10 10.966 10 10.9706 10C10.9752 10 10.9799 10 10.9845 10C10.9891 10 10.9937 10 10.9983 10C11.0029 10 11.0076 10 11.0122 10C11.0168 10 11.0214 10 11.026 10C11.0306 10 11.0352 10 11.0398 10C11.0445 10 11.0491 10 11.0537 10C11.0583 10 11.0629 10 11.0675 10C11.0721 10 11.0767 10 11.0813 10C11.0859 10 11.0905 10 11.0951 10C11.0997 10 11.1043 10 11.1089 10C11.1135 10 11.1181 10 11.1227 10C11.1273 10 11.1319 10 11.1365 10C11.1411 10 11.1457 10 11.1503 10C11.1549 10 11.1595 10 11.1641 10C11.1687 10 11.1733 10 11.1779 10C11.1825 10 11.1871 10 11.1917 10C11.1963 10 11.2009 10 11.2055 10C11.2101 10 11.2146 10 11.2192 10C11.2238 10 11.2284 10 11.233 10C11.2376 10 11.2422 10 11.2468 10C11.2513 10 11.2559 10 11.2605 10C11.2651 10 11.2697 10 11.2743 10C11.2789 10 11.2834 10 11.288 10C11.2926 10 11.2972 10 11.3018 10C11.3063 10 11.3109 10 11.3155 10C11.3201 10 11.3246 10 11.3292 10C11.3338 10 11.3384 10 11.343 10C11.3475 10 11.3521 10 11.3567 10C11.3612 10 11.3658 10 11.3704 10C11.375 10 11.3795 10 11.3841 10C11.3887 10 11.3932 10 11.3978 10C11.4024 10 11.407 10 11.4115 10C11.4161 10 11.4207 10 11.4252 10C11.4298 10 11.4344 10 11.4389 10C11.4435 10 11.448 10 11.4526 10C11.4572 10 11.4617 10 11.4663 10C11.4709 10 11.4754 10 11.48 10C11.4845 10 11.4891 10 11.4937 10C11.4982 10 11.5028 10 11.5073 10C11.5119 10 11.5164 10 11.521 10C11.5256 10 11.5301 10 11.5347 10C11.5392 10 11.5438 10 11.5483 10C11.5529 10 11.5574 10 11.562 10C11.5665 10 11.5711 10 11.5756 10C11.5802 10 11.5847 10 11.5893 10C11.5938 10 11.5984 10 11.6029 10C11.6075 10 11.612 10 11.6166 10C11.6211 10 11.6257 10 11.6302 10C11.6348 10 11.6393 10 11.6439 10C11.6484 10 11.6529 10 11.6575 10C11.662 10 11.6666 10 11.6711 10C11.6756 10 11.6802 10 11.6847 10C11.6893 10 11.6938 10 11.6983 10C11.7029 10 11.7074 10 11.712 10C11.7165 10 11.721 10 11.7256 10C11.7301 10 11.7346 10 11.7392 10C11.7437 10 11.7482 10 11.7528 10C11.7573 10 11.7618 10 11.7664 10C11.7709 10 11.7754 10 11.78 10C11.7845 10 11.789 10 11.7936 10C11.7981 10 11.8026 10 11.8072 10C11.8117 10 11.8162 10 11.8207 10C11.8253 10 11.8298 10 11.8343 10C11.8388 10 11.8434 10 11.8479 10C11.8524 10 11.8569 10 11.8615 10C11.866 10 11.8705 10 11.875 10C11.8796 10 11.8841 10 11.8886 10C11.8931 10 11.8977 10 11.9022 10C11.9067 10 11.9112 10 11.9157 10C11.9203 10 11.9248 10 11.9293 10C11.9338 10 11.9383 10 11.9428 10C11.9474 10 11.9519 10 11.9564 10C11.9609 10 11.9654 10 11.9699 10C11.9745 10 11.979 10 11.9835 10C11.988 10 11.9925 10 11.997 10C12.0015 10 12.0061 10 12.0106 10C12.0151 10 12.0196 10 12.0241 10C12.0286 10 12.0331 10 12.0376 10C12.0421 10 12.0466 10 12.0512 10C12.0557 10 12.0602 10 12.0647 10C12.0692 10 12.0737 10 12.0782 10C12.0827 10 12.0872 10 12.0917 10C12.0962 10 12.1007 10 12.1052 10C12.1097 10 12.1142 10 12.1187 10C12.1233 10 12.1278 10 12.1323 10C12.1368 10 12.1413 10 12.1458 10C12.1503 10 12.1548 10 12.1593 10C12.1638 10 12.1683 10 12.1728 10C12.1773 10 12.1818 10 12.1863 10C12.1908 10 12.1953 10 12.1998 10C12.2043 10 12.2088 10 12.2133 10C12.2178 10 12.2223 10 12.2267 10C12.2312 10 12.2357 10 12.2402 10C12.2447 10 12.2492 10 12.2537 10C12.2582 10 12.2627 10 12.2672 10C12.2717 10 12.2762 10 12.2807 10C12.2852 10 12.2897 10 12.2942 10C12.2986 10 12.3031 10 12.3076 10C12.3121 10 12.3166 10 12.3211 10C12.3256 10 12.3301 10 12.3346 10C12.3391 10 12.3435 10 12.348 10C12.3525 10 12.357 10 12.3615 10C12.366 10 12.3705 10 12.375 10C12.3795 10 12.3839 10 12.3884 10C12.3929 10 12.3974 10 12.4019 10C12.4064 10 12.4109 10 12.4153 10C12.4198 10 12.4243 10 12.4288 10C12.4333 10 12.4378 10 12.4422 10C12.4467 10 12.4512 10 12.4557 10C12.4602 10 12.4646 10 12.4691 10C12.4736 10 12.4781 10 12.4826 10C12.4871 10 12.4915 10 12.496 10C12.5005 10 12.505 10 12.5095 10C12.5139 10 12.5184 10 12.5229 10C12.5274 10 12.5318 10 12.5363 10C12.5408 10 12.5453 10 12.5498 10C12.5542 10 12.5587 10 12.5632 10C12.5677 10 12.5721 10 12.5766 10C12.5811 10 12.5856 10 12.59 10C12.5945 10 12.599 10 12.6035 10C12.6079 10 12.6124 10 12.6169 10C12.6214 10 12.6258 10 12.6303 10C12.6348 10 12.6393 10 12.6437 10C12.6482 10 12.6527 10 12.6571 10C12.6616 10 12.6661 10 12.6706 10C12.675 10 12.6795 10 12.684 10C12.6884 10 12.6929 10 12.6974 10C12.7019 10 12.7063 10 12.7108 10C12.7153 10 12.7197 10 12.7242 10C12.7287 10 12.7331 10 12.7376 10C12.7421 10 12.7466 10 12.751 10C12.7555 10 12.76 10 12.7644 10C12.7689 10 12.7734 10 12.7778 10C12.7823 10 12.7868 10 12.7912 10C12.7957 10 12.8002 10 12.8046 10C12.8091 10 12.8136 10 12.818 10C12.8225 10 12.827 10 12.8314 10C12.8359 10 12.8403 10 12.8448 10C12.8493 10 12.8537 10 12.8582 10C12.8627 10 12.8671 10 12.8716 10C12.8761 10 12.8805 10 12.885 10C12.8895 10 12.8939 10 12.8984 10C12.9028 10 12.9073 10 12.9118 10C12.9162 10 12.9207 10 12.9252 10C12.9296 10 12.9341 10 12.9385 10C12.943 10 12.9475 10 12.9519 10C12.9564 10 12.9608 10 12.9653 10C12.9698 10 12.9742 10 12.9787 10C12.9831 10 12.9876 10 12.9921 10C12.9965 10 13.001 10 13.0054 10C13.0099 10 13.0144 10 13.0188 10C13.0233 10 13.0277 10 13.0322 10C13.0367 10 13.0411 10 13.0456 10C13.05 10 13.0545 10 13.059 10C13.0634 10 13.0679 10 13.0723 10C13.0768 10 13.0812 10 13.0857 10C13.0902 10 13.0946 10 13.0991 10C13.1035 10 13.108 10 13.1125 10C13.1169 10 13.1214 10 13.1258 10C13.1303 10 13.1347 10 13.1392 10C13.1437 10 13.1481 10 13.1526 10C13.157 10 13.1615 10 13.1659 10C13.1704 10 13.1748 10 13.1793 10C13.1838 10 13.1882 10 13.1927 10C13.1971 10 13.2016 10 13.206 10C13.2105 10 13.2149 10 13.2194 10C13.2239 10 13.2283 10 13.2328 10C13.2372 10 13.2417 10 13.2461 10C13.2506 10 13.255 10 13.2595 10C13.264 10 13.2684 10 13.2729 10C13.2773 10 13.2818 10 13.2862 10C13.2907 10 13.2951 10 13.2996 10C13.304 10 13.3085 10 13.313 10C13.3174 10 13.3219 10 13.3263 10C13.3308 10 13.3352 10 13.3397 10C13.3441 10 13.3486 10 13.353 10C13.3575 10 13.3619 10 13.3664 10C13.3709 10 13.3753 10 13.3798 10C13.3842 10 13.3887 10 13.3931 10C13.3976 10 13.402 10 13.4065 10C13.4109 10 13.4154 10 13.4198 10C13.4243 10 13.4287 10 13.4332 10C13.4377 10 13.4421 10 13.4466 10C13.451 10 13.4555 10 13.4599 10C13.4644 10 13.4688 10 13.4733 10C13.4777 10 13.4822 10 13.4866 10C13.4911 10 13.4955 10 13.5 10C13.5045 10 13.5089 10 13.5134 10C13.5178 10 13.5223 10 13.5267 10C13.5312 10 13.5356 10 13.5401 10C13.5445 10 13.549 10 13.5534 10C13.5579 10 13.5623 10 13.5668 10C13.5713 10 13.5757 10 13.5802 10C13.5846 10 13.5891 10 13.5935 10C13.598 10 13.6024 10 13.6069 10C13.6113 10 13.6158 10 13.6202 10C13.6247 10 13.6291 10 13.6336 10C13.6381 10 13.6425 10 13.647 10C13.6514 10 13.6559 10 13.6603 10C13.6648 10 13.6692 10 13.6737 10C13.6781 10 13.6826 10 13.687 10C13.6915 10 13.696 10 13.7004 10C13.7049 10 13.7093 10 13.7138 10C13.7182 10 13.7227 10 13.7271 10C13.7316 10 13.736 10 13.7405 10C13.745 10 13.7494 10 13.7539 10C13.7583 10 13.7628 10 13.7672 10C13.7717 10 13.7761 10 13.7806 10C13.7851 10 13.7895 10 13.794 10C13.7984 10 13.8029 10 13.8073 10C13.8118 10 13.8162 10 13.8207 10C13.8252 10 13.8296 10 13.8341 10C13.8385 10 13.843 10 13.8474 10C13.8519 10 13.8563 10 13.8608 10C13.8653 10 13.8697 10 13.8742 10C13.8786 10 13.8831 10 13.8875 10C13.892 10 13.8965 10 13.9009 10C13.9054 10 13.9098 10 13.9143 10C13.9188 10 13.9232 10 13.9277 10C13.9321 10 13.9366 10 13.941 10C13.9455 10 13.95 10 13.9544 10C13.9589 10 13.9633 10 13.9678 10C13.9723 10 13.9767 10 13.9812 10C13.9856 10 13.9901 10 13.9945 10C13.999 10 14.0035 10 14.0079 10C14.0124 10 14.0169 10 14.0213 10C14.0258 10 14.0302 10 14.0347 10C14.0392 10 14.0436 10 14.0481 10C14.0525 10 14.057 10 14.0615 10C14.0659 10 14.0704 10 14.0748 10C14.0793 10 14.0838 10 14.0882 10C14.0927 10 14.0972 10 14.1016 10C14.1061 10 14.1105 10 14.115 10C14.1195 10 14.1239 10 14.1284 10C14.1329 10 14.1373 10 14.1418 10C14.1463 10 14.1507 10 14.1552 10C14.1596 10 14.1641 10 14.1686 10C14.173 10 14.1775 10 14.182 10C14.1864 10 14.1909 10 14.1954 10C14.1998 10 14.2043 10 14.2088 10C14.2132 10 14.2177 10 14.2222 10C14.2266 10 14.2311 10 14.2356 10C14.24 10 14.2445 10 14.249 10C14.2534 10 14.2579 10 14.2624 10C14.2669 10 14.2713 10 14.2758 10C14.2803 10 14.2847 10 14.2892 10C14.2937 10 14.2981 10 14.3026 10C14.3071 10 14.3116 10 14.316 10C14.3205 10 14.325 10 14.3294 10C14.3339 10 14.3384 10 14.3429 10C14.3473 10 14.3518 10 14.3563 10C14.3607 10 14.3652 10 14.3697 10C14.3742 10 14.3786 10 14.3831 10C14.3876 10 14.3921 10 14.3965 10C14.401 10 14.4055 10 14.41 10C14.4144 10 14.4189 10 14.4234 10C14.4279 10 14.4323 10 14.4368 10C14.4413 10 14.4458 10 14.4502 10C14.4547 10 14.4592 10 14.4637 10C14.4682 10 14.4726 10 14.4771 10C14.4816 10 14.4861 10 14.4905 10C14.495 10 14.4995 10 14.504 10C14.5085 10 14.5129 10 14.5174 10C14.5219 10 14.5264 10 14.5309 10C14.5354 10 14.5398 10 14.5443 10C14.5488 10 14.5533 10 14.5578 10C14.5622 10 14.5667 10 14.5712 10C14.5757 10 14.5802 10 14.5847 10C14.5891 10 14.5936 10 14.5981 10C14.6026 10 14.6071 10 14.6116 10C14.6161 10 14.6205 10 14.625 10C14.6295 10 14.634 10 14.6385 10C14.643 10 14.6475 10 14.652 10C14.6564 10 14.6609 10 14.6654 10C14.6699 10 14.6744 10 14.6789 10C14.6834 10 14.6879 10 14.6924 10C14.6969 10 14.7014 10 14.7058 10C14.7103 10 14.7148 10 14.7193 10C14.7238 10 14.7283 10 14.7328 10C14.7373 10 14.7418 10 14.7463 10C14.7508 10 14.7553 10 14.7598 10C14.7643 10 14.7688 10 14.7733 10C14.7777 10 14.7822 10 14.7867 10C14.7912 10 14.7957 10 14.8002 10C14.8047 10 14.8092 10 14.8137 10C14.8182 10 14.8227 10 14.8272 10C14.8317 10 14.8362 10 14.8407 10C14.8452 10 14.8497 10 14.8542 10C14.8587 10 14.8632 10 14.8677 10C14.8722 10 14.8767 10 14.8812 10C14.8858 10 14.8903 10 14.8948 10C14.8993 10 14.9038 10 14.9083 10C14.9128 10 14.9173 10 14.9218 10C14.9263 10 14.9308 10 14.9353 10C14.9398 10 14.9443 10 14.9488 10C14.9534 10 14.9579 10 14.9624 10C14.9669 10 14.9714 10 14.9759 10C14.9804 10 14.9849 10 14.9894 10C14.9939 10 14.9985 10 15.003 10C15.0075 10 15.012 10 15.0165 10C15.021 10 15.0255 10 15.0301 10C15.0346 10 15.0391 10 15.0436 10C15.0481 10 15.0526 10 15.0572 10C15.0617 10 15.0662 10 15.0707 10C15.0752 10 15.0797 10 15.0843 10C15.0888 10 15.0933 10 15.0978 10C15.1023 10 15.1069 10 15.1114 10C15.1159 10 15.1204 10 15.125 10C15.1295 10 15.134 10 15.1385 10C15.143 10 15.1476 10 15.1521 10C15.1566 10 15.1612 10 15.1657 10C15.1702 10 15.1747 10 15.1793 10C15.1838 10 15.1883 10 15.1928 10C15.1974 10 15.2019 10 15.2064 10C15.211 10 15.2155 10 15.22 10C15.2246 10 15.2291 10 15.2336 10C15.2382 10 15.2427 10 15.2472 10C15.2518 10 15.2563 10 15.2608 10C15.2654 10 15.2699 10 15.2744 10C15.279 10 15.2835 10 15.288 10C15.2926 10 15.2971 10 15.3017 10C15.3062 10 15.3107 10 15.3153 10C15.3198 10 15.3243 10 15.3289 10C15.3334 10 15.338 10 15.3425 10C15.3471 10 15.3516 10 15.3561 10C15.3607 10 15.3652 10 15.3698 10C15.3743 10 15.3789 10 15.3834 10C15.388 10 15.3925 10 15.3971 10C15.4016 10 15.4062 10 15.4107 10C15.4153 10 15.4198 10 15.4244 10C15.4289 10 15.4335 10 15.438 10C15.4426 10 15.4471 10 15.4517 10C15.4562 10 15.4608 10 15.4653 10C15.4699 10 15.4744 10 15.479 10C15.4836 10 15.4881 10 15.4927 10C15.4972 10 15.5018 10 15.5063 10C15.5109 10 15.5155 10 15.52 10C15.5246 10 15.5291 10 15.5337 10C15.5383 10 15.5428 10 15.5474 10C15.552 10 15.5565 10 15.5611 10C15.5656 10 15.5702 10 15.5748 10C15.5793 10 15.5839 10 15.5885 10C15.593 10 15.5976 10 15.6022 10C15.6068 10 15.6113 10 15.6159 10C15.6205 10 15.625 10 15.6296 10C15.6342 10 15.6387 10 15.6433 10C15.6479 10 15.6525 10 15.657 10C15.6616 10 15.6662 10 15.6708 10C15.6754 10 15.6799 10 15.6845 10C15.6891 10 15.6937 10 15.6982 10C15.7028 10 15.7074 10 15.712 10C15.7166 10 15.7211 10 15.7257 10C15.7303 10 15.7349 10 15.7395 10C15.7441 10 15.7487 10 15.7532 10C15.7578 10 15.7624 10 15.767 10C15.7716 10 15.7762 10 15.7808 10C15.7854 10 15.7899 10 15.7945 10C15.7991 10 15.8037 10 15.8083 10C15.8129 10 15.8175 10 15.8221 10C15.8267 10 15.8313 10 15.8359 10C15.8405 10 15.8451 10 15.8497 10C15.8543 10 15.8589 10 15.8635 10C15.8681 10 15.8727 10 15.8773 10C15.8819 10 15.8865 10 15.8911 10C15.8957 10 15.9003 10 15.9049 10C15.9095 10 15.9141 10 15.9187 10C15.9233 10 15.9279 10 15.9325 10C15.9371 10 15.9417 10 15.9463 10C15.9509 10 15.9555 10 15.9602 10C15.9648 10 15.9694 10 15.974 10C15.9786 10 15.9832 10 15.9878 10C15.9924 10 15.9971 10 16.0017 10C16.0063 10 16.0109 10 16.0155 10C16.0201 10 16.0248 10 16.0294 10C16.034 10 16.0386 10 16.0432 10C16.0479 10 16.0525 10 16.0571 10C16.0617 10 16.0664 10 16.071 10C16.0756 10 16.0802 10 16.0849 10C16.0895 10 16.0941 10 16.0987 10C16.1034 10 16.108 10 16.1126 10C16.1173 10 16.1219 10 16.1265 10C16.1312 10 16.1358 10 16.1404 10C16.1451 10 16.1497 10 16.1543 10C16.159 10 16.1636 10 16.1682 10C16.1729 10 16.1775 10 16.1822 10C16.1868 10 16.1914 10 16.1961 10C16.2007 10 16.2054 10 16.21 10C16.2147 10 16.2193 10 16.2239 10C16.2286 10 16.2332 10 16.2379 10C16.2425 10 16.2472 10 16.2518 10C16.2565 10 16.2611 10 16.2658 10C16.2704 10 16.2751 10 16.2797 10C16.2844 10 16.289 10 16.2937 10C16.2984 10 16.303 10 16.3077 10C16.3123 10 16.317 10 16.3216 10C16.3263 10 16.331 10 16.3356 10C16.3403 10 16.345 10 16.3496 10C16.3543 10 16.3589 10 16.3636 10C16.3683 10 16.3729 10 16.3776 10C16.3823 10 16.3869 10 16.3916 10C16.3963 10 16.4009 10 16.4056 10C16.4103 10 16.415 10 16.4196 10C16.4243 10 16.429 10 16.4337 10C16.4383 10 16.443 10 16.4477 10C16.4524 10 16.457 10 16.4617 10C16.4664 10 16.4711 10 16.4758 10C16.4804 10 16.4851 10 16.4898 10C16.4945 10 16.4992 10 16.5039 10C16.5086 10 16.5132 10 16.5179 10C16.5226 10 16.5273 10 16.532 10C16.5367 10 16.5414 10 16.5461 10C16.5508 10 16.5555 10 16.5601 10C16.5648 10 16.5695 10 16.5742 10C16.5789 10 16.5836 10 16.5883 10C16.593 10 16.5977 10 16.6024 10C16.6071 10 16.6118 10 16.6165 10C16.6212 10 16.6259 10 16.6306 10C16.6353 10 16.64 10 16.6448 10C16.6495 10 16.6542 10 16.6589 10C16.6636 10 16.6683 10 16.673 10C16.6777 10 16.6824 10 16.6872 10C16.6919 10 16.6966 10 16.7013 10C16.706 10 16.7107 10 16.7154 10C16.7202 10 16.7249 10 16.7296 10C16.7343 10 16.739 10 16.7438 10C16.7485 10 16.7532 10 16.7579 10C16.7627 10 16.7674 10 16.7721 10C16.7768 10 16.7816 10 16.7863 10C16.791 10 16.7958 10 16.8005 10C16.8052 10 16.81 10 16.8147 10C16.8194 10 16.8242 10 16.8289 10C16.8336 10 16.8384 10 16.8431 10C16.8479 10 16.8526 10 16.8573 10C16.8621 10 16.8668 10 16.8716 10C16.8763 10 16.8811 10 16.8858 10C16.8905 10 16.8953 10 16.9 10C16.9048 10 16.9095 10 16.9143 10C16.919 10 16.9238 10 16.9285 10C16.9333 10 16.9381 10 16.9428 10C16.9476 10 16.9523 10 16.9571 10C16.9618 10 16.9666 10 16.9714 10C16.9761 10 16.9809 10 16.9856 10C16.9904 10 16.9952 10 16.9999 10V8C16.9952 8 16.9904 8 16.9856 8C16.9809 8 16.9761 8 16.9714 8C16.9666 8 16.9618 8 16.9571 8C16.9523 8 16.9476 8 16.9428 8C16.9381 8 16.9333 8 16.9285 8C16.9238 8 16.919 8 16.9143 8C16.9095 8 16.9048 8 16.9 8C16.8953 8 16.8905 8 16.8858 8C16.8811 8 16.8763 8 16.8716 8C16.8668 8 16.8621 8 16.8573 8C16.8526 8 16.8479 8 16.8431 8C16.8384 8 16.8336 8 16.8289 8C16.8242 8 16.8194 8 16.8147 8C16.81 8 16.8052 8 16.8005 8C16.7958 8 16.791 8 16.7863 8C16.7816 8 16.7768 8 16.7721 8C16.7674 8 16.7627 8 16.7579 8C16.7532 8 16.7485 8 16.7438 8C16.739 8 16.7343 8 16.7296 8C16.7249 8 16.7202 8 16.7154 8C16.7107 8 16.706 8 16.7013 8C16.6966 8 16.6919 8 16.6872 8C16.6824 8 16.6777 8 16.673 8C16.6683 8 16.6636 8 16.6589 8C16.6542 8 16.6495 8 16.6448 8C16.64 8 16.6353 8 16.6306 8C16.6259 8 16.6212 8 16.6165 8C16.6118 8 16.6071 8 16.6024 8C16.5977 8 16.593 8 16.5883 8C16.5836 8 16.5789 8 16.5742 8C16.5695 8 16.5648 8 16.5601 8C16.5555 8 16.5508 8 16.5461 8C16.5414 8 16.5367 8 16.532 8C16.5273 8 16.5226 8 16.5179 8C16.5132 8 16.5086 8 16.5039 8C16.4992 8 16.4945 8 16.4898 8C16.4851 8 16.4804 8 16.4758 8C16.4711 8 16.4664 8 16.4617 8C16.457 8 16.4524 8 16.4477 8C16.443 8 16.4383 8 16.4337 8C16.429 8 16.4243 8 16.4196 8C16.415 8 16.4103 8 16.4056 8C16.4009 8 16.3963 8 16.3916 8C16.3869 8 16.3823 8 16.3776 8C16.3729 8 16.3683 8 16.3636 8C16.3589 8 16.3543 8 16.3496 8C16.345 8 16.3403 8 16.3356 8C16.331 8 16.3263 8 16.3216 8C16.317 8 16.3123 8 16.3077 8C16.303 8 16.2984 8 16.2937 8C16.289 8 16.2844 8 16.2797 8C16.2751 8 16.2704 8 16.2658 8C16.2611 8 16.2565 8 16.2518 8C16.2472 8 16.2425 8 16.2379 8C16.2332 8 16.2286 8 16.2239 8C16.2193 8 16.2147 8 16.21 8C16.2054 8 16.2007 8 16.1961 8C16.1914 8 16.1868 8 16.1822 8C16.1775 8 16.1729 8 16.1682 8C16.1636 8 16.159 8 16.1543 8C16.1497 8 16.1451 8 16.1404 8C16.1358 8 16.1312 8 16.1265 8C16.1219 8 16.1173 8 16.1126 8C16.108 8 16.1034 8 16.0987 8C16.0941 8 16.0895 8 16.0849 8C16.0802 8 16.0756 8 16.071 8C16.0664 8 16.0617 8 16.0571 8C16.0525 8 16.0479 8 16.0432 8C16.0386 8 16.034 8 16.0294 8C16.0248 8 16.0201 8 16.0155 8C16.0109 8 16.0063 8 16.0017 8C15.9971 8 15.9924 8 15.9878 8C15.9832 8 15.9786 8 15.974 8C15.9694 8 15.9648 8 15.9602 8C15.9555 8 15.9509 8 15.9463 8C15.9417 8 15.9371 8 15.9325 8C15.9279 8 15.9233 8 15.9187 8C15.9141 8 15.9095 8 15.9049 8C15.9003 8 15.8957 8 15.8911 8C15.8865 8 15.8819 8 15.8773 8C15.8727 8 15.8681 8 15.8635 8C15.8589 8 15.8543 8 15.8497 8C15.8451 8 15.8405 8 15.8359 8C15.8313 8 15.8267 8 15.8221 8C15.8175 8 15.8129 8 15.8083 8C15.8037 8 15.7991 8 15.7945 8C15.7899 8 15.7854 8 15.7808 8C15.7762 8 15.7716 8 15.767 8C15.7624 8 15.7578 8 15.7532 8C15.7487 8 15.7441 8 15.7395 8C15.7349 8 15.7303 8 15.7257 8C15.7211 8 15.7166 8 15.712 8C15.7074 8 15.7028 8 15.6982 8C15.6937 8 15.6891 8 15.6845 8C15.6799 8 15.6754 8 15.6708 8C15.6662 8 15.6616 8 15.657 8C15.6525 8 15.6479 8 15.6433 8C15.6387 8 15.6342 8 15.6296 8C15.625 8 15.6205 8 15.6159 8C15.6113 8 15.6068 8 15.6022 8C15.5976 8 15.593 8 15.5885 8C15.5839 8 15.5793 8 15.5748 8C15.5702 8 15.5656 8 15.5611 8C15.5565 8 15.552 8 15.5474 8C15.5428 8 15.5383 8 15.5337 8C15.5291 8 15.5246 8 15.52 8C15.5155 8 15.5109 8 15.5063 8C15.5018 8 15.4972 8 15.4927 8C15.4881 8 15.4836 8 15.479 8C15.4744 8 15.4699 8 15.4653 8C15.4608 8 15.4562 8 15.4517 8C15.4471 8 15.4426 8 15.438 8C15.4335 8 15.4289 8 15.4244 8C15.4198 8 15.4153 8 15.4107 8C15.4062 8 15.4016 8 15.3971 8C15.3925 8 15.388 8 15.3834 8C15.3789 8 15.3743 8 15.3698 8C15.3652 8 15.3607 8 15.3561 8C15.3516 8 15.3471 8 15.3425 8C15.338 8 15.3334 8 15.3289 8C15.3243 8 15.3198 8 15.3153 8C15.3107 8 15.3062 8 15.3017 8C15.2971 8 15.2926 8 15.288 8C15.2835 8 15.279 8 15.2744 8C15.2699 8 15.2654 8 15.2608 8C15.2563 8 15.2518 8 15.2472 8C15.2427 8 15.2382 8 15.2336 8C15.2291 8 15.2246 8 15.22 8C15.2155 8 15.211 8 15.2064 8C15.2019 8 15.1974 8 15.1928 8C15.1883 8 15.1838 8 15.1793 8C15.1747 8 15.1702 8 15.1657 8C15.1612 8 15.1566 8 15.1521 8C15.1476 8 15.143 8 15.1385 8C15.134 8 15.1295 8 15.125 8C15.1204 8 15.1159 8 15.1114 8C15.1069 8 15.1023 8 15.0978 8C15.0933 8 15.0888 8 15.0843 8C15.0797 8 15.0752 8 15.0707 8C15.0662 8 15.0617 8 15.0572 8C15.0526 8 15.0481 8 15.0436 8C15.0391 8 15.0346 8 15.0301 8C15.0255 8 15.021 8 15.0165 8C15.012 8 15.0075 8 15.003 8C14.9985 8 14.9939 8 14.9894 8C14.9849 8 14.9804 8 14.9759 8C14.9714 8 14.9669 8 14.9624 8C14.9579 8 14.9534 8 14.9488 8C14.9443 8 14.9398 8 14.9353 8C14.9308 8 14.9263 8 14.9218 8C14.9173 8 14.9128 8 14.9083 8C14.9038 8 14.8993 8 14.8948 8C14.8903 8 14.8858 8 14.8812 8C14.8767 8 14.8722 8 14.8677 8C14.8632 8 14.8587 8 14.8542 8C14.8497 8 14.8452 8 14.8407 8C14.8362 8 14.8317 8 14.8272 8C14.8227 8 14.8182 8 14.8137 8C14.8092 8 14.8047 8 14.8002 8C14.7957 8 14.7912 8 14.7867 8C14.7822 8 14.7777 8 14.7733 8C14.7688 8 14.7643 8 14.7598 8C14.7553 8 14.7508 8 14.7463 8C14.7418 8 14.7373 8 14.7328 8C14.7283 8 14.7238 8 14.7193 8C14.7148 8 14.7103 8 14.7058 8C14.7014 8 14.6969 8 14.6924 8C14.6879 8 14.6834 8 14.6789 8C14.6744 8 14.6699 8 14.6654 8C14.6609 8 14.6564 8 14.652 8C14.6475 8 14.643 8 14.6385 8C14.634 8 14.6295 8 14.625 8C14.6205 8 14.6161 8 14.6116 8C14.6071 8 14.6026 8 14.5981 8C14.5936 8 14.5891 8 14.5847 8C14.5802 8 14.5757 8 14.5712 8C14.5667 8 14.5622 8 14.5578 8C14.5533 8 14.5488 8 14.5443 8C14.5398 8 14.5354 8 14.5309 8C14.5264 8 14.5219 8 14.5174 8C14.5129 8 14.5085 8 14.504 8C14.4995 8 14.495 8 14.4905 8C14.4861 8 14.4816 8 14.4771 8C14.4726 8 14.4682 8 14.4637 8C14.4592 8 14.4547 8 14.4502 8C14.4458 8 14.4413 8 14.4368 8C14.4323 8 14.4279 8 14.4234 8C14.4189 8 14.4144 8 14.41 8C14.4055 8 14.401 8 14.3965 8C14.3921 8 14.3876 8 14.3831 8C14.3786 8 14.3742 8 14.3697 8C14.3652 8 14.3607 8 14.3563 8C14.3518 8 14.3473 8 14.3429 8C14.3384 8 14.3339 8 14.3294 8C14.325 8 14.3205 8 14.316 8C14.3116 8 14.3071 8 14.3026 8C14.2981 8 14.2937 8 14.2892 8C14.2847 8 14.2803 8 14.2758 8C14.2713 8 14.2669 8 14.2624 8C14.2579 8 14.2534 8 14.249 8C14.2445 8 14.24 8 14.2356 8C14.2311 8 14.2266 8 14.2222 8C14.2177 8 14.2132 8 14.2088 8C14.2043 8 14.1998 8 14.1954 8C14.1909 8 14.1864 8 14.182 8C14.1775 8 14.173 8 14.1686 8C14.1641 8 14.1596 8 14.1552 8C14.1507 8 14.1463 8 14.1418 8C14.1373 8 14.1329 8 14.1284 8C14.1239 8 14.1195 8 14.115 8C14.1105 8 14.1061 8 14.1016 8C14.0972 8 14.0927 8 14.0882 8C14.0838 8 14.0793 8 14.0748 8C14.0704 8 14.0659 8 14.0615 8C14.057 8 14.0525 8 14.0481 8C14.0436 8 14.0392 8 14.0347 8C14.0302 8 14.0258 8 14.0213 8C14.0169 8 14.0124 8 14.0079 8C14.0035 8 13.999 8 13.9945 8C13.9901 8 13.9856 8 13.9812 8C13.9767 8 13.9723 8 13.9678 8C13.9633 8 13.9589 8 13.9544 8C13.95 8 13.9455 8 13.941 8C13.9366 8 13.9321 8 13.9277 8C13.9232 8 13.9188 8 13.9143 8C13.9098 8 13.9054 8 13.9009 8C13.8965 8 13.892 8 13.8875 8C13.8831 8 13.8786 8 13.8742 8C13.8697 8 13.8653 8 13.8608 8C13.8563 8 13.8519 8 13.8474 8C13.843 8 13.8385 8 13.8341 8C13.8296 8 13.8252 8 13.8207 8C13.8162 8 13.8118 8 13.8073 8C13.8029 8 13.7984 8 13.794 8C13.7895 8 13.7851 8 13.7806 8C13.7761 8 13.7717 8 13.7672 8C13.7628 8 13.7583 8 13.7539 8C13.7494 8 13.745 8 13.7405 8C13.736 8 13.7316 8 13.7271 8C13.7227 8 13.7182 8 13.7138 8C13.7093 8 13.7049 8 13.7004 8C13.696 8 13.6915 8 13.687 8C13.6826 8 13.6781 8 13.6737 8C13.6692 8 13.6648 8 13.6603 8C13.6559 8 13.6514 8 13.647 8C13.6425 8 13.6381 8 13.6336 8C13.6291 8 13.6247 8 13.6202 8C13.6158 8 13.6113 8 13.6069 8C13.6024 8 13.598 8 13.5935 8C13.5891 8 13.5846 8 13.5802 8C13.5757 8 13.5713 8 13.5668 8C13.5623 8 13.5579 8 13.5534 8C13.549 8 13.5445 8 13.5401 8C13.5356 8 13.5312 8 13.5267 8C13.5223 8 13.5178 8 13.5134 8C13.5089 8 13.5045 8 13.5 8C13.4955 8 13.4911 8 13.4866 8C13.4822 8 13.4777 8 13.4733 8C13.4688 8 13.4644 8 13.4599 8C13.4555 8 13.451 8 13.4466 8C13.4421 8 13.4377 8 13.4332 8C13.4287 8 13.4243 8 13.4198 8C13.4154 8 13.4109 8 13.4065 8C13.402 8 13.3976 8 13.3931 8C13.3887 8 13.3842 8 13.3798 8C13.3753 8 13.3709 8 13.3664 8C13.3619 8 13.3575 8 13.353 8C13.3486 8 13.3441 8 13.3397 8C13.3352 8 13.3308 8 13.3263 8C13.3219 8 13.3174 8 13.313 8C13.3085 8 13.304 8 13.2996 8C13.2951 8 13.2907 8 13.2862 8C13.2818 8 13.2773 8 13.2729 8C13.2684 8 13.264 8 13.2595 8C13.255 8 13.2506 8 13.2461 8C13.2417 8 13.2372 8 13.2328 8C13.2283 8 13.2239 8 13.2194 8C13.2149 8 13.2105 8 13.206 8C13.2016 8 13.1971 8 13.1927 8C13.1882 8 13.1838 8 13.1793 8C13.1748 8 13.1704 8 13.1659 8C13.1615 8 13.157 8 13.1526 8C13.1481 8 13.1437 8 13.1392 8C13.1347 8 13.1303 8 13.1258 8C13.1214 8 13.1169 8 13.1125 8C13.108 8 13.1035 8 13.0991 8C13.0946 8 13.0902 8 13.0857 8C13.0812 8 13.0768 8 13.0723 8C13.0679 8 13.0634 8 13.059 8C13.0545 8 13.05 8 13.0456 8C13.0411 8 13.0367 8 13.0322 8C13.0277 8 13.0233 8 13.0188 8C13.0144 8 13.0099 8 13.0054 8C13.001 8 12.9965 8 12.9921 8C12.9876 8 12.9831 8 12.9787 8C12.9742 8 12.9698 8 12.9653 8C12.9608 8 12.9564 8 12.9519 8C12.9475 8 12.943 8 12.9385 8C12.9341 8 12.9296 8 12.9252 8C12.9207 8 12.9162 8 12.9118 8C12.9073 8 12.9028 8 12.8984 8C12.8939 8 12.8895 8 12.885 8C12.8805 8 12.8761 8 12.8716 8C12.8671 8 12.8627 8 12.8582 8C12.8537 8 12.8493 8 12.8448 8C12.8403 8 12.8359 8 12.8314 8C12.827 8 12.8225 8 12.818 8C12.8136 8 12.8091 8 12.8046 8C12.8002 8 12.7957 8 12.7912 8C12.7868 8 12.7823 8 12.7778 8C12.7734 8 12.7689 8 12.7644 8C12.76 8 12.7555 8 12.751 8C12.7466 8 12.7421 8 12.7376 8C12.7331 8 12.7287 8 12.7242 8C12.7197 8 12.7153 8 12.7108 8C12.7063 8 12.7019 8 12.6974 8C12.6929 8 12.6884 8 12.684 8C12.6795 8 12.675 8 12.6706 8C12.6661 8 12.6616 8 12.6571 8C12.6527 8 12.6482 8 12.6437 8C12.6393 8 12.6348 8 12.6303 8C12.6258 8 12.6214 8 12.6169 8C12.6124 8 12.6079 8 12.6035 8C12.599 8 12.5945 8 12.59 8C12.5856 8 12.5811 8 12.5766 8C12.5721 8 12.5677 8 12.5632 8C12.5587 8 12.5542 8 12.5498 8C12.5453 8 12.5408 8 12.5363 8C12.5318 8 12.5274 8 12.5229 8C12.5184 8 12.5139 8 12.5095 8C12.505 8 12.5005 8 12.496 8C12.4915 8 12.4871 8 12.4826 8C12.4781 8 12.4736 8 12.4691 8C12.4646 8 12.4602 8 12.4557 8C12.4512 8 12.4467 8 12.4422 8C12.4378 8 12.4333 8 12.4288 8C12.4243 8 12.4198 8 12.4153 8C12.4109 8 12.4064 8 12.4019 8C12.3974 8 12.3929 8 12.3884 8C12.3839 8 12.3795 8 12.375 8C12.3705 8 12.366 8 12.3615 8C12.357 8 12.3525 8 12.348 8C12.3435 8 12.3391 8 12.3346 8C12.3301 8 12.3256 8 12.3211 8C12.3166 8 12.3121 8 12.3076 8C12.3031 8 12.2986 8 12.2942 8C12.2897 8 12.2852 8 12.2807 8C12.2762 8 12.2717 8 12.2672 8C12.2627 8 12.2582 8 12.2537 8C12.2492 8 12.2447 8 12.2402 8C12.2357 8 12.2312 8 12.2267 8C12.2223 8 12.2178 8 12.2133 8C12.2088 8 12.2043 8 12.1998 8C12.1953 8 12.1908 8 12.1863 8C12.1818 8 12.1773 8 12.1728 8C12.1683 8 12.1638 8 12.1593 8C12.1548 8 12.1503 8 12.1458 8C12.1413 8 12.1368 8 12.1323 8C12.1278 8 12.1233 8 12.1187 8C12.1142 8 12.1097 8 12.1052 8C12.1007 8 12.0962 8 12.0917 8C12.0872 8 12.0827 8 12.0782 8C12.0737 8 12.0692 8 12.0647 8C12.0602 8 12.0557 8 12.0512 8C12.0466 8 12.0421 8 12.0376 8C12.0331 8 12.0286 8 12.0241 8C12.0196 8 12.0151 8 12.0106 8C12.0061 8 12.0015 8 11.997 8C11.9925 8 11.988 8 11.9835 8C11.979 8 11.9745 8 11.9699 8C11.9654 8 11.9609 8 11.9564 8C11.9519 8 11.9474 8 11.9428 8C11.9383 8 11.9338 8 11.9293 8C11.9248 8 11.9203 8 11.9157 8C11.9112 8 11.9067 8 11.9022 8C11.8977 8 11.8931 8 11.8886 8C11.8841 8 11.8796 8 11.875 8C11.8705 8 11.866 8 11.8615 8C11.8569 8 11.8524 8 11.8479 8C11.8434 8 11.8388 8 11.8343 8C11.8298 8 11.8253 8 11.8207 8C11.8162 8 11.8117 8 11.8072 8C11.8026 8 11.7981 8 11.7936 8C11.789 8 11.7845 8 11.78 8C11.7754 8 11.7709 8 11.7664 8C11.7618 8 11.7573 8 11.7528 8C11.7482 8 11.7437 8 11.7392 8C11.7346 8 11.7301 8 11.7256 8C11.721 8 11.7165 8 11.712 8C11.7074 8 11.7029 8 11.6983 8C11.6938 8 11.6893 8 11.6847 8C11.6802 8 11.6756 8 11.6711 8C11.6666 8 11.662 8 11.6575 8C11.6529 8 11.6484 8 11.6439 8C11.6393 8 11.6348 8 11.6302 8C11.6257 8 11.6211 8 11.6166 8C11.612 8 11.6075 8 11.6029 8C11.5984 8 11.5938 8 11.5893 8C11.5847 8 11.5802 8 11.5756 8C11.5711 8 11.5665 8 11.562 8C11.5574 8 11.5529 8 11.5483 8C11.5438 8 11.5392 8 11.5347 8C11.5301 8 11.5256 8 11.521 8C11.5164 8 11.5119 8 11.5073 8C11.5028 8 11.4982 8 11.4937 8C11.4891 8 11.4845 8 11.48 8C11.4754 8 11.4709 8 11.4663 8C11.4617 8 11.4572 8 11.4526 8C11.448 8 11.4435 8 11.4389 8C11.4344 8 11.4298 8 11.4252 8C11.4207 8 11.4161 8 11.4115 8C11.407 8 11.4024 8 11.3978 8C11.3932 8 11.3887 8 11.3841 8C11.3795 8 11.375 8 11.3704 8C11.3658 8 11.3612 8 11.3567 8C11.3521 8 11.3475 8 11.343 8C11.3384 8 11.3338 8 11.3292 8C11.3246 8 11.3201 8 11.3155 8C11.3109 8 11.3063 8 11.3018 8C11.2972 8 11.2926 8 11.288 8C11.2834 8 11.2789 8 11.2743 8C11.2697 8 11.2651 8 11.2605 8C11.2559 8 11.2513 8 11.2468 8C11.2422 8 11.2376 8 11.233 8C11.2284 8 11.2238 8 11.2192 8C11.2146 8 11.2101 8 11.2055 8C11.2009 8 11.1963 8 11.1917 8C11.1871 8 11.1825 8 11.1779 8C11.1733 8 11.1687 8 11.1641 8C11.1595 8 11.1549 8 11.1503 8C11.1457 8 11.1411 8 11.1365 8C11.1319 8 11.1273 8 11.1227 8C11.1181 8 11.1135 8 11.1089 8C11.1043 8 11.0997 8 11.0951 8C11.0905 8 11.0859 8 11.0813 8C11.0767 8 11.0721 8 11.0675 8C11.0629 8 11.0583 8 11.0537 8C11.0491 8 11.0445 8 11.0398 8C11.0352 8 11.0306 8 11.026 8C11.0214 8 11.0168 8 11.0122 8C11.0076 8 11.0029 8 10.9983 8C10.9937 8 10.9891 8 10.9845 8C10.9799 8 10.9752 8 10.9706 8C10.966 8 10.9614 8 10.9568 8C10.9521 8 10.9475 8 10.9429 8C10.9383 8 10.9336 8 10.929 8C10.9244 8 10.9198 8 10.9151 8C10.9105 8 10.9059 8 10.9013 8C10.8966 8 10.892 8 10.8874 8C10.8827 8 10.8781 8 10.8735 8C10.8688 8 10.8642 8 10.8596 8C10.8549 8 10.8503 8 10.8457 8C10.841 8 10.8364 8 10.8318 8C10.8271 8 10.8225 8 10.8178 8C10.8132 8 10.8086 8 10.8039 8C10.7993 8 10.7946 8 10.79 8C10.7853 8 10.7807 8 10.7761 8C10.7714 8 10.7668 8 10.7621 8C10.7575 8 10.7528 8 10.7482 8C10.7435 8 10.7389 8 10.7342 8C10.7296 8 10.7249 8 10.7203 8C10.7156 8 10.711 8 10.7063 8C10.7016 8 10.697 8 10.6923 8C10.6877 8 10.683 8 10.6784 8C10.6737 8 10.669 8 10.6644 8C10.6597 8 10.655 8 10.6504 8C10.6457 8 10.6411 8 10.6364 8C10.6317 8 10.6271 8 10.6224 8C10.6177 8 10.6131 8 10.6084 8C10.6037 8 10.5991 8 10.5944 8C10.5897 8 10.585 8 10.5804 8C10.5757 8 10.571 8 10.5663 8C10.5617 8 10.557 8 10.5523 8C10.5476 8 10.543 8 10.5383 8C10.5336 8 10.5289 8 10.5242 8C10.5196 8 10.5149 8 10.5102 8C10.5055 8 10.5008 8 10.4961 8C10.4914 8 10.4868 8 10.4821 8C10.4774 8 10.4727 8 10.468 8C10.4633 8 10.4586 8 10.4539 8C10.4492 8 10.4445 8 10.4399 8C10.4352 8 10.4305 8 10.4258 8C10.4211 8 10.4164 8 10.4117 8C10.407 8 10.4023 8 10.3976 8C10.3929 8 10.3882 8 10.3835 8C10.3788 8 10.3741 8 10.3694 8C10.3647 8 10.36 8 10.3552 8C10.3505 8 10.3458 8 10.3411 8C10.3364 8 10.3317 8 10.327 8C10.3223 8 10.3176 8 10.3128 8C10.3081 8 10.3034 8 10.2987 8C10.294 8 10.2893 8 10.2846 8C10.2798 8 10.2751 8 10.2704 8C10.2657 8 10.261 8 10.2562 8C10.2515 8 10.2468 8 10.2421 8C10.2373 8 10.2326 8 10.2279 8C10.2232 8 10.2184 8 10.2137 8C10.209 8 10.2042 8 10.1995 8C10.1948 8 10.19 8 10.1853 8C10.1806 8 10.1758 8 10.1711 8C10.1664 8 10.1616 8 10.1569 8C10.1521 8 10.1474 8 10.1427 8C10.1379 8 10.1332 8 10.1284 8C10.1237 8 10.1189 8 10.1142 8C10.1095 8 10.1047 8 10.1 8C10.0952 8 10.0905 8 10.0857 8C10.081 8 10.0762 8 10.0715 8C10.0667 8 10.0619 8 10.0572 8C10.0524 8 10.0477 8 10.0429 8C10.0382 8 10.0334 8 10.0286 8C10.0239 8 10.0191 8 10.0144 8C10.0096 8 10.0048 8 10.0001 8V10ZM10 20C9.02892 20 8.40121 19.9979 7.9387 19.9357C7.50496 19.8774 7.36902 19.7832 7.29289 19.7071L5.87868 21.1213C6.38834 21.631 7.01669 21.8297 7.67221 21.9179C8.29896 22.0021 9.08546 22 10 22V20ZM5 17C5 17.9145 4.99788 18.701 5.08214 19.3278C5.17027 19.9833 5.36902 20.6117 5.87868 21.1213L7.29289 19.7071C7.21677 19.631 7.12262 19.495 7.06431 19.0613C7.00212 18.5988 7 17.9711 7 17H5ZM20 17C20 17.9711 19.9979 18.5988 19.9357 19.0613C19.8774 19.495 19.7832 19.631 19.7071 19.7071L21.1213 21.1213C21.631 20.6117 21.8297 19.9833 21.9179 19.3278C22.0021 18.701 22 17.9145 22 17H20ZM17 22C17.9145 22 18.701 22.0021 19.3278 21.9179C19.9833 21.8297 20.6117 21.631 21.1213 21.1213L19.7071 19.7071C19.631 19.7832 19.495 19.8774 19.0613 19.9357C18.5988 19.9979 17.9711 20 17 20V22ZM22 13C22 12.0855 22.0021 11.299 21.9179 10.6722C21.8297 10.0167 21.631 9.38834 21.1213 8.87868L19.7071 10.2929C19.7832 10.369 19.8774 10.505 19.9357 10.9387C19.9979 11.4012 20 12.0289 20 13H22ZM16.9999 10C17.971 10 18.5988 10.0021 19.0613 10.0643C19.495 10.1226 19.631 10.2168 19.7071 10.2929L21.1213 8.87868C20.6117 8.36901 19.9833 8.17027 19.3278 8.08214C18.701 7.99788 17.9145 8 16.9999 8V10ZM7 13C7 12.0289 7.00212 11.4012 7.06431 10.9387C7.12262 10.505 7.21677 10.369 7.29289 10.2929L5.87868 8.87868C5.36902 9.38834 5.17027 10.0167 5.08214 10.6722C4.99788 11.299 5 12.0855 5 13H7ZM10.0001 8C9.08551 8 8.29899 7.99788 7.67223 8.08214C7.01671 8.17027 6.38835 8.36901 5.87868 8.87868L7.29289 10.2929C7.36901 10.2168 7.50496 10.1226 7.93872 10.0643C8.40124 10.0021 9.02897 10 10.0001 10V8Z" fill="white"/>
</svg>
