<svg width="24" height="24" fill="none" xmlns="http://www.w3.org/2000/svg"><path d="M2.586 19.414l-.707.707.707-.707zm18.828 0l.707.707-.707-.707zm0-14.828l.707-.707-.707.707zM21 8v8h2V8h-2zm-3 11H6v2h12v-2zM3 16V8H1v8h2zM6 5H18V3H6.001v2zm0 14c-.971 0-1.599-.002-2.061-.064-.434-.059-.57-.153-.646-.229l-1.414 1.414c.51.51 1.138.709 1.793.797C4.3 21.002 5.085 21 6 21v-2zm-5-3c0 .915-.002 1.701.082 2.328.088.655.287 1.284.797 1.793l1.414-1.414c-.076-.076-.17-.212-.229-.646C3.002 17.6 3 16.971 3 16H1zm20 0c0 .971-.002 1.599-.064 2.061-.059.434-.153.57-.229.646l1.414 1.414c.51-.51.709-1.138.797-1.793C23.002 17.7 23 16.915 23 16h-2zm-3 5c.915 0 1.701.002 2.328-.082.655-.088 1.284-.287 1.793-.797l-1.414-1.414c-.076.076-.212.17-.646.229-.462.062-1.09.064-2.061.064v2zm5-13c0-.915.002-1.701-.082-2.328-.088-.655-.287-1.284-.797-1.793l-1.414 1.414c.076.076.17.212.229.646C20.998 6.4 21 7.029 21 8h2zm-5-3c.97 0 1.599.002 2.061.064.434.059.57.153.646.229l1.414-1.414c-.51-.51-1.138-.709-1.793-.797C19.7 2.998 18.914 3 17.999 3v2zM3 8c0-.971.002-1.599.064-2.061.059-.434.153-.57.229-.646L1.879 3.879c-.51.51-.709 1.138-.797 1.793C.998 6.3 1 7.085 1 8h2zm3-5c-.914 0-1.7-.002-2.328.082-.655.088-1.284.287-1.793.797l1.414 1.414c.076-.076.212-.17.646-.229C4.4 5.002 5.029 5 6 5V3z" fill="#fff"/><path d="M22 16V8c0-1.886 0-2.828-.586-3.414C20.828 4 19.885 4 18 4h-2c-1.886 0-2.828 0-3.414.586C12 5.172 12 6.114 12 8v8c0 1.886 0 2.828.586 3.414C13.172 20 14.114 20 16 20h2c1.886 0 2.828 0 3.414-.586C22 18.828 22 17.886 22 16z" fill="#fff"/></svg>