<svg width="24" height="24" viewBox="0 0 24 24" fill="none" xmlns="http://www.w3.org/2000/svg">
<path d="M6.5 11.5L5.91974 12.5154C4.39888 15.177 3.63845 16.5077 4.21654 17.5039C4.79462 18.5 6.32732 18.5 9.39271 18.5L9.83493 18.5M6.5 11.5L3.33494 11.9821M6.5 11.5L7.66506 14.4821" stroke="white" stroke-width="2" stroke-linecap="round" stroke-linejoin="round"/>
<path d="M15.7297 7.9641L15.1404 6.95386C13.5959 4.306 12.8236 2.98207 11.6719 2.98464C10.5202 2.9872 9.75382 4.31456 8.22112 6.96926L8.00001 7.35223M15.7297 7.9641L16.8947 4.98205M15.7297 7.9641L12.5646 7.48205" stroke="white" stroke-width="2" stroke-linecap="round" stroke-linejoin="round"/>
<path d="M13.6674 18.3882L14.837 18.383C17.9023 18.3693 19.435 18.3625 20.0087 17.3638C20.5823 16.3651 19.816 15.0377 18.2833 12.383L18.0622 12.0001M13.6674 18.3882L15.6674 20.8882M13.6674 18.3882L15.6674 15.8882" stroke="white" stroke-width="2" stroke-linecap="round" stroke-linejoin="round"/>
</svg>
