<svg width="24" height="24" fill="none" xmlns="http://www.w3.org/2000/svg"><path d="M8 11.017c0-2.6.885-5.123 2.51-7.154a1.909 1.909 0 0 1 2.98 0A11.452 11.452 0 0 1 16 11.017v2.762c0 1.14 0 1.71-.226 2.144a2 2 0 0 1-.851.851c-.434.226-1.004.226-2.144.226h-1.558c-1.14 0-1.71 0-2.144-.226a2 2 0 0 1-.851-.851C8 15.489 8 14.919 8 13.779v-2.762z" stroke="#fff" stroke-width="2"/><path d="M13 8a1 1 0 1 1-2 0 1 1 0 0 1 2 0z" fill="#fff"/><path d="M16 9.5l.854 1.281c1.825 2.738 2.738 4.106 2.172 5.163C18.461 17 16.816 17 13.526 17h-3.052c-3.29 0-4.935 0-5.5-1.056-.566-1.057.347-2.425 2.172-5.163L8 9.5" stroke="#fff" stroke-width="2"/><path d="M12 20v2m3-2v1m-6-1v1" stroke="#fff" stroke-width="2" stroke-linecap="round"/></svg>