<svg width="24" height="24" fill="none" xmlns="http://www.w3.org/2000/svg"><path d="M21 21v-.45c0-.977 0-1.465-.113-1.864a3 3 0 0 0-2.073-2.073c-.399-.113-.887-.113-1.864-.113h-4.4c-.977 0-1.465 0-1.864.113a3 3 0 0 0-2.073 2.073c-.113.399-.113.887-.113 1.864V21M3 17.5v-1.6c0-.837 0-1.255.083-1.6A3 3 0 0 1 5.3 12.083C5.645 12 6.063 12 6.9 12H7" stroke="#fff" stroke-width="2" stroke-linecap="round" stroke-linejoin="round"/><path d="M18.5 9.5a3.5 3.5 0 1 1-7 0 3.5 3.5 0 0 1 7 0z" stroke="#fff" stroke-width="2"/><path d="M11 4.38C10.414 3.548 9.411 3 8.273 3 6.465 3 5 4.382 5 6.088 5 7.432 5.91 8.576 7.182 9" stroke="#fff" stroke-width="2" stroke-linecap="round"/></svg>