<svg width="24" height="24" fill="none" xmlns="http://www.w3.org/2000/svg"><path d="M10.293 12.293a1 1 0 1 0 1.414 1.414l-1.414-1.414zm8.414-5.586L19.414 6 18 4.586l-.707.707 1.414 1.414zm.586-3.414L18.586 4 20 5.414l.707-.707-1.414-1.414zm2.414.414a1 1 0 0 0-1.414-1.414l1.414 1.414zm-10 10l7-7-1.414-1.414-7 7 1.414 1.414zm9-9l1-1-1.414-1.414-1 1 1.414 1.414z" fill="#fff"/><path d="M10 7H7c-1.886 0-2.828 0-3.414.586C3 8.172 3 9.114 3 11v6c0 1.886 0 2.828.586 3.414C4.172 21 5.114 21 7 21h6c1.886 0 2.828 0 3.414-.586C17 19.828 17 18.886 17 17v-3" stroke="#fff" stroke-width="2" stroke-linecap="round"/></svg>