<svg width="24" height="24" viewBox="0 0 24 24" fill="none" xmlns="http://www.w3.org/2000/svg">
<path d="M21 12H3M17.236 4.8C16.2085 3.57039 14.2487 3 12 3C8.68629 3 6 4.23858 6 7C6 7.91981 6.19971 8.67065 6.6213 9.3C6.94593 9.78461 7.40213 10.1972 8 10.5594C8.95671 11.139 10.2762 11.5896 12 12C14.0644 12.4915 15.549 13.0407 16.525 13.8C17.5346 14.5855 18 15.5959 18 17C18 19.7614 15.3137 21 12 21C9.91303 21 8.07492 20.5087 7 19.4552" stroke="white" stroke-width="2" stroke-linecap="round"/>
</svg>
