<svg width="24" height="24" fill="none" xmlns="http://www.w3.org/2000/svg"><path d="M12.9 19H7c-1.886 0-2.828 0-3.414-.586C3 17.828 3 16.886 3 15V9c0-1.886 0-2.828.586-3.414C4.172 5 5.114 5 7 5h10c1.886 0 2.828 0 3.414.586C21 6.172 21 7.114 21 9v2" stroke="#fff" stroke-width="2" stroke-linecap="round" stroke-linejoin="round"/><path d="M18 13v6m3-3h-6" stroke="#fff" stroke-width="2" stroke-linecap="round"/><path d="M12.27 5a.5.5 0 1 0-1 0h1zm-1 14a.5.5 0 0 0 1 0h-1zm2.345-4.5a.5.5 0 0 0 0-1v1zM3 13.5a.5.5 0 0 0 0 1v-1zm18-3a.5.5 0 0 0 0-1v1zm-18-1a.5.5 0 0 0 0 1v-1zM11.27 5v14h1V5h-1zm2.345 8.5H3v1h10.615v-1zM21 9.5H3v1h18v-1z" fill="#fff"/></svg>