<svg width="24" height="24" fill="none" xmlns="http://www.w3.org/2000/svg"><path d="M7.5 14.5H3V9h5.016c.4 0 .6 0 .795.039l.059.013c.193.045.375.127.74.292 1.132.514 1.699.771 2.3.79h.18c.601-.019 1.168-.276 2.3-.79.365-.165.547-.247.74-.292.02-.005.04-.01.06-.013.194-.039.394-.039.794-.039H21v5.5h-4.5M3 14.5h4.978c.288 0 .433 0 .573.02.187.027.369.08.54.157.13.059.252.136.496.29.777.494 1.166.741 1.577.86a3 3 0 0 0 1.672 0c.41-.119.8-.366 1.578-.86.243-.154.365-.232.494-.29.172-.077.354-.13.54-.157.141-.02.286-.02.574-.02H21V17c0 1.886 0 2.828-.586 3.414C19.828 21 18.886 21 17 21H7c-1.886 0-2.828 0-3.414-.586C3 19.828 3 18.886 3 17v-2.5zM3 9v-.204c0-.884 0-1.326.176-1.717.175-.391.506-.685 1.167-1.272l2.02-1.797c.562-.5.843-.749 1.187-.88C7.893 3 8.269 3 9.02 3h5.96c.751 0 1.127 0 1.47.13.344.131.625.38 1.187.88l2.02 1.797c.662.587.992.881 1.168 1.272.175.39.175.833.175 1.717V9" stroke="currentColor" stroke-width="2"/></svg>