<svg width="24" height="24" fill="none" xmlns="http://www.w3.org/2000/svg"><g clip-path="url(#clip0_821_19461)"><g clip-path="url(#clip1_821_19461)"><path d="M5.5 8c0 1.886 0 2.828.586 3.414C6.672 12 7.614 12 9.5 12H12m6.5-4c0 1.886 0 2.828-.586 3.414C17.328 12 16.386 12 14.5 12H12m0 0v4m-2.5 2.5a2.5 2.5 0 1 1 5 0 2.5 2.5 0 0 1-5 0zm6.5-13a2.5 2.5 0 1 1 5 0 2.5 2.5 0 0 1-5 0zm-13 0a2.5 2.5 0 1 1 5 0 2.5 2.5 0 0 1-5 0z" stroke="#fff" stroke-width="2"/></g></g><defs><clipPath id="clip0_821_19461"><path fill="#fff" d="M0 0H24V24H0z"/></clipPath><clipPath id="clip1_821_19461"><path fill="#fff" transform="rotate(-180 12 12)" d="M0 0H24V24H0z"/></clipPath></defs></svg>