<svg width="24" height="24" fill="none" xmlns="http://www.w3.org/2000/svg"><g clip-path="url(#clip0_821_23176)"><path d="M16 5.5c-1.886 0-2.828 0-3.414.586C12 6.672 12 7.614 12 9.5V12m4 6.5c-1.886 0-2.828 0-3.414-.586C12 17.328 12 16.386 12 14.5V12m0 0H8M5.5 9.5a2.5 2.5 0 1 1 0 5 2.5 2.5 0 0 1 0-5zm13 6.5a2.5 2.5 0 1 1 0 5 2.5 2.5 0 0 1 0-5zm0-13a2.5 2.5 0 1 1 0 5 2.5 2.5 0 0 1 0-5z" stroke="#fff" stroke-width="2"/></g><defs><clipPath id="clip0_821_23176"><path fill="#fff" d="M0 0H24V24H0z"/></clipPath></defs></svg>