<svg width="24" height="24" viewBox="0 0 24 24" fill="none" xmlns="http://www.w3.org/2000/svg">
<path d="M18.5 16V16C18.5 14.1144 18.5 13.1716 17.9142 12.5858C17.3284 12 16.3856 12 14.5 12H12M5.5 16V16C5.5 14.1144 5.5 13.1716 6.08579 12.5858C6.67157 12 7.61438 12 9.5 12H12M12 12V8" stroke="white" stroke-width="2"/>
<path d="M14.5 5.5C14.5 6.88071 13.3807 8 12 8C10.6193 8 9.5 6.88071 9.5 5.5C9.5 4.11929 10.6193 3 12 3C13.3807 3 14.5 4.11929 14.5 5.5Z" stroke="white" stroke-width="2"/>
<path d="M8 18.5C8 19.8807 6.88071 21 5.5 21C4.11929 21 3 19.8807 3 18.5C3 17.1193 4.11929 16 5.5 16C6.88071 16 8 17.1193 8 18.5Z" stroke="white" stroke-width="2"/>
<path d="M21 18.5C21 19.8807 19.8807 21 18.5 21C17.1193 21 16 19.8807 16 18.5C16 17.1193 17.1193 16 18.5 16C19.8807 16 21 17.1193 21 18.5Z" stroke="white" stroke-width="2"/>
</svg>
