<svg fill="none" height="24" width="24" xmlns="http://www.w3.org/2000/svg"><clipPath id="a"><path d="M0 0h24v24H0z"/></clipPath><clipPath id="b"><path d="M0 0h24v24H0z" transform="rotate(90 12 12)"/></clipPath><g clip-path="url(#a)"><g clip-path="url(#b)"><path d="M8 18.5c1.886 0 2.828 0 3.414-.586S12 16.386 12 14.5V12M8 5.5c1.886 0 2.828 0 3.414.586S12 7.614 12 9.5V12m0 0h4m2.5 2.5a2.5 2.5 0 1 1 0-5 2.5 2.5 0 0 1 0 5zM5.5 8a2.5 2.5 0 1 1 0-5 2.5 2.5 0 0 1 0 5zm0 13a2.5 2.5 0 1 1 0-5 2.5 2.5 0 0 1 0 5z" stroke="currentColor" stroke-width="2"/></g></g></svg>