<svg fill="none" height="24" width="24" xmlns="http://www.w3.org/2000/svg"><path d="M3 9c0-1.886 0-2.828.586-3.414S5.114 5 7 5h2c1.886 0 2.828 0 3.414.586S13 7.114 13 9v3c0 1.886 0 2.828-.586 3.414S10.886 16 9 16H7c-1.886 0-2.828 0-3.414-.586S3 13.886 3 12zm10-1h2.908c.953 0 1.43 0 1.843.2.414.201.709.576 1.299 1.325l1.313 1.666c.206.261.308.392.387.534.111.2.187.42.224.646.026.16.026.326.026.659 0 .904 0 1.356-.143 1.714a2 2 0 0 1-1.113 1.113c-.358.143-.81.143-1.714.143H17c-1.886 0-2.828 0-3.414-.586S13 13.886 13 12zm7 8a3 3 0 1 1-6 0h-4a3 3 0 1 1-6 0" stroke="currentColor" stroke-width="2"/></svg>