<svg width="24" height="24" viewBox="0 0 24 24" fill="none" xmlns="http://www.w3.org/2000/svg">
<path d="M20.5964 5.44118C20.1453 5.44118 19.4592 6.02514 18.5926 6.19486C17.9011 5.46006 16.9166 5 15.8264 5C13.7338 5 12.0366 6.69557 12.0366 8.7878C12.0366 9.08367 12.0708 9.37141 12.1342 9.6494C8.11597 9.6494 6.73045 5.92281 5.34492 5.92281C3.9594 5.92281 3.9594 7.5373 3.9594 8.22983C3.9594 10.6494 4.08836 13.0863 8.41429 15.5882C6.83514 16.8246 3.49756 17.4579 3.03572 18.2987C2.57387 19.1396 6.70507 20 8.84484 20C15.3571 20 19.977 16.5766 19.6941 10.2941C21.4988 8.08824 21.0476 5.44118 20.5964 5.44118Z" stroke="white" stroke-width="2" stroke-linejoin="round"/>
</svg>
