<svg width="24" height="24" viewBox="0 0 24 24" fill="none" xmlns="http://www.w3.org/2000/svg">
<path d="M15 5.99994C15 6.55223 15.4477 6.99994 16 6.99994C16.5523 6.99994 17 6.55223 17 5.99994L15 5.99994ZM7 9.99994C7 10.5522 7.44772 10.9999 8 10.9999C8.55228 10.9999 9 10.5522 9 9.99994H7ZM8 9.99994C9 9.99994 9 9.99994 9 9.99992C9 9.99991 9 9.9999 9 9.99987C9 9.99985 9 9.99982 9 9.99979C9 9.99975 9 9.99971 9 9.99967C9 9.99962 9 9.99957 9 9.99951C9 9.99946 9 9.99939 9 9.99932C9 9.99926 9 9.99918 9 9.9991C9 9.99902 9 9.99894 9 9.99885C9 9.99875 9 9.99866 9 9.99856C9 9.99845 9 9.99835 9 9.99823C9 9.99812 9 9.998 9 9.99787C9 9.99775 9 9.99762 9 9.99748C9 9.99735 9 9.9972 9 9.99706C9 9.99691 9 9.99676 9 9.9966C9 9.99644 9 9.99627 9 9.9961C9 9.99593 9 9.99576 9 9.99558C9 9.9954 9 9.99521 9 9.99502C9 9.99482 9 9.99463 9 9.99442C9 9.99422 9 9.99401 9 9.9938C9 9.99358 9 9.99336 9 9.99313C9 9.99291 9 9.99268 9 9.99244C9 9.9922 9 9.99196 9 9.99171C9 9.99146 9 9.99121 9 9.99095C9 9.99069 9 9.99043 9 9.99016C9 9.98989 9 9.98961 9 9.98933C9 9.98905 9 9.98876 9 9.98847C9 9.98818 9 9.98788 9 9.98757C9 9.98727 9 9.98696 9 9.98665C9 9.98633 9 9.98601 9 9.98569C9 9.98536 9 9.98503 9 9.98469C9 9.98436 9 9.98401 9 9.98367C9 9.98332 9 9.98297 9 9.98261C9 9.98225 9 9.98188 9 9.98151C9 9.98115 9 9.98077 9 9.98039C9 9.98001 9 9.97962 9 9.97923C9 9.97884 9 9.97844 9 9.97804C9 9.97764 9 9.97723 9 9.97682C9 9.9764 9 9.97599 9 9.97556C9 9.97514 9 9.97471 9 9.97427C9 9.97384 9 9.9734 9 9.97295C9 9.97251 9 9.97205 9 9.9716C9 9.97114 9 9.97068 9 9.97021C9 9.96974 9 9.96927 9 9.96879C9 9.96831 9 9.96783 9 9.96734C9 9.96685 9 9.96636 9 9.96586C9 9.96536 9 9.96485 9 9.96434C9 9.96383 9 9.96332 9 9.96279C9 9.96227 9 9.96175 9 9.96121C9 9.96068 9 9.96014 9 9.9596C9 9.95906 9 9.95851 9 9.95796C9 9.9574 9 9.95684 9 9.95628C9 9.95572 9 9.95515 9 9.95457C9 9.954 9 9.95342 9 9.95283C9 9.95224 9 9.95165 9 9.95106C9 9.95046 9 9.94986 9 9.94925C9 9.94865 9 9.94803 9 9.94742C9 9.9468 9 9.94618 9 9.94555C9 9.94492 9 9.94429 9 9.94365C9 9.94301 9 9.94237 9 9.94172C9 9.94107 9 9.94041 9 9.93975C9 9.93909 9 9.93843 9 9.93776C9 9.93709 9 9.93641 9 9.93573C9 9.93505 9 9.93436 9 9.93367C9 9.93298 9 9.93228 9 9.93158C9 9.93088 9 9.93017 9 9.92946C9 9.92875 9 9.92803 9 9.92731C9 9.92658 9 9.92586 9 9.92512C9 9.92439 9 9.92365 9 9.92291C9 9.92216 9 9.92141 9 9.92066C9 9.91991 9 9.91915 9 9.91838C9 9.91762 9 9.91685 9 9.91607C9 9.9153 9 9.91452 9 9.91373C9 9.91295 9 9.91216 9 9.91136C9 9.91057 9 9.90976 9 9.90896C9 9.90815 9 9.90734 9 9.90652C9 9.90571 9 9.90489 9 9.90406C9 9.90323 9 9.9024 9 9.90156C9 9.90073 9 9.89989 9 9.89904C9 9.89819 9 9.89734 9 9.89648C9 9.89562 9 9.89476 9 9.89389C9 9.89302 9 9.89215 9 9.89127C9 9.8904 9 9.88951 9 9.88862C9 9.88774 9 9.88684 9 9.88594C9 9.88505 9 9.88414 9 9.88323C9 9.88232 9 9.88141 9 9.88049C9 9.87957 9 9.87865 9 9.87772C9 9.87679 9 9.87586 9 9.87492C9 9.87398 9 9.87303 9 9.87208C9 9.87113 9 9.87018 9 9.86922C9 9.86826 9 9.8673 9 9.86633C9 9.86536 9 9.86438 9 9.8634C9 9.86242 9 9.86144 9 9.86045C9 9.85946 9 9.85846 9 9.85746C9 9.85646 9 9.85546 9 9.85445C9 9.85344 9 9.85242 9 9.8514C9 9.85038 9 9.84936 9 9.84833C9 9.8473 9 9.84626 9 9.84523C9 9.84419 9 9.84314 9 9.84209C9 9.84104 9 9.83999 9 9.83893C9 9.83787 9 9.8368 9 9.83573C9 9.83466 9 9.83359 9 9.83251C9 9.83143 9 9.83034 9 9.82925C9 9.82816 9 9.82707 9 9.82597C9 9.82487 9 9.82376 9 9.82265C9 9.82154 9 9.82043 9 9.81931C9 9.81819 9 9.81707 9 9.81594C9 9.81481 9 9.81367 9 9.81253C9 9.81139 9 9.81025 9 9.8091C9 9.80795 9 9.8068 9 9.80564C9 9.80448 9 9.80332 9 9.80215C9 9.80098 9 9.79981 9 9.79863C9 9.79745 9 9.79627 9 9.79508C9 9.79389 9 9.7927 9 9.7915C9 9.7903 9 9.7891 9 9.78789C9 9.78668 9 9.78547 9 9.78425C9 9.78303 9 9.78181 9 9.78058C9 9.77936 9 9.77812 9 9.77689C9 9.77565 9 9.77441 9 9.77316C9 9.77192 9 9.77066 9 9.76941C9 9.76815 9 9.76689 9 9.76562C9 9.76436 9 9.76309 9 9.76181C9 9.76054 9 9.75926 9 9.75797C9 9.75668 9 9.75539 9 9.7541C9 9.7528 9 9.75151 9 9.7502C9 9.7489 9 9.74759 9 9.74627C9 9.74496 9 9.74364 9 9.74232C9 9.74099 9 9.73966 9 9.73833C9 9.737 9 9.73566 9 9.73432C9 9.73297 9 9.73163 9 9.73027C9 9.72892 9 9.72756 9 9.7262C9 9.72484 9 9.72347 9 9.7221C9 9.72073 9 9.71936 9 9.71798C9 9.71659 9 9.71521 9 9.71382C9 9.71243 9 9.71103 9 9.70963C9 9.70823 9 9.70683 9 9.70542C9 9.70401 9 9.7026 9 9.70118C9 9.69976 9 9.69834 9 9.69691C9 9.69548 9 9.69405 9 9.69261C9 9.69117 9 9.68973 9 9.68828C9 9.68684 9 9.68539 9 9.68393C9 9.68247 9 9.68101 9 9.67955C9 9.67808 9 9.67661 9 9.67514C9 9.67366 9 9.67218 9 9.6707C9 9.66921 9 9.66773 9 9.66623C9 9.66474 9 9.66324 9 9.66174C9 9.66024 9 9.65873 9 9.65722C9 9.6557 9 9.65419 9 9.65267C9 9.65114 9 9.64962 9 9.64809C9 9.64656 9 9.64502 9 9.64348C9 9.64194 9 9.6404 9 9.63885C9 9.6373 9 9.63575 9 9.63419C9 9.63263 9 9.63107 9 9.6295C9 9.62793 9 9.62636 9 9.62479C9 9.62321 9 9.62163 9 9.62004C9 9.61846 9 9.61687 9 9.61527C9 9.61368 9 9.61208 9 9.61047C9 9.60887 9 9.60726 9 9.60565C9 9.60403 9 9.60242 9 9.60079C9 9.59917 9 9.59755 9 9.59591C9 9.59428 9 9.59265 9 9.59101C9 9.58937 9 9.58772 9 9.58607C9 9.58442 9 9.58277 9 9.58111C9 9.57945 9 9.57779 9 9.57612C9 9.57445 9 9.57278 9 9.57111C9 9.56943 9 9.56775 9 9.56606C9 9.56438 9 9.56269 9 9.56099C9 9.5593 9 9.5576 9 9.5559C9 9.55419 9 9.55249 9 9.55077C9 9.54906 9 9.54734 9 9.54562C9 9.5439 9 9.54218 9 9.54045C9 9.53872 9 9.53698 9 9.53524C9 9.5335 9 9.53176 9 9.53001C9 9.52826 9 9.52651 9 9.52475C9 9.523 9 9.52124 9 9.51947C9 9.51771 9 9.51594 9 9.51416C9 9.51239 9 9.51061 9 9.50882C9 9.50704 9 9.50525 9 9.50346C9 9.50167 9 9.49987 9 9.49807C9 9.49627 9 9.49446 9 9.49265C9 9.49085 9 9.48903 9 9.48721C9 9.48539 9 9.48357 9 9.48174C9 9.47992 9 9.47808 9 9.47625C9 9.47441 9 9.47257 9 9.47073C9 9.46888 9 9.46703 9 9.46518C9 9.46333 9 9.46147 9 9.45961C9 9.45774 9 9.45588 9 9.45401C9 9.45214 9 9.45026 9 9.44838C9 9.4465 9 9.44462 9 9.44273C9 9.44084 9 9.43895 9 9.43705C9 9.43516 9 9.43326 9 9.43135C9 9.42944 9 9.42753 9 9.42562C9 9.42371 9 9.42179 9 9.41987C9 9.41794 9 9.41602 9 9.41409C9 9.41215 9 9.41022 9 9.40828C9 9.40634 9 9.4044 9 9.40245C9 9.4005 9 9.39855 9 9.39659C9 9.39463 9 9.39267 9 9.39071C9 9.38874 9 9.38677 9 9.3848C9 9.38282 9 9.38085 9 9.37886C9 9.37688 9 9.37489 9 9.3729C9 9.37091 9 9.36892 9 9.36692C9 9.36492 9 9.36292 9 9.36091C9 9.3589 9 9.35689 9 9.35487C9 9.35286 9 9.35084 9 9.34881C9 9.34679 9 9.34476 9 9.34273C9 9.34069 9 9.33866 9 9.33661C9 9.33457 9 9.33253 9 9.33048C9 9.32843 9 9.32637 9 9.32432C9 9.32226 9 9.3202 9 9.31813C9 9.31606 9 9.31399 9 9.31192C9 9.30984 9 9.30776 9 9.30568C9 9.3036 9 9.30151 9 9.29942C9 9.29733 9 9.29523 9 9.29313C9 9.29103 9 9.28893 9 9.28682C9 9.28472 9 9.2826 9 9.28049C9 9.27837 9 9.27625 9 9.27413C9 9.272 9 9.26987 9 9.26774C9 9.26561 9 9.26347 9 9.26133C9 9.25919 9 9.25705 9 9.2549C9 9.25275 9 9.2506 9 9.24844C9 9.24628 9 9.24412 9 9.24195C9 9.23979 9 9.23762 9 9.23545C9 9.23327 9 9.2311 9 9.22891C9 9.22673 9 9.22455 9 9.22236C9 9.22017 9 9.21797 9 9.21578C9 9.21358 9 9.21138 9 9.20917C9 9.20697 9 9.20476 9 9.20254C9 9.20033 9 9.19811 9 9.19589C9 9.19367 9 9.19144 9 9.18921C9 9.18698 9 9.18475 9 9.18251C9 9.18027 9 9.17803 9 9.17578C9 9.17354 9 9.17129 9 9.16903C9 9.16678 9 9.16452 9 9.16226C9 9.16 9 9.15773 9 9.15546C9 9.15319 9 9.15092 9 9.14864C9 9.14636 9 9.14408 9 9.14179C9 9.13951 9 9.13722 9 9.13492C9 9.13263 9 9.13033 9 9.12803C9 9.12573 9 9.12342 9 9.12111C9 9.11881 9 9.11649 9 9.11417C9 9.11186 9 9.10954 9 9.10721C9 9.10488 9 9.10256 9 9.10022C9 9.09789 9 9.09555 9 9.09321C9 9.09087 9 9.08853 9 9.08618C9 9.08383 9 9.08148 9 9.07912C9 9.07676 9 9.0744 9 9.07204C9 9.06967 9 9.06731 9 9.06493C9 9.06256 9 9.06018 9 9.05781C9 9.05543 9 9.05304 9 9.05065C9 9.04827 9 9.04587 9 9.04348C9 9.04108 9 9.03868 9 9.03628C9 9.03388 9 9.03147 9 9.02906C9 9.02665 9 9.02424 9 9.02182C9 9.0194 9 9.01698 9 9.01455C9 9.01212 9 9.00969 9 9.00726C9 9.00483 9 9.00239 9 8.99995C9 8.99751 9 8.99506 9 8.99261C9 8.99016 9 8.98771 9 8.98525C9 8.9828 9 8.98034 9 8.97787C9 8.97541 9 8.97294 9 8.97047C9 8.968 9 8.96552 9 8.96304C9 8.96056 9 8.95808 9 8.95559C9 8.95311 9 8.95062 9 8.94812C9 8.94563 9 8.94313 9 8.94063C9 8.93812 9 8.93562 9 8.93311C9 8.9306 9 8.92809 9 8.92557C9 8.92305 9 8.92053 9 8.91801C9 8.91548 9 8.91296 9 8.91042C9 8.90789 9 8.90536 9 8.90282C9 8.90028 9 8.89773 9 8.89519C9 8.89264 9 8.89009 9 8.88754C9 8.88498 9 8.88242 9 8.87986C9 8.8773 9 8.87474 9 8.87217C9 8.8696 9 8.86703 9 8.86445C9 8.86187 9 8.85929 9 8.85671C9 8.85413 9 8.85154 9 8.84895C9 8.84636 9 8.84376 9 8.84116C9 8.83857 9 8.83596 9 8.83336C9 8.83075 9 8.82814 9 8.82553C9 8.82292 9 8.8203 9 8.81768C9 8.81506 9 8.81244 9 8.80981C9 8.80718 9 8.80455 9 8.80192C9 8.79928 9 8.79664 9 8.794C9 8.79136 9 8.78871 9 8.78606C9 8.78342 9 8.78076 9 8.77811C9 8.77545 9 8.77279 9 8.77013C9 8.76746 9 8.7648 9 8.76212C9 8.75945 9 8.75678 9 8.7541C9 8.75142 9 8.74874 9 8.74606C9 8.74337 9 8.74068 9 8.73799C9 8.7353 9 8.7326 9 8.7299C9 8.72721 9 8.7245 9 8.7218C9 8.71909 9 8.71638 9 8.71367C9 8.71095 9 8.70824 9 8.70552C9 8.70279 9 8.70007 9 8.69734C9 8.69462 9 8.69188 9 8.68915C9 8.68642 9 8.68368 9 8.68094C9 8.67819 9 8.67545 9 8.6727C9 8.66995 9 8.6672 9 8.66444C9 8.66169 9 8.65893 9 8.65617C9 8.6534 9 8.65064 9 8.64787C9 8.6451 9 8.64233 9 8.63955C9 8.63677 9 8.63399 9 8.63121C9 8.62842 9 8.62564 9 8.62285C9 8.62006 9 8.61726 9 8.61447C9 8.61167 9 8.60887 9 8.60606C9 8.60326 9 8.60045 9 8.59764C9 8.59483 9 8.59202 9 8.5892C9 8.58638 9 8.58356 9 8.58073C9 8.57791 9 8.57508 9 8.57225C9 8.56942 9 8.56658 9 8.56374C9 8.5609 9 8.55806 9 8.55522C9 8.55237 9 8.54952 9 8.54667C9 8.54382 9 8.54096 9 8.53811C9 8.53525 9 8.53238 9 8.52952C9 8.52665 9 8.52378 9 8.52091C9 8.51804 9 8.51516 9 8.51229C9 8.50941 9 8.50652 9 8.50364C9 8.50075 9 8.49786 9 8.49497C9 8.49208 9 8.48918 9 8.48628C9 8.48338 9 8.48048 9 8.47758C9 8.47467 9 8.47176 9 8.46885C9 8.46594 9 8.46302 9 8.4601C9 8.45718 9 8.45426 9 8.45133C9 8.44841 9 8.44548 9 8.44255C9 8.43961 9 8.43668 9 8.43374C9 8.4308 9 8.42786 9 8.42491C9 8.42197 9 8.41902 9 8.41607C9 8.41312 9 8.41016 9 8.4072C9 8.40424 9 8.40128 9 8.39832C9 8.39535 9 8.39238 9 8.38941C9 8.38644 9 8.38346 9 8.38049C9 8.37751 9 8.37453 9 8.37154C9 8.36856 9 8.36557 9 8.36258C9 8.35959 9 8.35659 9 8.3536C9 8.3506 9 8.3476 9 8.34459C9 8.34159 9 8.33858 9 8.33557C9 8.33256 9 8.32955 9 8.32653C9 8.32351 9 8.32049 9 8.31747C9 8.31445 9 8.31142 9 8.30839C9 8.30536 9 8.30233 9 8.29929C9 8.29626 9 8.29322 9 8.29017C9 8.28713 9 8.28409 9 8.28104C9 8.27799 9 8.27494 9 8.27188C9 8.26883 9 8.26577 9 8.26271C9 8.25965 9 8.25658 9 8.25351C9 8.25045 9 8.24738 9 8.2443C9 8.24123 9 8.23815 9 8.23507C9 8.23199 9 8.22891 9 8.22582C9 8.22273 9 8.21964 9 8.21655C9 8.21346 9 8.21036 9 8.20726C9 8.20417 9 8.20106 9 8.19796C9 8.19485 9 8.19174 9 8.18863C9 8.18552 9 8.18241 9 8.17929C9 8.17617 9 8.17305 9 8.16993C9 8.16681 9 8.16368 9 8.16055C9 8.15742 9 8.15429 9 8.15115C9 8.14801 9 8.14488 9 8.14173C9 8.13859 9 8.13545 9 8.1323C9 8.12915 9 8.126 9 8.12284C9 8.11969 9 8.11653 9 8.11337C9 8.11021 9 8.10705 9 8.10388C9 8.10072 9 8.09755 9 8.09437C9 8.0912 9 8.08803 9 8.08485C9 8.08167 9 8.07849 9 8.0753C9 8.07212 9 8.06893 9 8.06574C9 8.06255 9 8.05936 9 8.05616C9 8.05296 9 8.04977 9 8.04656C9 8.04336 9 8.04016 9 8.03695C9 8.03374 9 8.03053 9 8.02731C9 8.0241 9 8.02088 9 8.01766C9 8.01444 9 8.01122 9 8.00799C9 8.00477 9 8.00154 9 7.9983C9 7.99507 9 7.99184 9 7.9886C9 7.98536 9 7.98212 9 7.97888C9 7.97563 9 7.97239 9 7.96914C9 7.96589 9 7.96264 9 7.95938C9 7.95612 9 7.95287 9 7.94961C9 7.94634 9 7.94308 9 7.93981C9 7.93655 9 7.93328 9 7.93C9 7.92673 9 7.92345 9 7.92018C9 7.9169 9 7.91362 9 7.91033C9 7.90705 9 7.90376 9 7.90047C9 7.89718 9 7.89389 9 7.89059C9 7.88729 9 7.884 9 7.88069C9 7.87739 9 7.87409 9 7.87078C9 7.86747 9 7.86416 9 7.86085C9 7.85754 9 7.85422 9 7.8509C9 7.84759 9 7.84426 9 7.84094C9 7.83762 9 7.83429 9 7.83096C9 7.82763 9 7.8243 9 7.82096C9 7.81762 9 7.81429 9 7.81095C9 7.8076 9 7.80426 9 7.80091C9 7.79757 9 7.79422 9 7.79087C9 7.78751 9 7.78416 9 7.7808C9 7.77744 9 7.77408 9 7.77072C9 7.76735 9 7.76399 9 7.76062C9 7.75725 9 7.75388 9 7.7505C9 7.74713 9 7.74375 9 7.74037C9 7.73699 9 7.73361 9 7.73022C9 7.72684 9 7.72345 9 7.72006C9 7.71667 9 7.71327 9 7.70988C9 7.70648 9 7.70308 9 7.69968C9 7.69628 9 7.69287 9 7.68947C9 7.68606 9 7.68265 9 7.67924C9 7.67582 9 7.67241 9 7.66899C9 7.66557 9 7.66215 9 7.65873C9 7.65531 9 7.65188 9 7.64845C9 7.64502 9 7.64159 9 7.63816C9 7.63472 9 7.63128 9 7.62784C9 7.62441 9 7.62096 9 7.61752C9 7.61407 9 7.61063 9 7.60718C9 7.60373 9 7.60027 9 7.59682C9 7.59336 9 7.5899 9 7.58644C9 7.58298 9 7.57952 9 7.57605C9 7.57259 9 7.56912 9 7.56565C9 7.56218 9 7.5587 9 7.55522C9 7.55175 9 7.54827 9 7.54479C9 7.54131 9 7.53782 9 7.53433C9 7.53085 9 7.52736 9 7.52387C9 7.52037 9 7.51688 9 7.51338C9 7.50988 9 7.50638 9 7.50288C9 7.49938 9 7.49587 9 7.49237C9 7.48886 9 7.48535 9 7.48184C9 7.47832 9 7.47481 9 7.47129C9 7.46777 9 7.46425 9 7.46073C9 7.45721 9 7.45368 9 7.45015C9 7.44662 9 7.44309 9 7.43956C9 7.43603 9 7.43249 9 7.42895C9 7.42541 9 7.42187 9 7.41833C9 7.41479 9 7.41124 9 7.40769C9 7.40414 9 7.40059 9 7.39704C9 7.39349 9 7.38993 9 7.38637C9 7.38281 9 7.37925 9 7.37569C9 7.37213 9 7.36856 9 7.36499C9 7.36143 9 7.35785 9 7.35428C9 7.35071 9 7.34713 9 7.34355C9 7.33998 9 7.3364 9 7.33281C9 7.32923 9 7.32564 9 7.32206C9 7.31847 9 7.31488 9 7.31128C9 7.30769 9 7.3041 9 7.3005C9 7.2969 9 7.2933 9 7.2897C9 7.2861 9 7.28249 9 7.27888C9 7.27528 9 7.27167 9 7.26805C9 7.26444 9 7.26083 9 7.25721C9 7.25359 9 7.24997 9 7.24635C9 7.24273 9 7.2391 9 7.23548C9 7.23185 9 7.22822 9 7.22459C9 7.22096 9 7.21732 9 7.21369C9 7.21005 9 7.20641 9 7.20277C9 7.19913 9 7.19549 9 7.19184C9 7.1882 9 7.18455 9 7.1809C9 7.17725 9 7.17359 9 7.16994C9 7.16628 9 7.16263 9 7.15897C9 7.15531 9 7.15164 9 7.14798C9 7.14432 9 7.14065 9 7.13698C9 7.13331 9 7.12964 9 7.12597C9 7.12229 9 7.11862 9 7.11494C9 7.11126 9 7.10758 9 7.10389C9 7.10021 9 7.09653 9 7.09284C9 7.08915 9 7.08546 9 7.08177C9 7.07808 9 7.07438 9 7.07069C9 7.06699 9 7.06329 9 7.05959C9 7.05589 9 7.05218 9 7.04848C9 7.04477 9 7.04106 9 7.03735C9 7.03364 9 7.02993 9 7.02621C9 7.0225 9 7.01878 9 7.01506C9 7.01134 9 7.00762 9 7.0039C9 7.00017 9 6.99645 9 6.99272C9 6.98899 9 6.98526 9 6.98153C9 6.9778 9 6.97406 9 6.97032C9 6.96659 9 6.96285 9 6.95911C9 6.95536 9 6.95162 9 6.94787C9 6.94413 9 6.94038 9 6.93663C9 6.93288 9 6.92913 9 6.92537C9 6.92162 9 6.91786 9 6.9141C9 6.91034 9 6.90658 9 6.90282C9 6.89905 9 6.89529 9 6.89152C9 6.88775 9 6.88398 9 6.88021C9 6.87644 9 6.87266 9 6.86889C9 6.86511 9 6.86133 9 6.85755C9 6.85377 9 6.84999 9 6.8462C9 6.84242 9 6.83863 9 6.83484C9 6.83105 9 6.82726 9 6.82347C9 6.81967 9 6.81588 9 6.81208C9 6.80828 9 6.80448 9 6.80068C9 6.79688 9 6.79307 9 6.78927C9 6.78546 9 6.78165 9 6.77784C9 6.77403 9 6.77022 9 6.76641C9 6.76259 9 6.75878 9 6.75496C9 6.75114 9 6.74732 9 6.74349C9 6.73967 9 6.73585 9 6.73202C9 6.72819 9 6.72436 9 6.72053C9 6.7167 9 6.71287 9 6.70903C9 6.7052 9 6.70136 9 6.69752C9 6.69368 9 6.68984 9 6.686C9 6.68216 9 6.67831 9 6.67446C9 6.67062 9 6.66677 9 6.66292C9 6.65906 9 6.65521 9 6.65136C9 6.6475 9 6.64364 9 6.63978C9 6.63592 9 6.63206 9 6.6282C9 6.62434 9 6.62047 9 6.6166C9 6.61274 9 6.60887 9 6.605C9 6.60113 9 6.59725 9 6.59338C9 6.5895 9 6.58562 9 6.58175C9 6.57787 9 6.57399 9 6.5701C9 6.56622 9 6.56233 9 6.55845C9 6.55456 9 6.55067 9 6.54678C9 6.54289 9 6.539 9 6.5351C9 6.53121 9 6.52731 9 6.52341C9 6.51952 9 6.51561 9 6.51171C9 6.50781 9 6.50391 9 6.5H7C7 6.50391 7 6.50781 7 6.51171C7 6.51561 7 6.51952 7 6.52341C7 6.52731 7 6.53121 7 6.5351C7 6.539 7 6.54289 7 6.54678C7 6.55067 7 6.55456 7 6.55845C7 6.56233 7 6.56622 7 6.5701C7 6.57399 7 6.57787 7 6.58175C7 6.58562 7 6.5895 7 6.59338C7 6.59725 7 6.60113 7 6.605C7 6.60887 7 6.61274 7 6.6166C7 6.62047 7 6.62434 7 6.6282C7 6.63206 7 6.63592 7 6.63978C7 6.64364 7 6.6475 7 6.65136C7 6.65521 7 6.65906 7 6.66292C7 6.66677 7 6.67062 7 6.67446C7 6.67831 7 6.68216 7 6.686C7 6.68984 7 6.69368 7 6.69752C7 6.70136 7 6.7052 7 6.70903C7 6.71287 7 6.7167 7 6.72053C7 6.72436 7 6.72819 7 6.73202C7 6.73585 7 6.73967 7 6.74349C7 6.74732 7 6.75114 7 6.75496C7 6.75878 7 6.76259 7 6.76641C7 6.77022 7 6.77403 7 6.77784C7 6.78165 7 6.78546 7 6.78927C7 6.79307 7 6.79688 7 6.80068C7 6.80448 7 6.80828 7 6.81208C7 6.81588 7 6.81967 7 6.82347C7 6.82726 7 6.83105 7 6.83484C7 6.83863 7 6.84242 7 6.8462C7 6.84999 7 6.85377 7 6.85755C7 6.86133 7 6.86511 7 6.86889C7 6.87266 7 6.87644 7 6.88021C7 6.88398 7 6.88775 7 6.89152C7 6.89529 7 6.89905 7 6.90282C7 6.90658 7 6.91034 7 6.9141C7 6.91786 7 6.92162 7 6.92537C7 6.92913 7 6.93288 7 6.93663C7 6.94038 7 6.94413 7 6.94787C7 6.95162 7 6.95536 7 6.95911C7 6.96285 7 6.96659 7 6.97032C7 6.97406 7 6.9778 7 6.98153C7 6.98526 7 6.98899 7 6.99272C7 6.99645 7 7.00017 7 7.0039C7 7.00762 7 7.01134 7 7.01506C7 7.01878 7 7.0225 7 7.02621C7 7.02993 7 7.03364 7 7.03735C7 7.04106 7 7.04477 7 7.04848C7 7.05218 7 7.05589 7 7.05959C7 7.06329 7 7.06699 7 7.07069C7 7.07438 7 7.07808 7 7.08177C7 7.08546 7 7.08915 7 7.09284C7 7.09653 7 7.10021 7 7.10389C7 7.10758 7 7.11126 7 7.11494C7 7.11862 7 7.12229 7 7.12597C7 7.12964 7 7.13331 7 7.13698C7 7.14065 7 7.14432 7 7.14798C7 7.15164 7 7.15531 7 7.15897C7 7.16263 7 7.16628 7 7.16994C7 7.17359 7 7.17725 7 7.1809C7 7.18455 7 7.1882 7 7.19184C7 7.19549 7 7.19913 7 7.20277C7 7.20641 7 7.21005 7 7.21369C7 7.21732 7 7.22096 7 7.22459C7 7.22822 7 7.23185 7 7.23548C7 7.2391 7 7.24273 7 7.24635C7 7.24997 7 7.25359 7 7.25721C7 7.26083 7 7.26444 7 7.26805C7 7.27167 7 7.27528 7 7.27888C7 7.28249 7 7.2861 7 7.2897C7 7.2933 7 7.2969 7 7.3005C7 7.3041 7 7.30769 7 7.31128C7 7.31488 7 7.31847 7 7.32206C7 7.32564 7 7.32923 7 7.33281C7 7.3364 7 7.33998 7 7.34355C7 7.34713 7 7.35071 7 7.35428C7 7.35785 7 7.36143 7 7.36499C7 7.36856 7 7.37213 7 7.37569C7 7.37925 7 7.38281 7 7.38637C7 7.38993 7 7.39349 7 7.39704C7 7.40059 7 7.40414 7 7.40769C7 7.41124 7 7.41479 7 7.41833C7 7.42187 7 7.42541 7 7.42895C7 7.43249 7 7.43603 7 7.43956C7 7.44309 7 7.44662 7 7.45015C7 7.45368 7 7.45721 7 7.46073C7 7.46425 7 7.46777 7 7.47129C7 7.47481 7 7.47832 7 7.48184C7 7.48535 7 7.48886 7 7.49237C7 7.49587 7 7.49938 7 7.50288C7 7.50638 7 7.50988 7 7.51338C7 7.51688 7 7.52037 7 7.52387C7 7.52736 7 7.53085 7 7.53433C7 7.53782 7 7.54131 7 7.54479C7 7.54827 7 7.55175 7 7.55522C7 7.5587 7 7.56218 7 7.56565C7 7.56912 7 7.57259 7 7.57605C7 7.57952 7 7.58298 7 7.58644C7 7.5899 7 7.59336 7 7.59682C7 7.60027 7 7.60373 7 7.60718C7 7.61063 7 7.61407 7 7.61752C7 7.62096 7 7.62441 7 7.62784C7 7.63128 7 7.63472 7 7.63816C7 7.64159 7 7.64502 7 7.64845C7 7.65188 7 7.65531 7 7.65873C7 7.66215 7 7.66557 7 7.66899C7 7.67241 7 7.67582 7 7.67924C7 7.68265 7 7.68606 7 7.68947C7 7.69287 7 7.69628 7 7.69968C7 7.70308 7 7.70648 7 7.70988C7 7.71327 7 7.71667 7 7.72006C7 7.72345 7 7.72684 7 7.73022C7 7.73361 7 7.73699 7 7.74037C7 7.74375 7 7.74713 7 7.7505C7 7.75388 7 7.75725 7 7.76062C7 7.76399 7 7.76735 7 7.77072C7 7.77408 7 7.77744 7 7.7808C7 7.78416 7 7.78751 7 7.79087C7 7.79422 7 7.79757 7 7.80091C7 7.80426 7 7.8076 7 7.81095C7 7.81429 7 7.81762 7 7.82096C7 7.8243 7 7.82763 7 7.83096C7 7.83429 7 7.83762 7 7.84094C7 7.84426 7 7.84759 7 7.8509C7 7.85422 7 7.85754 7 7.86085C7 7.86416 7 7.86747 7 7.87078C7 7.87409 7 7.87739 7 7.88069C7 7.884 7 7.88729 7 7.89059C7 7.89389 7 7.89718 7 7.90047C7 7.90376 7 7.90705 7 7.91033C7 7.91362 7 7.9169 7 7.92018C7 7.92345 7 7.92673 7 7.93C7 7.93328 7 7.93655 7 7.93981C7 7.94308 7 7.94634 7 7.94961C7 7.95287 7 7.95612 7 7.95938C7 7.96264 7 7.96589 7 7.96914C7 7.97239 7 7.97563 7 7.97888C7 7.98212 7 7.98536 7 7.9886C7 7.99184 7 7.99507 7 7.9983C7 8.00154 7 8.00477 7 8.00799C7 8.01122 7 8.01444 7 8.01766C7 8.02088 7 8.0241 7 8.02731C7 8.03053 7 8.03374 7 8.03695C7 8.04016 7 8.04336 7 8.04656C7 8.04977 7 8.05296 7 8.05616C7 8.05936 7 8.06255 7 8.06574C7 8.06893 7 8.07212 7 8.0753C7 8.07849 7 8.08167 7 8.08485C7 8.08803 7 8.0912 7 8.09437C7 8.09755 7 8.10072 7 8.10388C7 8.10705 7 8.11021 7 8.11337C7 8.11653 7 8.11969 7 8.12284C7 8.126 7 8.12915 7 8.1323C7 8.13545 7 8.13859 7 8.14173C7 8.14488 7 8.14801 7 8.15115C7 8.15429 7 8.15742 7 8.16055C7 8.16368 7 8.16681 7 8.16993C7 8.17305 7 8.17617 7 8.17929C7 8.18241 7 8.18552 7 8.18863C7 8.19174 7 8.19485 7 8.19796C7 8.20106 7 8.20417 7 8.20726C7 8.21036 7 8.21346 7 8.21655C7 8.21964 7 8.22273 7 8.22582C7 8.22891 7 8.23199 7 8.23507C7 8.23815 7 8.24123 7 8.2443C7 8.24738 7 8.25045 7 8.25351C7 8.25658 7 8.25965 7 8.26271C7 8.26577 7 8.26883 7 8.27188C7 8.27494 7 8.27799 7 8.28104C7 8.28409 7 8.28713 7 8.29017C7 8.29322 7 8.29626 7 8.29929C7 8.30233 7 8.30536 7 8.30839C7 8.31142 7 8.31445 7 8.31747C7 8.32049 7 8.32351 7 8.32653C7 8.32955 7 8.33256 7 8.33557C7 8.33858 7 8.34159 7 8.34459C7 8.3476 7 8.3506 7 8.3536C7 8.35659 7 8.35959 7 8.36258C7 8.36557 7 8.36856 7 8.37154C7 8.37453 7 8.37751 7 8.38049C7 8.38346 7 8.38644 7 8.38941C7 8.39238 7 8.39535 7 8.39832C7 8.40128 7 8.40424 7 8.4072C7 8.41016 7 8.41312 7 8.41607C7 8.41902 7 8.42197 7 8.42491C7 8.42786 7 8.4308 7 8.43374C7 8.43668 7 8.43961 7 8.44255C7 8.44548 7 8.44841 7 8.45133C7 8.45426 7 8.45718 7 8.4601C7 8.46302 7 8.46594 7 8.46885C7 8.47176 7 8.47467 7 8.47758C7 8.48048 7 8.48338 7 8.48628C7 8.48918 7 8.49208 7 8.49497C7 8.49786 7 8.50075 7 8.50364C7 8.50652 7 8.50941 7 8.51229C7 8.51516 7 8.51804 7 8.52091C7 8.52378 7 8.52665 7 8.52952C7 8.53238 7 8.53525 7 8.53811C7 8.54096 7 8.54382 7 8.54667C7 8.54952 7 8.55237 7 8.55522C7 8.55806 7 8.5609 7 8.56374C7 8.56658 7 8.56942 7 8.57225C7 8.57508 7 8.57791 7 8.58073C7 8.58356 7 8.58638 7 8.5892C7 8.59202 7 8.59483 7 8.59764C7 8.60045 7 8.60326 7 8.60606C7 8.60887 7 8.61167 7 8.61447C7 8.61726 7 8.62006 7 8.62285C7 8.62564 7 8.62842 7 8.63121C7 8.63399 7 8.63677 7 8.63955C7 8.64233 7 8.6451 7 8.64787C7 8.65064 7 8.6534 7 8.65617C7 8.65893 7 8.66169 7 8.66444C7 8.6672 7 8.66995 7 8.6727C7 8.67545 7 8.67819 7 8.68094C7 8.68368 7 8.68642 7 8.68915C7 8.69188 7 8.69462 7 8.69734C7 8.70007 7 8.70279 7 8.70552C7 8.70824 7 8.71095 7 8.71367C7 8.71638 7 8.71909 7 8.7218C7 8.7245 7 8.72721 7 8.7299C7 8.7326 7 8.7353 7 8.73799C7 8.74068 7 8.74337 7 8.74606C7 8.74874 7 8.75142 7 8.7541C7 8.75678 7 8.75945 7 8.76212C7 8.7648 7 8.76746 7 8.77013C7 8.77279 7 8.77545 7 8.77811C7 8.78076 7 8.78342 7 8.78606C7 8.78871 7 8.79136 7 8.794C7 8.79664 7 8.79928 7 8.80192C7 8.80455 7 8.80718 7 8.80981C7 8.81244 7 8.81506 7 8.81768C7 8.8203 7 8.82292 7 8.82553C7 8.82814 7 8.83075 7 8.83336C7 8.83596 7 8.83857 7 8.84116C7 8.84376 7 8.84636 7 8.84895C7 8.85154 7 8.85413 7 8.85671C7 8.85929 7 8.86187 7 8.86445C7 8.86703 7 8.8696 7 8.87217C7 8.87474 7 8.8773 7 8.87986C7 8.88242 7 8.88498 7 8.88754C7 8.89009 7 8.89264 7 8.89519C7 8.89773 7 8.90028 7 8.90282C7 8.90536 7 8.90789 7 8.91042C7 8.91296 7 8.91548 7 8.91801C7 8.92053 7 8.92305 7 8.92557C7 8.92809 7 8.9306 7 8.93311C7 8.93562 7 8.93812 7 8.94063C7 8.94313 7 8.94563 7 8.94812C7 8.95062 7 8.95311 7 8.95559C7 8.95808 7 8.96056 7 8.96304C7 8.96552 7 8.968 7 8.97047C7 8.97294 7 8.97541 7 8.97787C7 8.98034 7 8.9828 7 8.98525C7 8.98771 7 8.99016 7 8.99261C7 8.99506 7 8.99751 7 8.99995C7 9.00239 7 9.00483 7 9.00726C7 9.00969 7 9.01212 7 9.01455C7 9.01698 7 9.0194 7 9.02182C7 9.02424 7 9.02665 7 9.02906C7 9.03147 7 9.03388 7 9.03628C7 9.03868 7 9.04108 7 9.04348C7 9.04587 7 9.04827 7 9.05065C7 9.05304 7 9.05543 7 9.05781C7 9.06018 7 9.06256 7 9.06493C7 9.06731 7 9.06967 7 9.07204C7 9.0744 7 9.07676 7 9.07912C7 9.08148 7 9.08383 7 9.08618C7 9.08853 7 9.09087 7 9.09321C7 9.09555 7 9.09789 7 9.10022C7 9.10256 7 9.10488 7 9.10721C7 9.10954 7 9.11186 7 9.11417C7 9.11649 7 9.11881 7 9.12111C7 9.12342 7 9.12573 7 9.12803C7 9.13033 7 9.13263 7 9.13492C7 9.13722 7 9.13951 7 9.14179C7 9.14408 7 9.14636 7 9.14864C7 9.15092 7 9.15319 7 9.15546C7 9.15773 7 9.16 7 9.16226C7 9.16452 7 9.16678 7 9.16903C7 9.17129 7 9.17354 7 9.17578C7 9.17803 7 9.18027 7 9.18251C7 9.18475 7 9.18698 7 9.18921C7 9.19144 7 9.19367 7 9.19589C7 9.19811 7 9.20033 7 9.20254C7 9.20476 7 9.20697 7 9.20917C7 9.21138 7 9.21358 7 9.21578C7 9.21797 7 9.22017 7 9.22236C7 9.22455 7 9.22673 7 9.22891C7 9.2311 7 9.23327 7 9.23545C7 9.23762 7 9.23979 7 9.24195C7 9.24412 7 9.24628 7 9.24844C7 9.2506 7 9.25275 7 9.2549C7 9.25705 7 9.25919 7 9.26133C7 9.26347 7 9.26561 7 9.26774C7 9.26987 7 9.272 7 9.27413C7 9.27625 7 9.27837 7 9.28049C7 9.2826 7 9.28472 7 9.28682C7 9.28893 7 9.29103 7 9.29313C7 9.29523 7 9.29733 7 9.29942C7 9.30151 7 9.3036 7 9.30568C7 9.30776 7 9.30984 7 9.31192C7 9.31399 7 9.31606 7 9.31813C7 9.3202 7 9.32226 7 9.32432C7 9.32637 7 9.32843 7 9.33048C7 9.33253 7 9.33457 7 9.33661C7 9.33866 7 9.34069 7 9.34273C7 9.34476 7 9.34679 7 9.34881C7 9.35084 7 9.35286 7 9.35487C7 9.35689 7 9.3589 7 9.36091C7 9.36292 7 9.36492 7 9.36692C7 9.36892 7 9.37091 7 9.3729C7 9.37489 7 9.37688 7 9.37886C7 9.38085 7 9.38282 7 9.3848C7 9.38677 7 9.38874 7 9.39071C7 9.39267 7 9.39463 7 9.39659C7 9.39855 7 9.4005 7 9.40245C7 9.4044 7 9.40634 7 9.40828C7 9.41022 7 9.41215 7 9.41409C7 9.41602 7 9.41794 7 9.41987C7 9.42179 7 9.42371 7 9.42562C7 9.42753 7 9.42944 7 9.43135C7 9.43326 7 9.43516 7 9.43705C7 9.43895 7 9.44084 7 9.44273C7 9.44462 7 9.4465 7 9.44838C7 9.45026 7 9.45214 7 9.45401C7 9.45588 7 9.45774 7 9.45961C7 9.46147 7 9.46333 7 9.46518C7 9.46703 7 9.46888 7 9.47073C7 9.47257 7 9.47441 7 9.47625C7 9.47808 7 9.47992 7 9.48174C7 9.48357 7 9.48539 7 9.48721C7 9.48903 7 9.49085 7 9.49265C7 9.49446 7 9.49627 7 9.49807C7 9.49987 7 9.50167 7 9.50346C7 9.50525 7 9.50704 7 9.50882C7 9.51061 7 9.51239 7 9.51416C7 9.51594 7 9.51771 7 9.51947C7 9.52124 7 9.523 7 9.52475C7 9.52651 7 9.52826 7 9.53001C7 9.53176 7 9.5335 7 9.53524C7 9.53698 7 9.53872 7 9.54045C7 9.54218 7 9.5439 7 9.54562C7 9.54734 7 9.54906 7 9.55077C7 9.55249 7 9.55419 7 9.5559C7 9.5576 7 9.5593 7 9.56099C7 9.56269 7 9.56438 7 9.56606C7 9.56775 7 9.56943 7 9.57111C7 9.57278 7 9.57445 7 9.57612C7 9.57779 7 9.57945 7 9.58111C7 9.58277 7 9.58442 7 9.58607C7 9.58772 7 9.58937 7 9.59101C7 9.59265 7 9.59428 7 9.59591C7 9.59755 7 9.59917 7 9.60079C7 9.60242 7 9.60403 7 9.60565C7 9.60726 7 9.60887 7 9.61047C7 9.61208 7 9.61368 7 9.61527C7 9.61687 7 9.61846 7 9.62004C7 9.62163 7 9.62321 7 9.62479C7 9.62636 7 9.62793 7 9.6295C7 9.63107 7 9.63263 7 9.63419C7 9.63575 7 9.6373 7 9.63885C7 9.6404 7 9.64194 7 9.64348C7 9.64502 7 9.64656 7 9.64809C7 9.64962 7 9.65114 7 9.65267C7 9.65419 7 9.6557 7 9.65722C7 9.65873 7 9.66024 7 9.66174C7 9.66324 7 9.66474 7 9.66623C7 9.66773 7 9.66921 7 9.6707C7 9.67218 7 9.67366 7 9.67514C7 9.67661 7 9.67808 7 9.67955C7 9.68101 7 9.68247 7 9.68393C7 9.68539 7 9.68684 7 9.68828C7 9.68973 7 9.69117 7 9.69261C7 9.69405 7 9.69548 7 9.69691C7 9.69834 7 9.69976 7 9.70118C7 9.7026 7 9.70401 7 9.70542C7 9.70683 7 9.70823 7 9.70963C7 9.71103 7 9.71243 7 9.71382C7 9.71521 7 9.71659 7 9.71798C7 9.71936 7 9.72073 7 9.7221C7 9.72347 7 9.72484 7 9.7262C7 9.72756 7 9.72892 7 9.73027C7 9.73163 7 9.73297 7 9.73432C7 9.73566 7 9.737 7 9.73833C7 9.73966 7 9.74099 7 9.74232C7 9.74364 7 9.74496 7 9.74627C7 9.74759 7 9.7489 7 9.7502C7 9.75151 7 9.7528 7 9.7541C7 9.75539 7 9.75668 7 9.75797C7 9.75926 7 9.76054 7 9.76181C7 9.76309 7 9.76436 7 9.76562C7 9.76689 7 9.76815 7 9.76941C7 9.77066 7 9.77192 7 9.77316C7 9.77441 7 9.77565 7 9.77689C7 9.77812 7 9.77936 7 9.78058C7 9.78181 7 9.78303 7 9.78425C7 9.78547 7 9.78668 7 9.78789C7 9.7891 7 9.7903 7 9.7915C7 9.7927 7 9.79389 7 9.79508C7 9.79627 7 9.79745 7 9.79863C7 9.79981 7 9.80098 7 9.80215C7 9.80332 7 9.80448 7 9.80564C7 9.8068 7 9.80795 7 9.8091C7 9.81025 7 9.81139 7 9.81253C7 9.81367 7 9.81481 7 9.81594C7 9.81707 7 9.81819 7 9.81931C7 9.82043 7 9.82154 7 9.82265C7 9.82376 7 9.82487 7 9.82597C7 9.82707 7 9.82816 7 9.82925C7 9.83034 7 9.83143 7 9.83251C7 9.83359 7 9.83466 7 9.83573C7 9.8368 7 9.83787 7 9.83893C7 9.83999 7 9.84104 7 9.84209C7 9.84314 7 9.84419 7 9.84523C7 9.84626 7 9.8473 7 9.84833C7 9.84936 7 9.85038 7 9.8514C7 9.85242 7 9.85344 7 9.85445C7 9.85546 7 9.85646 7 9.85746C7 9.85846 7 9.85946 7 9.86045C7 9.86144 7 9.86242 7 9.8634C7 9.86438 7 9.86536 7 9.86633C7 9.8673 7 9.86826 7 9.86922C7 9.87018 7 9.87113 7 9.87208C7 9.87303 7 9.87398 7 9.87492C7 9.87586 7 9.87679 7 9.87772C7 9.87865 7 9.87957 7 9.88049C7 9.88141 7 9.88232 7 9.88323C7 9.88414 7 9.88505 7 9.88594C7 9.88684 7 9.88774 7 9.88862C7 9.88951 7 9.8904 7 9.89127C7 9.89215 7 9.89302 7 9.89389C7 9.89476 7 9.89562 7 9.89648C7 9.89734 7 9.89819 7 9.89904C7 9.89989 7 9.90073 7 9.90156C7 9.9024 7 9.90323 7 9.90406C7 9.90489 7 9.90571 7 9.90652C7 9.90734 7 9.90815 7 9.90896C7 9.90976 7 9.91057 7 9.91136C7 9.91216 7 9.91295 7 9.91373C7 9.91452 7 9.9153 7 9.91607C7 9.91685 7 9.91762 7 9.91838C7 9.91915 7 9.91991 7 9.92066C7 9.92141 7 9.92216 7 9.92291C7 9.92365 7 9.92439 7 9.92512C7 9.92586 7 9.92658 7 9.92731C7 9.92803 7 9.92875 7 9.92946C7 9.93017 7 9.93088 7 9.93158C7 9.93228 7 9.93298 7 9.93367C7 9.93436 7 9.93505 7 9.93573C7 9.93641 7 9.93709 7 9.93776C7 9.93843 7 9.93909 7 9.93975C7 9.94041 7 9.94107 7 9.94172C7 9.94237 7 9.94301 7 9.94365C7 9.94429 7 9.94492 7 9.94555C7 9.94618 7 9.9468 7 9.94742C7 9.94803 7 9.94865 7 9.94925C7 9.94986 7 9.95046 7 9.95106C7 9.95165 7 9.95224 7 9.95283C7 9.95342 7 9.954 7 9.95457C7 9.95515 7 9.95572 7 9.95628C7 9.95684 7 9.9574 7 9.95796C7 9.95851 7 9.95906 7 9.9596C7 9.96014 7 9.96068 7 9.96121C7 9.96175 7 9.96227 7 9.96279C7 9.96332 7 9.96383 7 9.96434C7 9.96485 7 9.96536 7 9.96586C7 9.96636 7 9.96685 7 9.96734C7 9.96783 7 9.96831 7 9.96879C7 9.96927 7 9.96974 7 9.97021C7 9.97068 7 9.97114 7 9.9716C7 9.97205 7 9.97251 7 9.97295C7 9.9734 7 9.97384 7 9.97427C7 9.97471 7 9.97514 7 9.97556C7 9.97599 7 9.9764 7 9.97682C7 9.97723 7 9.97764 7 9.97804C7 9.97844 7 9.97884 7 9.97923C7 9.97962 7 9.98001 7 9.98039C7 9.98077 7 9.98115 7 9.98151C7 9.98188 7 9.98225 7 9.98261C7 9.98297 7 9.98332 7 9.98367C7 9.98401 7 9.98436 7 9.98469C7 9.98503 7 9.98536 7 9.98569C7 9.98601 7 9.98633 7 9.98665C7 9.98696 7 9.98727 7 9.98757C7 9.98788 7 9.98818 7 9.98847C7 9.98876 7 9.98905 7 9.98933C7 9.98961 7 9.98989 7 9.99016C7 9.99043 7 9.99069 7 9.99095C7 9.99121 7 9.99146 7 9.99171C7 9.99196 7 9.9922 7 9.99244C7 9.99268 7 9.99291 7 9.99313C7 9.99336 7 9.99358 7 9.9938C7 9.99401 7 9.99422 7 9.99442C7 9.99463 7 9.99482 7 9.99502C7 9.99521 7 9.9954 7 9.99558C7 9.99576 7 9.99593 7 9.9961C7 9.99627 7 9.99644 7 9.9966C7 9.99676 7 9.99691 7 9.99706C7 9.9972 7 9.99735 7 9.99748C7 9.99762 7 9.99775 7 9.99787C7 9.998 7 9.99812 7 9.99823C7 9.99835 7 9.99845 7 9.99856C7 9.99866 7 9.99875 7 9.99885C7 9.99894 7 9.99902 7 9.9991C7 9.99918 7 9.99926 7 9.99932C7 9.99939 7 9.99946 7 9.99951C7 9.99957 7 9.99962 7 9.99967C7 9.99971 7 9.99975 7 9.99979C7 9.99982 7 9.99985 7 9.99987C7 9.9999 7 9.99991 7 9.99992C7 9.99994 7 9.99994 8 9.99994ZM9 6.5C9 5.32632 9.44699 4.78189 9.94197 4.47434C10.5144 4.11866 11.2935 3.99994 12 3.99994V1.99994C11.1444 1.99994 9.92347 2.13122 8.88646 2.77555C7.77196 3.46802 7 4.67363 7 6.5H9ZM12 3.99994C12.7057 3.99994 13.5135 4.11772 14.1082 4.441C14.6318 4.72568 15 5.16064 15 5.99994L17 5.99994C17 4.33924 16.1493 3.2742 15.0634 2.68388C14.0486 2.13216 12.8564 1.99994 12 1.99994V3.99994Z" fill="white"/>
<path d="M19.4142 20.4142L20.1213 21.1213L19.4142 20.4142ZM4.58579 20.4142L3.87868 21.1213L4.58579 20.4142ZM19.4142 10.5858L20.1213 9.87868L19.4142 10.5858ZM8 11H16V9H8V11ZM5 17V14H3V17H5ZM16 20H8V22H16V20ZM19 14V17H21V14H19ZM16 22C16.9145 22 17.701 22.0021 18.3278 21.9179C18.9833 21.8297 19.6117 21.631 20.1213 21.1213L18.7071 19.7071C18.631 19.7832 18.495 19.8774 18.0613 19.9357C17.5988 19.9979 16.9711 20 16 20V22ZM19 17C19 17.9711 18.9979 18.5988 18.9357 19.0613C18.8774 19.495 18.7832 19.631 18.7071 19.7071L20.1213 21.1213C20.631 20.6117 20.8297 19.9833 20.9179 19.3278C21.0021 18.701 21 17.9145 21 17H19ZM3 17C3 17.9145 2.99788 18.701 3.08214 19.3278C3.17027 19.9833 3.36902 20.6117 3.87868 21.1213L5.29289 19.7071C5.21677 19.631 5.12262 19.495 5.06431 19.0613C5.00212 18.5988 5 17.9711 5 17H3ZM8 20C7.02892 20 6.40121 19.9979 5.9387 19.9357C5.50496 19.8774 5.36902 19.7832 5.29289 19.7071L3.87868 21.1213C4.38834 21.631 5.01669 21.8297 5.67221 21.9179C6.29896 22.0021 7.08546 22 8 22V20ZM16 11C16.9711 11 17.5988 11.0021 18.0613 11.0643C18.495 11.1226 18.631 11.2168 18.7071 11.2929L20.1213 9.87868C19.6117 9.36902 18.9833 9.17027 18.3278 9.08214C17.701 8.99788 16.9145 9 16 9V11ZM21 14C21 13.0855 21.0021 12.299 20.9179 11.6722C20.8297 11.0167 20.631 10.3883 20.1213 9.87868L18.7071 11.2929C18.7832 11.369 18.8774 11.505 18.9357 11.9387C18.9979 12.4012 19 13.0289 19 14H21ZM8 9C7.08546 9 6.29896 8.99788 5.67221 9.08214C5.01669 9.17027 4.38834 9.36902 3.87868 9.87868L5.29289 11.2929C5.36902 11.2168 5.50496 11.1226 5.9387 11.0643C6.40121 11.0021 7.02892 11 8 11V9ZM5 14C5 13.0289 5.00212 12.4012 5.06431 11.9387C5.12262 11.505 5.21677 11.369 5.29289 11.2929L3.87868 9.87868C3.36902 10.3883 3.17027 11.0167 3.08214 11.6722C2.99788 12.299 3 13.0855 3 14H5Z" fill="white"/>
</svg>
