<svg width="24" height="24" fill="none" xmlns="http://www.w3.org/2000/svg"><path d="M3 12c0-1.886 0-2.828.586-3.414C4.172 8 5.114 8 7 8h10c1.886 0 2.828 0 3.414.586C21 9.172 21 10.114 21 12v4c0 1.886 0 2.828-.586 3.414C19.828 20 18.886 20 17 20H7c-1.886 0-2.828 0-3.414-.586C3 18.828 3 17.886 3 16v-4z" stroke="#fff" stroke-width="2"/><path d="M18 8l-.461-1.076c-.504-1.175-.756-1.763-1.257-2.094-.5-.33-1.14-.33-2.42-.33H7c-1.886 0-2.828 0-3.414.586C3 5.672 3 6.614 3 8.5V15" stroke="#fff" stroke-width="2"/><rect x="16.5" y="11" width="2" height="2" rx="1" fill="#fff"/></svg>