<svg width="24" height="24" viewBox="0 0 24 24" fill="none" xmlns="http://www.w3.org/2000/svg">
<path d="M3 12C3 10.1144 3 9.17157 3.58579 8.58579C4.17157 8 5.11438 8 7 8H17C18.8856 8 19.8284 8 20.4142 8.58579C21 9.17157 21 10.1144 21 12V16C21 17.8856 21 18.8284 20.4142 19.4142C19.8284 20 18.8856 20 17 20H7C5.11438 20 4.17157 20 3.58579 19.4142C3 18.8284 3 17.8856 3 16V12Z" stroke="white" stroke-width="2"/>
<path d="M18 8L17.539 6.92432C17.0351 5.74853 16.7831 5.16064 16.2822 4.83032C15.7812 4.5 15.1416 4.5 13.8624 4.5H7C5.11438 4.5 4.17157 4.5 3.58579 5.08579C3 5.67157 3 6.61438 3 8.5V15" stroke="white" stroke-width="2"/>
<rect x="16.5" y="11" width="2" height="2" rx="1" fill="white"/>
</svg>
