<svg width="24" height="24" viewBox="0 0 24 24" fill="none" xmlns="http://www.w3.org/2000/svg">
<path d="M7.84589 13.6922C7.84589 11.2706 9.80899 9.30746 12.2306 9.30746C13.5292 9.30746 14.6959 9.87199 15.4988 10.769M10.465 15.8845C9.90115 14.594 8.61345 13.6922 7.11511 13.6922C5.0971 13.6922 3.46119 15.3281 3.46119 17.3461C3.46119 19.3641 5.0971 21 7.11511 21H18.0769C19.6913 21 21 19.6913 21 18.0769C21 16.4625 19.6913 15.1537 18.0769 15.1537C17.2038 15.1537 16.4201 15.5365 15.8845 16.1433" stroke="white" stroke-width="2" stroke-linecap="round" stroke-linejoin="round"/>
<path d="M3.8842 10.5C3.37024 9.79447 3.04841 8.9367 3.00001 7.99998C2.86723 5.43 4.84296 3.23898 7.41294 3.10619C9.16558 3.01564 10.742 3.90571 11.6095 5.29612" stroke="white" stroke-width="2" stroke-linecap="round" stroke-linejoin="round"/>
</svg>
