<svg width="24" height="24" fill="none" xmlns="http://www.w3.org/2000/svg"><rect x="3" y="3" width="18" height="18" rx="2" stroke="#fff" stroke-width="2" stroke-linecap="round" stroke-linejoin="round"/><path d="M6.5 11.5c0-.943 0-1.414.293-1.707C7.086 9.5 7.557 9.5 8.5 9.5h1c.943 0 1.414 0 1.707.293.293.293.293.764.293 1.707v4c0 .943 0 1.414-.293 1.707-.293.293-.764.293-1.707.293h-1c-.943 0-1.414 0-1.707-.293-.293-.293-.293-.764-.293-1.707v-4zM3 6h18m-6 4h2m-2 7h.8m-.8-3.5h2" stroke="#fff" stroke-width="2" stroke-linecap="round" stroke-linejoin="round"/></svg>