<svg width="24" height="24" viewBox="0 0 24 24" fill="none" xmlns="http://www.w3.org/2000/svg">
<rect x="3" y="3" width="18" height="7" rx="2" stroke="white" stroke-width="2" stroke-linecap="round" stroke-linejoin="round"/>
<path d="M14 17.5C14 16.0955 14 15.3933 14.3371 14.8889C14.483 14.6705 14.6705 14.483 14.8889 14.3371C15.3933 14 16.0955 14 17.5 14V14C18.9045 14 19.6067 14 20.1111 14.3371C20.3295 14.483 20.517 14.6705 20.6629 14.8889C21 15.3933 21 16.0955 21 17.5V17.5C21 18.9045 21 19.6067 20.6629 20.1111C20.517 20.3295 20.3295 20.517 20.1111 20.6629C19.6067 21 18.9045 21 17.5 21V21C16.0955 21 15.3933 21 14.8889 20.6629C14.6705 20.517 14.483 20.3295 14.3371 20.1111C14 19.6067 14 18.9045 14 17.5V17.5Z" stroke="white" stroke-width="2" stroke-linecap="round" stroke-linejoin="round"/>
<path d="M3 17.5C3 16.0955 3 15.3933 3.33706 14.8889C3.48298 14.6705 3.67048 14.483 3.88886 14.3371C4.39331 14 5.09554 14 6.5 14V14C7.90446 14 8.60669 14 9.11114 14.3371C9.32952 14.483 9.51702 14.6705 9.66294 14.8889C10 15.3933 10 16.0955 10 17.5V17.5C10 18.9045 10 19.6067 9.66294 20.1111C9.51702 20.3295 9.32952 20.517 9.11114 20.6629C8.60669 21 7.90446 21 6.5 21V21C5.09554 21 4.39331 21 3.88886 20.6629C3.67048 20.517 3.48298 20.3295 3.33706 20.1111C3 19.6067 3 18.9045 3 17.5V17.5Z" stroke="white" stroke-width="2" stroke-linecap="round" stroke-linejoin="round"/>
</svg>
