<svg width="18" height="18" fill="none" xmlns="http://www.w3.org/2000/svg"><path d="M2.222 15.418c0-.196.16-.356.357-.356h.217a.573.573 0 0 0 .573-.573v-8.72a.687.687 0 0 0-.568-.676l-.31-.054a.325.325 0 1 1-.003-.639l1.339-.249a.687.687 0 0 1 .812.676v4.11c0 .02.017.036.037.036.015 0 .029-.009.035-.023a2.161 2.161 0 0 1 .734-.906c.196-.135.342-.246.59-.329.258-.082.42-.12.741-.12.96 0 1.647.252 2.06.758.414.496.62 1.245.62 2.247v3.889c0 .316.257.573.574.573h.216a.356.356 0 0 1 0 .713h-2.85a.356.356 0 1 1 0-.713h.217a.573.573 0 0 0 .573-.573v-3.78c0-.755-.15-1.312-.45-1.674-.299-.372-.571-.558-1.222-.558a2.58 2.58 0 0 0-.682.093c-.217.062-.418.16-.604.295-.176.134-.32.3-.434.496a1.478 1.478 0 0 0-.155.697v4.43c0 .317.257.574.573.574h.217a.356.356 0 0 1 0 .713H2.58a.356.356 0 0 1-.357-.357z" fill="currentColor" stroke="currentColor" stroke-width=".344"/><path d="M15.349 15.935a.676.676 0 0 0 0-1.35v1.35zm-3.03-.675l-.523-.428a.676.676 0 0 0 .523 1.103v-.675zm1.935-2.364l-.495-.46-.014.016-.013.016.522.428zm-2.897-2.7a.676.676 0 0 0 1.173.67l-1.173-.67zm3.992 4.388h-3.03v1.351h3.03v-1.35zm-2.508 1.104l1.936-2.365-1.045-.855-1.936 2.364 1.045.856zm1.91-2.334c.721-.78 1.088-1.577 1.103-2.33a2.134 2.134 0 0 0-.877-1.794c-1.07-.783-2.752-.554-3.62.966l1.173.67c.482-.844 1.254-.836 1.65-.546a.784.784 0 0 1 .323.677c-.007.323-.169.818-.745 1.44l.992.917z" fill="currentColor"/></svg>