<svg width="24" height="24" fill="none" xmlns="http://www.w3.org/2000/svg"><path d="M2.001 21.255c0-.287.232-.52.519-.52h.315c.461 0 .835-.373.835-.834V7.211a1 1 0 0 0-.827-.984l-.451-.08a.472.472 0 1 1-.005-.93l1.949-.361a1 1 0 0 1 1.183.983v5.981c0 .03.024.054.053.054a.055.055 0 0 0 .05-.034c.09-.215.221-.436.393-.665.18-.24.406-.459.676-.654.286-.195.498-.357.86-.478.375-.12.612-.176 1.078-.176 1.398 0 2.397.368 2.999 1.105.6.721.902 1.811.902 3.27v5.66c0 .46.373.834.834.834h.316a.519.519 0 0 1 0 1.037H9.53a.519.519 0 1 1 0-1.037h.316c.461 0 .835-.374.835-.835V14.4c0-1.097-.218-1.909-.654-2.435-.436-.541-.833-.812-1.78-.812-.33 0-.661.046-.992.136a2.81 2.81 0 0 0-.88.428 2.431 2.431 0 0 0-.63.722c-.151.285-.226.624-.226 1.014v6.45c0 .46.373.834.834.834h.316a.519.519 0 0 1 0 1.037h-4.15a.519.519 0 0 1-.518-.518z" fill="currentColor" stroke="currentColor" stroke-width=".5"/><path d="M20.992 22.023a1 1 0 1 0 0-2v2zm-4.485-1l-.774-.633a1 1 0 0 0 .774 1.633v-1zm2.865-3.5l-.734-.679-.02.023-.02.023.774.633zm-4.289-3.996a1 1 0 1 0 1.737.993l-1.737-.993zm5.91 6.496h-4.486v2h4.485v-2zm-3.712 1.634l2.865-3.5L18.6 16.89l-2.866 3.5 1.548 1.267zm2.825-3.454c1.07-1.155 1.612-2.336 1.634-3.45a3.159 3.159 0 0 0-1.297-2.656c-1.584-1.158-4.074-.82-5.36 1.43l1.737.993c.714-1.25 1.855-1.238 2.442-.809.29.212.487.545.478 1.002-.01.478-.25 1.21-1.102 2.131l1.468 1.359z" fill="currentColor"/></svg>