<svg width="24" height="24" fill="none" xmlns="http://www.w3.org/2000/svg"><path d="M2.001 21.255c0-.287.232-.52.519-.52h.315c.461 0 .835-.373.835-.834V7.211a1 1 0 0 0-.827-.984l-.451-.08a.472.472 0 1 1-.005-.93l1.949-.361a1 1 0 0 1 1.183.983v5.981c0 .03.024.054.053.054a.055.055 0 0 0 .05-.034c.09-.215.221-.436.393-.665.18-.24.406-.459.676-.654.286-.195.498-.357.86-.478.375-.12.612-.176 1.078-.176 1.398 0 2.397.368 2.999 1.105.6.721.902 1.811.902 3.27v5.66c0 .46.373.834.834.834h.316a.519.519 0 0 1 0 1.037H9.53a.519.519 0 1 1 0-1.037h.316c.461 0 .835-.374.835-.835V14.4c0-1.097-.218-1.909-.654-2.435-.436-.541-.833-.812-1.78-.812-.33 0-.661.046-.992.136a2.81 2.81 0 0 0-.88.428 2.431 2.431 0 0 0-.63.722c-.151.285-.226.624-.226 1.014v6.45c0 .46.373.834.834.834h.316a.519.519 0 0 1 0 1.037h-4.15a.519.519 0 0 1-.518-.518z" fill="currentColor" stroke="currentColor" stroke-width=".5"/><path d="M15.839 12.819a1 1 0 1 0 1.307 1.513L15.84 12.82zm5.153 1.835h-1 1zm-3.447 2.106l-.12-.993a1 1 0 0 0 .067 1.991l.053-.998zm-.185 2.661a1 1 0 0 0-1.736.993l1.736-.993zm2.632-4.767c0 .286-.093.444-.224.567-.16.15-.42.284-.768.38a4.74 4.74 0 0 1-.974.153 5.281 5.281 0 0 1-.411.008h-.018l-.002-.001h.002l-.052.999-.052.998h.007a.741.741 0 0 0 .053.003l.135.002c.112 0 .268-.002.453-.012a6.722 6.722 0 0 0 1.396-.223c.514-.143 1.117-.393 1.603-.852.515-.486.852-1.163.852-2.022h-2zm-2.447 2.106l.12.992h-.003.017a4.2 4.2 0 0 1 .395-.014c.271.002.61.03.93.118.323.089.565.221.72.387.134.143.268.379.268.832h2c0-.914-.296-1.652-.808-2.199-.492-.525-1.112-.8-1.65-.949a5.743 5.743 0 0 0-1.44-.19 6.225 6.225 0 0 0-.661.029h-.005-.002l-.001.001.12.993zm2.447 2.315c0 .381-.302.787-1.03.917-.727.13-1.352-.134-1.602-.57l-1.736.992c.803 1.403 2.429 1.772 3.69 1.547 1.258-.225 2.678-1.161 2.678-2.886h-2zm-2.846-4.743c.638-.55 1.444-.71 2.035-.582.29.063.49.185.612.32.111.123.2.301.2.584h2c0-.756-.258-1.42-.718-1.928-.451-.497-1.05-.796-1.669-.93-1.225-.267-2.668.074-3.767 1.023l1.307 1.513z" fill="currentColor"/></svg>