<svg width="18" height="18" fill="none" xmlns="http://www.w3.org/2000/svg"><path d="M2.032 11.19a.5.5 0 0 0 .936.354l-.936-.354zm2.31-4.69l.468-.177a.5.5 0 0 0-.936 0l.468.177zm1.375 5.044a.5.5 0 1 0 .935-.354l-.935.354zM8.5 6.5V6a.5.5 0 0 0-.5.5h.5zm.868 0V6v.5zm0 2.433v-.5.5zm1.474 1.739l.442.234-.442-.234zM9 11.367v-.5.5zm-.5 0H8a.5.5 0 0 0 .5.5v-.5zM15.5 7a.5.5 0 0 0 0-1v1zm0 4.867a.5.5 0 1 0 0-1v1zm-12.532-.323l.506-1.338-.935-.354-.507 1.338.936.354zm.506-1.338L4.81 6.677l-.936-.354L2.54 9.852l.935.354zm.4-3.529l1.336 3.529.935-.354L4.81 6.323l-.936.354zm1.336 3.529l.507 1.338.935-.354-.507-1.338-.935.354zm-2.204.323h2.672v-1H3.006v1zM8.5 7h.868V6H8.5v1zm.868 0c.28 0 .552.07.737.186.175.108.237.226.237.357h1c0-.564-.323-.968-.71-1.207C10.257 6.103 9.792 6 9.368 6v1zm.974.543c0 .267-.071.482-.197.625-.116.13-.334.265-.777.265v1c.664 0 1.181-.213 1.527-.603.334-.379.447-.859.447-1.287h-1zm-.974 1.89c.392 0 .712.185.899.42.196.247.196.467.133.585l.884.468c.306-.578.122-1.227-.235-1.675a2.144 2.144 0 0 0-1.68-.798v1zm1.032 1.005c-.107.202-.255.301-.47.36-.247.066-.545.069-.93.069v1c.352 0 .79.003 1.19-.104.428-.116.833-.364 1.094-.857l-.884-.469zm-1.4.429h-.5v1H9v-1zm0 .5V8.933H8v2.434h1zm0-2.434V6.5H8v2.434h1zm.368-.5H8.5v1h.868v-1zM15.5 6c-.818 0-1.583.189-2.146.692-.573.513-.854 1.276-.854 2.241h1c0-.772.22-1.226.52-1.495.313-.28.798-.438 1.48-.438V6zm-3 2.933c0 .966.28 1.729.854 2.242.563.503 1.328.692 2.146.692v-1c-.682 0-1.167-.16-1.48-.438-.3-.27-.52-.723-.52-1.496h-1z" fill="currentColor"/></svg>