<svg width="18" height="18" fill="none" xmlns="http://www.w3.org/2000/svg"><path fill-rule="evenodd" clip-rule="evenodd" d="M5.967 1.5H12.033c.443 0 .825 0 1.13.041.329.044.643.144.898.398.254.255.354.57.398.897.041.306.041.687.041 1.13v7.228a.5.5 0 0 1-1 0V3.999c0-.485-.001-.799-.032-1.03-.03-.216-.076-.284-.114-.323-.038-.038-.106-.085-.323-.114-.232-.03-.546-.032-1.031-.032H6c-.486 0-.8.001-1.03.032-.218.03-.285.076-.324.114-.038.038-.085.106-.114.323-.03.232-.032.545-.032 1.031v11h-1V4v-.033c0-.443 0-.825.041-1.13.044-.329.144-.643.398-.898.255-.254.57-.354.897-.398.306-.041.688-.041 1.131-.041z" fill="#fff"/><path fill-rule="evenodd" clip-rule="evenodd" d="M13.03 2.532c-.23-.03-.544-.032-1.03-.032H7.5v10H12c.486 0 .8-.001 1.03-.032.218-.03.286-.076.324-.114.038-.039.085-.106.114-.323.03-.231.032-.545.032-1.03V3.999c0-.485-.001-.799-.032-1.03-.03-.216-.076-.284-.114-.323-.038-.038-.106-.085-.323-.114zm.134-.99c.328.043.642.143.897.397.254.255.354.57.398.897.041.305.041.687.041 1.13v7.068c0 .443 0 .824-.041 1.13-.044.328-.143.642-.398.897s-.57.354-.897.398c-.306.041-.688.041-1.131.041H6.5v-12h5.533c.443 0 .825 0 1.13.041z" fill="#fff"/><path fill-rule="evenodd" clip-rule="evenodd" d="M5.5 13.5a1 1 0 1 0 0 2H14a.5.5 0 1 1 0 1H5.5a2 2 0 1 1 0-4h1.658v1H5.5z" fill="#fff"/><path fill-rule="evenodd" clip-rule="evenodd" d="M14.5 9v3.333c0 .645-.522 1.167-1.167 1.167a.833.833 0 0 0-.833.833v.167a1 1 0 0 0 1 1h.5v1h-.5a2 2 0 0 1-2-2v-.167c0-1.012.82-1.833 1.833-1.833a.167.167 0 0 0 .167-.167V9h1z" fill="#fff"/></svg>