<svg width="18" height="18" fill="none" xmlns="http://www.w3.org/2000/svg"><path d="M13.5 11.194a.5.5 0 0 0 1 0h-1zm.207-8.901l.354-.354-.354.354zM6 2.5h6v-1H6v1zM13.5 4v7.193h1V4h-1zm-9 11V4h-1v11h1zM12 2.5c.486 0 .8.001 1.03.032.218.03.286.076.324.114l.707-.707c-.255-.255-.57-.354-.897-.398C12.85 1.499 12.457 1.5 12 1.5v1zM14.5 4c0-.458.001-.85-.041-1.164-.044-.328-.144-.642-.398-.897l-.707.707c.038.039.085.106.114.323.03.231.032.545.032 1.03h1zM6 1.5c-.457 0-.85-.001-1.164.041-.328.044-.642.143-.897.398l.707.707c.039-.038.106-.085.323-.114.232-.03.545-.032 1.031-.032v-1zM4.5 4c0-.486.001-.8.032-1.03.03-.218.076-.286.114-.324L3.94 1.94c-.254.255-.354.57-.398.897C3.5 3.15 3.5 3.543 3.5 4h1z" fill="#fff"/><path d="M7 2v-.5h-.5V2H7zm0 11h-.5v.5H7V13zm6.707-.293l-.353-.354.353.354zm0-10.414l.354-.354-.354.354zM7 2.5h5v-1H7v1zm6.5 1.499V11h1V3.999h-1zM7.5 13V2h-1v11h1zm4.5-.5H7v1h5v-1zm1.5-1.5c0 .486-.001.8-.032 1.03-.03.218-.076.285-.114.324l.707.707c.255-.255.354-.57.398-.897.042-.313.041-.706.041-1.163h-1zM12 13.5c.457 0 .85.001 1.164-.041.328-.044.642-.143.897-.398l-.707-.707c-.038.038-.106.085-.323.114-.232.03-.546.032-1.031.032v1zm0-11c.486 0 .8.001 1.03.032.218.03.286.076.324.114l.707-.707c-.255-.255-.57-.354-.897-.398C12.85 1.499 12.457 1.5 12 1.5v1zm2.5 1.499c0-.457.001-.85-.041-1.163-.044-.328-.144-.642-.398-.897l-.707.707c.038.039.085.107.114.323.03.231.032.545.032 1.03h1z" fill="#fff"/><path d="M14 16.5a.5.5 0 0 0 0-1v1zm0-1H5.5v1H14v-1zm-8.5-2h1.658v-1H5.5v1zm-2 1a2 2 0 0 0 2 2v-1a1 1 0 0 1-1-1h-1zm1 0a1 1 0 0 1 1-1v-1a2 2 0 0 0-2 2h1z" fill="#fff"/><path d="M14 16h-.5a1.5 1.5 0 0 1-1.5-1.5v-.167c0-.736.597-1.333 1.333-1.333a.667.667 0 0 0 .667-.667V9" stroke="#fff"/></svg>