<svg width="24" height="24" fill="none" xmlns="http://www.w3.org/2000/svg"><path d="M3 11a1 1 0 0 0 0 2v-2zm6-8l.964-.268a1 1 0 0 0-1.913-.048L9 3zm5 18l-.963.268a1 1 0 0 0 1.912.048L14 21zm7-8a1 1 0 1 0 0-2v2zm-3.728-.623l.585.812-.585-.812zm-11.544-.755l-.585-.81.585.81zm2.132-2.04L9.95 3.315 8.05 2.684 5.963 8.949l1.897.632zm.176-6.314l5 18 1.928-.536-5-18-1.928.536zm6.913 18.048l2.088-6.265-1.897-.632-2.089 6.265 1.898.632zM19.883 13H21v-2h-1.117v2zM3 13h.117v-2H3v2zm14.037 2.051c.227-.682.373-1.113.518-1.426.136-.29.23-.384.302-.436l-1.17-1.623c-.45.325-.729.75-.945 1.215-.205.44-.39 1-.602 1.638l1.897.632zM19.883 11c-.673 0-1.261-.002-1.744.054-.509.058-1 .187-1.452.512l1.17 1.623c.072-.053.19-.112.509-.148.343-.04.798-.041 1.517-.041v-2zM5.963 8.949c-.227.682-.373 1.113-.519 1.426-.135.29-.228.384-.3.436l1.169 1.623c.45-.325.729-.75.945-1.215.205-.44.39-1 .602-1.638L5.963 8.95zM3.117 13c.673 0 1.261.002 1.744-.054.509-.058 1-.187 1.452-.512l-1.17-1.623c-.072.053-.19.112-.509.148-.343.04-.798.041-1.517.041v2z" fill="#fff"/></svg>