<svg fill="none" height="24" width="24" xmlns="http://www.w3.org/2000/svg"><path d="m3 11a1 1 0 0 0 0 2zm6-8 .964-.268a1 1 0 0 0 -1.913-.048zm5 18-.963.268a1 1 0 0 0 1.912.048zm7-8a1 1 0 1 0 0-2zm-3.728-.623.585.812zm-11.544-.755-.585-.81zm2.132-2.04 2.09-6.267-1.9-.631-2.087 6.265 1.897.632zm.176-6.314 5 18 1.928-.536-5-18zm6.913 18.048 2.088-6.265-1.897-.632-2.089 6.265zm4.934-8.316h1.117v-2h-1.117zm-16.883 0h.117v-2h-.117zm14.037 2.051c.227-.682.373-1.113.518-1.426.136-.29.23-.384.302-.436l-1.17-1.623c-.45.325-.729.75-.945 1.215-.205.44-.39 1-.602 1.638zm2.846-4.051c-.673 0-1.261-.002-1.744.054-.509.058-1 .187-1.452.512l1.17 1.623c.072-.053.19-.112.509-.148.343-.04.798-.041 1.517-.041zm-13.92-2.051c-.227.682-.373 1.113-.519 1.426-.135.29-.228.384-.3.436l1.169 1.623c.45-.325.729-.75.945-1.215.205-.44.39-1 .602-1.638l-1.897-.631zm-2.846 4.051c.673 0 1.261.002 1.744-.054.509-.058 1-.187 1.452-.512l-1.17-1.623c-.072.053-.19.112-.509.148-.343.04-.798.041-1.517.041z" fill="#fff"/></svg>