<svg width="24" height="24" fill="none" xmlns="http://www.w3.org/2000/svg"><path fill-rule="evenodd" clip-rule="evenodd" d="M9.025 2a1 1 0 0 1 .939.732l4.123 14.845 1.07-3.208c.205-.617.385-1.159.585-1.588.216-.464.494-.89.945-1.215.452-.325.943-.454 1.452-.512.47-.054 1.04-.054 1.692-.054H21a1 1 0 1 1 0 2h-1.117c-.719 0-1.174.002-1.517.04-.318.037-.437.097-.51.149-.072.052-.166.145-.3.436-.146.313-.292.744-.519 1.426l-2.088 6.265a1 1 0 0 1-1.912-.048L8.913 6.423l-1.07 3.208c-.205.617-.385 1.159-.585 1.588-.216.464-.494.89-.945 1.215-.452.325-.943.454-1.452.512C4.391 13 3.821 13 3.17 13H3a1 1 0 0 1 0-2h.117c.719 0 1.174-.001 1.517-.04.318-.037.437-.096.51-.149.072-.052.165-.145.3-.436.146-.313.292-.744.519-1.426l2.088-6.265A1 1 0 0 1 9.025 2z" fill="#fff"/></svg>