<svg width="18" height="18" fill="none" xmlns="http://www.w3.org/2000/svg"><path fill-rule="evenodd" clip-rule="evenodd" d="M4.467 2.5H13.533c.443 0 .825 0 1.13.041.329.044.643.144.898.398.255.255.354.57.398.897.041.306.041.688.041 1.131v6.066c0 .443 0 .825-.041 1.13-.044.329-.143.643-.398.898s-.57.354-.897.398c-.306.041-.688.041-1.131.041H13a.5.5 0 0 1 0-1h.5c.486 0 .8-.001 1.03-.032.218-.03.286-.076.324-.114.038-.038.085-.106.114-.323.03-.232.032-.546.032-1.031V5c0-.486-.001-.8-.032-1.03-.03-.218-.076-.285-.114-.324-.038-.038-.106-.085-.323-.114-.232-.03-.546-.032-1.031-.032h-9c-.486 0-.8.001-1.03.032-.218.03-.285.076-.324.114-.038.039-.085.106-.114.323C3.002 4.201 3 4.514 3 5v6c0 .486.001.8.032 1.03.03.218.076.286.114.324.039.038.106.085.323.114.232.03.545.032 1.031.032H5a.5.5 0 0 1 0 1h-.533c-.443 0-.825 0-1.13-.041-.329-.044-.643-.143-.898-.398-.254-.255-.354-.57-.398-.897C2 11.858 2 11.476 2 11.033V5v-.033c0-.443 0-.825.041-1.13.044-.329.144-.643.398-.898.255-.254.57-.354.897-.398.306-.041.688-.041 1.131-.041z" fill="#fff"/><path fill-rule="evenodd" clip-rule="evenodd" d="M9.224 12.22a.5.5 0 0 0-.448 0 .637.637 0 0 0-.167.154c-.101.116-.224.28-.409.526-.262.35-.44.588-.56.774-.122.193-.136.265-.138.281a.5.5 0 0 0 .235.47c.014.01.08.04.308.058.22.017.519.017.955.017.436 0 .735 0 .955-.017.228-.018.294-.049.308-.058a.5.5 0 0 0 .235-.47c-.002-.016-.016-.088-.139-.28A14.223 14.223 0 0 0 9.8 12.9a10.08 10.08 0 0 0-.41-.526.637.637 0 0 0-.166-.155zm-.895-.895a1.5 1.5 0 0 1 1.342 0c.191.096.34.239.473.391.129.148.274.341.445.57l.024.03c.246.329.448.598.59.821.14.22.267.462.291.728a1.5 1.5 0 0 1-.705 1.411c-.228.14-.497.184-.758.204-.263.02-.6.02-1.01.02h-.042c-.41 0-.747 0-1.01-.02-.261-.02-.53-.063-.758-.204a1.5 1.5 0 0 1-.705-1.41c.024-.267.15-.508.291-.729.142-.223.344-.492.59-.82l.024-.032c.171-.228.316-.421.445-.569.133-.152.282-.295.473-.391z" fill="#fff"/></svg>