<svg width="18" height="18" fill="none" xmlns="http://www.w3.org/2000/svg"><path d="M5 13h-.5c-.943 0-1.414 0-1.707-.293C2.5 12.414 2.5 11.943 2.5 11V5c0-.943 0-1.414.293-1.707C3.086 3 3.557 3 4.5 3h9c.943 0 1.414 0 1.707.293.293.293.293.764.293 1.707v6c0 .943 0 1.414-.293 1.707-.293.293-.764.293-1.707.293H13" stroke="#fff" stroke-linecap="round"/><path d="M7.8 12.6c.361-.482.542-.722.753-.828a1 1 0 0 1 .894 0c.211.106.392.346.753.828.514.685.77 1.027.796 1.31a1 1 0 0 1-.47.94C10.284 15 9.856 15 9 15s-1.284 0-1.526-.15a1 1 0 0 1-.47-.94c.026-.283.282-.625.796-1.31z" stroke="#fff"/></svg>