<svg width="18" height="18" fill="none" xmlns="http://www.w3.org/2000/svg"><path fill-rule="evenodd" clip-rule="evenodd" d="M9 2.5a6.5 6.5 0 1 0 0 13 6.5 6.5 0 0 0 0-13zM1.5 9a7.5 7.5 0 1 1 15 0 7.5 7.5 0 0 1-15 0z" fill="#fff"/><path fill-rule="evenodd" clip-rule="evenodd" d="M3.354 1.646a.5.5 0 0 1 0 .708l-1 1a.5.5 0 1 1-.708-.708l1-1a.5.5 0 0 1 .708 0zm11.292 0a.5.5 0 0 1 .708 0l1 1a.5.5 0 0 1-.708.708l-1-1a.5.5 0 0 1 0-.708zm-10.292 12a.5.5 0 0 1 0 .708l-2 2a.5.5 0 0 1-.708-.708l2-2a.5.5 0 0 1 .708 0zm9.292 0a.5.5 0 0 1 .708 0l2 2a.5.5 0 0 1-.708.708l-2-2a.5.5 0 0 1 0-.708zM9 8.5a.5.5 0 0 1 .5.5v3a.5.5 0 0 1-1 0V9a.5.5 0 0 1 .5-.5z" fill="#fff"/><path fill-rule="evenodd" clip-rule="evenodd" d="M8.646 9.354a.5.5 0 0 1 0-.708l2.122-2.12a.5.5 0 1 1 .707.706L9.354 9.354a.5.5 0 0 1-.708 0z" fill="#fff"/></svg>