<svg width="18" height="18" fill="none" xmlns="http://www.w3.org/2000/svg"><path d="M3.5 6.5V14c0 .943 0 1.414.293 1.707C4.086 16 4.557 16 5.5 16h7c.943 0 1.414 0 1.707-.293.293-.293.293-.764.293-1.707V6.5m-6.2-4H4.5c-.943 0-1.414 0-1.707.293C2.5 3.086 2.5 3.557 2.5 4.5c0 .943 0 1.414.293 1.707.293.293.764.293 1.707.293h9c.943 0 1.414 0 1.707-.293.293-.293.293-.764.293-1.707 0-.943 0-1.414-.293-1.707-.293-.293-.764-.293-1.707-.293H8.3zM7 10h4" stroke="#fff" stroke-linecap="round" stroke-linejoin="round"/></svg>