<svg width="18" height="18" fill="none" xmlns="http://www.w3.org/2000/svg"><path fill-rule="evenodd" clip-rule="evenodd" d="M11.568 2.153a.5.5 0 0 1 .707-.013l2.072 2a.5.5 0 0 1 0 .72l-2.072 2a.5.5 0 1 1-.694-.72L12.76 5H9c-2.758 0-5 2.298-5 5s2.242 5 5 5 5-2.298 5-5a.5.5 0 0 1 1 0c0 3.247-2.683 6-6 6s-6-2.753-6-6 2.683-6 6-6h3.762l-1.181-1.14a.5.5 0 0 1-.013-.707z" fill="#fff"/><path fill-rule="evenodd" clip-rule="evenodd" d="M7.742 8.07a.25.25 0 0 1 .246-.205H10.5a.25.25 0 1 1 0 .5H8.196l-.348 1.883c.369-.182.758-.3 1.152-.3h.077c.24-.003.632-.007.97.157.199.097.38.251.509.488.126.233.194.532.194.907 0 .743-.223 1.21-.603 1.475-.36.25-.806.275-1.147.275h-.106c-.302.002-.673.004-.974-.092a.955.955 0 0 1-.478-.315c-.13-.166-.192-.377-.192-.628a.25.25 0 1 1 .5 0c0 .166.04.261.086.32a.46.46 0 0 0 .236.147c.22.07.507.069.826.068H9c.336 0 .64-.032.861-.186.201-.14.389-.422.389-1.064 0-.317-.057-.528-.134-.668a.633.633 0 0 0-.288-.277c-.224-.11-.494-.108-.747-.107H9c-.43 0-.893.19-1.359.495a.25.25 0 0 1-.383-.254l.484-2.62z" fill="#fff"/></svg>