<svg width="18" height="18" fill="none" xmlns="http://www.w3.org/2000/svg"><path fill-rule="evenodd" clip-rule="evenodd" d="M6.432 2.153a.5.5 0 0 0-.707-.013l-2.072 2a.5.5 0 0 0 0 .72l2.072 2a.5.5 0 1 0 .694-.72L5.24 5H9c2.758 0 5 2.298 5 5s-2.242 5-5 5-5-2.298-5-5a.5.5 0 0 0-1 0c0 3.247 2.683 6 6 6s6-2.753 6-6-2.683-6-6-6H5.238l1.181-1.14a.5.5 0 0 0 .013-.707z" fill="#fff"/><path fill-rule="evenodd" clip-rule="evenodd" d="M7.596 7.769A.25.25 0 0 1 7.75 8v4a.25.25 0 1 1-.5 0V8.604l-.573.573a.25.25 0 1 1-.354-.354l1-1a.25.25 0 0 1 .273-.054zm1.93.784c-.153.25-.276.697-.276 1.447 0 .75.123 1.197.276 1.447.144.236.315.303.474.303.146 0 .321-.074.472-.33.156-.264.278-.713.278-1.42 0-.706-.122-1.156-.278-1.42-.15-.256-.326-.33-.472-.33-.16 0-.33.067-.474.303zm-.427-.26c.231-.38.56-.543.901-.543.354 0 .679.196.903.576.219.37.347.92.347 1.674 0 .753-.128 1.303-.347 1.674-.224.38-.55.576-.903.576-.34 0-.67-.163-.9-.542-.223-.364-.35-.918-.35-1.708 0-.79.127-1.344.35-1.708z" fill="#fff"/></svg>