<svg width="18" height="18" fill="none" xmlns="http://www.w3.org/2000/svg"><path fill-rule="evenodd" clip-rule="evenodd" d="M11.568 2.153a.5.5 0 0 1 .707-.013l2.072 2a.5.5 0 0 1 0 .72l-2.072 2a.5.5 0 1 1-.694-.72L12.76 5H9c-2.758 0-5 2.298-5 5s2.242 5 5 5 5-2.298 5-5a.5.5 0 0 1 1 0c0 3.247-2.683 6-6 6s-6-2.753-6-6 2.683-6 6-6h3.762l-1.181-1.14a.5.5 0 0 1-.013-.707z" fill="#fff"/><path fill-rule="evenodd" clip-rule="evenodd" d="M7.614 7.77a.25.25 0 0 1 .153.23v4a.25.25 0 1 1-.5 0V8.596l-.592.582a.25.25 0 0 1-.35-.356l1.017-1a.25.25 0 0 1 .272-.053zm1.441.18a.25.25 0 0 1 .245-.2h2.2a.25.25 0 1 1 0 .5H9.505l-.27 1.337a1.49 1.49 0 0 1 .072-.032c.225-.093.493-.138.922-.138.438 0 .835.087 1.119.362.284.276.402.69.402 1.221 0 .284-.059.519-.171.707-.114.189-.271.313-.44.394-.313.15-.679.15-.894.149h-.028c-.218 0-.586 0-.904-.094a1.075 1.075 0 0 1-.47-.262.776.776 0 0 1-.22-.56.25.25 0 0 1 .5 0c0 .102.032.164.077.21a.583.583 0 0 0 .254.133c.243.071.545.073.775.073.233 0 .493-.004.695-.1a.506.506 0 0 0 .226-.2c.056-.094.1-.234.1-.45 0-.47-.106-.722-.25-.862-.147-.142-.386-.221-.771-.221-.396 0-.591.042-.73.1-.073.03-.137.066-.215.116a6.456 6.456 0 0 1-.28.177.25.25 0 0 1-.373-.264l.424-2.096z" fill="#fff"/></svg>