<svg width="18" height="18" fill="none" xmlns="http://www.w3.org/2000/svg"><path fill-rule="evenodd" clip-rule="evenodd" d="M14.892 8.682c-.153-.19-.39-.418-.758-.768l-1.52-1.448c-.6-.572-.81-.76-1.057-.859-.247-.099-.528-.107-1.357-.107H4.35c-.518 0-.851.001-1.075.033l-.016.003.01.013c.131.183.361.424.721.798l.908.943c.296.308.552.574.73.815.19.259.334.545.334.895s-.143.636-.334.895c-.178.241-.434.507-.73.816l-.908.942c-.36.374-.59.615-.722.798a.91.91 0 0 0-.01.014l.017.002c.224.032.557.033 1.075.033h5.85c.83 0 1.11-.008 1.357-.107.248-.1.456-.287 1.057-.859l1.52-1.448c.368-.35.605-.577.758-.768.143-.18.158-.263.158-.318 0-.055-.015-.139-.158-.318zm.781-.624c.214.268.377.568.377.942s-.163.674-.377.942c-.2.25-.488.525-.824.845l-1.546 1.472-.066.063c-.508.484-.86.82-1.309 1-.448.179-.935.178-1.636.178H4.312c-.47 0-.875 0-1.178-.043-.294-.042-.703-.152-.879-.566-.176-.413.029-.784.202-1.025.18-.248.46-.54.786-.878l.912-.948c.325-.338.534-.556.668-.738.125-.17.139-.249.139-.302 0-.053-.014-.132-.14-.302-.133-.182-.342-.4-.667-.738l-.912-.948c-.325-.337-.607-.63-.786-.878-.173-.24-.378-.612-.202-1.025.176-.414.585-.524.88-.566.302-.043.708-.043 1.177-.043H10.292c.7 0 1.188 0 1.636.179.449.18.801.515 1.309 1l.066.062 1.521 1.449.025.023c.336.32.624.595.824.845z" fill="#fff"/></svg>