<svg width="18" height="18" fill="none" xmlns="http://www.w3.org/2000/svg"><path fill-rule="evenodd" clip-rule="evenodd" d="M6.432 2.153a.5.5 0 0 0-.707-.013l-2.072 2a.5.5 0 0 0 0 .72l2.072 2a.5.5 0 1 0 .694-.72L5.24 5H9c2.758 0 5 2.298 5 5s-2.242 5-5 5-5-2.298-5-5a.5.5 0 0 0-1 0c0 3.247 2.683 6 6 6s6-2.753 6-6-2.683-6-6-6H5.238l1.181-1.14a.5.5 0 0 0 .013-.707z" fill="#fff"/><path fill-rule="evenodd" clip-rule="evenodd" d="M10.332 8.536c-.127.25-.207.698-.207 1.464 0 .765.08 1.213.207 1.464.06.119.127.184.195.223.069.04.16.063.286.063.119 0 .207-.025.277-.07a.57.57 0 0 0 .201-.243c.13-.264.209-.715.209-1.437 0-.722-.079-1.173-.209-1.437a.57.57 0 0 0-.201-.244.507.507 0 0 0-.277-.069.562.562 0 0 0-.286.063.504.504 0 0 0-.195.223zm-.054-.657c.165-.095.348-.129.534-.129.194 0 .379.042.543.145.165.104.29.256.385.447.183.372.26.92.26 1.658 0 .737-.077 1.286-.26 1.658-.094.19-.22.343-.385.447-.164.103-.35.145-.543.145-.186 0-.369-.034-.534-.129a1 1 0 0 1-.391-.43c-.185-.364-.262-.916-.262-1.691s.077-1.327.262-1.691a1 1 0 0 1 .391-.43zM8.2 10.149L7 11.75h1.5a.25.25 0 1 1 0 .5h-2a.25.25 0 0 1-.2-.4l1.5-2c.352-.47.402-.8.355-1.005-.046-.2-.201-.347-.422-.42a.899.899 0 0 0-.673.04c-.18.092-.31.259-.31.535a.25.25 0 0 1-.5 0c0-.474.244-.807.58-.98a1.398 1.398 0 0 1 1.062-.07c.342.114.656.373.75.783.093.404-.044.886-.442 1.417z" fill="#fff"/></svg>