<svg width="18" height="18" fill="none" xmlns="http://www.w3.org/2000/svg"><path fill-rule="evenodd" clip-rule="evenodd" d="M8.69 3.062c-.185.141-.407.362-.75.706L6.524 5.182c-.607.607-.805.818-.91 1.072-.106.255-.115.545-.115 1.403v5.929c0 .53.001.872.034 1.102l.002.017.015-.01c.185-.14.427-.38.803-.756l.901-.902c.314-.313.584-.583.83-.77.262-.2.555-.353.915-.353s.653.152.916.353c.245.187.515.457.829.77l.901.902c.376.375.618.616.803.756l.015.01a.68.68 0 0 0 .002-.017c.033-.23.034-.572.034-1.102v-5.93c0-.857-.009-1.147-.114-1.402-.105-.254-.304-.465-.911-1.072L10.06 3.768c-.344-.344-.566-.565-.752-.706-.174-.133-.255-.148-.309-.148-.054 0-.135.015-.31.148zm-.606-.795c.263-.2.556-.353.916-.353s.653.152.916.353c.245.187.515.457.829.77l1.437 1.438.067.067c.513.513.87.869 1.06 1.33.192.46.191.965.191 1.69v6.063c0 .48 0 .895-.043 1.203-.043.296-.153.714-.574.889-.422.174-.795-.043-1.035-.223-.248-.187-.542-.48-.881-.82l-.906-.906c-.344-.344-.566-.565-.752-.706-.174-.133-.255-.148-.309-.148-.054 0-.135.015-.31.148-.185.141-.407.362-.75.706l-.907.906c-.34.34-.633.633-.881.82-.24.18-.613.397-1.035.223-.421-.175-.532-.593-.573-.89-.044-.307-.044-.722-.044-1.202V7.657v-.095c0-.725 0-1.23.19-1.69.191-.461.548-.817 1.06-1.33l.068-.067L7.232 3.06l.024-.024c.313-.313.583-.583.828-.77z" fill="#fff"/></svg>