<svg width="18" height="18" fill="none" xmlns="http://www.w3.org/2000/svg"><path d="M7.586 14.586l-1.414-1.414c-.578-.579-.868-.867-1.02-1.235C5 11.569 5 11.16 5 10.343V4.414c0-1.027 0-1.541.309-1.669.308-.128.672.236 1.398.962l.879.879c.666.666 1 1 1.414 1 .414 0 .748-.334 1.414-1l.879-.879c.726-.726 1.09-1.09 1.398-.962.309.128.309.642.309 1.67v5.928c0 .818 0 1.226-.152 1.594-.153.368-.442.657-1.02 1.235l-1.414 1.414c-.666.666-1 1-1.414 1-.414 0-.748-.334-1.414-1z" stroke="#fff" stroke-linecap="round" stroke-linejoin="round"/></svg>