<svg width="18" height="18" fill="none" xmlns="http://www.w3.org/2000/svg"><path fill-rule="evenodd" clip-rule="evenodd" d="M3.108 9.318c.153.19.39.418.758.768l1.52 1.448c.6.572.81.76 1.057.859.247.099.528.107 1.357.107h5.85c.518 0 .851-.001 1.075-.033a.593.593 0 0 0 .016-.003l-.01-.013c-.131-.183-.361-.424-.721-.798l-.908-.943c-.296-.308-.552-.574-.73-.815-.19-.259-.334-.545-.334-.895s.143-.636.334-.895c.178-.241.434-.507.73-.816l.908-.942c.36-.374.59-.615.722-.798a.992.992 0 0 0 .01-.014 1.37 1.37 0 0 0-.017-.002c-.224-.032-.557-.033-1.075-.033H7.8c-.83 0-1.11.008-1.357.107-.248.1-.456.286-1.057.858l-1.52 1.449c-.368.35-.605.577-.758.768-.143.18-.158.263-.158.318 0 .055.015.139.158.318zm-.781.624C2.113 9.674 1.95 9.374 1.95 9s.163-.674.377-.942c.2-.25.488-.525.824-.845l1.546-1.472.066-.063c.507-.484.86-.82 1.309-1C6.52 4.5 7.007 4.5 7.708 4.5H13.688c.47 0 .875 0 1.178.043.294.042.703.152.879.565.176.414-.029.785-.202 1.026-.18.248-.46.54-.786.878l-.912.948c-.325.338-.534.556-.668.738-.125.17-.139.249-.139.302 0 .053.014.132.14.302.133.182.342.4.667.738l.912.948c.325.337.607.63.786.878.173.24.378.612.202 1.025-.176.414-.585.524-.88.566-.302.043-.708.043-1.177.043H7.708c-.7 0-1.188 0-1.636-.179-.449-.18-.802-.515-1.309-1l-.066-.062-1.521-1.449a9.256 9.256 0 0 1-.025-.023c-.336-.32-.624-.595-.824-.845z" fill="#fff"/></svg>