<svg width="18" height="18" fill="none" xmlns="http://www.w3.org/2000/svg"><path fill-rule="evenodd" clip-rule="evenodd" d="M6.432 2.153a.5.5 0 0 0-.707-.013l-2.072 2a.5.5 0 0 0 0 .72l2.072 2a.5.5 0 1 0 .694-.72L5.24 5H9c2.758 0 5 2.298 5 5s-2.242 5-5 5-5-2.298-5-5a.5.5 0 0 0-1 0c0 3.247 2.683 6 6 6s6-2.753 6-6-2.683-6-6-6H5.238l1.181-1.14a.5.5 0 0 0 .013-.707z" fill="#fff"/><path fill-rule="evenodd" clip-rule="evenodd" d="M9.969 8.594c-.134.244-.219.681-.219 1.435 0 .753.085 1.19.219 1.434.063.115.134.181.21.222a.674.674 0 0 0 .321.065.608.608 0 0 0 .312-.072.58.58 0 0 0 .217-.242c.137-.256.221-.697.221-1.407 0-.71-.084-1.151-.22-1.408a.58.58 0 0 0-.218-.241.609.609 0 0 0-.312-.072.675.675 0 0 0-.32.065.517.517 0 0 0-.211.221zm-.023-.663c.17-.09.36-.123.554-.123.2 0 .392.04.563.139.172.1.306.249.408.44.197.369.279.914.279 1.642 0 .728-.082 1.273-.28 1.642-.1.19-.235.34-.407.44-.171.099-.363.14-.563.14-.194 0-.383-.034-.554-.124a1.015 1.015 0 0 1-.415-.423c-.2-.362-.281-.91-.281-1.675s.082-1.313.28-1.676c.105-.188.242-.33.416-.422zm-3.028.589c-.14.082-.168.159-.168.195a.25.25 0 0 1-.5 0c0-.293.205-.503.415-.627.217-.127.495-.198.768-.198s.568.071.8.262c.24.197.382.498.382.891 0 .261-.056.479-.164.655a.978.978 0 0 1-.29.303c.113.076.215.179.294.316.106.186.16.417.16.697 0 .719-.487 1.13-.999 1.252-.253.06-.522.055-.758-.019a.95.95 0 0 1-.581-.462.25.25 0 1 1 .446-.227c.045.09.14.167.284.212.144.045.32.051.492.01.338-.081.616-.327.616-.766 0-.217-.042-.356-.094-.448a.464.464 0 0 0-.207-.19c-.173-.084-.385-.094-.607-.104l-.055-.003a2.557 2.557 0 0 1-.304.01h-.03l.015-.25-.037-.247H6.8l.006-.002.022-.002a2.169 2.169 0 0 1 .31-.01l.044-.005c.224-.022.448-.044.629-.136a.509.509 0 0 0 .214-.19.74.74 0 0 0 .09-.394c0-.263-.09-.414-.2-.505a.759.759 0 0 0-.482-.148c-.193 0-.382.052-.515.13zm-.085 1.509l-.037-.247a.25.25 0 0 0 .021.496l.016-.25z" fill="#fff"/></svg>