<svg width="18" height="18" fill="none" xmlns="http://www.w3.org/2000/svg"><path fill-rule="evenodd" clip-rule="evenodd" d="M8.704 2.997c-.177.126-.392.324-.725.633L4.206 7.134c-.406.377-.67.624-.824.813l-.013.015.02.003C3.631 8 3.992 8 4.547 8h8.907c.554 0 .915-.001 1.157-.035l.02-.003-.013-.015c-.154-.19-.418-.436-.824-.813L10.02 3.63c-.333-.309-.548-.507-.725-.633-.166-.118-.244-.132-.296-.132-.052 0-.13.014-.296.132zM14 8.998C13.841 9 13.671 9 13.493 9H11.5v6H14V8.998zM15 15h.5a.5.5 0 0 1 0 1h-13a.5.5 0 0 1 0-1H3V8.906c-.256-.07-.53-.215-.658-.54-.171-.437.072-.815.265-1.051.204-.25.52-.544.89-.887l3.825-3.552c.303-.281.565-.525.802-.694.255-.181.535-.317.876-.317.34 0 .62.136.876.317.237.17.5.413.802.694l3.825 3.552c.37.343.686.637.89.887.193.236.436.614.264 1.05-.127.326-.4.47-.657.54V15zM4 8.998V15h2.5V9H4.507C4.33 9 4.16 9 4 8.998zM7.5 9v6h3V9h-3z" fill="#fff"/></svg>