<svg width="18" height="18" fill="none" xmlns="http://www.w3.org/2000/svg"><path fill-rule="evenodd" clip-rule="evenodd" d="M9 3a6 6 0 1 0 0 12A6 6 0 0 0 9 3zM2 9a7 7 0 1 1 14 0A7 7 0 0 1 2 9z" fill="#fff"/><path fill-rule="evenodd" clip-rule="evenodd" d="M4.27 14.075a.5.5 0 0 1 .021-.706A5.982 5.982 0 0 0 6.18 9 5.982 5.982 0 0 0 4.29 4.631a.5.5 0 1 1 .686-.728A6.982 6.982 0 0 1 7.179 9c0 2.009-.847 3.82-2.202 5.097a.5.5 0 0 1-.707-.021zm9.46-10.15a.5.5 0 0 1-.021.706A5.982 5.982 0 0 0 11.82 9c0 1.722.725 3.274 1.888 4.369a.5.5 0 0 1-.686.728A6.982 6.982 0 0 1 10.821 9c0-2.009.847-3.82 2.202-5.097a.5.5 0 0 1 .707.022z" fill="#fff"/><path fill-rule="evenodd" clip-rule="evenodd" d="M2 9a.5.5 0 0 1 .5-.5h13a.5.5 0 0 1 0 1h-13A.5.5 0 0 1 2 9z" fill="#fff"/><path fill-rule="evenodd" clip-rule="evenodd" d="M9 2a.5.5 0 0 1 .5.5v12.536a.5.5 0 1 1-1 0V2.5A.5.5 0 0 1 9 2z" fill="#fff"/></svg>