<svg width="18" height="18" fill="none" xmlns="http://www.w3.org/2000/svg"><g clip-path="url(#clip0_821_19528)"><g clip-path="url(#clip1_821_19528)" stroke="#fff" stroke-linecap="round" stroke-linejoin="round"><path d="M8.5 15c-1.414 0-2.121 0-2.56-.44-.44-.439-.44-1.146-.44-2.56V7c0-1.414 0-2.121.44-2.56C6.378 4 7.085 4 8.5 4h1c1.414 0 2.121 0 2.56.44.44.439.44 1.146.44 2.56v5c0 1.414 0 2.121-.44 2.56-.439.44-1.146.44-2.56.44h-1z"/><path d="M9.6 4H8.4a.4.4 0 0 1-.4-.4.6.6 0 0 1 .6-.6h.8a.6.6 0 0 1 .6.6.4.4 0 0 1-.4.4z" fill="#fff"/><path d="M7.5 12.5h3m-3-6h3m-3 3h3"/></g></g><defs><clipPath id="clip0_821_19528"><path fill="#fff" d="M0 0H18V18H0z"/></clipPath><clipPath id="clip1_821_19528"><path fill="#fff" transform="rotate(-90 9 9)" d="M0 0H18V18H0z"/></clipPath></defs></svg>