<svg width="18" height="18" fill="none" xmlns="http://www.w3.org/2000/svg"><path fill-rule="evenodd" clip-rule="evenodd" d="M6.333 2a.5.5 0 0 1 .5.5v4.154c0 .157 0 .296-.026.436-.026.139-.077.269-.135.415l-.011.03-2.125 5.417c-.249.635-.413 1.058-.487 1.378-.072.31-.029.403.004.452.033.048.105.122.42.169.324.048.778.049 1.46.049h6.134c.682 0 1.136-.001 1.46-.05.315-.046.387-.12.42-.168.033-.049.076-.143.004-.452-.074-.32-.238-.743-.487-1.378l-2.125-5.417-.011-.03c-.058-.146-.109-.276-.135-.415-.027-.14-.026-.279-.026-.436V2.5a.5.5 0 1 1 1 0v4.122c0 .206.002.246.008.282.007.035.02.073.095.265l2.14 5.455c.23.588.423 1.08.515 1.48.097.42.113.853-.152 1.241-.265.388-.674.532-1.1.595-.406.06-.935.06-1.566.06H5.893c-.631 0-1.16 0-1.567-.06-.425-.063-.834-.207-1.099-.595s-.25-.822-.152-1.24c.092-.4.285-.893.516-1.48L5.73 7.168a1.76 1.76 0 0 0 .095-.265 1.76 1.76 0 0 0 .008-.282V2.5a.5.5 0 0 1 .5-.5z" fill="#fff"/><path fill-rule="evenodd" clip-rule="evenodd" d="M4.611 10.556a.5.5 0 0 1 .5-.5h7.778a.5.5 0 0 1 0 1H5.11a.5.5 0 0 1-.5-.5zM4.5 2.5A.5.5 0 0 1 5 2h8a.5.5 0 0 1 0 1H5a.5.5 0 0 1-.5-.5z" fill="#fff"/></svg>