<svg width="18" height="18" fill="none" xmlns="http://www.w3.org/2000/svg"><path fill-rule="evenodd" clip-rule="evenodd" d="M4.5 6.5a4.5 4.5 0 0 1 9 0v1.847c0 .03.007.062.02.09l1.102 2.48c.09.205.167.376.22.517.056.144.103.295.115.454a1.5 1.5 0 0 1-.99 1.524c-.151.054-.308.072-.462.08-.15.008-.338.008-.561.008H5.057c-.224 0-.411 0-.562-.008a1.61 1.61 0 0 1-.461-.08 1.5 1.5 0 0 1-.991-1.524c.012-.16.06-.31.114-.454.055-.141.13-.312.221-.516l1.103-2.481a.222.222 0 0 0 .019-.09V6.5zM9 3a3.5 3.5 0 0 0-3.5 3.5v1.847c0 .17-.036.34-.105.496l-1.097 2.469c-.098.22-.163.366-.207.48a.707.707 0 0 0-.05.17.5.5 0 0 0 .33.509.702.702 0 0 0 .177.022c.121.007.282.007.522.007h7.86c.24 0 .401 0 .523-.007a.701.701 0 0 0 .177-.022.5.5 0 0 0 .33-.508.71.71 0 0 0-.051-.171c-.044-.114-.109-.26-.207-.48l-1.097-2.469a1.222 1.222 0 0 1-.105-.496V6.5A3.5 3.5 0 0 0 9 3zM6.516 15.356a.5.5 0 0 1 .61-.358l.494.128a5.501 5.501 0 0 0 2.76 0l.494-.128a.5.5 0 0 1 .252.968l-.495.128a6.499 6.499 0 0 1-3.262 0l-.494-.129a.5.5 0 0 1-.359-.609z" fill="#fff"/></svg>