<svg width="18" height="18" fill="none" xmlns="http://www.w3.org/2000/svg"><path d="M14.16 11.108l.456-.203-.457.204zm.298.817l.499-.037-.499.037zm-.66 1.017l.168.47-.168-.47zM3.542 11.925l-.499-.037.499.037zm.66 1.017l-.168.47.168-.47zM5 8.347h-.5.5zm-.062.293l-.457-.203.457.203zm8.124 0l-.457.203.457-.203zM12.5 6.5v1.847h1V6.5h-1zm-7 1.847V6.5h-1v1.847h1zm-1.202 2.965l1.097-2.469-.914-.406-1.097 2.469.914.406zm8.307-2.469l1.098 2.469.913-.406-1.097-2.47-.914.407zm.325 3.657H9v1h3.93v-1zM9 12.5H5.07v1H9v-1zm4.703-1.188c.097.22.162.366.206.48.043.114.05.157.05.17l.998-.074c-.012-.16-.06-.31-.115-.454-.055-.144-.133-.319-.226-.528l-.913.406zM12.93 13.5c.23 0 .421 0 .575-.008.154-.008.31-.026.461-.08l-.336-.941a.701.701 0 0 1-.178.022c-.121.007-.282.007-.522.007v1zm1.03-1.537a.5.5 0 0 1-.33.508l.336.941a1.5 1.5 0 0 0 .991-1.524l-.997.075zM3.384 10.905c-.093.209-.171.384-.227.528a1.61 1.61 0 0 0-.114.454l.997.075a.706.706 0 0 1 .051-.171c.044-.114.109-.26.207-.48l-.914-.406zM5.07 12.5c-.24 0-.401 0-.522-.007a.702.702 0 0 1-.178-.022l-.336.941c.15.054.307.072.46.08.155.008.347.008.576.008v-1zm-2.027-.612a1.5 1.5 0 0 0 .99 1.524l.337-.941a.5.5 0 0 1-.33-.508l-.997-.075zM4.5 8.347a.222.222 0 0 1-.02.09l.915.406c.07-.156.105-.325.105-.496h-1zm8 0c0 .17.036.34.105.496l.914-.406a.222.222 0 0 1-.019-.09h-1zM9 3a3.5 3.5 0 0 1 3.5 3.5h1A4.5 4.5 0 0 0 9 2v1zm0-1a4.5 4.5 0 0 0-4.5 4.5h1A3.5 3.5 0 0 1 9 3V2zM7.125 14.998a.5.5 0 1 0-.25.968l.25-.968zm4 .968a.5.5 0 0 0-.25-.968l.25.968zm-3.63-.356l-.126.484.125-.484zm-.62.356l.494.128.25-.968-.494-.128-.25.968zm3.756.128l.495-.129-.252-.967-.494.128.251.968zm-3.262 0a6.5 6.5 0 0 0 3.262 0l-.25-.968a5.501 5.501 0 0 1-2.761 0l-.251.968z" fill="#fff"/></svg>