<svg width="18" height="18" fill="none" xmlns="http://www.w3.org/2000/svg"><path fill-rule="evenodd" clip-rule="evenodd" d="M10.512 3H6.41v12H10.536c.174.003 1.181-.002 2.127-.36.469-.177.893-.43 1.197-.784.297-.344.503-.81.503-1.467 0-1.358-.809-2.064-1.702-2.457a5.413 5.413 0 0 0-1.257-.368 5.57 5.57 0 0 0-.527-.063l-.026-.002h-.005a.5.5 0 0 1-.032-.997h.006l.027-.004.112-.016c.1-.015.244-.04.418-.08.35-.079.812-.214 1.267-.435.913-.444 1.719-1.182 1.719-2.467 0-.647-.222-1.1-.543-1.435-.333-.348-.795-.591-1.296-.757a6.41 6.41 0 0 0-1.39-.279A6.887 6.887 0 0 0 10.55 3h-.038zm2.393 5.949c.053.021.107.044.16.068 1.107.487 2.299 1.477 2.299 3.372 0 .89-.288 1.589-.745 2.12-.448.52-1.035.852-1.601 1.066-1.126.426-2.285.428-2.495.425H3a.5.5 0 1 1 0-1h2.41V3H3a.5.5 0 0 1 0-1h7.505A3.542 3.542 0 0 1 10.7 2a7.89 7.89 0 0 1 2.139.358c.59.195 1.218.507 1.704 1.014.497.519.82 1.218.82 2.127 0 1.826-1.193 2.838-2.28 3.366a5.96 5.96 0 0 1-.178.083z" fill="#fff"/></svg>