<svg width="18" height="18" fill="none" xmlns="http://www.w3.org/2000/svg"><path fill-rule="evenodd" clip-rule="evenodd" d="M2.793 2.793C2.5 3.086 2.5 3.557 2.5 4.5v5c0 .943 0 1.414.293 1.707.293.293.764.293 1.707.293h2v2c0 .943 0 1.414.293 1.707.293.293.764.293 1.707.293h5c.943 0 1.414 0 1.707-.293.293-.293.293-.764.293-1.707v-5c0-.943 0-1.414-.293-1.707-.293-.293-.764-.293-1.707-.293h-2v-2c0-.943 0-1.414-.293-1.707C10.914 2.5 10.443 2.5 9.5 2.5h-5c-.943 0-1.414 0-1.707.293zM11.5 6.5h-3c-.943 0-1.414 0-1.707.293C6.5 7.086 6.5 7.557 6.5 8.5v3h3c.943 0 1.414 0 1.707-.293.293-.293.293-.764.293-1.707v-3z" fill="currentColor"/><path d="M6.793 15.207l.353-.353-.353.353zm8.414-8.414l-.353.353.353-.353zm-8.414 0l.353.353-.353-.353zM3 4.5c0-.486.001-.8.032-1.03.03-.218.076-.285.114-.324L2.44 2.44c-.254.255-.354.57-.398.897C2 3.65 2 4.043 2 4.5h1zm0 5v-5H2v5h1zm.146 1.354c-.038-.038-.085-.106-.114-.323C3.002 10.299 3 9.986 3 9.5H2c0 .457-.001.85.041 1.164.044.328.144.642.398.897l.707-.707zM4.5 11c-.486 0-.8-.001-1.03-.032-.218-.03-.285-.076-.324-.114l-.707.707c.255.255.57.354.897.398C3.65 12 4.043 12 4.5 12v-1zm2 0h-2v1h2v-1zm.5 2.5v-2H6v2h1zm.146 1.354c-.038-.038-.085-.106-.114-.323C7.002 14.299 7 13.985 7 13.5H6c0 .457-.001.85.041 1.164.044.328.144.642.398.897l.707-.707zM8.5 15c-.486 0-.8-.001-1.03-.032-.218-.03-.285-.076-.324-.114l-.707.707c.255.255.57.354.897.398C7.65 16 8.043 16 8.5 16v-1zm5 0h-5v1h5v-1zm1.354-.146c-.038.038-.106.085-.323.114-.232.03-.546.032-1.031.032v1c.457 0 .85.001 1.164-.041.328-.044.642-.143.897-.398l-.707-.707zM15 13.5c0 .486-.001.8-.032 1.03-.03.218-.076.286-.114.324l.707.707c.255-.255.354-.57.398-.897C16 14.35 16 13.957 16 13.5h-1zm0-5v5h1v-5h-1zm-.146-1.354c.038.039.085.106.114.323.03.232.032.545.032 1.031h1c0-.457.001-.85-.041-1.164-.044-.328-.143-.642-.398-.897l-.707.707zM13.5 7c.486 0 .8.001 1.03.032.218.03.286.076.324.114l.707-.707c-.255-.254-.57-.354-.897-.398C14.35 6 13.957 6 13.5 6v1zm-2 0h2V6h-2v1zM11 4.5v2h1v-2h-1zm-.146-1.354c.038.039.085.106.114.323.03.232.032.545.032 1.031h1c0-.457.001-.85-.041-1.164-.044-.328-.143-.642-.398-.897l-.707.707zM9.5 3c.486 0 .8.001 1.03.032.218.03.286.076.324.114l.707-.707c-.255-.254-.57-.354-.897-.398C10.35 2 9.957 2 9.5 2v1zm-5 0h5V2h-5v1zm-1.354.146c.039-.038.106-.085.323-.114C3.701 3.002 4.014 3 4.5 3V2c-.457 0-.85-.001-1.164.041-.328.044-.642.144-.897.398l.707.707zM8.5 7h3V6h-3v1zm-1.354.146c.039-.038.106-.085.323-.114C7.701 7.002 8.014 7 8.5 7V6c-.457 0-.85-.001-1.164.041-.328.044-.642.144-.897.398l.707.707zM7 8.5c0-.486.001-.8.032-1.03.03-.218.076-.285.114-.324L6.44 6.44c-.254.255-.354.57-.398.897C6 7.65 6 8.043 6 8.5h1zm0 3v-3H6v3h1zm2.5-.5h-3v1h3v-1zm1.354-.146c-.038.038-.106.085-.323.114-.232.03-.545.032-1.031.032v1c.457 0 .85.001 1.164-.041.328-.044.642-.143.897-.398l-.707-.707zM11 9.5c0 .486-.001.8-.032 1.03-.03.218-.076.286-.114.324l.707.707c.255-.255.354-.57.398-.897C12 10.35 12 9.957 12 9.5h-1zm0-3v3h1v-3h-1z" fill="currentColor"/></svg>