<svg width="18" height="18" fill="none" xmlns="http://www.w3.org/2000/svg"><path d="M4 4.5c0-.943 0-1.414.293-1.707C4.586 2.5 5.057 2.5 6 2.5h6c.943 0 1.414 0 1.707.293C14 3.086 14 3.557 14 4.5v9c0 .943 0 1.414-.293 1.707-.293.293-.764.293-1.707.293H6c-.943 0-1.414 0-1.707-.293C4 14.914 4 14.443 4 13.5v-9z" stroke="#fff" stroke-linecap="round" stroke-linejoin="round"/><path d="M6 13.5a.5.5 0 0 1 .5-.5h1a.5.5 0 0 1 0 1h-1a.5.5 0 0 1-.5-.5zm0-9a.5.5 0 0 1 .5-.5h5a.5.5 0 0 1 0 1h-5a.5.5 0 0 1-.5-.5zm1 3a.5.5 0 1 1-1 0 .5.5 0 0 1 1 0zm0 3a.5.5 0 1 1-1 0 .5.5 0 0 1 1 0zm2.5 0a.5.5 0 1 1-1 0 .5.5 0 0 1 1 0zm0-3a.5.5 0 1 1-1 0 .5.5 0 0 1 1 0zm2.5 0a.5.5 0 1 1-1 0 .5.5 0 0 1 1 0zm0 3a.5.5 0 1 1-1 0 .5.5 0 0 1 1 0zm0 3a.5.5 0 1 1-1 0 .5.5 0 0 1 1 0z" fill="#fff"/></svg>