<svg fill="none" height="18" width="18" xmlns="http://www.w3.org/2000/svg"><path d="M13.214 2.5a.5.5 0 0 0-1 0zm-1 2.786a.5.5 0 1 0 1 0zM5.786 2.5a.5.5 0 1 0-1 0zm-1 2.786a.5.5 0 1 0 1 0zm-1.7 9.628l.353-.353zm11.828 0l.354.354zm0-10.435l.354-.354zm-11.828 0l-.354-.354zM15 7.893V11.5h1V7.893zM11.5 15h-5v1h5zM3 11.5V7.893H2V11.5zm3.5-7.107h5v-1H6.501v1zm9 2.25h-13v1h13zM12.214 2.5v2.786h1V2.5zm-7.428 0v2.786h1V2.5zM6.5 15c-.957 0-1.624-.001-2.128-.069-.49-.066-.748-.186-.933-.37l-.707.707c.402.401.907.574 1.507.654.586.079 1.332.078 2.261.078zM2 11.5c0 .929-.001 1.675.078 2.261.08.6.253 1.105.654 1.507l.707-.707c-.184-.185-.304-.444-.37-.933C3 13.124 3 12.457 3 11.5zm13 0c0 .957-.001 1.624-.069 2.128-.065.49-.186.748-.37.933l.707.707c.401-.402.574-.907.654-1.507.08-.586.078-1.332.078-2.261zM11.5 16c.929 0 1.675.001 2.261-.078.6-.08 1.106-.253 1.507-.654l-.707-.707c-.185.184-.444.304-.933.37C13.124 15 12.457 15 11.5 15zM16 7.893c0-.929.001-1.676-.078-2.261-.08-.6-.253-1.106-.654-1.507l-.707.707c.184.185.305.444.37.933.068.504.069 1.17.069 2.128zm-4.5-3.5c.957 0 1.624 0 2.128.069.49.065.748.186.933.37l.707-.707c-.402-.401-.907-.574-1.507-.654-.586-.08-1.333-.078-2.262-.078v1zM3 7.893c0-.957.001-1.624.069-2.128.066-.49.186-.748.37-.933l-.707-.707c-.401.401-.574.907-.654 1.507C1.998 6.217 2 6.964 2 7.892h1zm3.5-4.5c-.928 0-1.675-.001-2.261.078-.6.08-1.105.253-1.507.654l.707.707c.185-.184.444-.305.933-.37.504-.068 1.171-.07 2.129-.07v-1z" fill="currentColor"/></svg>