<svg width="18" height="18" fill="none" xmlns="http://www.w3.org/2000/svg"><path fill-rule="evenodd" clip-rule="evenodd" d="M5.286 2a.5.5 0 0 1 .5.5v.894l.678-.001h5.072l.678.001V2.5a.5.5 0 1 1 1 0v.92c.196.012.378.028.547.05.6.081 1.106.254 1.507.655.401.401.574.907.654 1.507C16 6.21 16 6.945 16 7.856v3.68c0 .912 0 1.647-.078 2.225-.08.6-.253 1.105-.654 1.507-.402.401-.907.574-1.507.654-.578.078-1.313.078-2.224.078H6.463c-.911 0-1.646 0-2.224-.078-.6-.08-1.105-.253-1.507-.654-.401-.402-.574-.907-.654-1.507C2 13.183 2 12.448 2 11.537v-3.68c0-.912 0-1.647.078-2.225.08-.6.253-1.106.654-1.507.402-.401.907-.574 1.507-.654.169-.023.35-.04.547-.05V2.5a.5.5 0 0 1 .5-.5zm-.5 2.422c-.15.01-.287.023-.414.04-.49.065-.748.186-.933.37-.184.185-.304.444-.37.933-.034.248-.05.536-.06.878h11.982a8.328 8.328 0 0 0-.06-.878c-.065-.49-.186-.748-.37-.933-.185-.184-.444-.305-.933-.37a6.03 6.03 0 0 0-.414-.04v.864a.5.5 0 0 1-1 0v-.892l-.715-.001H6.501l-.715.001v.892a.5.5 0 1 1-1 0v-.864zM15 7.642H3V11.5c0 .957.001 1.624.069 2.128.066.49.186.748.37.933.185.184.444.304.933.37C4.876 15 5.543 15 6.5 15h5c.957 0 1.624-.001 2.128-.069.49-.066.748-.186.933-.37.184-.185.305-.444.37-.933C15 13.124 15 12.457 15 11.5V7.893v-.25z" fill="#fff"/></svg>