<svg width="18" height="18" fill="none" xmlns="http://www.w3.org/2000/svg"><path fill-rule="evenodd" clip-rule="evenodd" d="M13.984 2h.032c.22 0 .409 0 .565.01.165.012.33.037.493.104a1.5 1.5 0 0 1 .812.812c.067.163.092.328.103.493.011.156.011.346.011.565v10.032c0 .22 0 .409-.01.565-.012.165-.037.33-.104.493a1.5 1.5 0 0 1-.812.812 1.533 1.533 0 0 1-.493.103c-.156.011-.346.011-.565.011h-.032c-.22 0-.409 0-.565-.01a1.533 1.533 0 0 1-.493-.104 1.5 1.5 0 0 1-.812-.812 1.535 1.535 0 0 1-.103-.493C12 14.425 12 14.235 12 14.016V3.984c0-.22 0-.409.01-.565.012-.165.037-.33.104-.493a1.5 1.5 0 0 1 .812-.812c.163-.067.328-.092.493-.103.156-.011.346-.011.565-.011zm-.497 1.008a.58.58 0 0 0-.178.03.5.5 0 0 0-.27.27.582.582 0 0 0-.03.179A8.434 8.434 0 0 0 13 4v10c0 .24 0 .395.008.513a.581.581 0 0 0 .03.178.5.5 0 0 0 .27.27c.021.01.065.023.179.03.118.009.273.009.513.009s.395 0 .513-.008a.575.575 0 0 0 .178-.03.5.5 0 0 0 .271-.27.581.581 0 0 0 .03-.179C15 14.395 15 14.24 15 14V4c0-.24 0-.395-.008-.513a.582.582 0 0 0-.03-.178.5.5 0 0 0-.27-.27.58.58 0 0 0-.179-.03A8.45 8.45 0 0 0 14 3c-.24 0-.395 0-.513.008zM3.898 5.5h.037c.257 0 .478 0 .66.014.192.016.383.05.568.14a1.5 1.5 0 0 1 .682.683c.092.185.125.376.14.568.015.182.015.403.015.66v6.37c0 .257 0 .478-.014.66a1.528 1.528 0 0 1-.14.568 1.5 1.5 0 0 1-.683.682 1.526 1.526 0 0 1-.568.14c-.182.015-.403.015-.66.015h-.037c-.256 0-.477 0-.66-.014a1.526 1.526 0 0 1-.568-.14 1.5 1.5 0 0 1-.682-.683 1.528 1.528 0 0 1-.14-.568c-.015-.182-.015-.403-.015-.66v-6.37c0-.257 0-.478.015-.66.015-.192.049-.383.14-.568a1.5 1.5 0 0 1 .682-.682c.185-.092.376-.125.569-.14.182-.015.403-.015.659-.015zm-.58 1.011a.572.572 0 0 0-.206.04.5.5 0 0 0-.227.228.572.572 0 0 0-.04.205c-.011.138-.012.32-.012.6v6.333c0 .28 0 .46.012.599a.57.57 0 0 0 .04.205.5.5 0 0 0 .227.227.57.57 0 0 0 .206.04c.138.012.319.012.599.012.28 0 .46 0 .599-.011a.57.57 0 0 0 .205-.04.5.5 0 0 0 .227-.228.571.571 0 0 0 .04-.205c.012-.138.012-.32.012-.6V7.584c0-.28 0-.46-.011-.599a.572.572 0 0 0-.04-.205.5.5 0 0 0-.228-.227.572.572 0 0 0-.205-.04 8.495 8.495 0 0 0-.6-.012c-.28 0-.46 0-.598.011zM8.984 9.5h.032c.22 0 .409 0 .565.01.165.012.33.037.493.104a1.5 1.5 0 0 1 .812.812c.067.163.092.328.103.493.011.156.011.346.011.565v2.532c0 .22 0 .408-.01.565-.012.165-.037.33-.104.493a1.5 1.5 0 0 1-.812.812 1.536 1.536 0 0 1-.493.103c-.156.01-.346.01-.565.01h-.032c-.22 0-.409 0-.565-.01a1.536 1.536 0 0 1-.493-.103 1.5 1.5 0 0 1-.812-.812 1.535 1.535 0 0 1-.103-.493C7 14.424 7 14.235 7 14.016v-2.532c0-.22 0-.409.01-.565.012-.165.037-.33.104-.493a1.5 1.5 0 0 1 .812-.812c.163-.067.328-.092.493-.103.156-.011.346-.011.565-.011zm-.497 1.008a.575.575 0 0 0-.178.03.5.5 0 0 0-.27.27.58.58 0 0 0-.03.179A8.45 8.45 0 0 0 8 11.5V14c0 .24 0 .395.008.513a.58.58 0 0 0 .03.178.5.5 0 0 0 .27.27c.021.01.065.023.179.03C8.605 15 8.76 15 9 15s.395 0 .513-.008a.582.582 0 0 0 .178-.03.5.5 0 0 0 .271-.27.58.58 0 0 0 .03-.179C10 14.395 10 14.24 10 14v-2.5c0-.24 0-.395-.008-.513a.58.58 0 0 0-.03-.178.5.5 0 0 0-.27-.27.575.575 0 0 0-.179-.03A8.434 8.434 0 0 0 9 10.5c-.24 0-.395 0-.513.008z" fill="#fff"/></svg>