<svg width="18" height="18" fill="none" xmlns="http://www.w3.org/2000/svg"><path fill-rule="evenodd" clip-rule="evenodd" d="M11.587 2.276l.04.014a6.516 6.516 0 0 1 4.03 4.057c.118.339.232.666.265.961.04.353-.027.677-.253.995-.244.342-.57.5-.943.57-.327.06-.733.06-1.184.06H11.467c-.443 0-.825 0-1.13-.04-.329-.045-.643-.144-.898-.399-.254-.255-.354-.569-.398-.897C9 7.292 9 6.91 9 6.467V4.432v-.042c0-.45 0-.856.061-1.183.07-.373.227-.7.569-.943.318-.227.642-.294.995-.254.296.034.623.147.962.265zm-1.075.729a.373.373 0 0 0-.302.074c-.078.056-.13.123-.166.312-.042.225-.044.536-.044 1.042v2c0 .486.001.8.032 1.031.03.217.076.285.114.323.038.038.106.085.323.114.232.031.546.032 1.031.032h2c.507 0 .818-.002 1.042-.044.19-.035.256-.087.312-.166a.373.373 0 0 0 .075-.301c-.02-.173-.093-.393-.23-.789A5.516 5.516 0 0 0 11.3 3.235c-.395-.137-.616-.21-.789-.23z" fill="#fff"/><path fill-rule="evenodd" clip-rule="evenodd" d="M7.476 2.66a.5.5 0 0 1-.322.63 6 6 0 1 0 7.557 7.557.5.5 0 1 1 .951.307 7 7 0 1 1-8.816-8.816.5.5 0 0 1 .63.322z" fill="#fff"/></svg>