<svg width="18" height="18" fill="none" xmlns="http://www.w3.org/2000/svg"><path fill-rule="evenodd" clip-rule="evenodd" d="M9 3a6 6 0 1 0 0 12A6 6 0 0 0 9 3zM2 9a7 7 0 1 1 14 0A7 7 0 0 1 2 9z" fill="#fff"/><path fill-rule="evenodd" clip-rule="evenodd" d="M11.893 5.911a.5.5 0 0 1 .154.69l-2.916 4.59-.02.03c-.183.289-.35.552-.51.736-.17.196-.422.412-.79.403-.367-.01-.607-.24-.766-.444-.15-.193-.302-.465-.47-.763l-.018-.031-.493-.877a.5.5 0 0 1 .872-.49l.493.877c.191.34.307.544.406.67l.005.007a.269.269 0 0 0 .005-.006c.106-.122.233-.32.442-.648l2.916-4.59a.5.5 0 0 1 .69-.154zm-4.12 5.464l.002-.002a.01.01 0 0 1-.003.002zm.128.001a.014.014 0 0 1 .003.002l-.003-.002z" fill="#fff"/></svg>