<svg width="18" height="18" fill="none" xmlns="http://www.w3.org/2000/svg"><path fill-rule="evenodd" clip-rule="evenodd" d="M9.354 14.354a.5.5 0 0 1-.708 0l-3.609-3.61c-.313-.313-.583-.583-.77-.828-.2-.263-.353-.556-.353-.916s.152-.653.353-.916c.187-.245.457-.515.77-.828l3.61-3.61a.5.5 0 1 1 .707.708L5.768 7.939c-.344.344-.565.566-.706.752-.133.174-.148.255-.148.309 0 .054.015.135.148.31.141.185.362.407.706.75l3.586 3.586a.5.5 0 0 1 0 .708z" fill="#fff"/><path fill-rule="evenodd" clip-rule="evenodd" d="M14.354 14.354a.5.5 0 0 1-.708 0l-3.609-3.61c-.313-.313-.583-.583-.77-.828-.2-.263-.353-.556-.353-.916s.152-.653.353-.916c.187-.245.457-.515.77-.828l3.61-3.61a.5.5 0 0 1 .707.708l-3.586 3.585c-.344.344-.565.566-.706.752-.133.174-.148.255-.148.309 0 .054.015.135.148.31.141.185.362.407.706.75l3.586 3.586a.5.5 0 0 1 0 .708z" fill="#fff"/></svg>