<svg width="18" height="18" fill="none" xmlns="http://www.w3.org/2000/svg"><path fill-rule="evenodd" clip-rule="evenodd" d="M14.354 8.646a.5.5 0 0 1 0 .708l-3.61 3.609c-.313.313-.583.583-.828.77-.263.2-.556.353-.916.353s-.653-.152-.916-.353c-.245-.187-.515-.457-.828-.77l-3.61-3.61a.5.5 0 1 1 .708-.707l3.585 3.586c.344.344.566.565.752.706.174.133.255.148.309.148.054 0 .135-.015.31-.148.185-.141.407-.362.75-.706l3.586-3.586a.5.5 0 0 1 .708 0z" fill="#fff"/><path fill-rule="evenodd" clip-rule="evenodd" d="M14.354 3.646a.5.5 0 0 1 0 .708l-3.61 3.609c-.313.313-.583.583-.828.77-.263.2-.556.353-.916.353s-.653-.152-.916-.353c-.245-.187-.515-.457-.828-.77l-3.61-3.61a.5.5 0 1 1 .708-.707l3.585 3.586c.344.344.566.565.752.706.174.133.255.148.309.148.054 0 .135-.015.31-.148.185-.141.407-.362.75-.706l3.586-3.586a.5.5 0 0 1 .708 0z" fill="#fff"/></svg>