<svg width="18" height="18" fill="none" xmlns="http://www.w3.org/2000/svg"><g clip-path="url(#clip0_877_10951)"><g clip-path="url(#clip1_877_10951)"><path fill-rule="evenodd" clip-rule="evenodd" d="M6.146 3.646a.5.5 0 0 1 .708 0l3.609 3.61c.313.313.583.583.77.828.2.263.353.556.353.916s-.152.653-.353.916c-.187.245-.457.515-.77.829l-3.61 3.609a.5.5 0 0 1-.707-.708l3.586-3.585c.344-.344.565-.566.706-.752.133-.174.148-.255.148-.309 0-.054-.015-.135-.148-.31-.141-.185-.362-.407-.706-.75L6.146 4.353a.5.5 0 0 1 0-.708z" fill="#fff"/></g></g><defs><clipPath id="clip0_877_10951"><path fill="#fff" d="M0 0H18V18H0z"/></clipPath><clipPath id="clip1_877_10951"><path fill="#fff" transform="rotate(90 9 9)" d="M0 0H18V18H0z"/></clipPath></defs></svg>