<svg width="18" height="18" fill="none" xmlns="http://www.w3.org/2000/svg"><path fill-rule="evenodd" clip-rule="evenodd" d="M7.194 2a.5.5 0 0 1 .5.5v1.306h2.612V2.5a.5.5 0 1 1 1 0v1.306h.421c.444 0 .825 0 1.131.04.328.045.642.144.897.399s.354.569.398.897c.041.305.041.687.041 1.13v.422H15.5a.5.5 0 0 1 0 1h-1.306v2.612H15.5a.5.5 0 1 1 0 1h-1.306v.421c0 .444 0 .825-.04 1.131-.045.328-.144.642-.399.897s-.569.354-.897.398c-.306.041-.687.041-1.13.041h-.422V15.5a.5.5 0 0 1-1 0v-1.306H7.694V15.5a.5.5 0 0 1-1 0v-1.306h-.421c-.444 0-.826 0-1.131-.04-.328-.045-.642-.144-.897-.399s-.354-.569-.398-.897c-.041-.306-.041-.687-.041-1.13v-.422H2.5a.5.5 0 0 1 0-1h1.306V7.694H2.5a.5.5 0 1 1 0-1h1.306v-.421c0-.444 0-.826.04-1.131.045-.328.144-.642.399-.897s.569-.354.897-.398c.305-.041.687-.041 1.13-.041h.422V2.5a.5.5 0 0 1 .5-.5zm-1.92 2.838c-.216.029-.284.076-.322.114-.038.038-.085.106-.114.323-.031.231-.032.545-.032 1.03v5.39c0 .485 0 .799.032 1.03.029.217.076.285.114.323.038.038.106.085.323.114.231.031.545.032 1.03.032h5.39c.485 0 .799 0 1.03-.032.217-.029.285-.076.323-.114.038-.038.085-.106.114-.323.031-.231.032-.545.032-1.03v-5.39c0-.485 0-.799-.032-1.03-.029-.217-.076-.285-.114-.323-.038-.038-.106-.085-.323-.114-.231-.031-.545-.032-1.03-.032h-5.39c-.485 0-.799 0-1.03.032zm2.893 1.856h1.666c.212 0 .418 0 .588.023a.99.99 0 0 1 .592.27.99.99 0 0 1 .27.592c.023.17.023.376.023.588v1.666c0 .212 0 .418-.023.588a.99.99 0 0 1-.27.592.99.99 0 0 1-.592.27c-.17.023-.376.023-.588.023H8.167c-.212 0-.418 0-.588-.023a.99.99 0 0 1-.592-.27.99.99 0 0 1-.27-.592c-.023-.17-.023-.376-.023-.588V8.194v-.027c0-.212 0-.418.023-.588a.99.99 0 0 1 .27-.592.99.99 0 0 1 .592-.27c.17-.023.376-.023.588-.023zM7.71 7.71v.003a4.246 4.246 0 0 0-.015.482v1.612c0 .25.002.387.014.482v.003h.004c.096.014.233.015.482.015h1.612c.25 0 .387-.001.482-.014h.003v-.004c.014-.095.015-.233.015-.482V8.194c0-.25-.001-.386-.014-.482V7.71h-.004a4.246 4.246 0 0 0-.482-.015H8.194c-.25 0-.386.002-.482.014H7.71z" fill="#fff"/></svg>