<svg fill="none" height="18" width="18" xmlns="http://www.w3.org/2000/svg" xmlns:xlink="http://www.w3.org/1999/xlink"><clipPath id="a"><path d="m0 0h18v18h-18z"/></clipPath><clipPath id="b"><path d="m0 0h18v18h-18z" transform="matrix(0 -1 1 0 0 18)"/></clipPath><g clip-path="url(#a)"><g clip-path="url(#b)"><circle cx="9" cy="9" r="6.5" stroke="#fff" transform="matrix(0 -1 1 0 0 18)"/><path d="m7.996 10.664.395.263c1.368.913 2.053 1.369 2.58 1.086.529-.283.529-1.105.529-2.75v-.526c0-1.645 0-2.468-.528-2.75-.528-.283-1.213.173-2.581 1.086l-.395.263c-1.129.753-1.693 1.129-1.693 1.664s.564.911 1.693 1.664z" fill="#fff"/></g></g></svg>