<svg width="18" height="18" fill="none" xmlns="http://www.w3.org/2000/svg"><g clip-path="url(#clip0_877_10969)"><g clip-path="url(#clip1_877_10969)"><circle cx="9" cy="9" r="6.5" transform="rotate(-180 9 9)" stroke="#fff"/><path d="M10.664 10.004l.263-.395c.913-1.368 1.369-2.053 1.086-2.58-.283-.529-1.105-.529-2.75-.529h-.526c-1.645 0-2.468 0-2.75.528-.283.528.173 1.213 1.086 2.581l.263.395c.753 1.129 1.129 1.693 1.664 1.693.535 0 .911-.564 1.664-1.693z" fill="#fff"/></g></g><defs><clipPath id="clip0_877_10969"><path fill="#fff" d="M0 0H18V18H0z"/></clipPath><clipPath id="clip1_877_10969"><path fill="#fff" transform="rotate(-180 9 9)" d="M0 0H18V18H0z"/></clipPath></defs></svg>