<svg fill="none" height="18" width="18" xmlns="http://www.w3.org/2000/svg"><g stroke="#fff"><path d="m2.5 4.5c0-.943 0-1.414.293-1.707s.764-.293 1.707-.293 1.414 0 1.707.293.293.764.293 1.707 0 1.414-.293 1.707-.764.293-1.707.293-1.414 0-1.707-.293-.293-.764-.293-1.707zm0 9c0-.943 0-1.414.293-1.707s.764-.293 1.707-.293 1.414 0 1.707.293.293.764.293 1.707 0 1.414-.293 1.707-.764.293-1.707.293-1.414 0-1.707-.293-.293-.764-.293-1.707zm9 0c0-.943 0-1.414.293-1.707s.764-.293 1.707-.293 1.414 0 1.707.293.293.764.293 1.707 0 1.414-.293 1.707-.764.293-1.707.293-1.414 0-1.707-.293-.293-.764-.293-1.707z"/><path d="m3.176 6.111a6.473 6.473 0 0 0 -.676 2.889c0 1.038.243 2.019.676 2.889m2.934-8.713a6.473 6.473 0 0 1 2.89-.676c1.038 0 2.019.243 2.889.676m2.935 2.935c.433.87.676 1.851.676 2.889a6.473 6.473 0 0 1 -.676 2.889m-2.935 2.935a6.473 6.473 0 0 1 -2.889.676 6.473 6.473 0 0 1 -2.889-.676"/><path d="m11.5 4.5c0-.943 0-1.414.293-1.707s.764-.293 1.707-.293 1.414 0 1.707.293.293.764.293 1.707 0 1.414-.293 1.707-.764.293-1.707.293-1.414 0-1.707-.293-.293-.764-.293-1.707z"/></g></svg>