<svg width="18" height="18" fill="none" xmlns="http://www.w3.org/2000/svg"><path fill-rule="evenodd" clip-rule="evenodd" d="M9 2.5a6.5 6.5 0 1 0 0 13 6.5 6.5 0 0 0 0-13zM1.5 9a7.5 7.5 0 1 1 15 0 7.5 7.5 0 0 1-15 0z" fill="#fff"/><path fill-rule="evenodd" clip-rule="evenodd" d="M1.646 1.646a.5.5 0 0 1 .708 0L9 8.293l5.596-5.597 1.05-1.05a.5.5 0 0 1 .708.708l-1.05 1.05s0-.001 0 0L9.707 9l6.647 6.646a.5.5 0 0 1-.708.708L9 9.707l-6.646 6.647a.5.5 0 0 1-.708-.708L8.293 9 1.646 2.354a.5.5 0 0 1 0-.708z" fill="#fff"/></svg>