<svg width="18" height="18" fill="none" xmlns="http://www.w3.org/2000/svg"><g clip-path="url(#clip0_821_19395)"><g clip-path="url(#clip1_821_19395)"><circle cx="9" cy="9" r="6.5" transform="rotate(90 9 9)" stroke="#fff"/><path d="M10.004 7.336l-.395-.263C8.241 6.16 7.556 5.704 7.03 5.987 6.5 6.269 6.5 7.092 6.5 8.737v.526c0 1.645 0 2.467.528 2.75.528.283 1.213-.173 2.581-1.086l.395-.263c1.129-.753 1.693-1.129 1.693-1.664 0-.535-.564-.911-1.693-1.664z" fill="#fff"/></g></g><defs><clipPath id="clip0_821_19395"><path fill="#fff" d="M0 0H18V18H0z"/></clipPath><clipPath id="clip1_821_19395"><path fill="#fff" transform="rotate(90 9 9)" d="M0 0H18V18H0z"/></clipPath></defs></svg>