<svg width="18" height="18" fill="none" xmlns="http://www.w3.org/2000/svg"><path d="M2.5 4.5c0-.943 0-1.414.293-1.707C3.086 2.5 3.557 2.5 4.5 2.5c.943 0 1.414 0 1.707.293.293.293.293.764.293 1.707 0 .943 0 1.414-.293 1.707-.293.293-.764.293-1.707.293-.943 0-1.414 0-1.707-.293C2.5 5.914 2.5 5.443 2.5 4.5zm0 9c0-.943 0-1.414.293-1.707.293-.293.764-.293 1.707-.293.943 0 1.414 0 1.707.293.293.293.293.764.293 1.707 0 .943 0 1.414-.293 1.707-.293.293-.764.293-1.707.293-.943 0-1.414 0-1.707-.293-.293-.293-.293-.764-.293-1.707zm9 0c0-.943 0-1.414.293-1.707.293-.293.764-.293 1.707-.293.943 0 1.414 0 1.707.293.293.293.293.764.293 1.707 0 .943 0 1.414-.293 1.707-.293.293-.764.293-1.707.293-.943 0-1.414 0-1.707-.293-.293-.293-.293-.764-.293-1.707z" stroke="#fff"/><path d="M3.176 6.111A6.473 6.473 0 0 0 2.5 9c0 1.038.243 2.019.676 2.889M6.11 3.176A6.473 6.473 0 0 1 9 2.5c1.038 0 2.019.243 2.889.676m2.935 2.935c.433.87.676 1.851.676 2.889a6.473 6.473 0 0 1-.676 2.889m-2.935 2.935A6.473 6.473 0 0 1 9 15.5a6.473 6.473 0 0 1-2.889-.676" stroke="#fff"/><path d="M11.5 4.5c0-.943 0-1.414.293-1.707.293-.293.764-.293 1.707-.293.943 0 1.414 0 1.707.293.293.293.293.764.293 1.707 0 .943 0 1.414-.293 1.707-.293.293-.764.293-1.707.293-.943 0-1.414 0-1.707-.293-.293-.293-.293-.764-.293-1.707z" stroke="#fff"/></svg>