<svg width="18" height="18" fill="none" xmlns="http://www.w3.org/2000/svg"><path fill-rule="evenodd" clip-rule="evenodd" d="M9 3a6 6 0 1 0 0 12A6 6 0 0 0 9 3zM2 9a7 7 0 1 1 14 0A7 7 0 0 1 2 9z" fill="#fff"/><path fill-rule="evenodd" clip-rule="evenodd" d="M8.62 7.061c-.224.249-.483.634-.868 1.212l-.263.395c-.466.698-.782 1.175-.955 1.542-.173.366-.132.477-.106.526.026.049.096.144.496.203.401.06.974.061 1.813.061h.526c.84 0 1.412-.001 1.813-.06.4-.06.47-.155.496-.204.027-.049.067-.16-.106-.526-.173-.367-.49-.844-.955-1.542l-.263-.395c-.385-.578-.644-.963-.868-1.212-.218-.24-.321-.258-.38-.258s-.162.017-.38.258zm-.741-.67c.292-.324.644-.588 1.121-.588s.83.264 1.121.588c.28.31.58.758.937 1.294l.309.464c.436.654.795 1.192 1.003 1.634.213.45.34.946.084 1.425-.257.479-.74.648-1.232.72-.483.072-1.13.072-1.916.072h-.612c-.786 0-1.433 0-1.916-.071-.493-.073-.975-.242-1.232-.721-.256-.48-.129-.975.084-1.425.208-.442.567-.98 1.003-1.634l.287-.43.022-.034c.357-.536.657-.984.937-1.294z" fill="#fff"/></svg>