<svg width="18" height="18" fill="none" xmlns="http://www.w3.org/2000/svg"><path fill-rule="evenodd" clip-rule="evenodd" d="M9 3a6 6 0 1 0 0 12A6 6 0 0 0 9 3zM2 9a7 7 0 1 1 14 0A7 7 0 0 1 2 9z" fill="#fff"/><path fill-rule="evenodd" clip-rule="evenodd" d="M8.467 6H9.533c.443 0 .825 0 1.13.041.329.044.643.144.898.398.255.255.354.57.398.897.041.306.041.688.041 1.131v1.066c0 .443 0 .825-.041 1.13-.044.329-.143.643-.398.898s-.57.354-.897.398C10.358 12 9.976 12 9.533 12H8.467c-.443 0-.825 0-1.13-.041-.329-.044-.643-.143-.898-.398-.254-.255-.354-.57-.398-.897C6 10.358 6 9.976 6 9.533V8.5v-.033c0-.443 0-.825.041-1.13.044-.329.144-.643.398-.898.255-.254.57-.354.897-.398C7.642 6 8.024 6 8.467 6zM7.47 7.032c-.217.03-.284.076-.323.114-.038.039-.085.106-.114.323C7.002 7.701 7 8.014 7 8.5v1c0 .486.001.8.032 1.03.03.218.076.286.114.324.039.038.106.085.323.114.232.03.545.032 1.031.032h1c.486 0 .8-.001 1.03-.032.218-.03.286-.076.324-.114.038-.038.085-.106.114-.323.03-.232.032-.545.032-1.031v-1c0-.486-.001-.8-.032-1.03-.03-.218-.076-.285-.114-.324-.038-.038-.106-.085-.323-.114C10.299 7.002 9.985 7 9.5 7h-1c-.486 0-.8.001-1.03.032z" fill="#fff"/></svg>