<svg width="18" height="18" fill="none" xmlns="http://www.w3.org/2000/svg"><circle cx="9" cy="9" r="6.5" stroke="#fff"/><path d="M6.793 11.207l-.354.354.354-.354zm4.414 0l.354.354-.354-.354zm0-4.414l.354-.354-.354.354zM11 8.5v1h1v-1h-1zM9.5 11h-1v1h1v-1zM7 9.5v-1H6v1h1zM8.5 7h1V6H8.5v1zm0 4c-.486 0-.8-.001-1.03-.032-.218-.03-.285-.076-.324-.114l-.707.707c.255.255.57.354.897.398C7.65 12 8.043 12 8.5 12v-1zM6 9.5c0 .457-.001.85.041 1.164.044.328.144.642.398.897l.707-.707c-.038-.038-.085-.106-.114-.323C7.002 10.299 7 9.986 7 9.5H6zm5 0c0 .486-.001.8-.032 1.03-.03.218-.076.286-.114.324l.707.707c.255-.255.354-.57.398-.897C12 10.35 12 9.957 12 9.5h-1zM9.5 12c.457 0 .85.001 1.164-.041.328-.044.642-.143.897-.398l-.707-.707c-.038.038-.106.085-.323.114-.232.03-.545.032-1.031.032v1zM12 8.5c0-.457.001-.85-.041-1.164-.044-.328-.143-.642-.398-.897l-.707.707c.038.039.085.106.114.323.03.232.032.545.032 1.031h1zM9.5 7c.486 0 .8.001 1.03.032.218.03.286.076.324.114l.707-.707c-.255-.254-.57-.354-.897-.398C10.35 6 9.957 6 9.5 6v1zM7 8.5c0-.486.001-.8.032-1.03.03-.218.076-.285.114-.324L6.44 6.44c-.254.255-.354.57-.398.897C6 7.65 6 8.043 6 8.5h1zM8.5 6c-.457 0-.85-.001-1.164.041-.328.044-.642.144-.897.398l.707.707c.039-.038.106-.085.323-.114C7.701 7.002 8.014 7 8.5 7V6z" fill="#fff"/></svg>