<svg fill="none" height="18" width="18" xmlns="http://www.w3.org/2000/svg"><circle cx="9" cy="9" r="6.5" stroke="#fff"/><path d="m12.013 10.972.441.236-.44-.236zm-3.013-4.67v.5zm-1.511 2.367.263-.394-.832-.555-.263.394zm2.76-.394.262.394.832-.555-.263-.394-.832.554zm-.987 2.725h-.526v1h.526zm-2.605-2.887c-.447.67-.815 1.22-1.027 1.67-.213.45-.34.946-.084 1.425l.882-.472c-.026-.049-.067-.16.106-.526.173-.367.49-.844.955-1.542zm2.08 2.887c-.84 0-1.412-.001-1.813-.06-.4-.06-.47-.155-.496-.204l-.882.472c.257.48.74.648 1.232.72.492.073 1.154.072 1.959.072zm1.774-2.332c.466.698.782 1.175.955 1.542.173.366.133.477.106.526l.882.472c.256-.48.129-.975-.084-1.425-.212-.45-.58-1-1.027-1.67zm-1.248 3.332c.806 0 1.467.001 1.96-.071.492-.073.974-.242 1.231-.721l-.882-.472c-.026.049-.095.144-.496.203-.401.06-.974.061-1.813.061zm-1.511-3.726c.385-.579.644-.964.868-1.213.218-.24.321-.258.38-.258v-1c-.477 0-.83.264-1.121.588-.286.316-.592.777-.96 1.328l.833.554zm3.328-.555c-.367-.55-.673-1.012-.959-1.328-.292-.324-.644-.588-1.121-.588v1c.059 0 .162.017.38.258.224.249.483.634.868 1.213z" fill="#fff"/></svg>