<svg width="18" height="18" fill="none" xmlns="http://www.w3.org/2000/svg"><path d="M11.918 7.544H8.716a1.452 1.452 0 0 1-1.296-.798 2.177 2.177 0 0 1-.216-1.254l.039-.31a.724.724 0 0 0-1.18-.65l-.105.086a.616.616 0 0 1-.941-.197.616.616 0 0 0-1.141.107l-.268.929-1.17 1.736a1.118 1.118 0 0 0 .928 1.742h.647a1 1 0 0 1 1 1v3.122a.993.993 0 0 1-.276.688l-.031.033c-.386.4-.352 1.036.19 1.161.717.166 1.574.082 1.957-.254.117-.103.147-.267.147-.423v-2.248a1 1 0 0 1 .993-1l1.67-.012a1 1 0 0 1 .607.2l1.33.998a1 1 0 0 1 .4.8v.087a.997.997 0 0 1-.292.705c-.39.39-.355 1.014.183 1.139.762.177 1.702.095 2.106-.247.119-.102.149-.265.149-.422v-4.48a.244.244 0 0 0-.136-.219c-.2-.099-.175-.405.026-.502 1.147-.551 1.48-1.556 1.463-2.488-.013-.714-.86-.91-1.367-.407l-.807.799a2 2 0 0 1-1.407.579z" stroke="currentColor"/><path d="M5.375 6.875a.375.375 0 1 1-.75 0 .375.375 0 0 1 .75 0zm-.09 2.077L5 9v3l1.209-1.41c.608-.71-.002-1.791-.924-1.638z" fill="currentColor"/><path d="M12.073 7.721l.08-.177H8.564l.2.346a1.86 1.86 0 0 0 3.308-.169z" fill="currentColor" stroke="currentColor" stroke-linecap="round"/></svg>