<svg width="18" height="18" fill="none" xmlns="http://www.w3.org/2000/svg"><path fill-rule="evenodd" clip-rule="evenodd" d="M5.846 3h.029v1c-.423 0-.697 0-.9.025-.193.023-.258.06-.292.088a.499.499 0 0 0-.07.07c-.028.034-.065.099-.088.292-.024.203-.025.477-.025.9V13.5c0 .486.001.8.032 1.03.03.218.076.286.114.324.039.038.106.085.323.114.232.03.545.032 1.031.032h6c.486 0 .8-.001 1.03-.032.218-.03.286-.076.324-.114.038-.038.085-.106.114-.323.03-.232.032-.546.032-1.031V5.375c0-.423 0-.697-.025-.9-.023-.193-.06-.258-.088-.292a.502.502 0 0 0-.07-.07c-.034-.028-.099-.065-.292-.088C12.822 4 12.548 4 12.125 4V3h.028c.387 0 .72 0 .99.032.287.034.566.11.809.308a1.5 1.5 0 0 1 .207.208c.2.243.275.522.31.81.031.269.031.602.031.988v8.187c0 .443 0 .825-.041 1.13-.044.329-.143.643-.398.898s-.57.354-.897.398c-.306.041-.688.041-1.131.041H5.967c-.443 0-.825 0-1.13-.041-.329-.044-.643-.143-.898-.398-.254-.255-.354-.57-.398-.897-.041-.306-.041-.688-.041-1.131V5.375v-.029c0-.386 0-.72.032-.989.034-.287.11-.566.308-.809a1.5 1.5 0 0 1 .208-.208c.243-.198.522-.274.81-.308C5.126 3 5.46 3 5.845 3z" fill="#fff"/><path fill-rule="evenodd" clip-rule="evenodd" d="M7 3a.5.5 0 0 0 0 1h4a.5.5 0 0 0 0-1H7zm-1.5.5A1.5 1.5 0 0 1 7 2h4a1.5 1.5 0 0 1 0 3H7a1.5 1.5 0 0 1-1.5-1.5zm.5 4a.5.5 0 0 1 .5-.5h5a.5.5 0 0 1 0 1h-5a.5.5 0 0 1-.5-.5zM6 10a.5.5 0 0 1 .5-.5h5a.5.5 0 0 1 0 1h-5A.5.5 0 0 1 6 10zm0 2.5a.5.5 0 0 1 .5-.5h2a.5.5 0 0 1 0 1h-2a.5.5 0 0 1-.5-.5z" fill="#fff"/></svg>