<svg width="18" height="18" fill="none" xmlns="http://www.w3.org/2000/svg"><g clip-path="url(#clip0_877_10985)"><path fill-rule="evenodd" clip-rule="evenodd" d="M15.5 7a.5.5 0 0 1-.5.5h-4a.5.5 0 0 1-.5-.5V3a.5.5 0 0 1 1 0v2.793l3.646-3.647a.5.5 0 1 1 .707.708L12.207 6.5H15a.5.5 0 0 1 .5.5zM7 15.5a.5.5 0 0 1-.5-.5v-2.793l-3.646 3.647a.5.5 0 0 1-.708-.708L5.793 11.5H3a.5.5 0 0 1 0-1h4a.5.5 0 0 1 .5.5v4a.5.5 0 0 1-.5.5z" fill="#fff"/></g><defs><clipPath id="clip0_877_10985"><path fill="#fff" d="M0 0H18V18H0z"/></clipPath></defs></svg>