<svg width="18" height="18" fill="none" xmlns="http://www.w3.org/2000/svg"><path fill-rule="evenodd" clip-rule="evenodd" d="M2 4.45a2.45 2.45 0 0 1 4.9 0V5.9h4.2V4.45a2.45 2.45 0 1 1 2.45 2.45H12.1v4.2h1.45a2.45 2.45 0 1 1-2.45 2.45V12.1H6.9v1.45a2.45 2.45 0 1 1-2.45-2.45H5.9V6.9H4.45A2.45 2.45 0 0 1 2 4.45zM5.9 5.9V4.45A1.45 1.45 0 1 0 4.45 5.9H5.9zm1 1v4.2h4.2V6.9H6.9zm-1 5.2H4.45a1.45 1.45 0 1 0 1.45 1.45V12.1zm6.2 0v1.45a1.45 1.45 0 1 0 1.45-1.45H12.1zm0-6.2h1.45a1.45 1.45 0 1 0-1.45-1.45V5.9z" fill="#fff"/></svg>