<svg width="18" height="18" fill="none" xmlns="http://www.w3.org/2000/svg"><g clip-path="url(#clip0_821_19402)" stroke="#fff" stroke-linecap="round" stroke-linejoin="round"><path d="M2.5 4.5c0-.943 0-1.414.293-1.707C3.086 2.5 3.557 2.5 4.5 2.5h1c.943 0 1.414 0 1.707.293.293.293.293.764.293 1.707v1c0 .943 0 1.414-.293 1.707-.293.293-.764.293-1.707.293h-1c-.943 0-1.414 0-1.707-.293C2.5 6.914 2.5 6.443 2.5 5.5v-1z" fill="#fff"/><path d="M2.5 12.5c0-.943 0-1.414.293-1.707.293-.293.764-.293 1.707-.293h1c.943 0 1.414 0 1.707.293.293.293.293.764.293 1.707v1c0 .943 0 1.414-.293 1.707-.293.293-.764.293-1.707.293h-1c-.943 0-1.414 0-1.707-.293-.293-.293-.293-.764-.293-1.707v-1zm8-8c0-.943 0-1.414.293-1.707.293-.293.764-.293 1.707-.293h1c.943 0 1.414 0 1.707.293.293.293.293.764.293 1.707v1c0 .943 0 1.414-.293 1.707-.293.293-.764.293-1.707.293h-1c-.943 0-1.414 0-1.707-.293-.293-.293-.293-.764-.293-1.707v-1zm0 8c0-.943 0-1.414.293-1.707.293-.293.764-.293 1.707-.293h1c.943 0 1.414 0 1.707.293.293.293.293.764.293 1.707v1c0 .943 0 1.414-.293 1.707-.293.293-.764.293-1.707.293h-1c-.943 0-1.414 0-1.707-.293-.293-.293-.293-.764-.293-1.707v-1z"/></g><defs><clipPath id="clip0_821_19402"><path fill="#fff" d="M0 0H18V18H0z"/></clipPath></defs></svg>