<svg fill="none" height="18" width="18" xmlns="http://www.w3.org/2000/svg"><path d="m2.5 4.5c0-.943 0-1.414.293-1.707s.764-.293 1.707-.293h1c.943 0 1.414 0 1.707.293s.293.764.293 1.707v1c0 .943 0 1.414-.293 1.707s-.764.293-1.707.293h-1c-.943 0-1.414 0-1.707-.293s-.293-.764-.293-1.707zm0 8c0-.943 0-1.414.293-1.707s.764-.293 1.707-.293h1c.943 0 1.414 0 1.707.293s.293.764.293 1.707v1c0 .943 0 1.414-.293 1.707s-.764.293-1.707.293h-1c-.943 0-1.414 0-1.707-.293s-.293-.764-.293-1.707zm8-8c0-.943 0-1.414.293-1.707s.764-.293 1.707-.293h1c.943 0 1.414 0 1.707.293s.293.764.293 1.707v1c0 .943 0 1.414-.293 1.707s-.764.293-1.707.293h-1c-.943 0-1.414 0-1.707-.293s-.293-.764-.293-1.707zm0 8c0-.943 0-1.414.293-1.707s.764-.293 1.707-.293h1c.943 0 1.414 0 1.707.293s.293.764.293 1.707v1c0 .943 0 1.414-.293 1.707s-.764.293-1.707.293h-1c-.943 0-1.414 0-1.707-.293s-.293-.764-.293-1.707z" stroke="#fff" stroke-linecap="round" stroke-linejoin="round"/></svg>