<svg width="18" height="18" fill="none" xmlns="http://www.w3.org/2000/svg"><path fill-rule="evenodd" clip-rule="evenodd" d="M4.467 2H5.533c.443 0 .825 0 1.13.041.329.044.643.144.898.398.254.255.354.57.398.897C8 3.642 8 4.024 8 4.467v1.066c0 .443 0 .825-.041 1.13-.044.329-.144.643-.398.898-.255.254-.57.354-.897.398C6.358 8 5.976 8 5.533 8H4.467c-.443 0-.825 0-1.13-.041-.329-.044-.643-.144-.898-.398-.254-.255-.354-.57-.398-.897C2 6.358 2 5.976 2 5.533V4.5v-.033c0-.443 0-.825.041-1.13.044-.329.144-.643.398-.898.255-.254.57-.354.897-.398C3.642 2 4.024 2 4.467 2zM3.47 3.032c-.217.03-.284.076-.323.114-.038.039-.085.106-.114.323C3.002 3.701 3 4.014 3 4.5v1c0 .486.001.8.032 1.03.03.218.076.285.114.324.039.038.106.085.323.114.232.03.545.032 1.031.032h1c.486 0 .8-.001 1.03-.032.218-.03.285-.076.324-.114.038-.039.085-.106.114-.323C6.998 6.299 7 5.986 7 5.5v-1c0-.486-.001-.8-.032-1.03-.03-.218-.076-.285-.114-.324-.039-.038-.106-.085-.323-.114C6.299 3.002 5.986 3 5.5 3h-1c-.486 0-.8.001-1.03.032zM4.467 10H5.533c.443 0 .825 0 1.13.041.329.044.643.143.898.398.254.255.354.57.398.897.041.306.041.688.041 1.131v1.066c0 .443 0 .825-.041 1.13-.044.329-.144.643-.398.898-.255.255-.57.354-.897.398C6.358 16 5.976 16 5.533 16H4.467c-.443 0-.825 0-1.13-.041-.329-.044-.643-.143-.898-.398-.254-.255-.354-.57-.398-.897C2 14.358 2 13.976 2 13.533V12.5v-.033c0-.443 0-.825.041-1.13.044-.329.144-.643.398-.898.255-.255.57-.354.897-.398C3.642 10 4.024 10 4.467 10zm-.998 1.032c-.217.03-.284.076-.323.114-.038.038-.085.106-.114.323-.03.232-.032.546-.032 1.031v1c0 .486.001.8.032 1.03.03.218.076.286.114.324.039.038.106.085.323.114.232.03.545.032 1.031.032h1c.486 0 .8-.001 1.03-.032.218-.03.285-.076.324-.114.038-.038.085-.106.114-.323.03-.232.032-.546.032-1.031v-1c0-.486-.001-.8-.032-1.03-.03-.218-.076-.286-.114-.324-.039-.038-.106-.085-.323-.114C6.299 11.002 5.986 11 5.5 11h-1c-.486 0-.8.001-1.03.032zM12.467 2H13.533c.443 0 .825 0 1.13.041.329.044.643.144.898.398.255.255.354.57.398.897.041.306.041.688.041 1.131v1.066c0 .443 0 .825-.041 1.13-.044.329-.143.643-.398.898-.255.254-.57.354-.897.398C14.358 8 13.976 8 13.533 8h-1.066c-.443 0-.825 0-1.13-.041-.329-.044-.643-.144-.898-.398-.255-.255-.354-.57-.398-.897C10 6.358 10 5.976 10 5.533V4.5v-.033c0-.443 0-.825.041-1.13.044-.329.143-.643.398-.898.255-.254.57-.354.897-.398C11.642 2 12.024 2 12.467 2zm-.998 1.032c-.216.03-.284.076-.323.114-.038.039-.085.106-.114.323-.03.232-.032.545-.032 1.031v1c0 .486.001.8.032 1.03.03.218.076.285.114.324.038.038.106.085.323.114.232.03.546.032 1.031.032h1c.486 0 .8-.001 1.03-.032.218-.03.286-.076.324-.114.038-.039.085-.106.114-.323.03-.232.032-.545.032-1.031v-1c0-.486-.001-.8-.032-1.03-.03-.218-.076-.285-.114-.324-.038-.038-.106-.085-.323-.114C14.299 3.002 13.985 3 13.5 3h-1c-.486 0-.8.001-1.03.032zM12.467 10H13.533c.443 0 .825 0 1.13.041.329.044.643.143.898.398s.354.57.398.897c.041.306.041.688.041 1.131v1.066c0 .443 0 .825-.041 1.13-.044.329-.143.643-.398.898s-.57.354-.897.398c-.306.041-.688.041-1.131.041h-1.066c-.443 0-.825 0-1.13-.041-.329-.044-.643-.143-.898-.398s-.354-.57-.398-.897C10 14.358 10 13.976 10 13.533V12.5v-.033c0-.443 0-.825.041-1.13.044-.329.143-.643.398-.898s.57-.354.897-.398c.306-.041.688-.041 1.131-.041zm-.998 1.032c-.216.03-.284.076-.323.114-.038.038-.085.106-.114.323-.03.232-.032.546-.032 1.031v1c0 .486.001.8.032 1.03.03.218.076.286.114.324.038.038.106.085.323.114.232.03.546.032 1.031.032h1c.486 0 .8-.001 1.03-.032.218-.03.286-.076.324-.114.038-.038.085-.106.114-.323.03-.232.032-.546.032-1.031v-1c0-.486-.001-.8-.032-1.03-.03-.218-.076-.286-.114-.324-.038-.038-.106-.085-.323-.114-.232-.03-.546-.032-1.031-.032h-1c-.486 0-.8.001-1.03.032z" fill="#fff"/></svg>