<svg fill="none" height="18" width="18" xmlns="http://www.w3.org/2000/svg"><path d="M2.5 4.5c0-.943 0-1.414.293-1.707S3.557 2.5 4.5 2.5h1c.943 0 1.414 0 1.707.293S7.5 3.557 7.5 4.5v1c0 .943 0 1.414-.293 1.707S6.443 7.5 5.5 7.5h-1c-.943 0-1.414 0-1.707-.293S2.5 6.443 2.5 5.5zm0 8c0-.943 0-1.414.293-1.707S3.557 10.5 4.5 10.5h1c.943 0 1.414 0 1.707.293s.293.764.293 1.707v1c0 .943 0 1.414-.293 1.707s-.764.293-1.707.293h-1c-.943 0-1.414 0-1.707-.293S2.5 14.443 2.5 13.5zm8-8c0-.943 0-1.414.293-1.707S11.557 2.5 12.5 2.5h1c.943 0 1.414 0 1.707.293s.293.764.293 1.707v1c0 .943 0 1.414-.293 1.707s-.764.293-1.707.293h-1c-.943 0-1.414 0-1.707-.293S10.5 6.443 10.5 5.5zm0 8c0-.943 0-1.414.293-1.707s.764-.293 1.707-.293h1c.943 0 1.414 0 1.707.293s.293.764.293 1.707v1c0 .943 0 1.414-.293 1.707s-.764.293-1.707.293h-1c-.943 0-1.414 0-1.707-.293s-.293-.764-.293-1.707z" stroke="currentColor" stroke-linecap="round" stroke-linejoin="round"/></svg>