<svg width="18" height="18" fill="none" xmlns="http://www.w3.org/2000/svg"><path d="M3 4.5c0-.943 0-1.414.293-1.707C3.586 2.5 4.057 2.5 5 2.5h8c.943 0 1.414 0 1.707.293C15 3.086 15 3.557 15 4.5v9c0 .943 0 1.414-.293 1.707-.293.293-.764.293-1.707.293H5c-.943 0-1.414 0-1.707-.293C3 14.914 3 14.443 3 13.5v-9z" stroke="#fff"/><path d="M3 7h12M3 11.5h12" stroke="#fff" stroke-linecap="round"/><path d="M6 9a.5.5 0 1 1-1 0 .5.5 0 0 1 1 0zm0-4.5a.5.5 0 1 1-1 0 .5.5 0 0 1 1 0zm0 9a.5.5 0 1 1-1 0 .5.5 0 0 1 1 0z" fill="#fff"/></svg>