<svg width="18" height="18" fill="none" xmlns="http://www.w3.org/2000/svg"><path fill-rule="evenodd" clip-rule="evenodd" d="M4.467 8h3.066c.443 0 .825 0 1.13.041.329.044.643.144.898.398.254.255.354.57.398.897.041.306.041.688.041 1.131v3.066c0 .443 0 .825-.041 1.13-.044.329-.144.643-.398.898-.255.255-.57.354-.897.398C8.358 16 7.976 16 7.533 16H4.467c-.443 0-.825 0-1.13-.041-.329-.044-.643-.143-.898-.398-.254-.255-.354-.57-.398-.897C2 14.358 2 13.976 2 13.533V10.5v-.033c0-.443 0-.825.041-1.13.044-.329.144-.643.398-.898.255-.254.57-.354.897-.398C3.642 8 4.024 8 4.467 8zM3.47 9.032c-.217.03-.284.076-.323.114-.038.039-.085.106-.114.323-.03.232-.032.546-.032 1.031v3c0 .486.001.8.032 1.03.03.218.076.286.114.324.039.038.106.085.323.114.232.03.545.032 1.031.032h3c.486 0 .8-.001 1.03-.032.218-.03.285-.076.324-.114.038-.038.085-.106.114-.323.03-.232.032-.546.032-1.031v-3c0-.486-.001-.8-.032-1.03-.03-.218-.076-.285-.114-.324-.039-.038-.106-.085-.323-.114C8.299 9.002 7.986 9 7.5 9h-3c-.486 0-.8.001-1.03.032zM6.467 2H8a.5.5 0 0 1 0 1H6.5c-.486 0-.8.001-1.03.032-.218.03-.285.076-.324.114-.038.039-.085.106-.114.323C5.002 3.701 5 4.014 5 4.5V6a.5.5 0 0 1-1 0V4.5v-.033c0-.443 0-.825.041-1.13.044-.329.144-.643.398-.898.255-.254.57-.354.897-.398C5.642 2 6.024 2 6.467 2zm8.064 1.032C14.299 3.002 13.985 3 13.5 3H12a.5.5 0 0 1 0-1h1.533c.443 0 .825 0 1.13.041.329.044.643.144.898.398.255.255.354.57.398.897.041.306.041.688.041 1.131V6a.5.5 0 0 1-1 0V4.5c0-.486-.001-.8-.032-1.03-.03-.218-.076-.285-.114-.324-.038-.038-.106-.085-.323-.114zM15.5 9.5a.5.5 0 0 1 .5.5v1.533c0 .443 0 .825-.041 1.13-.044.329-.143.643-.398.898s-.57.354-.897.398c-.306.041-.688.041-1.131.041H12a.5.5 0 0 1 0-1h1.5c.486 0 .8-.001 1.03-.032.218-.03.286-.076.324-.114.038-.038.085-.106.114-.323.03-.232.032-.546.032-1.031V10a.5.5 0 0 1 .5-.5z" fill="#fff"/></svg>