<svg width="18" height="18" fill="none" xmlns="http://www.w3.org/2000/svg"><path fill-rule="evenodd" clip-rule="evenodd" d="M10.282 3.037C10.212 3.009 10.13 3 9.69 3H6.5c-.486 0-.8.001-1.03.032-.218.03-.285.076-.324.114-.038.039-.085.106-.114.323C5.002 3.701 5 4.014 5 4.5v9c0 .486.001.8.032 1.03.03.218.076.286.114.324.039.038.106.085.323.114.232.031.545.032 1.031.032h5c.486 0 .8-.001 1.03-.032.218-.03.286-.076.324-.114.038-.038.085-.106.114-.323.03-.232.032-.545.032-1.031V6.26c0-.46-.01-.547-.04-.618-.03-.072-.086-.14-.415-.459l-1.811-1.759c-.316-.307-.382-.36-.452-.387zM9.757 2c.332 0 .627-.001.901.11s.485.317.724.55l.048.047 1.812 1.759.05.05c.25.24.47.454.59.736.12.283.119.59.118.936v7.345c0 .443 0 .825-.041 1.13-.044.329-.143.643-.398.898s-.57.354-.897.398c-.306.041-.688.041-1.131.041H6.467c-.443 0-.825 0-1.13-.041-.329-.044-.643-.143-.898-.398-.254-.255-.354-.57-.398-.897C4 14.358 4 13.976 4 13.533V4.5v-.033c0-.443 0-.825.041-1.13.044-.329.144-.643.398-.898.255-.254.57-.354.897-.398C5.642 2 6.024 2 6.467 2h3.29z" fill="#fff"/><path fill-rule="evenodd" clip-rule="evenodd" d="M10 4V3h1v1c0 .486.001.8.032 1.03.03.218.076.285.114.324.038.038.106.085.323.114.232.03.546.032 1.031.032h1v1h-1.033c-.443 0-.825 0-1.13-.041-.329-.044-.643-.144-.898-.398-.255-.255-.354-.57-.398-.897C10 4.858 10 4.476 10 4.033V4z" fill="#fff"/></svg>