<svg width="18" height="18" fill="none" xmlns="http://www.w3.org/2000/svg"><path d="M13.421 5.447l-.46.195.46-.195zm-2.95-2.874l.187-.463-.188.463zm2.736 12.634l.354.354-.354-.354zm-8.414 0l.353-.353-.353.353zM5 13.5v-9H4v9h1zm6.5 1.5h-5v1h5v-1zm-5-12h3.189V2H6.5v1zM13 6.26v7.24h1V6.26h-1zm-2.266-2.836l1.811 1.76.697-.718-1.812-1.76-.696.718zM14 6.259c0-.375.01-.705-.118-1.007l-.921.39c.03.071.039.159.039.617h1zm-1.455-1.076c.33.32.385.387.415.459l.922-.39c-.128-.301-.371-.525-.64-.786l-.697.717zM9.69 3c.44 0 .524.009.593.037l.376-.927c-.292-.119-.609-.11-.97-.11v1zm1.741-.293c-.258-.252-.48-.478-.772-.597l-.376.927c.07.028.136.08.452.387l.696-.717zM11.5 16c.457 0 .85.001 1.164-.041.328-.044.642-.143.897-.398l-.707-.707c-.038.038-.106.085-.323.114-.232.03-.546.032-1.031.032v1zm1.5-2.5c0 .486-.001.8-.032 1.03-.03.218-.076.286-.114.324l.707.707c.255-.255.354-.57.398-.897C14 14.35 14 13.957 14 13.5h-1zm-9 0c0 .457-.001.85.041 1.164.044.328.144.642.398.897l.707-.707c-.038-.038-.085-.106-.114-.323C5.002 14.299 5 13.985 5 13.5H4zM6.5 15c-.486 0-.8-.001-1.03-.032-.218-.03-.285-.076-.324-.114l-.707.707c.255.255.57.354.897.398C5.65 16 6.043 16 6.5 16v-1zM5 4.5c0-.486.001-.8.032-1.03.03-.218.076-.285.114-.324L4.44 2.44c-.254.255-.354.57-.398.897C4 3.65 4 4.043 4 4.5h1zM6.5 2c-.457 0-.85-.001-1.164.041-.328.044-.642.144-.897.398l.707.707c.039-.038.106-.085.323-.114C5.701 3.002 6.014 3 6.5 3V2z" fill="#fff"/><path d="M10.5 3v1c0 .943 0 1.414.293 1.707C11.086 6 11.557 6 12.5 6h1" stroke="#fff"/></svg>