<svg width="18" height="18" fill="none" xmlns="http://www.w3.org/2000/svg"><g clip-path="url(#clip0_877_11006)" fill-rule="evenodd" clip-rule="evenodd" fill="#fff"><path d="M10.282 3.037C10.212 3.009 10.13 3 9.69 3H6.5c-.486 0-.8.001-1.03.032-.218.03-.285.076-.324.114-.038.039-.085.106-.114.323C5.002 3.701 5 4.014 5 4.5v9c0 .486.001.8.032 1.03.03.218.076.286.114.324.039.038.106.085.323.114.232.031.545.032 1.031.032h5c.486 0 .8-.001 1.03-.032.218-.03.286-.076.324-.114.038-.038.085-.106.114-.323.03-.232.032-.545.032-1.031V6.26c0-.46-.01-.547-.04-.618-.03-.072-.086-.14-.415-.459l-1.811-1.759c-.316-.307-.382-.36-.452-.387zM9.757 2c.332 0 .627-.001.901.11s.485.317.724.55l.048.047 1.812 1.759.05.05c.25.24.47.454.59.736.12.283.119.59.118.936v7.345c0 .443 0 .825-.041 1.13-.044.329-.143.643-.398.898s-.57.354-.897.398c-.306.041-.688.041-1.131.041H6.467c-.443 0-.825 0-1.13-.041-.329-.044-.643-.143-.898-.398-.254-.255-.354-.57-.398-.897C4 14.358 4 13.976 4 13.533V4.5v-.033c0-.443 0-.825.041-1.13.044-.329.144-.643.398-.898.255-.254.57-.354.897-.398C5.642 2 6.024 2 6.467 2h3.29z"/><path d="M10 4V3h1v1c0 .486.001.8.032 1.03.03.218.076.285.114.324.038.038.106.085.323.114.232.03.546.032 1.031.032h1v1h-1.033c-.443 0-.825 0-1.13-.041-.329-.044-.643-.144-.898-.398-.255-.255-.354-.57-.398-.897C10 4.858 10 4.476 10 4.033V4zm.504 5.995c-.117-.1-.307-.22-.626-.419L8.765 8.88c-.353-.22-.57-.354-.728-.423a1.058 1.058 0 0 0-.009-.004l-.001.01C8 8.633 8 8.887 8 9.303v1.392c0 .416.001.67.027.842l.001.009.009-.004c.159-.07.375-.203.728-.423l1.113-.696c.319-.2.509-.32.626-.42.002 0 .004-.002.005-.004l-.005-.005zm.068.068l-.002-.002a.012.012 0 0 1 .002.002zm-.002-.124l.002-.002-.002.002zm-2.64 1.64h.003-.003zm.12.065a.016.016 0 0 1 .003.004l-.002-.004zm.003-3.292l-.002.004a.016.016 0 0 1 .002-.004zm-.12.069H7.93h.003zm3.22.813c.193.165.404.409.404.766 0 .357-.211.601-.404.766-.181.154-.436.313-.715.487l-.03.019-1.113.696-.031.02c-.312.194-.592.369-.827.472-.246.107-.585.2-.922.012-.337-.186-.438-.522-.477-.788C7 11.43 7 11.1 7 10.732V9.304v-.036c0-.368 0-.698.038-.952.039-.266.14-.602.477-.789.337-.186.676-.094.922.013.235.103.515.278.827.473l.031.02 1.113.695.03.019c.279.174.534.333.715.487z"/></g><defs><clipPath id="clip0_877_11006"><path fill="#fff" d="M0 0H18V18H0z"/></clipPath></defs></svg>