<svg width="18" height="18" fill="none" xmlns="http://www.w3.org/2000/svg"><path fill-rule="evenodd" clip-rule="evenodd" d="M2.5 11.3a.5.5 0 0 1 .5.5v1.7c0 .486.001.8.032 1.03.03.218.076.286.114.324.039.038.106.085.323.114.232.03.545.032 1.031.032h9c.486 0 .8-.001 1.03-.032.218-.03.286-.076.324-.114.038-.038.085-.106.114-.323.03-.232.032-.546.032-1.031v-1.7a.5.5 0 1 1 1 0v1.733c0 .443 0 .825-.041 1.13-.044.329-.143.643-.398.898s-.57.354-.897.398c-.306.041-.688.041-1.131.041H4.467c-.443 0-.825 0-1.13-.041-.329-.044-.643-.143-.898-.398-.254-.255-.354-.57-.398-.897C2 14.358 2 13.976 2 13.533V11.8a.5.5 0 0 1 .5-.5z" fill="#fff"/><path fill-rule="evenodd" clip-rule="evenodd" d="M9 2a.5.5 0 0 1 .5.5v8.04l3.136-3.333a.5.5 0 0 1 .728.686l-4 4.25a.5.5 0 0 1-.728 0l-4-4.25a.5.5 0 1 1 .728-.686L8.5 10.54V2.5A.5.5 0 0 1 9 2z" fill="#fff"/></svg>