<svg width="18" height="18" fill="none" xmlns="http://www.w3.org/2000/svg"><path fill-rule="evenodd" clip-rule="evenodd" d="M5.315 7.528c-.062-.022-.135-.028-.517-.028H4.5c-.486 0-.8.001-1.03.032-.218.03-.285.076-.324.114-.038.038-.085.106-.114.323C3.002 8.201 3 8.514 3 9c0 .486.001.8.032 1.03.03.218.076.286.114.324.039.038.106.085.323.114.232.03.545.032 1.031.032h.298c.382 0 .455-.007.517-.028.062-.022.123-.062.42-.3.463-.37.767-.615.962-.823.185-.198.202-.291.202-.349h1c0 .423-.208.75-.473 1.033-.25.266-.611.555-1.037.896l-.029.023-.046.037c-.225.18-.425.341-.668.426-.244.086-.5.085-.789.085h-.389c-.444 0-.826 0-1.132-.041-.328-.044-.642-.143-.897-.398-.254-.255-.354-.57-.398-.897C2 9.858 2 9.476 2 9.033V9v-.033c0-.443 0-.825.041-1.13.044-.329.144-.643.398-.898.255-.255.57-.354.897-.398.306-.041.688-.041 1.131-.041H4.858c.288 0 .544 0 .788.085.243.085.443.245.668.426l.046.037.03.023c.425.34.786.63 1.036.896.265.283.473.61.473 1.033h-1c0-.058-.017-.15-.202-.349-.195-.208-.499-.452-.962-.822-.297-.239-.358-.28-.42-.3zm2.213 5.157c-.022.062-.028.135-.028.517v.298c0 .486.001.8.032 1.03.03.218.076.286.114.324.038.038.106.085.323.114.232.03.545.032 1.031.032.486 0 .8-.001 1.03-.032.218-.03.286-.076.324-.114.038-.038.085-.106.114-.323.03-.232.032-.546.032-1.031v-.298c0-.382-.007-.455-.028-.517-.022-.062-.062-.123-.3-.42-.37-.463-.615-.767-.823-.962-.198-.185-.291-.202-.349-.202-.058 0-.15.017-.349.202-.208.195-.452.499-.822.961-.239.298-.28.36-.3.421zm-.943-.33c.085-.244.245-.444.426-.67l.037-.045.023-.03c.34-.425.63-.786.896-1.036.283-.265.61-.473 1.033-.473.423 0 .75.208 1.033.473.266.25.555.611.896 1.037l.023.029.037.046c.18.225.341.425.426.668.086.244.085.5.085.789v.389c0 .444 0 .826-.041 1.132-.044.328-.143.642-.398.897s-.57.354-.897.398C9.858 16 9.476 16 9.033 16h-.066c-.443 0-.825 0-1.13-.041-.329-.044-.643-.143-.898-.398s-.354-.57-.398-.897c-.041-.306-.041-.688-.041-1.131V13.202v-.06c0-.288 0-.544.085-.788zm3.887-7.04c.021-.062.028-.135.028-.517V4.5c0-.486-.001-.8-.032-1.03-.03-.218-.076-.285-.114-.324-.038-.038-.106-.085-.323-.114C9.799 3.002 9.486 3 9 3c-.486 0-.8.001-1.03.032-.217.03-.285.076-.324.114-.038.039-.085.106-.114.323-.03.232-.032.545-.032 1.031v.298c0 .382.007.455.028.517.022.062.062.123.3.42.37.463.615.767.823.962.198.185.291.202.349.202v1c-.423 0-.75-.208-1.033-.473-.266-.25-.555-.611-.896-1.037l-.023-.029-.037-.046c-.18-.225-.341-.425-.426-.668-.086-.244-.085-.5-.085-.789v-.389c0-.444 0-.826.041-1.132.044-.328.144-.642.398-.897.255-.254.57-.354.897-.398C8.142 2 8.524 2 8.967 2h.066c.443 0 .825 0 1.13.041.329.044.643.144.898.398.255.255.354.57.398.897.041.306.041.688.041 1.131V4.858c0 .288 0 .544-.085.788-.085.243-.245.443-.426.668l-.037.046-.023.03c-.34.425-.63.786-.896 1.036-.283.265-.61.473-1.033.473v-1c.058 0 .15-.017.349-.202.208-.195.452-.499.822-.962.239-.297.28-.358.3-.42zm2.697 5.167c.05.014.11.018.412.018.445 0 .733 0 .946-.027.202-.025.268-.066.303-.098a.502.502 0 0 0 .045-.045c.032-.035.073-.101.098-.303.026-.213.027-.5.027-.946V8.92c0-.445 0-.733-.027-.946-.025-.202-.066-.268-.098-.303a.501.501 0 0 0-.045-.045c-.035-.032-.101-.073-.303-.098-.213-.026-.5-.027-.946-.027-.303 0-.361.004-.412.018a.549.549 0 0 0-.023.007c-.05.016-.1.046-.355.216-.584.389-.975.65-1.226.877-.245.22-.262.325-.262.382 0 .057.017.161.262.382.252.227.642.488 1.226.877.254.17.306.2.355.216a.494.494 0 0 0 .023.007zm.365 1.018c-.23 0-.433 0-.632-.054a1.411 1.411 0 0 1-.068-.021c-.195-.064-.366-.178-.559-.307l-.04-.026-.032-.023c-.542-.36-.995-.663-1.307-.944-.326-.293-.593-.647-.593-1.125s.267-.832.593-1.125c.312-.281.765-.583 1.307-.944l.033-.022c.013-.01.026-.018.04-.027.192-.129.363-.243.558-.307a1.56 1.56 0 0 1 .068-.02c.199-.055.402-.055.632-.055h.077c.406 0 .757 0 1.04.035.3.037.593.121.84.34.048.041.093.086.135.134.218.247.302.54.339.84.035.283.035.634.035 1.04v.222c0 .407 0 .757-.035 1.04-.037.3-.121.593-.339.84a1.507 1.507 0 0 1-.135.135c-.247.218-.54.302-.84.34-.283.034-.633.034-1.04.034h-.077z" fill="#fff"/></svg>