<svg width="18" height="18" fill="none" xmlns="http://www.w3.org/2000/svg"><circle cx="9" cy="9" r="6.5" stroke="#fff"/><path d="M8.013 13.484l.256.117c.338.155.552.472.552.818 0 .505.628 1.081 1.179 1.081 1.487 0 1.514-.4 2.217-.841.182-.114.36-.237.512-.388L14 13c.4-.4-.817-.584-1.476-.625-.637 0-1.28-.413-1.28-1.11v-.37c0-.816-.724-1.479-1.616-1.479H7.205c-.446 0-.808-.33-.808-.74 0-.408.362-.739.808-.739h.6c.561 0 1.016-.416 1.016-.93v-.12c0-.574.615-.98 1.211-.799.596.182 1.212-.224 1.212-.8v-.225c0-.405-.524-1.536-.996-1.93-.145-.121-.334-.176-.502-.26l-.492-.246a1.297 1.297 0 0 0-.536-.154c-.818-.025-2.205.3-2.897.617-.105.047-.2.113-.29.184L4.136 4.392c-.09.072-.189.132-.279.204-.612.488-.69 1.663-.69 2.404 0 .6.261 1.176.725 1.6l2.856 2.616c.293.268.458.633.458 1.013v.059c0 .506.313.97.808 1.196z" fill="#fff"/></svg>