<svg width="18" height="18" fill="none" xmlns="http://www.w3.org/2000/svg"><path fill-rule="evenodd" clip-rule="evenodd" d="M4.467 4H13.533c.443 0 .825 0 1.13.041.329.044.643.144.898.398.255.255.354.57.398.897.041.306.041.688.041 1.131v5.566c0 .443 0 .825-.041 1.13-.044.329-.143.643-.398.898s-.57.354-.897.398c-.306.041-.688.041-1.131.041H4.467c-.443 0-.825 0-1.13-.041-.329-.044-.643-.143-.898-.398-.254-.255-.354-.57-.398-.897C2 12.858 2 12.476 2 12.033V6.5v-.033c0-.443 0-.825.041-1.13.044-.329.144-.643.398-.898.255-.254.57-.354.897-.398C3.642 4 4.024 4 4.467 4zM3.47 5.032c-.217.03-.284.076-.323.114-.038.039-.085.106-.114.323C3.002 5.701 3 6.014 3 6.5V12c0 .486.001.8.032 1.03.03.218.076.286.114.324.039.038.106.085.323.114.232.03.545.032 1.031.032h9c.486 0 .8-.001 1.03-.032.218-.03.286-.076.324-.114.038-.038.085-.106.114-.323.03-.232.032-.546.032-1.031V6.5c0-.486-.001-.8-.032-1.03-.03-.218-.076-.285-.114-.324-.038-.038-.106-.085-.323-.114C14.299 5.002 13.985 5 13.5 5h-9c-.486 0-.8.001-1.03.032z" fill="#fff"/><path fill-rule="evenodd" clip-rule="evenodd" d="M3.1 5.2l.6-.8 3.2 2.4c.587.44.994.744 1.335.943.33.192.552.257.765.257.213 0 .435-.065.765-.257.341-.199.748-.503 1.335-.943l3.2-2.4.6.8-3.224 2.418c-.557.418-1.01.758-1.408.989C9.854 8.848 9.454 9 9 9c-.454 0-.854-.152-1.268-.393-.398-.231-.85-.571-1.408-.989L3.1 5.2z" fill="#fff"/></svg>