<svg width="18" height="18" fill="none" xmlns="http://www.w3.org/2000/svg"><path d="M2.5 5.5c0-.943 0-1.414.293-1.707C3.086 3.5 3.557 3.5 4.5 3.5h9c.943 0 1.414 0 1.707.293.293.293.293.764.293 1.707V10c0 .943 0 1.414-.293 1.707-.293.293-.764.293-1.707.293h-9c-.943 0-1.414 0-1.707-.293C2.5 11.414 2.5 10.943 2.5 10V5.5zm2 6.5h9c.517.861.775 1.292.723 1.646a1 1 0 0 1-.355.627c-.277.227-.779.227-1.784.227H5.916c-1.004 0-1.506 0-1.783-.227a1 1 0 0 1-.355-.627c-.052-.354.206-.785.723-1.646z" stroke="#fff"/></svg>