<svg width="18" height="18" fill="none" xmlns="http://www.w3.org/2000/svg"><path fill-rule="evenodd" clip-rule="evenodd" d="M4.467 3H13.533c.443 0 .825 0 1.13.041.329.044.643.144.898.398.255.255.354.57.398.897.041.306.041.688.041 1.131v4.566c0 .443 0 .825-.041 1.13-.044.329-.143.643-.398.898s-.57.354-.897.398c-.306.041-.688.041-1.131.041H4.467c-.443 0-.825 0-1.13-.041-.329-.044-.643-.143-.898-.398-.254-.255-.354-.57-.398-.897C2 10.858 2 10.476 2 10.033V5.5v-.033c0-.443 0-.825.041-1.13.044-.329.144-.643.398-.898.255-.254.57-.354.897-.398C3.642 3 4.024 3 4.467 3zM3.47 4.032c-.217.03-.284.076-.323.114-.038.039-.085.106-.114.323C3.002 4.701 3 5.014 3 5.5V10c0 .486.001.8.032 1.03.03.218.076.286.114.324.039.038.106.085.323.114.232.03.545.032 1.031.032h9c.486 0 .8-.001 1.03-.032.218-.03.286-.076.324-.114.038-.038.085-.106.114-.323.03-.232.032-.546.032-1.031V5.5c0-.486-.001-.8-.032-1.03-.03-.218-.076-.285-.114-.324-.038-.038-.106-.085-.323-.114C14.299 4.002 13.985 4 13.5 4h-9c-.486 0-.8.001-1.03.032z" fill="#fff"/><path fill-rule="evenodd" clip-rule="evenodd" d="M4.783 12.5a9.35 9.35 0 0 0-.406.727c-.11.234-.11.319-.105.346a.5.5 0 0 0 .177.314c.021.017.093.061.351.087.255.025.602.026 1.115.026h6.17c.513 0 .86 0 1.115-.026.258-.026.33-.07.35-.087a.5.5 0 0 0 .178-.314c.005-.027.006-.112-.105-.346a9.328 9.328 0 0 0-.406-.727H4.783zM13.5 12v-.5h-9v.5l-.429-.257-.013.023c-.247.41-.452.752-.585 1.034-.135.284-.239.592-.19.919a1.5 1.5 0 0 0 .532.94c.255.21.573.28.886.31.31.031.708.031 1.188.031h6.222c.48 0 .877 0 1.188-.03.313-.032.63-.1.886-.31a1.5 1.5 0 0 0 .533-.941c.048-.327-.056-.635-.191-.92-.133-.281-.338-.622-.584-1.033l-.014-.023L13.5 12z" fill="#fff"/></svg>