<svg width="18" height="18" fill="none" xmlns="http://www.w3.org/2000/svg"><path fill-rule="evenodd" clip-rule="evenodd" d="M11.005 5.654a.5.5 0 0 1 .707-.015l1.649 1.578c.333.32.62.594.819.844.212.267.374.567.374.939s-.162.672-.374.94c-.199.25-.486.523-.82.843l-1.648 1.578a.5.5 0 0 1-.692-.722l1.625-1.555c.365-.35.6-.577.752-.767.142-.179.157-.262.157-.317 0-.055-.015-.138-.157-.317-.151-.19-.387-.417-.752-.767L11.02 6.361a.5.5 0 0 1-.015-.707zm-4.01 0a.5.5 0 0 1-.015.707L5.355 7.916c-.365.35-.6.577-.752.767-.142.179-.157.262-.157.317 0 .055.015.138.157.317.151.19.387.417.752.767l1.625 1.555a.5.5 0 0 1-.692.722l-1.625-1.555-.024-.023c-.333-.32-.62-.594-.819-.844-.212-.267-.374-.567-.374-.939s.162-.672.374-.94c.199-.25.486-.523.82-.843l.023-.023L6.288 5.64a.5.5 0 0 1 .707.015z" fill="#fff"/></svg>