<svg width="18" height="18" fill="none" xmlns="http://www.w3.org/2000/svg"><g clip-path="url(#clip0_877_11080)"><g clip-path="url(#clip1_877_11080)"><path fill-rule="evenodd" clip-rule="evenodd" d="M12.346 11.005a.5.5 0 0 1 .015.707l-1.578 1.649c-.32.333-.594.62-.844.819-.267.212-.567.374-.939.374s-.672-.162-.94-.374c-.25-.2-.523-.486-.843-.82L5.64 11.713a.5.5 0 1 1 .722-.692l1.555 1.625c.35.365.577.6.767.752.179.142.262.157.317.157.055 0 .138-.015.317-.158.19-.15.417-.386.767-.751l1.555-1.625a.5.5 0 0 1 .707-.015zm0-4.01a.5.5 0 0 1-.707-.015l-1.555-1.625c-.35-.365-.577-.6-.767-.752-.179-.142-.262-.157-.317-.157-.055 0-.138.015-.317.157-.19.151-.417.387-.767.752L6.361 6.98a.5.5 0 0 1-.722-.692l1.555-1.625.023-.024c.32-.334.594-.62.844-.819.267-.212.567-.374.939-.374s.672.162.94.374c.249.199.523.485.843.819l.023.024 1.555 1.625a.5.5 0 0 1-.015.707z" fill="#fff"/></g></g><defs><clipPath id="clip0_877_11080"><path fill="#fff" d="M0 0H18V18H0z"/></clipPath><clipPath id="clip1_877_11080"><path fill="#fff" transform="rotate(90 9 9)" d="M0 0H18V18H0z"/></clipPath></defs></svg>