<svg width="18" height="18" fill="none" xmlns="http://www.w3.org/2000/svg"><path fill-rule="evenodd" clip-rule="evenodd" d="M3.012 7.776C2.652 8.292 2.5 8.718 2.5 9c0 .282.152.708.512 1.224.35.503.86 1.04 1.485 1.531 1.256.99 2.9 1.745 4.503 1.745 1.603 0 3.247-.756 4.503-1.745.624-.492 1.135-1.028 1.485-1.53.36-.517.512-.943.512-1.225 0-.282-.152-.708-.512-1.224-.35-.503-.86-1.04-1.485-1.531C12.247 5.255 10.603 4.5 9 4.5c-1.603 0-3.247.756-4.503 1.745-.624.492-1.135 1.028-1.485 1.53zm.866-2.316C5.248 4.38 7.103 3.5 9 3.5c1.897 0 3.753.88 5.122 1.96.688.542 1.271 1.148 1.687 1.744.406.583.691 1.214.691 1.796 0 .582-.285 1.213-.691 1.796-.416.596-.999 1.202-1.687 1.745C12.752 13.618 10.897 14.5 9 14.5c-1.897 0-3.753-.88-5.122-1.96-.688-.542-1.271-1.148-1.687-1.744C1.785 10.213 1.5 9.582 1.5 9c0-.582.285-1.213.691-1.796.416-.596.999-1.202 1.687-1.744z" fill="#fff"/><path fill-rule="evenodd" clip-rule="evenodd" d="M9 7.5a1.5 1.5 0 1 0 0 3 1.5 1.5 0 0 0 0-3zM6.5 9a2.5 2.5 0 1 1 5 0 2.5 2.5 0 0 1-5 0z" fill="#fff"/></svg>