<svg width="18" height="18" fill="none" xmlns="http://www.w3.org/2000/svg"><path fill-rule="evenodd" clip-rule="evenodd" d="M12.849 3.03c-.203-.029-.505-.03-.984-.03H7c-.486 0-.8.001-1.03.032-.218.03-.285.076-.324.114-.038.039-.085.106-.114.323-.03.232-.032.545-.032 1.031V8h6.365c.479 0 .78-.001.984-.03l.013-.003-.007-.011c-.107-.175-.3-.408-.606-.776l-.6-.72-.015-.018a4.333 4.333 0 0 1-.308-.398.99.99 0 0 1-.175-.544c0-.223.083-.4.175-.544.08-.125.194-.26.308-.398l.015-.018.6-.72c.307-.368.499-.6.606-.776l.007-.011-.013-.002zM5.5 9v6.5a.5.5 0 0 1-1 0v-11-.033c0-.443 0-.825.041-1.13.044-.329.144-.643.398-.898.255-.254.57-.354.897-.398C6.142 2 6.524 2 6.967 2h4.936c.43 0 .806 0 1.09.041.284.041.664.149.845.535.18.386.02.747-.13.991-.15.245-.392.534-.666.864l-.624.749a3.858 3.858 0 0 0-.253.32l.002.003c.043.067.115.154.25.317l.625.75c.274.329.516.618.666.863.15.244.31.605.13.991s-.561.494-.845.535c-.284.041-.66.041-1.09.041H5.5z" fill="#fff"/></svg>