<svg width="18" height="18" fill="none" xmlns="http://www.w3.org/2000/svg"><path fill-rule="evenodd" clip-rule="evenodd" d="M7.74 2.113a.5.5 0 0 1 .414-.103c.5.1 1.51.405 2.207 1.334.632.842.938 2.097.533 3.93.143-.194.294-.387.449-.572a6.34 6.34 0 0 1 .923-.916c.325-.255.695-.466 1.096-.546.344-.068.651-.105.897-.068.129.02.283.066.416.176.145.12.22.277.246.432.042.257-.05.521-.117.693-.053.136-.124.297-.197.46l-.09.2c-.417.957-.873 2.246-.075 3.748.592 1.117.433 2.26.01 3.159-.414.882-1.112 1.599-1.728 1.907a.5.5 0 1 1-.448-.894c.384-.192.936-.725 1.271-1.439.328-.697.418-1.497.011-2.264-1.024-1.931-.4-3.604.044-4.617l.104-.237c.055-.123.102-.228.141-.324a4.26 4.26 0 0 0-.29.05c-.191.037-.418.15-.676.352-.255.199-.515.465-.773.771-.516.615-.983 1.347-1.341 1.923l-.095.153c-.136.22-.258.415-.353.554a1.76 1.76 0 0 1-.191.245h-.001a.608.608 0 0 1-.245.154.521.521 0 0 1-.624-.268c-.062-.127-.059-.252-.058-.289a1.3 1.3 0 0 1 .018-.172c.018-.109.05-.247.092-.412.085-.332.226-.82.429-1.493.62-2.057.286-3.178-.178-3.795a2.438 2.438 0 0 0-.98-.759c.011.16.025.307.04.443l.016.145c.027.25.054.496.054.734 0 .631-.188 1.184-.76 2.04-.437.654-.456 1.51-.39 2.27.015.165.032.32.049.465l.006.05c.017.153.034.308.04.438.002.065.002.138-.005.21a.737.737 0 0 1-.085.282.568.568 0 0 1-.412.29.64.64 0 0 1-.381-.067c-.331-.165-.73-.478-1.104-.793a43.412 43.412 0 0 1-.722-.629L4.512 8.7a22.586 22.586 0 0 0-.055-.047c.064.265.121.556.152.865.073.74.003 1.61-.41 2.665-.235.6-.057 1.162.313 1.695.29.42.646.752.939 1.024.093.088.18.169.256.245a.5.5 0 0 1-.705.708 7.957 7.957 0 0 0-.183-.172c-.292-.272-.768-.715-1.129-1.235-.465-.672-.828-1.592-.422-2.629.354-.906.404-1.616.345-2.203-.044-.448-.146-.814-.25-1.186-.04-.138-.078-.278-.115-.423a1.11 1.11 0 0 1-.038-.32.617.617 0 0 1 .212-.449.602.602 0 0 1 .49-.127c.11.018.208.06.28.097.27.139.632.44.975.737l.439.385c.229.203.459.406.688.6.096.08.188.156.275.226l-.024-.251c-.069-.788-.088-1.952.555-2.913.51-.76.591-1.12.591-1.483 0-.178-.02-.36-.047-.61l-.017-.163c-.035-.327-.07-.724-.07-1.235a.5.5 0 0 1 .182-.387zM6.635 9.876a.03.03 0 0 1 0-.001zm7.48-3.714h-.002z" fill="#fff"/></svg>