<svg width="18" height="18" fill="none" xmlns="http://www.w3.org/2000/svg"><path fill-rule="evenodd" clip-rule="evenodd" d="M16.5 13a.5.5 0 0 1-.5.5h-4a.5.5 0 0 1 0-1h4a.5.5 0 0 1 .5.5z" fill="#fff"/><path fill-rule="evenodd" clip-rule="evenodd" d="M4.467 2H7.95c.245 0 .461 0 .643.017.198.018.39.06.58.16.19.102.33.24.455.394.115.142.235.322.37.525L11.268 5h2.265c.443 0 .825 0 1.13.041.329.044.643.144.898.398.255.255.354.57.398.897.041.306.041.688.041 1.131V8.5a.5.5 0 0 1-1 0v-1c0-.486-.001-.8-.032-1.03-.03-.218-.076-.285-.114-.324-.038-.038-.106-.085-.323-.114C14.299 6.002 13.985 6 13.5 6H3v7.5c0 .486.001.8.032 1.03.03.218.076.286.114.324.039.038.106.085.323.114.232.03.545.032 1.031.032H9a.5.5 0 0 1 0 1H4.467c-.443 0-.825 0-1.13-.041-.329-.044-.643-.143-.898-.398-.254-.255-.354-.57-.398-.897C2 14.358 2 13.976 2 13.533V4.5v-.033c0-.443 0-.825.041-1.13.044-.329.144-.643.398-.898.255-.254.57-.354.897-.398C3.642 2 4.024 2 4.467 2zM3 5h7.066l-.888-1.332A6.876 6.876 0 0 0 8.85 3.2a.506.506 0 0 0-.15-.14.506.506 0 0 0-.2-.047C8.37 3 8.2 3 7.93 3H4.5c-.486 0-.8.001-1.03.032-.218.03-.285.076-.324.114-.038.039-.085.106-.114.323C3.002 3.701 3 4.014 3 4.5V5z" fill="#fff"/></svg>