<svg width="18" height="18" fill="none" xmlns="http://www.w3.org/2000/svg"><g clip-path="url(#clip0_877_10984)"><path fill-rule="evenodd" clip-rule="evenodd" d="M7 15.5a.5.5 0 0 1-.5.5h-4a.5.5 0 0 1-.5-.5v-4a.5.5 0 0 1 1 0v2.793l3.646-3.646a.5.5 0 1 1 .708.707L3.707 15H6.5a.5.5 0 0 1 .5.5zM15.5 7a.5.5 0 0 1-.5-.5V3.707l-3.646 3.647a.5.5 0 0 1-.708-.708L14.293 3H11.5a.5.5 0 0 1 0-1h4a.5.5 0 0 1 .5.5v4a.5.5 0 0 1-.5.5z" fill="#fff"/></g><defs><clipPath id="clip0_877_10984"><path fill="#fff" d="M0 0H18V18H0z"/></clipPath></defs></svg>