<svg width="18" height="18" fill="none" xmlns="http://www.w3.org/2000/svg"><g clip-path="url(#clip0_877_10995)"><path fill-rule="evenodd" clip-rule="evenodd" d="M4.467 2h1.908a.5.5 0 0 1 0 1H4.5c-.486 0-.8.001-1.03.032-.218.03-.285.076-.324.114-.038.039-.085.106-.114.323C3.002 3.701 3 4.014 3 4.5v1.875a.5.5 0 0 1-1 0V4.5v-.033c0-.443 0-.825.041-1.13.044-.329.144-.643.398-.898.255-.254.57-.354.897-.398C3.642 2 4.024 2 4.467 2zm10.064 1.032C14.299 3.002 13.985 3 13.5 3h-1.875a.5.5 0 0 1 0-1h1.908c.443 0 .825 0 1.13.041.329.044.643.144.898.398.255.255.354.57.398.897.041.306.041.688.041 1.131v1.908a.5.5 0 0 1-1 0V4.5c0-.486-.001-.8-.032-1.03-.03-.218-.076-.285-.114-.324-.038-.038-.106-.085-.323-.114zM2.5 11.125a.5.5 0 0 1 .5.5V13.5c0 .486.001.8.032 1.03.03.218.076.286.114.324.039.038.106.085.323.114.232.03.545.032 1.031.032h1.875a.5.5 0 0 1 0 1H4.467c-.443 0-.825 0-1.13-.041-.329-.044-.643-.143-.898-.398-.254-.255-.354-.57-.398-.897C2 14.358 2 13.976 2 13.533v-1.908a.5.5 0 0 1 .5-.5zm13 0a.5.5 0 0 1 .5.5v1.908c0 .443 0 .825-.041 1.13-.044.329-.143.643-.398.898s-.57.354-.897.398c-.306.041-.688.041-1.131.041h-1.908a.5.5 0 0 1 0-1H13.5c.486 0 .8-.001 1.03-.032.218-.03.286-.076.324-.114.038-.038.085-.106.114-.323.03-.232.032-.546.032-1.031v-1.875a.5.5 0 0 1 .5-.5z" fill="#fff"/></g><defs><clipPath id="clip0_877_10995"><path fill="#fff" d="M0 0H18V18H0z"/></clipPath></defs></svg>