<svg width="18" height="18" fill="none" xmlns="http://www.w3.org/2000/svg"><g clip-path="url(#clip0_821_19419)"><path d="M2.5 11.625V13.5c0 .943 0 1.414.293 1.707.293.293.764.293 1.707.293h1.875M2.5 6.375V4.5c0-.943 0-1.414.293-1.707C3.086 2.5 3.557 2.5 4.5 2.5h1.875M15.5 6.375V4.5c0-.943 0-1.414-.293-1.707-.293-.293-.764-.293-1.707-.293h-1.875m3.875 9.125V13.5c0 .943 0 1.414-.293 1.707-.293.293-.764.293-1.707.293h-1.875" stroke="#fff" stroke-linecap="round" stroke-linejoin="round"/></g><defs><clipPath id="clip0_821_19419"><path fill="#fff" d="M0 0H18V18H0z"/></clipPath></defs></svg>