<svg width="18" height="18" fill="none" xmlns="http://www.w3.org/2000/svg"><path fill-rule="evenodd" clip-rule="evenodd" d="M7.5 3a4 4 0 1 0 0 8 4 4 0 0 0 0-8zm-5 4a5 5 0 1 1 10 0 5 5 0 0 1-10 0z" fill="#fff"/><path fill-rule="evenodd" clip-rule="evenodd" d="M7.432 6.395C6.442 5.209 5.176 4.5 4 4.5v-1c1.567 0 3.089.924 4.2 2.254.192.23.375.476.544.733.775-.747 1.309-1.637 1.463-2.529l.985.17c-.21 1.221-.947 2.356-1.937 3.25.512 1.037.82 2.21.82 3.415h-1a6.72 6.72 0 0 0-.626-2.78 7.976 7.976 0 0 1-.233.154c-1.5.955-3.386 1.454-5.12 1.02l.242-.97c1.4.35 3.006-.043 4.34-.893a7.03 7.03 0 0 0 .29-.196 7.093 7.093 0 0 0-.536-.733z" fill="#fff"/><path fill-rule="evenodd" clip-rule="evenodd" d="M12.146 2.146a.5.5 0 0 1 .708 0c1.085 1.086 1.791 2.569 1.791 4.281a7.466 7.466 0 0 1-7.465 7.466c-1.626 0-3.397-.403-4.534-1.54a.5.5 0 0 1 .708-.707c.863.864 2.315 1.247 3.826 1.247a6.466 6.466 0 0 0 6.465-6.466c0-1.424-.584-2.659-1.499-3.573a.5.5 0 0 1 0-.708z" fill="#fff"/><path fill-rule="evenodd" clip-rule="evenodd" d="M9.966 12.5a.5.5 0 0 1 .5.5v2H12a.5.5 0 0 1 0 1H7.5a.5.5 0 0 1 0-1h1.966v-2a.5.5 0 0 1 .5-.5z" fill="#fff"/></svg>