<svg fill="none" height="18" width="18" xmlns="http://www.w3.org/2000/svg"><g fill="#fff"><path d="m15.86 8.847a.513.513 0 0 0 -.02-.714.487.487 0 0 0 -.7.02zm-4.674 3.586a.514.514 0 0 0 .02.714.487.487 0 0 0 .699-.02zm.719.694 3.955-4.28-.72-.694-3.954 4.28z"/><path d="m10.364 14.523c0 .468-.86.749-2.292.562-.314-.041.497-.187.573-.562.076-.374.241-.561.716-.561s1.003.251 1.003.561z" stroke="#fff"/><path d="m6.5 13.5a.5.5 0 0 0 0-1zm6.5-6a.5.5 0 1 0 1 0zm-10.207 5.207-.354.354zm10.414-9.414.354-.354zm-8.707.207h7v-1h-7zm-1.5 7.5v-6h-1v6zm3.5 1.5h-2v1h2zm6.5-7.5v2.5h1v-2.5zm-11 6c0 .457-.001.85.041 1.164.044.328.144.642.398.897l.707-.707c-.038-.038-.085-.106-.114-.323-.03-.232-.032-.546-.032-1.031zm2.5 1.5c-.486 0-.8-.001-1.03-.032-.218-.03-.285-.076-.324-.114l-.707.707c.255.255.57.354.897.398.313.042.707.041 1.164.041zm7-9c.486 0 .8.001 1.03.032.218.03.286.076.324.114l.707-.707c-.255-.254-.57-.354-.897-.398-.314-.041-.707-.041-1.164-.041zm2.5 1.5c0-.457.001-.85-.041-1.164-.044-.328-.143-.642-.398-.897l-.707.707c.038.039.085.106.114.323.03.232.032.545.032 1.031zm-9.5-2.5c-.457 0-.85-.001-1.164.041-.328.044-.642.144-.897.398l.707.707c.039-.038.106-.085.323-.114.232-.03.545-.032 1.031-.032zm-1.5 2.5c0-.486.001-.8.032-1.03.03-.218.076-.285.114-.324l-.706-.706c-.254.255-.354.57-.398.897-.042.313-.042.706-.042 1.163z"/><path d="m8.142 10.833c.19.2.51.214.718.03a.482.482 0 0 0 .03-.696zm-5.485-2.696-.374.332.685.726.375-.332zm3.686.064-.375.332zm-1.39-1.044.022-.492zm1.015 1.376 2.174 2.3.749-.666-2.174-2.299zm-2.625.33.474-.421-.686-.726-.474.421zm3.374-.995c-.314-.332-.583-.618-.83-.817-.257-.208-.547-.37-.912-.386l-.044.984c.054.002.136.02.307.158.181.147.397.374.73.726zm-2.9.574c.364-.323.6-.53.794-.662.182-.122.265-.134.32-.131l.044-.984c-.365-.015-.669.122-.944.307-.264.178-.557.44-.9.744z"/></g><path d="m13.5 7-.527-.527c-.692-.692-1.038-1.038-1.47-1.036-.434.002-.776.352-1.46 1.05l-2.708 2.763" stroke="#fff" stroke-linecap="round" stroke-linejoin="round"/></svg>