<svg width="18" height="18" fill="none" xmlns="http://www.w3.org/2000/svg"><path fill-rule="evenodd" clip-rule="evenodd" d="M2.5 2a.5.5 0 0 1 .5.5v11c0 .486.001.8.032 1.03.03.218.076.286.114.324.039.038.106.085.323.114.232.03.545.032 1.031.032h11a.5.5 0 0 1 0 1H4.467c-.443 0-.825 0-1.13-.041-.329-.044-.643-.143-.898-.398-.254-.255-.354-.57-.398-.897C2 14.358 2 13.976 2 13.533V2.5a.5.5 0 0 1 .5-.5zm12.605.511a.5.5 0 0 1 .384.594l-.977 4.56c-.105.49-.196.912-.306 1.214-.104.286-.303.687-.765.763-.463.077-.78-.237-.972-.475-.202-.25-.423-.619-.682-1.05l-.449-.748c-.277-.463-.458-.761-.606-.945l-.012-.014-.007.017c-.086.22-.167.56-.29 1.085l-.896 3.804c-.109.466-.203.867-.316 1.156-.109.279-.311.658-.76.732-.449.074-.762-.22-.955-.449-.2-.237-.418-.587-.671-.992l-.124-.198c-.252-.404-.413-.658-.545-.813a3.855 3.855 0 0 0-.008-.01l-.006.011c-.092.183-.188.467-.34.92l-.328.985a.5.5 0 1 1-.948-.316l.34-1.022c.135-.405.254-.76.382-1.016.129-.256.35-.582.772-.632.422-.05.714.215.9.433.184.218.383.536.609.898l.123.197c.28.448.461.735.61.912l.01.013a1.26 1.26 0 0 0 .007-.016c.084-.215.163-.546.284-1.06l.895-3.804c.112-.477.209-.886.323-1.18.11-.282.314-.669.77-.74.455-.071.768.236.958.47.198.245.415.606.667 1.026l.449.748c.284.474.47.781.622.97l.013.016a5.31 5.31 0 0 1 .007-.019c.083-.228.16-.58.275-1.12l.97-4.52a.5.5 0 0 1 .593-.385z" fill="#fff"/></svg>