<svg width="18" height="18" fill="none" xmlns="http://www.w3.org/2000/svg"><path d="M15.86 8.847a.513.513 0 0 0-.02-.714.487.487 0 0 0-.7.02l.72.694zm-4.674 3.586a.514.514 0 0 0 .02.714.487.487 0 0 0 .699-.02l-.719-.694zm.719.694l3.955-4.28-.72-.694-3.954 4.28.719.694z" fill="#fff"/><path d="M10.364 14.523c0 .468-.86.749-2.292.562-.314-.041.497-.187.573-.562.076-.374.241-.561.716-.561s1.003.251 1.003.561z" fill="#fff" stroke="#fff"/><path d="M6.5 13.5a.5.5 0 0 0 0-1v1zm6.5-6a.5.5 0 1 0 1 0h-1zM2.793 12.707l-.354.354.354-.354zm10.414-9.414l.354-.354-.354.354zM4.5 3.5h7v-1h-7v1zM3 11V5H2v6h1zm3.5 1.5h-2v1h2v-1zM13 5v2.5h1V5h-1zM2 11c0 .457-.001.85.041 1.164.044.328.144.642.398.897l.707-.707c-.038-.038-.085-.106-.114-.323C3.002 11.799 3 11.485 3 11H2zm2.5 1.5c-.486 0-.8-.001-1.03-.032-.218-.03-.285-.076-.324-.114l-.707.707c.255.255.57.354.897.398.313.042.707.041 1.164.041v-1zm7-9c.486 0 .8.001 1.03.032.218.03.286.076.324.114l.707-.707c-.255-.254-.57-.354-.897-.398C12.35 2.5 11.957 2.5 11.5 2.5v1zM14 5c0-.457.001-.85-.041-1.164-.044-.328-.143-.642-.398-.897l-.707.707c.038.039.085.106.114.323.03.232.032.545.032 1.031h1zM4.5 2.5c-.457 0-.85-.001-1.164.041-.328.044-.642.144-.897.398l.707.707c.039-.038.106-.085.323-.114.232-.03.545-.032 1.031-.032v-1zM3 5c0-.486.001-.8.032-1.03.03-.218.076-.285.114-.324L2.44 2.94c-.254.255-.354.57-.398.897C2 4.15 2 4.543 2 5h1z" fill="#fff"/><path d="M8.142 10.833c.19.2.51.214.718.03a.482.482 0 0 0 .03-.696l-.748.666zM2.657 8.137l-.374.332.685.726.375-.332-.686-.726zm3.686.064l-.375.332.375-.332zm-1.39-1.044l.022-.492-.022.492zm1.015 1.376l2.174 2.3.749-.666-2.174-2.299-.749.665zm-2.625.33l.474-.421-.686-.726-.474.421.686.726zm3.374-.995c-.314-.332-.583-.618-.83-.817-.257-.208-.547-.37-.912-.386l-.044.984c.054.002.136.02.307.158.181.147.397.374.73.726l.749-.665zm-2.9.574c.364-.323.6-.53.794-.662.182-.122.265-.134.32-.131l.044-.984c-.365-.015-.669.122-.944.307-.264.178-.557.44-.9.744l.686.726z" fill="#fff"/><path d="M13.5 7l-.527-.527c-.692-.692-1.038-1.038-1.47-1.036-.434.002-.776.352-1.46 1.05L7.335 9.25" stroke="#fff" stroke-linecap="round" stroke-linejoin="round"/></svg>