<svg width="18" height="18" fill="none" xmlns="http://www.w3.org/2000/svg"><path fill-rule="evenodd" clip-rule="evenodd" d="M2.5 2a.5.5 0 0 1 .5.5v11c0 .486.001.8.032 1.03.03.218.076.286.114.324.039.038.106.085.323.114.232.03.545.032 1.031.032h11a.5.5 0 0 1 0 1H4.467c-.443 0-.825 0-1.13-.041-.329-.044-.643-.143-.898-.398-.254-.255-.354-.57-.398-.897C2 14.358 2 13.976 2 13.533V2.5a.5.5 0 0 1 .5-.5zm2.93.505a.5.5 0 0 1 .565.424l.602 4.212c.085.597.143.992.216 1.251l.007.024.016-.02c.168-.21.374-.551.684-1.068l.304-.507c.252-.42.469-.78.667-1.026.19-.234.503-.541.958-.47.456.071.66.458.77.74.114.294.21.703.323 1.18l.895 3.805c.121.513.2.844.284 1.059l.006.016.012-.013c.148-.177.33-.464.609-.912l.123-.197c.226-.362.425-.68.61-.898.185-.218.477-.483.899-.433.421.05.643.376.772.632.128.255.247.61.382 1.016l.34 1.022a.5.5 0 1 1-.948.316l-.329-.986c-.15-.452-.247-.736-.339-.919a26.565 26.565 0 0 0-.006-.012 2.677 2.677 0 0 1-.008.01c-.132.156-.293.41-.545.814l-.103.165-.02.033c-.254.405-.473.755-.672.992-.193.23-.506.523-.955.45-.449-.075-.651-.454-.76-.733-.113-.289-.207-.69-.316-1.155L9.577 7.51c-.123-.524-.204-.864-.29-1.084a1.568 1.568 0 0 0-.007-.017l-.012.014c-.148.184-.329.482-.606.945l-.304.507c-.285.474-.526.876-.741 1.145-.197.246-.534.592-1.02.494-.484-.098-.66-.547-.746-.85-.094-.333-.16-.796-.239-1.344l-.607-4.25a.5.5 0 0 1 .424-.566z" fill="#fff"/></svg>