<svg width="18" height="18" fill="none" xmlns="http://www.w3.org/2000/svg"><g clip-path="url(#clip0_877_10982)" fill-rule="evenodd" clip-rule="evenodd" fill="#fff"><path d="M4.467 2H13.533c.443 0 .825 0 1.13.041.329.044.643.144.898.398.255.255.354.57.398.897.041.306.041.688.041 1.131v9.066c0 .443 0 .825-.041 1.13-.044.329-.143.643-.398.898s-.57.354-.897.398c-.306.041-.688.041-1.131.041H4.467c-.443 0-.825 0-1.13-.041-.329-.044-.643-.143-.898-.398-.254-.255-.354-.57-.398-.897C2 14.358 2 13.976 2 13.533V4.5v-.033c0-.443 0-.825.041-1.13.044-.329.144-.643.398-.898.255-.254.57-.354.897-.398C3.642 2 4.024 2 4.467 2zM3.47 3.032c-.217.03-.284.076-.323.114-.038.039-.085.106-.114.323C3.002 3.701 3 4.014 3 4.5v9c0 .486.001.8.032 1.03.03.218.076.286.114.324.039.038.106.085.323.114.232.03.545.032 1.031.032h9c.486 0 .8-.001 1.03-.032.218-.03.286-.076.324-.114.038-.038.085-.106.114-.323.03-.232.032-.546.032-1.031v-9c0-.486-.001-.8-.032-1.03-.03-.218-.076-.285-.114-.324-.038-.038-.106-.085-.323-.114C14.299 3.002 13.985 3 13.5 3h-9c-.486 0-.8.001-1.03.032z"/><path d="M6 2.75a.25.25 0 0 1 .25.25v2.75h2.5V3a.25.25 0 0 1 .5 0v2.75h2.5V3a.25.25 0 1 1 .5 0v2.75H15a.25.25 0 1 1 0 .5h-2.75v2.5H15a.25.25 0 1 1 0 .5h-2.75v2.5H15a.25.25 0 1 1 0 .5h-2.75V15a.25.25 0 1 1-.5 0v-2.75h-2.5V15a.25.25 0 1 1-.5 0v-2.75h-2.5V15a.25.25 0 1 1-.5 0v-2.75H3a.25.25 0 1 1 0-.5h2.75v-2.5H3a.25.25 0 0 1 0-.5h2.75v-2.5H3a.25.25 0 0 1 0-.5h2.75V3A.25.25 0 0 1 6 2.75zm.25 3.5v2.5h2.5v-2.5h-2.5zm3 0v2.5h2.5v-2.5h-2.5zm2.5 3h-2.5v2.5h2.5v-2.5zm-3 2.5v-2.5h-2.5v2.5h2.5z"/></g><defs><clipPath id="clip0_877_10982"><path fill="#fff" d="M0 0H18V18H0z"/></clipPath></defs></svg>