<svg width="18" height="18" fill="none" xmlns="http://www.w3.org/2000/svg"><g clip-path="url(#clip0_821_19406)" fill="#fff"><path d="M15.207 15.207l-.353-.354.353.354zm-12.414 0l.353-.354-.353.354zM15.207 2.793l-.353.353.353-.353zM4.5 3h9V2h-9v1zM3 13.5v-9H2v9h1zM13.5 15h-9v1h9v-1zM15 4.5v9h1v-9h-1zM13.5 16c.457 0 .85.001 1.164-.041.328-.044.642-.143.897-.398l-.707-.707c-.038.038-.106.085-.323.114-.232.03-.546.032-1.031.032v1zm1.5-2.5c0 .486-.001.8-.032 1.03-.03.218-.076.286-.114.324l.707.707c.255-.255.354-.57.398-.897C16 14.35 16 13.957 16 13.5h-1zm-13 0c0 .457-.001.85.041 1.164.044.328.144.642.398.897l.707-.707c-.038-.038-.085-.106-.114-.323C3.002 14.299 3 13.985 3 13.5H2zM4.5 15c-.486 0-.8-.001-1.03-.032-.218-.03-.285-.076-.324-.114l-.707.707c.255.255.57.354.897.398C3.65 16 4.043 16 4.5 16v-1zm9-12c.486 0 .8.001 1.03.032.218.03.286.076.324.114l.707-.707c-.255-.254-.57-.354-.897-.398C14.35 2 13.957 2 13.5 2v1zM16 4.5c0-.457.001-.85-.041-1.164-.044-.328-.143-.642-.398-.897l-.707.707c.038.039.085.106.114.323.03.232.032.545.032 1.031h1zM4.5 2c-.457 0-.85-.001-1.164.041-.328.044-.642.144-.897.398l.707.707c.039-.038.106-.085.323-.114C3.701 3.002 4.014 3 4.5 3V2zM3 4.5c0-.486.001-.8.032-1.03.03-.218.076-.285.114-.324L2.44 2.44c-.254.255-.354.57-.398.897C2 3.65 2 4.043 2 4.5h1z"/><path d="M9.25 3a.25.25 0 0 0-.5 0h.5zm-.5 12a.25.25 0 1 0 .5 0h-.5zM6.25 3a.25.25 0 0 0-.5 0h.5zm-.5 12a.25.25 0 1 0 .5 0h-.5zm6.5-12a.25.25 0 1 0-.5 0h.5zm-.5 12a.25.25 0 1 0 .5 0h-.5zM15 9.25a.25.25 0 1 0 0-.5v.5zm-12-.5a.25.25 0 0 0 0 .5v-.5zm12-2.5a.25.25 0 1 0 0-.5v.5zm-12-.5a.25.25 0 0 0 0 .5v-.5zm12 6.5a.25.25 0 1 0 0-.5v.5zm-12-.5a.25.25 0 1 0 0 .5v-.5zM8.75 3v12h.5V3h-.5zm-3 0v12h.5V3h-.5zm6 0v12h.5V3h-.5zM15 8.75H3v.5h12v-.5zm0-3H3v.5h12v-.5zm0 6H3v.5h12v-.5z"/></g><defs><clipPath id="clip0_821_19406"><path fill="#fff" d="M0 0H18V18H0z"/></clipPath></defs></svg>