<svg width="18" height="18" fill="none" xmlns="http://www.w3.org/2000/svg"><path fill-rule="evenodd" clip-rule="evenodd" d="M8.396 2.5a.5.5 0 0 1 .5-.5C12.812 2 16 5.127 16 9s-3.188 7-7.104 7c-3.305 0-6.09-2.226-6.88-5.248a.5.5 0 1 1 .968-.254C3.659 13.084 6.047 15 8.896 15 12.275 15 15 12.306 15 9s-2.725-6-6.104-6a.5.5 0 0 1-.5-.5z" fill="#fff"/><path fill-rule="evenodd" clip-rule="evenodd" d="M8.5 4.938a.5.5 0 0 1 .5-.5 4.562 4.562 0 1 1-4.447 3.536.5.5 0 0 1 .975.224A3.563 3.563 0 1 0 9 5.438a.5.5 0 0 1-.5-.5z" fill="#fff"/><path fill-rule="evenodd" clip-rule="evenodd" d="M8.5 7.375a.5.5 0 0 1 .5-.5A2.125 2.125 0 1 1 6.875 9a.5.5 0 0 1 1 0A1.125 1.125 0 1 0 9 7.875a.5.5 0 0 1-.5-.5z" fill="#fff"/></svg>