<svg width="18" height="18" fill="none" xmlns="http://www.w3.org/2000/svg"><path fill-rule="evenodd" clip-rule="evenodd" d="M2.767 3.748a4.343 4.343 0 0 1 3.08-1.247 4.543 4.543 0 0 1 2.051.626c.416.246.788.556 1.102.918a4.495 4.495 0 0 1 1.102-.918 4.543 4.543 0 0 1 2.08-.627c1.143 0 2.24.448 3.051 1.248.81.8 1.267 1.887 1.267 3.022 0 1.062-.504 2.135-1.183 3.11-.686.985-1.59 1.928-2.48 2.742a31.25 31.25 0 0 1-3.48 2.74l-.06.041-.017.011-.006.004L9 15l-.276.417-.002-.001-.004-.003-.016-.011-.061-.041-.228-.157a31.88 31.88 0 0 1-3.251-2.6c-.89-.817-1.793-1.761-2.478-2.743C2.006 8.889 1.5 7.82 1.5 6.77c0-1.135.456-2.221 1.267-3.022zM9 15l-.276.417c.166.11.383.11.55 0L9 15zm.001-.605l.015-.01a30.283 30.283 0 0 0 3.146-2.5c.861-.789 1.707-1.675 2.334-2.576.633-.91 1.004-1.778 1.004-2.54 0-.864-.348-1.695-.97-2.31a3.343 3.343 0 0 0-2.333-.959 3.543 3.543 0 0 0-1.585.487A3.482 3.482 0 0 0 9.44 5.124c0 .002-.006.01-.012.02a.51.51 0 0 1-.855 0l-.013-.02a3.485 3.485 0 0 0-1.172-1.137A3.543 3.543 0 0 0 5.803 3.5a3.343 3.343 0 0 0-2.333.96 3.246 3.246 0 0 0-.97 2.31c0 .748.37 1.61 1.004 2.518.627.9 1.473 1.788 2.334 2.579a30.9 30.9 0 0 0 3.147 2.517l.016.011z" fill="#fff"/></svg>