<svg width="18" height="18" fill="none" xmlns="http://www.w3.org/2000/svg"><path d="M12.182 3v-.5h-.03l.03.5zm-1.825.557l-.255-.43.255.43zM5.818 3l.03-.5h-.03V3zM2 6.77h-.5.5zM9 15l-.276.417a.5.5 0 0 0 .55.001L9 15zm7-8.23h-.5.5zM9.017 4.858l-.423-.267.423.267zm-.034 0l-.423.266.423-.266zM9 4.876v.5-.5zM12.153 2.5a4.543 4.543 0 0 0-2.051.626l.51.86a3.544 3.544 0 0 1 1.6-.488l-.06-.998zm-2.051.626A4.483 4.483 0 0 0 8.594 4.59l.846.533a3.482 3.482 0 0 1 1.171-1.137l-.51-.86zM9.406 4.59a4.483 4.483 0 0 0-1.508-1.464l-.51.86c.477.283.879.673 1.172 1.137l.846-.533zM7.898 3.127a4.543 4.543 0 0 0-2.05-.626l-.06.998c.567.033 1.115.2 1.6.488l.51-.86zM5.818 2.5c-1.143 0-2.24.448-3.051 1.248l.703.712a3.343 3.343 0 0 1 2.348-.96v-1zM2.767 3.748A4.246 4.246 0 0 0 1.5 6.77h1c0-.865.348-1.696.97-2.31l-.703-.712zM1.5 6.77c0 1.052.506 2.119 1.184 3.09.685.982 1.589 1.927 2.478 2.743a31.88 31.88 0 0 0 3.54 2.799l.016.01.004.004h.002L9 15l.276-.417-.004-.003a1.564 1.564 0 0 0-.07-.047 30.169 30.169 0 0 1-.997-.714 30.9 30.9 0 0 1-2.367-1.952c-.86-.791-1.707-1.68-2.334-2.579C2.869 8.38 2.5 7.518 2.5 6.77h-1zM9 15l.274.418h.002c0-.002.002-.002.004-.004l.016-.01.061-.041.228-.156a31.25 31.25 0 0 0 3.252-2.585c.89-.814 1.794-1.757 2.48-2.741.679-.976 1.183-2.049 1.183-3.111h-1c0 .761-.37 1.63-1.004 2.54-.627.9-1.473 1.786-2.334 2.574a30.283 30.283 0 0 1-3.418 2.686l-.014.01a.093.093 0 0 1-.003.001L9 15zm7.5-8.23a4.246 4.246 0 0 0-1.267-3.022l-.703.712c.622.614.97 1.445.97 2.31h1zm-1.267-3.022A4.343 4.343 0 0 0 12.182 2.5v1c.882 0 1.727.346 2.348.96l.703-.712zm-6.639.843c-.012.02.007-.013.034-.045A.49.49 0 0 1 9 4.376v1a.51.51 0 0 0 .428-.233l.012-.019-.846-.533zm-.034.533c0 .002.006.01.012.02A.51.51 0 0 0 9 5.376V4.375a.49.49 0 0 1 .372.17c.027.032.046.065.034.045l-.846.533z" fill="#fff"/></svg>