<svg width="18" height="18" fill="none" xmlns="http://www.w3.org/2000/svg"><path fill-rule="evenodd" clip-rule="evenodd" d="M6.637 3.5a.5.5 0 0 1 .48.433l1.164 8.566 1.537-5.63a.5.5 0 0 1 .963-.009l1.295 4.448.365-1.111c.101-.311.19-.584.29-.8.107-.233.246-.448.472-.612.227-.164.473-.229.729-.258.236-.027.523-.027.85-.027h.718a.5.5 0 0 1 0 1h-.692c-.361 0-.59 0-.762.02-.16.019-.22.049-.256.075-.036.026-.083.073-.15.22a7.541 7.541 0 0 0-.257.718l-.86 2.623a.5.5 0 0 1-.955-.016L10.316 8.84 8.6 15.131a.5.5 0 0 1-.978-.064l-1.097-8.07L5.49 12.1a.5.5 0 0 1-.964.06l-.544-1.633a7.537 7.537 0 0 0-.26-.714c-.067-.145-.114-.191-.15-.218-.037-.026-.096-.055-.255-.074a7.53 7.53 0 0 0-.759-.02H2.5a.5.5 0 0 1 0-1h.085c.325 0 .61 0 .846.027.254.029.5.094.725.256.226.163.365.375.473.608.087.186.166.415.253.674l1.25-6.164a.5.5 0 0 1 .505-.4z" fill="#fff"/></svg>