<svg width="18" height="18" fill="none" xmlns="http://www.w3.org/2000/svg"><path d="M5 12l-.474.158a.5.5 0 0 0 .964-.059L5 12zm1.621-8l.496-.067A.5.5 0 0 0 6.13 3.9l.49.099zm1.495 11l-.495.067a.5.5 0 0 0 .978.065L8.116 15zm2.185-8l.48-.14a.5.5 0 0 0-.963.008l.483.132zm1.747 6l-.48.14a.5.5 0 0 0 .955.016L12.048 13zM15.5 9.5a.5.5 0 0 0 0-1v1zm-13-1a.5.5 0 1 0 0 1v-1zm1.956 1.868l-.474.158.474-.158zm-.592-1.18l-.292.406.292-.405zm9.044 1.19l-.476-.156.476.155zm.589-1.188l-.294-.405.294.405zM5.49 12.1l1.621-8-.98-.2-1.621 8 .98.2zm.636-8.033l1.495 11 .99-.134-1.494-11-.991.134zm2.473 11.065l2.184-8-.965-.264-2.184 8 .965.264zM9.82 7.14l1.747 6 .96-.28-1.747-6-.96.28zm2.702 6.016l.86-2.623-.95-.311-.86 2.622.95.312zM14.808 9.5h.692v-1h-.692v1zm-9.334 2.342l-.544-1.633-.948.317.544 1.632.948-.316zM2.558 8.5H2.5v1h.058v-1zm2.372 1.71c-.106-.32-.198-.599-.301-.82-.108-.232-.247-.444-.473-.607l-.584.811c.036.027.083.073.15.218.073.157.146.373.26.714l.948-.316zM2.558 9.5c.36 0 .587 0 .76.02.158.019.217.048.254.074l.584-.81a1.482 1.482 0 0 0-.725-.257c-.242-.028-.536-.027-.873-.027v1zm10.825 1.033c.112-.343.184-.56.257-.718.067-.147.114-.194.15-.22l-.587-.81c-.226.164-.365.379-.472.612-.102.222-.193.503-.299.825l.95.31zM14.808 8.5c-.338 0-.634 0-.876.027-.256.03-.502.094-.729.258l.587.81c.037-.026.096-.056.256-.074.172-.02.401-.021.762-.021v-1z" fill="#fff"/></svg>