<svg width="18" height="18" fill="none" xmlns="http://www.w3.org/2000/svg"><path d="M10.808 10.551S8.727 10.457 7.5 10a9.02 9.02 0 0 1-2.756-1.654" stroke="#fff"/><path d="M15.5 10.013c-1.102.55-3.032.55-4.961.55-1.103 0-2.757 3.033-4.41 2.206-1.654-.827-1.654-1.103-1.654-3.308 0-2.74 2.163-4.961 5.512-4.961 2.64 0 4.486 2.205 4.962 3.308.476 1.102 1.654 1.653.551 2.205z" stroke="#fff"/><path d="M3.354 5.146a.5.5 0 1 0-.708.708l.708-.708zm-.208 1.208a.5.5 0 1 0 .708-.708l-.708.708zM2.5 8a.5.5 0 0 0 0 1V8zM3 9a.5.5 0 0 0 0-1v1zm-.5 2a.5.5 0 0 0 0 1v-1zm.5 1a.5.5 0 0 0 0-1v1zm.854-6.354l-.5-.5-.708.708.5.5.708-.708zM3 8h-.5v1H3V8zm0 3h-.5v1H3v-1z" fill="#fff"/></svg>