<svg width="18" height="18" fill="none" xmlns="http://www.w3.org/2000/svg"><path fill-rule="evenodd" clip-rule="evenodd" d="M3.53 7.694h7.691a1.5 1.5 0 0 1 1.456 1.53v1.389a5.339 5.339 0 1 1-10.677 0V9.23v-.006-.074a1.5 1.5 0 0 1 1.457-1.456h.074zm.007 1h-.051A.5.5 0 0 0 3 9.23v1.383a4.339 4.339 0 0 0 8.677 0V9.23v-.05a.5.5 0 0 0-.536-.486H3.537z" fill="#fff"/><path fill-rule="evenodd" clip-rule="evenodd" d="M12.984 8.694H9v-1h3.984c1.369 0 2.516 1.044 2.516 2.454 0 1.37-1.107 2.578-2.516 2.578h-.807v-1h.807c.818 0 1.516-.721 1.516-1.578 0-.817-.658-1.454-1.516-1.454zM5.143 2.1a.5.5 0 0 1 .224.671l-.05.1c-.1.2-.118.24-.128.275a.5.5 0 0 0 .02.33 1.96 1.96 0 0 0 .177.281c.08.12.149.223.2.337.12.267.16.564.114.854-.02.122-.059.241-.104.376l-.01.028-.192.58a.5.5 0 0 1-.949-.317l.193-.579a1.9 1.9 0 0 0 .075-.246.5.5 0 0 0-.038-.285 1.897 1.897 0 0 0-.137-.217l-.02-.03a2.427 2.427 0 0 1-.23-.393 1.5 1.5 0 0 1-.062-.99c.04-.138.105-.27.18-.42l.016-.03.05-.101a.5.5 0 0 1 .67-.224zm5.242 0a.5.5 0 0 1 .223.671l-.05.1c-.1.2-.117.24-.127.275a.5.5 0 0 0 .02.33c.014.034.037.072.16.257l.017.024c.08.12.149.223.2.336.12.268.16.565.114.855-.02.122-.059.241-.104.376l-.01.028-.192.58a.5.5 0 0 1-.95-.317l.194-.579c.06-.179.07-.215.075-.246a.5.5 0 0 0-.038-.285 1.9 1.9 0 0 0-.157-.246 2.426 2.426 0 0 1-.23-.394 1.5 1.5 0 0 1-.062-.99c.04-.138.105-.27.18-.42l.016-.03.05-.101a.5.5 0 0 1 .67-.224z" fill="#fff"/></svg>