<svg width="18" height="18" fill="none" xmlns="http://www.w3.org/2000/svg"><path fill-rule="evenodd" clip-rule="evenodd" d="M13.861 5.654a.5.5 0 0 1-.015.707L12.22 7.916c-.365.35-.6.577-.752.767-.141.179-.157.262-.157.317 0 .055.016.138.157.317.151.19.387.417.752.767l1.625 1.555a.5.5 0 0 1-.692.722l-1.649-1.578c-.333-.32-.62-.594-.819-.844-.212-.267-.374-.567-.374-.939s.162-.672.375-.94c.198-.25.485-.523.818-.843l1.65-1.578a.5.5 0 0 1 .706.015zm-9.722 0a.5.5 0 0 1 .707-.015L6.47 7.194l.025.023c.333.32.62.594.818.844.213.267.375.567.375.939s-.162.672-.375.94c-.198.249-.485.523-.818.843l-1.65 1.578a.5.5 0 0 1-.69-.722l1.624-1.555c.365-.35.6-.577.752-.767.142-.179.157-.262.157-.317 0-.055-.015-.138-.157-.317-.151-.19-.387-.417-.752-.767L4.154 6.361a.5.5 0 0 1-.015-.707z" fill="#fff"/></svg>