<svg width="18" height="18" fill="none" xmlns="http://www.w3.org/2000/svg"><path d="M9 8.5v-6m0 0l1.75 1.4M9 2.5L7.25 3.9" stroke="#fff" stroke-linecap="round" stroke-linejoin="round"/><path d="M2.5 10.5h3.513c.253 0 .38 0 .502.03l.049.015c.12.037.228.103.444.236.921.563 1.382.845 1.89.871.068.004.136.004.204 0 .508-.026.969-.307 1.89-.871.216-.133.324-.2.444-.236l.05-.014c.12-.031.247-.031.502-.031H15.5v3c0 .943 0 1.414-.293 1.707-.293.293-.764.293-1.707.293h-9c-.943 0-1.414 0-1.707-.293-.293-.293-.293-.764-.293-1.707v-3z" stroke="#fff"/><path d="M2 11a.5.5 0 0 0 1 0H2zm13 0a.5.5 0 0 0 1 0h-1zm-3-6a.5.5 0 0 0 0 1V5zM6 6a.5.5 0 0 0 0-1v1zM2.56 8.522l.47.17-.47-.17zm12.88 0l.47-.17-.47.17zM5.044 5.594l-.212-.452.212.452zm8.172.946l1.436 1.724.769-.64L13.984 5.9l-.768.64zM3.348 8.264L4.784 6.54l-.768-.64L2.58 7.624l.769.64zM2 9.224V11h1V9.224H2zm13 0V11h1V9.224h-1zM12 6h.063V5H12v1zM5.937 6H6V5h-.063v1zM2.579 7.624c-.206.248-.393.46-.49.727l.94.34c.024-.063.067-.125.319-.427l-.769-.64zM3 9.224c0-.393.007-.469.03-.532l-.94-.34c-.097.266-.09.549-.09.872h1zm11.652-.96c.252.302.295.364.318.428l.94-.34c-.096-.267-.283-.48-.49-.728l-.768.64zm1.348.96c0-.323.007-.606-.09-.873l-.94.34c.023.064.03.14.03.533h1zM13.984 5.9c-.265-.318-.49-.606-.816-.758l-.424.905c.077.036.147.103.472.493l.768-.64zm-1.92.1c.507 0 .602.011.68.047l.424-.905c-.326-.153-.69-.142-1.105-.142v1zm-7.28.54c.325-.39.395-.457.472-.493l-.424-.905c-.326.152-.55.44-.816.758l.768.64zM5.937 5c-.414 0-.779-.011-1.105.142l.424.905c.077-.036.173-.047.68-.047V5z" fill="#fff"/></svg>