<svg width="18" height="18" fill="none" xmlns="http://www.w3.org/2000/svg"><g clip-path="url(#clip0_877_10859)"><path fill-rule="evenodd" clip-rule="evenodd" d="M2.5 15a.5.5 0 0 1 .5-.5h12a.5.5 0 0 1 0 1H3a.5.5 0 0 1-.5-.5zM8.726 3.636a.49.49 0 0 0-.804.39l.002.06v.038a1.5 1.5 0 0 1-1.896 1.47l-.04-.01-.81-.235a1.224 1.224 0 0 1-.853-.9.21.21 0 0 0-.08-.133.238.238 0 0 0-.142-.041.238.238 0 0 0-.141.046.21.21 0 0 0-.076.136l-.187.968c-.039.2.067.4.253.48L12.8 9.744c.036.015.043.019.049.02a.5.5 0 0 0 .666-.321l.016-.043a.5.5 0 0 0-.263-.621l-2.12-1.144a11.45 11.45 0 0 0-.05-.027c-.246-.132-.463-.249-.633-.431-.17-.182-.271-.408-.386-.662l-.023-.052L8.858 3.81a.49.49 0 0 0-.132-.174zm-1.804.42C6.884 2.77 8.383 2.043 9.37 2.87c.172.144.308.325.4.529l1.197 2.652c.152.335.186.397.23.443.043.047.102.085.426.26L13.746 7.9l.059.032a1.5 1.5 0 0 1 .668 1.799l-.023.063-.005.01-.028.072a1.5 1.5 0 0 1-1.94.817l-.07-.03-8.853-3.84a1.434 1.434 0 0 1-.837-1.587l.188-.97C3.155 2.97 5 2.937 5.299 4.224c.019.08.078.143.157.165l.81.235.027.007a.5.5 0 0 0 .632-.49l-.001-.028-.002-.056z" fill="#fff"/></g><defs><clipPath id="clip0_877_10859"><path fill="#fff" d="M0 0H18V18H0z"/></clipPath></defs></svg>