<svg width="18" height="18" fill="none" xmlns="http://www.w3.org/2000/svg"><path fill-rule="evenodd" clip-rule="evenodd" d="M9 2a.5.5 0 0 1 .5.5v1.825c2.018.158 3.755 1.272 4.549 3.026l.018.04c.139.307.278.615.33.906.063.357 0 .684-.215 1.016-.235.365-.56.542-.945.62-.332.067-.742.067-1.192.067h-1.051c-.003.107-.01.214-.02.319a2.26 2.26 0 0 1-.217.816c-.14.274-.358.502-.67.654C9.784 11.936 9.42 12 9 12c-.421 0-.785-.064-1.086-.21a1.453 1.453 0 0 1-.671-.655 2.258 2.258 0 0 1-.217-.816 5.064 5.064 0 0 1-.02-.319H5.955c-.45 0-.86 0-1.192-.067-.384-.078-.71-.255-.946-.62a1.351 1.351 0 0 1-.214-1.016c.052-.291.191-.599.33-.905l.019-.041c.793-1.754 2.53-2.868 4.548-3.026V2.5A.5.5 0 0 1 9 2zm-.994 8c.003.077.008.15.015.22.02.21.058.355.111.458.047.09.11.16.22.212.12.06.32.11.648.11.329 0 .528-.05.648-.11a.455.455 0 0 0 .22-.212c.053-.103.09-.249.111-.457A3.86 3.86 0 0 0 9.994 10H8.006zM12 9c.51 0 .817-.002 1.037-.047.179-.037.245-.089.305-.182.082-.126.088-.199.07-.299-.027-.153-.11-.344-.275-.709C12.462 6.271 10.89 5.306 9 5.306c-1.89 0-3.462.965-4.137 2.457-.165.365-.248.556-.275.709-.018.1-.012.173.07.3.06.092.126.144.305.18C5.183 8.999 5.49 9 6 9h6z" fill="#fff"/></svg>