<svg width="18" height="18" fill="none" xmlns="http://www.w3.org/2000/svg"><path fill-rule="evenodd" clip-rule="evenodd" d="M9 3C6.4 3 4.833 5.068 4.833 7.167c0 1.03.362 1.725.754 2.333.06.093.125.19.191.289.14.209.286.425.398.625.175.313.324.671.324 1.086a.5.5 0 0 1-1 0c0-.169-.06-.351-.197-.597a7.494 7.494 0 0 0-.324-.51c-.071-.106-.148-.22-.233-.351-.44-.684-.913-1.572-.913-2.875C3.833 4.599 5.767 2 9 2c3.233 0 5.167 2.599 5.167 5.167 0 1.303-.473 2.191-.913 2.875l-.233.352c-.125.184-.231.343-.325.51-.137.245-.196.427-.196.596a.5.5 0 0 1-1 0c0-.415.15-.774.324-1.086.112-.2.258-.416.398-.625.066-.1.131-.196.191-.29.392-.607.754-1.303.754-2.332C13.167 5.067 11.6 3 9 3zM6 13.5a.5.5 0 0 1 .5-.5h5a.5.5 0 1 1 0 1h-5a.5.5 0 0 1-.5-.5zm1.5 2A.5.5 0 0 1 8 15h2a.5.5 0 0 1 0 1H8a.5.5 0 0 1-.5-.5z" fill="#fff"/></svg>