<svg width="18" height="18" fill="none" xmlns="http://www.w3.org/2000/svg"><path d="M14.207 15.207l.354.354-.354-.354zm-10.414 0l-.354.354.354-.354zm10.414-6.914l-.353.353.353-.353zM5.5 8.5h7v-1h-7v1zm-1.5 5V10H3v3.5h1zm8.5 1.5h-7v1h7v-1zm1.5-5v3.5h1V10h-1zm-1.5 6c.457 0 .85.001 1.164-.041.328-.044.642-.143.897-.398l-.707-.707c-.038.038-.106.085-.323.114-.232.03-.546.032-1.031.032v1zm1.5-2.5c0 .486-.001.8-.032 1.03-.03.218-.076.286-.114.324l.707.707c.255-.255.354-.57.398-.897C15 14.35 15 13.957 15 13.5h-1zm-11 0c0 .457-.001.85.041 1.164.044.328.144.642.398.897l.707-.707c-.038-.038-.085-.106-.114-.323C4.002 14.299 4 13.985 4 13.5H3zM5.5 15c-.486 0-.8-.001-1.03-.032-.218-.03-.285-.076-.324-.114l-.707.707c.255.255.57.354.897.398C4.65 16 5.043 16 5.5 16v-1zm7-6.5c.486 0 .8.001 1.03.032.218.03.286.076.324.114l.707-.707c-.255-.254-.57-.354-.897-.398C13.35 7.5 12.957 7.5 12.5 7.5v1zM15 10c0-.457.001-.85-.041-1.164-.044-.328-.143-.642-.398-.897l-.707.707c.038.039.085.106.114.323.03.232.032.545.032 1.031h1zM5.5 7.5c-.457 0-.85-.001-1.164.041-.328.044-.642.144-.897.398l.707.707c.039-.038.106-.085.323-.114.232-.03.545-.032 1.031-.032v-1zM4 10c0-.486.001-.8.032-1.03.03-.218.076-.285.114-.324L3.44 7.94c-.254.255-.354.57-.398.897C3 9.15 3 9.543 3 10h1zm2.5-2.5H7v-.001-.001-.001-.001-.001-.001-.001-.001-.001-.001-.002-.001-.002-.001-.001-.002-.002-.001-.001-.001-.001-.002-.002-.002-.001-.001-.001-.002-.002-.001-.002-.001-.001-.002-.001-.001-.002-.001-.002-.001-.002-.001-.002-.001-.002-.002-.001-.002-.001-.002-.002-.002-.001-.002-.002-.002-.002-.001-.002-.002-.002-.002-.002-.002-.002-.002V7.4v-.002-.002-.002-.002-.002-.002-.003-.002-.002-.002-.002-.003-.002-.002-.003-.002-.002-.003-.002-.003-.002-.002-.003-.002-.003-.003-.002-.003-.002-.003-.003-.002-.003-.003-.002-.003-.003-.003-.002-.003-.003-.003-.003-.003-.003-.003-.002-.003-.003-.003-.003-.004-.003-.003-.003-.003-.003-.003-.003-.004-.003-.003-.003-.004-.003-.003-.004-.003-.003-.004-.003V7.2v-.003-.004-.003-.004-.003-.004-.003-.004-.003-.004-.004-.003-.004-.004-.003-.004-.004-.004-.004-.003-.004-.004-.004-.004-.004-.004-.004-.004-.004-.004-.004-.004-.004-.004-.004-.004-.004-.004-.004-.005-.004-.004-.004-.005-.004-.004-.004-.005-.004-.005-.004-.004-.005-.004-.005-.004-.005-.004-.005-.004-.005-.004-.005-.005-.004-.005-.005-.004-.005-.005-.005-.004V6.9v-.005-.005-.005-.004-.005-.005-.005-.005-.005-.005-.005-.005-.005-.005-.005-.005-.005-.005-.006V6.8v-.005-.005-.005-.006-.005-.005-.005-.006-.005-.005-.006-.005-.005-.006-.005-.006-.005-.006V6.7v-.006-.005-.006-.005-.006-.005-.006-.006-.005-.006-.006-.005-.006-.006-.005-.006-.006-.006-.006-.005-.006-.006-.006-.006-.006-.006-.006-.006-.006-.006-.006-.006-.006-.006-.006-.006-.006-.006-.007-.006-.006-.006-.006-.007-.006-.006-.006-.007-.006-.006-.007-.006-.007-.006-.006-.007-.006-.007-.006-.007-.006-.007-.006-.007-.007V6.3v-.007-.006-.007-.007-.007-.006-.007-.007-.006-.007-.007-.007-.007-.007-.006-.007-.007-.007-.007-.007-.007-.007-.007-.007-.007-.007-.007-.007V6.1v-.007-.007-.008-.007-.007-.007-.007-.007-.008-.007-.007-.007-.008V6v-.007-.008-.007-.007-.008-.007-.008-.007-.008-.007-.008-.007-.008-.007-.008-.007-.008-.007-.008-.008-.007-.008-.008-.007-.008-.008-.008-.007-.008-.008-.008-.007-.008-.008-.008-.008-.008-.008-.008-.008-.008-.008-.008-.008-.008-.008-.008-.008-.008-.008-.008-.008-.008-.008-.009-.008-.008-.008-.008-.009-.008-.008-.009-.008-.008-.009-.008-.008-.009-.008-.008-.009-.008-.009-.008-.009-.008-.009-.008-.009-.008-.009-.009-.008-.009-.008-.01-.008-.008-.01-.008-.009-.008-.01-.008-.009-.008-.01-.008-.009-.009-.009-.009-.008-.01-.008-.01-.008-.01V5.1v-.01-.008-.01-.008-.01-.008-.01-.009-.009-.009V5H6V7.5h.5zM7 5c0-.927.138-1.369.367-1.606C7.59 3.161 8.028 3 9 3V2c-1.01 0-1.823.151-2.353.7C6.122 3.243 6 4.051 6 5h1zm2-2c.972 0 1.409.161 1.633.394.23.237.367.679.367 1.606h1c0-.948-.122-1.756-.647-2.3C10.823 2.15 10.009 2 9 2v1zm2 2v2.5h1V5h-1z" fill="#fff"/></svg>