<svg width="18" height="18" fill="none" xmlns="http://www.w3.org/2000/svg"><path d="M4 4.5c0-.943 0-1.414.293-1.707C4.586 2.5 5.057 2.5 6 2.5h6c.943 0 1.414 0 1.707.293C14 3.086 14 3.557 14 4.5v7c0 .943 0 1.414-.293 1.707-.293.293-.764.293-1.707.293H6c-.943 0-1.414 0-1.707-.293C4 12.914 4 12.443 4 11.5v-7z" stroke="#fff"/><path d="M6 4.7c0-.094 0-.141.03-.17.029-.03.076-.03.17-.03h5.6c.094 0 .141 0 .17.03.03.029.03.076.03.17v3.6c0 .094 0 .141-.03.17-.029.03-.076.03-.17.03H6.2c-.094 0-.141 0-.17-.03C6 8.442 6 8.395 6 8.3V4.7z" fill="#fff" stroke="#fff"/><path d="M5 13.5h8c0 .943 0 1.414-.293 1.707-.293.293-.764.293-1.707.293H7c-.943 0-1.414 0-1.707-.293C5 14.914 5 14.443 5 13.5z" stroke="#fff"/><path d="M9 11h3" stroke="#fff" stroke-width=".75" stroke-linecap="round" stroke-linejoin="round"/><path d="M6.5 11a.5.5 0 1 1-1 0 .5.5 0 0 1 1 0z" fill="#fff"/></svg>