<svg fill="none" height="18" width="18" xmlns="http://www.w3.org/2000/svg"><clipPath id="a"><path d="M0 0h18v18H0z"/></clipPath><g clip-path="url(#a)"><g stroke="#9b51e0" stroke-width=".1"><path d="M.035-.035l18 18m-.07-18l-18 18"/><circle cx="9" cy="9" r="7"/><path d="M3 3h12v12H3z"/><path d="M2 4h14v10H2z"/><path d="M14 2v14H4V2z"/></g><path d="M2.5 4.501c0-.943 0-1.415.293-1.708C3.086 2.5 3.557 2.5 4.5 2.5h9c.943 0 1.414 0 1.707.293.293.293.293.764.293 1.707v9c0 .943 0 1.414-.293 1.707s-.764.293-1.707.293h-9c-.943 0-1.414 0-1.707-.293-.293-.293-.293-.765-.293-1.708V4.5z" stroke="currentColor"/><path d="M2.5 11.528h13M6.833 6.472v5.056M11.167 2.5v3.972m0 5.056V15.5M2.5 6.472h13" stroke="currentColor" stroke-linecap="round"/></g></svg>