<svg fill="none" height="18" viewBox="0 0 18 18" width="18" xmlns="http://www.w3.org/2000/svg" xmlns:xlink="http://www.w3.org/1999/xlink"><clipPath id="a"><path d="m0 0h18v18h-18z"/></clipPath><g clip-path="url(#a)"><g stroke="#9b51e0" stroke-width=".1"><path d="m.035355-.035355 18.000045 17.999955"/><path d="m0-.05h25.4558" transform="matrix(-.707107 .707107 .707107 .707107 18 0)"/><circle cx="9" cy="9" r="7"/><path d="m3 3h12v12h-12z"/><path d="m2 4h14v10h-14z"/><path d="m14 2h14v10h-14z" transform="matrix(0 1 -1 0 16 -12)"/></g><path d="m2.5 4.50116c0-.94358 0-1.41537.29289-1.70827.2929-.29289.7643-.29289 1.70711-.29289h9c.9428 0 1.4142 0 1.7071.29289.2929.2929.2929.7643.2929 1.70711v9c0 .9428 0 1.4142-.2929 1.7071s-.7643.2929-1.7071.2929h-9c-.94281 0-1.41421 0-1.70711-.2929-.29289-.2929-.29289-.7647-.29289-1.7083 0-3.2788 0-5.71883 0-8.99764z" stroke="#fff"/><path d="m2.5 11.5278h13m-8.66667-5.05558v5.05558m4.33337-9.0278v3.97222m0 5.05558v3.9722m-8.6667-9.02778h13" stroke="#fff" stroke-linecap="round"/></g></svg>