<svg width="18" height="18" fill="none" xmlns="http://www.w3.org/2000/svg"><g clip-path="url(#clip0_877_10869)" fill-rule="evenodd" clip-rule="evenodd"><path d="M18 18L0 0l.07-.07 18 18L18 18z" fill="#9B51E0"/><path d="M0 18L18 0l-.07-.07-18 18L0 18z" fill="#9B51E0"/><path d="M9 2.05a6.95 6.95 0 1 0 0 13.9 6.95 6.95 0 0 0 0-13.9zM1.95 9a7.05 7.05 0 1 1 14.1 0 7.05 7.05 0 0 1-14.1 0z" fill="#9B51E0"/><path d="M2.95 2.95h12.1v12.1H2.95V2.95zm.1.1v11.9h11.9V3.05H3.05z" fill="#9B51E0"/><path d="M1.95 3.95h14.1v10.1H1.95V3.95zm.1.1v9.9h13.9v-9.9H2.05z" fill="#9B51E0"/><path d="M14.05 1.95v14.1H3.95V1.95h10.1zm-.1.1h-9.9v13.9h9.9V2.05z" fill="#9B51E0"/><path d="M4.467 2H13.533c.443 0 .825 0 1.13.041.329.044.643.144.898.398.255.255.354.57.398.897.041.306.041.688.041 1.131v9.066c0 .443 0 .825-.041 1.13-.044.329-.143.643-.398.898s-.57.354-.897.398c-.306.041-.688.041-1.131.041H4.467c-.443 0-.825 0-1.13-.041-.329-.044-.643-.143-.898-.398s-.354-.57-.398-.897C2 14.358 2 13.975 2 13.532v-9.03-.034c0-.443 0-.826.041-1.132.044-.327.143-.642.398-.897.255-.254.57-.354.897-.398C3.642 2 4.024 2 4.467 2zM3.47 3.032c-.217.03-.284.076-.323.114-.038.038-.085.106-.114.324C3.002 3.7 3 4.015 3 4.5V13.5c0 .486.001.8.032 1.031.03.218.076.286.114.324.039.038.106.085.323.114.232.03.545.032 1.031.032h9c.486 0 .8-.001 1.03-.032.218-.03.286-.076.324-.114.038-.038.085-.106.114-.323.03-.232.032-.546.032-1.031v-9c0-.486-.001-.8-.032-1.03-.03-.218-.076-.285-.114-.324-.038-.038-.106-.085-.323-.114C14.299 3.002 13.985 3 13.5 3h-9c-.486 0-.8.001-1.03.032z" fill="#fff"/><path d="M2 11.528a.5.5 0 0 1 .5-.5h3.833V6.972H2.5a.5.5 0 0 1 0-1h8.167V2.5a.5.5 0 1 1 1 0v3.472H15.5a.5.5 0 0 1 0 1H7.333v4.056H15.5a.5.5 0 1 1 0 1h-3.833V15.5a.5.5 0 0 1-1 0v-3.472H2.5a.5.5 0 0 1-.5-.5z" fill="#fff"/></g><defs><clipPath id="clip0_877_10869"><path fill="#fff" d="M0 0H18V18H0z"/></clipPath></defs></svg>