<svg width="18" height="18" fill="none" xmlns="http://www.w3.org/2000/svg"><path fill-rule="evenodd" clip-rule="evenodd" d="M2.677 3.852a4.268 4.268 0 0 1 3.13-1.351c.739.046 1.454.28 2.086.68.42.266.793.604 1.107.992a4.588 4.588 0 0 1 1.107-.992 4.409 4.409 0 0 1 2.117-.681c1.168 0 2.282.49 3.1 1.352.836.884 1.176 2.08 1.176 3.253a.5.5 0 0 1-1 0c0-.993-.289-1.917-.903-2.565A3.27 3.27 0 0 0 12.24 3.5a3.41 3.41 0 0 0-1.598.526 3.704 3.704 0 0 0-1.206 1.27.51.51 0 0 1-.884-.02 3.707 3.707 0 0 0-1.194-1.25A3.41 3.41 0 0 0 5.76 3.5a3.27 3.27 0 0 0-2.357 1.04c-.614.648-.903 1.572-.903 2.565 0 .835.38 1.78 1.014 2.764.63.975 1.477 1.937 2.338 2.791A31.445 31.445 0 0 0 9 15.378l.003.002c.018-.013.036-.027.056-.04.221-.166.538-.406.913-.708a29.806 29.806 0 0 0 2.674-2.416.5.5 0 0 1 .718.697 30.81 30.81 0 0 1-2.766 2.498 31.85 31.85 0 0 1-1.285.98l-.019.014-.005.003-.002.001L9 16l-.29.407-.007-.005-.016-.011-.061-.045a31.066 31.066 0 0 1-1.034-.799 32.435 32.435 0 0 1-2.444-2.177c-.889-.882-1.791-1.9-2.474-2.958C1.996 9.361 1.5 8.22 1.5 7.104c0-1.172.34-2.37 1.177-3.253zM9 16l-.29.407a.501.501 0 0 0 .577.002L9 16zm.413-11.231a.123.123 0 0 0 .004.006z" fill="#fff"/><path fill-rule="evenodd" clip-rule="evenodd" d="M7.587 7.292a.5.5 0 0 1 .445.197l1.706 2.276.961-.96a.5.5 0 0 1 .707 0l1.062 1.061.488-.366.045-.034c.22-.165.415-.311.648-.389.233-.078.476-.077.751-.077h1.442a.5.5 0 1 1 0 1h-1.386c-.362 0-.432.006-.491.026-.06.02-.119.056-.409.274l-.835.626a.5.5 0 0 1-.653-.046l-1.015-1.015-1.015 1.015a.5.5 0 0 1-.754-.054l-1.567-2.09L6.71 10.75a.5.5 0 1 1-.894-.447l1.368-2.737a.5.5 0 0 1 .403-.274z" fill="#fff"/></svg>