<svg width="18" height="18" fill="none" xmlns="http://www.w3.org/2000/svg"><path fill-rule="evenodd" clip-rule="evenodd" d="M9 4.163c-3.455 0-6 2.016-6 4.462 0 1.163.554 2.331 1.487 3.156.241.214.225.52.213.637a2.243 2.243 0 0 1-.116.48c-.099.292-.254.644-.398.969-.01.02-.018.041-.027.062-.154.347-.29.659-.366.899.446.017.898-.24 1.383-.643.142-.118.277-.241.41-.363l.061-.056c.11-.1.219-.201.32-.288.119-.102.253-.208.39-.284.123-.068.35-.169.611-.096l.199.056c.63.178 1.222.346 1.833.346 1.704 0 3.213-.49 4.286-1.34C14.35 11.32 15 10.118 15 8.626c0-1.485-.643-2.576-1.691-3.313-1.068-.75-2.582-1.15-4.309-1.15zM3.737 15.069zM2 8.625C2 5.38 5.275 3.163 9 3.163c1.863 0 3.599.428 4.884 1.331C15.188 5.411 16 6.802 16 8.624c0 1.816-.805 3.301-2.094 4.321C12.626 13.957 10.886 14.5 9 14.5c-.76 0-1.488-.207-2.1-.382l-.095-.027a1.978 1.978 0 0 0-.186.146c-.088.075-.182.162-.291.262l-.066.06c-.134.123-.285.26-.447.395-.615.512-1.562 1.14-2.666.759a.493.493 0 0 1-.073-.032c-.315-.17-.342-.496-.34-.638.004-.165.048-.339.095-.49.096-.308.261-.685.413-1.028l.019-.043c.151-.343.29-.657.375-.906.023-.07.04-.126.05-.17C2.642 11.416 2 10.04 2 8.625zm1.706 3.671v0zM6.86 14.06l-.007.003a.031.031 0 0 1 .007-.003z" fill="#fff"/></svg>