<svg width="18" height="18" fill="none" xmlns="http://www.w3.org/2000/svg"><path d="M2.5 6.5c0-.943 0-1.414.293-1.707C3.086 4.5 3.557 4.5 4.5 4.5h9c.943 0 1.414 0 1.707.293.293.293.293.764.293 1.707v5c0 .943 0 1.414-.293 1.707-.293.293-.764.293-1.707.293h-9c-.943 0-1.414 0-1.707-.293-.293-.293-.293-.764-.293-1.707v-5zm3 7c0-2-1-3-3-3m0-3c2 0 3-1 3-3m7 0c0 2 1 3 3 3m0 3c-2 0-3 1-3 3" stroke="#fff"/><path d="M10.75 9a1.75 1.75 0 1 1-3.5 0 1.75 1.75 0 0 1 3.5 0z" stroke="#fff" stroke-linecap="round" stroke-linejoin="round"/></svg>