<svg width="18" height="18" fill="none" xmlns="http://www.w3.org/2000/svg"><path fill-rule="evenodd" clip-rule="evenodd" d="M4.467 4H13.533c.443 0 .825 0 1.13.041.329.044.643.144.898.398.255.255.354.57.398.897.041.306.041.688.041 1.131v5.066c0 .443 0 .825-.041 1.13-.044.329-.143.643-.398.898s-.57.354-.897.398c-.306.041-.688.041-1.131.041H4.467c-.443 0-.825 0-1.13-.041-.329-.044-.643-.143-.898-.398-.254-.255-.354-.57-.398-.897C2 12.358 2 11.976 2 11.533V6.5v-.033c0-.443 0-.825.041-1.13.044-.329.144-.643.398-.898.255-.254.57-.354.897-.398C3.642 4 4.024 4 4.467 4zM3.47 5.032c-.217.03-.284.076-.323.114-.038.039-.085.106-.114.323C3.002 5.701 3 6.014 3 6.5v5c0 .486.001.8.032 1.03.03.218.076.286.114.324.039.038.106.085.323.114.232.03.545.032 1.031.032h9c.486 0 .8-.001 1.03-.032.218-.03.286-.076.324-.114.038-.038.085-.106.114-.323.03-.232.032-.546.032-1.031v-5c0-.486-.001-.8-.032-1.03-.03-.218-.076-.285-.114-.324-.038-.038-.106-.085-.323-.114C14.299 5.002 13.985 5 13.5 5h-9c-.486 0-.8.001-1.03.032z" fill="#fff"/><path fill-rule="evenodd" clip-rule="evenodd" d="M4.396 11.604C4.023 11.23 3.423 11 2.5 11v-1c1.077 0 1.977.27 2.604.896.626.627.896 1.527.896 2.604H5c0-.923-.23-1.523-.604-1.896zm0-5.208C4.77 6.023 5 5.423 5 4.5h1c0 1.077-.27 1.977-.896 2.604C4.477 7.73 3.577 8 2.5 8V7c.923 0 1.523-.23 1.896-.604zm9.208 0c.373.374.973.604 1.896.604v1c-1.077 0-1.977-.27-2.604-.896C12.27 6.477 12 5.577 12 4.5h1c0 .923.23 1.523.604 1.896zm0 5.208c-.374.373-.604.973-.604 1.896h-1c0-1.077.27-1.977.896-2.604.627-.626 1.527-.896 2.604-.896v1c-.923 0-1.523.23-1.896.604zM9 7.75a1.25 1.25 0 1 0 0 2.5 1.25 1.25 0 0 0 0-2.5zM6.75 9a2.25 2.25 0 1 1 4.5 0 2.25 2.25 0 0 1-4.5 0z" fill="#fff"/></svg>