<svg fill="none" height="18" width="18" xmlns="http://www.w3.org/2000/svg" xmlns:xlink="http://www.w3.org/1999/xlink"><clipPath id="a"><path d="m0 0h18v18h-18z"/></clipPath><g clip-path="url(#a)"><path d="m14.937 9.493.366.34zm-6.43-6.43.34.367zm-.157-.53.05.497-.05-.498zm.69.105.281.414-.282-.414zm6.322 6.323.413.281zm-.414-.282c-.114.168-.24.326-.378.474l.733.68c.171-.184.33-.382.472-.59zm-.378.474a4.038 4.038 0 0 1 -2.97 1.297v1a5.038 5.038 0 0 0 3.703-1.616l-.733-.68zm-2.97 1.297a4.05 4.05 0 0 1 -4.05-4.05h-1a5.05 5.05 0 0 0 5.05 5.05zm-4.05-4.05c0-1.173.498-2.23 1.297-2.97l-.68-.733a5.038 5.038 0 0 0 -1.617 3.703zm1.297-2.97c.148-.138.306-.264.474-.378l-.563-.827a5.07 5.07 0 0 0 -.591.472zm-.448-.4c.198-.02.398-.03.601-.03v-1c-.236 0-.47.012-.7.035l.1.995zm-5.399 5.97a6 6 0 0 1 5.4-5.97l-.1-.995a7 7 0 0 0 -6.3 6.965zm6 6a6 6 0 0 1 -6-6h-1a7 7 0 0 0 7 7zm6-6a6 6 0 0 1 -6 6v1a7 7 0 0 0 7-7zm-5.679-5.948a.576.576 0 0 0 -.321-1.052v1a.424.424 0 1 1 -.242-.775zm6.454 6.19a.424.424 0 0 1 -.775-.242h1a.576.576 0 1 0 -1.052-.321z" fill="#fff"/></g></svg>