<svg width="18" height="18" fill="none" xmlns="http://www.w3.org/2000/svg"><g clip-path="url(#clip0_821_19407)"><path d="M14.937 9.493l.366.34-.366-.34zm-6.43-6.43l.34.367-.34-.367zm-.157-.53l.05.497-.05-.498zm.69.105l.281.414-.282-.414zm6.322 6.323l.413.281-.413-.281zm-.414-.282c-.114.168-.24.326-.378.474l.733.68c.171-.184.33-.382.472-.59l-.827-.564zm-.378.474a4.038 4.038 0 0 1-2.97 1.297v1a5.038 5.038 0 0 0 3.703-1.616l-.733-.68zM11.6 10.45A4.05 4.05 0 0 1 7.55 6.4h-1a5.05 5.05 0 0 0 5.05 5.05v-1zM7.55 6.4c0-1.173.498-2.23 1.297-2.97l-.68-.733A5.038 5.038 0 0 0 6.55 6.4h1zm1.297-2.97c.148-.138.306-.264.474-.378l-.563-.827a5.07 5.07 0 0 0-.591.472l.68.733zm-.448-.4C8.597 3.01 8.797 3 9 3V2c-.236 0-.47.012-.7.035l.1.995zM3 9a6 6 0 0 1 5.4-5.97l-.1-.995A7 7 0 0 0 2 9h1zm6 6a6 6 0 0 1-6-6H2a7 7 0 0 0 7 7v-1zm6-6a6 6 0 0 1-6 6v1a7 7 0 0 0 7-7h-1zM9.321 3.052A.576.576 0 0 0 9 2v1a.424.424 0 1 1-.242-.775l.563.827zm6.454 6.19A.424.424 0 0 1 15 9h1a.576.576 0 1 0-1.052-.321l.827.563z" fill="#fff"/></g><defs><clipPath id="clip0_821_19407"><path fill="#fff" d="M0 0H18V18H0z"/></clipPath></defs></svg>