<svg width="18" height="18" fill="none" xmlns="http://www.w3.org/2000/svg"><path d="M9 15.5c-1.414 0-2.121 0-2.56-.44C6 14.622 6 13.915 6 12.5v-3c0-1.414 0-2.121.44-2.56C6.878 6.5 7.585 6.5 9 6.5c1.414 0 2.121 0 2.56.44.44.439.44 1.146.44 2.56v3c0 1.414 0 2.121-.44 2.56-.439.44-1.146.44-2.56.44z" stroke="#fff" stroke-linecap="round" stroke-linejoin="round"/><path d="M9 8V5.863c0-.466 0-.7.032-.84a1.25 1.25 0 0 1 1.822-.81c.126.069.3.225.646.537.347.312.52.468.646.538a1.25 1.25 0 0 0 1.821-.812c.033-.14.033-.373.033-.84V2.5" stroke="#fff" stroke-linecap="round" stroke-linejoin="round"/></svg>