<svg width="18" height="18" fill="none" xmlns="http://www.w3.org/2000/svg"><path fill-rule="evenodd" clip-rule="evenodd" d="M6.5 9.5v3a2.5 2.5 0 0 0 5 0v-3a2.5 2.5 0 0 0-5 0zm-1 3v-3a3.5 3.5 0 1 1 7 0v3a3.5 3.5 0 1 1-7 0z" fill="#fff"/><path fill-rule="evenodd" clip-rule="evenodd" d="M9 8.5a.5.5 0 0 1-.5-.5V5.855c0-.226 0-.408.004-.55.004-.138.013-.273.041-.395a1.75 1.75 0 0 1 2.55-1.135c.11.06.216.144.322.233.108.092.243.213.411.365l.007.005c.175.159.299.27.394.35.099.084.142.113.159.122a.75.75 0 0 0 1.092-.487c.005-.018.012-.07.016-.199.004-.125.004-.29.004-.527V2.5a.5.5 0 0 1 1 0v1.145c0 .226 0 .408-.004.55a2.055 2.055 0 0 1-.042.395 1.75 1.75 0 0 1-2.55 1.135 2.057 2.057 0 0 1-.321-.233 20.078 20.078 0 0 1-.411-.365l-.007-.005c-.175-.159-.299-.27-.394-.35a1.203 1.203 0 0 0-.159-.122.75.75 0 0 0-1.093.487c-.004.018-.011.07-.015.199-.004.125-.004.29-.004.527V8a.5.5 0 0 1-.5.5z" fill="#fff"/></svg>