<svg width="18" height="18" fill="none" xmlns="http://www.w3.org/2000/svg"><path fill-rule="evenodd" clip-rule="evenodd" d="M6.55 7.92c-.049.368-.05.859-.05 1.58v3c0 .721.001 1.212.05 1.58.048.352.132.516.243.627.111.111.275.195.628.242C7.788 15 8.279 15 9 15s1.212-.001 1.58-.05c.352-.048.516-.132.627-.243.111-.111.195-.275.242-.628.05-.367.051-.858.051-1.579v-3c0-.721-.001-1.212-.05-1.58-.048-.352-.132-.516-.243-.627-.111-.111-.275-.195-.628-.243C10.212 7.001 9.721 7 9 7s-1.212.001-1.58.05c-.352.048-.516.132-.627.243-.111.111-.195.275-.243.628zm-.99-.133c.062-.463.198-.873.526-1.201.328-.328.738-.464 1.201-.527C7.73 6 8.287 6 8.965 6h.07c.677 0 1.236 0 1.678.06.463.062.873.198 1.201.526.328.328.464.738.527 1.201.059.442.059 1 .059 1.678v3.07c0 .677 0 1.236-.06 1.678-.062.463-.198.873-.526 1.201-.328.328-.738.464-1.201.527-.442.059-1 .059-1.678.059h-.07c-.677 0-1.236 0-1.678-.06-.463-.062-.873-.198-1.201-.526-.328-.328-.464-.738-.527-1.201-.059-.442-.059-1-.059-1.678v-3.07c0-.677 0-1.236.06-1.678z" fill="#fff"/><path fill-rule="evenodd" clip-rule="evenodd" d="M9 8.5a.5.5 0 0 1-.5-.5V5.855c0-.226 0-.408.004-.55.004-.138.013-.273.041-.395a1.75 1.75 0 0 1 2.55-1.135c.11.06.216.144.322.233.108.092.243.213.411.365l.007.005c.175.159.299.27.394.35.099.084.142.113.159.122a.75.75 0 0 0 1.092-.487c.005-.018.012-.07.016-.199.004-.125.004-.29.004-.527V2.5a.5.5 0 0 1 1 0v1.145c0 .226 0 .408-.004.55a2.055 2.055 0 0 1-.042.395 1.75 1.75 0 0 1-2.55 1.135 2.057 2.057 0 0 1-.321-.233 20.078 20.078 0 0 1-.411-.365l-.007-.005c-.175-.159-.299-.27-.394-.35a1.203 1.203 0 0 0-.159-.122.75.75 0 0 0-1.093.487c-.004.018-.011.07-.015.199-.004.125-.004.29-.004.527V8a.5.5 0 0 1-.5.5z" fill="#fff"/></svg>