<svg width="18" height="18" fill="none" xmlns="http://www.w3.org/2000/svg"><path fill-rule="evenodd" clip-rule="evenodd" d="M4.5 11.537V6.463c0-.911 0-1.646.078-2.224.08-.6.253-1.105.654-1.507.402-.401.907-.574 1.507-.654C7.317 2 8.052 2 8.963 2h.074c.911 0 1.646 0 2.224.078.6.08 1.106.253 1.507.654.401.402.574.907.654 1.507.078.578.078 1.313.078 2.224v5.074c0 .911 0 1.646-.078 2.224-.08.6-.253 1.106-.654 1.507-.402.401-.907.574-1.507.654C10.683 16 9.948 16 9.037 16h-.074c-.911 0-1.646 0-2.224-.078-.6-.08-1.105-.253-1.507-.654-.401-.402-.574-.907-.654-1.507-.078-.578-.078-1.313-.078-2.224zM8.5 3V5.5a.5.5 0 0 0 1 0V3c.697.003 1.217.014 1.628.069.49.066.748.186.933.37.184.185.305.444.37.933.068.504.069 1.171.069 2.128v5c0 .957-.001 1.624-.069 2.128-.065.49-.186.748-.37.933-.185.184-.444.305-.933.37C10.624 15 9.957 15 9 15c-.957 0-1.624-.001-2.128-.069-.49-.065-.748-.186-.933-.37-.184-.185-.304-.444-.37-.933C5.5 13.124 5.5 12.457 5.5 11.5v-5c0-.957.001-1.624.069-2.128.066-.49.186-.748.37-.933.185-.184.444-.304.933-.37.41-.055.93-.066 1.628-.068z" fill="#fff"/></svg>