<svg width="18" height="18" viewBox="0 0 18 18" fill="none" xmlns="http://www.w3.org/2000/svg">
<path d="M14.5 13.0001C14.5 13.9581 13.9583 14.6028 12.8465 14.9043C11.7347 15.2058 10.6725 14.8421 10.4739 14.0919C10.2753 13.3418 11.0155 12.4892 12.1273 12.1877C13.2391 11.8862 14.5 12.042 14.5 13.0001Z" fill="white"/>
<path d="M6.49997 14.0001C6.49997 14.9581 5.95829 15.6836 4.84652 15.9851C3.73475 16.2866 2.67248 15.9229 2.47388 15.1728C2.27528 14.4226 3.01555 13.5701 4.12733 13.2686C5.2391 12.9671 6.49997 13.042 6.49997 14.0001Z" fill="white"/>
<path d="M5.99994 13.9599L5.99997 7.50011M5.99997 7.50011L14 5.5M5.99997 7.50011V5.56155C5.99997 4.8116 5.99997 4.43663 6.21176 4.16536C6.42356 3.8941 6.78734 3.80316 7.5149 3.62127L11.5149 2.62127C12.6588 2.33529 13.2308 2.19229 13.6154 2.49257C14 2.79285 14 3.38242 14 4.56155V5.5M14 5.5L13.9999 13" stroke="white" stroke-linecap="round"/>
</svg>
