<svg width="18" height="18" fill="none" xmlns="http://www.w3.org/2000/svg"><path fill-rule="evenodd" clip-rule="evenodd" d="M9 3C6.625 3 4.544 4.348 3.577 6.28c-.72 1.438-.352 3.165.149 4.948l.474 1.69a.5.5 0 0 1-.963.27l-.474-1.69c-.487-1.735-.996-3.836-.08-5.666C3.82 3.56 6.248 2 9 2c2.748 0 5.169 1.577 6.308 3.833.924 1.828.416 3.93-.071 5.666l-.474 1.69a.5.5 0 1 1-.963-.27l.474-1.69c.5-1.784.867-3.51.142-4.945C13.444 4.36 11.366 3 9 3z" fill="#fff"/><path fill-rule="evenodd" clip-rule="evenodd" d="M5.879 10.515a.513.513 0 0 1 .609.374l1 4a.487.487 0 0 1-.367.596.513.513 0 0 1-.609-.374l-1-4a.487.487 0 0 1 .367-.596zm6.242 0c.27.061.434.328.367.596l-1 4a.513.513 0 0 1-.61.374.487.487 0 0 1-.366-.596l1-4a.513.513 0 0 1 .61-.374z" fill="#fff"/></svg>