<svg width="18" height="18" fill="none" xmlns="http://www.w3.org/2000/svg"><path d="M5 12V4.5c0-.943 0-1.414.293-1.707C5.586 2.5 6.057 2.5 7 2.5h6.544c.947 0 1.42 0 1.713.294.293.295.291.768.287 1.714l-.036 9c-.004.94-.006 1.41-.298 1.7-.293.292-.763.292-1.702.292H4.5c-.943 0-1.414 0-1.707-.293-.293-.293-.293-.764-.293-1.707V6.2" stroke="#fff" stroke-linecap="round"/><path d="M8 5h4.5v3H8V5z" stroke="#fff" stroke-linecap="round" stroke-linejoin="round"/><path d="M12.5 12.8H8m0-2.3h4.5" stroke="#fff" stroke-linecap="round"/></svg>