<svg width="18" height="18" fill="none" xmlns="http://www.w3.org/2000/svg"><path fill-rule="evenodd" clip-rule="evenodd" d="M6.967 2h6.61c.445 0 .829 0 1.136.041.328.045.643.144.898.4.255.257.354.572.397.901.04.307.039.69.037 1.135l-.037 9.066c-.002.442-.003.822-.045 1.127-.046.326-.146.64-.4.893-.255.253-.568.352-.895.396-.305.041-.685.041-1.127.041H4.467c-.443 0-.825 0-1.13-.041-.329-.044-.643-.143-.898-.398-.254-.255-.354-.57-.398-.897C2 14.358 2 13.976 2 13.533V6.2a.5.5 0 1 1 1 0v7.3c0 .486.001.8.032 1.03.03.218.076.286.114.324.039.038.106.085.323.114.232.03.545.032 1.031.032h9.008c.484 0 .797-.001 1.027-.032.216-.029.284-.076.322-.114.038-.038.085-.105.115-.321.032-.23.034-.543.036-1.027l.037-9c.002-.487.002-.802-.029-1.034-.028-.218-.075-.287-.113-.325-.038-.038-.106-.085-.324-.115-.232-.03-.547-.032-1.035-.032H7c-.486 0-.8.001-1.03.032-.218.03-.285.076-.324.114-.038.038-.085.106-.114.323-.03.232-.032.545-.032 1.031V12a.5.5 0 0 1-1 0V4.5v-.033c0-.443 0-.825.041-1.13.044-.329.144-.643.398-.898.255-.255.57-.354.897-.398C6.142 2 6.524 2 6.967 2z" fill="#fff"/><path fill-rule="evenodd" clip-rule="evenodd" d="M8.5 5.5v2H12v-2H8.5zm-.5-1h4.5a.5.5 0 0 1 .5.5v3a.5.5 0 0 1-.5.5H8a.5.5 0 0 1-.5-.5V5a.5.5 0 0 1 .5-.5zm-.5 6A.5.5 0 0 1 8 10h4.5a.5.5 0 0 1 0 1H8a.5.5 0 0 1-.5-.5zm0 2.3a.5.5 0 0 1 .5-.5h4.5a.5.5 0 1 1 0 1H8a.5.5 0 0 1-.5-.5z" fill="#fff"/></svg>