<svg width="18" height="18" fill="none" xmlns="http://www.w3.org/2000/svg"><path d="M10.725 11.529l-.367-.34.367.34zM6.438 7.242l.34.367-.34-.367zm.2-.17l-.306-.395.307.394zm4.415 4.034l.42.27-.42-.27zm-.42-.27a2.548 2.548 0 0 1-.275.353l.733.68c.141-.152.27-.317.382-.492l-.84-.542zm-.275.353c-.463.5-1.124.811-1.858.811v1a3.525 3.525 0 0 0 2.591-1.131l-.733-.68zM8.5 12a2.533 2.533 0 0 1-2.533-2.533h-1A3.533 3.533 0 0 0 8.5 13v-1zM5.967 9.467c0-.734.311-1.395.81-1.858l-.68-.733a3.525 3.525 0 0 0-1.13 2.59h1zm.81-1.858c.055-.05.11-.098.169-.143l-.614-.79c-.081.064-.16.13-.234.2l.68.733zm-3.61 3.558a3.834 3.834 0 0 1 3.45-3.815l-.1-.995a4.834 4.834 0 0 0-4.35 4.81h1zM7 15a3.833 3.833 0 0 1-3.833-3.833h-1A4.833 4.833 0 0 0 7 16v-1zm3.833-3.833A3.833 3.833 0 0 1 7 15v1a4.833 4.833 0 0 0 4.833-4.833h-1zM6.946 7.466a.626.626 0 0 0 .21-.687.606.606 0 0 0-.639-.422l.1.995a.394.394 0 0 1-.412-.267.374.374 0 0 1 .127-.408l.614.789zm4.527 3.91a.338.338 0 0 1-.541.04.373.373 0 0 1-.099-.25h1a.63.63 0 0 0-.511-.62.662.662 0 0 0-.69.29l.841.54z" fill="#fff"/><path d="M14 5.5v3M12.5 7h3m-6-4.5v1m0 0v1m0-1h-1m1 0h1" stroke="#fff" stroke-linecap="round" stroke-linejoin="round"/></svg>