<svg width="18" height="18" fill="none" xmlns="http://www.w3.org/2000/svg"><path fill-rule="evenodd" clip-rule="evenodd" d="M4.191 5.538A.5.5 0 0 1 4.5 6v5.5H5a.5.5 0 0 1 0 1H3a.5.5 0 1 1 0-1h.5V7.207l-.646.647a.5.5 0 1 1-.708-.708l1.5-1.5a.5.5 0 0 1 .545-.108zm10.042 1.11c-.503-.107-1.151.03-1.64.459a.5.5 0 0 1-.66-.751c.727-.64 1.698-.86 2.51-.686C15.27 5.848 16 6.468 16 7.5c0 .554-.22.982-.55 1.289-.08.074-.165.14-.253.198.096.069.189.148.274.238.33.346.529.82.529 1.425 0 1.091-.912 1.698-1.755 1.847-.845.149-1.91-.098-2.418-1.002a.5.5 0 1 1 .872-.49c.23.408.783.61 1.372.507.59-.104.929-.454.929-.862 0-.37-.114-.59-.253-.735-.15-.158-.367-.268-.627-.338a2.865 2.865 0 0 0-.602-.09 5.404 5.404 0 0 1-.505.014l-.027-.001h-.012L13 9l-.059-.496h.002l.002-.001h.009l.027-.004.095-.007a4.356 4.356 0 0 1 .421-.006c.189-.017.407-.048.62-.107.273-.074.5-.182.653-.324A.704.704 0 0 0 15 7.5c0-.45-.282-.748-.767-.852zM13 9l-.059-.496a.5.5 0 0 0 .033.995L13 9zM9.666 6.209c.803.803.824 2.23-.276 3.603L8.04 11.5H10a.5.5 0 0 1 0 1H7a.5.5 0 0 1-.39-.812l2-2.5c.9-1.126.67-1.95.349-2.272a.782.782 0 0 0-.667-.225c-.256.034-.582.195-.892.609a.5.5 0 1 1-.8-.6c.44-.586.99-.925 1.561-1a1.782 1.782 0 0 1 1.505.509z" fill="#fff"/></svg>