<svg width="18" height="18" fill="none" xmlns="http://www.w3.org/2000/svg"><path fill-rule="evenodd" clip-rule="evenodd" d="M11.14 7.288a.5.5 0 0 1-.078.702l-1.75 1.4a.5.5 0 0 1-.624 0l-1.75-1.4a.5.5 0 1 1 .624-.78l.938.75V2.5a.5.5 0 0 1 1 0v5.46l.938-.75a.5.5 0 0 1 .702.078zm-4.749 3.727c-.046-.011-.1-.015-.378-.015H3v2.5c0 .486.001.8.032 1.03.03.218.076.285.114.324.039.038.106.085.323.114.232.03.545.032 1.031.032h9c.486 0 .8-.001 1.03-.032.218-.03.286-.076.324-.114.038-.039.085-.106.114-.323.03-.232.032-.546.032-1.031V11h-3.012c-.279 0-.333.004-.38.015a.524.524 0 0 0-.024.007c-.046.015-.094.04-.331.185l-.02.012c-.444.272-.806.493-1.12.648-.33.161-.64.267-.986.285-.084.004-.17.004-.254 0-.346-.018-.657-.124-.985-.285-.315-.155-.677-.376-1.12-.648l-.02-.012c-.238-.145-.286-.17-.332-.185a.52.52 0 0 0-.025-.007zM6.055 10c.212 0 .4 0 .583.046l.074.021c.18.056.34.154.52.265l.037.022c.469.287.791.484 1.06.615.258.127.432.176.595.184.05.002.102.002.152 0 .163-.008.337-.057.596-.184.268-.131.59-.328 1.059-.615l.036-.022c.18-.111.34-.209.521-.265.025-.008.05-.014.074-.02.184-.047.37-.047.583-.047H16v3.533c0 .443 0 .825-.041 1.13-.044.329-.143.643-.398.898-.255.254-.57.354-.897.398-.306.041-.688.041-1.131.04H4.467c-.443.001-.825.001-1.13-.04-.329-.044-.643-.144-.898-.398-.254-.255-.354-.57-.398-.897C2 14.358 2 13.976 2 13.533V10h4.055z" fill="#fff"/><path fill-rule="evenodd" clip-rule="evenodd" d="M5.858 4.5H6a.5.5 0 0 1 0 1h-.063c-.508 0-.604.011-.68.047-.078.036-.148.103-.473.493L3.348 7.764c-.252.302-.295.364-.318.428-.023.063-.03.139-.03.532V10.5a.5.5 0 0 1-1 0V8.724v-.06c0-.299 0-.563.09-.813s.26-.452.45-.68l.04-.047L4.015 5.4l.05-.06c.244-.294.461-.555.766-.698.305-.143.644-.143 1.026-.142zm6.886 1.047c-.078-.036-.173-.047-.68-.047H12a.5.5 0 1 1 0-1H12.142c.382 0 .72-.001 1.026.142.305.143.522.404.766.697l.05.06 1.437 1.725.038.046c.191.229.361.432.451.681.09.25.09.514.09.812V10.5a.5.5 0 0 1-1 0V8.724c0-.393-.007-.469-.03-.532-.023-.064-.066-.126-.318-.428L13.216 6.04c-.325-.39-.395-.457-.472-.493z" fill="#fff"/></svg>