<svg width="18" height="18" fill="none" xmlns="http://www.w3.org/2000/svg"><path d="M3.343 14.657l-.453-.211a.5.5 0 0 0 .664.664l-.21-.453zm1.7-3.65l-.454-.21.454.21zm.161-.311l-.41-.287.41.287zm1.789 2.261l-.211-.453.21.453zm.311-.161l.287.41-.287-.41zm7.923-8.775l-.462.191.462-.19zm0 .765l.462.192-.462-.192zm-.924.325L7.21 12.205l.707.707 7.094-7.094-.707-.707zm-8.508 5.68l7.094-7.094-.707-.707-7.094 7.094.707.707zm.987 1.713l-3.65 1.7.422.906 3.65-1.7-.422-.906zm-2.986 2.364l1.7-3.65-.907-.422-1.7 3.65.907.422zm1.292-4.784c-.113.112-.212.21-.293.325l.819.573c.02-.027.045-.055.181-.191l-.707-.707zm.408 1.134c.081-.175.099-.208.118-.236l-.82-.573c-.08.116-.137.242-.205.387l.907.422zm1.713.987a1.754 1.754 0 0 1-.192.18l.574.82c.116-.08.213-.18.325-.293l-.707-.707zm-.005 1.206c.144-.068.271-.125.387-.206l-.574-.82c-.027.02-.06.038-.235.12l.422.906zm7.1-9.714c.169.17.278.279.356.368a.58.58 0 0 1 .105.147l.924-.382a1.533 1.533 0 0 0-.275-.422c-.106-.121-.244-.259-.404-.418l-.707.707zm.706 2.121c.16-.16.298-.297.404-.419.109-.124.208-.258.275-.421l-.924-.383a.58.58 0 0 1-.105.147c-.078.09-.187.2-.357.369l.707.707zm-.245-1.606a.5.5 0 0 1 0 .383l.924.383a1.5 1.5 0 0 0 0-1.148l-.924.382zm.245-1.222c-.16-.16-.297-.298-.418-.404a1.535 1.535 0 0 0-.422-.275l-.383.924c.021.008.061.03.148.105.09.078.199.187.368.357l.707-.707zm-2.12.707c.169-.17.278-.28.368-.357a.58.58 0 0 1 .147-.105l-.383-.924a1.535 1.535 0 0 0-.421.275c-.122.106-.26.244-.419.404l.707.707zm1.28-1.386a1.5 1.5 0 0 0-1.148 0l.383.924a.5.5 0 0 1 .383 0l.382-.924z" fill="#fff"/><path d="M11.172 4.707l2.121 2.121" stroke="#fff"/></svg>