<svg width="18" height="18" fill="none" xmlns="http://www.w3.org/2000/svg"><path fill-rule="evenodd" clip-rule="evenodd" d="M15 2.978l.022.023c.155.155.289.289.392.407.109.125.208.259.275.422a1.5 1.5 0 0 1 0 1.148 1.533 1.533 0 0 1-.275.421 8.906 8.906 0 0 1-.392.408l-7.106 7.105-.02.021c-.105.104-.196.196-.305.272-.109.076-.227.131-.36.193l-.027.013-3.65 1.7a.5.5 0 0 1-.664-.665l1.7-3.65.012-.027c.062-.133.117-.251.193-.36.076-.109.168-.2.272-.305l.021-.02 7.105-7.106c.155-.155.29-.289.408-.392.124-.109.258-.208.421-.275a1.5 1.5 0 0 1 1.148 0c.163.067.297.166.422.275.118.103.252.237.407.392zm-1.065.362a.58.58 0 0 0-.147-.105.5.5 0 0 0-.383 0 .581.581 0 0 0-.147.105c-.09.078-.2.187-.369.357L5.795 10.79a1.754 1.754 0 0 0-.18.191c-.02.028-.038.061-.12.236l-1.12 2.407 2.407-1.12c.175-.082.208-.1.236-.12.027-.018.055-.044.191-.18l7.094-7.094c.17-.17.28-.28.357-.369a.585.585 0 0 0 .105-.147.5.5 0 0 0 0-.383.585.585 0 0 0-.105-.147c-.078-.09-.187-.199-.357-.368-.17-.17-.279-.28-.368-.357z" fill="#fff"/><path fill-rule="evenodd" clip-rule="evenodd" d="M12.94 7.182L10.818 5.06l.707-.707 2.122 2.122-.707.707z" fill="#fff"/></svg>