<svg width="18" height="18" fill="none" xmlns="http://www.w3.org/2000/svg"><path fill-rule="evenodd" clip-rule="evenodd" d="M5.437 3.259L4.03 4.666c-.62.62-.686 1.624-.173 2.933.506 1.288 1.523 2.714 2.765 3.956 1.241 1.242 2.667 2.26 3.956 2.764 1.309.514 2.313.447 2.933-.173l1.407-1.407a.5.5 0 0 0-.101-.785l-1.552-.907a.5.5 0 0 0-.533.018l-.769.52a1.5 1.5 0 0 1-1.902-.18l-3.289-3.29a1.5 1.5 0 0 1-.18-1.901l.52-.77a.5.5 0 0 0 .018-.532L6.223 3.36a.5.5 0 0 0-.786-.101zm-2.114.7L4.73 2.552a1.5 1.5 0 0 1 2.356.303l.907 1.552a1.5 1.5 0 0 1-.053 1.598l-.52.77a.5.5 0 0 0 .06.634l3.288 3.288a.5.5 0 0 0 .634.06l.77-.52a1.5 1.5 0 0 1 1.598-.053l1.551.907a1.5 1.5 0 0 1 .304 2.356l-1.407 1.407c-1.049 1.048-2.57.96-4.005.397-1.455-.571-2.993-1.684-4.298-2.989C4.61 10.957 3.497 9.42 2.926 7.964c-.563-1.436-.651-2.957.397-4.005z" fill="#fff"/><path fill-rule="evenodd" clip-rule="evenodd" d="M10 2.5a.5.5 0 0 1 .5-.5h2a.5.5 0 0 1 .5.5v2a.5.5 0 1 1-1 0v-.793L9.854 5.854a.5.5 0 1 1-.708-.708L11.293 3H10.5a.5.5 0 0 1-.5-.5zM12.5 6a.5.5 0 0 1 .5.5v.793l2.146-2.147a.5.5 0 1 1 .708.708L13.707 8h.793a.5.5 0 1 1 0 1h-2a.5.5 0 0 1-.5-.5v-2a.5.5 0 0 1 .5-.5z" fill="#fff"/></svg>