<svg fill="none" height="18" width="18" xmlns="http://www.w3.org/2000/svg"><path d="m2.5 7.9c0-.943 0-1.414.293-1.707s.764-.293 1.707-.293h.64c.337 0 .506 0 .66-.05a1 1 0 0 0 .276-.143c.13-.095.228-.232.424-.507s.294-.412.424-.507a1 1 0 0 1 .277-.142c.153-.051.322-.051.66-.051h2.279c.337 0 .506 0 .66.05.098.033.191.081.276.143.13.095.228.232.424.507s.294.412.424.507c.085.062.178.11.277.142.153.051.322.051.66.051h.639c.943 0 1.414 0 1.707.293s.293.764.293 1.707v3.85c0 .943 0 1.414-.293 1.707s-.764.293-1.707.293h-9c-.943 0-1.414 0-1.707-.293s-.293-.764-.293-1.707z" stroke="#fff" stroke-linecap="round"/><path d="m11 9.5a2 2 0 1 1 -4 0 2 2 0 0 1 4 0z" stroke="#fff" stroke-linecap="round"/><path d="m12.472 8.014a.514.514 0 1 1 1.028 0 .514.514 0 1 1 -1.028 0z" fill="#fff"/></svg>