<svg width="18" height="18" fill="none" xmlns="http://www.w3.org/2000/svg"><g clip-path="url(#clip0_821_19404)"><path d="M15.707 15.707l.354.354-.354-.354zm0-13.414l-.354.353.354-.353zM4 2.5h10v-1H4v1zM2.5 14V4h-1v10h1zM14 15.5H4v1h10v-1zM15.5 4v10h1V4h-1zM14 16.5c.457 0 .85.001 1.164-.041.328-.044.642-.143.897-.398l-.707-.707c-.038.038-.106.085-.323.114-.232.03-.546.032-1.031.032v1zm1.5-2.5c0 .486-.001.8-.032 1.03-.03.218-.076.286-.114.324l.707.707c.255-.255.354-.57.398-.897.042-.313.041-.707.041-1.164h-1zm-14 0c0 .457-.001.85.041 1.164.044.328.144.642.398.897l.707-.707c-.038-.038-.085-.106-.114-.323-.03-.232-.032-.546-.032-1.031h-1zM4 15.5c-.486 0-.8-.001-1.03-.032-.218-.03-.285-.076-.324-.114l-.707.707c.255.255.57.354.897.398.313.042.707.041 1.164.041v-1zm10-13c.486 0 .8.001 1.03.032.218.03.286.076.324.114l.707-.707c-.255-.254-.57-.354-.897-.398C14.85 1.5 14.457 1.5 14 1.5v1zM16.5 4c0-.457.001-.85-.041-1.164-.044-.328-.143-.642-.398-.897l-.707.707c.038.039.085.106.114.323.03.232.032.545.032 1.031h1zM4 1.5c-.457 0-.85-.001-1.164.041-.328.044-.642.144-.897.398l.707.707c.039-.038.106-.085.323-.114.232-.03.545-.032 1.031-.032v-1zM2.5 4c0-.486.001-.8.032-1.03.03-.218.076-.285.114-.324L1.94 1.94c-.254.255-.354.57-.398.897C1.5 3.15 1.5 3.543 1.5 4h1z" fill="#fff"/><path d="M9 11.5L7.031 9.531c-.717-.717-1.075-1.075-1.515-1.06-.44.014-.774.395-1.44 1.157L2 12m14-2.5l-2.574-2.895c-.668-.752-1.002-1.128-1.44-1.14-.438-.013-.794.343-1.505 1.054L7.5 9.5" stroke="#fff" stroke-linecap="round" stroke-linejoin="round"/></g><defs><clipPath id="clip0_821_19404"><path fill="#fff" d="M0 0H18V18H0z"/></clipPath></defs></svg>