<svg width="18" height="18" fill="none" xmlns="http://www.w3.org/2000/svg"><g clip-path="url(#clip0_877_10980)" fill-rule="evenodd" clip-rule="evenodd" fill="#fff"><path d="M3.967 1.5H14.033c.443 0 .825 0 1.13.041.329.044.643.144.898.398.255.255.354.57.398.897.041.306.041.688.041 1.131v10.066c0 .443 0 .825-.041 1.13-.044.329-.143.643-.398.898s-.57.354-.897.398c-.306.041-.688.041-1.131.041H3.967c-.443 0-.825 0-1.13-.041-.329-.044-.643-.143-.898-.398-.254-.255-.354-.57-.398-.897-.041-.306-.041-.688-.041-1.131V4v-.033c0-.443 0-.825.041-1.13.044-.329.144-.643.398-.898.255-.254.57-.354.897-.398.306-.041.688-.041 1.131-.041zM2.97 2.532c-.217.03-.284.076-.323.114-.038.039-.085.106-.114.323-.03.232-.032.545-.032 1.031v10c0 .486.001.8.032 1.03.03.218.076.286.114.324.039.038.106.085.323.114.232.03.545.032 1.031.032h10c.486 0 .8-.001 1.03-.032.218-.03.286-.076.324-.114.038-.038.085-.106.114-.323.03-.232.032-.546.032-1.031V4c0-.486-.001-.8-.032-1.03-.03-.218-.076-.285-.114-.324-.038-.038-.106-.085-.323-.114-.232-.03-.546-.032-1.031-.032H4c-.486 0-.8.001-1.03.032z"/><path d="M7.365 9.158l.024.024 1.97 1.969a.492.492 0 0 1-.005.703.508.508 0 0 1-.712-.005L6.672 9.88c-.368-.369-.608-.608-.809-.76-.188-.142-.275-.155-.33-.153-.056.002-.142.02-.32.175-.19.165-.414.419-.757.81l-2.075 2.373a.508.508 0 0 1-.71.051.492.492 0 0 1-.052-.7l2.076-2.373.022-.025c.314-.36.583-.667.831-.882.265-.23.567-.41.951-.422.384-.013.697.147.977.359.262.198.551.487.889.825z"/><path d="M13.782 6.251l.023.026 2.573 2.895a.492.492 0 0 1-.046.701.508.508 0 0 1-.71-.045l-2.574-2.896c-.344-.386-.568-.637-.757-.799-.179-.152-.264-.17-.32-.172-.055-.002-.141.012-.328.153-.2.15-.438.388-.804.754L7.859 9.85a.508.508 0 0 1-.713.005.492.492 0 0 1-.004-.703l2.98-2.98.025-.025c.335-.335.622-.622.883-.82.278-.21.589-.37.971-.358.382.011.683.187.948.414.248.212.518.515.833.87z"/></g><defs><clipPath id="clip0_877_10980"><path fill="#fff" d="M0 0H18V18H0z"/></clipPath></defs></svg>