<svg width="18" height="18" fill="none" xmlns="http://www.w3.org/2000/svg"><path fill-rule="evenodd" clip-rule="evenodd" d="M5.928 2.921c-.192.152-.427.385-.78.738l-1.51 1.51c-.327.328-.544.545-.688.723-.141.175-.16.252-.164.286a.5.5 0 0 0 .046.27c.015.032.059.097.25.215.196.12.472.252.89.452l.062.03c.65.31 1.06.505 1.403.793a3.5 3.5 0 0 1 .508.528c.275.353.455.77.741 1.432.01.02.018.042.027.063l.164.38c.271.627.453 1.046.627 1.326.168.27.264.307.322.318.058.011.161.013.417-.177.265-.196.588-.518 1.072-1.002l1.542-1.542c.474-.473.788-.79.98-1.048.186-.25.185-.352.175-.41-.01-.057-.046-.153-.306-.323-.27-.176-.675-.363-1.283-.643l-.464-.213-.064-.029c-.67-.308-1.09-.501-1.445-.794a3.5 3.5 0 0 1-.366-.35c-.308-.342-.52-.755-.856-1.41-.01-.021-.02-.042-.032-.063-.227-.444-.379-.738-.515-.942-.133-.199-.206-.24-.243-.254a.5.5 0 0 0-.2-.031c-.04.002-.123.018-.31.167zm-.621-.784c.253-.2.535-.365.881-.382a1.5 1.5 0 0 1 .603.095c.324.122.542.365.721.634.173.257.35.604.56 1.014l.014.027c.379.739.53 1.026.74 1.258a2.5 2.5 0 0 0 .262.25c.24.2.534.34 1.288.686l.5.23c.563.258 1.036.475 1.375.696.356.231.663.529.745.985.082.456-.103.842-.357 1.183-.24.324-.609.692-1.047 1.13l-1.598 1.599c-.448.448-.824.823-1.154 1.069-.346.257-.739.445-1.202.356-.462-.088-.758-.408-.985-.774-.216-.35-.427-.838-.678-1.42l-.18-.415c-.322-.746-.452-1.037-.639-1.278a2.5 2.5 0 0 0-.362-.376c-.234-.197-.52-.337-1.253-.687l-.024-.012c-.387-.184-.712-.34-.958-.49-.253-.156-.49-.346-.628-.632a1.5 1.5 0 0 1-.14-.814c.035-.316.194-.574.382-.805.18-.224.436-.48.738-.782l1.551-1.55c.326-.327.602-.602.845-.795z" fill="#fff"/><path fill-rule="evenodd" clip-rule="evenodd" d="M10.146 10.146a.5.5 0 0 1 .707 0l4.5 4.5a.5.5 0 0 1-.707.708l-4.5-4.5a.5.5 0 0 1 0-.708z" fill="#fff"/></svg>