<svg width="18" height="18" fill="none" xmlns="http://www.w3.org/2000/svg"><path fill-rule="evenodd" clip-rule="evenodd" d="M7.223 3.301l6.103 3.56c.629.367 1.15.67 1.508.958.37.296.681.664.681 1.181s-.312.885-.681 1.181c-.359.287-.88.59-1.508.957l-6.103 3.56c-.637.372-1.164.68-1.595.852-.444.178-.923.27-1.375.01-.453-.26-.615-.72-.685-1.193-.068-.46-.068-1.07-.068-1.807V5.44c0-.737 0-1.348.068-1.807.07-.473.232-.933.685-1.193.452-.26.931-.168 1.375.01.431.172.958.48 1.595.851zm-1.967.077c-.35-.14-.456-.099-.505-.07-.05.028-.138.099-.194.472-.056.377-.057.912-.057 1.702v7.036c0 .79.001 1.325.057 1.702.056.373.145.444.194.473.05.028.155.069.505-.071.354-.142.817-.41 1.5-.808l6.03-3.518c.674-.393 1.129-.66 1.423-.895.29-.232.306-.344.306-.401 0-.057-.017-.169-.306-.4-.294-.236-.749-.503-1.422-.896L6.756 4.186c-.683-.398-1.146-.666-1.5-.808z" fill="#fff"/></svg>