<svg width="18" height="18" fill="none" xmlns="http://www.w3.org/2000/svg"><g clip-path="url(#clip0_877_10941)" fill-rule="evenodd" clip-rule="evenodd" fill="#fff"><path d="M6.448 2.5h5.104c.667 0 1.206 0 1.638.043.447.045.834.14 1.178.365a2.5 2.5 0 0 1 .724.724c.225.344.32.731.365 1.178.043.432.043.97.043 1.638v2.183c0 1.13-.268 2.245-.781 3.252-2.382 4.672-9.056 4.672-11.438 0A7.16 7.16 0 0 1 2.5 8.63V6.448c0-.667 0-1.206.043-1.638.045-.447.14-.834.365-1.178a2.5 2.5 0 0 1 .724-.724c.344-.225.731-.32 1.178-.365.432-.043.97-.043 1.638-.043zM4.91 3.538c-.368.037-.575.106-.73.207a1.5 1.5 0 0 0-.434.434c-.101.154-.17.362-.207.73-.037.377-.038.865-.038 1.566V8.63c0 .973.23 1.931.672 2.798 2.01 3.944 7.646 3.944 9.656 0A6.16 6.16 0 0 0 14.5 8.63V6.475c0-.7 0-1.189-.038-1.566-.037-.368-.106-.575-.207-.73a1.5 1.5 0 0 0-.434-.434c-.155-.101-.361-.17-.73-.207-.377-.037-.865-.038-1.566-.038h-5.05c-.7 0-1.189 0-1.566.038z"/><path d="M5.646 7.646a.5.5 0 0 1 .708 0l1.585 1.586c.344.344.566.565.752.706.174.133.255.148.309.148.054 0 .135-.015.31-.148.185-.141.407-.362.75-.706l1.586-1.586a.5.5 0 0 1 .708.708l-1.61 1.609c-.313.313-.583.583-.828.77-.263.2-.556.353-.916.353s-.653-.152-.916-.353c-.245-.187-.515-.457-.828-.77a25.548 25.548 0 0 0-.024-.024L5.646 8.354a.5.5 0 0 1 0-.708z"/></g><defs><clipPath id="clip0_877_10941"><path fill="#fff" d="M0 0H18V18H0z"/></clipPath></defs></svg>