<svg width="18" height="18" fill="none" xmlns="http://www.w3.org/2000/svg"><g clip-path="url(#clip0_821_19365)" stroke="#fff"><path d="M3 6.475c0-1.38 0-2.07.326-2.57a2 2 0 0 1 .58-.579C4.403 3 5.093 3 6.474 3h5.05c1.38 0 2.07 0 2.57.326a2 2 0 0 1 .579.58C15 4.403 15 5.093 15 6.474V8.63a6.658 6.658 0 0 1-.726 3.025c-2.197 4.307-8.351 4.307-10.548 0A6.66 6.66 0 0 1 3 8.63V6.475z"/><path d="M6 8l1.586 1.586c.666.666 1 1 1.414 1 .414 0 .748-.334 1.414-1L12 8" stroke-linecap="round"/></g><defs><clipPath id="clip0_821_19365"><path fill="#fff" d="M0 0H18V18H0z"/></clipPath></defs></svg>