<svg width="18" height="18" fill="none" xmlns="http://www.w3.org/2000/svg"><path fill-rule="evenodd" clip-rule="evenodd" d="M5.362 2.155a.5.5 0 0 1-.017.707c-3.264 3.104-2.662 7.281-1.743 9.03a.5.5 0 0 1-.885.466C1.654 10.334.977 5.635 4.655 2.138a.5.5 0 0 1 .707.017zm7.058 1.21c.537-.66 1.516-.77 2.196-.267l.706.52c.694.513.833 1.482.285 2.157l-7.083 8.77a1.56 1.56 0 0 1-.454.38l-1.828 1.012a1.327 1.327 0 0 1-1.482-.123c-.387-.31-.614-.858-.392-1.429l.706-1.812.464.181-.464-.18c.057-.147.136-.284.236-.406L8.249 8.56a.5.5 0 1 1 .775.632L6.085 12.8a.509.509 0 0 0-.08.136L5.3 14.748c-.041.106-.013.207.085.285.1.08.24.103.373.03l1.827-1.013a.558.558 0 0 0 .163-.136l7.082-8.769.001-.001a.493.493 0 0 0-.103-.72l-.706-.522a.614.614 0 0 0-.827.094l-.574.705a.778.778 0 0 1-1.062.132l-.566-.418a.059.059 0 0 0-.042-.01c-.018.002-.027.01-.03.013l-1.033 1.27a.5.5 0 0 1-.776-.632l1.034-1.27a1.057 1.057 0 0 1 1.44-.176l.396.292.438-.538z" fill="#fff"/></svg>