<svg fill="none" height="24" width="24" xmlns="http://www.w3.org/2000/svg"><g stroke="currentColor" stroke-width="2"><path d="M5.483 2.714a9.02 9.02 0 0 0-2.769 6.5 9.016 9.016 0 0 0 2.675 6.408m13.128.092a9.02 9.02 0 0 0 2.769-6.5 9.013 9.013 0 0 0-2.675-6.407M7.927 5.152a5.635 5.635 0 0 0-.059 8.067m8.205.058a5.636 5.636 0 0 0 .059-8.067" stroke-linecap="round"/><path d="M13.321 9.214c0 .692-.575 1.282-1.321 1.282s-1.321-.59-1.321-1.282c0-.69.575-1.28 1.321-1.28s1.321.59 1.321 1.28z" fill="currentColor"/><path d="M12 11.072v9.285" stroke-linecap="round" stroke-linejoin="round"/></g></svg>