<svg width="18" height="18" fill="none" xmlns="http://www.w3.org/2000/svg"><g clip-path="url(#clip0_821_19297)" stroke="#fff"><path d="M5.34 14.896c-.282.17-.423.254-.532.29a1 1 0 0 1-1.282-.727c-.026-.111-.026-.276-.026-.605V4.5c0-.943 0-1.414.293-1.707C4.086 2.5 4.557 2.5 5.5 2.5h7c.943 0 1.414 0 1.707.293.293.293.293.764.293 1.707v9.354c0 .33 0 .494-.026.605a1 1 0 0 1-1.282.726c-.109-.035-.25-.12-.533-.29-.112-.067-.168-.1-.224-.125a1 1 0 0 0-.857.02 2.222 2.222 0 0 0-.218.137l-.11.073c-.188.125-.282.188-.378.226a1 1 0 0 1-.744 0c-.096-.038-.19-.1-.378-.226-.188-.125-.282-.188-.378-.226a1 1 0 0 0-.744 0c-.096.038-.19.1-.378.226-.188.125-.282.188-.378.226a1 1 0 0 1-.744 0c-.096-.038-.19-.1-.378-.226l-.11-.073a2.234 2.234 0 0 0-.218-.137 1 1 0 0 0-.857-.02 2.242 2.242 0 0 0-.224.126z"/><path d="M6 6h6M6 9h2.625m2.625 0H12m-6 3h1.5m3.75 0H12" stroke-linecap="round"/></g><defs><clipPath id="clip0_821_19297"><path fill="#fff" d="M0 0H18V18H0z"/></clipPath></defs></svg>