<svg width="18" height="18" fill="none" xmlns="http://www.w3.org/2000/svg"><g clip-path="url(#clip0_877_10873)" fill-rule="evenodd" clip-rule="evenodd" fill="#fff"><path d="M3 13.917V4.467c0-.443 0-.825.041-1.13.044-.329.144-.643.398-.898.255-.254.57-.354.897-.398C4.642 2 5.024 2 5.467 2h7.066c.443 0 .825 0 1.13.041.329.044.643.144.898.398.255.255.354.57.398.897.041.306.041.688.041 1.131V13.917c0 .266 0 .486-.039.655a1.5 1.5 0 0 1-1.923 1.089c-.165-.053-.353-.167-.581-.304l-.055-.033a2.02 2.02 0 0 0-.17-.098.5.5 0 0 0-.429.01c-.02.01-.045.027-.166.107l-.11.073-.032.022c-.156.103-.291.194-.437.253a1.5 1.5 0 0 1-1.116 0c-.146-.059-.281-.15-.437-.253a9.393 9.393 0 0 1-.032-.022c-.207-.138-.25-.164-.287-.178a.5.5 0 0 0-.372 0c-.037.014-.08.04-.287.178l-.032.022c-.156.103-.291.194-.437.253a1.5 1.5 0 0 1-1.116 0c-.146-.059-.281-.15-.437-.253a8.534 8.534 0 0 1-.032-.022l-.11-.073a2.025 2.025 0 0 0-.166-.107.5.5 0 0 0-.429-.01 2.02 2.02 0 0 0-.17.098l-.055.033c-.228.137-.416.25-.58.304a1.5 1.5 0 0 1-1.924-1.09c-.04-.168-.04-.388-.039-.654zm1-.063c0 .364.004.452.013.493a.5.5 0 0 0 .641.363c.04-.013.117-.056.43-.243a2.457 2.457 0 0 1 .278-.154 1.5 1.5 0 0 1 1.285.03c.082.042.16.095.251.155l.02.013.11.073c.206.138.25.164.286.178a.5.5 0 0 0 .372 0c.037-.014.08-.04.287-.178l.032-.022c.156-.103.291-.194.437-.253a1.5 1.5 0 0 1 1.116 0c.146.059.281.15.437.253l.032.022c.207.138.25.164.287.178a.5.5 0 0 0 .372 0c.037-.014.08-.04.287-.178l.11-.073.019-.013c.09-.06.17-.113.252-.155a1.5 1.5 0 0 1 1.284-.03c.085.037.166.086.26.142l.019.012c.312.187.39.23.429.242a.5.5 0 0 0 .641-.362c.01-.04.013-.129.013-.493V4.5c0-.486-.001-.8-.032-1.03-.03-.218-.076-.285-.114-.324-.038-.038-.106-.085-.323-.114C13.299 3.002 12.986 3 12.5 3h-7c-.486 0-.8.001-1.03.032-.218.03-.285.076-.324.114-.038.039-.085.107-.114.323C4.002 3.701 4 4.014 4 4.5v9.354z"/><path d="M5.5 6a.5.5 0 0 1 .5-.5h6a.5.5 0 0 1 0 1H6a.5.5 0 0 1-.5-.5zm0 3a.5.5 0 0 1 .5-.5h2.625a.5.5 0 0 1 0 1H6a.5.5 0 0 1-.5-.5zm0 3a.5.5 0 0 1 .5-.5h1.5a.5.5 0 0 1 0 1H6a.5.5 0 0 1-.5-.5zm5.25-3a.5.5 0 0 1 .5-.5H12a.5.5 0 0 1 0 1h-.75a.5.5 0 0 1-.5-.5zm0 3a.5.5 0 0 1 .5-.5H12a.5.5 0 0 1 0 1h-.75a.5.5 0 0 1-.5-.5z"/></g><defs><clipPath id="clip0_877_10873"><path fill="#fff" d="M0 0H18V18H0z"/></clipPath></defs></svg>