<svg width="18" height="18" fill="none" xmlns="http://www.w3.org/2000/svg"><path d="M7.293 15.207l-.354.354.354-.354zm7.414 0l-.353-.353.353.353zM14.5 8v5.5h1V8h-1zM13 15H9v1h4v-1zm-5.5-1.5V8h-1v5.5h1zm1.5-7H13v-1H9.001v1zM9 15c-.486 0-.8-.001-1.03-.032-.218-.03-.285-.076-.324-.114l-.707.707c.255.255.57.354.897.398C8.15 16 8.543 16 9 16v-1zm-2.5-1.5c0 .457-.001.85.041 1.164.044.328.144.642.398.897l.707-.707c-.038-.038-.085-.106-.114-.323-.03-.232-.032-.546-.032-1.031h-1zm8 0c0 .486-.001.8-.032 1.03-.03.218-.076.286-.114.324l.707.707c.255-.255.354-.57.398-.897.042-.313.041-.707.041-1.164h-1zM13 16c.457 0 .85.001 1.164-.041.328-.044.642-.143.897-.398l-.707-.707c-.038.038-.106.085-.323.114-.232.03-.546.032-1.031.032v1zm2.5-8c0-.457.001-.85-.041-1.164-.044-.328-.143-.642-.398-.897l-.707.707c.038.039.085.106.114.323.03.232.032.545.032 1.031h1zM13 6.5c.485 0 .8.001 1.03.032.218.03.286.076.324.114l.707-.707c-.255-.255-.57-.354-.897-.398-.314-.042-.707-.041-1.165-.041v1zM7.5 8c0-.486.001-.8.032-1.03.03-.218.076-.285.114-.324L6.94 5.94c-.254.255-.354.57-.398.897C6.5 7.15 6.5 7.543 6.5 8h1zM9 5.5c-.457 0-.85-.001-1.164.041-.328.044-.642.143-.897.398l.707.707c.038-.038.106-.085.323-.114.232-.03.546-.032 1.032-.032v-1z" fill="#fff"/><path d="M3.293 11.707l.353-.353-.353.353zM3.5 10V4.5h-1V10h1zM5 3H9V2H5.001v1zm5.5 1.5V6h1V4.5h-1zm-3.5 7H5v1h2v-1zM2.5 10c0 .457-.001.85.041 1.164.044.328.144.642.398.897l.707-.707c-.038-.038-.085-.106-.114-.323-.03-.232-.032-.546-.032-1.031h-1zM5 11.5c-.486 0-.8-.001-1.03-.032-.218-.03-.285-.076-.324-.114l-.707.707c.255.255.57.354.897.398.313.042.707.041 1.164.041v-1zM9 3c.485 0 .8.001 1.03.032.218.03.286.076.324.114l.707-.707c-.255-.255-.57-.354-.897-.398C9.85 2 9.457 2 8.999 2v1zm2.5 1.5c0-.457.001-.85-.041-1.164-.044-.328-.143-.642-.398-.897l-.707.707c.038.039.085.106.114.323.03.232.032.545.032 1.031h1zm-8 0c0-.486.001-.8.032-1.03.03-.218.076-.285.114-.324L2.94 2.44c-.254.255-.354.57-.398.897C2.5 3.65 2.5 4.043 2.5 4.5h1zM5 2c-.457 0-.85-.001-1.164.041-.328.044-.642.143-.897.398l.707.707c.038-.038.106-.085.323-.114.232-.03.546-.032 1.032-.032V2z" fill="#fff"/></svg>