<svg width="18" height="18" fill="none" xmlns="http://www.w3.org/2000/svg"><path fill-rule="evenodd" clip-rule="evenodd" d="M11.5 5h-5V4h5v1zM5 6.5v5H4v-5h1zm8 5v-5h1v5h-1zM6.5 13h5v1h-5v-1z" fill="#fff"/><path fill-rule="evenodd" clip-rule="evenodd" d="M4.467 2h.066c.443 0 .825 0 1.13.041.329.044.643.144.898.398.254.255.354.57.398.897C7 3.642 7 4.024 7 4.467v.066c0 .443 0 .825-.041 1.13-.044.329-.144.643-.398.898-.255.254-.57.354-.897.398C5.358 7 4.976 7 4.533 7h-.066c-.443 0-.825 0-1.13-.041-.329-.044-.643-.144-.898-.398-.254-.255-.354-.57-.398-.897C2 5.358 2 4.976 2 4.533V4.5v-.033c0-.443 0-.825.041-1.13.044-.329.144-.643.398-.898.255-.254.57-.354.897-.398C3.642 2 4.024 2 4.467 2zM3.47 3.032c-.217.03-.284.076-.323.114-.038.039-.085.106-.114.323C3.002 3.701 3 4.014 3 4.5c0 .486.001.8.032 1.03.03.218.076.285.114.324.039.038.106.085.323.114.232.03.545.032 1.031.032.486 0 .8-.001 1.03-.032.218-.03.285-.076.324-.114.038-.039.085-.106.114-.323C5.998 5.299 6 4.986 6 4.5c0-.486-.001-.8-.032-1.03-.03-.218-.076-.285-.114-.324-.039-.038-.106-.085-.323-.114C5.299 3.002 4.986 3 4.5 3c-.486 0-.8.001-1.03.032zM4.467 11h.066c.443 0 .825 0 1.13.041.329.044.643.143.898.398.254.255.354.57.398.897.041.306.041.688.041 1.131v.066c0 .443 0 .825-.041 1.13-.044.329-.144.643-.398.898-.255.255-.57.354-.897.398C5.358 16 4.976 16 4.533 16h-.066c-.443 0-.825 0-1.13-.041-.329-.044-.643-.143-.898-.398-.254-.255-.354-.57-.398-.897C2 14.358 2 13.976 2 13.533V13.5v-.033c0-.443 0-.825.041-1.13.044-.329.144-.643.398-.898.255-.255.57-.354.897-.398C3.642 11 4.024 11 4.467 11zm-.998 1.032c-.217.03-.284.076-.323.114-.038.038-.085.106-.114.323-.03.232-.032.546-.032 1.031 0 .486.001.8.032 1.03.03.218.076.286.114.324.039.038.106.085.323.114.232.03.545.032 1.031.032.486 0 .8-.001 1.03-.032.218-.03.285-.076.324-.114.038-.038.085-.106.114-.323.03-.232.032-.546.032-1.031 0-.486-.001-.8-.032-1.03-.03-.218-.076-.286-.114-.324-.039-.038-.106-.085-.323-.114C5.299 12.002 4.986 12 4.5 12c-.486 0-.8.001-1.03.032zM13.467 11h.066c.443 0 .825 0 1.13.041.329.044.643.143.898.398s.354.57.398.897c.041.306.041.688.041 1.131v.066c0 .443 0 .825-.041 1.13-.044.329-.143.643-.398.898s-.57.354-.897.398c-.306.041-.688.041-1.131.041h-.066c-.443 0-.825 0-1.13-.041-.329-.044-.643-.143-.898-.398s-.354-.57-.398-.897C11 14.358 11 13.976 11 13.533V13.5v-.033c0-.443 0-.825.041-1.13.044-.329.143-.643.398-.898s.57-.354.897-.398c.306-.041.688-.041 1.131-.041zm-.998 1.032c-.216.03-.284.076-.323.114-.038.038-.085.106-.114.323-.03.232-.032.546-.032 1.031 0 .486.001.8.032 1.03.03.218.076.286.114.324.038.038.106.085.323.114.232.03.546.032 1.031.032.486 0 .8-.001 1.03-.032.218-.03.286-.076.324-.114.038-.038.085-.106.114-.323.03-.232.032-.546.032-1.031 0-.486-.001-.8-.032-1.03-.03-.218-.076-.286-.114-.324-.038-.038-.106-.085-.323-.114-.232-.03-.546-.032-1.031-.032-.486 0-.8.001-1.03.032zM13.467 2h.066c.443 0 .825 0 1.13.041.329.044.643.144.898.398.255.255.354.57.398.897.041.306.041.688.041 1.131v.066c0 .443 0 .825-.041 1.13-.044.329-.143.643-.398.898-.255.254-.57.354-.897.398C14.358 7 13.976 7 13.533 7h-.066c-.443 0-.825 0-1.13-.041-.329-.044-.643-.144-.898-.398-.255-.255-.354-.57-.398-.897C11 5.358 11 4.976 11 4.533V4.5v-.033c0-.443 0-.825.041-1.13.044-.329.143-.643.398-.898.255-.254.57-.354.897-.398C12.642 2 13.024 2 13.467 2zm-.998 1.032c-.216.03-.284.076-.323.114-.038.039-.085.106-.114.323-.03.232-.032.545-.032 1.031 0 .486.001.8.032 1.03.03.218.076.285.114.324.038.038.106.085.323.114.232.03.546.032 1.031.032.486 0 .8-.001 1.03-.032.218-.03.286-.076.324-.114.038-.039.085-.106.114-.323.03-.232.032-.545.032-1.031 0-.486-.001-.8-.032-1.03-.03-.218-.076-.285-.114-.324-.038-.038-.106-.085-.323-.114C14.299 3.002 13.985 3 13.5 3c-.486 0-.8.001-1.03.032z" fill="#fff"/></svg>