<svg width="18" height="18" fill="none" xmlns="http://www.w3.org/2000/svg"><path fill-rule="evenodd" clip-rule="evenodd" d="M8.967 6.5h.066c.443 0 .825 0 1.13.041.329.044.643.144.898.398.255.255.354.57.398.897.041.306.041.688.041 1.131v.066c0 .443 0 .825-.041 1.13-.044.329-.143.643-.398.898s-.57.354-.897.398c-.306.041-.688.041-1.131.041h-.066c-.443 0-.825 0-1.13-.041-.329-.044-.643-.143-.898-.398-.254-.255-.354-.57-.398-.897C6.5 9.858 6.5 9.476 6.5 9.033V9v-.033c0-.443 0-.825.041-1.13.044-.329.144-.643.398-.898.255-.254.57-.354.897-.398.306-.041.688-.041 1.131-.041zM7.97 7.532c-.217.03-.284.076-.323.114-.038.039-.085.106-.114.323-.03.232-.032.545-.032 1.031 0 .486.001.8.032 1.03.03.218.076.286.114.324.039.038.106.085.323.114.232.03.545.032 1.031.032.486 0 .8-.001 1.03-.032.218-.03.286-.076.324-.114.038-.038.085-.106.114-.323.03-.232.032-.545.032-1.031 0-.486-.001-.8-.032-1.03-.03-.218-.076-.285-.114-.324-.038-.038-.106-.085-.323-.114C9.799 7.502 9.486 7.5 9 7.5c-.486 0-.8.001-1.03.032zM14 3a1 1 0 1 0 0 2 1 1 0 0 0 0-2zm-2 1a2 2 0 1 1 4 0 2 2 0 0 1-4 0zm2 9a1 1 0 1 0 0 2 1 1 0 0 0 0-2zm-2 1a2 2 0 1 1 4 0 2 2 0 0 1-4 0zm-8-1a1 1 0 1 0 0 2 1 1 0 0 0 0-2zm-2 1a2 2 0 1 1 4 0 2 2 0 0 1-4 0zM4 3a1 1 0 1 0 0 2 1 1 0 0 0 0-2zM2 4a2 2 0 1 1 4 0 2 2 0 0 1-4 0z" fill="#fff"/><path fill-rule="evenodd" clip-rule="evenodd" d="M6.646 7.354l-2-2 .708-.708 2 2-.708.708zm6.708-2l-2 2-.708-.708 2-2 .707.708zm-6 6l-2 2-.708-.707 2-2 .708.707zm4-.707l2 2-.708.707-2-2 .707-.707z" fill="#fff"/></svg>