<svg fill="none" height="18" width="18" xmlns="http://www.w3.org/2000/svg"><g fill="currentColor"><path d="M3.086 13.414l-.354.354zm11.828-8.828l-.353.353zM15 8v2h1V8zm-3.5 5.5h-5v1h5zM3 10V8H2v2zm3.5-5.5h5v-1H6.502v1zm0 9c-.957 0-1.624-.001-2.128-.069-.49-.065-.748-.186-.933-.37l-.707.707c.402.401.907.574 1.507.654.586.08 1.332.078 2.261.078zM2 10c0 .929-.001 1.675.078 2.261.08.6.253 1.106.654 1.507l.707-.707c-.184-.185-.304-.444-.37-.933C3 11.624 3 10.957 3 10zm13 0c0 .957-.001 1.624-.069 2.128-.065.49-.186.748-.37.933l.707.707c.401-.402.574-.907.654-1.507.08-.585.078-1.332.078-2.261zm-3.5 4.5c.929 0 1.675.001 2.261-.078.6-.08 1.106-.253 1.507-.654l-.707-.707c-.185.184-.444.305-.933.37-.504.068-1.171.069-2.128.069zM16 8c0-.929.001-1.675-.078-2.261-.08-.6-.253-1.105-.654-1.507l-.707.707c.184.185.305.444.37.933C15 6.376 15 7.043 15 8zm-4.5-3.5c.957 0 1.624.001 2.128.069.49.066.748.186.933.37l.707-.707c-.402-.401-.907-.574-1.507-.654-.586-.08-1.333-.078-2.261-.078zM3 8c0-.957.001-1.624.069-2.128.066-.49.186-.748.37-.933l-.707-.707c-.401.402-.574.907-.654 1.507C1.998 6.325 2 7.07 2 8zm3.5-4.5c-.928 0-1.675-.001-2.261.078-.6.08-1.105.253-1.507.654l.707.707c.185-.184.444-.304.933-.37C4.876 4.5 5.543 4.5 6.5 4.5z"/><path d="M16 10V8c0-1.886 0-2.828-.586-3.414S13.886 4 12 4H9v10h3c1.886 0 2.828 0 3.414-.586S16 11.886 16 10z"/></g></svg>