<svg width="18" height="18" fill="none" xmlns="http://www.w3.org/2000/svg"><path fill-rule="evenodd" clip-rule="evenodd" d="M8.968 5.5h4.064c.444 0 .826 0 1.132.041.328.044.642.143.897.398s.354.57.398.897c.041.306.041.688.041 1.131v5.566c0 .443 0 .825-.041 1.13-.044.329-.143.643-.398.898s-.57.354-.897.398c-.306.041-.688.041-1.131.041H8.967c-.443 0-.825 0-1.13-.041-.329-.044-.643-.143-.898-.398-.254-.255-.354-.57-.398-.897-.041-.306-.041-.688-.041-1.131V8v-.033c0-.443 0-.825.041-1.13.044-.329.144-.643.398-.898.255-.255.57-.354.897-.398.306-.041.688-.041 1.132-.041zm-.999 1.032c-.217.03-.285.076-.323.114-.038.039-.085.106-.114.323-.03.232-.032.545-.032 1.031v5.5c0 .486.001.8.032 1.03.03.218.076.286.114.324.039.038.106.085.323.114.232.03.545.032 1.031.032h4c.486 0 .8-.001 1.03-.032.218-.03.286-.076.324-.114.038-.038.085-.106.114-.323.03-.232.032-.546.032-1.031V8c0-.486-.001-.8-.032-1.03-.03-.218-.076-.285-.114-.324-.038-.038-.106-.085-.323-.114-.232-.03-.546-.032-1.032-.032H9.002c-.486 0-.8.001-1.032.032z" fill="#fff"/><path fill-rule="evenodd" clip-rule="evenodd" d="M4.968 2h4.064c.444 0 .826 0 1.132.041.328.044.642.143.897.398s.354.57.398.897c.041.306.041.688.041 1.131V6h-1V4.5c0-.486-.001-.8-.032-1.03-.03-.218-.076-.285-.114-.324-.038-.038-.106-.085-.323-.114C9.799 3.002 9.485 3 8.998 3H5.001c-.486 0-.8.001-1.032.032-.217.03-.285.076-.323.114-.038.039-.085.106-.114.323-.03.232-.032.545-.032 1.031V10c0 .486.001.8.032 1.03.03.218.076.286.114.324.039.038.106.085.323.114.232.03.545.032 1.031.032h2v1H4.967c-.443 0-.825 0-1.13-.041-.329-.044-.643-.143-.898-.398-.254-.255-.354-.57-.398-.897-.041-.306-.041-.688-.041-1.131V4.5v-.033c0-.443 0-.825.041-1.13.044-.329.144-.643.398-.898.255-.255.57-.354.897-.398C4.142 2 4.524 2 4.968 2z" fill="#fff"/></svg>