<svg width="18" height="18" fill="none" xmlns="http://www.w3.org/2000/svg"><path fill-rule="evenodd" clip-rule="evenodd" d="M4.5 8.5v-3h-1v7h1v-3h4v3h1v-3h4v3h1v-7h-1v3h-4v-3h-1v3h-4z" fill="#fff"/><path fill-rule="evenodd" clip-rule="evenodd" d="M9 3a1 1 0 1 0 0 2 1 1 0 0 0 0-2zM7 4a2 2 0 1 1 4 0 2 2 0 0 1-4 0zM4 3a1 1 0 1 0 0 2 1 1 0 0 0 0-2zM2 4a2 2 0 1 1 4 0 2 2 0 0 1-4 0zm12-1a1 1 0 1 0 0 2 1 1 0 0 0 0-2zm-2 1a2 2 0 1 1 4 0 2 2 0 0 1-4 0zm-3 9a1 1 0 1 0 0 2 1 1 0 0 0 0-2zm-2 1a2 2 0 1 1 4 0 2 2 0 0 1-4 0zm-3-1a1 1 0 1 0 0 2 1 1 0 0 0 0-2zm-2 1a2 2 0 1 1 4 0 2 2 0 0 1-4 0zm12-1a1 1 0 1 0 0 2 1 1 0 0 0 0-2zm-2 1a2 2 0 1 1 4 0 2 2 0 0 1-4 0z" fill="#fff"/></svg>