<svg width="18" height="18" fill="none" xmlns="http://www.w3.org/2000/svg"><path d="M4.5 11.5v-5m7-2h-5m7 2v5m-2 2h-5m-4-9c0-.943 0-1.414.293-1.707C3.086 2.5 3.557 2.5 4.5 2.5c.943 0 1.414 0 1.707.293.293.293.293.764.293 1.707 0 .943 0 1.414-.293 1.707-.293.293-.764.293-1.707.293-.943 0-1.414 0-1.707-.293C2.5 5.914 2.5 5.443 2.5 4.5zm0 9c0-.943 0-1.414.293-1.707.293-.293.764-.293 1.707-.293.943 0 1.414 0 1.707.293.293.293.293.764.293 1.707 0 .943 0 1.414-.293 1.707-.293.293-.764.293-1.707.293-.943 0-1.414 0-1.707-.293-.293-.293-.293-.764-.293-1.707zm9 0c0-.943 0-1.414.293-1.707.293-.293.764-.293 1.707-.293.943 0 1.414 0 1.707.293.293.293.293.764.293 1.707 0 .943 0 1.414-.293 1.707-.293.293-.764.293-1.707.293-.943 0-1.414 0-1.707-.293-.293-.293-.293-.764-.293-1.707zm0-9c0-.943 0-1.414.293-1.707.293-.293.764-.293 1.707-.293.943 0 1.414 0 1.707.293.293.293.293.764.293 1.707 0 .943 0 1.414-.293 1.707-.293.293-.764.293-1.707.293-.943 0-1.414 0-1.707-.293-.293-.293-.293-.764-.293-1.707z" stroke="#fff"/></svg>