<svg width="18" height="18" fill="none" xmlns="http://www.w3.org/2000/svg"><path d="M7 9c0-.943 0-1.414.293-1.707C7.586 7 8.057 7 9 7c.943 0 1.414 0 1.707.293C11 7.586 11 8.057 11 9c0 .943 0 1.414-.293 1.707C10.414 11 9.943 11 9 11c-.943 0-1.414 0-1.707-.293C7 10.414 7 9.943 7 9zm8.5-5a1.5 1.5 0 1 1-3 0 1.5 1.5 0 0 1 3 0zm0 10a1.5 1.5 0 1 1-3 0 1.5 1.5 0 0 1 3 0zm-10 0a1.5 1.5 0 1 1-3 0 1.5 1.5 0 0 1 3 0zm0-10a1.5 1.5 0 1 1-3 0 1.5 1.5 0 0 1 3 0zM5 5l2 2m-2 6l2-2m6 2l-2-2m0-4l2-2" stroke="#fff"/></svg>