<svg width="18" height="18" fill="none" xmlns="http://www.w3.org/2000/svg"><path fill-rule="evenodd" clip-rule="evenodd" d="M4.468 2H11.031c.444 0 .827 0 1.133.041.327.044.642.143.897.398s.354.57.398.897c.041.306.041.688.041 1.131V7h-1V4.5c0-.486-.001-.8-.032-1.03-.03-.218-.076-.285-.114-.324-.038-.038-.106-.085-.324-.114C11.8 3.002 11.485 3 11 3H4.5c-.486 0-.8.001-1.031.032-.218.03-.286.076-.324.114-.038.039-.085.106-.114.323C3.002 3.701 3 4.014 3 4.5V9c0 .486.001.8.032 1.03.03.218.076.286.114.324.039.038.106.085.323.114.232.03.545.032 1.031.032h.25v1h-.283c-.443 0-.825 0-1.13-.041-.329-.044-.643-.143-.898-.398-.254-.255-.354-.57-.398-.897C2 9.858 2 9.476 2 9.033V4.5v-.033c0-.443 0-.825.041-1.13.044-.329.144-.643.398-.898.255-.255.57-.354.897-.398C3.642 2 4.025 2 4.468 2z" fill="#fff"/><path fill-rule="evenodd" clip-rule="evenodd" d="M6.968 6.5H13.531c.444 0 .827 0 1.133.041.327.044.642.143.897.398s.354.57.398.897c.041.306.041.688.041 1.131v4.566c0 .443 0 .825-.041 1.13-.044.329-.143.643-.398.898s-.57.354-.897.398c-.306.041-.688.041-1.131.041H6.967c-.443 0-.825 0-1.13-.041-.329-.044-.643-.143-.898-.398-.254-.255-.354-.57-.398-.897-.041-.306-.041-.688-.041-1.131V9v-.033c0-.443 0-.825.041-1.13.044-.329.144-.643.398-.898.255-.255.57-.354.897-.398.306-.041.689-.041 1.132-.041zM5.97 7.532c-.218.03-.286.076-.324.114-.038.039-.085.106-.114.323-.03.232-.032.545-.032 1.031v4.5c0 .486.001.8.032 1.03.03.218.076.286.114.324.039.038.106.085.323.114.232.03.545.032 1.031.032h6.5c.486 0 .8-.001 1.03-.032.218-.03.286-.076.324-.114.038-.038.085-.106.114-.323.03-.232.032-.546.032-1.031V9c0-.486-.001-.8-.032-1.03-.03-.218-.076-.285-.114-.324-.038-.038-.106-.085-.324-.114-.231-.03-.545-.032-1.031-.032H7c-.486 0-.8.001-1.031.032z" fill="#fff"/></svg>