<svg width="18" height="18" fill="none" xmlns="http://www.w3.org/2000/svg"><path d="M13.5 9v3.5h1V9h-1zm-9 3.5V9h-1v3.5h1zm-.5-3h5v-1H4v1zm5 0h5v-1H9v1zm.5-.5V5.5h-1V9h1zm-5 0V5.5h-1V9h1zm10 0V5.5h-1V9h1zm-6 0v3.5h1V9h-1z" fill="#fff"/><path d="M10.5 4a1.5 1.5 0 1 1-3 0 1.5 1.5 0 0 1 3 0zm-5 0a1.5 1.5 0 1 1-3 0 1.5 1.5 0 0 1 3 0zm10 0a1.5 1.5 0 1 1-3 0 1.5 1.5 0 0 1 3 0zm-5 10a1.5 1.5 0 1 1-3 0 1.5 1.5 0 0 1 3 0zm-5 0a1.5 1.5 0 1 1-3 0 1.5 1.5 0 0 1 3 0zm10 0a1.5 1.5 0 1 1-3 0 1.5 1.5 0 0 1 3 0z" stroke="#fff"/></svg>