<svg width="18" height="18" fill="none" xmlns="http://www.w3.org/2000/svg"><path fill-rule="evenodd" clip-rule="evenodd" d="M6.463 4h5.074c.911 0 1.646 0 2.224.078.6.08 1.106.253 1.507.654.401.402.574.907.654 1.507C16 6.817 16 7.552 16 8.463v1.074c0 .911 0 1.646-.078 2.224-.08.6-.253 1.106-.654 1.507-.402.401-.907.574-1.507.654-.578.078-1.313.078-2.224.078H6.463c-.911 0-1.646 0-2.224-.078-.6-.08-1.105-.253-1.507-.654-.401-.402-.574-.907-.654-1.507C2 11.183 2 10.448 2 9.537V8.463c0-.911 0-1.646.078-2.224.08-.6.253-1.105.654-1.507.402-.401.907-.574 1.507-.654C4.817 4 5.552 4 6.463 4zm-2.09 1.069c-.49.066-.75.186-.934.37-.184.185-.304.444-.37.933C3 6.876 3 7.543 3 8.5v1c0 .957.001 1.624.069 2.128.066.49.186.748.37.933.185.184.444.305.933.37C4.876 13 5.543 13 6.5 13h5c.957 0 1.624-.001 2.128-.069.49-.065.748-.186.933-.37.184-.185.305-.444.37-.933C15 11.124 15 10.457 15 9.5v-1c0-.957-.001-1.624-.069-2.128-.065-.49-.186-.748-.37-.933-.185-.184-.444-.304-.933-.37C13.124 5 12.457 5 11.5 5h-5c-.957 0-1.624.001-2.128.069z" fill="#fff"/><path fill-rule="evenodd" clip-rule="evenodd" d="M5.854 7.646a.5.5 0 0 1 0 .708l-.147.146H7.5a.5.5 0 0 1 0 1H5.707l.147.146a.5.5 0 0 1-.708.708l-1-1a.5.5 0 0 1 0-.708l1-1a.5.5 0 0 1 .708 0zm6.292 0a.5.5 0 0 1 .708 0l1 1a.5.5 0 0 1 0 .708l-1 1a.5.5 0 0 1-.708-.708l.147-.146H10.5a.5.5 0 0 1 0-1h1.793l-.147-.146a.5.5 0 0 1 0-.708z" fill="#fff"/></svg>