<svg width="18" height="18" fill="none" xmlns="http://www.w3.org/2000/svg"><path d="M5.467 7.741l-1.398 2.446c-.76 1.331-1.14 1.997-.852 2.495.29.498 1.056.498 2.588.498h.699M5.467 7.74l-2.46.375m2.46-.375l.905 2.317m3.17 3.25l2.816-.012c1.533-.006 2.3-.01 2.586-.51.287-.499-.096-1.162-.862-2.49l-.35-.604m-4.19 3.617l1.553 1.942M9.541 13.31l1.554-1.942M12.29 7.07L10.87 4.638c-.772-1.324-1.158-1.986-1.734-1.985-.576.001-.96.665-1.726 1.992l-.349.605m5.228 1.821l.906-2.317m-.906 2.317l-2.458-.374" stroke="#fff" stroke-linecap="round" stroke-linejoin="round"/></svg>