<svg width="18" height="18" fill="none" xmlns="http://www.w3.org/2000/svg"><path fill-rule="evenodd" clip-rule="evenodd" d="M5.764 13.68h.74a.5.5 0 0 0 0-1h-.699c-.783 0-1.313-.002-1.687-.057-.369-.055-.44-.143-.468-.192-.029-.05-.07-.155.065-.503.138-.352.4-.813.788-1.493l.879-1.537.524 1.342a.5.5 0 1 0 .931-.364L5.932 7.56a.5.5 0 0 0-.54-.312l-2.46.375a.5.5 0 1 0 .151.988l1.436-.219-.905 1.585c-.362.634-.663 1.16-.83 1.589-.173.442-.26.919 0 1.367.261.45.718.61 1.188.68.456.068 1.06.068 1.792.068zm8.772-3.597l-.37-.641a.5.5 0 1 0-.867.5l.35.604c.391.679.655 1.138.794 1.49.137.347.096.452.068.502-.029.05-.1.138-.468.194-.373.057-.903.06-1.687.064l-1.77.008.9-1.125a.5.5 0 0 0-.781-.625L9.15 12.997a.5.5 0 0 0 0 .624l1.554 1.942a.5.5 0 0 0 .78-.624l-.907-1.135 1.825-.008c.73-.003 1.335-.006 1.791-.075.47-.072.926-.235 1.184-.685.258-.45.17-.926-.005-1.368-.17-.428-.472-.953-.837-1.585zM6.998 4.359L6.628 5a.5.5 0 1 0 .866.5l.35-.605c.391-.678.657-1.136.892-1.432.232-.292.344-.31.4-.31.058 0 .17.017.403.308.236.295.505.752.9 1.429l.891 1.53-1.424-.218a.5.5 0 1 0-.15.989l2.458.374a.5.5 0 0 0 .541-.312l.905-2.317a.5.5 0 0 0-.931-.364L12.2 5.926l-.92-1.576c-.367-.632-.672-1.154-.96-1.514-.297-.37-.667-.684-1.185-.683-.519.001-.887.316-1.182.688-.287.361-.59.885-.955 1.518z" fill="#fff"/></svg>