<svg width="18" height="18" fill="none" xmlns="http://www.w3.org/2000/svg"><path fill-rule="evenodd" clip-rule="evenodd" d="M3.483 5.032c.231-.03.545-.032 1.03-.032h2.27a.5.5 0 0 0 0-1H4.482c-.444 0-.826 0-1.131.041-.328.044-.642.144-.897.398-.255.255-.354.57-.398.897-.042.306-.042.688-.042 1.131v1.066c0 .443 0 .825.042 1.13.044.329.143.643.398.898.255.254.569.354.897.398.305.041.687.041 1.13.041h9.929l-2.785 3.17a.5.5 0 0 0 .752.66l3.513-4a.5.5 0 0 0 0-.66l-3.513-4a.5.5 0 1 0-.752.66L14.41 9H4.513c-.485 0-.799-.001-1.03-.032-.217-.03-.285-.076-.323-.114-.038-.039-.085-.106-.114-.323-.031-.232-.033-.545-.033-1.031v-1c0-.486.002-.8.033-1.03.029-.218.076-.285.114-.324.038-.038.106-.085.323-.114z" fill="#fff"/></svg>