<svg width="18" height="18" fill="none" xmlns="http://www.w3.org/2000/svg"><g clip-path="url(#clip0_877_11050)"><g clip-path="url(#clip1_877_11050)"><path fill-rule="evenodd" clip-rule="evenodd" d="M5.032 3.483C5.001 3.714 5 4.028 5 4.513v2.27a.5.5 0 0 1-1 0V4.482c0-.444 0-.826.041-1.131.044-.328.143-.642.398-.897s.57-.354.897-.398c.306-.042.688-.042 1.131-.042h1.066c.443 0 .825 0 1.13.042.329.044.643.143.898.398.254.255.354.569.398.897.041.305.041.687.04 1.13v9.929l3.171-2.785a.5.5 0 1 1 .66.752l-4 3.513a.5.5 0 0 1-.66 0l-4-3.513a.5.5 0 0 1 .66-.752L9 14.41V4.513c0-.485-.001-.799-.032-1.03-.03-.217-.076-.285-.115-.323-.038-.038-.106-.085-.322-.114-.232-.032-.546-.033-1.031-.033h-1c-.486 0-.8.001-1.03.033-.218.029-.286.076-.324.114-.038.038-.085.106-.114.323z" fill="#fff"/></g></g><defs><clipPath id="clip0_877_11050"><path fill="#fff" d="M0 0H18V18H0z"/></clipPath><clipPath id="clip1_877_11050"><path fill="#fff" transform="rotate(-90 9 9)" d="M0 0H18V18H0z"/></clipPath></defs></svg>