<svg width="18" height="18" fill="none" xmlns="http://www.w3.org/2000/svg"><path fill-rule="evenodd" clip-rule="evenodd" d="M9 13.5a.5.5 0 0 0-.5-.5h-2c-.486 0-.8-.001-1.03-.032-.218-.03-.285-.076-.324-.114-.038-.038-.085-.106-.114-.323C5.002 12.299 5 11.985 5 11.5V5.707l1.146 1.147a.5.5 0 1 0 .708-.708l-2-2a.5.5 0 0 0-.708 0l-2 2a.5.5 0 1 0 .708.708L4 5.707v5.826c0 .443 0 .825.041 1.13.044.329.144.643.398.898.255.255.57.354.897.398.306.041.688.041 1.131.041H8.5a.5.5 0 0 0 .5-.5zm0-9a.5.5 0 0 0 .5.5h2c.486 0 .8.001 1.03.032.218.03.286.076.324.114.038.039.085.106.114.323.03.232.032.545.032 1.031v5.793l-1.146-1.147a.5.5 0 0 0-.708.708l2 2a.5.5 0 0 0 .708 0l2-2a.5.5 0 0 0-.708-.708L14 12.293V6.467c0-.443 0-.825-.041-1.13-.044-.329-.143-.643-.398-.898-.255-.254-.57-.354-.897-.398C12.358 4 11.976 4 11.533 4H9.5a.5.5 0 0 0-.5.5z" fill="#fff"/></svg>