<svg width="18" height="18" fill="none" xmlns="http://www.w3.org/2000/svg"><path fill-rule="evenodd" clip-rule="evenodd" d="M6.967 2H11.033c.443 0 .825 0 1.13.041.329.044.643.144.898.398.255.255.354.57.398.897.041.306.041.688.041 1.131v6.97c0 1.132 0 2.036-.088 2.684-.083.62-.277 1.263-.908 1.489-.63.225-1.189-.151-1.645-.578-.478-.446-1.05-1.146-1.767-2.023L9 12.897l-.092.112c-.717.877-1.289 1.577-1.767 2.023-.456.427-1.014.803-1.645.578-.63-.226-.825-.87-.908-1.489-.088-.648-.088-1.552-.088-2.684V4.5v-.033c0-.443 0-.825.041-1.13.044-.329.144-.643.398-.898.255-.254.57-.354.897-.398C6.142 2 6.524 2 6.967 2zM5.97 3.032c-.217.03-.284.076-.323.114-.038.039-.085.106-.114.323-.03.232-.032.545-.032 1.031v6.893c0 1.186.001 2.022.079 2.594.082.61.22.669.253.68.033.012.177.054.627-.366.422-.394.952-1.04 1.702-1.958l.452-.553a.5.5 0 0 1 .774 0l.452.553c.75.918 1.28 1.564 1.702 1.958.45.42.594.378.627.367.033-.012.171-.071.254-.68.077-.573.078-1.409.078-2.595V4.5c0-.486-.001-.8-.032-1.03-.03-.218-.076-.285-.114-.324-.038-.038-.106-.085-.323-.114C11.799 3.002 11.485 3 11 3H7c-.486 0-.8.001-1.03.032z" fill="#fff"/></svg>