<svg width="18" height="18" fill="none" xmlns="http://www.w3.org/2000/svg"><path fill-rule="evenodd" clip-rule="evenodd" d="M11.5 2a.5.5 0 0 1 .5.5V4h1.5a.5.5 0 0 1 0 1H12v1.5a.5.5 0 0 1-1 0V5H9.5a.5.5 0 0 1 0-1H11V2.5a.5.5 0 0 1 .5-.5z" fill="#fff"/><path fill-rule="evenodd" clip-rule="evenodd" d="M6.967 2H8a.5.5 0 0 1 0 1H7c-.486 0-.8 0-1.03.032-.218.03-.285.076-.324.114-.038.038-.085.106-.114.323-.03.231-.032.545-.032 1.03v6.894c0 1.186.001 2.021.079 2.594.082.61.22.669.253.68.033.012.177.054.627-.366.422-.394.952-1.04 1.702-1.959l.452-.552a.5.5 0 0 1 .774 0l.452.553c.75.918 1.28 1.564 1.702 1.958.45.42.594.378.627.367.033-.012.171-.071.254-.68.077-.573.078-1.41.078-2.595V8.5a.5.5 0 0 1 1 0v2.936c0 1.133 0 2.037-.088 2.685-.083.62-.277 1.263-.908 1.488-.63.225-1.189-.15-1.645-.577-.478-.446-1.05-1.146-1.767-2.023L9 12.897l-.092.112c-.717.877-1.289 1.577-1.767 2.023-.456.426-1.014.802-1.645.577-.63-.225-.825-.869-.908-1.488-.088-.648-.088-1.552-.088-2.685V4.5v-.033c0-.443 0-.825.041-1.131.044-.328.144-.642.398-.897.255-.255.57-.354.897-.398C6.142 2 6.524 2 6.967 2z" fill="#fff"/></svg>