<svg fill="none" height="18" width="18" xmlns="http://www.w3.org/2000/svg"><path d="m6 8.025c0-1.937.77-3.795 2.14-5.164a1.217 1.217 0 0 1 1.72 0 7.304 7.304 0 0 1 2.14 5.164v3.219c0 .238 0 .357-.02.456a1 1 0 0 1 -.78.78c-.1.02-.218.02-.456.02h-3.488c-.238 0-.357 0-.456-.02a1 1 0 0 1 -.78-.78c-.02-.1-.02-.218-.02-.456z" stroke="#fff"/><path d="m9.5 6a.5.5 0 1 1 -1 0 .5.5 0 0 1 1 0zm2.955.793a.5.5 0 0 0 -.91.414zm-6 .414a.5.5 0 1 0 -.91-.414zm7.333 4.834.42.271-.42-.27zm-8.548-2.161 1.215-2.672-.91-.414-1.215 2.671.91.414zm6.154 2.12h-4.788v1h4.788zm.15-4.793 1.215 2.672.91-.414-1.214-2.672-.91.414zm-.149 5.793c.683 0 1.252.001 1.684-.063.44-.065.867-.215 1.13-.625l-.84-.541c-.032.049-.104.128-.437.177-.34.05-.82.052-1.537.052zm1.365-3.12c.297.651.494 1.089.59 1.42.092.324.05.422.018.47l.841.542c.264-.41.225-.86.102-1.287-.12-.42-.357-.938-.64-1.56l-.91.414zm-8.43-.416c-.282.622-.52 1.14-.64 1.56-.123.428-.162.878.102 1.287l.84-.541c-.031-.05-.073-.147.02-.47.095-.332.292-.77.588-1.422zm2.276 2.536c-.716 0-1.196-.001-1.537-.052-.333-.05-.405-.128-.436-.177l-.841.541c.264.41.69.56 1.13.625.432.064 1.001.063 1.684.063z" fill="#fff"/><path d="m9 14.5v1.5m2-1.5v.5m-4-.5v.5" stroke="#fff" stroke-linecap="round"/></svg>