<svg width="18" height="18" fill="none" xmlns="http://www.w3.org/2000/svg"><path d="M6 8.025c0-1.937.77-3.795 2.14-5.164a1.217 1.217 0 0 1 1.72 0A7.304 7.304 0 0 1 12 8.025v3.219c0 .238 0 .357-.02.456a1 1 0 0 1-.78.78c-.1.02-.218.02-.456.02H7.256c-.238 0-.357 0-.456-.02a1 1 0 0 1-.78-.78C6 11.6 6 11.482 6 11.244V8.025z" stroke="#fff"/><path d="M9.5 6a.5.5 0 1 1-1 0 .5.5 0 0 1 1 0zm2.955.793a.5.5 0 0 0-.91.414l.91-.414zm-6 .414a.5.5 0 1 0-.91-.414l.91.414zm7.333 4.834l.42.271-.42-.27zM5.24 9.88l1.215-2.672-.91-.414L4.33 9.465l.91.414zM11.394 12H6.606v1h4.788v-1zm.15-4.793l1.215 2.672.91-.414-1.214-2.672-.91.414zM11.395 13c.683 0 1.252.001 1.684-.063.44-.065.867-.215 1.13-.625l-.84-.541c-.032.049-.104.128-.437.177-.34.05-.82.052-1.537.052v1zm1.365-3.12c.297.651.494 1.089.59 1.42.092.324.05.422.018.47l.841.542c.264-.41.225-.86.102-1.287-.12-.42-.357-.938-.64-1.56l-.91.414zM4.33 9.464c-.282.622-.52 1.14-.64 1.56-.123.428-.162.878.102 1.287l.84-.541c-.031-.05-.073-.147.02-.47.095-.332.292-.77.588-1.422l-.91-.414zM6.606 12c-.716 0-1.196-.001-1.537-.052-.333-.05-.405-.128-.436-.177l-.841.541c.264.41.69.56 1.13.625.432.064 1.001.063 1.684.063v-1z" fill="#fff"/><path d="M9 14.5V16m2-1.5v.5m-4-.5v.5" stroke="#fff" stroke-linecap="round"/></svg>