<svg width="18" height="18" fill="none" xmlns="http://www.w3.org/2000/svg"><g clip-path="url(#clip0_821_19418)"><path d="M2.5 7.5c0-.943 0-1.414.293-1.707C3.086 5.5 3.557 5.5 4.5 5.5h9c.943 0 1.414 0 1.707.293.293.293.293.764.293 1.707v3c0 .943 0 1.414-.293 1.707-.293.293-.764.293-1.707.293h-9c-.943 0-1.414 0-1.707-.293-.293-.293-.293-.764-.293-1.707v-3zM9 6v3M5.5 6v2m7-2v2" stroke="#fff" stroke-linecap="round" stroke-linejoin="round"/></g><defs><clipPath id="clip0_821_19418"><path fill="#fff" d="M0 0H18V18H0z"/></clipPath></defs></svg>