<svg width="18" height="18" fill="none" xmlns="http://www.w3.org/2000/svg"><g clip-path="url(#clip0_877_10994)" fill-rule="evenodd" clip-rule="evenodd" fill="#fff"><path d="M4.467 5H13.533c.443 0 .825 0 1.13.041.329.044.643.144.898.398.255.255.354.57.398.897.041.306.041.688.041 1.131v3.066c0 .443 0 .825-.041 1.13-.044.329-.143.643-.398.898s-.57.354-.897.398c-.306.041-.688.041-1.131.041H4.467c-.443 0-.825 0-1.13-.041-.329-.044-.643-.143-.898-.398-.254-.255-.354-.57-.398-.897C2 11.358 2 10.976 2 10.533V7.5v-.033c0-.443 0-.825.041-1.13.044-.329.144-.643.398-.898.255-.254.57-.354.897-.398C3.642 5 4.024 5 4.467 5zM3.47 6.032c-.217.03-.284.076-.323.114-.038.039-.085.106-.114.323C3.002 6.701 3 7.014 3 7.5v3c0 .486.001.8.032 1.03.03.218.076.286.114.324.039.038.106.085.323.114.232.03.545.032 1.031.032h9c.486 0 .8-.001 1.03-.032.218-.03.286-.076.324-.114.038-.038.085-.106.114-.323.03-.232.032-.546.032-1.031v-3c0-.486-.001-.8-.032-1.03-.03-.218-.076-.285-.114-.324-.038-.038-.106-.085-.323-.114C14.299 6.002 13.985 6 13.5 6h-9c-.486 0-.8.001-1.03.032z"/><path d="M9 5.5a.5.5 0 0 1 .5.5v3a.5.5 0 0 1-1 0V6a.5.5 0 0 1 .5-.5zm-3.5 0A.5.5 0 0 1 6 6v2a.5.5 0 0 1-1 0V6a.5.5 0 0 1 .5-.5zm7 0a.5.5 0 0 1 .5.5v2a.5.5 0 0 1-1 0V6a.5.5 0 0 1 .5-.5z"/></g><defs><clipPath id="clip0_877_10994"><path fill="#fff" d="M0 0H18V18H0z"/></clipPath></defs></svg>