<svg width="18" height="18" fill="none" xmlns="http://www.w3.org/2000/svg"><g clip-path="url(#clip0_877_10981)" fill-rule="evenodd" clip-rule="evenodd" fill="#fff"><path d="M9 2.5a6.5 6.5 0 1 0 0 13 6.5 6.5 0 0 0 0-13zM1.5 9a7.5 7.5 0 1 1 15 0 7.5 7.5 0 0 1-15 0z"/><path d="M9 6.7a4.4 4.4 0 1 0 0 8.8 4.4 4.4 0 0 0 0-8.8zm-5.4 4.4a5.4 5.4 0 1 1 10.8 0 5.4 5.4 0 0 1-10.8 0z"/><path d="M9 10.9a2.3 2.3 0 1 0 0 4.6 2.3 2.3 0 0 0 0-4.6zm-3.3 2.3a3.3 3.3 0 1 1 6.6 0 3.3 3.3 0 0 1-6.6 0z"/></g><defs><clipPath id="clip0_877_10981"><path fill="#fff" d="M0 0H18V18H0z"/></clipPath></defs></svg>