<svg width="18" height="18" fill="none" xmlns="http://www.w3.org/2000/svg"><path fill-rule="evenodd" clip-rule="evenodd" d="M10.336 11.5h1.828c.615 0 1.111 0 1.511.037.412.038.772.119 1.098.311a2.5 2.5 0 0 1 .879.88c.192.325.273.685.311 1.097.037.4.037.896.037 1.51v.165a.5.5 0 0 1-1 0v-.14c0-.645 0-1.095-.033-1.443-.031-.341-.09-.535-.176-.68a1.5 1.5 0 0 0-.527-.528c-.146-.086-.34-.145-.68-.176-.35-.032-.799-.033-1.444-.033h-1.78c-.645 0-1.095 0-1.443.033-.341.031-.535.09-.68.176a1.5 1.5 0 0 0-.528.527c-.086.146-.145.34-.176.68-.033.35-.033.799-.033 1.444v.14a.5.5 0 0 1-1 0v-.164c0-.615 0-1.111.037-1.511.038-.412.119-.772.311-1.098a2.5 2.5 0 0 1 .88-.879c.325-.192.685-.273 1.097-.311.4-.037.896-.037 1.51-.037zM5.639 9H6a.5.5 0 0 1 0 1h-.34c-.55 0-.932 0-1.23.024-.293.023-.462.066-.59.129a1.5 1.5 0 0 0-.687.687c-.063.128-.106.297-.13.59A17.33 17.33 0 0 0 3 12.66V13a.5.5 0 0 1-1 0v-.36c0-.524 0-.947.027-1.29.028-.351.087-.662.228-.95A2.5 2.5 0 0 1 3.4 9.255c.288-.141.598-.2.95-.228C4.694 9 5.117 9 5.64 9zM11.5 5.833a1.833 1.833 0 1 0 0 3.667 1.833 1.833 0 0 0 0-3.667zM8.667 7.667a2.833 2.833 0 1 1 5.666 0 2.833 2.833 0 0 1-5.666 0zm-2.39-4.7a1.833 1.833 0 0 0-.61 3.562.5.5 0 1 1-.334.942A2.834 2.834 0 1 1 8.64 3.232a.5.5 0 1 1-.833.554c-.33-.495-.891-.82-1.528-.82z" fill="#fff"/></svg>