<svg width="18" height="18" fill="none" xmlns="http://www.w3.org/2000/svg"><path fill-rule="evenodd" clip-rule="evenodd" d="M5.967 6H6.5a.5.5 0 0 1 0 1H6c-.486 0-.8.001-1.03.032-.218.03-.285.076-.324.114-.038.039-.085.106-.114.323-.03.232-.032.545-.032 1.031v5c0 .486.001.8.032 1.03.03.218.076.286.114.324.039.038.106.085.323.114.232.03.545.032 1.031.032h6c.486 0 .8-.001 1.03-.032.218-.03.286-.076.324-.114.038-.038.085-.106.114-.323.03-.232.032-.546.032-1.031v-5c0-.486-.001-.8-.032-1.03-.03-.218-.076-.285-.114-.324-.038-.038-.106-.085-.323-.114C12.799 7.002 12.485 7 12 7h-.5a.5.5 0 0 1 0-1h.533c.443 0 .825 0 1.13.041.329.044.643.144.898.398.255.255.354.57.398.897.041.306.041.688.041 1.131v5.066c0 .443 0 .825-.041 1.13-.044.329-.143.643-.398.898s-.57.354-.897.398c-.306.041-.688.041-1.131.041H5.967c-.443 0-.825 0-1.13-.041-.329-.044-.643-.143-.898-.398-.254-.255-.354-.57-.398-.897-.041-.306-.041-.688-.041-1.131V8.5v-.033c0-.443 0-.825.041-1.13.044-.329.144-.643.398-.898.255-.254.57-.354.897-.398C5.142 6 5.524 6 5.967 6z" fill="#fff"/><path fill-rule="evenodd" clip-rule="evenodd" d="M6.646 4.854a.5.5 0 0 1 0-.708l2-2a.5.5 0 0 1 .708 0l2 2a.5.5 0 0 1-.708.708L9.5 3.707V10.5a.5.5 0 0 1-1 0V3.707L7.354 4.854a.5.5 0 0 1-.708 0z" fill="#fff"/></svg>