<svg width="18" height="18" fill="none" xmlns="http://www.w3.org/2000/svg"><path fill-rule="evenodd" clip-rule="evenodd" d="M9 3.06c-.236 0-.474.045-1.079.166l-1.389.277c-.824.165-1.107.23-1.317.358a1.5 1.5 0 0 0-.622.76c-.085.23-.093.52-.093 1.362v.607c0 1.09.001 1.591.063 2.068a7.5 7.5 0 0 0 1.492 3.6c.292.38.646.735 1.417 1.507.457.457.62.614.775.704a1.5 1.5 0 0 0 1.506 0c.155-.09.318-.247.775-.704.771-.772 1.125-1.126 1.417-1.507a7.5 7.5 0 0 0 1.492-3.6c.062-.477.063-.977.063-2.068v-.607c0-.842-.008-1.132-.092-1.362a1.5 1.5 0 0 0-.623-.76c-.21-.128-.492-.193-1.317-.358l-1.39-.277c-.604-.121-.842-.167-1.078-.167zm-1.224-.825c.538-.108.877-.176 1.224-.176s.686.068 1.224.176l.05.01 1.39.278.095.019c.692.138 1.167.233 1.549.467a2.5 2.5 0 0 1 1.038 1.266c.155.42.154.905.154 1.61v.748c0 1.037 0 1.606-.072 2.154a8.5 8.5 0 0 1-1.69 4.08c-.337.439-.74.841-1.473 1.575l-.03.03-.054.054c-.382.382-.643.643-.927.808a2.5 2.5 0 0 1-2.508 0c-.284-.165-.545-.426-.927-.808l-.054-.054-.03-.03c-.734-.734-1.136-1.136-1.473-1.574a8.5 8.5 0 0 1-1.69-4.08C3.5 8.237 3.5 7.67 3.5 6.631v-.65-.097c0-.705 0-1.19.154-1.61A2.5 2.5 0 0 1 4.692 3.01c.382-.234.857-.33 1.549-.467l.095-.02 1.39-.277.05-.01z" fill="#fff"/></svg>