<svg width="18" height="18" fill="none" xmlns="http://www.w3.org/2000/svg"><path fill-rule="evenodd" clip-rule="evenodd" d="M4.749 6h8.502c.502 0 .93 0 1.269.048.36.05.705.165.966.464.262.299.33.656.333 1.02.002.341-.054.766-.12 1.263l-.476 3.565c-.052.388-.097.725-.168.994-.076.289-.197.56-.442.775-.245.214-.53.298-.827.336-.276.035-.615.035-1.007.035H5.221c-.391 0-.731 0-1.007-.035-.297-.038-.582-.122-.827-.336-.244-.215-.366-.486-.442-.775-.071-.269-.116-.606-.168-.994l-.47-3.53-.005-.035c-.067-.497-.123-.922-.12-1.263.002-.364.07-.721.332-1.02.261-.299.606-.414.967-.464C3.819 6 4.247 6 4.749 6zm-1.13 1.038c-.245.034-.316.09-.353.133-.037.042-.083.12-.085.368-.002.263.044.617.117 1.16l.466 3.5c.057.426.094.699.147.899.05.186.097.245.135.278.038.033.103.073.294.097.205.026.48.027.911.027h7.498c.43 0 .706 0 .911-.027.191-.024.256-.064.294-.097.038-.033.085-.092.135-.278.053-.2.09-.473.147-.9l.466-3.5c.073-.542.119-.896.117-1.16-.002-.248-.048-.325-.085-.367-.037-.043-.107-.099-.354-.133C14.12 7 13.763 7 13.216 7H4.784c-.547 0-.904.001-1.164.038z" fill="#fff"/><path fill-rule="evenodd" clip-rule="evenodd" d="M7.967 3.5h2.066c.443 0 .825 0 1.13.041.329.044.643.144.898.398.255.255.354.57.398.897.041.306.041.688.041 1.131V6.5h-1V6c0-.486-.001-.8-.032-1.03-.03-.218-.076-.285-.114-.324-.038-.038-.106-.085-.323-.114-.232-.03-.546-.032-1.031-.032H8c-.486 0-.8.001-1.03.032-.218.03-.285.076-.324.114-.038.039-.085.106-.114.323-.03.232-.032.545-.032 1.031v.5h-1V6v-.033c0-.443 0-.825.041-1.13.044-.329.144-.643.398-.898.255-.254.57-.354.897-.398.306-.041.688-.041 1.131-.041z" fill="#fff"/></svg>