<svg fill="none" height="18" width="18" xmlns="http://www.w3.org/2000/svg"><clipPath id="a"><path d="M0 0h18v18H0z"/></clipPath><g stroke="currentColor" stroke-linecap="round" stroke-linejoin="round"><g clip-path="url(#a)"><path d="M7.5 15a.5.5 0 1 1-1 0 .5.5 0 0 1 1 0zm6.5 0a.5.5 0 1 1-1 0 .5.5 0 0 1 1 0z" fill="currentColor"/><path d="M14.486 12.499H7.097c-.808 0-1.212 0-1.492-.237-.28-.236-.346-.635-.48-1.431l-.953-5.664c-.134-.797-.2-1.195-.48-1.432C3.412 3.5 3.008 3.5 2.2 3.5H2m2.162 1.508l9.358-.006c1.146 0 1.718 0 2.019.372.3.372.179.931-.063 2.051l-.27 1.25c-.164.756-.245 1.134-.52 1.356-.275.221-.662.221-1.435.221H5.027"/></g><path d="M9.5 2c-2.636 0-5 .5-5 3H14c0-2.5-1.864-3-4.5-3z"/></g></svg>