<svg width="18" height="18" fill="none" xmlns="http://www.w3.org/2000/svg"><path fill-rule="evenodd" clip-rule="evenodd" d="M4.5 2a.5.5 0 0 1 .5.5V4h1.5a.5.5 0 0 1 0 1H5v1.5a.5.5 0 0 1-1 0V5H2.5a.5.5 0 0 1 0-1H4V2.5a.5.5 0 0 1 .5-.5zm5.983 2.123c-.13.321-.267.82-.465 1.546l-.4 1.462a3.82 3.82 0 0 1-.097.324.99.99 0 0 1-.207.342.99.99 0 0 1-.33.225c-.095.042-.207.08-.318.116l-1.162.388c-.603.2-1.006.336-1.263.461A1.98 1.98 0 0 0 6.215 9l.026.013c.257.125.66.26 1.263.461l1.162.388c.11.037.223.074.318.116a.99.99 0 0 1 .33.225c.105.11.165.23.207.342.036.097.067.211.098.324l.399 1.462c.198.727.335 1.225.465 1.546l.017.04.017-.04c.13-.321.267-.82.465-1.546l.4-1.462c.03-.113.061-.227.097-.324a.99.99 0 0 1 .207-.342.99.99 0 0 1 .33-.225c.095-.042.207-.08.318-.116l1.162-.388c.603-.2 1.006-.336 1.263-.461A1.97 1.97 0 0 0 14.785 9a1.851 1.851 0 0 0-.026-.013c-.257-.125-.66-.26-1.263-.461l-1.162-.388c-.11-.036-.223-.074-.318-.116a.99.99 0 0 1-.33-.225.99.99 0 0 1-.207-.342 3.854 3.854 0 0 1-.098-.324l-.399-1.462c-.198-.727-.335-1.225-.465-1.546a2.695 2.695 0 0 0-.017-.04 2.695 2.695 0 0 0-.017.04zm-.616-.919A.834.834 0 0 1 10.5 2.9c.278 0 .489.14.633.304.134.152.23.347.31.542.156.384.308.942.494 1.623l.405 1.483a3.273 3.273 0 0 0 .077.255c.046.02.114.044.247.088l1.183.394c.557.186 1.023.341 1.347.499.29.14.723.402.723.912s-.434.771-.723.912c-.324.158-.79.313-1.347.499l-1.183.394a3.26 3.26 0 0 0-.247.088l-.003.001v.002a3.262 3.262 0 0 0-.074.252l-.405 1.483c-.186.681-.338 1.239-.494 1.623-.08.195-.176.39-.31.542a.834.834 0 0 1-.633.304.834.834 0 0 1-.633-.304 1.92 1.92 0 0 1-.31-.542c-.156-.384-.308-.942-.494-1.623l-.405-1.483a3.274 3.274 0 0 0-.074-.252v-.002l-.003-.001a3.254 3.254 0 0 0-.247-.088l-1.183-.394c-.557-.186-1.023-.341-1.347-.499-.29-.14-.723-.402-.723-.912s.434-.771.723-.912c.324-.158.79-.313 1.347-.499l1.183-.394c.133-.044.2-.067.247-.088l.003-.001v-.002c.018-.048.038-.117.074-.252l.405-1.483c.186-.681.338-1.239.494-1.623.08-.195.177-.39.31-.542zM4.5 12a.5.5 0 0 1 .5.5v1h1a.5.5 0 0 1 0 1H5v1a.5.5 0 0 1-1 0v-1H3a.5.5 0 0 1 0-1h1v-1a.5.5 0 0 1 .5-.5z" fill="#fff"/></svg>