<svg width="18" height="18" fill="none" xmlns="http://www.w3.org/2000/svg"><path fill-rule="evenodd" clip-rule="evenodd" d="M9 3a6 6 0 1 0 0 12A6 6 0 0 0 9 3zM2 9a7 7 0 1 1 14 0A7 7 0 0 1 2 9z" fill="#fff"/><path fill-rule="evenodd" clip-rule="evenodd" d="M8.676 6.745a.5.5 0 0 1 .6-.004l1.879 1.393a.5.5 0 0 1 .193.5l-.465 2.321a.5.5 0 0 1-.49.402H7.607a.5.5 0 0 1-.49-.402l-.464-2.321a.5.5 0 0 1 .188-.497l1.835-1.392zm.305 1.023l-1.286.977.322 1.612h1.966l.322-1.608-1.324-.981zM5.69 7.575a.5.5 0 0 1-.217.466L2.78 9.86a.5.5 0 1 1-.56-.829l2.444-1.65-.307-2.933a.5.5 0 1 1 .995-.104l.337 3.231zm6.745.428a.5.5 0 0 1-.217-.467l.338-3.23a.5.5 0 0 1 .994.103l-.306 2.933 2.443 1.65a.5.5 0 0 1-.56.829l-2.692-1.818zM10.99 12.24a.5.5 0 0 1 .385-.306l3.208-.51a.5.5 0 0 1 .157.987l-2.93.466-.953 2.346a.5.5 0 1 1-.926-.377l1.06-2.606zM9.257 5.25a.5.5 0 0 1-.514 0L5.957 3.578a.5.5 0 0 1 .515-.858L9 4.238l2.528-1.517a.5.5 0 1 1 .515.858L9.257 5.25zm-2.63 6.684a.5.5 0 0 1 .384.306l1.06 2.606a.5.5 0 0 1-.927.377l-.953-2.345-2.93-.466a.5.5 0 0 1 .157-.988l3.208.51z" fill="#fff"/></svg>