<svg width="18" height="18" fill="none" xmlns="http://www.w3.org/2000/svg"><path fill-rule="evenodd" clip-rule="evenodd" d="M9 8.5a.5.5 0 0 1 .5.5v5a.5.5 0 0 1-1 0V9a.5.5 0 0 1 .5-.5z" fill="#fff"/><path fill-rule="evenodd" clip-rule="evenodd" d="M14.088 15.784a.5.5 0 0 0 .83-.558l-.418.274.418-.275-.002-.002-.003-.005-.007-.01a.876.876 0 0 0-.08-.1 2.221 2.221 0 0 0-.223-.22 4.027 4.027 0 0 0-.949-.592c-.89-.412-2.341-.796-4.654-.796-2.313 0-3.763.384-4.654.796a4.03 4.03 0 0 0-.949.591 2.22 2.22 0 0 0-.284.295.958.958 0 0 0-.02.026l-.006.01-.003.005-.001.001v.001c-.001 0-.001.001.417.275l-.418-.274a.5.5 0 0 0 .83.559v-.002l.002-.003.002-.003.001-.002-.005.009a1.219 1.219 0 0 1 .14-.14 3.04 3.04 0 0 1 .714-.44c.73-.338 2.029-.704 4.234-.704s3.505.366 4.234.704c.365.168.589.33.715.44a1.216 1.216 0 0 1 .14.14zM8.622 8.4c.21.006.297-.048.334-.085.037-.037.09-.125.085-.334-.006-.21-.073-.495-.221-.84-.294-.687-.867-1.518-1.661-2.312-.794-.794-1.625-1.367-2.312-1.661-.345-.148-.63-.215-.84-.22-.21-.007-.297.047-.334.084-.037.037-.09.125-.085.334.006.21.073.495.221.84.295.687.867 1.518 1.661 2.312.794.794 1.625 1.366 2.312 1.66.345.149.63.216.84.222zm-1.234.698c-.83-.356-1.765-1.012-2.625-1.873-.86-.86-1.517-1.795-1.873-2.625-.177-.414-.29-.827-.301-1.206-.011-.38.083-.775.377-1.07.294-.293.688-.387 1.069-.376.38.01.792.123 1.206.3.83.357 1.765 1.013 2.625 1.874.86.86 1.517 1.795 1.873 2.625.178.414.29.827.301 1.206.011.38-.083.775-.377 1.07-.294.293-.688.387-1.069.376-.38-.01-.792-.124-1.206-.3z" fill="#fff"/><path fill-rule="evenodd" clip-rule="evenodd" d="M9.962 4.918a9.704 9.704 0 0 0-.825.936.5.5 0 0 1-.792-.61c.267-.347.572-.695.91-1.033.86-.86 1.795-1.517 2.625-1.873.414-.178.827-.29 1.206-.301.38-.011.775.083 1.07.377.293.294.387.688.377 1.069-.01.38-.124.792-.302 1.206-.356.83-1.012 1.765-1.873 2.625C11.247 8.426 9.992 9.216 8.99 9.43a.5.5 0 1 1-.21-.978c.737-.157 1.827-.801 2.871-1.845.794-.794 1.367-1.625 1.661-2.312.148-.345.215-.63.221-.84.006-.21-.048-.297-.085-.334-.037-.037-.125-.09-.334-.085-.21.006-.495.073-.84.221-.687.294-1.518.867-2.312 1.661z" fill="#fff"/></svg>