<svg width="18" height="18" fill="none" xmlns="http://www.w3.org/2000/svg"><path d="M9 14V9m-5.5 6.5S4.482 14 9 14s5.5 1.5 5.5 1.5" stroke="#fff" stroke-linecap="round"/><path d="M3.32 2.68c.661-.662 2.538.142 4.193 1.796C9.167 6.131 9.97 8.008 9.31 8.67c-.662.661-2.54-.143-4.194-1.797C3.462 5.218 2.658 3.34 3.32 2.679z" stroke="#fff"/><path d="M8.885 8.941c.87-.185 2.042-.903 3.12-1.98 1.654-1.655 2.459-3.532 1.797-4.194-.662-.661-2.54.143-4.193 1.797-.323.324-.614.655-.868.985" stroke="#fff" stroke-linecap="round"/></svg>