<svg width="18" height="18" fill="none" xmlns="http://www.w3.org/2000/svg"><path fill-rule="evenodd" clip-rule="evenodd" d="M15.354 2.646a.5.5 0 0 1 0 .708l-1.251 1.25-.707-.707 1.25-1.25a.5.5 0 0 1 .708 0zm-1.89 2.597l-5.11 5.11a.5.5 0 0 1-.708-.707l5.111-5.11.707.707z" fill="#fff"/><path fill-rule="evenodd" clip-rule="evenodd" d="M4.467 4H8a.5.5 0 1 1 0 1H4.5c-.486 0-.8.001-1.03.032-.218.03-.285.076-.324.114-.038.039-.085.106-.114.323C3.002 5.701 3 6.014 3 6.5v7c0 .486.001.8.032 1.03.03.218.076.286.114.324.039.038.106.085.323.114.232.03.545.032 1.031.032h7c.486 0 .8-.001 1.03-.032.218-.03.286-.076.324-.114.038-.038.085-.106.114-.323.03-.232.032-.546.032-1.031V10a.5.5 0 0 1 1 0v3.533c0 .443 0 .825-.041 1.13-.044.329-.143.643-.398.898s-.57.354-.897.398c-.306.041-.688.041-1.131.041H4.467c-.443 0-.825 0-1.13-.041-.329-.044-.643-.143-.898-.398-.254-.255-.354-.57-.398-.897C2 14.358 2 13.976 2 13.533V6.5v-.033c0-.443 0-.825.041-1.13.044-.329.144-.643.398-.898.255-.254.57-.354.897-.398C3.642 4 4.024 4 4.467 4z" fill="#fff"/></svg>