<svg width="18" height="18" fill="none" xmlns="http://www.w3.org/2000/svg"><path d="M7.646 9.646a.5.5 0 0 0 .708.708l-.708-.708zm5.465-4.05l.353-.353-.707-.707-.354.353.708.708zm.638-2.052l-.353.353.707.707.353-.353-.707-.707zm1.605-.19a.5.5 0 0 0-.708-.708l.708.708zm-7 7l4.757-4.757-.708-.708-4.757 4.757.708.708zm6.102-6.103l.898-.897-.708-.708-.897.898.707.707z" fill="#fff"/><path d="M8 4.5H4.5c-.943 0-1.414 0-1.707.293C2.5 5.086 2.5 5.557 2.5 6.5v7c0 .943 0 1.414.293 1.707.293.293.764.293 1.707.293h7c.943 0 1.414 0 1.707-.293.293-.293.293-.764.293-1.707V10" stroke="#fff" stroke-linecap="round"/></svg>