<svg fill="none" height="18" width="18" xmlns="http://www.w3.org/2000/svg"><path d="m7.646 9.646a.5.5 0 0 0 .708.708zm5.465-4.05.353-.353-.707-.707-.354.353.708.708zm.638-2.052-.353.353.707.707.353-.353zm1.605-.19a.5.5 0 0 0 -.708-.708zm-7 7 4.757-4.757-.708-.708-4.757 4.757zm6.102-6.103.898-.897-.708-.708-.897.898z" fill="#fff"/><path d="m8 4.5h-3.5c-.943 0-1.414 0-1.707.293s-.293.764-.293 1.707v7c0 .943 0 1.414.293 1.707s.764.293 1.707.293h7c.943 0 1.414 0 1.707-.293s.293-.764.293-1.707v-3.5" stroke="#fff" stroke-linecap="round"/></svg>