<svg width="18" height="18" fill="none" xmlns="http://www.w3.org/2000/svg"><path fill-rule="evenodd" clip-rule="evenodd" d="M7.802 3.61c-.282.082-.65.242-1.202.483l-2.1.916c-.446.195-.745.326-.965.452-.21.12-.308.212-.372.31-.063.097-.11.224-.135.464C3 6.487 3 6.813 3 7.301v2.544c0 .706.001 1.179.051 1.515.049.327.126.399.175.431.05.032.146.074.465-.012.328-.089.762-.277 1.409-.559l.45-.196.4.916-.487.213c-.6.262-1.102.48-1.51.591-.426.116-.871.148-1.275-.116-.403-.264-.551-.685-.616-1.121C2 11.088 2 10.54 2 9.886V7.274c0-.454 0-.834.033-1.146.036-.33.112-.628.294-.905.181-.277.424-.466.712-.63.273-.156.62-.308 1.037-.49l2.156-.94c.511-.224.939-.41 1.29-.513.363-.106.745-.154 1.114.019a1.5 1.5 0 0 1 .355.232c.306.27.414.639.463 1.014.046.362.046.83.046 1.387v.034h-1c0-.6-.001-1.003-.038-1.294-.037-.287-.098-.36-.132-.39a.5.5 0 0 0-.118-.077c-.04-.02-.132-.046-.41.035z" fill="#fff"/><path fill-rule="evenodd" clip-rule="evenodd" d="M11.048 4.899c-.232.073-.532.203-.981.4L7.75 6.308c-.446.195-.745.326-.965.452-.21.12-.308.212-.372.31-.063.097-.11.224-.135.464-.027.252-.028.578-.028 1.065v2.545c0 .706.001 1.179.051 1.515.049.327.126.399.175.43.05.033.146.075.465-.011.328-.089.762-.277 1.409-.559l.45-.196.4.916-.487.213c-.6.262-1.102.48-1.51.591-.426.115-.871.148-1.275-.116-.403-.264-.551-.685-.616-1.122-.062-.418-.062-.966-.062-1.62V8.574c0-.454 0-.834.033-1.146.036-.33.112-.628.294-.905.181-.277.424-.466.712-.63.273-.156.62-.308 1.037-.49l2.366-1.032c.417-.182.766-.335 1.055-.426.296-.093.608-.15.924-.057.285.083.54.25.73.478.212.253.284.562.317.87.032.3.032.681.032 1.136V6.4h-1c0-.49 0-.817-.026-1.059-.026-.24-.07-.309-.09-.334a.5.5 0 0 0-.244-.16c-.031-.009-.113-.02-.342.052z" fill="#fff"/><path fill-rule="evenodd" clip-rule="evenodd" d="M14.309 6.221c-.328.089-.762.277-1.409.56l-1.9.828c-.446.195-.745.326-.965.452-.21.12-.308.212-.372.31-.063.097-.11.224-.135.464C9.5 9.087 9.5 9.413 9.5 9.9v2.545c0 .706.001 1.179.051 1.515.049.327.126.399.175.43.05.033.146.075.465-.011.328-.089.762-.277 1.409-.559l1.9-.83c.446-.194.745-.325.965-.45.21-.12.308-.213.372-.31.063-.098.11-.225.135-.465.027-.252.028-.578.028-1.065V8.155c0-.706-.001-1.179-.051-1.515-.049-.327-.126-.399-.175-.43-.05-.033-.146-.075-.465.011zm-.261-.965c.425-.115.87-.148 1.274.116.403.265.552.685.616 1.122.062.418.062.966.062 1.62v2.612c0 .454 0 .834-.034 1.146-.035.33-.111.628-.293.905-.181.277-.424.466-.712.63-.273.156-.62.308-1.037.49l-1.961.856c-.6.262-1.102.48-1.51.591-.426.115-.871.148-1.275-.116-.403-.264-.551-.685-.616-1.122-.062-.418-.062-.966-.062-1.62V9.874c0-.454 0-.834.033-1.146.036-.33.112-.628.294-.905.181-.277.424-.466.712-.63.273-.156.62-.308 1.037-.49l1.961-.856c.6-.262 1.102-.48 1.51-.591z" fill="#fff"/></svg>