<svg width="18" height="18" fill="none" xmlns="http://www.w3.org/2000/svg"><path fill-rule="evenodd" clip-rule="evenodd" d="M5.547 6.936l.036-.016.394.92c-.787.337-1.33.57-1.69.785-.37.22-.401.337-.407.378a.5.5 0 0 0-.003.105c.003.04.028.159.384.4.347.236.875.501 1.641.884l1.533.766c.922.462 1.239.606 1.565.606.326 0 .643-.144 1.565-.606l1.533-.766c.766-.383 1.294-.648 1.641-.884.356-.241.38-.36.384-.4a.504.504 0 0 0-.003-.105c-.006-.04-.037-.157-.407-.378-.36-.215-.903-.448-1.69-.786l.394-.919.036.016c.742.318 1.347.577 1.772.83.422.252.815.581.886 1.103.014.104.017.21.009.314-.04.525-.413.877-.82 1.153-.409.277-.997.572-1.72.933l-1.568.784-.102.051c-.777.39-1.318.66-1.91.66-.592 0-1.133-.27-1.91-.66l-.102-.051-1.568-.784c-.723-.361-1.311-.655-1.72-.933-.407-.276-.78-.628-.82-1.153a1.5 1.5 0 0 1 .01-.314c.07-.522.463-.851.885-1.103.425-.253 1.03-.512 1.772-.83z" fill="#fff"/><path fill-rule="evenodd" clip-rule="evenodd" d="M5.086 10.133l.026-.01.394.918c-.575.247-.971.417-1.246.57-.285.157-.335.24-.344.262a.5.5 0 0 0-.01.366c.007.022.052.109.327.283.266.168.65.361 1.21.64l1.992.996c.922.462 1.239.606 1.565.606.326 0 .643-.144 1.565-.606l1.991-.995c.56-.28.945-.473 1.21-.641.276-.174.32-.26.329-.283a.5.5 0 0 0-.011-.366c-.01-.021-.06-.105-.344-.263-.275-.152-.67-.322-1.246-.569l.394-.919.026.011c.543.233.986.423 1.31.602.32.177.63.398.78.744.149.35.16.742.031 1.1-.127.354-.425.593-.734.788-.313.198-.744.413-1.272.678l-2.017 1.008-.102.051c-.777.39-1.318.66-1.91.66-.592 0-1.133-.27-1.91-.66l-.102-.051-2.017-1.008c-.528-.264-.959-.48-1.272-.678-.309-.195-.607-.434-.734-.789a1.5 1.5 0 0 1 .032-1.099c.148-.346.46-.567.78-.744.323-.18.766-.369 1.309-.601zM9 3.176c-.284 0-.563.11-1.379.459l-1.46.626c-.872.374-1.473.633-1.865.872-.4.245-.419.372-.42.422-.002.05.01.178.394.446.377.262.962.556 1.81.98l1.355.677c.922.462 1.239.606 1.565.606.326 0 .643-.144 1.565-.606l1.354-.677c.849-.424 1.434-.718 1.81-.98.386-.268.397-.395.395-.446-.001-.05-.02-.177-.42-.422-.392-.24-.993-.498-1.865-.872l-1.46-.626c-.816-.35-1.095-.46-1.379-.46zm-1.682-.5c.688-.295 1.167-.5 1.682-.5.515 0 .994.205 1.682.5l.09.04 1.501.643c.823.352 1.492.639 1.953.921.461.282.88.658.898 1.246.017.588-.38.987-.823 1.296-.444.309-1.095.634-1.896 1.034l-1.393.697-.102.051c-.777.39-1.318.66-1.91.66-.592 0-1.133-.27-1.91-.66l-.102-.051-1.393-.697c-.8-.4-1.452-.725-1.896-1.034-.443-.309-.84-.708-.823-1.296.018-.588.437-.964.898-1.246.461-.282 1.13-.569 1.953-.921l1.5-.643c.03-.013.061-.026.09-.04z" fill="#fff"/></svg>