<svg width="18" height="18" fill="none" xmlns="http://www.w3.org/2000/svg"><path d="M5.3 11.678l.2.458-.2-.458zm-2.348.531l-.274.418.274-.418zM6.4 3.634l-.2-.458.2.458zm2.26-.357l.33-.376-.33.376zM3 9.845V7.3H2v2.545h1zM4.5 5.01l2.1-.916-.4-.917-2.1.917.4.916zm1.05 6.014l-.45.197.4.916.45-.196-.4-.916zM2 9.846c0 .673-.001 1.234.062 1.661.065.437.213.857.616 1.121l.548-.836c-.049-.032-.126-.104-.175-.431C3.001 11.024 3 10.55 3 9.845H2zm3.1 1.375c-.647.282-1.08.47-1.409.559-.319.086-.416.044-.465.012l-.548.836c.404.265.849.232 1.274.117.417-.113.931-.338 1.548-.607l-.4-.917zm1.5-7.127c.551-.24.92-.4 1.202-.483.278-.08.37-.054.41-.035l.424-.906c-.369-.173-.75-.125-1.114-.019-.358.105-.796.297-1.322.526l.4.917zm2.9 1.243c0-.573.001-1.051-.047-1.421-.048-.375-.156-.745-.462-1.014l-.66.751c.033.03.094.103.13.39.038.291.039.693.039 1.294h1zM8.212 3.575a.5.5 0 0 1 .118.077l.66-.75a1.5 1.5 0 0 0-.354-.233l-.424.906zM3 7.3c0-.487 0-.813.028-1.065.026-.24.072-.367.135-.464l-.836-.548c-.182.277-.258.575-.294.905C2 6.446 2 6.835 2 7.3h1zm1.1-3.207c-.427.186-.783.34-1.06.5-.289.164-.532.353-.713.63l.836.548c.064-.098.162-.19.372-.31.22-.126.519-.257.965-.452l-.4-.916z" fill="#fff"/><path d="M8.55 12.978l.2.459-.2-.459zm-2.348.531l-.274.419.274-.419zm3.665-8.67l-.2-.457.2.458zm1.664-.471l-.14.48.14-.48zm.486.318l.384-.32-.384.32zM7.55 5.851l-.2-.458.2.458zm-1.555.946l.418.274-.418-.274zm.255 4.348V8.601h-1v2.544h1zm1.5-4.836l2.317-1.01-.4-.917-2.317 1.01.4.917zm1.05 6.015l-.45.196.4.917.45-.197-.4-.916zm-3.55-1.179c0 .673-.001 1.235.062 1.662.065.436.213.857.616 1.12l.548-.836c-.049-.032-.126-.104-.175-.431-.05-.336-.051-.809-.051-1.515h-1zm3.1 1.375c-.647.282-1.08.47-1.409.559-.319.086-.416.044-.465.012l-.548.837c.404.264.849.231 1.274.116.417-.113.931-.338 1.548-.607l-.4-.917zm1.717-7.222c.449-.196.75-.326.98-.4.23-.072.312-.06.343-.05l.281-.96c-.316-.093-.628-.036-.924.057-.294.093-.652.25-1.08.437l.4.916zM12.75 6.4c0-.467 0-.857-.032-1.164-.033-.308-.105-.617-.317-.87l-.767.64c.02.026.064.096.09.336.025.24.026.568.026 1.058h1zm-1.36-1.552a.5.5 0 0 1 .244.159l.767-.641a1.5 1.5 0 0 0-.73-.478l-.28.96zM6.25 8.6c0-.488 0-.814.028-1.066.026-.24.072-.367.135-.464l-.836-.548c-.182.277-.258.575-.294.905-.034.318-.033.707-.033 1.173h1zm1.1-3.208c-.427.186-.783.34-1.06.5-.289.164-.532.353-.713.63l.836.548c.064-.098.162-.19.372-.31.22-.126.519-.257.965-.452l-.4-.916z" fill="#fff"/><path d="M9.452 14.81l-.274.418.274-.419zm4.248-1.36l-.2-.459.2.458zm1.555-.947l.418.274-.418-.274zm-.207-6.712l.274-.418-.274.418zM15 8.155V10.7h1V8.155h-1zm-1.5 4.836l-1.9.83.4.916 1.9-.83-.4-.916zm-4-.546V9.901h-1v2.544h1zM11 7.61l1.9-.829-.4-.916-1.9.829.4.916zm.6 6.211c-.647.282-1.08.47-1.409.559-.32.086-.416.044-.465.012l-.548.837c.404.264.849.232 1.274.116.417-.113.931-.338 1.548-.607l-.4-.917zm-3.1-1.375c0 .673-.001 1.235.062 1.662.065.436.213.857.616 1.12l.548-.836c-.049-.032-.126-.104-.175-.431-.05-.336-.051-.809-.051-1.515h-1zM15 10.7c0 .487 0 .813-.028 1.065-.026.24-.072.367-.135.464l.836.548c.182-.277.258-.575.293-.905.035-.318.034-.707.034-1.172h-1zm-1.1 3.208c.427-.187.783-.342 1.06-.5.289-.164.532-.354.713-.63l-.836-.549c-.064.098-.162.19-.372.31-.22.126-.519.257-.965.452l.4.917zM16 8.155c0-.673.001-1.234-.062-1.661-.065-.437-.213-.857-.616-1.121l-.548.836c.049.032.126.104.175.431.05.337.051.81.051 1.515h1zM12.9 6.78c.647-.282 1.08-.47 1.409-.559.32-.086.416-.044.465-.012l.548-.836c-.404-.264-.849-.232-1.274-.117-.417.113-.931.339-1.548.608l.4.916zM9.5 9.9c0-.487 0-.813.028-1.065.026-.24.072-.367.135-.464l-.836-.548c-.182.277-.258.575-.294.905-.034.318-.033.707-.033 1.173h1zm1.1-3.207c-.427.186-.783.34-1.06.5-.289.164-.532.353-.713.63l.836.548c.064-.098.162-.19.372-.31.22-.126.519-.257.965-.452l-.4-.916z" fill="#fff"/></svg>