<svg fill="none" height="18" width="18" xmlns="http://www.w3.org/2000/svg"><g fill="#fff"><path d="m5.679 10.84-.224.447.224-.448zm-2.3-1.695-.499.038zm.006-.21.495.068-.495-.067zm7.404 2.67-.224-.447.224.448zm1.532-.766-.223-.447zm2.3-1.694-.498-.037zm-.006-.21-.495.068.495-.067zm-2.517 1.457-1.533.766.447.895 1.533-.767zm-4.663.766-1.533-.766-.447.895 1.533.766zm-1.533-.766c-.766-.383-1.294-.648-1.641-.884-.356-.241-.38-.36-.384-.4l-.997.075c.04.525.413.877.82 1.153.415.282 1.016.581 1.755.95zm-.319-3.472c-.759.326-1.376.59-1.808.846-.422.252-.815.581-.886 1.103l.991.134c.006-.04.037-.157.407-.378.36-.215.903-.448 1.69-.786zm-1.706 2.188a.5.5 0 0 1 .003-.105l-.99-.134a1.5 1.5 0 0 0 -.01.314zm6.688 2.05c-.922.462-1.239.606-1.565.606v1c.618 0 1.18-.295 2.012-.711zm-3.577.895c.832.416 1.394.71 2.012.71v-1c-.326 0-.643-.143-1.565-.605zm5.557-.767c.739-.369 1.34-.668 1.755-.95.407-.276.78-.628.82-1.153l-.997-.075c-.003.04-.028.159-.384.4-.347.236-.875.501-1.641.884l.447.895zm-.522-3.447c.787.338 1.33.571 1.69.786.37.22.401.337.407.378l.99-.134c-.07-.522-.463-.851-.885-1.103-.432-.257-1.05-.52-1.808-.846l-.394.92zm3.097 1.344c.008-.105.005-.21-.01-.314l-.99.134c.005.035.006.07.003.105z"/><path d="m5.22 13.61-.223.447zm-1.764-1.934-.46-.197zm7.333 2.93-.224-.448zm-1.789.658v.5zm3.78-1.654-.224-.447zm1.785-1.201.47.17zm-.021-.733.46-.197zm-1.988 1.487-1.99.995.446.895 1.992-.996zm-5.121.995-1.991-.995-.447.894 1.99.996zm-1.991-.995c-.56-.28-.945-.473-1.21-.641-.276-.174-.32-.26-.329-.283l-.94.34c.127.354.425.593.734.788.318.201.758.42 1.298.69zm-.332-3.04c-.555.237-1.006.43-1.336.612-.32.177-.63.398-.78.744l.92.394c.01-.021.059-.105.344-.263.275-.152.67-.322 1.246-.569l-.394-.919zm-1.207 2.117a.5.5 0 0 1 .011-.367l-.92-.394a1.5 1.5 0 0 0 -.031 1.1l.94-.34zm6.66 1.918c-.922.462-1.239.606-1.565.606v1c.618 0 1.18-.295 2.012-.711zm-3.577.895c.832.416 1.394.711 2.012.711v-1c-.326 0-.643-.144-1.565-.606zm6.016-.996c.54-.27.979-.489 1.297-.69.309-.195.607-.434.734-.789l-.94-.338c-.008.021-.053.108-.328.282-.266.168-.65.361-1.21.64zm-.51-3.016c.575.247.971.417 1.246.57.285.157.335.24.344.262l.92-.394c-.15-.346-.46-.567-.78-.744-.33-.182-.781-.375-1.336-.613l-.394.92zm2.541 1.537a1.5 1.5 0 0 0 -.032-1.099l-.92.394a.5.5 0 0 1 .012.367zm-11.659-7.036-.5-.015.5.014zm7.413 2.565-.224-.448zm-3.578 0 .224-.448zm4.932-.677-.224-.448zm2.48-1.889-.499.015.5-.014zm-7.198-2.366.197.46zm4.495 3.806-1.354.677.447.895 1.355-.677zm-4.484.677-1.356-.677-.448.895 1.355.677.447-.895zm-1.276-3.397 1.46-.626-.394-.92-1.46.627.393.919zm4.218-.626 1.46.626.394-.92-1.46-.625zm-4.298 3.345c-.849-.424-1.434-.718-1.81-.98-.386-.268-.397-.395-.395-.446l-1-.03c-.017.589.38.988.823 1.297.451.314 1.116.645 1.934 1.054zm-.314-3.64c-.841.361-1.524.652-1.993.94-.461.281-.88.657-.898 1.245l1 .03c.001-.051.02-.178.42-.423.392-.24.993-.498 1.864-.872zm4.798 4.317c-.922.462-1.239.606-1.565.606v1c.618 0 1.18-.295 2.012-.711zm-3.577.895c.832.416 1.394.71 2.012.71v-1c-.326 0-.643-.143-1.565-.605zm5.379-.677c.818-.41 1.483-.74 1.934-1.054.443-.309.84-.708.823-1.296l-1 .03c.002.05-.01.177-.394.445-.377.262-.962.556-1.81.98zm-.528-3.615c.872.374 1.473.633 1.865.872.4.245.419.372.42.422l1-.03c-.018-.587-.437-.963-.898-1.245-.469-.287-1.152-.578-1.993-.938zm-4.218-.626c.816-.35 1.095-.46 1.379-.46v-1c-.537 0-1.035.225-1.773.54zm3.152-.92c-.738-.315-1.236-.54-1.773-.54v1c.284 0 .563.11 1.379.46z"/></g></svg>