<svg width="18" height="18" fill="none" xmlns="http://www.w3.org/2000/svg"><path d="M8.048 4.947c.392-1.213.588-1.82.952-1.82s.56.607.952 1.82l.574 1.78c.108.334.162.5.294.597.131.095.307.095.658.095h1.433c1.272 0 1.908 0 2.02.346.112.346-.403.72-1.434 1.465l-1.283.928c-.284.205-.426.308-.477.462-.05.155.004.322.111.655l.588 1.817c.387 1.2.58 1.8.288 2.012-.293.214-.804-.155-1.826-.894l-1.312-.948c-.283-.204-.424-.306-.586-.306-.162 0-.303.102-.586.306l-1.312.948c-1.022.738-1.532 1.107-1.826.894-.293-.213-.099-.812.288-2.012l.588-1.817c.107-.333.161-.5.11-.655-.05-.154-.192-.257-.476-.462L4.503 9.23c-1.03-.746-1.546-1.119-1.434-1.465.112-.346.748-.346 2.02-.346h1.433c.351 0 .527 0 .658-.095.132-.096.186-.263.294-.597l.574-1.78z" stroke="#fff" stroke-linecap="round" stroke-linejoin="round"/></svg>