<svg width="18" height="18" fill="none" xmlns="http://www.w3.org/2000/svg"><path fill-rule="evenodd" clip-rule="evenodd" d="M8.987 3.796c-.126.267-.262.683-.463 1.305L7.95 6.88l-.006.02c-.048.15-.096.298-.152.42a.99.99 0 0 1-.316.407.989.989 0 0 1-.484.176c-.134.016-.29.015-.447.015H5.089c-.652 0-1.089.002-1.38.04a2.01 2.01 0 0 0-.03.004c.006.007.013.014.021.02.214.203.568.46 1.096.842l1.3.94c.127.092.254.184.353.274a.99.99 0 0 1 .289.426.99.99 0 0 1 .019.514c-.027.132-.075.28-.123.43l-.594 1.837c-.198.615-.33 1.027-.383 1.313l-.005.03.026-.015c.256-.138.607-.39 1.13-.769l1.33-.96c.127-.092.253-.183.37-.249a.989.989 0 0 1 .492-.14c.198 0 .36.066.492.14.117.066.243.157.37.248l1.33.961c.523.379.874.63 1.13.77l.026.013a1.72 1.72 0 0 0-.005-.03c-.053-.285-.185-.697-.383-1.312l-.594-1.837a4.138 4.138 0 0 1-.123-.43.99.99 0 0 1 .019-.514.99.99 0 0 1 .289-.426c.099-.09.226-.182.353-.274l1.3-.94c.528-.382.882-.64 1.096-.841a1.43 1.43 0 0 0 .022-.021 1.934 1.934 0 0 0-.03-.005c-.292-.038-.73-.039-1.381-.039h-1.455c-.156 0-.313 0-.447-.015a.989.989 0 0 1-.484-.176.99.99 0 0 1-.316-.406 4.115 4.115 0 0 1-.152-.421l-.581-1.8c-.201-.622-.337-1.038-.463-1.305A2.002 2.002 0 0 0 9 3.768a2.126 2.126 0 0 0-.013.028zm-.588-.908A.84.84 0 0 1 9 2.628a.84.84 0 0 1 .601.26c.136.136.236.31.316.48.158.333.313.813.498 1.388l.587 1.817a3.624 3.624 0 0 0 .118.337h.004c.069.009.167.01.354.01h1.472c.603 0 1.106 0 1.47.047.188.024.384.066.555.153a.84.84 0 0 1 .432.491.84.84 0 0 1-.063.652c-.087.17-.221.32-.358.449-.268.252-.676.547-1.164.9l-1.315.95c-.151.11-.23.168-.282.215l-.002.002v.003c.014.068.044.162.101.34l.6 1.854c.183.568.336 1.043.402 1.401.034.185.055.383.024.572a.84.84 0 0 1-.332.56.84.84 0 0 1-.636.144 1.697 1.697 0 0 1-.536-.199c-.32-.174-.725-.466-1.209-.815l-1.344-.972a3.6 3.6 0 0 0-.293-.2l-.003.001a3.6 3.6 0 0 0-.29.2l-1.344.97c-.484.35-.888.643-1.21.816-.164.09-.347.17-.535.199a.84.84 0 0 1-.636-.144.84.84 0 0 1-.332-.56c-.03-.189-.01-.387.023-.572.067-.358.22-.833.404-1.401l.599-1.854c.057-.178.087-.272.1-.34v-.003l-.001-.002a3.632 3.632 0 0 0-.282-.214l-1.315-.951c-.488-.353-.896-.648-1.164-.9a1.708 1.708 0 0 1-.359-.45.84.84 0 0 1-.062-.65.84.84 0 0 1 .432-.492c.171-.087.367-.129.554-.153.365-.048.868-.048 1.471-.048h1.472a3.628 3.628 0 0 0 .357-.009l.002-.002c.028-.064.06-.157.117-.335l.587-1.817c.185-.575.34-1.055.498-1.388.08-.17.18-.344.316-.48z" fill="#fff"/></svg>