<svg width="18" height="18" fill="none" xmlns="http://www.w3.org/2000/svg"><path fill-rule="evenodd" clip-rule="evenodd" d="M6.467 2H11.533c.443 0 .825 0 1.13.041.329.044.643.144.898.398.255.255.354.57.398.897.041.306.041.688.041 1.131v9.066c0 .443 0 .825-.041 1.13-.044.329-.143.643-.398.898s-.57.354-.897.398c-.306.041-.688.041-1.131.041H6.467c-.443 0-.825 0-1.13-.041-.329-.044-.643-.143-.898-.398-.254-.255-.354-.57-.398-.897C4 14.358 4 13.976 4 13.533V4.5v-.033c0-.443 0-.825.041-1.13.044-.329.144-.643.398-.898.255-.254.57-.354.897-.398C5.642 2 6.024 2 6.467 2zM5.47 3.032c-.217.03-.284.076-.323.114-.038.039-.085.106-.114.323C5.002 3.701 5 4.014 5 4.5v9c0 .486.001.8.032 1.03.03.218.076.286.114.324.039.038.106.085.323.114.232.03.545.032 1.031.032h5c.486 0 .8-.001 1.03-.032.218-.03.286-.076.324-.114.038-.038.085-.106.114-.323.03-.232.032-.546.032-1.031v-9c0-.486-.001-.8-.032-1.03-.03-.218-.076-.285-.114-.324-.038-.038-.106-.085-.323-.114C12.299 3.002 11.985 3 11.5 3h-5c-.486 0-.8.001-1.03.032z" fill="#fff"/><path fill-rule="evenodd" clip-rule="evenodd" d="M6.5 5.5A.5.5 0 0 1 7 5h4a.5.5 0 0 1 0 1H7a.5.5 0 0 1-.5-.5zm0 3A.5.5 0 0 1 7 8h4a.5.5 0 0 1 0 1H7a.5.5 0 0 1-.5-.5zm0 3A.5.5 0 0 1 7 11h3a.5.5 0 0 1 0 1H7a.5.5 0 0 1-.5-.5z" fill="#fff"/></svg>