<svg width="18" height="18" fill="none" xmlns="http://www.w3.org/2000/svg"><path fill-rule="evenodd" clip-rule="evenodd" d="M3.5 8a.5.5 0 0 1 .5.5v7a.5.5 0 0 1-1 0v-7a.5.5 0 0 1 .5-.5zm3.385.5a.5.5 0 0 1 .5-.5H14.5a.5.5 0 0 1 .5.5v5.033c0 .443 0 .825-.041 1.13-.044.329-.143.643-.398.898s-.57.354-.897.398c-.306.041-.688.041-1.131.041H9.352c-.444 0-.825 0-1.131-.041-.328-.044-.642-.143-.897-.398s-.354-.57-.398-.897c-.041-.306-.041-.688-.041-1.131V8.5zm1 .5v4.5c0 .486 0 .8.032 1.03.029.218.076.286.114.324.038.038.106.085.323.114.231.03.545.032 1.03.032H12.5c.486 0 .8-.001 1.03-.032.218-.03.286-.076.324-.114.038-.038.085-.106.114-.323.03-.232.032-.546.032-1.031V9H7.885z" fill="#fff"/><path fill-rule="evenodd" clip-rule="evenodd" d="M5.294 2h7.412c.299 0 .561 0 .78.024.236.025.465.082.68.224.216.142.358.33.474.537.108.191.212.433.33.708l.828 1.933.013.031c.068.157.127.296.158.447.031.15.031.301.031.472v.157c0 .443 0 .825-.041 1.13-.044.329-.143.643-.398.898-.255.254-.57.354-.897.398C14.358 9 13.976 9 13.533 9H4.467c-.443 0-.825 0-1.13-.041-.329-.044-.643-.144-.898-.398-.255-.255-.354-.57-.398-.897C2 7.358 2 6.976 2 6.533V6.41v-.035c0-.17 0-.322.03-.472a2.318 2.318 0 0 1 .172-.478l.819-1.91.01-.023c.117-.275.22-.517.328-.708.117-.207.26-.395.475-.537.215-.142.444-.199.68-.224C4.732 2 4.995 2 5.294 2zm-.672 1.018c-.147.016-.203.041-.238.065-.035.023-.08.064-.153.192-.078.139-.16.33-.291.634l-.819 1.91a1.764 1.764 0 0 0-.11.286C3.001 6.143 3 6.187 3 6.41V6.5c0 .486.001.8.032 1.03.03.218.076.285.114.324.038.038.106.085.323.114.232.03.545.032 1.031.032h9c.486 0 .8-.001 1.03-.032.218-.03.286-.076.324-.114.038-.039.085-.106.114-.323.03-.232.032-.545.032-1.031v-.09c0-.223-.002-.267-.01-.305a1.773 1.773 0 0 0-.111-.285l-.82-1.91a7.265 7.265 0 0 0-.29-.635c-.072-.128-.118-.17-.153-.192-.035-.024-.091-.05-.238-.065A7.3 7.3 0 0 0 12.681 3H5.32c-.33 0-.54 0-.697.018z" fill="#fff"/><path fill-rule="evenodd" clip-rule="evenodd" d="M5 5.5a.5.5 0 0 1 .5.5v2a.5.5 0 0 1-1 0V6a.5.5 0 0 1 .5-.5zm4 0a.5.5 0 0 1 .5.5v2a.5.5 0 0 1-1 0V6a.5.5 0 0 1 .5-.5zm4 0a.5.5 0 0 1 .5.5v2a.5.5 0 0 1-1 0V6a.5.5 0 0 1 .5-.5z" fill="#fff"/></svg>