<svg width="18" height="18" fill="none" xmlns="http://www.w3.org/2000/svg"><path d="M3.5 8.5v7m11-7v5c0 .943 0 1.414-.293 1.707-.293.293-.764.293-1.707.293H9.385c-.943 0-1.415 0-1.707-.293-.293-.293-.293-.764-.293-1.707v-5H14.5zm-1.819-6H5.32c-.64 0-.96 0-1.21.165s-.377.46-.628 1.047l-.82 1.91c-.08.189-.12.283-.14.382-.021.1-.021.202-.021.407V6.5c0 .943 0 1.414.293 1.707.293.293.764.293 1.707.293h9c.943 0 1.414 0 1.707-.293.293-.293.293-.764.293-1.707v-.09c0-.204 0-.306-.02-.406-.02-.1-.061-.193-.142-.381l-.818-1.91c-.252-.589-.378-.883-.629-1.048-.25-.165-.57-.165-1.21-.165zM9 8V6M5 8V6m8 2V6" stroke="#fff" stroke-linecap="round" stroke-linejoin="round"/></svg>