<svg width="18" height="18" fill="none" xmlns="http://www.w3.org/2000/svg"><path fill-rule="evenodd" clip-rule="evenodd" d="M6.445 3.615C5.855 4 5.5 4.57 5.5 5.39c0 .596.119 1.041.34 1.398.17.277.418.525.768.755.558.366 1.355.67 2.456.958H15a.5.5 0 0 1 0 1h-3.256c.218.129.416.267.595.418.804.677 1.161 1.557 1.161 2.693 0 1.174-.54 2.05-1.398 2.611-.834.545-1.94.778-3.102.778-1.452 0-2.844-.367-3.697-1.273a.5.5 0 1 1 .728-.686C6.61 14.657 7.669 15 9 15c1.048 0 1.94-.214 2.555-.615.59-.385.945-.954.945-1.774 0-.892-.263-1.472-.806-1.929-.552-.465-1.43-.835-2.758-1.182H3a.5.5 0 0 1 0-1h3.256a4.902 4.902 0 0 1-.197-.122c-.448-.294-.808-.642-1.07-1.065-.341-.552-.489-1.191-.489-1.924 0-1.174.54-2.05 1.398-2.611C6.732 2.233 7.838 2 9 2c1.56 0 3.061.425 3.887 1.495a.5.5 0 0 1-.792.61C11.55 3.4 10.439 3 9 3c-1.048 0-1.94.214-2.555.615z" fill="#fff"/></svg>