<svg width="18" height="18" fill="none" xmlns="http://www.w3.org/2000/svg"><g clip-path="url(#clip0_877_11020)"><g clip-path="url(#clip1_877_11020)"><path fill-rule="evenodd" clip-rule="evenodd" d="M9.146 2.646a.5.5 0 0 1 .708 0L15 7.793V3a.5.5 0 1 1 1 0v12a.5.5 0 0 1-1 0v-4.793l-5.146 5.147a.5.5 0 0 1-.707-.708L14.293 9.5H2.5a.5.5 0 0 1 0-1h11.793L9.147 3.354a.5.5 0 0 1 0-.708z" fill="#fff"/></g></g><defs><clipPath id="clip0_877_11020"><path fill="#fff" d="M0 0H18V18H0z"/></clipPath><clipPath id="clip1_877_11020"><path fill="#fff" transform="rotate(-90 9 9)" d="M0 0H18V18H0z"/></clipPath></defs></svg>