<svg width="18" height="18" fill="none" xmlns="http://www.w3.org/2000/svg"><g clip-path="url(#clip0_877_11041)" fill-rule="evenodd" clip-rule="evenodd" fill="#fff"><path d="M6.463 3.5h5.074c.911 0 1.646 0 2.224.078.6.08 1.106.253 1.507.654.401.402.574.907.654 1.507C16 6.317 16 7.052 16 7.963V8.5a.5.5 0 0 1-1 0V8c0-.957-.001-1.624-.069-2.128-.065-.49-.186-.748-.37-.933-.185-.184-.444-.304-.933-.37C13.124 4.5 12.457 4.5 11.5 4.5h-5c-.957 0-1.624.001-2.128.069-.49.066-.748.186-.933.37-.184.185-.304.444-.37.933C3 6.376 3 7.043 3 8v2c0 .957.001 1.624.069 2.128.066.49.186.748.37.933.185.184.444.305.933.37.504.068 1.171.069 2.128.069H10a.5.5 0 0 1 0 1H6.463c-.911 0-1.646 0-2.224-.078-.6-.08-1.105-.253-1.507-.654-.401-.402-.574-.907-.654-1.507C2 11.683 2 10.948 2 10.037V7.963c0-.911 0-1.646.078-2.224.08-.6.253-1.105.654-1.507.402-.401.907-.574 1.507-.654C4.817 3.5 5.552 3.5 6.463 3.5z"/><path d="M13.5 9.5a.5.5 0 0 1 .5.5v1.5h1.5a.5.5 0 0 1 0 1H14V14a.5.5 0 0 1-1 0v-1.5h-1.5a.5.5 0 0 1 0-1H13V10a.5.5 0 0 1 .5-.5z"/><path d="M8.846 3.75a.25.25 0 0 1 .25.25v3.321H15a.25.25 0 1 1 0 .5H9.096v2.562h1.508a.25.25 0 1 1 0 .5H9.096V14a.25.25 0 1 1-.5 0v-3.117H3a.25.25 0 0 1 0-.5h5.596V7.82H3a.25.25 0 0 1 0-.5h5.596V4a.25.25 0 0 1 .25-.25z"/></g><defs><clipPath id="clip0_877_11041"><path fill="#fff" d="M0 0H18V18H0z"/></clipPath></defs></svg>