<svg width="18" height="18" fill="none" xmlns="http://www.w3.org/2000/svg"><g clip-path="url(#clip0_877_11040)" fill-rule="evenodd" clip-rule="evenodd" fill="#fff"><path d="M6.463 3.5h4.574c.911 0 1.646 0 2.224.078.6.08 1.106.253 1.507.654.401.402.574.907.654 1.507.078.578.078 1.313.078 2.224v2.074c0 .911 0 1.646-.078 2.224-.08.6-.253 1.106-.654 1.507-.402.401-.907.574-1.507.654-.578.078-1.313.078-2.224.078H6.463c-.911 0-1.646 0-2.224-.078-.6-.08-1.105-.253-1.507-.654-.401-.402-.574-.907-.654-1.507C2 11.683 2 10.948 2 10.037V7.963c0-.911 0-1.646.078-2.224.08-.6.253-1.105.654-1.507.402-.401.907-.574 1.507-.654C4.817 3.5 5.552 3.5 6.463 3.5zm-2.09 1.069c-.49.066-.75.186-.934.37-.184.185-.304.444-.37.933C3 6.376 3 7.043 3 8v2c0 .957.001 1.624.069 2.128.066.49.186.748.37.933.185.184.444.305.933.37.504.068 1.171.069 2.128.069H11c.957 0 1.624-.001 2.128-.069.49-.065.748-.186.933-.37.184-.185.305-.444.37-.933.068-.504.069-1.171.069-2.128V8c0-.957-.001-1.624-.069-2.128-.065-.49-.186-.748-.37-.933-.185-.184-.444-.304-.933-.37C12.624 4.5 11.957 4.5 11 4.5H6.5c-.957 0-1.624.001-2.128.069z"/><path d="M9 3.75a.25.25 0 0 1 .25.25v3.25H15a.25.25 0 1 1 0 .5H9.25v2.5H15a.25.25 0 1 1 0 .5H9.25V14a.25.25 0 1 1-.5 0v-3.25H3a.25.25 0 1 1 0-.5h5.75v-2.5H3a.25.25 0 0 1 0-.5h5.75V4A.25.25 0 0 1 9 3.75z"/></g><defs><clipPath id="clip0_877_11040"><path fill="#fff" d="M0 0H18V18H0z"/></clipPath></defs></svg>