<svg width="18" height="18" fill="none" xmlns="http://www.w3.org/2000/svg"><path fill-rule="evenodd" clip-rule="evenodd" d="M2.5 15a.5.5 0 0 1 .5-.5h12a.5.5 0 1 1 0 1H3a.5.5 0 0 1-.5-.5zM6.774 4a.49.49 0 0 0-.366.816l.04.044.026.03a1.5 1.5 0 0 1-.508 2.345l-.038.017-.772.34c-.405.18-.877.126-1.231-.14a.21.21 0 0 0-.147-.05.238.238 0 0 0-.135.06.238.238 0 0 0-.079.125.21.21 0 0 0 .03.152l.48.863a.434.434 0 0 0 .502.205l9.243-2.747a.5.5 0 0 0 .354-.69.5.5 0 0 0-.616-.35l-2.359.487a95.29 95.29 0 0 0-.055.011c-.273.057-.515.107-.763.077-.247-.03-.47-.138-.72-.26a47.354 47.354 0 0 0-.052-.024L6.987 4.048A.49.49 0 0 0 6.774 4zM5.662 5.481C4.806 4.521 5.487 3 6.774 3c.224 0 .445.05.646.148l2.622 1.262c.332.16.398.185.46.192.063.008.134 0 .494-.075l2.364-.488.066-.013a1.5 1.5 0 0 1 1.668.949l.022.063.004.011.025.073a1.5 1.5 0 0 1-.962 1.872c-.021.008-.045.015-.073.023L4.86 9.766A1.434 1.434 0 0 1 3.2 9.088l-.48-.863c-.641-1.156.751-2.368 1.807-1.573a.224.224 0 0 0 .226.026l.771-.34.026-.012a.5.5 0 0 0 .169-.782l-.019-.02-.037-.043z" fill="#fff"/></svg>