<svg width="18" height="18" fill="none" xmlns="http://www.w3.org/2000/svg"><path d="M3 15h12" stroke="#fff" stroke-linecap="round"/><path d="M13.961 6.54L4.718 9.287a.934.934 0 0 1-1.082-.442l-.48-.863c-.38-.684.445-1.4 1.07-.93.21.158.488.19.728.084l.772-.342.031-.014a1 1 0 0 0 .339-1.563l-.023-.026-.038-.042C5.466 4.51 5.92 3.5 6.775 3.5a.99.99 0 0 1 .429.098L9.825 4.86c.302.146.453.218.617.239.163.02.327-.014.655-.082l2.36-.487.057-.011a1 1 0 0 1 1.112.632l.02.056.021.064a1 1 0 0 1-.64 1.249l-.066.02z" stroke="#fff"/></svg>