<svg width="18" height="18" fill="none" xmlns="http://www.w3.org/2000/svg"><path fill-rule="evenodd" clip-rule="evenodd" d="M9 4.806a4.194 4.194 0 1 0 0 8.389 4.194 4.194 0 0 0 0-8.39zM3.806 9a5.194 5.194 0 1 1 10.388 0A5.194 5.194 0 0 1 3.806 9z" fill="#fff"/><path fill-rule="evenodd" clip-rule="evenodd" d="M9 2a.5.5 0 0 1 .5.5v3.611a.5.5 0 0 1-1 0V2.5A.5.5 0 0 1 9 2zM2 9a.5.5 0 0 1 .5-.5h3.611a.5.5 0 0 1 0 1H2.5A.5.5 0 0 1 2 9zm9.389 0a.5.5 0 0 1 .5-.5H15.5a.5.5 0 0 1 0 1h-3.611a.5.5 0 0 1-.5-.5zM9 11.389a.5.5 0 0 1 .5.5V15.5a.5.5 0 0 1-1 0v-3.611a.5.5 0 0 1 .5-.5z" fill="#fff"/></svg>