<svg width="18" height="18" fill="none" xmlns="http://www.w3.org/2000/svg"><path fill-rule="evenodd" clip-rule="evenodd" d="M9.529 3.03C9.306 3 9.005 3 8.54 3H7v12h1.5a.5.5 0 1 1 0 1H4.346a.5.5 0 0 1 0-1H6V3H4.46c-.466 0-.766.001-.989.03-.21.027-.276.07-.313.106a.49.49 0 0 0-.022.022c-.035.037-.08.104-.106.313C3 3.694 3 3.995 3 4.46v.04a.5.5 0 1 1-1 0v-.04-.031c0-.425 0-.792.038-1.086.04-.315.132-.618.369-.87a1.5 1.5 0 0 1 .066-.066c.252-.237.555-.328.87-.369C3.637 2 4.003 2 4.428 2h4.144c.425 0 .79 0 1.085.038.315.04.618.132.87.369.023.021.045.043.067.066.236.252.327.555.368.87.038.294.038.66.038 1.086V4.5a.5.5 0 0 1-1 0v-.04c0-.466-.001-.766-.03-.989-.027-.21-.07-.276-.106-.313a.5.5 0 0 0-.022-.022c-.037-.035-.104-.08-.313-.106z" fill="#fff"/><path fill-rule="evenodd" clip-rule="evenodd" d="M11.858 7.5H14.142c.328 0 .611 0 .855.085.43.15.767.489.918.918.086.244.085.527.085.855V9.5a.5.5 0 0 1-1 0v-.07c0-.442-.007-.535-.028-.596a.5.5 0 0 0-.306-.306c-.06-.02-.154-.028-.596-.028h-.57V15h.625a.5.5 0 0 1 0 1h-2.25a.5.5 0 1 1 0-1h.625V8.5h-.57c-.442 0-.535.007-.596.028a.5.5 0 0 0-.306.306c-.02.06-.028.154-.028.596v.07a.5.5 0 0 1-1 0v-.07-.072c0-.328 0-.611.085-.855a1.5 1.5 0 0 1 .918-.918c.244-.086.527-.085.855-.085z" fill="#fff"/></svg>