<svg width="18" height="18" fill="none" xmlns="http://www.w3.org/2000/svg"><path d="M6.5 2.5v13m0-13h2.04c.904 0 1.356 0 1.645.271l.044.044c.271.29.271.741.271 1.645v.04m-4-2H4.46c-.904 0-1.356 0-1.645.271a1 1 0 0 0-.044.045c-.271.288-.271.74-.271 1.644v.04m4 11H4.346m2.154 0h2M13 8v7.5M13 8h1.07c.4 0 .6 0 .761.056a1 1 0 0 1 .613.613c.056.16.056.36.056.761v.07M13 8h-1.07c-.4 0-.6 0-.761.056a1 1 0 0 0-.613.613c-.056.16-.056.36-.056.761v.07m2.5 6h-1.125m1.125 0h1.125" stroke="#fff" stroke-linecap="round"/></svg>