<svg width="18" height="18" fill="none" xmlns="http://www.w3.org/2000/svg"><path fill-rule="evenodd" clip-rule="evenodd" d="M13.354 6.692C13.917 6.19 14.682 6 15.5 6a.5.5 0 1 1 0 1c-.682 0-1.167.159-1.48.438-.3.27-.52.723-.52 1.496 0 .772.22 1.226.52 1.495.313.28.798.438 1.48.438a.5.5 0 1 1 0 1c-.818 0-1.583-.189-2.146-.692-.573-.513-.854-1.276-.854-2.241 0-.966.28-1.73.854-2.242zM4.342 6a.5.5 0 0 1 .468.323l1.335 3.53.507 1.337a.5.5 0 0 1-.935.354l-.385-1.015h-1.98l-.384 1.015a.5.5 0 0 1-.936-.354l.507-1.338 1.335-3.529A.5.5 0 0 1 4.342 6zM3.73 9.53l.612-1.617.612 1.616H3.73z" fill="#fff"/></svg>