<svg width="18" height="18" fill="none" xmlns="http://www.w3.org/2000/svg"><path fill-rule="evenodd" clip-rule="evenodd" d="M5.967 2H12.033c.443 0 .825 0 1.13.041.329.044.643.144.898.398.255.255.354.57.398.897.041.306.041.688.041 1.131v.187a.5.5 0 0 1-1 0V4.5c0-.486-.001-.8-.032-1.03-.03-.218-.076-.285-.114-.324-.038-.038-.106-.085-.323-.114C12.799 3.002 12.485 3 12 3H9.5v12H12a.5.5 0 0 1 0 1H6a.5.5 0 0 1 0-1h2.5V3H6c-.486 0-.8.001-1.03.032-.218.03-.285.076-.324.114-.038.039-.085.106-.114.323-.03.232-.032.545-.032 1.031v.154a.5.5 0 0 1-1 0V4.5v-.033c0-.443 0-.825.041-1.13.044-.329.144-.643.398-.898.255-.254.57-.354.897-.398C5.142 2 5.524 2 5.967 2z" fill="#fff"/></svg>