<svg width="18" height="18" fill="none" xmlns="http://www.w3.org/2000/svg"><path fill-rule="evenodd" clip-rule="evenodd" d="M4.445 6.003a.5.5 0 0 1 .552.442l.802 7.22c.049.437.08.717.13.922.047.191.095.252.133.286.038.034.103.074.298.1.21.026.491.027.93.027h3.42c.439 0 .72-.001.93-.028.195-.025.26-.065.298-.1.038-.034.086-.094.132-.285.05-.205.082-.485.13-.921l.803-7.221a.5.5 0 0 1 .994.11l-.806 7.252c-.044.397-.082.74-.149 1.016-.072.295-.19.574-.437.795-.246.22-.536.307-.838.346-.28.036-.627.036-1.026.036H7.259c-.4 0-.746 0-1.026-.036-.302-.039-.592-.126-.838-.346-.247-.221-.365-.5-.437-.795-.067-.275-.105-.62-.15-1.017l-.805-7.25a.5.5 0 0 1 .442-.553zM8.967 2h.066c.443 0 .825 0 1.13.041.329.044.643.144.898.398.255.255.354.57.398.897.026.193.035.415.039.664H14a.5.5 0 0 1 0 1H4a.5.5 0 0 1 0-1h2.502c.004-.249.013-.471.04-.664.043-.328.143-.642.397-.897.255-.254.57-.354.897-.398C8.142 2 8.524 2 8.967 2zM7.502 4h2.996a4.608 4.608 0 0 0-.03-.53c-.03-.218-.076-.285-.114-.324-.038-.038-.106-.085-.323-.114C9.799 3.002 9.486 3 9 3c-.486 0-.8.001-1.03.032-.218.03-.285.076-.324.114-.038.039-.085.106-.114.323-.019.14-.026.31-.03.531z" fill="#fff"/><path fill-rule="evenodd" clip-rule="evenodd" d="M6.955 7.002a.5.5 0 0 1 .543.453l.5 5.5a.5.5 0 1 1-.996.09l-.5-5.5a.5.5 0 0 1 .453-.543zm4.09 0a.5.5 0 0 1 .453.543l-.5 5.5a.5.5 0 0 1-.996-.09l.5-5.5a.5.5 0 0 1 .543-.453z" fill="#fff"/></svg>