<svg width="18" height="18" fill="none" xmlns="http://www.w3.org/2000/svg"><path fill-rule="evenodd" clip-rule="evenodd" d="M6.413 7.517c-.049-.013-.105-.017-.394-.017H3v3.1h2.5v1H2V6.5h4.063c.22 0 .416 0 .606.05.191.051.36.148.552.258l.039.022c.494.282.834.476 1.116.602.272.122.454.164.624.164.17 0 .352-.042.624-.164.282-.126.622-.32 1.116-.602l.039-.022c.191-.11.36-.207.552-.258.19-.05.385-.05.606-.05H16v5.1h-3.5v-1H15V7.5h-3.019c-.29 0-.345.004-.394.017-.048.013-.099.037-.35.181l-.022.012c-.468.267-.85.486-1.181.635-.347.155-.673.252-1.034.252-.36 0-.687-.097-1.034-.252-.331-.15-.713-.368-1.18-.635l-.022-.012c-.252-.144-.303-.168-.351-.181z" fill="#fff"/><path fill-rule="evenodd" clip-rule="evenodd" d="M6.413 11.617c-.049-.013-.105-.017-.394-.017H3v1.9c0 .486.001.8.032 1.03.03.218.076.286.114.324.039.038.106.085.323.114.232.03.545.032 1.031.032h9c.486 0 .8-.001 1.03-.032.218-.03.286-.076.324-.114.038-.038.085-.106.114-.323.03-.232.032-.546.032-1.031v-1.9h-3.019c-.29 0-.345.004-.394.017-.048.013-.099.037-.35.181l-.022.012c-.468.267-.85.486-1.181.634-.347.156-.673.252-1.034.252-.36 0-.687-.096-1.034-.252-.331-.148-.713-.367-1.18-.634l-.022-.012c-.252-.144-.303-.168-.351-.181zm-.35-1.017c.22 0 .416 0 .606.05.191.05.36.148.552.258l.039.022c.494.282.834.476 1.116.602.272.122.454.165.624.165.17 0 .352-.043.624-.165.282-.126.622-.32 1.116-.602l.039-.022c.191-.11.36-.207.552-.258.19-.05.385-.05.606-.05H16v2.933c0 .443 0 .825-.041 1.13-.044.329-.143.643-.398.898s-.57.354-.897.398c-.306.041-.688.041-1.131.041H4.467c-.443 0-.825 0-1.13-.041-.329-.044-.643-.143-.898-.398-.254-.255-.354-.57-.398-.897C2 14.358 2 13.976 2 13.533V10.6h4.063zM6.055 2h5.89c.25 0 .472 0 .687.064.214.065.399.189.607.328l.042.028 1.623 1.082c.203.135.383.255.525.37.155.125.292.266.393.455.102.19.143.382.161.58.017.182.017.398.017.643V7h-1V5.57c0-.27 0-.44-.013-.57a.506.506 0 0 0-.046-.2.504.504 0 0 0-.141-.15 6.924 6.924 0 0 0-.468-.328l-1.606-1.07c-.274-.183-.33-.214-.384-.23-.055-.017-.118-.022-.448-.022H6.106c-.33 0-.394.005-.448.021-.055.017-.11.048-.385.23L3.669 4.323c-.226.15-.366.245-.468.327a.506.506 0 0 0-.14.15.506.506 0 0 0-.047.2C3 5.13 3 5.3 3 5.57V7H2V5.55c0-.245 0-.461.017-.643.018-.198.06-.39.16-.58.102-.19.24-.33.394-.455a7.37 7.37 0 0 1 .542-.382L4.72 2.42l.042-.028c.208-.14.393-.263.607-.328C5.583 2 5.804 2 6.055 2z" fill="#fff"/></svg>