<svg width="18" height="18" fill="none" xmlns="http://www.w3.org/2000/svg"><g clip-path="url(#clip0_877_10935)" fill-rule="evenodd" clip-rule="evenodd" fill="#fff"><path d="M11.523 5.302a.5.5 0 0 1 .707.022l3.134 3.333a.5.5 0 0 1 0 .685l-3.134 3.334a.5.5 0 0 1-.728-.685L13.844 9.5H6a.5.5 0 0 1 0-1h7.844l-2.342-2.49a.5.5 0 0 1 .021-.708z"/><path d="M8.167 3a.5.5 0 0 1-.5.5H5c-.486 0-.8.001-1.03.032-.217.03-.285.076-.324.114-.038.039-.085.106-.114.323-.03.232-.032.545-.032 1.031v8c0 .486.001.8.032 1.03.03.218.076.286.114.324.039.038.107.085.323.114.232.03.545.032 1.031.032h2.667a.5.5 0 1 1 0 1h-2.7c-.443 0-.825 0-1.13-.041-.329-.044-.643-.143-.898-.398-.254-.255-.354-.57-.398-.897-.041-.306-.041-.688-.041-1.131V4.967c0-.443 0-.825.041-1.13.044-.329.144-.643.398-.898.255-.254.57-.354.897-.398.306-.041.688-.041 1.131-.041H7.667a.5.5 0 0 1 .5.5z"/></g><defs><clipPath id="clip0_877_10935"><path fill="#fff" d="M0 0H18V18H0z"/></clipPath></defs></svg>