<svg width="18" height="18" fill="none" xmlns="http://www.w3.org/2000/svg"><path d="M5.5 11.1h-3V7h3.519c.264 0 .396 0 .522.034.126.033.241.099.471.23.971.555 1.457.833 1.988.833.531 0 1.017-.278 1.988-.833.23-.131.345-.197.47-.23.127-.034.26-.034.523-.034H15.5v4.1h-3m-10 0h3.519c.264 0 .396 0 .522.034.126.033.241.099.471.23.971.555 1.457.832 1.988.832.531 0 1.017-.277 1.988-.832.23-.131.345-.197.47-.23.127-.034.26-.034.523-.034H15.5v2.4c0 .943 0 1.414-.293 1.707-.293.293-.764.293-1.707.293h-9c-.943 0-1.414 0-1.707-.293-.293-.293-.293-.764-.293-1.707v-2.4zm0-4.1V5.57c0-.524 0-.786.118-1.007.119-.22.337-.366.773-.657l1.605-1.07c.25-.167.375-.25.517-.293.142-.043.292-.043.593-.043h5.788c.301 0 .451 0 .593.043.142.043.267.126.517.293l1.605 1.07c.436.29.654.436.773.657.118.221.118.483.118 1.007V7" stroke="#fff"/></svg>