<svg width="18" height="18" fill="none" xmlns="http://www.w3.org/2000/svg"><path fill-rule="evenodd" clip-rule="evenodd" d="M6.391 9.515c-.046-.011-.1-.015-.378-.015H3v3c0 .486.001.8.032 1.03.03.218.076.286.114.324.039.038.106.085.323.114.232.031.545.032 1.031.032h9c.486 0 .8-.001 1.03-.032.218-.03.286-.076.324-.114.038-.038.085-.106.114-.323.03-.232.032-.545.032-1.03v-3h-3.012c-.279 0-.333.003-.38.014a.49.49 0 0 0-.024.007c-.046.015-.094.04-.331.185l-.02.012c-.444.272-.806.494-1.12.648-.33.161-.64.267-.986.285-.084.004-.17.004-.254 0-.346-.018-.657-.124-.985-.285-.315-.154-.677-.376-1.12-.648l-.02-.012c-.238-.145-.286-.17-.332-.185a.486.486 0 0 0-.025-.007zM6.055 8.5c.212 0 .4 0 .583.046l.074.021c.18.056.34.154.52.265l.037.022c.469.287.791.484 1.06.615.258.128.432.176.595.184.05.003.102.003.152 0 .163-.008.337-.056.596-.184.268-.131.59-.328 1.059-.615l.036-.022c.18-.11.34-.209.521-.265l.074-.02c.184-.047.37-.047.583-.047H16v4.033c0 .443 0 .825-.041 1.131-.044.328-.143.642-.398.897s-.57.354-.897.398c-.306.041-.688.041-1.131.041H4.467c-.443 0-.825 0-1.13-.041-.329-.044-.643-.143-.898-.398-.254-.255-.354-.57-.398-.897C2 13.358 2 12.976 2 12.533V8.5h4.055z" fill="#fff"/><path fill-rule="evenodd" clip-rule="evenodd" d="M6.416 3H11.584c.406 0 .767-.002 1.087.158.32.16.536.45.779.775L13.5 4l2 2.667.034.044c.165.22.311.415.389.648.078.233.077.477.077.752V10.5h-1V8.167c0-.363-.006-.433-.026-.492-.02-.06-.056-.118-.274-.408l-2-2.667c-.325-.433-.396-.507-.476-.547C12.143 4.013 12.04 4 11.5 4h-5c-.54 0-.643.012-.724.053-.08.04-.151.114-.476.547l-2 2.667c-.218.29-.255.349-.274.408-.02.06-.026.129-.026.492V10.5H2V8.167 8.11c0-.275 0-.519.077-.752.078-.233.224-.428.39-.648l.033-.044L4.5 4l.05-.067c.243-.326.46-.615.78-.775.319-.16.68-.159 1.086-.158z" fill="#fff"/></svg>