<svg width="18" height="18" fill="none" xmlns="http://www.w3.org/2000/svg"><path fill-rule="evenodd" clip-rule="evenodd" d="M6.391 9.515c-.046-.011-.1-.015-.378-.015H2.5V12c0 .486.001.8.032 1.03.03.218.076.286.114.324.039.038.106.085.323.114.232.031.545.032 1.031.032h10c.486 0 .8-.001 1.03-.032.218-.03.286-.076.324-.114.038-.038.085-.106.114-.323.03-.232.032-.545.032-1.03V9.5h-3.512c-.279 0-.333.003-.38.014a.49.49 0 0 0-.024.007c-.046.015-.094.04-.331.185l-.02.012c-.444.272-.806.494-1.12.648-.33.161-.64.267-.986.285-.084.004-.17.004-.254 0-.346-.018-.657-.124-.985-.285-.315-.154-.677-.376-1.12-.648l-.02-.012c-.238-.145-.286-.17-.332-.185a.486.486 0 0 0-.025-.007zM6.055 8.5c.212 0 .4 0 .583.046l.074.021c.18.056.34.154.52.265l.037.022c.469.287.791.484 1.06.615.258.128.432.176.595.184.05.003.102.003.152 0 .163-.008.337-.056.596-.184.268-.131.59-.328 1.059-.615l.036-.022c.18-.11.34-.209.521-.265l.074-.02c.184-.047.37-.047.583-.047H16.5v3.533c0 .443 0 .825-.041 1.131-.044.328-.143.642-.398.897s-.57.354-.897.398c-.306.041-.688.041-1.131.041H3.967c-.443 0-.825 0-1.13-.041-.329-.044-.643-.143-.898-.398-.254-.255-.354-.57-.398-.897-.041-.306-.041-.688-.041-1.131V8.5h4.555z" fill="#fff"/><path fill-rule="evenodd" clip-rule="evenodd" d="M6.259 3.5h5.482c.34 0 .64-.001.919.114.278.115.49.329.73.57l.05.048 2.328 2.329.049.049c.24.24.454.452.569.73.115.278.115.58.114.919V10.5h-1V8.328c0-.45-.009-.535-.038-.605-.03-.07-.083-.137-.401-.455l-2.329-2.329c-.318-.318-.384-.372-.455-.4-.07-.03-.156-.039-.605-.039H6.328c-.45 0-.535.009-.605.038-.07.03-.137.083-.455.401L2.939 7.268c-.318.318-.372.384-.4.455-.03.07-.039.156-.039.605V10.5h-1V8.328 8.26c0-.34-.001-.64.114-.919.115-.278.329-.49.57-.73l.048-.05 2.329-2.328.049-.049c.24-.24.452-.454.73-.569.278-.115.58-.115.919-.114z" fill="#fff"/><path fill-rule="evenodd" clip-rule="evenodd" d="M6.75 5.75A.25.25 0 0 1 7 5.5h4a.25.25 0 1 1 0 .5H7a.25.25 0 0 1-.25-.25zm-2 1.5A.25.25 0 0 1 5 7h8a.25.25 0 1 1 0 .5H5a.25.25 0 0 1-.25-.25z" fill="#fff"/></svg>