<svg width="18" height="18" fill="none" xmlns="http://www.w3.org/2000/svg"><g clip-path="url(#clip0_877_10934)"><g clip-path="url(#clip1_877_10934)" fill-rule="evenodd" clip-rule="evenodd" fill="#fff"><path d="M6.477 12.698a.5.5 0 0 1-.707-.022L2.636 9.343a.5.5 0 0 1 0-.685L5.77 5.324a.5.5 0 0 1 .728.685L4.156 8.5H12a.5.5 0 0 1 0 1H4.156l2.342 2.49a.5.5 0 0 1-.021.708z"/><path d="M9.833 15a.5.5 0 0 1 .5-.5H13c.486 0 .8-.001 1.03-.032.218-.03.286-.076.324-.114.038-.038.085-.106.114-.323.03-.232.032-.546.032-1.031V5c0-.486-.001-.8-.032-1.03-.03-.218-.076-.285-.114-.324-.038-.038-.106-.085-.323-.114-.232-.03-.546-.032-1.031-.032h-2.667a.5.5 0 0 1 0-1h2.7c.443 0 .825 0 1.13.041.329.044.643.144.898.398.255.255.354.57.398.897.041.306.041.688.041 1.131v8.066c0 .443 0 .825-.041 1.13-.044.329-.143.643-.398.898s-.57.354-.897.398c-.306.041-.688.041-1.131.041H10.333a.5.5 0 0 1-.5-.5z"/></g></g><defs><clipPath id="clip0_877_10934"><path fill="#fff" d="M0 0H18V18H0z"/></clipPath><clipPath id="clip1_877_10934"><path fill="#fff" transform="rotate(-90 9 9)" d="M0 0H18V18H0z"/></clipPath></defs></svg>