<svg width="18" height="18" fill="none" xmlns="http://www.w3.org/2000/svg"><path fill-rule="evenodd" clip-rule="evenodd" d="M12.698 7.523a.5.5 0 0 1-.022.707l-3.334 3.134a.5.5 0 0 1-.685 0L5.324 8.23a.5.5 0 1 1 .685-.728L8.5 9.844V3a.5.5 0 0 1 1 0v6.844l2.49-2.342a.5.5 0 0 1 .708.021z" fill="#fff"/><path fill-rule="evenodd" clip-rule="evenodd" d="M3 9.833a.5.5 0 0 1 .5.5V13c0 .486.001.8.032 1.03.03.217.076.285.114.324.039.038.106.085.323.114.232.03.545.032 1.031.032h8c.486 0 .8-.001 1.03-.032.218-.03.286-.076.324-.114.038-.039.085-.107.114-.323.03-.232.032-.546.032-1.031v-2.667a.5.5 0 1 1 1 0v2.7c0 .443 0 .825-.041 1.13-.044.329-.143.643-.398.898-.255.254-.57.354-.897.398-.306.041-.688.04-1.131.04H4.967c-.443 0-.825.001-1.13-.04-.329-.044-.643-.144-.898-.398-.254-.255-.354-.57-.398-.897-.041-.306-.041-.688-.041-1.131V10.333a.5.5 0 0 1 .5-.5z" fill="#fff"/></svg>