<svg width="18" height="18" fill="none" xmlns="http://www.w3.org/2000/svg"><g clip-path="url(#clip0_821_19461)"><g clip-path="url(#clip1_821_19461)"><path d="M4 5.5V7c0 .943 0 1.414.293 1.707C4.586 9 5.057 9 6 9h3m5-3.5V7c0 .943 0 1.414-.293 1.707C13.414 9 12.943 9 12 9H9m0 0v3.5M7.5 14a1.5 1.5 0 1 1 3 0 1.5 1.5 0 0 1-3 0zm5-10a1.5 1.5 0 1 1 3 0 1.5 1.5 0 0 1-3 0zm-10 0a1.5 1.5 0 1 1 3 0 1.5 1.5 0 0 1-3 0z" stroke="#fff"/></g></g><defs><clipPath id="clip0_821_19461"><path fill="#fff" d="M0 0H18V18H0z"/></clipPath><clipPath id="clip1_821_19461"><path fill="#fff" transform="rotate(-180 9 9)" d="M0 0H18V18H0z"/></clipPath></defs></svg>