<svg width="18" height="18" fill="none" xmlns="http://www.w3.org/2000/svg"><g clip-path="url(#clip0_877_11037)"><g clip-path="url(#clip1_877_11037)" fill-rule="evenodd" clip-rule="evenodd" fill="#fff"><path d="M9.5 9.5h2.533c.443 0 .825 0 1.13-.041.329-.044.643-.144.898-.398.255-.255.354-.57.398-.897.041-.306.041-.688.041-1.131V5.5h-1V7c0 .486-.001.8-.032 1.03-.03.218-.076.285-.114.324-.038.038-.106.085-.323.114-.232.03-.546.032-1.031.032H6c-.486 0-.8-.001-1.03-.032-.218-.03-.285-.076-.324-.114-.038-.039-.085-.106-.114-.323C4.502 7.799 4.5 7.486 4.5 7V5.5h-1v1.533c0 .443 0 .825.041 1.13.044.329.144.643.398.898.255.254.57.354.897.398.306.041.688.041 1.131.041H8.5v3h1v-3z"/><path d="M9 15a1 1 0 1 0 0-2 1 1 0 0 0 0 2zm2-1a2 2 0 1 1-4 0 2 2 0 0 1 4 0zm3-9a1 1 0 1 0 0-2 1 1 0 0 0 0 2zm2-1a2 2 0 1 1-4 0 2 2 0 0 1 4 0zM4 5a1 1 0 1 0 0-2 1 1 0 0 0 0 2zm2-1a2 2 0 1 1-4 0 2 2 0 0 1 4 0z"/></g></g><defs><clipPath id="clip0_877_11037"><path fill="#fff" d="M0 0H18V18H0z"/></clipPath><clipPath id="clip1_877_11037"><path fill="#fff" transform="rotate(-180 9 9)" d="M0 0H18V18H0z"/></clipPath></defs></svg>