<svg width="18" height="18" fill="none" xmlns="http://www.w3.org/2000/svg"><g clip-path="url(#clip0_877_11038)"><g clip-path="url(#clip1_877_11038)" fill-rule="evenodd" clip-rule="evenodd" fill="#fff"><path d="M9.5 8.5V6v-.033c0-.443 0-.825-.041-1.13-.044-.329-.144-.643-.398-.898-.255-.254-.57-.354-.897-.398C7.858 3.5 7.476 3.5 7.033 3.5H5.5v1H7c.486 0 .8.001 1.03.032.218.03.285.076.324.114.038.039.085.106.114.323.03.232.032.545.032 1.031v6c0 .486-.001.8-.032 1.03-.03.218-.076.286-.114.324-.039.038-.106.085-.323.114-.232.03-.545.032-1.031.032H5.5v1h1.533c.443 0 .825 0 1.13-.041.329-.044.643-.143.898-.398.254-.255.354-.57.398-.897.041-.306.041-.688.041-1.131V9.5h3v-1h-3z"/><path d="M15 9a1 1 0 1 0-2 0 1 1 0 0 0 2 0zm-1-2a2 2 0 1 1 0 4 2 2 0 0 1 0-4zM5 4a1 1 0 1 0-2 0 1 1 0 0 0 2 0zM4 2a2 2 0 1 1 0 4 2 2 0 0 1 0-4zm1 12a1 1 0 1 0-2 0 1 1 0 0 0 2 0zm-1-2a2 2 0 1 1 0 4 2 2 0 0 1 0-4z"/></g></g><defs><clipPath id="clip0_877_11038"><path fill="#fff" d="M0 0H18V18H0z"/></clipPath><clipPath id="clip1_877_11038"><path fill="#fff" transform="rotate(90 9 9)" d="M0 0H18V18H0z"/></clipPath></defs></svg>