<svg width="18" height="18" fill="none" xmlns="http://www.w3.org/2000/svg"><path fill-rule="evenodd" clip-rule="evenodd" d="M8.5 8.5H5.967c-.443 0-.825 0-1.13.041-.329.044-.643.144-.898.398-.254.255-.354.57-.398.897-.041.306-.041.688-.041 1.131V12.5h1V11c0-.486.001-.8.032-1.03.03-.218.076-.285.114-.324.039-.038.106-.085.323-.114.232-.03.545-.032 1.031-.032h6c.486 0 .8.001 1.03.032.218.03.286.076.324.114.038.039.085.106.114.323.03.232.032.546.032 1.031v1.5h1v-1.533c0-.443 0-.825-.041-1.13-.044-.329-.143-.643-.398-.898-.255-.254-.57-.354-.897-.398-.306-.041-.688-.041-1.131-.041H9.5v-3h-1v3z" fill="#fff"/><path fill-rule="evenodd" clip-rule="evenodd" d="M9 3a1 1 0 1 0 0 2 1 1 0 0 0 0-2zM7 4a2 2 0 1 1 4 0 2 2 0 0 1-4 0zm-3 9a1 1 0 1 0 0 2 1 1 0 0 0 0-2zm-2 1a2 2 0 1 1 4 0 2 2 0 0 1-4 0zm12-1a1 1 0 1 0 0 2 1 1 0 0 0 0-2zm-2 1a2 2 0 1 1 4 0 2 2 0 0 1-4 0z" fill="#fff"/></svg>