<svg width="18" height="18" fill="none" xmlns="http://www.w3.org/2000/svg"><g clip-path="url(#clip0_821_19462)"><g clip-path="url(#clip1_821_19462)"><path d="M5.5 14H7c.943 0 1.414 0 1.707-.293C9 13.414 9 12.943 9 12V9M5.5 4H7c.943 0 1.414 0 1.707.293C9 4.586 9 5.057 9 6v3m0 0h3.5m1.5 1.5a1.5 1.5 0 1 1 0-3 1.5 1.5 0 0 1 0 3zm-10-5a1.5 1.5 0 1 1 0-3 1.5 1.5 0 0 1 0 3zm0 10a1.5 1.5 0 1 1 0-3 1.5 1.5 0 0 1 0 3z" stroke="#fff"/></g></g><defs><clipPath id="clip0_821_19462"><path fill="#fff" d="M0 0H18V18H0z"/></clipPath><clipPath id="clip1_821_19462"><path fill="#fff" transform="rotate(90 9 9)" d="M0 0H18V18H0z"/></clipPath></defs></svg>