<svg width="18" height="18" fill="none" xmlns="http://www.w3.org/2000/svg"><g clip-path="url(#clip0_877_10839)"><g clip-path="url(#clip1_877_10839)" fill-rule="evenodd" clip-rule="evenodd" fill="#fff"><path d="M8.5 9.5v2.533c0 .443 0 .825.041 1.13.044.329.144.643.398.898.255.255.57.354.897.398.306.041.688.041 1.131.041H12.5v-1H11c-.486 0-.8-.001-1.03-.032-.218-.03-.285-.076-.324-.114-.038-.038-.085-.106-.114-.323-.03-.232-.032-.546-.032-1.031V6c0-.486.001-.8.032-1.03.03-.218.076-.285.114-.324.039-.038.106-.085.323-.114.232-.03.546-.032 1.031-.032h1.5v-1h-1.533c-.443 0-.825 0-1.13.041-.329.044-.643.144-.898.398-.254.255-.354.57-.398.897-.041.306-.041.688-.041 1.131V8.5h-3v1h3z"/><path d="M3 9a1 1 0 1 0 2 0 1 1 0 0 0-2 0zm1 2a2 2 0 1 1 0-4 2 2 0 0 1 0 4zm9 3a1 1 0 1 0 2 0 1 1 0 0 0-2 0zm1 2a2 2 0 1 1 0-4 2 2 0 0 1 0 4zM13 4a1 1 0 1 0 2 0 1 1 0 0 0-2 0zm1 2a2 2 0 1 1 0-4 2 2 0 0 1 0 4z"/></g></g><defs><clipPath id="clip0_877_10839"><path fill="#fff" d="M0 0H18V18H0z"/></clipPath><clipPath id="clip1_877_10839"><path fill="#fff" transform="rotate(-90 9 9)" d="M0 0H18V18H0z"/></clipPath></defs></svg>