<svg fill="none" height="18" width="18" xmlns="http://www.w3.org/2000/svg"><path d="m13.5 11.5-3-5m1 7.5h-5m-2-2.5 3-5m-5 7c0-.943 0-1.414.293-1.707s.764-.293 1.707-.293 1.414 0 1.707.293.293.764.293 1.707 0 1.414-.293 1.707-.764.293-1.707.293-1.414 0-1.707-.293-.293-.764-.293-1.707zm9 0c0-.943 0-1.414.293-1.707s.764-.293 1.707-.293 1.414 0 1.707.293.293.764.293 1.707 0 1.414-.293 1.707-.764.293-1.707.293-1.414 0-1.707-.293-.293-.764-.293-1.707zm-4.5-9c0-.943 0-1.414.293-1.707s.764-.293 1.707-.293 1.414 0 1.707.293.293.764.293 1.707 0 1.414-.293 1.707-.764.293-1.707.293-1.414 0-1.707-.293-.293-.764-.293-1.707z" stroke="#fff"/></svg>