<svg width="18" height="18" fill="none" xmlns="http://www.w3.org/2000/svg"><path d="M4.1 11.547l-.88-.476.88.476zm-.78 2.465l.859-.512-.86.512zm11.36 0l-.859-.512.86.512zM7.241 5.747l.88.476-.88-.476zM9 3.6v1-1zm-4.021 8.424L8.12 6.223 6.362 5.27 3.22 11.071l1.759.953zm4.9-5.801l3.142 5.8 1.759-.952-3.142-5.8-1.759.952zm2.263 7.277H5.858v2h6.284v-2zM3.22 11.071c-.34.63-.653 1.2-.827 1.678-.177.487-.31 1.141.068 1.774L4.179 13.5c.086.145-.013.225.094-.068.11-.303.333-.72.706-1.408L3.22 11.07zM5.858 13.5c-.783 0-1.255-.003-1.575-.05-.308-.046-.19-.095-.104.05l-1.718 1.023c.377.634 1.015.829 1.528.905.502.075 1.153.072 1.869.072v-2zm7.163-1.476c.373.688.596 1.105.706 1.408.107.293.008.213.094.068l1.718 1.023c.378-.633.245-1.287.068-1.774-.174-.477-.486-1.049-.827-1.678l-1.759.953zm-.879 3.476c.716 0 1.367.003 1.869-.072.513-.076 1.151-.271 1.528-.905L13.821 13.5c.087-.145.204-.096-.104-.05-.32.047-.792.05-1.575.05v2zM8.121 6.223c.404-.746.654-1.202.867-1.487C9.2 4.454 9.186 4.6 9 4.6v-2c-.782 0-1.287.503-1.612.936-.323.432-.654 1.049-1.026 1.734l1.759.953zm3.517-.953c-.372-.685-.703-1.302-1.026-1.734C10.287 3.103 9.782 2.6 9 2.6v2c-.186 0-.2-.146.012.136.213.285.463.741.867 1.487l1.759-.953z" fill="#fff"/></svg>