<svg width="18" height="18" fill="none" xmlns="http://www.w3.org/2000/svg"><path fill-rule="evenodd" clip-rule="evenodd" d="M8.987 4.394c-.22.315-.476.82-.881 1.63l-3.264 6.529c-.34.678-.54 1.086-.637 1.382l-.005.014.015.003c.308.045.762.048 1.521.048h6.528c.759 0 1.213-.003 1.521-.048l.015-.003a1.2 1.2 0 0 1-.005-.014c-.097-.296-.297-.704-.637-1.382L9.894 6.025c-.405-.811-.66-1.316-.88-1.631A2.72 2.72 0 0 0 9 4.374a2.428 2.428 0 0 0-.013.02zm.166-.2l-.007.006a.033.033 0 0 1 .007-.006zm-.299.006a.037.037 0 0 1-.007-.006l.007.006zm4.987 9.925v-.006.006zm.13-.215a.024.024 0 0 1 .005-.002l-.006.002zm-9.947-.002l.006.002a.038.038 0 0 1-.006-.002zm.135.211a.03.03 0 0 1 0 .006v-.006zM7.347 3.25C7.667 2.79 8.18 2.236 9 2.236c.82 0 1.333.554 1.653 1.013.315.451.635 1.091.996 1.814l.034.068 3.264 6.527.032.064c.297.594.568 1.136.717 1.591.159.485.266 1.126-.113 1.739-.378.612-1 .803-1.504.878-.473.07-1.08.07-1.744.07H5.666C5 16 4.393 16 3.92 15.93c-.505-.075-1.126-.266-1.504-.878-.379-.613-.272-1.254-.113-1.739.149-.455.42-.997.717-1.591l.032-.064 3.264-6.527.033-.068c.362-.723.682-1.363.997-1.814z" fill="#fff"/></svg>