<svg width="18" height="18" fill="none" xmlns="http://www.w3.org/2000/svg"><path d="M13.5 11.5l-3-5m1 7.5h-5m-2-2.5l3-5m-5 7c0-.943 0-1.414.293-1.707.293-.293.764-.293 1.707-.293.943 0 1.414 0 1.707.293.293.293.293.764.293 1.707 0 .943 0 1.414-.293 1.707-.293.293-.764.293-1.707.293-.943 0-1.414 0-1.707-.293-.293-.293-.293-.764-.293-1.707zm9 0c0-.943 0-1.414.293-1.707.293-.293.764-.293 1.707-.293.943 0 1.414 0 1.707.293.293.293.293.764.293 1.707 0 .943 0 1.414-.293 1.707-.293.293-.764.293-1.707.293-.943 0-1.414 0-1.707-.293-.293-.293-.293-.764-.293-1.707zM7 4.5c0-.943 0-1.414.293-1.707C7.586 2.5 8.057 2.5 9 2.5c.943 0 1.414 0 1.707.293C11 3.086 11 3.557 11 4.5c0 .943 0 1.414-.293 1.707C10.414 6.5 9.943 6.5 9 6.5c-.943 0-1.414 0-1.707-.293C7 5.914 7 5.443 7 4.5z" stroke="#fff"/></svg>