<svg width="18" height="18" fill="none" xmlns="http://www.w3.org/2000/svg"><path fill-rule="evenodd" clip-rule="evenodd" d="M8.988 4.736c-.213.285-.463.741-.867 1.487l-3.142 5.8c-.373.689-.596 1.106-.706 1.41l-.006.014.016.003c.32.047.792.05 1.575.05h6.284c.783 0 1.255-.003 1.575-.05l.016-.003a.703.703 0 0 0-.006-.015c-.11-.303-.333-.72-.706-1.408L9.88 6.223c-.404-.746-.654-1.202-.867-1.487A2.152 2.152 0 0 0 9 4.721l-.012.015zm.155-.174l-.006.005a.03.03 0 0 1 .006-.005zm-.28.005a.034.034 0 0 1-.006-.005l.006.005zm4.919 9.064v-.007.006zm.13-.225a.042.042 0 0 1 .005-.003l-.006.003zm-9.83-.003l.007.003a.024.024 0 0 1-.006-.003zm.137.22v.001zM7.388 3.538C7.713 3.103 8.218 2.6 9 2.6c.782 0 1.287.503 1.612.937.313.417.633 1.009.99 1.668l.036.065 3.142 5.801.034.063c.328.604.625 1.154.793 1.615.177.487.31 1.141-.068 1.774-.377.634-1.015.829-1.528.905-.485.072-1.11.072-1.797.072H5.786c-.687 0-1.312 0-1.797-.072-.513-.076-1.151-.271-1.528-.905-.378-.633-.245-1.287-.068-1.774.168-.461.465-1.01.793-1.615l.034-.063 3.142-5.8.035-.066c.358-.66.678-1.25.991-1.668z" fill="#fff"/></svg>