<svg fill="none" height="18" width="18" xmlns="http://www.w3.org/2000/svg"><path d="m4.1 11.547-.88-.476zm-.78 2.465.859-.512-.86.512zm11.36 0-.859-.512.86.512zm-7.439-8.265.88.476zm1.759-2.147v1zm-4.021 8.424 3.141-5.801-1.758-.953-3.142 5.801zm4.9-5.801 3.142 5.8 1.759-.952-3.142-5.8zm2.263 7.277h-6.284v2h6.284zm-8.922-2.429c-.34.63-.653 1.2-.827 1.678-.177.487-.31 1.141.068 1.774l1.718-1.023c.086.145-.013.225.094-.068.11-.303.333-.72.706-1.408l-1.759-.954zm2.638 2.429c-.783 0-1.255-.003-1.575-.05-.308-.046-.19-.095-.104.05l-1.718 1.023c.377.634 1.015.829 1.528.905.502.075 1.153.072 1.869.072zm7.163-1.476c.373.688.596 1.105.706 1.408.107.293.008.213.094.068l1.718 1.023c.378-.633.245-1.287.068-1.774-.174-.477-.486-1.049-.827-1.678zm-.879 3.476c.716 0 1.367.003 1.869-.072.513-.076 1.151-.271 1.528-.905l-1.718-1.023c.087-.145.204-.096-.104-.05-.32.047-.792.05-1.575.05zm-4.021-9.277c.404-.746.654-1.202.867-1.487.212-.282.198-.136.012-.136v-2c-.782 0-1.287.503-1.612.936-.323.432-.654 1.049-1.026 1.734zm3.517-.953c-.372-.685-.703-1.302-1.026-1.734-.325-.433-.83-.936-1.612-.936v2c-.186 0-.2-.146.012.136.213.285.463.741.867 1.487z" fill="#fff"/></svg>