<svg width="18" height="18" fill="none" xmlns="http://www.w3.org/2000/svg"><path fill-rule="evenodd" clip-rule="evenodd" d="M4.467 3.5h3.066c.443 0 .825 0 1.13.041.329.044.643.144.898.398.254.255.354.57.398.897.041.306.041.688.041 1.131v4.066c0 .443 0 .825-.041 1.13-.044.329-.144.643-.398.898-.255.255-.57.354-.897.398-.306.041-.688.041-1.131.041H4.467c-.443 0-.825 0-1.13-.041-.329-.044-.643-.143-.898-.398-.254-.255-.354-.57-.398-.897C2 10.858 2 10.476 2 10.033V6v-.033c0-.443 0-.825.041-1.13.044-.329.144-.643.398-.898.255-.254.57-.354.897-.398.306-.041.688-.041 1.131-.041zM3.47 4.532c-.217.03-.284.076-.323.114-.038.039-.085.106-.114.323C3.002 5.201 3 5.514 3 6v4c0 .486.001.8.032 1.03.03.218.076.286.114.324.039.038.106.085.323.114.232.03.545.032 1.031.032h3c.486 0 .8-.001 1.03-.032.218-.03.285-.076.324-.114.038-.038.085-.106.114-.323.03-.232.032-.546.032-1.031V6c0-.486-.001-.8-.032-1.03-.03-.218-.076-.285-.114-.324-.039-.038-.106-.085-.323-.114-.232-.03-.545-.032-1.031-.032h-3c-.486 0-.8.001-1.03.032z" fill="#fff"/><path fill-rule="evenodd" clip-rule="evenodd" d="M12.87 6.55c-.08-.038-.179-.05-.704-.05H11.5c-.486 0-.8.001-1.03.032-.218.03-.286.076-.324.114-.038.038-.085.106-.114.323-.03.232-.032.545-.032 1.03v2c0 .486.001.8.032 1.032.03.216.076.284.114.322.038.039.106.086.323.115.232.03.546.032 1.031.032h2c.486 0 .8-.001 1.03-.032.218-.03.286-.076.324-.114.038-.039.085-.106.114-.323.03-.232.032-.546.032-1.031v-.307c0-.377-.006-.449-.028-.51-.02-.061-.06-.122-.294-.418l-1.334-1.693c-.325-.413-.395-.484-.475-.522zm-.623-1.05c.395 0 .746-.001 1.059.15.313.152.53.428.773.739l.05.064 1.335 1.693.036.046c.177.224.334.422.417.663.084.241.083.494.083.78v.398c0 .443 0 .825-.041 1.13-.044.329-.143.643-.398.898-.255.254-.57.354-.897.398-.306.041-.688.041-1.131.04h-2.066c-.443.001-.825.001-1.13-.04-.329-.044-.643-.144-.898-.398-.254-.255-.354-.57-.398-.897C9 10.858 9 10.476 9 10.033V8v-.033c0-.443 0-.825.041-1.13.044-.329.144-.643.398-.898.255-.255.57-.354.897-.398.306-.041.688-.041 1.131-.041h.78z" fill="#fff"/><path fill-rule="evenodd" clip-rule="evenodd" d="M6.5 11.5h5v.5a1.5 1.5 0 0 0 3 0h1a2.5 2.5 0 0 1-4.95.5h-3.1A2.5 2.5 0 0 1 2.5 12h1a1.5 1.5 0 0 0 3 0v-.5z" fill="#fff"/></svg>