<svg width="18" height="18" fill="none" xmlns="http://www.w3.org/2000/svg"><path d="M2.5 6c0-.943 0-1.414.293-1.707C3.086 4 3.557 4 4.5 4h3c.943 0 1.414 0 1.707.293.293.293.293.764.293 1.707v4c0 .943 0 1.414-.293 1.707C8.914 12 8.443 12 7.5 12h-3c-.943 0-1.414 0-1.707-.293C2.5 11.414 2.5 10.943 2.5 10V6zm7 2c0-.943 0-1.414.293-1.707C10.086 6 10.557 6 11.5 6h.666c.477 0 .715 0 .922.1.206.1.354.288.649.662l1.334 1.693c.213.27.319.405.374.564.055.16.055.33.055.674V10c0 .943 0 1.414-.293 1.707-.293.293-.764.293-1.707.293h-2c-.943 0-1.414 0-1.707-.293C9.5 11.414 9.5 10.943 9.5 10V8zm5.5 4a2 2 0 1 1-4 0H7a2 2 0 1 1-4 0" stroke="#fff"/></svg>