<svg width="18" height="18" fill="none" xmlns="http://www.w3.org/2000/svg"><path fill-rule="evenodd" clip-rule="evenodd" d="M14.26 5.412a1 1 0 0 1-.922-.297 1.934 1.934 0 0 0-1.416-.615c-1.067 0-1.94.87-1.94 1.951 0 .154.018.304.051.45a1 1 0 0 1-.975 1.222c-1.916 0-3.196-.91-4.075-1.715a18.283 18.283 0 0 1-.582-.563l-.01-.01a12.908 12.908 0 0 0-.433-.421 2.513 2.513 0 0 0-.171-.144c-.026.08-.046.19-.057.324a4.824 4.824 0 0 0-.013.423c0 .897.07 1.708.458 2.505.384.786 1.131 1.665 2.68 2.565a1 1 0 0 1 .117 1.651c-.466.367-1.025.566-1.524.69.39.046.758.072 1.058.072 4.841 0 7.366-3.344 7.366-6.707 0-.11-.003-.223-.008-.336a1 1 0 0 1 .413-.856 1.217 1.217 0 0 0 .184-.24c-.066.02-.133.038-.2.051zM2.746 13.85a1.61 1.61 0 0 1-.023-.008c-.533-.205-.848-.437-.722-.668.103-.188.407-.29.816-.362l.032-.005c.241-.041.517-.073.81-.106.514-.059 1.079-.123 1.592-.255.42-.107.807-.261 1.104-.494-.346-.2-.66-.403-.943-.607-2.468-1.773-2.694-3.637-2.694-5.328 0-.54 0-1.798 1.074-1.798.398 0 .796.397 1.297.898.69.69 1.578 1.578 2.933 1.89.319.074.663.116 1.037.116a3.023 3.023 0 0 1-.058-1A2.945 2.945 0 0 1 11.922 3.5c.846 0 1.61.358 2.146.931.212-.042.478-.185.743-.328.575-.31 1.148-.618 1.161.116.008.391-.573 1.804-1.109 2.193.006.127.009.255.009.381 0 3.9-2.957 7.707-8.366 7.707-1.067 0-2.774-.277-3.76-.65z" fill="#fff"/></svg>