<svg width="18" height="18" fill="none" xmlns="http://www.w3.org/2000/svg"><path d="M13.703 4.773a.5.5 0 0 0 .461.149c.25-.05.513-.182.715-.288l.186-.1c.143-.077.268-.144.388-.197a2.46 2.46 0 0 1-.052.183 5.014 5.014 0 0 1-.553 1.162 1.36 1.36 0 0 1-.279.325.5.5 0 0 0-.205.427c.005.12.008.24.008.36 0 3.63-2.74 7.206-7.866 7.206-.78 0-1.954-.16-2.884-.401a6.25 6.25 0 0 1-.839-.272c.252-.052.563-.087.927-.129l.2-.023a11.43 11.43 0 0 0 1.417-.232c.468-.117.95-.294 1.336-.598a.5.5 0 0 0-.058-.825C4.99 10.582 4.163 9.636 3.726 8.74c-.439-.9-.51-1.804-.51-2.724 0-.283.005-.647.107-.936a.612.612 0 0 1 .168-.273c.052-.044.137-.089.3-.089.058 0 .197.048.503.324.135.122.278.266.445.432l.016.016c.17.17.359.359.566.549.836.765 2 1.583 3.737 1.583a.5.5 0 0 0 .488-.611 2.523 2.523 0 0 1-.064-.56A2.446 2.446 0 0 1 11.922 4c.702 0 1.335.297 1.781.773zm1.958-.507h-.002.002zM2.413 13.45v-.001z" stroke="#fff" stroke-linejoin="round"/></svg>