<svg width="18" height="18" fill="none" xmlns="http://www.w3.org/2000/svg"><path fill-rule="evenodd" clip-rule="evenodd" d="M4 2.5a.5.5 0 0 1 .5.5c0 2.006 0 3.606.077 4.89.078 1.29.23 2.205.508 2.86.266.625.645 1.012 1.222 1.26.607.26 1.461.379 2.693.379s2.086-.119 2.693-.38c.577-.247.956-.634 1.222-1.26.277-.654.43-1.569.508-2.859.077-1.284.077-2.884.077-4.89a.5.5 0 0 1 1 0v.015c0 1.988 0 3.618-.079 4.935-.079 1.314-.238 2.372-.586 3.19-.36.846-.918 1.432-1.747 1.788-.799.343-1.82.46-3.088.46s-2.29-.117-3.088-.46c-.83-.356-1.388-.942-1.747-1.788-.348-.819-.507-1.876-.586-3.19C3.5 6.633 3.5 5.003 3.5 3.015V3a.5.5 0 0 1 .5-.5zm.214 13a.5.5 0 0 1 .5-.5h8.572a.5.5 0 1 1 0 1H4.714a.5.5 0 0 1-.5-.5z" fill="#fff"/></svg>