<svg width="18" height="18" fill="none" xmlns="http://www.w3.org/2000/svg"><path d="M10.986 5.032a.5.5 0 1 0 .998-.064l-.998.064zM6.5 8H7V5.5H6V8h.5zM7 5.5c0-.927.138-1.369.367-1.606C7.59 3.661 8.028 3.5 9 3.5v-1c-1.01 0-1.823.151-2.353.7C6.122 3.743 6 4.551 6 5.5h1zm2-2c.877 0 1.32.132 1.563.33.222.18.378.504.423 1.202l.998-.064c-.051-.79-.24-1.466-.79-1.913C10.669 2.625 9.918 2.5 9 2.5v1z" fill="#fff"/><path d="M14.207 15.207l.354.354-.354-.354zm-10.414 0l-.354.354.354-.354zm10.414-6.914l-.353.353.353-.353zM5.5 8.5h7v-1h-7v1zm-1.5 5V10H3v3.5h1zm8.5 1.5h-7v1h7v-1zm1.5-5v3.5h1V10h-1zm-1.5 6c.457 0 .85.001 1.164-.041.328-.044.642-.143.897-.398l-.707-.707c-.038.038-.106.085-.323.114-.232.03-.546.032-1.031.032v1zm1.5-2.5c0 .486-.001.8-.032 1.03-.03.218-.076.286-.114.324l.707.707c.255-.255.354-.57.398-.897C15 14.35 15 13.957 15 13.5h-1zm-11 0c0 .457-.001.85.041 1.164.044.328.144.642.398.897l.707-.707c-.038-.038-.085-.106-.114-.323C4.002 14.299 4 13.985 4 13.5H3zM5.5 15c-.486 0-.8-.001-1.03-.032-.218-.03-.285-.076-.324-.114l-.707.707c.255.255.57.354.897.398C4.65 16 5.043 16 5.5 16v-1zm7-6.5c.486 0 .8.001 1.03.032.218.03.286.076.324.114l.707-.707c-.255-.254-.57-.354-.897-.398C13.35 7.5 12.957 7.5 12.5 7.5v1zM15 10c0-.457.001-.85-.041-1.164-.044-.328-.143-.642-.398-.897l-.707.707c.038.039.085.106.114.323.03.232.032.545.032 1.031h1zM5.5 7.5c-.457 0-.85-.001-1.164.041-.328.044-.642.144-.897.398l.707.707c.039-.038.106-.085.323-.114.232-.03.545-.032 1.031-.032v-1zM4 10c0-.486.001-.8.032-1.03.03-.218.076-.285.114-.324L3.44 7.94c-.254.255-.354.57-.398.897C3 9.15 3 9.543 3 10h1z" fill="#fff"/></svg>