<svg width="18" height="18" fill="none" xmlns="http://www.w3.org/2000/svg"><path fill-rule="evenodd" clip-rule="evenodd" d="M7.367 3.894C7.137 4.131 7 4.573 7 5.5V8H6V5.5c0-.948.122-1.756.647-2.3.53-.549 1.344-.7 2.353-.7.917 0 1.668.125 2.195.555.548.447.738 1.123.79 1.913a.5.5 0 0 1-.999.064c-.045-.698-.201-1.022-.423-1.202C10.32 3.632 9.877 3.5 9 3.5c-.972 0-1.409.161-1.633.394z" fill="#fff"/><path fill-rule="evenodd" clip-rule="evenodd" d="M5.467 7.5H12.533c.443 0 .825 0 1.13.041.329.044.643.144.898.398.255.255.354.57.398.897.041.306.041.688.041 1.131v3.566c0 .443 0 .825-.041 1.13-.044.329-.143.643-.398.898s-.57.354-.897.398c-.306.041-.688.041-1.131.041H5.467c-.443 0-.825 0-1.13-.041-.329-.044-.643-.143-.898-.398-.254-.255-.354-.57-.398-.897C3 14.358 3 13.976 3 13.533V10v-.033c0-.443 0-.825.041-1.13.044-.329.144-.643.398-.898.255-.254.57-.354.897-.398.306-.041.688-.041 1.131-.041zM4.47 8.532c-.217.03-.284.076-.323.114-.038.039-.085.106-.114.323C4.002 9.201 4 9.514 4 10v3.5c0 .486.001.8.032 1.03.03.218.076.286.114.324.039.038.106.085.323.114.232.03.545.032 1.031.032h7c.486 0 .8-.001 1.03-.032.218-.03.286-.076.324-.114.038-.038.085-.106.114-.323.03-.232.032-.546.032-1.031V10c0-.486-.001-.8-.032-1.03-.03-.218-.076-.285-.114-.324-.038-.038-.106-.085-.323-.114-.232-.03-.546-.032-1.031-.032h-7c-.486 0-.8.001-1.03.032z" fill="#fff"/></svg>