<svg width="18" height="18" fill="none" xmlns="http://www.w3.org/2000/svg"><path fill-rule="evenodd" clip-rule="evenodd" d="M6.53 3.644A4.656 4.656 0 0 1 9.6 2.5c1.222 0 2.409.474 3.188 1.3.678.716 1.034 1.687.839 2.78A2.501 2.501 0 0 1 13 11.5a.5.5 0 0 1 0-1 1.5 1.5 0 1 0-1.125-2.492.5.5 0 0 1-.75-.662c.378-.428.9-.726 1.492-.817.189-.823-.062-1.52-.555-2.043-.57-.603-1.483-.986-2.462-.986-.972 0-1.83.38-2.405.891-.488.435-.713.9-.728 1.268A3.01 3.01 0 0 1 8.25 7.3a.5.5 0 0 1-.916.401 2 2 0 1 0-2.463 2.7.5.5 0 0 1-.314.949A3.001 3.001 0 0 1 5.474 5.5c.068-.69.493-1.355 1.056-1.856z" fill="#fff"/><path fill-rule="evenodd" clip-rule="evenodd" d="M11.354 13.354a.5.5 0 0 0 0-.708l-2-2a.5.5 0 0 0-.708 0l-2 2a.5.5 0 0 0 .708.708L8.5 12.207V16a.5.5 0 0 0 1 0v-3.793l1.146 1.147a.5.5 0 0 0 .708 0z" fill="#fff"/></svg>