<svg width="18" height="18" fill="none" xmlns="http://www.w3.org/2000/svg"><path fill-rule="evenodd" clip-rule="evenodd" d="M6.619 10.5H11.38c.573 0 .963 0 1.298.094a2.5 2.5 0 0 1 1.727 1.727c.094.335.094.725.094 1.298v.881a.5.5 0 1 1-1 0v-.8c0-.685-.005-.924-.056-1.107a1.5 1.5 0 0 0-1.037-1.037c-.183-.051-.422-.056-1.107-.056H6.7c-.685 0-.924.005-1.107.056a1.5 1.5 0 0 0-1.037 1.037c-.051.183-.056.422-.056 1.107v.8a.5.5 0 1 1-1 0v-.8-.081c0-.573 0-.963.094-1.298a2.5 2.5 0 0 1 1.727-1.727c.334-.094.725-.094 1.298-.094zM9 3.5A2.25 2.25 0 1 0 9 8a2.25 2.25 0 0 0 0-4.5zM5.75 5.75a3.25 3.25 0 1 1 6.5 0 3.25 3.25 0 0 1-6.5 0z" fill="#fff"/></svg>