<svg width="18" height="18" fill="none" xmlns="http://www.w3.org/2000/svg"><path fill-rule="evenodd" clip-rule="evenodd" d="M9 7a2.69 2.69 0 0 1 2.044.951.5.5 0 0 0 .757-.652A3.69 3.69 0 0 0 9 6C7.078 6 5.517 7.485 5.281 9.376l-.073-.001C3.418 9.375 2 10.876 2 12.688 2 14.498 3.419 16 5.208 16h8.125C14.823 16 16 14.75 16 13.25s-1.176-2.75-2.667-2.75c-.803 0-1.52.367-2.006.938a.5.5 0 1 0 .762.648 1.628 1.628 0 0 1 1.244-.586c.903 0 1.667.766 1.667 1.75 0 .985-.764 1.75-1.667 1.75H5.208C4.006 15 3 13.983 3 12.687c0-1.295 1.006-2.312 2.208-2.312.894 0 1.676.559 2.022 1.381a.5.5 0 1 0 .922-.387 3.263 3.263 0 0 0-1.886-1.81C6.417 8.106 7.6 7 9 7zM6 3C4.29 3 2.918 4.363 2.918 6.03c0 .61.183 1.177.499 1.652a.5.5 0 1 1-.834.553 3.976 3.976 0 0 1-.665-2.206C1.918 3.797 3.753 2 6 2c1.378 0 2.599.675 3.338 1.71a.5.5 0 1 1-.814.58A3.094 3.094 0 0 0 6 3z" fill="#fff"/></svg>