<svg width="18" height="18" fill="none" xmlns="http://www.w3.org/2000/svg"><path fill-rule="evenodd" clip-rule="evenodd" d="M3.967 1.5H14.033c.443 0 .825 0 1.13.041.329.044.643.144.898.398.255.255.354.57.398.897.041.306.041.688.041 1.131v10.066c0 .443 0 .825-.041 1.13-.044.329-.143.643-.398.898s-.57.354-.897.398c-.306.041-.688.041-1.131.041H3.967c-.443 0-.825 0-1.13-.041-.329-.044-.643-.143-.898-.398-.254-.255-.354-.57-.398-.897-.041-.306-.041-.688-.041-1.131V4v-.033c0-.443 0-.825.041-1.13.044-.329.144-.643.398-.898.255-.254.57-.354.897-.398.306-.041.688-.041 1.131-.041zM2.97 2.532c-.217.03-.284.076-.323.114-.038.039-.085.106-.114.323-.03.232-.032.545-.032 1.031v10c0 .486.001.8.032 1.03.03.218.076.286.114.324.039.038.106.085.323.114.232.03.545.032 1.031.032h10c.486 0 .8-.001 1.03-.032.218-.03.286-.076.324-.114.038-.038.085-.106.114-.323.03-.232.032-.546.032-1.031V4c0-.486-.001-.8-.032-1.03-.03-.218-.076-.285-.114-.324-.038-.038-.106-.085-.323-.114-.232-.03-.546-.032-1.031-.032H4c-.486 0-.8.001-1.03.032z" fill="#fff"/><path fill-rule="evenodd" clip-rule="evenodd" d="M4.5 8a.5.5 0 0 1 .5-.5h8a.5.5 0 0 1 0 1H5a.5.5 0 0 1-.5-.5zm0 4a.5.5 0 0 1 .5-.5h4.8a.5.5 0 0 1 0 1H5a.5.5 0 0 1-.5-.5zm-3-7.5A.5.5 0 0 1 2 4h14a.5.5 0 0 1 0 1H2a.5.5 0 0 1-.5-.5z" fill="#fff"/></svg>