<svg width="18" height="18" fill="none" xmlns="http://www.w3.org/2000/svg"><path fill-rule="evenodd" clip-rule="evenodd" d="M4.467 2H13.533c.443 0 .825 0 1.13.041.329.044.643.144.898.398.255.255.354.57.398.897.041.306.041.688.041 1.131v9.066c0 .443 0 .825-.041 1.13-.044.329-.143.643-.398.898s-.57.354-.897.398c-.306.041-.688.041-1.131.041H4.467c-.443 0-.825 0-1.13-.041-.329-.044-.643-.143-.898-.398-.254-.255-.354-.57-.398-.897C2 14.358 2 13.976 2 13.533V4.5v-.033c0-.443 0-.825.041-1.13.044-.329.144-.643.398-.898.255-.254.57-.354.897-.398C3.642 2 4.024 2 4.467 2zM3.47 3.032c-.217.03-.284.076-.323.114-.038.039-.085.106-.114.323C3.002 3.701 3 4.014 3 4.5v9c0 .486.001.8.032 1.03.03.218.076.286.114.324.039.038.106.085.323.114.232.03.545.032 1.031.032h9c.486 0 .8-.001 1.03-.032.218-.03.286-.076.324-.114.038-.038.085-.106.114-.323.03-.232.032-.546.032-1.031v-9c0-.486-.001-.8-.032-1.03-.03-.218-.076-.285-.114-.324-.038-.038-.106-.085-.323-.114C14.299 3.002 13.985 3 13.5 3h-9c-.486 0-.8.001-1.03.032z" fill="#fff"/><path fill-rule="evenodd" clip-rule="evenodd" d="M6.467 6.5h.066c.443 0 .825 0 1.13.041.329.044.643.144.898.398.254.255.354.57.398.897C9 8.142 9 8.524 9 8.967v2.066c0 .443 0 .825-.041 1.13-.044.329-.144.643-.398.898-.255.255-.57.354-.897.398-.306.041-.688.041-1.131.041h-.066c-.443 0-.825 0-1.13-.041-.329-.044-.643-.143-.898-.398-.254-.255-.354-.57-.398-.897C4 11.858 4 11.476 4 11.033V9v-.033c0-.443 0-.825.041-1.13.044-.329.144-.643.398-.898.255-.254.57-.354.897-.398.306-.041.688-.041 1.131-.041zM5.47 7.532c-.217.03-.284.076-.323.114-.038.039-.085.106-.114.323C5.002 8.201 5 8.514 5 9v2c0 .486.001.8.032 1.03.03.218.076.286.114.324.039.038.106.085.323.114.232.03.545.032 1.031.032.486 0 .8-.001 1.03-.032.218-.03.285-.076.324-.114.038-.038.085-.106.114-.323.03-.232.032-.546.032-1.031V9c0-.486-.001-.8-.032-1.03-.03-.218-.076-.285-.114-.324-.039-.038-.106-.085-.323-.114-.232-.03-.545-.032-1.031-.032-.486 0-.8.001-1.03.032zM2.5 5a.5.5 0 0 1 .5-.5h12a.5.5 0 0 1 0 1H3a.5.5 0 0 1-.5-.5zm8 5a.5.5 0 0 1 .5-.5h1.5a.5.5 0 0 1 0 1H11a.5.5 0 0 1-.5-.5zm0 3a.5.5 0 0 1 .5-.5h1.5a.5.5 0 0 1 0 1H11a.5.5 0 0 1-.5-.5zm0-6a.5.5 0 0 1 .5-.5h2.5a.5.5 0 0 1 0 1H11a.5.5 0 0 1-.5-.5z" fill="#fff"/></svg>