<svg width="18" height="18" fill="none" xmlns="http://www.w3.org/2000/svg"><path d="M2.5 4.5c0-.943 0-1.414.293-1.707C3.086 2.5 3.557 2.5 4.5 2.5h9c.943 0 1.414 0 1.707.293.293.293.293.764.293 1.707v9c0 .943 0 1.414-.293 1.707-.293.293-.764.293-1.707.293h-9c-.943 0-1.414 0-1.707-.293-.293-.293-.293-.764-.293-1.707v-9z" stroke="#fff" stroke-linecap="round" stroke-linejoin="round"/><path d="M4.5 9c0-.943 0-1.414.293-1.707C5.086 7 5.557 7 6.5 7c.943 0 1.414 0 1.707.293.293.293.293.764.293 1.707v2c0 .943 0 1.414-.293 1.707C7.914 13 7.443 13 6.5 13c-.943 0-1.414 0-1.707-.293C4.5 12.414 4.5 11.943 4.5 11V9zM3 5h12m-4 5h1.5M11 13h1.5M11 7h2.5" stroke="#fff" stroke-linecap="round" stroke-linejoin="round"/></svg>