<svg width="18" height="18" fill="none" xmlns="http://www.w3.org/2000/svg"><path fill-rule="evenodd" clip-rule="evenodd" d="M6.5 11.5v2c0 .943 0 1.414.293 1.707.293.293.764.293 1.707.293h5c.943 0 1.414 0 1.707-.293.293-.293.293-.764.293-1.707v-5c0-.943 0-1.414-.293-1.707-.293-.293-.764-.293-1.707-.293h-2v3c0 .943 0 1.414-.293 1.707-.293.293-.764.293-1.707.293h-3z" fill="currentColor"/><path d="M6.5 11.5V11H6v.5h.5zm5-5V6H11v.5h.5zm-4.5 7v-2H6v2h1zm.146 1.354c-.038-.038-.085-.106-.114-.323C7.002 14.299 7 13.985 7 13.5H6c0 .457-.001.85.041 1.164.044.328.144.642.398.897l.707-.707zM8.5 15c-.486 0-.8-.001-1.03-.032-.218-.03-.285-.076-.324-.114l-.707.707c.255.255.57.354.897.398C7.65 16 8.043 16 8.5 16v-1zm5 0h-5v1h5v-1zm1.354-.146c-.038.038-.106.085-.323.114-.232.03-.546.032-1.031.032v1c.457 0 .85.001 1.164-.041.328-.044.642-.143.897-.398l-.707-.707zM15 13.5c0 .486-.001.8-.032 1.03-.03.218-.076.286-.114.324l.707.707c.255-.255.354-.57.398-.897C16 14.35 16 13.957 16 13.5h-1zm0-5v5h1v-5h-1zm-.146-1.354c.038.039.085.106.114.323.03.232.032.545.032 1.031h1c0-.457.001-.85-.041-1.164-.044-.328-.143-.642-.398-.897l-.707.707zM13.5 7c.486 0 .8.001 1.03.032.218.03.286.076.324.114l.707-.707c-.255-.254-.57-.354-.897-.398C14.35 6 13.957 6 13.5 6v1zm-2 0h2V6h-2v1zm-.5-.5v3h1v-3h-1zm0 3c0 .486-.001.8-.032 1.03-.03.218-.076.286-.114.324l.707.707c.255-.255.354-.57.398-.897C12 10.35 12 9.957 12 9.5h-1zm-.146 1.354c-.038.038-.106.085-.323.114-.232.03-.545.032-1.031.032v1c.457 0 .85.001 1.164-.041.328-.044.642-.143.897-.398l-.707-.707zM9.5 11h-3v1h3v-1z" fill="currentColor"/><path d="M2.5 4.5c0-.943 0-1.414.293-1.707C3.086 2.5 3.557 2.5 4.5 2.5h5c.943 0 1.414 0 1.707.293.293.293.293.764.293 1.707v5c0 .943 0 1.414-.293 1.707-.293.293-.764.293-1.707.293h-5c-.943 0-1.414 0-1.707-.293C2.5 10.914 2.5 10.443 2.5 9.5v-5z" stroke="currentColor"/></svg>