<svg width="18" height="18" fill="none" xmlns="http://www.w3.org/2000/svg"><path d="M3.944 15.5v-2.167m9.75 2.167v-2.167M3.584 8.278c-.599 0-1.084.484-1.084 1.082v1.084c0 .352.025.674.066.963.09.631.134.946.698 1.436s1.045.49 2.008.49h6.844c1.385 0 2.077 0 2.65-.52.571-.52.62-1.026.717-2.039.011-.113.017-.224.017-.33V9.361c0-.598-.485-1.083-1.083-1.083m-10.834 0L4.27 5.53c.364-1.455.546-2.183 1.089-2.606C5.9 2.5 6.65 2.5 8.15 2.5h1.698c1.5 0 2.25 0 2.793.424.542.423.724 1.15 1.088 2.606l.687 2.748m-10.834 0h10.834" stroke="currentColor" stroke-linecap="round" stroke-linejoin="round"/><path d="M6 10.5a.75.75 0 1 1-1.5 0 .75.75 0 0 1 1.5 0zm7.5 0a.75.75 0 1 1-1.5 0 .75.75 0 0 1 1.5 0z" fill="currentColor"/></svg>