<svg fill="none" height="18" width="18" xmlns="http://www.w3.org/2000/svg"><clipPath id="a"><path d="M0 0h18v18H0z"/></clipPath><clipPath id="b"><path d="M0 0h18v18H0z" transform="rotate(90 9 9)"/></clipPath><g clip-path="url(#a)"><g clip-path="url(#b)"><circle cx="9" cy="9" r="6.5" stroke="currentColor" transform="rotate(90 9 9)"/><path d="M10.004 7.336l-.395-.263C8.241 6.16 7.556 5.704 7.03 5.987c-.53.282-.53 1.105-.53 2.75v.526c0 1.645 0 2.467.528 2.75s1.213-.173 2.581-1.086l.395-.263c1.129-.753 1.693-1.129 1.693-1.664s-.564-.911-1.693-1.664z" fill="currentColor"/></g></g></svg>