<svg fill="none" height="18" width="18" xmlns="http://www.w3.org/2000/svg"><g stroke="currentColor"><path d="M2.5 4.5c0-.943 0-1.414.293-1.707S3.557 2.5 4.5 2.5s1.414 0 1.707.293.293.764.293 1.707 0 1.414-.293 1.707S5.443 6.5 4.5 6.5s-1.414 0-1.707-.293S2.5 5.443 2.5 4.5zm0 9c0-.943 0-1.414.293-1.707S3.557 11.5 4.5 11.5s1.414 0 1.707.293.293.764.293 1.707 0 1.414-.293 1.707-.764.293-1.707.293-1.414 0-1.707-.293S2.5 14.443 2.5 13.5zm9 0c0-.943 0-1.414.293-1.707s.764-.293 1.707-.293 1.414 0 1.707.293.293.764.293 1.707 0 1.414-.293 1.707-.764.293-1.707.293-1.414 0-1.707-.293-.293-.764-.293-1.707z"/><path d="M3.176 6.111A6.473 6.473 0 0 0 2.5 9c0 1.038.243 2.019.676 2.889M6.11 3.176A6.473 6.473 0 0 1 9 2.5c1.038 0 2.019.243 2.889.676m2.935 2.935c.433.87.676 1.851.676 2.889a6.473 6.473 0 0 1-.676 2.889m-2.935 2.935A6.473 6.473 0 0 1 9 15.5a6.473 6.473 0 0 1-2.889-.676"/><path d="M11.5 4.5c0-.943 0-1.414.293-1.707S12.557 2.5 13.5 2.5s1.414 0 1.707.293.293.764.293 1.707 0 1.414-.293 1.707-.764.293-1.707.293-1.414 0-1.707-.293S11.5 5.443 11.5 4.5z"/></g></svg>