<svg width="18" height="18" fill="none" xmlns="http://www.w3.org/2000/svg"><path d="M13.55 11.6v.5-.5zM6.4 6.9h5.2v-1H6.4v1zm.5 4.7V6.4h-1v5.2h1zm4.7-.5H6.4v1h5.2v-1zm-.5-4.7v5.2h1V6.4h-1zm1 0V4.45h-1V6.4h1zM5.9 4.45V6.4h1V4.45h-1zM4.45 12.1H6.4v-1H4.45v1zm7.15 0h1.95v-1H11.6v1zm.5 1.45V11.6h-1v1.95h1zm1.45-7.65H11.6v1h1.95v-1zm-7.15 0H4.45v1H6.4v-1zm.5 7.65V11.6h-1v1.95h1zm6.65-1.45c.8 0 1.45.65 1.45 1.45h1a2.45 2.45 0 0 0-2.45-2.45v1zm-2.45 1.45A2.45 2.45 0 0 0 13.55 16v-1c-.8 0-1.45-.65-1.45-1.45h-1zM13.55 16A2.45 2.45 0 0 0 16 13.55h-1c0 .8-.65 1.45-1.45 1.45v1zm-9.1-4.9A2.45 2.45 0 0 0 2 13.55h1c0-.8.65-1.45 1.45-1.45v-1zm0 4.9a2.45 2.45 0 0 0 2.45-2.45h-1c0 .8-.65 1.45-1.45 1.45v1zm0-1C3.65 15 3 14.35 3 13.55H2A2.45 2.45 0 0 0 4.45 16v-1zM6.9 4.45A2.45 2.45 0 0 0 4.45 2v1c.8 0 1.45.65 1.45 1.45h1zM4.45 2A2.45 2.45 0 0 0 2 4.45h1C3 3.65 3.65 3 4.45 3V2zM2 4.45A2.45 2.45 0 0 0 4.45 6.9v-1C3.65 5.9 3 5.25 3 4.45H2zm10.1 0c0-.8.65-1.45 1.45-1.45V2a2.45 2.45 0 0 0-2.45 2.45h1zm3.9 0A2.45 2.45 0 0 0 13.55 2v1c.8 0 1.45.65 1.45 1.45h1zM13.55 6.9A2.45 2.45 0 0 0 16 4.45h-1c0 .8-.65 1.45-1.45 1.45v1z" fill="currentColor"/></svg>