<svg width="18" height="18" fill="none" xmlns="http://www.w3.org/2000/svg"><path d="M2.5 5v7.5c0 .943 0 1.414.293 1.707.293.293.764.293 1.707.293h9c.943 0 1.414 0 1.707-.293.293-.293.293-.764.293-1.707V5" stroke="currentColor"/><path fill-rule="evenodd" clip-rule="evenodd" d="M2 5.8h14V5c0-.943 0-1.414-.293-1.707C15.414 3 14.943 3 14 3H4c-.943 0-1.414 0-1.707.293C2 3.586 2 4.057 2 5v.8zm2-1.3a.5.5 0 1 1-1 0 .5.5 0 0 1 1 0zm2 0a.5.5 0 1 1-1 0 .5.5 0 0 1 1 0zm1.5.5a.5.5 0 1 0 0-1 .5.5 0 0 0 0 1z" fill="currentColor"/></svg>