<svg fill="none" height="18" width="18" xmlns="http://www.w3.org/2000/svg"><path d="M12.224 3v-.5l-.03.001zm-4.599.603l-.267.423zM5.775 3l.032-.499a.495.495 0 0 0-.031-.001V3zM2 7.105h-.5zM9 16l-.29.407a.5.5 0 0 0 .577.003zm6.5-8.895a.5.5 0 0 0 1 0zm-2.136 5.807a.5.5 0 0 0-.718-.696l.718.697zm-4.347-7.89l-.43-.253.43.254zm-.034 0l-.431.255.43-.254zm.017.02v-.5zm3.193-2.541a4.409 4.409 0 0 0-2.086.68l.535.845a3.409 3.409 0 0 1 1.614-.527zm-2.086.68a4.704 4.704 0 0 0-1.52 1.588l.861.508a3.704 3.704 0 0 1 1.194-1.251zm-.694 1.588a4.704 4.704 0 0 0-1.52-1.588l-.535.845c.48.304.891.737 1.194 1.25zM7.893 3.18a4.409 4.409 0 0 0-2.086-.68l-.062.998a3.409 3.409 0 0 1 1.613.527zM5.776 2.5c-1.168 0-2.282.49-3.1 1.352l.727.688A3.269 3.269 0 0 1 5.776 3.5zm-3.1 1.352C1.84 4.736 1.5 5.932 1.5 7.105h1c0-.993.289-1.917.903-2.565l-.726-.688zM1.5 7.105c0 1.116.496 2.257 1.174 3.306.683 1.059 1.585 2.077 2.474 2.96a32.435 32.435 0 0 0 3.555 3.031l.005.004a.02.02 0 0 0 .001 0L9 16l.29-.407-.003-.003a1.757 1.757 0 0 1-.07-.05 30.264 30.264 0 0 1-.997-.77 31.445 31.445 0 0 1-2.368-2.11c-.861-.854-1.709-1.816-2.338-2.79C2.879 8.885 2.5 7.94 2.5 7.104h-1zm15 0c0-1.172-.34-2.37-1.177-3.253l-.726.688c.614.648.903 1.572.903 2.565zm-1.177-3.253A4.268 4.268 0 0 0 12.224 2.5v1c.885 0 1.739.37 2.373 1.04zM9 16l.287.41.002-.002.005-.004.02-.013a21.27 21.27 0 0 0 .341-.25c.23-.17.557-.42.944-.73a30.81 30.81 0 0 0 2.765-2.498l-.718-.697a29.806 29.806 0 0 1-2.674 2.416 31.019 31.019 0 0 1-1.17.896l-.067.047a2.534 2.534 0 0 1-.02.015h-.002zM8.587 4.769c-.013.02.006-.013.032-.045A.49.49 0 0 1 9 4.543v1a.51.51 0 0 0 .436-.246l.012-.02zm-.035.508l.012.02A.51.51 0 0 0 9 5.543v-1a.49.49 0 0 1 .381.181c.026.032.045.066.032.045zm-2.736 5.026a.5.5 0 1 0 .894.447zm1.816-2.514l.4-.3a.5.5 0 0 0-.848.077zm2.052 2.737l-.4.3a.5.5 0 0 0 .754.054zm1.369-1.368l.353-.354a.5.5 0 0 0-.707 0zm1.368 1.368l-.353.354a.5.5 0 0 0 .653.046zM15.842 10a.5.5 0 1 0 0-1zm-2.035-.449l-.159-.474zM6.71 10.75l1.37-2.737-.895-.447-1.368 2.737.894.447zm.522-2.66l2.052 2.736.8-.6L8.032 7.49zm2.806 2.79l1.368-1.369-.707-.707-1.368 1.369zm.661-1.369l1.369 1.369.707-.707-1.369-1.369zm2.022 1.415l.835-.626-.6-.8-.835.626zM14.456 10h1.386V9h-1.386zm-.9.3c.29-.218.35-.255.409-.274l-.316-.949c-.25.083-.454.244-.693.423zm.9-1.3c-.298 0-.559-.006-.807.077l.316.949c.059-.02.129-.026.491-.026z" fill="currentColor"/></svg>