<svg fill="none" height="18" width="18" xmlns="http://www.w3.org/2000/svg"><path d="m3.343 14.657-.453-.211a.5.5 0 0 0 .664.664l-.21-.453zm1.7-3.65-.454-.21zm.161-.311-.41-.287zm1.789 2.261-.211-.453.21.453zm.311-.161.287.41zm7.923-8.775-.462.191.462-.19zm0 .765.462.192zm-.924.325-7.093 7.094.707.707 7.094-7.094-.707-.707zm-8.508 5.68 7.094-7.094-.707-.707-7.094 7.094zm.987 1.713-3.65 1.7.422.906 3.65-1.7zm-2.986 2.364 1.7-3.65-.907-.422-1.7 3.65zm1.292-4.784c-.113.112-.212.21-.293.325l.82.573c.018-.027.044-.055.18-.191zm.408 1.134c.081-.175.099-.208.118-.236l-.82-.573c-.08.116-.137.242-.205.387zm1.713.987a1.754 1.754 0 0 1 -.192.18l.574.82c.116-.08.213-.18.325-.293zm-.005 1.206c.144-.068.271-.125.387-.206l-.574-.82c-.027.02-.06.038-.235.12zm7.1-9.714c.169.17.278.279.356.368a.58.58 0 0 1 .105.147l.924-.382a1.533 1.533 0 0 0 -.275-.422c-.106-.121-.244-.259-.404-.418l-.707.707zm.706 2.121c.16-.16.298-.297.404-.419.109-.124.208-.258.275-.421l-.924-.383a.58.58 0 0 1 -.105.147c-.078.09-.187.2-.357.369zm-.245-1.606a.5.5 0 0 1 0 .383l.924.383a1.5 1.5 0 0 0 0-1.148zm.245-1.222c-.16-.16-.297-.298-.418-.404a1.535 1.535 0 0 0 -.422-.275l-.383.924c.021.008.061.03.148.105.09.078.199.187.368.357zm-2.12.707c.169-.17.278-.28.368-.357a.58.58 0 0 1 .147-.105l-.383-.924a1.535 1.535 0 0 0 -.421.275c-.122.106-.26.244-.419.404l.707.707zm1.28-1.386a1.5 1.5 0 0 0 -1.148 0l.383.924a.5.5 0 0 1 .383 0z" fill="currentColor"/><path d="m11.172 4.707 2.121 2.121" stroke="currentColor"/></svg>