<svg fill="none" height="18" width="18" xmlns="http://www.w3.org/2000/svg"><clipPath id="a"><path d="M0 0h18v18H0z"/></clipPath><g clip-path="url(#a)" stroke="currentColor"><path d="M5.34 14.896c-.282.17-.423.254-.532.29a1 1 0 0 1-1.282-.727c-.026-.111-.026-.276-.026-.605V4.5c0-.943 0-1.414.293-1.707S4.557 2.5 5.5 2.5h7c.943 0 1.414 0 1.707.293s.293.764.293 1.707v9.354c0 .33 0 .494-.026.605a1 1 0 0 1-1.282.726c-.109-.035-.25-.12-.533-.29a2.242 2.242 0 0 0-.224-.125 1 1 0 0 0-.857.02 2.222 2.222 0 0 0-.218.137l-.11.073c-.188.125-.282.188-.378.226a1 1 0 0 1-.744 0c-.096-.038-.19-.1-.378-.226-.188-.125-.282-.188-.378-.226a1 1 0 0 0-.744 0c-.096.038-.19.1-.378.226-.188.125-.282.188-.378.226a1 1 0 0 1-.744 0c-.096-.038-.19-.1-.378-.226l-.11-.073a2.234 2.234 0 0 0-.218-.137 1 1 0 0 0-.857-.02 2.242 2.242 0 0 0-.224.126z"/><path d="M6 6h6M6 9h2.625m2.625 0H12m-6 3h1.5m3.75 0H12" stroke-linecap="round"/></g></svg>