<svg fill="none" height="18" width="18" xmlns="http://www.w3.org/2000/svg"><clipPath id="a"><path d="M0 0h18v18H0z"/></clipPath><clipPath id="b"><path d="M0 0h18v18H0z" transform="rotate(90 9 9)"/></clipPath><g clip-path="url(#a)"><g clip-path="url(#b)"><path d="M5.5 14H7c.943 0 1.414 0 1.707-.293S9 12.943 9 12V9M5.5 4H7c.943 0 1.414 0 1.707.293S9 5.057 9 6v3m0 0h3.5m1.5 1.5a1.5 1.5 0 1 1 0-3 1.5 1.5 0 0 1 0 3zm-10-5a1.5 1.5 0 1 1 0-3 1.5 1.5 0 0 1 0 3zm0 10a1.5 1.5 0 1 1 0-3 1.5 1.5 0 0 1 0 3z" stroke="currentColor"/></g></g></svg>