<svg width="24" height="24" fill="none" xmlns="http://www.w3.org/2000/svg"><path d="M4 9v8c0 1.886 0 2.828.586 3.414C5.172 21 6.114 21 8 21h8c1.886 0 2.828 0 3.414-.586C20 19.828 20 18.886 20 17V9M6 9h12c.932 0 1.398 0 1.765-.152a2 2 0 0 0 1.083-1.083C21 7.398 21 6.932 21 6c0-.932 0-1.398-.152-1.765a2 2 0 0 0-1.083-1.083C19.398 3 18.932 3 18 3H6c-.932 0-1.398 0-1.765.152a2 2 0 0 0-1.083 1.083C3 4.602 3 5.068 3 6c0 .932 0 1.398.152 1.765a2 2 0 0 0 1.083 1.083C4.602 9 5.068 9 6 9zm3 4h6" stroke="currentColor" stroke-width="2" stroke-linecap="round" stroke-linejoin="round"/></svg>