<svg fill="none" height="24" width="24" xmlns="http://www.w3.org/2000/svg"><path d="M4 2a1 1 0 0 0 0 2zm10 10l-.196-.98a1 1 0 0 0 .035 1.967zm5 5h-1zM4 20a1 1 0 1 0 0 2zm9.576 1l-.017 1zm-.042 0l.008-1zm.011-18v1h-.001.005a2.919 2.919 0 0 1 .178.006c.13.007.32.021.55.05a7.563 7.563 0 0 1 1.652.383c.591.217 1.113.518 1.479.921.346.381.592.892.592 1.64h2c0-1.252-.436-2.241-1.112-2.985-.657-.722-1.499-1.17-2.271-1.454a9.557 9.557 0 0 0-2.098-.491 10.029 10.029 0 0 0-.964-.07h-.008c-.001 0-.002 0-.002 1zM18 7c0 1.503-.915 2.483-2.014 3.143a7.783 7.783 0 0 1-2.15.87l-.03.006h-.004.001L14 12a119.947 119.947 0 0 0 .198.98h.002l.006-.001.017-.004a9.51 9.51 0 0 0 .875-.245 9.786 9.786 0 0 0 1.917-.872C18.415 11.018 20 9.496 20 7zm-4 5l-.162.987h-.001s-.001 0 0 0h.003l.028.005.13.027a7.168 7.168 0 0 1 2 .776C17.07 14.42 18 15.396 18 17h2c0-2.578-1.572-4.104-2.997-4.933a9.167 9.167 0 0 0-2.815-1.05l-.017-.002-.006-.001h-.003zm4 5c0 .773-.234 1.294-.551 1.67-.332.394-.807.688-1.357.9-1.119.43-2.32.434-2.5.43l-.033 2c.255.005 1.767.008 3.251-.563.751-.29 1.552-.747 2.168-1.479C19.61 19.209 20 18.229 20 17zm-4.488 3H7.636v2h5.876zm-5.876 0H4v2h3.636zM4 4h3.636V2H4zm3.636 0h5.91V2h-5.91zm1 17V3h-2v18zm4.956-1h-.05l-.016 2h-.001.034zm-.08 2h.014l.016-2h-.03z" fill="currentColor"/></svg>