<svg fill="none" height="24" width="24" xmlns="http://www.w3.org/2000/svg"><path d="M12.414 20.414l.707.707zm-8.828 0l-.707.707zm8.828-8.828l-.707.707zM7 12h2v-2H7zm-3 5v-2H2v2zm5 3H7v2h2zm3-5v2h2v-2zm-3 7c.915 0 1.701.002 2.328-.082.655-.088 1.284-.287 1.793-.797l-1.414-1.414c-.076.076-.212.17-.646.229C10.6 19.998 9.971 20 9 20zm3-5c0 .971-.002 1.599-.064 2.061-.059.434-.153.57-.229.646l1.414 1.414c.51-.51.709-1.138.797-1.793C14.002 18.7 14 17.915 14 17zM2 17c0 .915-.002 1.701.082 2.328.088.655.287 1.284.797 1.793l1.414-1.414c-.076-.076-.17-.212-.229-.646C4.002 18.6 4 17.971 4 17zm5 3c-.971 0-1.599-.002-2.061-.064-.434-.059-.57-.153-.646-.229l-1.414 1.414c.51.51 1.138.709 1.793.797C5.3 22.002 6.085 22 7 22zm2-8c.971 0 1.599.002 2.061.064.434.059.57.153.646.229l1.414-1.414c-.51-.51-1.138-.709-1.793-.797C10.7 9.998 9.915 10 9 10zm5 3c0-.915.002-1.701-.082-2.328-.088-.655-.287-1.284-.797-1.793l-1.414 1.414c.076.076.17.212.229.646.062.462.064 1.09.064 2.061zm-7-5c-.915 0-1.701-.002-2.328.082-.655.088-1.284.287-1.793.797l1.414 1.414c.076-.076.212-.17.646-.229C5.4 12.002 6.029 12 7 12zm-3 5c0-.971.002-1.599.064-2.061.059-.434.153-.57.229-.646l-1.414-1.414c-.51.51-.709 1.138-.797 1.793C1.998 13.3 2 14.085 2 15z" fill="currentColor"/><path d="M5.5 7.5V7c0-1.886 0-2.828.586-3.414S7.614 3 9.5 3h.5m11 4.5V7c0-1.886 0-2.828-.586-3.414S18.886 3 17 3h-.5M21 14v.5c0 1.886 0 2.828-.586 3.414S18.886 18.5 17 18.5h-.5" stroke="currentColor" stroke-linecap="round" stroke-linejoin="round" stroke-width="2"/></svg>