<svg width="24" height="24" fill="none" xmlns="http://www.w3.org/2000/svg"><path d="M3 8c0-1.886 0-2.828.586-3.414C4.172 4 5.114 4 7 4h10c1.886 0 2.828 0 3.414.586C21 5.172 21 6.114 21 8v8c0 1.886 0 2.828-.586 3.414C19.828 20 18.886 20 17 20H7c-1.886 0-2.828 0-3.414-.586C3 18.828 3 17.886 3 16V8z" stroke="currentColor" stroke-width="2" stroke-linecap="round" stroke-linejoin="round"/><path d="M7 4v5.5M7 20v-8m10-8v5.5M17 20v-5.5m-14-5h4m0 0V12m0 0h10M3 14.5h4m10 0h4m-4 0v-5m0 0h4" stroke="currentColor" stroke-width="2"/></svg>