<svg width="24" height="24" fill="none" xmlns="http://www.w3.org/2000/svg"><path d="M3 3v14c0 1.886 0 2.828.586 3.414C4.172 21 5.114 21 7 21h14m-1-4l-.498-1.329c-.29-.77-.433-1.155-.653-1.328a1 1 0 0 0-1.021-.13c-.256.113-.492.45-.964 1.124-.528.754-.792 1.131-1.064 1.243a1 1 0 0 1-1.056-.19c-.216-.2-.332-.645-.564-1.535l-1.286-4.927c-.229-.877-.343-1.316-.533-1.507a1 1 0 0 0-1.211-.16c-.233.134-.458.528-.908 1.315-.555.972-.833 1.458-1.087 1.594a1 1 0 0 1-1.26-.269c-.178-.227-.233-.784-.345-1.898L7 3.5" stroke="currentColor" stroke-width="2" stroke-linecap="round" stroke-linejoin="round"/></svg>