<svg fill="none" height="24" width="24" xmlns="http://www.w3.org/2000/svg"><g fill="currentColor"><path d="M20.414 20.414l-.707-.707zm-16.828 0l-.707.707zM20.414 3.586l.707-.707zM7 4h10V2H7zM4 17V7H2v10zm13 3H7v2h10zm3-13v10h2V7zm-3 15c.915 0 1.701.002 2.328-.082.655-.088 1.284-.287 1.793-.797l-1.414-1.414c-.076.076-.212.17-.646.229-.462.062-1.09.064-2.061.064zm3-5c0 .971-.002 1.599-.064 2.061-.059.434-.153.57-.229.646l1.414 1.414c.51-.51.709-1.138.797-1.793C22.002 18.7 22 17.915 22 17zM2 17c0 .915-.002 1.701.082 2.328.088.655.287 1.284.797 1.793l1.414-1.414c-.076-.076-.17-.212-.229-.646C4.002 18.6 4 17.971 4 17zm5 3c-.971 0-1.599-.002-2.061-.064-.434-.059-.57-.153-.646-.229l-1.414 1.414c.51.51 1.138.709 1.793.797C5.3 22.002 6.085 22 7 22zM17 4c.971 0 1.599.002 2.061.064.434.059.57.153.646.229l1.414-1.414c-.51-.51-1.138-.709-1.793-.797C18.7 1.998 17.915 2 17 2zm5 3c0-.915.002-1.701-.082-2.328-.088-.655-.287-1.284-.797-1.793l-1.414 1.414c.076.076.17.212.229.646C19.998 5.4 20 6.029 20 7zM7 2c-.915 0-1.701-.002-2.328.082-.655.088-1.284.287-1.793.797l1.414 1.414c.076-.076.212-.17.646-.229C5.4 4.002 6.029 4 7 4zM4 7c0-.971.002-1.599.064-2.061.059-.434.153-.57.229-.646L2.879 2.879c-.51.51-.709 1.138-.797 1.793C1.998 5.3 2 6.085 2 7z"/><path d="M12.5 3a.5.5 0 0 0-1 0zm-1 18a.5.5 0 0 0 1 0zM8 3a.5.5 0 0 0-1 0zM7 21a.5.5 0 0 0 1 0zM17 3a.5.5 0 0 0-1 0zm-1 18a.5.5 0 0 0 1 0zm5-8.5a.5.5 0 0 0 0-1zm-18-1a.5.5 0 0 0 0 1zm18-3.05a.5.5 0 0 0 0-1zm-18-1a.5.5 0 0 0 0 1zm18 9.1a.5.5 0 0 0 0-1zm-18-1a.5.5 0 0 0 0 1zM11.5 3v18h1V3zM7 3v18h1V3zm9 0v18h1V3zm5 8.5H3v1h18zm0-4.05H3v1h18zm0 8.1H3v1h18z"/></g></svg>