<svg fill="none" height="24" width="24" xmlns="http://www.w3.org/2000/svg"><path d="M4.586 20.414l-.707.707zm14.828 0l-.707-.707zM19 10v7h2v-7zm-3 10H8v2h8zM5 17v-7H3v7zm3 3c-.971 0-1.599-.002-2.061-.064-.434-.059-.57-.153-.646-.229l-1.414 1.414c.51.51 1.138.709 1.793.797C6.3 22.002 7.085 22 8 22zm-5-3c0 .915-.002 1.701.082 2.328.088.655.287 1.284.797 1.793l1.414-1.414c-.076-.076-.17-.212-.229-.646C5.002 18.6 5 17.971 5 17zm16 0c0 .971-.002 1.599-.064 2.061-.059.434-.153.57-.229.646l1.414 1.414c.51-.51.709-1.138.797-1.793C21.002 18.7 21 17.915 21 17zm-3 5c.915 0 1.701.002 2.328-.082.655-.088 1.284-.287 1.793-.797l-1.414-1.414c-.076.076-.212.17-.646.229-.462.062-1.09.064-2.061.064z" fill="currentColor"/><path d="M3 11l6.172-6.172c1.333-1.333 2-2 2.828-2s1.495.667 2.828 2L21 11" stroke="currentColor" stroke-linecap="round" stroke-width="2"/><path d="M9 17c0-.932 0-1.398.152-1.765a2 2 0 0 1 1.083-1.083C10.602 14 11.068 14 12 14s1.398 0 1.765.152a2 2 0 0 1 1.083 1.083C15 15.602 15 16.068 15 17v4H9zm7-12.5c0-.466 0-.699.076-.883a1 1 0 0 1 .541-.54C16.801 3 17.034 3 17.5 3s.699 0 .883.076a1 1 0 0 1 .54.541c.077.184.077.417.077.883V10l-3-3.5z" fill="currentColor"/></svg>