<svg fill="none" height="24" width="24" xmlns="http://www.w3.org/2000/svg"><path d="M6.586 20.414l.707-.707zm10.828 0l.707.707zm0-16.828l.707-.707zM17 7v10h2V7zm-3 13h-4v2h4zm-7-3V7H5v10zm3-13h4V2h-4zm0 16c-.971 0-1.599-.002-2.061-.064-.434-.059-.57-.153-.646-.229l-1.414 1.414c.51.51 1.138.709 1.793.797C8.3 22.002 9.085 22 10 22zm-5-3c0 .915-.002 1.701.082 2.328.088.655.287 1.284.797 1.793l1.414-1.414c-.076-.076-.17-.212-.229-.646C7.002 18.6 7 17.971 7 17zm12 0c0 .971-.002 1.599-.064 2.061-.059.434-.153.57-.229.646l1.414 1.414c.51-.51.709-1.138.797-1.793C19.002 18.7 19 17.915 19 17zm-3 5c.915 0 1.701.002 2.328-.082.655-.088 1.284-.287 1.793-.797l-1.414-1.414c-.076.076-.212.17-.646.229-.462.062-1.09.064-2.061.064zm5-15c0-.915.002-1.701-.082-2.328-.088-.655-.287-1.284-.797-1.793l-1.414 1.414c.076.076.17.212.229.646C16.998 5.4 17 6.029 17 7zm-5-3c.971 0 1.599.002 2.061.064.434.059.57.153.646.229l1.414-1.414c-.51-.51-1.138-.709-1.793-.797C15.7 1.998 14.915 2 14 2zM7 7c0-.971.002-1.599.064-2.061.059-.434.153-.57.229-.646L5.879 2.879c-.51.51-.709 1.138-.797 1.793C4.998 5.3 5 6.085 5 7zm3-5c-.915 0-1.701-.002-2.328.082-.655.088-1.284.287-1.793.797l1.414 1.414c.076-.076.212-.17.646-.229C8.4 4.002 9.029 4 10 4z" fill="currentColor"/><path d="M10 5h4a1 1 0 1 0 0-2h-4a1 1 0 1 0 0 2z" fill="currentColor"/><path d="M9 18h6" stroke="currentColor" stroke-linecap="round"/></svg>