<svg width="24" height="24" fill="none" xmlns="http://www.w3.org/2000/svg"><path d="M5 17h14c.5 0 .774.002.964.028h.007l.001.008c.026.19.028.464.028.964v1c0 .5-.002.774-.028.964v.007l-.008.001c-.19.026-.464.028-.964.028H5c-.5 0-.774-.002-.964-.028h-.007l-.001-.008C4.002 19.774 4 19.5 4 19v-1c0-.5.002-.774.028-.964v-.007l.008-.001C4.226 17.002 4.5 17 5 17zm-.25-7h14.5c.372 0 .576.001.72.016l.013.001.001.013c.015.144.016.348.016.72s-.001.576-.016.72l-.001.013-.013.001a8.293 8.293 0 0 1-.72.016H4.75c-.372 0-.576-.001-.72-.016l-.013-.001-.001-.013A8.28 8.28 0 0 1 4 10.75a8.28 8.28 0 0 1 .017-.733l.013-.001C4.174 10 4.378 10 4.75 10z" fill="currentColor" stroke="currentColor" stroke-width="2"/><mask id="a" fill="currentColor"><path d="M3 4.75A.75.75 0 0 1 3.75 4h16.5a.75.75 0 0 1 0 1.5H3.75A.75.75 0 0 1 3 4.75z"/></mask><path d="M3 4.75A.75.75 0 0 1 3.75 4h16.5a.75.75 0 0 1 0 1.5H3.75A.75.75 0 0 1 3 4.75z" fill="currentColor"/><path d="M3.75 6h16.5V2H3.75v4zm16.5-2.5H3.75v4h16.5v-4zm-16.5 0C4.44 3.5 5 4.06 5 4.75H1A2.75 2.75 0 0 0 3.75 7.5v-4zM19 4.75c0-.69.56-1.25 1.25-1.25v4A2.75 2.75 0 0 0 23 4.75h-4zM20.25 6C19.56 6 19 5.44 19 4.75h4A2.75 2.75 0 0 0 20.25 2v4zM3.75 2A2.75 2.75 0 0 0 1 4.75h4C5 5.44 4.44 6 3.75 6V2z" fill="currentColor" mask="url(#a)"/></svg>