<svg fill="none" height="24" width="24" xmlns="http://www.w3.org/2000/svg"><g stroke="currentColor" stroke-width="2"><path d="M4.5 7c0-1.886 0-2.828.586-3.414S6.614 3 8.5 3h7c1.886 0 2.828 0 3.414.586S19.5 5.114 19.5 7v7c0 1.886 0 2.828-.586 3.414S17.386 18 15.5 18h-7c-1.886 0-2.828 0-3.414-.586S4.5 15.886 4.5 14z"/><path d="M8 7.5c0-.471 0-.707.146-.854C8.293 6.5 8.53 6.5 9 6.5h6c.471 0 .707 0 .854.146.146.147.146.383.146.854V10c0 .471 0 .707-.146.854C15.707 11 15.47 11 15 11H9c-.471 0-.707 0-.854-.146C8 10.707 8 10.47 8 10z" fill="currentColor"/><path d="M6 18h12c0 .932 0 1.398-.152 1.765a2 2 0 0 1-1.083 1.083C16.398 21 15.932 21 15 21H9c-.932 0-1.398 0-1.765-.152a2 2 0 0 1-1.083-1.083C6 19.398 6 18.932 6 18z"/></g><path d="M9 14.5a1 1 0 1 1-2 0 1 1 0 0 1 2 0z" fill="currentColor"/><path d="M13 14.5h3.5" stroke="currentColor" stroke-linecap="round" stroke-linejoin="round"/></svg>