<svg fill="none" height="24" width="24" xmlns="http://www.w3.org/2000/svg"><clipPath id="a"><path d="M0 0h24v24H0z"/></clipPath><g clip-path="url(#a)" stroke="currentColor" stroke-width="2"><path d="M8 7h8m-8 4.5h3.5m3.5 0h1M8 16h2m5 0h1" stroke-linecap="round"/><path d="M6.666 20.058c-1.214.429-1.82.643-2.243.345C4 20.102 4 19.46 4 18.172V7c0-1.886 0-2.828.586-3.414S6.114 3 8 3h8c1.886 0 2.828 0 3.414.586S20 5.114 20 7v11.172c0 1.288 0 1.932-.423 2.23-.422.3-1.03.085-2.243-.344l-.13-.046c-.397-.14-.596-.21-.8-.197s-.392.108-.769.299l-.806.408c-.408.207-.613.31-.829.32a1 1 0 0 1-.21-.014c-.213-.036-.403-.164-.782-.42-.433-.292-.65-.439-.89-.467a.996.996 0 0 0-.236 0c-.24.029-.457.175-.89.467-.38.256-.57.384-.782.42a1 1 0 0 1-.21.014c-.216-.01-.42-.113-.83-.32l-.805-.408c-.377-.19-.565-.286-.77-.299-.204-.013-.402.057-.8.197z"/></g></svg>