<svg width="24" height="24" fill="none" xmlns="http://www.w3.org/2000/svg"><g clip-path="url(#clip0_821_19294)"><path d="M19.5 17H9.195c-.81 0-1.214 0-1.494-.237s-.346-.636-.48-1.435l-1.443-8.67c-.133-.798-.2-1.197-.479-1.434-.28-.237-.684-.237-1.494-.237H3M5.857 7l11.308-.007c1.704 0 2.556-.001 3.102.43a2 2 0 0 1 .552.683c.309.624.13 1.457-.226 3.124-.243 1.133-.364 1.7-.71 2.092a2 2 0 0 1-.522.422c-.456.256-1.035.256-2.194.256H7.001" stroke="currentColor" stroke-width="2" stroke-linecap="round" stroke-linejoin="round"/><path d="M20 20.5a1.5 1.5 0 1 1-3 0 1.5 1.5 0 0 1 3 0zm-9.5 0a1.5 1.5 0 1 1-3 0 1.5 1.5 0 0 1 3 0z" fill="currentColor"/></g><defs><clipPath id="clip0_821_19294"><path fill="currentColor" d="M0 0H24V24H0z"/></clipPath></defs></svg>