<svg fill="none" height="24" width="24" xmlns="http://www.w3.org/2000/svg"><path d="M11.048 4.947c.392-1.213.588-1.82.952-1.82s.56.607.952 1.82l1.324 4.102c.108.334.162.501.294.597.131.096.307.096.658.096h3.683c1.272 0 1.908 0 2.02.346s-.403.719-1.434 1.464l-3.158 2.284c-.284.206-.426.309-.477.463-.05.155.004.321.111.655l1.338 4.138c.387 1.2.58 1.8.288 2.012-.294.213-.804-.155-1.826-.894l-3.187-2.303c-.283-.204-.424-.306-.586-.306s-.303.102-.586.306L8.227 20.21c-1.022.738-1.532 1.107-1.826.894-.293-.213-.099-.812.288-2.012l1.338-4.138c.107-.334.161-.5.11-.655-.05-.154-.192-.257-.476-.463l-3.158-2.284c-1.03-.745-1.546-1.118-1.434-1.464s.748-.346 2.02-.346h3.683c.351 0 .527 0 .658-.096.132-.096.186-.263.294-.597z" stroke="currentColor" stroke-linecap="round" stroke-linejoin="round" stroke-width="2"/></svg>