<svg fill="none" height="24" width="24" xmlns="http://www.w3.org/2000/svg"><g stroke="currentColor" stroke-width="2"><path d="M3 21h17.5" stroke-linecap="round"/><path d="M20.111 8.792L8.178 13.19c-.732.27-1.099.405-1.456.404a2 2 0 0 1-1-.268c-.309-.18-.563-.485-1.07-1.096-1.143-1.377-1.714-2.066-1.697-2.452a1 1 0 0 1 .66-.895c.363-.132 1.173.203 2.792.872.209.086.313.129.42.148a1 1 0 0 0 .347 0c.108-.019.212-.062.421-.148l.767-.317c.546-.226.819-.338.972-.512a1 1 0 0 0 .227-.879c-.05-.226-.234-.457-.602-.918-.869-1.088-1.303-1.632-1.315-1.962a1 1 0 0 1 .718-.995c.316-.093.97.147 2.276.626l3.443 1.264c.564.208.847.311 1.143.328.295.017.588-.053 1.172-.194l2.729-.657a1.703 1.703 0 0 1 .988 3.253z"/></g></svg>