<svg width="24" height="24" fill="none" xmlns="http://www.w3.org/2000/svg"><path d="M20 3.222a1 1 0 1 0-2 0h2zm-14 0a1 1 0 0 0-2 0h2zM18 22a1 1 0 1 0 0-2v2zM6 20a1 1 0 1 0 0 2v-2zM18 3.222c0 3.046 0 5.423-.108 7.295-.108 1.888-.321 3.146-.687 4.004-.337.792-.801 1.238-1.527 1.526-.797.316-1.948.453-3.678.453v2c1.77 0 3.244-.13 4.415-.594 1.244-.493 2.092-1.34 2.63-2.6.51-1.195.733-2.747.844-4.674C20 8.689 20 6.246 20 3.222h-2zM12 16.5c-1.73 0-2.88-.137-3.678-.453-.726-.288-1.19-.734-1.527-1.526-.366-.858-.579-2.116-.687-4.004C6 8.645 6 6.268 6 3.222H4c0 3.024 0 5.467.111 7.41.11 1.927.335 3.479.844 4.673.538 1.26 1.386 2.108 2.63 2.6 1.17.465 2.645.595 4.415.595v-2zm6 3.5H6v2h12v-2z" fill="currentColor"/></svg>