<svg fill="none" height="24" width="24" xmlns="http://www.w3.org/2000/svg"><path d="M3 12c0-1.886 0-2.828.586-3.414S5.114 8 7 8h10c1.886 0 2.828 0 3.414.586S21 10.114 21 12v4c0 1.886 0 2.828-.586 3.414S18.886 20 17 20H7c-1.886 0-2.828 0-3.414-.586S3 17.886 3 16z" stroke="currentColor" stroke-width="2"/><path d="M18 8l-.461-1.076c-.504-1.175-.756-1.763-1.257-2.094-.5-.33-1.14-.33-2.42-.33H7c-1.886 0-2.828 0-3.414.586S3 6.614 3 8.5V15" stroke="currentColor" stroke-width="2"/><rect fill="currentColor" height="2" rx="1" width="2" x="16.5" y="11"/></svg>