<svg width="18" height="18" fill="none" xmlns="http://www.w3.org/2000/svg"><path d="M2.222 15.418c0-.196.16-.356.357-.356h.217a.573.573 0 0 0 .573-.573v-8.72a.687.687 0 0 0-.568-.676l-.31-.054a.325.325 0 1 1-.003-.639l1.339-.249a.687.687 0 0 1 .812.676v4.11c0 .02.017.036.037.036.015 0 .029-.009.035-.023a2.161 2.161 0 0 1 .734-.906c.196-.135.342-.246.59-.329.258-.082.42-.12.741-.12.96 0 1.647.252 2.06.758.414.496.62 1.245.62 2.247v3.889c0 .316.257.573.574.573h.216a.356.356 0 0 1 0 .713h-2.85a.356.356 0 1 1 0-.713h.217a.573.573 0 0 0 .573-.573v-3.78c0-.755-.15-1.312-.45-1.674-.299-.372-.571-.558-1.222-.558a2.58 2.58 0 0 0-.682.093c-.217.062-.418.16-.604.295-.176.134-.32.3-.434.496a1.478 1.478 0 0 0-.155.697v4.43c0 .317.257.574.573.574h.217a.356.356 0 0 1 0 .713H2.58a.356.356 0 0 1-.357-.357z" fill="currentColor" stroke="currentColor" stroke-width=".344"/><path d="M11.264 10.58a.705.705 0 0 0 .963 1.03l-.963-1.03zm2.54-1.412h.705a.705.705 0 0 0-1.186-.514l.481.514zm-1.496 5.382a.705.705 0 1 0 0 1.41v-1.41zm2.995 1.41a.705.705 0 1 0 0-1.41v1.41zm-3.076-4.35l2.06-1.927-.964-1.03-2.059 1.928.963 1.029zm.873-2.442v6.087h1.41V12.21 9.168H13.1zm.704 5.382h-1.496v1.41h1.496v-1.41zm0 1.41h1.5v-1.41h-1.5v1.41z" fill="currentColor"/></svg>