<svg width="24" height="24" fill="none" xmlns="http://www.w3.org/2000/svg"><path d="M2.001 21.255c0-.287.232-.52.519-.52h.315c.461 0 .835-.373.835-.834V7.211a1 1 0 0 0-.827-.984l-.451-.08a.472.472 0 1 1-.005-.93l1.949-.361a1 1 0 0 1 1.183.983v5.981c0 .03.024.054.053.054a.055.055 0 0 0 .05-.034c.09-.215.221-.436.393-.665.18-.24.406-.459.676-.654.286-.195.498-.357.86-.478.375-.12.612-.176 1.078-.176 1.398 0 2.397.368 2.999 1.105.6.721.902 1.811.902 3.27v5.66c0 .46.373.834.834.834h.316a.519.519 0 0 1 0 1.037H9.53a.519.519 0 1 1 0-1.037h.316c.461 0 .835-.374.835-.835V14.4c0-1.097-.218-1.909-.654-2.435-.436-.541-.833-.812-1.78-.812-.33 0-.661.046-.992.136a2.81 2.81 0 0 0-.88.428 2.431 2.431 0 0 0-.63.722c-.151.285-.226.624-.226 1.014v6.45c0 .46.373.834.834.834h.316a.519.519 0 0 1 0 1.037h-4.15a.519.519 0 0 1-.518-.518z" fill="currentColor" stroke="currentColor" stroke-width=".5"/><path d="M15.243 14.391a1 1 0 0 0 1.367 1.46l-1.367-1.46zm3.605-2.004h1a1 1 0 0 0-1.683-.73l.683.73zm-2.123 7.636a1 1 0 1 0 0 2v-2zm4.25 2a1 1 0 1 0 0-2v2zm-4.365-6.171l2.921-2.735-1.366-1.46-2.921 2.734 1.366 1.46zm1.238-3.465v8.637h2v-4.319-4.318h-2zm1 7.636h-2.123v2h2.123v-2zm0 2h2.127v-2h-2.127v2z" fill="currentColor"/></svg>