<svg width="18" height="18" fill="none" xmlns="http://www.w3.org/2000/svg"><path d="M2.222 15.418c0-.196.16-.356.357-.356h.217a.573.573 0 0 0 .573-.573v-8.72a.687.687 0 0 0-.568-.676l-.31-.054a.325.325 0 1 1-.003-.639l1.339-.249a.687.687 0 0 1 .812.676v4.11c0 .02.017.036.037.036.015 0 .029-.009.035-.023a2.161 2.161 0 0 1 .734-.906c.196-.135.342-.246.59-.329.258-.082.42-.12.741-.12.96 0 1.647.252 2.06.758.414.496.62 1.245.62 2.247v3.889c0 .316.257.573.574.573h.216a.356.356 0 0 1 0 .713h-2.85a.356.356 0 1 1 0-.713h.217a.573.573 0 0 0 .573-.573v-3.78c0-.755-.15-1.312-.45-1.674-.299-.372-.571-.558-1.222-.558a2.58 2.58 0 0 0-.682.093c-.217.062-.418.16-.604.295-.176.134-.32.3-.434.496a1.478 1.478 0 0 0-.155.697v4.43c0 .317.257.574.573.574h.217a.356.356 0 0 1 0 .713H2.58a.356.356 0 0 1-.357-.357z" fill="currentColor" stroke="currentColor" stroke-width=".344"/><path d="M11.877 9.733a.674.674 0 0 0 .88 1.02l-.88-1.02zm3.472 1.237h-.674.674zm-2.322 1.418l-.082-.669a.674.674 0 0 0 .046 1.341l.036-.672zm-.125 1.793a.673.673 0 1 0-1.169.668l1.17-.668zm1.773-3.211c0 .192-.063.298-.151.381-.108.102-.283.191-.517.257a3.196 3.196 0 0 1-.877.108h-.07.001l-.034.672-.035.672h.004l.009.001.027.001a4.007 4.007 0 0 0 .396-.007c.247-.014.588-.051.94-.15.347-.096.752-.265 1.08-.573.347-.328.574-.784.574-1.362h-1.347zm-1.648 1.418a93.602 93.602 0 0 1 .08.669h-.001a2.524 2.524 0 0 1 .903.07c.218.06.38.148.485.26.09.096.181.255.181.56h1.347c0-.615-.2-1.112-.544-1.48-.331-.354-.75-.54-1.112-.64a3.866 3.866 0 0 0-.97-.128 4.193 4.193 0 0 0-.436.018l-.009.002h-.003-.002l.08.669zm1.648 1.56c0 .256-.204.53-.694.617-.49.087-.91-.09-1.079-.384l-1.169.668c.54.946 1.636 1.194 2.485 1.042.847-.152 1.804-.782 1.804-1.943h-1.347zm-1.917-3.195c.43-.371.973-.48 1.37-.393.195.043.33.125.413.216a.555.555 0 0 1 .134.394h1.347c0-.51-.173-.957-.483-1.299a2.105 2.105 0 0 0-1.124-.627c-.825-.18-1.797.05-2.538.69l.88 1.019z" fill="currentColor"/></svg>