<svg width="18" height="18" fill="none" xmlns="http://www.w3.org/2000/svg"><g clip-path="url(#clip0_489_196156)"><path d="M13.5 11.194a.5.5 0 0 0 1 0h-1zm.207-8.901l.354-.354-.354.354zM6 2.5h6v-1H6v1zM13.5 4V11.193h1v-.013-.013-.014-.013-.013-.013-.013-.013-.014-.013-.013-.013-.014-.013-.013-.014-.013-.013-.014-.013-.014-.013-.013-.014-.013-.014-.013-.014-.013-.014-.014-.013-.014-.013-.014-.014-.013-.014-.014-.013-.014-.014-.014-.013-.014-.014-.014-.014-.013-.014-.014-.014-.014-.014-.014-.013-.014-.014-.014-.014-.014-.014-.014-.014-.014-.014-.014-.015-.014-.014-.014-.014-.014-.014-.014-.015-.014-.014-.014-.014-.015-.014-.014-.014-.015-.014-.014-.015-.014-.014-.015-.014-.014-.015-.014-.015-.014-.014-.015-.014-.015-.014-.015-.014-.014-.015-.014-.015-.014-.015-.015-.014-.015-.014-.015-.014-.015-.014-.015-.015-.014-.015-.015-.014-.015-.015-.014-.015-.015-.014-.015-.015-.014-.015-.015-.014-.015-.015-.015-.014-.015-.015-.015-.014-.015-.015-.015-.015-.014-.015-.015-.015-.015-.015-.014-.015-.015-.015-.015-.015-.015-.014-.015-.015-.015-.015-.015-.015-.015-.015-.014-.015-.015-.015-.015-.015-.015-.015-.015-.015-.015-.015-.015-.015-.015-.015-.014-.015-.015-.015-.015-.015-.015-.015-.015-.015-.015-.015-.015-.015-.015-.015-.015-.015-.015-.015-.015-.015-.015-.015-.015-.015-.015-.015-.015-.015-.015-.015-.015-.015-.015-.015-.015-.015-.015-.015-.015-.015-.015-.015-.015-.015-.015-.015-.015-.015-.015-.015-.015-.015-.015-.015-.015-.015-.015-.015-.015-.015V7.6v-.015-.015-.015-.015-.015-.015-.014-.015-.015-.015-.015-.015-.015-.015-.015-.015-.015-.015-.015-.014-.015-.015-.015-.015-.015-.015-.015-.014-.015-.015-.015-.015-.015-.015-.014-.015-.015-.015-.015-.014-.015-.015-.015-.015-.014-.015V6.9v-.015-.014-.015-.015-.015-.014-.015-.015-.014-.015-.015-.014-.015-.015-.014-.015-.015-.014-.015-.015-.014-.015-.014-.015-.014-.015-.015-.014-.015-.014-.015-.014-.015-.014-.015-.014-.015-.014-.015-.014-.014-.015-.014-.015-.014-.014-.015-.014-.014-.015-.014-.014-.015-.014V6.1v-.015-.014-.014-.014-.015-.014-.014-.014-.014-.015-.014-.014-.014-.014-.014-.014-.014-.015-.014-.014-.014-.014-.014-.014-.014-.014-.014-.014-.014-.013-.014-.014-.014-.014-.014-.014-.014-.013-.014-.014-.014-.014-.013-.014-.014-.013-.014-.014-.013-.014-.014-.013-.014-.013-.014-.014-.013-.014-.013-.014-.013-.014-.013-.013-.014-.013-.014-.013-.013-.014-.013-.013-.014-.013-.013-.013-.013-.014-.013V5v-.013-.013-.013-.013-.014-.013-.013-.013-.013-.013-.013-.013-.012-.013-.013-.013-.013-.013-.013-.012-.013-.013-.013-.012-.013-.013-.012-.013-.013-.012V4.6 4.59v-.013-.012-.013-.012-.013-.012V4.5 4.49v-.013-.012-.012-.013-.012-.012-.012-.013-.012-.012-.012-.012-.012-.013-.012-.012-.012-.012-.012-.012-.012-.012-.012-.011-.012-.012-.012-.012-.011-.012-.012-.012-.011-.012-.012-.011-.012-.011-.012-.011-.012h-1zm-9 11V4h-1v11h1zM12 2.5c.486 0 .8.001 1.03.032.218.03.286.076.324.114l.707-.707c-.255-.254-.57-.354-.897-.398C12.85 1.5 12.457 1.5 12 1.5v1zM14.5 4c0-.458.001-.85-.041-1.164-.044-.328-.144-.642-.398-.897l-.707.707c.038.039.085.107.114.323.03.231.032.545.032 1.03h1zM6 1.5c-.457 0-.85-.001-1.164.041-.328.044-.642.144-.897.398l.707.707c.039-.038.106-.085.323-.114.232-.03.545-.032 1.031-.032v-1zM4.5 4c0-.486.001-.8.032-1.03.03-.218.076-.285.114-.324L3.94 1.94c-.254.255-.354.57-.398.897C3.5 3.15 3.5 3.543 3.5 4h1z" fill="currentColor"/><path d="M12 2H7v11h5c.943 0 1.414 0 1.707-.293.293-.293.293-.764.293-1.706V3.999c0-.942 0-1.413-.293-1.706C13.414 2 12.943 2 12 2z" stroke="currentColor"/><path d="M14 16.5a.5.5 0 0 0 0-1v1zm0-1H5.5v1H14v-1zm-8.5-2h1.658v-1H5.5v1zm-2 1a2 2 0 0 0 2 2v-1a1 1 0 0 1-1-1h-1zm1 0a1 1 0 0 1 1-1v-1a2 2 0 0 0-2 2h1z" fill="currentColor"/><path d="M14 16h-.5a1.5 1.5 0 0 1-1.5-1.5v-.167c0-.736.597-1.333 1.333-1.333a.667.667 0 0 0 .667-.667V9" stroke="currentColor"/></g><defs><clipPath id="clip0_489_196156"><path fill="currentColor" d="M0 0H18V18H0z"/></clipPath></defs></svg>