<svg width="18" height="18" fill="none" xmlns="http://www.w3.org/2000/svg"><g clip-path="url(#clip0_489_196210)"><path d="M2.5 8.5a.5.5 0 0 0 0 1v-1zM6.813 3l.48-.14a.5.5 0 0 0-.95-.031l.47.171zm3.5 12l-.48.14a.5.5 0 0 0 .95.031l-.47-.171zM15.5 9.5a.5.5 0 0 0 0-1v1zm-3.48.815l.47.171-.47-.171zm.606-1.134l.287.41-.287-.41zM4.5 8.819l.286.41-.286-.41zm1.075-.963l1.708-4.685-.94-.342-1.707 4.685.94.342zm.758-4.716l3.5 12 .96-.28-3.5-12-.96.28zm4.45 12.031l1.708-4.685-.94-.342-1.707 4.685.94.342zM13.9 9.5h1.6v-1h-1.6v1zm-11.4 0h.725v-1H2.5v1zm9.99.986c.12-.328.197-.536.271-.686.07-.14.116-.185.152-.21l-.573-.819c-.223.156-.363.36-.474.584-.106.212-.203.481-.315.789l.94.342zM13.9 8.5c-.327 0-.614 0-.85.026-.248.028-.488.09-.71.245l.573.82c.036-.026.094-.054.249-.072.167-.018.388-.019.738-.019v-1zm-9.265-.986a7.45 7.45 0 0 1-.271.686c-.07.14-.116.185-.152.21l.573.819c.223-.156.363-.36.474-.584.106-.212.203-.481.315-.789l-.94-.342zM3.225 9.5c.327 0 .614 0 .85-.026.248-.028.488-.09.71-.245l-.573-.82c-.036.026-.094.054-.249.072a7.45 7.45 0 0 1-.738.02v1z" fill="currentColor"/></g><defs><clipPath id="clip0_489_196210"><path fill="currentColor" d="M0 0H18V18H0z"/></clipPath></defs></svg>