<svg width="18" height="18" viewBox="0 0 18 18" fill="none" xmlns="http://www.w3.org/2000/svg">
<path d="M14.2422 6.82741C14.1624 6.88888 12.7537 7.67705 12.7537 9.42958C12.7537 11.4567 14.5462 12.1738 14.5999 12.1916C14.5916 12.2353 14.3151 13.1737 13.6548 14.1299C13.066 14.9713 12.451 15.8114 11.5155 15.8114C10.58 15.8114 10.3393 15.2718 9.25932 15.2718C8.20689 15.2718 7.8327 15.8291 6.97699 15.8291C6.12129 15.8291 5.52422 15.0505 4.83774 14.0944C4.04257 12.9715 3.4001 11.2272 3.4001 9.57164C3.4001 6.9162 5.13902 5.50789 6.85043 5.50789C7.75978 5.50789 8.51781 6.10072 9.08873 6.10072C9.63215 6.10072 10.4796 5.47238 11.5141 5.47238C11.9062 5.47238 13.315 5.50789 14.2422 6.82741V6.82741ZM11.023 4.34819C11.4509 3.84415 11.7535 3.14477 11.7535 2.4454C11.7535 2.34841 11.7453 2.25006 11.7274 2.17084C11.0313 2.19679 10.2031 2.63117 9.70368 3.20624C9.3116 3.64881 8.94566 4.34819 8.94566 5.05712C8.94566 5.16367 8.96354 5.27021 8.9718 5.30436C9.01582 5.31256 9.08736 5.32212 9.1589 5.32212C9.78348 5.32212 10.569 4.90687 11.023 4.34819Z" fill="currentColor"/>
</svg>
