<svg width="18" height="18" fill="none" xmlns="http://www.w3.org/2000/svg"><g clip-path="url(#clip0_489_196506)"><g clip-path="url(#clip1_489_196506)"><path d="M3.5 10c0 2.974 2.462 5.5 5.5 5.5s5.5-2.525 5.5-5.5c0-2.974-2.462-5.5-5.5-5.5H4m0 0l2.072-2M4 4.5l2.072 2" stroke="currentColor" stroke-linecap="round" stroke-linejoin="round"/></g><path d="M10.5 8.115H7.988l-.484 2.62c.484-.318.996-.537 1.496-.537s1.5-.083 1.5 1.302S9.677 13 9 13s-1.5.048-1.5-.785" stroke="currentColor" stroke-width=".5" stroke-linecap="round" stroke-linejoin="round"/></g><defs><clipPath id="clip0_489_196506"><path fill="currentColor" transform="matrix(-1 0 0 1 18 0)" d="M0 0H18V18H0z"/></clipPath><clipPath id="clip1_489_196506"><path fill="currentColor" transform="matrix(-1 0 0 1 18 0)" d="M0 0H18V18H0z"/></clipPath></defs></svg>