<svg width="18" height="18" fill="none" xmlns="http://www.w3.org/2000/svg"><g clip-path="url(#clip0_489_196570)"><g clip-path="url(#clip1_489_196570)"><path d="M3.5 10c0 2.974 2.462 5.5 5.5 5.5s5.5-2.525 5.5-5.5c0-2.974-2.462-5.5-5.5-5.5H4m0 0l2.072-2M4 4.5l2.072 2" stroke="currentColor" stroke-linecap="round" stroke-linejoin="round"/></g><path d="M8.5 12h-2L8 10c1.5-2-1.5-2.5-1.5-1m3.375 1c0-1.54.313-2 .938-2 .624 0 .937.54.937 2s-.313 2-.938 2c-.624 0-.937-.46-.937-2z" stroke="currentColor" stroke-width=".5" stroke-linecap="round" stroke-linejoin="round"/></g><defs><clipPath id="clip0_489_196570"><path fill="currentColor" transform="matrix(-1 0 0 1 18 0)" d="M0 0H18V18H0z"/></clipPath><clipPath id="clip1_489_196570"><path fill="currentColor" transform="matrix(-1 0 0 1 18 0)" d="M0 0H18V18H0z"/></clipPath></defs></svg>