<svg width="18" height="18" fill="none" xmlns="http://www.w3.org/2000/svg"><g clip-path="url(#clip0_489_196528)"><g clip-path="url(#clip1_489_196528)"><path d="M3.5 10c0 2.974 2.462 5.5 5.5 5.5s5.5-2.525 5.5-5.5c0-2.974-2.462-5.5-5.5-5.5H4m0 0l2.072-2M4 4.5l2.072 2" stroke="currentColor" stroke-linecap="round" stroke-linejoin="round"/></g><path d="M7.517 12V8L6.5 9m5-1H9.3l-.424 2.095c.424-.254.529-.428 1.353-.428S11.5 10 11.5 11s-.825 1-1.271 1c-.447 0-1.356 0-1.356-.667" stroke="currentColor" stroke-width=".5" stroke-linecap="round" stroke-linejoin="round"/></g><defs><clipPath id="clip0_489_196528"><path fill="currentColor" transform="matrix(-1 0 0 1 18 0)" d="M0 0H18V18H0z"/></clipPath><clipPath id="clip1_489_196528"><path fill="currentColor" transform="matrix(-1 0 0 1 18 0)" d="M0 0H18V18H0z"/></clipPath></defs></svg>