<svg width="18" height="18" fill="none" xmlns="http://www.w3.org/2000/svg"><g clip-path="url(#clip0_489_197275)"><path d="M6.333 2.5v4.122c0 .188 0 .283-.017.375-.017.092-.052.18-.12.355L4.07 12.77c-.486 1.238-.729 1.857-.43 2.293.297.437.962.437 2.292.437h6.134c1.33 0 1.995 0 2.293-.437.298-.436.055-1.055-.43-2.293l-2.125-5.418c-.07-.175-.104-.263-.12-.355-.018-.092-.018-.187-.018-.375V2.5m1.222 8.056H5.11M13 2.5H5" stroke="currentColor" stroke-linecap="round" stroke-linejoin="round"/></g><defs><clipPath id="clip0_489_197275"><path fill="currentColor" d="M0 0H18V18H0z"/></clipPath></defs></svg>