<svg width="18" height="18" fill="none" xmlns="http://www.w3.org/2000/svg"><g clip-path="url(#clip0_489_197301)"><path d="M3 2a.5.5 0 0 0 0 1V2zm7.5.5V3h.013l-.013-.5zm.364 6.5l-.049-.498a.5.5 0 0 0 .032.997l.017-.5zM3 15a.5.5 0 1 0 0 1v-1zm2.91.5v.5-.5zm4.62 0l-.007.5.007-.5zm-.063 0v.5-.5zm.019 0l-.004.5.004-.5zm.014-13l.012.5h.001a.56.56 0 0 1 .037 0l.125.001c.11.003.269.01.46.028a6.41 6.41 0 0 1 1.39.28c.5.165.963.408 1.296.756.321.335.543.788.543 1.435h1c0-.909-.324-1.608-.821-2.127-.486-.507-1.114-.819-1.704-1.014A7.89 7.89 0 0 0 10.493 2h-.005l.012.5zm3.864 3c0 1.285-.806 2.023-1.719 2.467a5.964 5.964 0 0 1-1.685.515 3.904 3.904 0 0 1-.14.02h-.005l.049.498.048.497h.006a1.654 1.654 0 0 0 .052-.006c.033-.005.081-.01.141-.02a6.962 6.962 0 0 0 1.971-.605c1.088-.528 2.282-1.54 2.282-3.366h-1zm-3.5 3.5l-.018.5h.006a1.976 1.976 0 0 1 .138.01c.098.009.242.025.415.055.349.059.806.168 1.257.367.893.393 1.702 1.098 1.702 2.457h1c0-1.895-1.192-2.885-2.299-3.372a6.41 6.41 0 0 0-1.493-.438 6.553 6.553 0 0 0-.685-.079h-.004-.001-.001l-.017.5zm3.5 3.39c0 .656-.206 1.122-.503 1.466-.304.354-.728.607-1.197.784-.946.358-1.953.363-2.127.36l-.014 1c.21.003 1.37 0 2.495-.425.566-.214 1.153-.546 1.601-1.067.457-.53.745-1.228.745-2.119h-1zM10.467 15H5.91v1h4.558v-1zM5.91 15H3v1h2.91v-1zM3 3h2.91V2H3v1zm2.91 0h4.59V2H5.91v1zm.5 12.5v-13h-1v13h1zm4.127-.5h-.048l-.007 1h.041l.014-1zm-.07 1h.015l.007-1h-.022v1z" fill="currentColor"/></g><defs><clipPath id="clip0_489_197301"><path fill="currentColor" d="M0 0H18V18H0z"/></clipPath></defs></svg>