<svg width="18" height="18" fill="none" xmlns="http://www.w3.org/2000/svg"><path d="M2.5 4.5c0-.943 0-1.414.293-1.707C3.086 2.5 3.557 2.5 4.5 2.5h5c.943 0 1.414 0 1.707.293.293.293.293.764.293 1.707v5c0 .943 0 1.414-.293 1.707-.293.293-.764.293-1.707.293h-5c-.943 0-1.414 0-1.707-.293C2.5 10.914 2.5 10.443 2.5 9.5v-5z" fill="currentColor" stroke="currentColor"/><path d="M6.5 8.5c0-.943 0-1.414.293-1.707C7.086 6.5 7.557 6.5 8.5 6.5h5c.943 0 1.414 0 1.707.293.293.293.293.764.293 1.707v5c0 .943 0 1.414-.293 1.707-.293.293-.764.293-1.707.293h-5c-.943 0-1.414 0-1.707-.293-.293-.293-.293-.764-.293-1.707v-5z" fill="currentColor" stroke="currentColor"/></svg>