<svg width="18" height="18" fill="none" xmlns="http://www.w3.org/2000/svg"><path d="M6.5 8.5c0-.943 0-1.414.293-1.707C7.086 6.5 7.557 6.5 8.5 6.5h5c.943 0 1.414 0 1.707.293.293.293.293.764.293 1.707v5c0 .943 0 1.414-.293 1.707-.293.293-.764.293-1.707.293h-5c-.943 0-1.414 0-1.707-.293-.293-.293-.293-.764-.293-1.707v-5z" stroke="currentColor"/><path fill-rule="evenodd" clip-rule="evenodd" d="M11.5 6.5v3c0 .943 0 1.414-.293 1.707-.293.293-.764.293-1.707.293h-3v-3c0-.943 0-1.414.293-1.707C7.086 6.5 7.557 6.5 8.5 6.5h3z" fill="currentColor"/><path d="M11.5 6.5h.5V6h-.5v.5zm-5 5H6v.5h.5v-.5zm4.5-5v3h1v-3h-1zm0 3c0 .486-.001.8-.032 1.03-.03.218-.076.286-.114.324l.707.707c.255-.255.354-.57.398-.897C12 10.35 12 9.957 12 9.5h-1zm-.146 1.354c-.038.038-.106.085-.323.114-.232.03-.545.032-1.031.032v1c.457 0 .85.001 1.164-.041.328-.044.642-.143.897-.398l-.707-.707zM9.5 11h-3v1h3v-1zm-2.5.5v-3H6v3h1zm0-3c0-.486.001-.8.032-1.03.03-.218.076-.285.114-.324L6.44 6.44c-.254.255-.354.57-.398.897C6 7.65 6 8.043 6 8.5h1zm.146-1.354c.039-.038.106-.085.323-.114C7.701 7.002 8.014 7 8.5 7V6c-.457 0-.85-.001-1.164.041-.328.044-.642.144-.897.398l.707.707zM8.5 7h3V6h-3v1z" fill="currentColor"/><path d="M2.5 4.5c0-.943 0-1.414.293-1.707C3.086 2.5 3.557 2.5 4.5 2.5h5c.943 0 1.414 0 1.707.293.293.293.293.764.293 1.707v5c0 .943 0 1.414-.293 1.707-.293.293-.764.293-1.707.293h-5c-.943 0-1.414 0-1.707-.293C2.5 10.914 2.5 10.443 2.5 9.5v-5z" stroke="currentColor"/></svg>