<svg width="18" height="18" fill="none" xmlns="http://www.w3.org/2000/svg"><g clip-path="url(#clip0_489_197822)" stroke="currentColor"><path d="M15.5 7.143h-13M12.714 2.5v2.786M5.286 2.5v2.786M7.5 15.5h-1c-1.886 0-2.828 0-3.414-.586C2.5 14.328 2.5 13.386 2.5 11.5V7.893c0-1.886 0-2.829.586-3.414.586-.586 1.529-.586 3.415-.586h4.998c1.886 0 2.83 0 3.415.586.586.585.586 1.528.586 3.414V8" stroke-linecap="round" stroke-linejoin="round"/><path d="M16 13a3 3 0 1 1-6 0 3 3 0 0 1 6 0z"/><path d="M13 12v1h1" stroke-linecap="round" stroke-linejoin="round"/></g><defs><clipPath id="clip0_489_197822"><path fill="currentColor" d="M0 0H18V18H0z"/></clipPath></defs></svg>