<svg width="18" height="18" fill="none" xmlns="http://www.w3.org/2000/svg"><g clip-path="url(#clip0_489_197918)" stroke="currentColor"><path d="M15.171 6.47a6.016 6.016 0 0 0-3.707-3.708c-.75-.26-1.124-.389-1.544-.09-.42.3-.42.787-.42 1.761v2c0 .943 0 1.415.293 1.708.293.292.764.292 1.707.292h2c.975 0 1.462 0 1.761-.42.3-.42.17-.794-.09-1.543z" stroke-linejoin="round"/><path d="M15.187 11A6.5 6.5 0 1 1 7 2.813" stroke-linecap="round"/></g><defs><clipPath id="clip0_489_197918"><path fill="currentColor" d="M0 0H18V18H0z"/></clipPath></defs></svg>