<svg width="18" height="18" fill="none" xmlns="http://www.w3.org/2000/svg"><path d="M10 14h3.5c.943 0 1.414 0 1.707-.293.293-.293.293-.764.293-1.707V6c0-.943 0-1.414-.293-1.707C14.914 4 14.443 4 13.5 4h-9c-.943 0-1.414 0-1.707.293C2.5 4.586 2.5 5.057 2.5 6v.5" stroke="currentColor" stroke-linecap="round"/><path d="M3.263 13.845a.643.643 0 0 1-.631.655.643.643 0 0 1-.632-.655c0-.361.283-.654.632-.654.348 0 .631.293.631.654z" fill="currentColor"/><path d="M7.684 14c0-2.892-2.262-5.237-5.052-5.237m0 2.619c1.395 0 2.526 1.172 2.526 2.618" stroke="currentColor" stroke-linecap="round" stroke-linejoin="round"/></svg>