<svg width="18" height="18" fill="none" xmlns="http://www.w3.org/2000/svg"><g clip-path="url(#clip0_489_198440)"><path d="M6.4 6.4h5.2m-5.2 0v5.2m0-5.2V4.45a1.95 1.95 0 0 0-3.9 0A1.95 1.95 0 0 0 4.45 6.4H6.4zm5.2 0v5.2m0-5.2V4.45a1.95 1.95 0 1 1 3.9 0 1.95 1.95 0 0 1-1.95 1.95H11.6zm-5.2 5.2h5.2m-5.2 0H4.45a1.95 1.95 0 0 0 0 3.9 1.95 1.95 0 0 0 1.95-1.95V11.6zm5.2 0h1.95a1.95 1.95 0 0 1 0 3.9 1.95 1.95 0 0 1-1.95-1.95V11.6z" stroke="currentColor"/></g><defs><clipPath id="clip0_489_198440"><path fill="currentColor" d="M0 0H18V18H0z"/></clipPath></defs></svg>