<svg width="18" height="18" fill="none" xmlns="http://www.w3.org/2000/svg"><g clip-path="url(#clip0_489_198535)" stroke="currentColor" stroke-linecap="round" stroke-linejoin="round"><path d="M2.5 6.5c0-.943 0-1.414.293-1.707C3.086 4.5 3.557 4.5 4.5 4.5h9c.943 0 1.414 0 1.707.293.293.293.293.764.293 1.707v5c0 .943 0 1.414-.293 1.707-.293.293-.764.293-1.707.293h-9c-.943 0-1.414 0-1.707-.293-.293-.293-.293-.764-.293-1.707v-5z"/><path d="M2.5 7.5L15.5 7.5"/><path d="M5 11h4"/></g><defs><clipPath id="clip0_489_198535"><path fill="currentColor" d="M0 0H18V18H0z"/></clipPath></defs></svg>