<svg width="18" height="18" fill="none" xmlns="http://www.w3.org/2000/svg"><g clip-path="url(#clip0_489_198657)" stroke="currentColor"><path d="M7.5 8.5h-3c-.943 0-1.414 0-1.707.293-.293.293-.293.764-.293 1.707v3c0 .943 0 1.414.293 1.707.293.293.764.293 1.707.293h3c.943 0 1.414 0 1.707-.293.293-.293.293-.764.293-1.707v-3c0-.943 0-1.414-.293-1.707C8.914 8.5 8.443 8.5 7.5 8.5z"/><path d="M4.5 6V4.5c0-.943 0-1.414.293-1.707C5.086 2.5 5.557 2.5 6.5 2.5H8M15.5 6V4.5c0-.943 0-1.414-.293-1.707-.293-.293-.764-.293-1.707-.293H12m3.5 7.5v1.5c0 .943 0 1.414-.293 1.707-.293.293-.764.293-1.707.293H12" stroke-linecap="round" stroke-linejoin="round"/></g><defs><clipPath id="clip0_489_198657"><path fill="currentColor" d="M0 0H18V18H0z"/></clipPath></defs></svg>