<svg width="18" height="18" fill="none" xmlns="http://www.w3.org/2000/svg"><g clip-path="url(#clip0_489_198669)" stroke="currentColor"><path d="M4.5 4.5v9c0 .943 0 1.414.293 1.707.293.293.764.293 1.707.293h5c.943 0 1.414 0 1.707-.293.293-.293.293-.764.293-1.707V6.26c0-.418 0-.626-.079-.813-.079-.187-.228-.332-.528-.622l-1.811-1.76c-.287-.279-.43-.418-.612-.492-.18-.073-.38-.073-.781-.073H6.5c-.943 0-1.414 0-1.707.293C4.5 3.086 4.5 3.557 4.5 4.5z"/><path d="M10.5 3v1c0 .943 0 1.414.293 1.707C11.086 6 11.557 6 12.5 6h1"/></g><defs><clipPath id="clip0_489_198669"><path fill="currentColor" d="M0 0H18V18H0z"/></clipPath></defs></svg>