<svg width="18" height="18" fill="none" xmlns="http://www.w3.org/2000/svg"><g clip-path="url(#clip0_489_198681)"><g clip-path="url(#clip1_489_198681)" stroke="currentColor"><path d="M4.5 4.5v9c0 .943 0 1.414.293 1.707.293.293.764.293 1.707.293h5c.943 0 1.414 0 1.707-.293.293-.293.293-.764.293-1.707V6.26c0-.418 0-.626-.079-.813-.079-.187-.228-.332-.528-.622l-1.811-1.76c-.287-.279-.43-.418-.612-.492-.18-.073-.38-.073-.781-.073H6.5c-.943 0-1.414 0-1.707.293C4.5 3.086 4.5 3.557 4.5 4.5z"/><path d="M10.5 3v1c0 .943 0 1.414.293 1.707C11.086 6 11.557 6 12.5 6h1"/></g><path d="M7.6 8.5a.5.5 0 0 0 0-1v1zm0 5a.5.5 0 0 0 0-1v1zm2.8-6a.5.5 0 0 0 0 1v-1zm0 5a.5.5 0 0 0 0 1v-1zm.6-1.236h-.5.5zm0-1.528h-.5.5zM11 8.5h-.5.5zM7 9.736h-.5.5zM7.6 7.5h-.1v1h.1v-1zm-1.1 1v1.236h1V8.5h-1zm0 2.764V12.5h1v-1.236h-1zm1 2.236H7.6v-1h-.001-.001-.001-.006-.001-.001-.001-.001-.001-.001-.001-.001-.001-.001-.001-.001-.001-.001-.001-.001-.001-.001-.001-.001-.001-.001-.001-.001-.001-.001-.001-.006-.001-.001-.001-.001-.001-.001-.001-.004-.001-.001-.001-.004-.001-.001-.004-.001-.001-.003-.001-.001-.002-.001-.001-.002-.001-.001-.002-.001-.001-.002-.001-.002-.001-.002-.001-.002-.001H7.5v1zm2.9-5h.1v-1h-.1v1zm.1 0v1.236h1V8.5h-1zm0 2.764V12.5h1v-1.236h-1zm0 1.236h-.1v1h.1v-1zm.512-2.065a.927.927 0 0 0-.512.829h1a.073.073 0 0 1-.04.065l-.448-.894zm0 .13a.078.078 0 0 1-.03-.03.07.07 0 0 1-.01-.035.07.07 0 0 1 .01-.036.078.078 0 0 1 .03-.03l.448.895a.927.927 0 0 0 0-1.658l-.448.894zm-.512-.829c0 .351.198.672.512.83l.448-.895c.024.012.04.037.04.065h-1zm0-1.236h1a1 1 0 0 0-1-1v1zm-4 4a1 1 0 0 0 1 1v-1h-1zm.04-1.17a.073.073 0 0 1-.04-.066h1a.927.927 0 0 0-.512-.83l-.448.895zm0-1.66a.927.927 0 0 0 0 1.66l.448-.895a.078.078 0 0 1 .04.065.078.078 0 0 1-.04.065l-.448-.894zm-.04.066c0-.028.016-.053.04-.065l.448.894a.927.927 0 0 0 .512-.829h-1zm4 2.764v1a1 1 0 0 0 1-1h-1zm-3-5a1 1 0 0 0-1 1h1v-1z" fill="currentColor"/></g><defs><clipPath id="clip0_489_198681"><path fill="currentColor" d="M0 0H18V18H0z"/></clipPath><clipPath id="clip1_489_198681"><path fill="currentColor" d="M0 0H18V18H0z"/></clipPath></defs></svg>