<svg width="18" height="18" fill="none" xmlns="http://www.w3.org/2000/svg"><g clip-path="url(#clip0_489_198751)"><g clip-path="url(#clip1_489_198751)" stroke="currentColor"><path d="M4.5 4.5v9c0 .943 0 1.414.293 1.707.293.293.764.293 1.707.293h5c.943 0 1.414 0 1.707-.293.293-.293.293-.764.293-1.707V6.26c0-.418 0-.626-.079-.813-.079-.187-.228-.332-.528-.622l-1.811-1.76c-.287-.279-.43-.418-.612-.492-.18-.073-.38-.073-.781-.073H6.5c-.943 0-1.414 0-1.707.293C4.5 3.086 4.5 3.557 4.5 4.5z"/><path d="M10.5 3v1c0 .943 0 1.414.293 1.707C11.086 6 11.557 6 12.5 6h1"/></g><path d="M7.758 7.965l-.243-.438.243.438zm0 4.07L8 11.598l-.242.437zm2.385-1.187l-.265-.424.265.424zM8.765 8.88l1.113.696.53-.848-1.113-.696-.53.848zm1.113 1.544l-1.113.696.53.848 1.113-.696-.53-.848zM8 10.696V9.304H7v1.392h1zm1.295-2.664c-.324-.202-.615-.386-.858-.492-.246-.107-.585-.2-.922-.013L8 8.402c-.08.044-.12-.014.037.055.159.07.375.203.728.423l.53-.848zM8 9.304c0-.416.001-.67.027-.842.025-.17.053-.104-.027-.06l-.485-.875c-.337.187-.438.523-.477.789-.04.262-.038.606-.038.988h1zm.765 1.816c-.353.22-.569.354-.728.423-.157.069-.117.01-.037.055l-.485.874c.337.187.676.095.922-.012.243-.106.534-.29.858-.492l-.53-.848zM7 10.696c0 .382-.001.726.038.988.039.266.14.602.477.789L8 11.598c.08.044.052.11.027-.06C8 11.366 8 11.112 8 10.696H7zm2.878-1.12c.319.2.509.32.626.42.111.094.053.084.053.004h1c0-.357-.211-.601-.404-.766-.188-.16-.455-.325-.745-.506l-.53.848zm.53 1.696c.29-.181.557-.347.745-.506.193-.165.404-.409.404-.766h-1c0-.08.058-.09-.053.005-.117.1-.307.22-.626.419l.53.848z" fill="currentColor"/></g><defs><clipPath id="clip0_489_198751"><path fill="currentColor" d="M0 0H18V18H0z"/></clipPath><clipPath id="clip1_489_198751"><path fill="currentColor" d="M0 0H18V18H0z"/></clipPath></defs></svg>