<svg width="18" height="18" fill="none" xmlns="http://www.w3.org/2000/svg"><g clip-path="url(#clip0_489_198704)"><g clip-path="url(#clip1_489_198704)" stroke="currentColor"><path d="M4.5 4.5v9c0 .943 0 1.414.293 1.707.293.293.764.293 1.707.293h5c.943 0 1.414 0 1.707-.293.293-.293.293-.764.293-1.707V6.26c0-.418 0-.626-.079-.813-.079-.187-.228-.332-.528-.622l-1.811-1.76c-.287-.279-.43-.418-.612-.492-.18-.073-.38-.073-.781-.073H6.5c-.943 0-1.414 0-1.707.293C4.5 3.086 4.5 3.557 4.5 4.5z"/><path d="M10.5 3v1c0 .943 0 1.414.293 1.707C11.086 6 11.557 6 12.5 6h1"/></g><path d="M8.622 10.67a.46.46 0 0 0 .025.683.543.543 0 0 0 .731-.024l-.756-.658zm.464 2.119c.17.213.495.257.723.098a.462.462 0 0 0 .105-.676l-.828.578zm-.106-.938l-.414.288.414-.288zm4.007-1.546l.41-.294-.41.294zm-.41.294l.513.623.82-.588-.513-.623-.82.588zm-3.199.73l.835-.835-.755-.659-.836.836.756.658zm-4.5 2l1.312-1.312-.756-.658-1.312 1.312.756.658zm3.688-1.19l.52.65.828-.578-.52-.65-.828.578zm-2.376-.121c.402-.403.666-.666.887-.831.21-.158.304-.17.363-.166l.057-.964c-.424-.021-.766.15-1.069.378-.291.22-.614.544-.994.924l.756.659zm3.205-.456c-.334-.417-.616-.772-.88-1.02-.274-.257-.595-.463-1.018-.485l-.057.964c.06.003.152.024.342.202.2.187.432.475.784.916l.829-.577zm4.002-1.55c-.336-.408-.62-.755-.885-.997-.275-.251-.595-.451-1.014-.47l-.05.964c.06.002.151.022.341.196.2.182.433.463.788.894l.82-.588zm-3.184.482c.398-.397.659-.657.876-.82.207-.156.3-.168.36-.165l.049-.964c-.42-.019-.758.152-1.058.377-.288.217-.607.538-.982.913l.755.659zM8.5 6a1 1 0 1 1-2 0 1 1 0 0 1 2 0z" fill="currentColor"/></g><defs><clipPath id="clip0_489_198704"><path fill="currentColor" d="M0 0H18V18H0z"/></clipPath><clipPath id="clip1_489_198704"><path fill="currentColor" d="M0 0H18V18H0z"/></clipPath></defs></svg>