<svg width="18" height="18" fill="none" xmlns="http://www.w3.org/2000/svg"><path d="M2.5 5.5c0-.943 0-1.414.293-1.707C3.086 3.5 3.557 3.5 4.5 3.5h9c.943 0 1.414 0 1.707.293.293.293.293.764.293 1.707v7c0 .943 0 1.414-.293 1.707-.293.293-.764.293-1.707.293h-9c-.943 0-1.414 0-1.707-.293-.293-.293-.293-.764-.293-1.707v-7z" stroke="currentColor" stroke-linecap="round" stroke-linejoin="round"/><path d="M5.5 3.5V7m0 7V9m7-5.5V7m0 7v-3M2.25 7H5.5m0 0v2m0 0h7m0 0V7m0 2v2M2.25 11H5.5m7 0h3.25M12.5 7h3.25" stroke="currentColor"/></svg>