<svg width="18" height="18" fill="none" xmlns="http://www.w3.org/2000/svg"><g clip-path="url(#clip0_489_199103)"><path d="M5 15.5v-7m0 0v-4c0-.943 0-1.414.293-1.707C5.586 2.5 6.057 2.5 7 2.5h4.865c.924 0 1.385 0 1.52.288s-.16.643-.752 1.352l-.6.72c-.255.306-.382.459-.382.64s.127.334.383.64l.6.72c.59.71.886 1.064.751 1.352-.135.288-.596.288-1.52.288H5z" stroke="currentColor" stroke-linecap="round" stroke-linejoin="round"/></g><defs><clipPath id="clip0_489_199103"><path fill="currentColor" transform="matrix(-1 0 0 1 18 0)" d="M0 0H18V18H0z"/></clipPath></defs></svg>