<svg width="18" height="18" fill="none" xmlns="http://www.w3.org/2000/svg"><g clip-path="url(#clip0_489_199370)" stroke="currentColor"><path d="M13.5 2.5h-9c-.943 0-1.414 0-1.707.293C2.5 3.086 2.5 3.557 2.5 4.5v9c0 .943 0 1.414.293 1.707.293.293.764.293 1.707.293h9c.943 0 1.414 0 1.707-.293.293-.293.293-.764.293-1.707v-9c0-.943 0-1.414-.293-1.707-.293-.293-.764-.293-1.707-.293z"/><path d="M9 3v12M6 3v12m6-12v12m3-6H3m12-3H3m12 6H3" stroke-width=".5" stroke-linecap="round"/></g><defs><clipPath id="clip0_489_199370"><path fill="currentColor" d="M0 0H18V18H0z"/></clipPath></defs></svg>