<svg width="18" height="18" fill="none" xmlns="http://www.w3.org/2000/svg"><path fill-rule="evenodd" clip-rule="evenodd" d="M4.162 8.262C4.684 6.397 6.436 5 9.012 5c1.176 0 2.19.49 2.978 1.129.795.643 1.322 1.407 1.525 1.877.142.328.332.606.5.832.066.089.124.165.176.232.094.121.166.216.227.312a.886.886 0 0 1 .048.085.971.971 0 0 1-.164.098c-.462.231-1.14.364-1.987.431-.835.067-1.774.068-2.739.068h-.01L9.5 10.06l-.244-.017c-.209-.015-.5-.04-.827-.08-.667-.08-1.444-.212-1.999-.419a8.608 8.608 0 0 1-2.269-1.282zm-.161 1.122L4 9.461c0 .559 0 .968.024 1.294.024.324.07.522.137.667.124.27.375.479 1.216.9.251.125.508.118.817-.01.327-.136.673-.393 1.045-.714.134-.116.281-.25.43-.385h.001l.33-.297c-.623-.086-1.345-.221-1.918-.435A9.594 9.594 0 0 1 4 9.384zM9.013 4C5.419 4 3 6.414 3 9.46v.018c0 .537 0 .983.027 1.35.028.373.086.71.226 1.012.29.627.865.969 1.677 1.375.576.288 1.147.227 1.647.019.483-.2.93-.547 1.315-.88.182-.157.342-.303.493-.44.198-.181.38-.347.571-.501.157-.127.29-.22.403-.28a.488.488 0 0 1 .205-.07h.012c.956 0 1.937 0 2.818-.07.876-.07 1.714-.214 2.355-.534.313-.157.614-.383.707-.746.091-.36-.07-.67-.19-.863-.087-.138-.209-.296-.32-.441-.046-.06-.09-.116-.129-.169a3.196 3.196 0 0 1-.384-.632c-.273-.633-.906-1.523-1.813-2.257C11.706 4.612 10.477 4 9.012 4z" fill="currentColor"/></svg>