<svg width="18" height="18" fill="none" xmlns="http://www.w3.org/2000/svg"><path d="M10.808 10.551s-2.081-.094-3.308-.55c-1.654-.617-2.756-1.655-2.756-1.655" stroke="currentColor"/><path d="M15.5 10.013c-1.102.55-3.032.55-4.961.55-1.103 0-2.757 3.033-4.41 2.206-1.654-.827-1.654-1.103-1.654-3.308 0-2.74 2.163-4.961 5.512-4.961 2.64 0 4.486 2.205 4.962 3.308.476 1.102 1.654 1.653.551 2.205z" stroke="currentColor"/><path d="M3 5.5l.5.5m-1 2.5H3m-.5 3H3" stroke="currentColor" stroke-linecap="round"/></svg>