<svg width="18" height="18" fill="none" xmlns="http://www.w3.org/2000/svg"><g clip-path="url(#clip0_489_199975)"><path d="M9 9.5h3c.978 0 1.467 0 1.762-.458.296-.458.14-.8-.17-1.485C12.827 5.862 11.059 4.805 9 4.805M9 9.5H7.5m1.5 0h1.5c0 1.083 0 2-1.5 2s-1.5-.917-1.5-2M9 4.805c-2.058 0-3.826 1.057-4.593 2.752-.31.685-.465 1.027-.17 1.485.296.458.785.458 1.763.458h1.5M9 4.805V2.5M5.071 14.916l1.072-1.444M9 15.5V14m3.929.916l-1.072-1.444" stroke="currentColor" stroke-linecap="round" stroke-linejoin="round"/></g><defs><clipPath id="clip0_489_199975"><path fill="currentColor" d="M0 0H18V18H0z"/></clipPath></defs></svg>