<svg width="18" height="18" fill="none" xmlns="http://www.w3.org/2000/svg"><path d="M2.124 11.67a.5.5 0 0 0 .752.66l-.752-.66zM15.5 6h.5a.5.5 0 0 0-.5-.5V6zm-3-.5a.5.5 0 0 0 0 1v-1zM15 9a.5.5 0 0 0 1 0h-1zm-5.01 2.554l-.01-.5.01.5zm-3.975-3.09L6 7.963l.016.5zm-3.139 3.865L4.97 9.94l-.753-.66-2.092 2.392.752.658zm4.282-2.464l1.011 1.011.708-.707-1.012-1.01-.707.706zm4.622.933l4.089-4.46-.738-.676-4.088 4.46.737.676zM15.5 5.5h-3v1h3v-1zM15 6v3h1V6h-1zm-6.83 4.877c.336.336.624.626.884.823.272.207.575.362.947.354l-.022-1c-.054.001-.138-.012-.32-.15-.193-.147-.425-.378-.782-.735l-.708.707zm2.873-.755c-.341.373-.563.613-.75.768-.175.146-.259.163-.314.164l.022 1c.372-.008.668-.176.93-.395.252-.208.527-.51.85-.86l-.738-.677zm-6.074-.184c.339-.388.56-.64.747-.802.177-.153.26-.171.316-.173l-.033-1c-.379.013-.676.19-.938.418-.251.218-.525.533-.845.899l.753.658zm2.896-.78c-.344-.344-.637-.639-.903-.84-.276-.21-.585-.367-.963-.354l.033 1c.055-.003.14.01.326.151.198.15.436.386.8.75l.707-.707z" fill="currentColor"/></svg>