<svg width="18" height="18" fill="none" xmlns="http://www.w3.org/2000/svg"><g clip-path="url(#clip0_489_200146)"><path d="M12.5 8h-7c-.943 0-1.414 0-1.707.293C3.5 8.586 3.5 9.057 3.5 10v3.5c0 .943 0 1.414.293 1.707.293.293.764.293 1.707.293h7c.943 0 1.414 0 1.707-.293.293-.293.293-.764.293-1.707V10c0-.943 0-1.414-.293-1.707C13.914 8 13.443 8 12.5 8zm-6-.5V5c0-1.875.519-2.5 2.5-2.5 1.981 0 2.5.625 2.5 2.5v2.5" stroke="currentColor"/></g><defs><clipPath id="clip0_489_200146"><path fill="currentColor" d="M0 0H18V18H0z"/></clipPath></defs></svg>