<svg width="18" height="18" fill="none" xmlns="http://www.w3.org/2000/svg"><path d="M13.786 15.281L8.242 9.707a1.055 1.055 0 1 1 1.504-1.48l5.48 5.638a1.01 1.01 0 0 1-1.44 1.416z" stroke="currentColor" stroke-linecap="round"/><path d="M12.53 11.47a.75.75 0 1 0-1.06 1.06l1.06-1.06zm-1.06 1.06l3 3 1.06-1.06-3-3-1.06 1.06z" fill="currentColor"/><path d="M7.158 2v2.21M6.053 3.106h2.21m-5.158 2.21v2.211M2 6.421h2.21" stroke="currentColor" stroke-width=".8" stroke-linecap="round"/><path d="M4.579 12.684v2.948m-1.474-1.474h2.948m8.105-11.053v2.948m-1.474-1.474h2.948" stroke="currentColor" stroke-linecap="round"/></svg>