<svg width="18" height="18" fill="none" xmlns="http://www.w3.org/2000/svg"><g clip-path="url(#clip0_489_200319)"><path d="M4.155 12.156l-.331.374.331-.374zm2.678 1.424l-.135.481.135-.481zm-3.52 1.66l-.237.44a.504.504 0 0 0 .073.033l.163-.472zM15 8.626c0 1.492-.65 2.694-1.714 3.536C12.213 13.009 10.704 13.5 9 13.5v1c1.886 0 3.627-.543 4.906-1.555C15.196 11.925 16 10.44 16 8.625h-1zm-12 0c0-2.446 2.545-4.462 6-4.462v-1c-3.725 0-7 2.218-7 5.462h1zm6-4.462c1.727 0 3.241.399 4.309 1.15C14.357 6.048 15 7.14 15 8.624h1c0-1.823-.812-3.214-2.116-4.13C12.599 3.59 10.863 3.162 9 3.162v1zM4.487 11.78C3.554 10.956 3 9.788 3 8.625H2c0 1.475.697 2.908 1.824 3.905l.663-.749zM9 13.5c-.675 0-1.326-.204-2.032-.402l-.27.963c.65.182 1.457.439 2.302.439v-1zm-2.032-.402c-.26-.073-.488.028-.611.096a2.42 2.42 0 0 0-.39.284c-.12.104-.253.226-.381.345-.133.121-.268.244-.41.362-.6.498-1.15.773-1.7.583l-.327.945c1.104.382 2.05-.247 2.666-.76.162-.134.313-.27.447-.393.137-.127.252-.234.357-.323a1.51 1.51 0 0 1 .22-.167c.058-.032-.012.027-.14-.009l.27-.963zM3.55 14.8c.204.11.187.306.187.263 0-.02.01-.086.05-.212a9.85 9.85 0 0 1 .373-.922c.15-.342.32-.72.425-1.031.053-.154.1-.323.116-.48.012-.117.028-.423-.213-.637l-.663.75c-.153-.136-.11-.294-.119-.212a1.33 1.33 0 0 1-.067.257c-.088.26-.235.589-.394.949-.152.343-.317.72-.413 1.029-.047.15-.091.324-.094.489-.003.142.024.469.339.638l.473-.88z" fill="currentColor"/></g><defs><clipPath id="clip0_489_200319"><path fill="currentColor" d="M0 0H18V18H0z"/></clipPath></defs></svg>