<svg width="18" height="18" fill="none" xmlns="http://www.w3.org/2000/svg"><g clip-path="url(#clip0_489_200476)"><path d="M9 2.5v3m4 6v-5c0-1.886 0-2.828-.586-3.414C11.828 2.5 10.886 2.5 9 2.5c-1.886 0-2.828 0-3.414.586C5 3.672 5 4.614 5 6.5v5c0 1.886 0 2.828.586 3.414.586.586 1.528.586 3.414.586 1.886 0 2.828 0 3.414-.586C13 14.328 13 13.386 13 11.5z" stroke="currentColor" stroke-linecap="round" stroke-linejoin="round"/></g><defs><clipPath id="clip0_489_200476"><path fill="currentColor" d="M0 0H18V18H0z"/></clipPath></defs></svg>