<svg width="18" height="18" fill="none" xmlns="http://www.w3.org/2000/svg"><g clip-path="url(#clip0_489_201163)" stroke="currentColor"><path d="M14 2H4c-.943 0-1.414 0-1.707.293C2 2.586 2 3.057 2 4v10c0 .943 0 1.414.293 1.707C2.586 16 3.057 16 4 16h10c.943 0 1.414 0 1.707-.293C16 15.414 16 14.943 16 14V4c0-.943 0-1.414-.293-1.707C15.414 2 14.943 2 14 2z"/><path d="M9 11.5L7.031 9.531c-.717-.717-1.075-1.075-1.515-1.06-.44.014-.774.395-1.44 1.157L2 12m14-2.5l-2.574-2.895c-.668-.752-1.002-1.128-1.44-1.14-.438-.013-.794.343-1.505 1.054L7.5 9.5" stroke-linecap="round" stroke-linejoin="round"/></g><defs><clipPath id="clip0_489_201163"><path fill="currentColor" d="M0 0H18V18H0z"/></clipPath></defs></svg>