<svg width="18" height="18" fill="none" xmlns="http://www.w3.org/2000/svg"><g clip-path="url(#clip0_489_201364)" stroke="currentColor"><path d="M4.47 2.5A6.623 6.623 0 0 0 2.5 7.224c0 1.815.727 3.46 1.904 4.658m9.347.067a6.623 6.623 0 0 0 1.971-4.725c0-1.815-.726-3.46-1.904-4.657M6.211 4.272a4.14 4.14 0 0 0-1.232 2.952c0 1.135.454 2.163 1.19 2.911m5.842.042a4.14 4.14 0 0 0 1.232-2.953 4.139 4.139 0 0 0-1.19-2.91" stroke-linecap="round"/><path d="M10.264 7.224c0 .641-.518 1.158-1.153 1.158a1.155 1.155 0 0 1-1.153-1.158c0-.64.518-1.158 1.153-1.158s1.153.517 1.153 1.158z" fill="currentColor"/><path d="M9.111 7.222v8.028" stroke-linecap="round" stroke-linejoin="round"/></g><defs><clipPath id="clip0_489_201364"><path fill="currentColor" d="M0 0H18V18H0z"/></clipPath></defs></svg>