<svg width="18" height="18" fill="none" xmlns="http://www.w3.org/2000/svg"><g clip-path="url(#clip0_489_201341)" stroke="currentColor"><path d="M4.394 4.308a6.574 6.574 0 0 0-1.957 4.69c0 1.802.722 3.434 1.89 4.623m9.279.066a6.574 6.574 0 0 0 1.957-4.69 6.574 6.574 0 0 0-1.89-4.622M6.12 6.067a4.109 4.109 0 0 0-1.223 2.93c0 1.127.451 2.147 1.182 2.89m5.799.042a4.11 4.11 0 0 0 1.223-2.931c0-1.126-.451-2.147-1.182-2.89" stroke-linecap="round"/><path d="M10.14 8.998c0 .634-.512 1.146-1.14 1.146-.628 0-1.14-.512-1.14-1.146 0-.635.512-1.146 1.14-1.146.628 0 1.14.511 1.14 1.146z" fill="currentColor"/></g><defs><clipPath id="clip0_489_201341"><path fill="currentColor" d="M0 0H18V18H0z"/></clipPath></defs></svg>