<svg width="18" height="18" fill="none" xmlns="http://www.w3.org/2000/svg"><g clip-path="url(#clip0_489_201675)"><path d="M6 8.025c0-1.937.77-3.795 2.14-5.164a1.217 1.217 0 0 1 1.72 0A7.304 7.304 0 0 1 12 8.025v3.219c0 .238 0 .357-.02.456a1 1 0 0 1-.78.78c-.1.02-.218.02-.456.02H7.256c-.238 0-.357 0-.456-.02a1 1 0 0 1-.78-.78C6 11.6 6 11.482 6 11.244V8.025z" stroke="currentColor"/><path d="M9.5 6a.5.5 0 1 1-1 0 .5.5 0 0 1 1 0z" fill="currentColor"/><path d="M12 7l1.215 2.672c.579 1.274.868 1.91.573 2.37-.296.458-.995.458-2.394.458H6.606c-1.399 0-2.098 0-2.394-.459-.295-.458-.006-1.095.573-2.369L6 7m3 7.5V16m2-1.5v.5m-4-.5v.5" stroke="currentColor" stroke-linecap="round"/></g><defs><clipPath id="clip0_489_201675"><path fill="currentColor" d="M0 0H18V18H0z"/></clipPath></defs></svg>