<svg width="18" height="18" fill="none" xmlns="http://www.w3.org/2000/svg"><g clip-path="url(#clip0_489_201921)" stroke="currentColor" stroke-linecap="round" stroke-linejoin="round"><g clip-path="url(#clip1_489_201921)"><path d="M7.5 15a.5.5 0 1 1-1 0 .5.5 0 0 1 1 0zm6.5 0a.5.5 0 1 1-1 0 .5.5 0 0 1 1 0z" fill="currentColor"/><path d="M14.486 12.499H7.097c-.808 0-1.212 0-1.492-.237-.28-.236-.346-.634-.48-1.431l-.953-5.664c-.134-.797-.2-1.195-.48-1.431-.28-.237-.684-.237-1.492-.237H2m2.162 1.508l9.358-.005c1.146-.001 1.718-.002 2.019.37.3.373.179.932-.063 2.052l-.27 1.25c-.164.756-.245 1.134-.52 1.356-.275.222-.662.222-1.435.222H5.027"/></g><path d="M9.5 2c-2.636 0-5 .5-5 3H14c0-2.5-1.864-3-4.5-3z"/></g><defs><clipPath id="clip0_489_201921"><path fill="currentColor" d="M0 0H18V18H0z"/></clipPath><clipPath id="clip1_489_201921"><path fill="currentColor" d="M0 0H18V18H0z"/></clipPath></defs></svg>