<svg width="18" height="18" fill="none" xmlns="http://www.w3.org/2000/svg"><g clip-path="url(#clip0_489_202012)"><path stroke="#9B51E0" stroke-width=".1" d="M0.035 -0.035L18.035 17.965"/><path transform="scale(-1 1) rotate(45 -9 -21.728)" stroke="#9B51E0" stroke-width=".1" d="M0 -0.05L25.456 -0.05"/><circle cx="9" cy="9" r="7" stroke="#9B51E0" stroke-width=".1"/><path stroke="#9B51E0" stroke-width=".1" d="M3 3H15V15H3z"/><path stroke="#9B51E0" stroke-width=".1" d="M2 4H16V14H2z"/><path transform="rotate(90 14 2)" stroke="#9B51E0" stroke-width=".1" d="M14 2H28V12H14z"/><mask id="a" fill="currentColor"><path d="M5.955 2.49c.15-.3.457-.49.792-.49h4.506c.335 0 .642.19.792.49a.885.885 0 0 0 .3.34l.153.102c.25.167.375.25.467.36.09.106.156.23.195.364.04.137.04.287.04.587v9.63c0 .105 0 .158-.005.206a1 1 0 0 1-.463.75c-.041.026-.088.05-.182.096l-.097.048a.892.892 0 0 0-.429.467.891.891 0 0 1-.827.56H6.804a.891.891 0 0 1-.828-.56.892.892 0 0 0-.43-.467l-.096-.048a2.246 2.246 0 0 1-.182-.096 1 1 0 0 1-.463-.75c-.005-.048-.005-.1-.005-.206v-9.63c0-.3 0-.45.04-.587a1 1 0 0 1 .195-.365c.092-.109.217-.192.467-.359l.152-.102a.886.886 0 0 0 .301-.34z"/></mask><path d="M12.346 2.83l-.555.833.555-.833zm-6.8 12.143l.448-.894-.447.894zM13.16 3.656l-.96.28.96-.28zm-.662-.724l.555-.832-.555.832zm.467.36l.765-.645-.765.644zm-8.125.364l-.96-.28.96.28zm.195-.365l-.765-.644.765.644zm8.16 10.788l.996.098-.996-.098zm-.645.846l-.447-.894.447.894zm.182-.096l-.532-.847.532.847zm-7.927-.75l-.995.098.995-.098zm.645.846l-.447.894.447-.894zm-.182-.096l-.532.846.532-.846zM6.748 3h4.505V1H6.747v2zm4.449 12H6.804v2h4.393v-2zM5.8 13.873v-9.63h-2v9.63h2zm6.4-9.63v9.63h2v-9.63h-2zM5.994 14.08l-.097-.048-.894 1.788.097.049.894-1.789zm6.109-.048l-.097.048.894 1.789.097-.049-.894-1.788zM6.057 3.764l.152-.101-1.11-1.665-.152.102 1.11 1.664zm5.734-.101l.153.101L13.053 2.1l-.153-.102-1.109 1.665zm-.64-.726c.146.293.367.543.64.726l1.11-1.665c.016.011.03.027.038.044l-1.789.895zm-4.942.726c.273-.183.494-.433.64-.726l-1.788-.895a.114.114 0 0 1 .039-.044l1.109 1.665zm5.797 10.416c-.414.207-.738.56-.91.99l1.857.742a.109.109 0 0 1-.053.057l-.894-1.789zm-5.102.99a1.892 1.892 0 0 0-.91-.99L5.1 15.868a.109.109 0 0 1-.053-.057l1.857-.743zM14.2 4.242c0-.24.01-.56-.08-.866l-1.92.558c-.009-.03-.006-.042-.003.007.003.06.003.14.003.301h2zm-2.256-.479c.133.09.2.135.248.17.04.03.029.026.008.001l1.53-1.288c-.205-.244-.477-.413-.677-.547l-1.11 1.664zm2.176-.387a2 2 0 0 0-.39-.73L12.2 3.935l1.92-.558zm-8.32.866c0-.16 0-.242.004-.3.002-.05.005-.039-.004-.008l-1.92-.558c-.09.306-.08.626-.08.866h2zM4.947 2.1c-.2.134-.472.303-.677.547L5.8 3.935c-.02.025-.031.028.008 0 .047-.036.115-.082.249-.17L4.947 2.1zM5.8 3.935L4.27 2.647a2 2 0 0 0-.39.73l1.92.558zm6.4 9.938v.109l1.99.195c.011-.11.01-.22.01-.304h-2zm.797 1.947c.076-.038.175-.087.267-.145L12.2 13.982c.01-.006.013-.007-.003 0l-.094.049.894 1.788zm-.797-1.838l1.064 1.693a2 2 0 0 0 .927-1.498l-1.99-.195zm-8.4-.109c0 .085-.001.195.01.304l1.99-.195v-.003-.106h-2zm2.097.158a6.815 6.815 0 0 1-.094-.048c-.016-.008-.013-.007-.003-.001l-1.064 1.693c.092.058.191.107.267.144l.894-1.788zm-2.087.146a2 2 0 0 0 .926 1.498L5.8 13.982l-1.99.195zM6.804 15c.044 0 .084.027.1.068l-1.857.743A1.891 1.891 0 0 0 6.804 17v-2zm4.393 2c.773 0 1.468-.47 1.756-1.189l-1.857-.743a.109.109 0 0 1 .1-.068v2zm.056-14a.114.114 0 0 1-.103-.063l1.79-.895A1.886 1.886 0 0 0 11.252 1v2zM6.747 1c-.714 0-1.367.404-1.686 1.042l1.789.895A.114.114 0 0 1 6.747 3V1z" fill="currentColor" mask="url(#a)"/><path d="M5.5 13.5a.5.5 0 0 0 0 1v-1zm7 1a.5.5 0 0 0 0-1v1zm-7-11a.5.5 0 0 0 0 1v-1zm7 1a.5.5 0 0 0 0-1v1zm-7 10h7v-1h-7v1zm0-10h7v-1h-7v1z" fill="currentColor"/><path d="M5.85 4.8S7.25 11.45 9 9s3.5 4.2 3.5 4.2" stroke="currentColor" stroke-linecap="round" stroke-linejoin="round"/></g><defs><clipPath id="clip0_489_202012"><path fill="currentColor" d="M0 0H18V18H0z"/></clipPath></defs></svg>