<svg width="18" height="18" fill="none" xmlns="http://www.w3.org/2000/svg"><path d="M15.5 9a6.5 6.5 0 1 1-13 0 6.5 6.5 0 0 1 13 0z" stroke="currentColor"/><path d="M5.352 6.17a.5.5 0 1 0 .283.96l-.283-.96zm7.303 1.622a.5.5 0 1 0 .477-.879l-.477.88zM5.494 6.65l.141.48h.001l.01-.004.045-.012c.042-.01.107-.027.192-.045.17-.038.423-.087.745-.13a11.607 11.607 0 0 1 2.629-.04l.097-.996a12.607 12.607 0 0 0-2.858.045 9.97 9.97 0 0 0-1.056.198 3.818 3.818 0 0 0-.08.022l-.005.001h-.002v.001l.14.48zm3.763.248c1.072.104 1.931.333 2.518.533a7.941 7.941 0 0 1 .834.338 2.271 2.271 0 0 1 .047.024l.237-.44.239-.44h-.002l-.001-.001-.005-.003a1.162 1.162 0 0 0-.071-.036 8.934 8.934 0 0 0-.955-.388 12.192 12.192 0 0 0-2.744-.582l-.097.995zm-3.63 1.554a.4.4 0 1 0 .24.764l-.24-.764zM11.852 9.9a.4.4 0 1 0 .401-.693l-.4.693zM5.746 8.834a82 82 0 0 1 .12.382.76.76 0 0 1 .045-.013 6.954 6.954 0 0 1 .763-.15 9.255 9.255 0 0 1 2.171-.042l.078-.796a10.054 10.054 0 0 0-2.36.045 7.753 7.753 0 0 0-.864.172 2.998 2.998 0 0 0-.065.018l-.005.002h-.001-.001l.12.382zm3.1.177a8.538 8.538 0 0 1 2.798.78 4.854 4.854 0 0 1 .199.102l.008.005h.002s0 .001 0 0l.2-.345.2-.347-.002-.001a.239.239 0 0 0-.005-.002l-.014-.008a4.13 4.13 0 0 0-.238-.123 9.34 9.34 0 0 0-3.071-.857l-.078.796zm-3.113 1.65a.35.35 0 0 0 .179.676l-.179-.677zm5.503 1.287a.35.35 0 0 0 .388-.582l-.388.582zm-5.413-.95l.089.339h.001l.009-.003.039-.009a8.307 8.307 0 0 1 .747-.13 9.488 9.488 0 0 1 1.987-.046l.06-.697a10.19 10.19 0 0 0-2.777.153 6.136 6.136 0 0 0-.178.039l-.048.011-.013.004h-.004-.001v.001l.089.338zm2.872.151c.77.066 1.411.269 1.859.455a5.345 5.345 0 0 1 .676.34l.006.004h.001l.193-.29.194-.292-.002-.002-.004-.002-.012-.008-.043-.027a6.06 6.06 0 0 0-.74-.37 6.96 6.96 0 0 0-2.068-.505l-.06.697z" fill="currentColor"/></svg>