<svg width="18" height="18" fill="none" xmlns="http://www.w3.org/2000/svg"><g clip-path="url(#clip0_489_202267)" stroke="currentColor"><path d="M4.5 4.5v9c0 .943 0 1.414.293 1.707.293.293.764.293 1.707.293h5c.943 0 1.414 0 1.707-.293.293-.293.293-.764.293-1.707v-9c0-.943 0-1.414-.293-1.707-.293-.293-.764-.293-1.707-.293h-5c-.943 0-1.414 0-1.707.293C4.5 3.086 4.5 3.557 4.5 4.5z"/><path d="M7 11.5h3m-3-3h4m-4-3h4" stroke-linecap="round" stroke-linejoin="round"/></g><defs><clipPath id="clip0_489_202267"><path fill="currentColor" d="M0 0H18V18H0z"/></clipPath></defs></svg>