<svg width="18" height="18" fill="none" xmlns="http://www.w3.org/2000/svg"><g clip-path="url(#clip0_489_202422)" stroke="currentColor" stroke-linecap="round"><path d="M10 14H6.5c-1.886 0-2.828 0-3.414-.586C2.5 12.828 2.5 11.886 2.5 10V8c0-1.886 0-2.828.586-3.414C3.672 4 4.614 4 6.5 4h5c1.886 0 2.828 0 3.414.586.586.586.586 1.528.586 3.414v.5" stroke-linejoin="round"/><path d="M13.5 10v4m2-2h-4"/><path d="M8.846 4v10m1.758-3.367H3M15 7.57H3" stroke-width=".5"/></g><defs><clipPath id="clip0_489_202422"><path fill="currentColor" d="M0 0H18V18H0z"/></clipPath></defs></svg>