<svg width="18" height="18" fill="none" xmlns="http://www.w3.org/2000/svg"><g clip-path="url(#clip0_489_202435)" stroke="currentColor"><path d="M11 4H6.5c-1.886 0-2.828 0-3.414.586C2.5 5.172 2.5 6.114 2.5 8v2c0 1.886 0 2.828.586 3.414C3.672 14 4.614 14 6.5 14H11c1.886 0 2.828 0 3.414-.586C15 12.828 15 11.886 15 10V8c0-1.886 0-2.828-.586-3.414C13.828 4 12.886 4 11 4z"/><path d="M9 4v10m6-3.5H3m12-3H3" stroke-width=".5" stroke-linecap="round"/></g><defs><clipPath id="clip0_489_202435"><path fill="currentColor" d="M0 0H18V18H0z"/></clipPath></defs></svg>