<svg width="18" height="18" fill="none" xmlns="http://www.w3.org/2000/svg"><path d="M7.068 3.605l.24-.003h.022c.87-.009 1.165-.003 1.423.103.258.105.472.306 1.088.922l2.666 2.665c.676.677 1.147 1.15 1.456 1.554.299.392.397.66.397.921s-.098.53-.397.922c-.309.404-.78.877-1.456 1.553l-.265.264c-.677.677-1.15 1.148-1.553 1.457-.393.299-.66.397-.922.397v.497-.497c-.26 0-.529-.098-.921-.397-.404-.309-.877-.78-1.554-1.456L4.627 9.84c-.616-.616-.817-.83-.922-1.088-.106-.258-.112-.552-.103-1.423l.003-.262c.01-.939.017-1.593.088-2.087.07-.48.19-.735.371-.917.182-.182.437-.302.917-.37.494-.072 1.148-.08 2.087-.09z" stroke="currentColor" stroke-linecap="round"/><path d="M6.56 5.44A.75.75 0 1 1 5.5 6.5a.75.75 0 0 1 1.06-1.06z" fill="currentColor"/></svg>