<svg width="18" height="18" fill="none" xmlns="http://www.w3.org/2000/svg"><path d="M14.5 10a5.5 5.5 0 1 1-11 0 5.5 5.5 0 0 1 11 0z" stroke="currentColor"/><path d="M12.511 8.082a4.019 4.019 0 0 0-1.593-1.593c-.625-.342-.938-.513-1.428-.223C9 6.556 9 7.038 9 8c0 .943 0 1.414.293 1.707C9.586 10 10.057 10 11 10c.962 0 1.443 0 1.734-.49.29-.49.12-.803-.223-1.428z" fill="currentColor"/><path d="M7.29 2.767c.71-.255 2.71-.255 3.42 0M3.5 5.5c.09-.19.784-.849 1.018-.968" stroke="currentColor" stroke-linecap="round"/></svg>