<svg width="18" height="18" fill="none" xmlns="http://www.w3.org/2000/svg"><path d="M6.5 11.5l.429 1.6.14.783c.135.757.202 1.136.463 1.367l.04.033c.274.217.659.217 1.428.217.77 0 1.154 0 1.427-.217a.938.938 0 0 0 .04-.033c.262-.231.33-.61.465-1.367l.14-.783.428-1.6m-5-5l.429-1.6.14-.783c.135-.757.202-1.136.463-1.367l.04-.033C7.847 2.5 8.232 2.5 9 2.5c.77 0 1.154 0 1.427.217.014.01.027.022.04.033.262.231.33.61.465 1.367l.14.783.428 1.6" stroke="currentColor" stroke-linecap="round" stroke-linejoin="round"/><path d="M12.5 9a3.5 3.5 0 1 1-7 0 3.5 3.5 0 0 1 7 0z" stroke="currentColor"/><path d="M9 7.5V9h1" stroke="currentColor" stroke-linecap="round" stroke-linejoin="round"/></svg>