<svg width="18" height="18" fill="none" xmlns="http://www.w3.org/2000/svg"><path d="M6.032 5.882l.834-1.622A1 1 0 0 0 7 3.807l.001-.1c0-.192 0-.289.013-.37a1 1 0 0 1 .825-.824c.08-.013.177-.013.37-.013h1.599c.18 0 .269 0 .344.011a1 1 0 0 1 .838.838c.011.075.011.165.011.344l.001.098a1 1 0 0 0 .1.391l.047.087.848 1.537m-5.964 6.312l.834 1.622a1 1 0 0 1 .134.552c0 .193 0 .29.013.37a1 1 0 0 0 .825.825c.08.013.177.013.37.013h1.599c.18 0 .269 0 .344-.011a1 1 0 0 0 .838-.838c.011-.075.011-.165.011-.344l.001-.098a.999.999 0 0 1 .147-.478l.848-1.537" stroke="currentColor" stroke-linecap="round" stroke-linejoin="round"/><path d="M9 12.5c-.957 0-1.624-.001-2.128-.069-.49-.065-.748-.186-.933-.37-.184-.185-.304-.444-.37-.933C5.5 10.624 5.5 9.957 5.5 9c0-.957.001-1.624.069-2.128.066-.49.186-.748.37-.933.185-.184.444-.304.933-.37C7.376 5.5 8.043 5.5 9 5.5c.957 0 1.624.001 2.128.069.49.066.748.186.933.37.184.185.305.444.37.933.068.504.069 1.171.069 2.128 0 .957-.001 1.624-.069 2.128-.065.49-.186.748-.37.933-.185.184-.444.305-.933.37-.504.068-1.171.069-2.128.069z" stroke="currentColor"/></svg>