<svg fill="none" height="18" width="18" xmlns="http://www.w3.org/2000/svg"><g stroke="currentColor" stroke-linecap="round" stroke-linejoin="round"><path d="M3.5 10c0 2.974 2.462 5.5 5.5 5.5s5.5-2.525 5.5-5.5c0-2.974-2.462-5.5-5.5-5.5H4m0 0l2.072-2M4 4.5l2.072 2"/><path d="M7.146 10.018c.448-.046 1.22-.077 1.22-.975 0-1.314-1.866-.985-1.866-.328m.646 1.303c-.184.02-.313.01-.313.01s.13-.019.313-.01zm0 0c.448.023 1.22 0 1.22.996 0 1.157-1.533 1.315-1.866.658m3-1.643c0-1.519.333-1.971 1-1.971s1 .532 1 1.97c0 1.44-.333 1.972-1 1.972s-1-.453-1-1.971z" stroke-width=".5"/></g></svg>