<svg fill="none" height="18" width="18" xmlns="http://www.w3.org/2000/svg"><path d="M14.48 10.448l-1.521 1.449c-.572.544-.859.817-1.216.96C11.385 13 10.99 13 10.2 13H4.35c-1.003 0-1.505 0-1.635-.304s.219-.666.915-1.39l.885-.92c.631-.655.947-.983.947-1.386s-.316-.731-.947-1.387l-.885-.92c-.696-.723-1.044-1.084-.915-1.389C2.845 5 3.347 5 4.35 5h5.85c.79 0 1.185 0 1.543.143.357.143.643.416 1.216.96l1.52 1.449c.714.68 1.071 1.02 1.071 1.448 0 .429-.357.768-1.07 1.448z" stroke="currentColor" stroke-linecap="round" stroke-linejoin="round"/></svg>