<svg width="18" height="18" fill="none" xmlns="http://www.w3.org/2000/svg"><path d="M7.194 4.306h-.888c-.943 0-1.415 0-1.708.292-.292.293-.292.765-.292 1.708v.888m2.888-2.888V2.5m0 1.806h3.612m0 0h.888c.943 0 1.415 0 1.708.292.292.293.292.765.292 1.708v.888m-2.888-2.888V2.5m2.888 4.694H15.5m-1.806 0v3.612m0 0v.888c0 .943 0 1.415-.292 1.708-.293.292-.765.292-1.708.292h-.888m2.888-2.888H15.5m-4.694 2.888V15.5m0-1.806H7.194m0 0h-.888c-.943 0-1.415 0-1.708-.292-.292-.293-.292-.765-.292-1.708v-.888m2.888 2.888V15.5m-2.888-4.694H2.5m1.806 0V7.194m0 0H2.5m8.306 1v1.612c0 .471 0 .707-.147.853-.146.147-.382.147-.853.147H8.194c-.471 0-.707 0-.853-.147-.147-.146-.147-.382-.147-.853V8.194c0-.471 0-.707.147-.853.146-.147.382-.147.853-.147h1.612c.471 0 .707 0 .853.147.147.146.147.382.147.853z" stroke="currentColor" stroke-linecap="round" stroke-linejoin="round"/></svg>