<svg width="18" height="18" fill="none" xmlns="http://www.w3.org/2000/svg"><path d="M5.25 3.944a.5.5 0 1 0 1 0h-1zm10.694 8.286a.5.5 0 0 0-.888-.46l.888.46zM6.715 2.913l.176.468-.176-.468zM3.46 6.693a.5.5 0 1 0-.923-.385l.923.384zm11.655-.054l-.472.165.472-.165zM9 15c-2.99 0-6-2.703-6-6H2c0 3.883 3.49 7 7 7v-1zM9 3c2.625 0 4.816 1.44 5.643 3.804l.944-.33C14.605 3.667 12.004 2 9 2v1zm6.056 8.77C14.072 13.673 12.088 15 9 15v1c3.412 0 5.767-1.493 6.944-3.77l-.888-.46zM2.084 9.277c.839 1.258 2.151 1.718 3.463 1.28l-.316-.948c-.855.285-1.71.022-2.315-.886l-.832.554zm3.463 1.28c.379-.126.716-.396 1.002-.665.286-.268.594-.606.868-.886.289-.296.563-.553.839-.737C8.529 8.087 8.77 8 9 8V7c-.494 0-.928.19-1.298.437-.368.244-.703.565-1 .87-.314.32-.57.606-.837.856-.266.25-.471.392-.634.446l.316.949zM9 8c.229 0 .471.087.744.27.276.183.55.44.84.736.273.28.58.618.867.886.286.269.623.54 1.002.666l.316-.949c-.163-.054-.368-.197-.634-.446-.267-.25-.523-.536-.836-.856-.298-.305-.633-.626-1-.87C9.928 7.19 9.493 7 9 7v1zm3.453 2.558c.345.115.707.097 1.03.03l-.202-.979c-.224.046-.393.04-.512 0l-.316.949zM6.25 3.944c0 .02-.005.004.025-.051a.904.904 0 0 1 .142-.188c.139-.144.318-.266.474-.324l-.352-.936a2.368 2.368 0 0 0-.844.569c-.208.217-.445.552-.445.93h1zm.64-.563A5.986 5.986 0 0 1 9 3V2c-.865 0-1.695.157-2.46.445l.35.936zM3 9c0-.819.164-1.598.46-2.308l-.923-.384A6.98 6.98 0 0 0 2 9h1zm11.643-2.196c.425 1.216-.236 2.573-1.362 2.805l.203.98c1.85-.383 2.68-2.464 2.103-4.115l-.944.33z" fill="currentColor"/></svg>