<svg fill="none" height="18" width="18" xmlns="http://www.w3.org/2000/svg"><path d="M9.207 15.207l.354.354zm-6.414 0l-.354.354zm6.414-6.414l.354-.354zM4.5 9h3V8h-3zM3 13.5v-3H2v3zM7.5 15h-3v1h3zM9 10.5v3h1v-3zM7.5 16c.457 0 .85.001 1.164-.041.328-.044.642-.143.897-.398l-.707-.707c-.039.038-.106.085-.323.114-.232.03-.545.032-1.031.032zM9 13.5c0 .486-.001.8-.032 1.03-.03.218-.076.286-.114.324l.707.707c.254-.255.354-.57.398-.897C10 14.35 10 13.957 10 13.5zm-7 0c0 .457-.001.85.041 1.164.044.328.144.642.398.897l.707-.707c-.038-.038-.085-.106-.114-.323C3.002 14.299 3 13.985 3 13.5zM4.5 15c-.486 0-.8-.001-1.03-.032-.218-.03-.285-.076-.324-.114l-.707.707c.255.255.57.354.897.398C3.65 16 4.043 16 4.5 16zm3-6c.486 0 .8.001 1.03.032.218.03.285.076.324.114l.707-.707c-.255-.254-.57-.354-.897-.398C8.35 8 7.957 8 7.5 8zm2.5 1.5c0-.457.001-.85-.041-1.164-.044-.328-.144-.642-.398-.897l-.707.707c.038.039.085.106.114.323.03.232.032.546.032 1.031zM4.5 8c-.457 0-.85-.001-1.164.041-.328.044-.642.144-.897.398l.707.707c.039-.038.106-.085.323-.114C3.701 9.002 4.014 9 4.5 9zM3 10.5c0-.486.001-.8.032-1.03.03-.218.076-.285.114-.324L2.44 8.44c-.254.255-.354.57-.398.897C2 9.65 2 10.043 2 10.5z" fill="currentColor"/><path d="M4.5 6V4.5c0-.943 0-1.414.293-1.707S5.557 2.5 6.5 2.5H8M15.5 6V4.5c0-.943 0-1.414-.293-1.707S14.443 2.5 13.5 2.5H12m3.5 7.5v1.5c0 .943 0 1.414-.293 1.707s-.764.293-1.707.293H12" stroke="currentColor" stroke-linecap="round" stroke-linejoin="round"/></svg>