<svg fill="none" height="18" width="18" xmlns="http://www.w3.org/2000/svg"><clipPath id="a"><path d="M0 0h18v18H0z"/></clipPath><g clip-path="url(#a)"><path d="M13.421 5.447l-.46.195zm-2.95-2.874l.187-.463-.188.463zm2.736 12.634l.354.354zm-8.414 0l.353-.353zM5 13.5v-9H4v9zm6.5 1.5h-5v1h5zm-5-12h3.189V2H6.5zM13 6.26v7.24h1V6.26zm-2.266-2.836l1.811 1.76.697-.718-1.812-1.76zM14 6.259c0-.375.01-.705-.118-1.007l-.921.39c.03.071.039.159.039.617zm-1.455-1.076c.33.32.385.387.415.459l.922-.39c-.128-.301-.371-.525-.64-.786zM9.69 3c.44 0 .524.009.593.037l.376-.927c-.292-.119-.609-.11-.97-.11v1zm1.741-.293c-.258-.252-.48-.478-.772-.597l-.376.927c.07.028.136.08.452.387zM11.5 16c.457 0 .85.001 1.164-.041.328-.044.642-.143.897-.398l-.707-.707c-.038.038-.106.085-.323.114-.232.03-.546.032-1.031.032zm1.5-2.5c0 .486-.001.8-.032 1.03-.03.218-.076.286-.114.324l.707.707c.255-.255.354-.57.398-.897C14 14.35 14 13.957 14 13.5zm-9 0c0 .457-.001.85.041 1.164.044.328.144.642.398.897l.707-.707c-.038-.038-.085-.106-.114-.323C5.002 14.299 5 13.985 5 13.5zM6.5 15c-.486 0-.8-.001-1.03-.032-.218-.03-.285-.076-.324-.114l-.707.707c.255.255.57.354.897.398C5.65 16 6.043 16 6.5 16zM5 4.5c0-.486.001-.8.032-1.03.03-.218.076-.285.114-.324L4.44 2.44c-.254.255-.354.57-.398.897C4 3.65 4 4.043 4 4.5zM6.5 2c-.457 0-.85-.001-1.164.041-.328.044-.642.144-.897.398l.707.707c.039-.038.106-.085.323-.114C5.701 3.002 6.014 3 6.5 3z" fill="currentColor"/><path d="M10.5 3v1c0 .943 0 1.414.293 1.707S11.557 6 12.5 6h1" stroke="currentColor"/><path d="M7.758 7.965l-.243-.438zm0 4.07L8 11.598zm2.385-1.187l-.265-.424zM8.765 8.88l1.113.696.53-.848-1.113-.696zm1.113 1.544l-1.113.696.53.848 1.113-.696zM8 10.696V9.304H7v1.392zm1.295-2.664c-.324-.202-.615-.386-.858-.492-.246-.107-.585-.2-.922-.013L8 8.402c-.08.044-.12-.014.037.055.159.07.375.203.728.423zM8 9.304c0-.416.001-.67.027-.842.025-.17.053-.104-.027-.06l-.485-.875c-.337.187-.438.523-.477.789-.04.262-.038.606-.038.988zm.765 1.816c-.353.22-.569.354-.728.423-.157.069-.117.01-.037.055l-.485.874c.337.187.676.095.922-.012.243-.106.534-.29.858-.492zM7 10.696c0 .382-.001.726.038.988.039.266.14.602.477.789L8 11.598c.08.044.052.11.027-.06C8 11.366 8 11.112 8 10.696zm2.878-1.12c.319.2.509.32.626.42.111.094.053.084.053.004h1c0-.357-.211-.601-.404-.766-.188-.16-.455-.325-.745-.506zm.53 1.696c.29-.181.557-.347.745-.506.193-.165.404-.409.404-.766h-1c0-.08.058-.09-.053.005-.117.1-.307.22-.626.419z" fill="currentColor"/></g></svg>