<svg fill="none" height="18" width="18" xmlns="http://www.w3.org/2000/svg"><g stroke="currentColor"><path d="M14.061 6.315l.162.095c.32.187.429.6.245.924L13.09 9.752a.663.663 0 0 1-.912.248l-.162-.095a1.646 1.646 0 0 1-.799-1.216.54.54 0 0 0-.764-.428l-.418.196a.575.575 0 0 1-.535-.024l-2.44-1.27a.593.593 0 0 1-.262-.694l.183-.764c.057-.176-.015-.373-.183-.446-1.342-.59-3.355.331-3.355-.688s3.382-2.333 5.628-1.019l2.475 1.291c.164.096.27.266.288.457l.041.465c.033.37.41.6.748.457.468-.198 1-.164 1.438.093z"/><path d="M6.897 7l-3.802 6.745a.594.594 0 0 0 .196.832l1.061.621c.29.17.66.058.81-.244l3.78-6.874"/></g></svg>