<svg fill="none" height="18" width="18" xmlns="http://www.w3.org/2000/svg"><path d="M3.793 15.207l-.354.354zm10.414 0l-.353-.353zM14 7.5v6h1v-6zM12.5 15h-7v1h7zM4 13.5v-6H3v6zM5.5 15c-.486 0-.8-.001-1.03-.032-.218-.03-.285-.076-.324-.114l-.707.707c.255.255.57.354.897.398C4.65 16 5.043 16 5.5 16zM3 13.5c0 .457-.001.85.041 1.164.044.328.144.642.398.897l.707-.707c-.038-.038-.085-.106-.114-.323C4.002 14.299 4 13.985 4 13.5zm11 0c0 .486-.001.8-.032 1.03-.03.218-.076.286-.114.324l.707.707c.255-.255.354-.57.398-.897C15 14.35 15 13.957 15 13.5zM12.5 16c.457 0 .85.001 1.164-.041.328-.044.642-.143.897-.398l-.707-.707c-.038.038-.106.085-.323.114-.232.03-.546.032-1.031.032z" fill="currentColor"/><path d="M2.5 8.5l5.086-5.086c.666-.666 1-1 1.414-1s.748.334 1.414 1L15.5 8.5" stroke="currentColor" stroke-linecap="round"/><path d="M7 13c0-.943 0-1.414.293-1.707S8.057 11 9 11s1.414 0 1.707.293S11 12.057 11 13v3H7zm5-9c0-.471 0-.707.146-.854C12.293 3 12.53 3 13 3s.707 0 .854.146C14 3.293 14 3.53 14 4v3l-1.414-1.414c-.29-.29-.434-.434-.51-.618C12 4.785 12 4.58 12 4.172z" fill="currentColor"/></svg>