<svg width="18" height="18" fill="none" xmlns="http://www.w3.org/2000/svg"><path d="M8 8h.5a.5.5 0 0 0-.335-.472L8 8zm0 6.047h-.5c0 .102.03.2.088.284L8 14.047zM9 15.5l-.412.284a.5.5 0 0 0 .812.016l-.4-.3zm1.5-2l.4.3a.5.5 0 0 0 .036-.545l-.436.245zm-.5-.889h-.5a.5.5 0 0 0 .064.245l.436-.245zm0-1.444l-.354-.354a.5.5 0 0 0-.146.354h.5zm1.083-1.084l.354.354a.5.5 0 0 0 0-.707l-.354.353zM10 9h-.5a.5.5 0 0 0 .146.354L10 9zm0-.992l-.188-.463a.5.5 0 0 0-.312.463h.5zm-3.389-2.62C6.611 4.07 7.681 3 9 3V2a3.389 3.389 0 0 0-3.389 3.389h1zM9 3c1.32 0 2.389 1.07 2.389 2.389h1A3.389 3.389 0 0 0 9 2v1zM7.5 8v6.047h1V8h-1zm.088 6.331l1 1.453.824-.568-1-1.452-.824.567zM9.4 15.8l1.5-2-.8-.6-1.5 2 .8.6zm1.536-2.545l-.5-.889-.872.49.5.89.872-.491zm-.436-.644v-1.444h-1v1.444h1zm-.146-1.09l1.083-1.084-.707-.707-1.084 1.083.708.707zm1.083-1.791l-1.083-1.084-.708.708 1.084 1.083.707-.707zM10.5 9v-.992h-1V9h1zM8 8l.165-.472h.002a.672.672 0 0 1-.053-.02 2.912 2.912 0 0 1-.73-.46c-.397-.342-.773-.867-.773-1.66h-1c0 1.16.568 1.94 1.117 2.416A3.912 3.912 0 0 0 7.8 8.46a1.634 1.634 0 0 0 .03.011l.003.001h.001S7.836 8.473 8 8zm3.389-2.611c0 .737-.371 1.266-.778 1.632a3.302 3.302 0 0 1-.8.525v-.001l.189.463.189.463h.001l.003-.002a1.206 1.206 0 0 1 .03-.012 3.828 3.828 0 0 0 .32-.163c.2-.114.466-.288.735-.529.537-.482 1.11-1.261 1.11-2.376h-1zM9.5 4.5a.5.5 0 1 1-1 0 .5.5 0 0 1 1 0z" fill="currentColor"/></svg>