<svg width="18" height="18" fill="none" xmlns="http://www.w3.org/2000/svg"><path d="M6 3.5h6c.957 0 1.624.001 2.128.069.49.066.748.186.933.37.184.185.305.444.37.933.068.504.069 1.171.069 2.128v4c0 .957-.001 1.624-.069 2.128-.065.49-.186.748-.37.933-.185.184-.444.305-.933.37-.504.068-1.171.069-2.128.069H6c-.957 0-1.624-.001-2.128-.069-.49-.065-.748-.186-.933-.37-.184-.185-.304-.444-.37-.933C2.5 12.624 2.5 11.957 2.5 11V7c0-.957.001-1.624.069-2.128.066-.49.186-.748.37-.933.185-.184.444-.304.933-.37C4.376 3.5 5.043 3.5 6 3.5z" stroke="currentColor"/><path d="M10.5 3.5v11m2-7h1m-1 2h1m-1-4h1" stroke="currentColor" stroke-linecap="round" stroke-linejoin="round"/></svg>