<svg fill="none" height="18" width="18" xmlns="http://www.w3.org/2000/svg"><path d="M4.5 2.5v4m-2-2h4m-2 8v3M3 14h3m2.492-6.33l-1.146.381C6.17 8.444 5.581 8.64 5.581 9s.588.556 1.765.949l1.146.382c.249.083.373.124.46.215.085.091.12.218.189.47l.394 1.447c.389 1.424.583 2.137.965 2.137s.576-.713.965-2.137l.394-1.447c.07-.252.104-.379.19-.47s.21-.132.459-.215l1.146-.382c1.177-.393 1.765-.589 1.765-.949s-.588-.556-1.765-.949l-1.146-.382c-.249-.083-.373-.124-.46-.215-.085-.091-.12-.218-.189-.47l-.394-1.447C11.076 4.113 10.882 3.4 10.5 3.4s-.576.713-.965 2.137l-.394 1.447c-.07.252-.104.379-.19.47s-.21.132-.459.215z" stroke="currentColor" stroke-linecap="round" stroke-linejoin="round"/></svg>