<svg width="18" height="18" fill="none" xmlns="http://www.w3.org/2000/svg"><path d="M12.66 11.415a71.874 71.874 0 0 0-1.472-.627c-.595-.244-.955.119-.679.684.167.341.39.783.689 1.354.6 1.15 1.403 2.604 2.718 2.42.693-.098 1.233-.612 1.344-1.266.219-1.287-1.373-2.028-2.6-2.565zM6.086 8.402L4.898 7.04c-.564-.647-1.43-.336-1.43.513v1.922c0 1.082 0 2.407.988 2.87.968.454 2.313.03 2.824-.886.572-1.024-.412-2.163-1.194-3.06zm5.67-5.007H8.281c-.835 0-1.094.728-.436 1.23l1.327 1.01c1.25.953 3.083 2.104 4.076.863.85-1.06.538-2.985-1.492-3.103z" stroke="currentColor" stroke-linecap="round"/></svg>