<svg width="18" height="18" fill="none" xmlns="http://www.w3.org/2000/svg"><path d="M15.5 9a6.5 6.5 0 1 1-13 0 6.5 6.5 0 0 1 13 0z" stroke="currentColor"/><path d="M5.352 6.17a.5.5 0 1 0 .283.96l-.283-.96zm7.303 1.622a.5.5 0 0 0 .477-.879l-.477.88zM5.494 6.65a105.737 105.737 0 0 1 .141.48h.001a1.445 1.445 0 0 1 .055-.016c.042-.01.107-.027.192-.045.17-.038.423-.087.745-.13a11.608 11.608 0 0 1 2.629-.04l.097-.996a12.608 12.608 0 0 0-2.858.045 9.97 9.97 0 0 0-1.056.198 3.735 3.735 0 0 0-.08.022l-.005.001h-.002v.001l.14.48zm3.763.248c1.072.104 1.93.333 2.518.533a7.959 7.959 0 0 1 .834.338 2.271 2.271 0 0 1 .047.024 104.331 104.331 0 0 1 .476-.88h-.002l-.001-.001-.005-.003a1.162 1.162 0 0 0-.071-.036 8.934 8.934 0 0 0-.955-.388 12.192 12.192 0 0 0-2.744-.582l-.097.995zm-3.63 1.554a.4.4 0 1 0 .24.764l-.24-.764zM11.852 9.9a.4.4 0 1 0 .401-.693l-.4.693zM5.746 8.834a82.004 82.004 0 0 1 .12.382.76.76 0 0 1 .045-.013 6.957 6.957 0 0 1 .763-.15 9.254 9.254 0 0 1 2.171-.042l.078-.796a10.054 10.054 0 0 0-2.36.045 7.753 7.753 0 0 0-.864.171 2.906 2.906 0 0 0-.065.02h-.005l-.001.001h-.001l.12.382zm3.1.177a8.539 8.539 0 0 1 2.798.78 4.75 4.75 0 0 1 .199.102l.008.005h.002l.2-.346a68.664 68.664 0 0 0 .2-.346l-.002-.001-.004-.003a3.146 3.146 0 0 0-.066-.035 8.314 8.314 0 0 0-.874-.39 9.339 9.339 0 0 0-2.384-.562l-.078.796zM5.732 10.66a.35.35 0 1 0 .179.677l-.179-.677zm5.503 1.288a.35.35 0 0 0 .388-.582l-.388.582zm-5.413-.95l.089.339h.001l.009-.003.039-.01c.034-.007.087-.02.156-.033a9.488 9.488 0 0 1 2.579-.142l.059-.697a10.196 10.196 0 0 0-2.777.153 6.136 6.136 0 0 0-.178.038l-.048.012-.013.003-.004.002h-.001l.089.338zm2.872.151c.77.066 1.411.269 1.859.455a5.345 5.345 0 0 1 .676.34l.006.004h.001l.193-.291.194-.291v-.001h-.002c0-.002-.002-.002-.004-.003l-.012-.008a4.06 4.06 0 0 0-.201-.118 6.037 6.037 0 0 0-.583-.278 6.96 6.96 0 0 0-2.067-.506l-.06.697z" fill="currentColor"/></svg>