<svg fill="none" height="18" width="18" xmlns="http://www.w3.org/2000/svg"><clipPath id="a"><path d="M0 0h18v18H0z"/></clipPath><g clip-path="url(#a)" fill="currentColor"><path d="M14.414 13.414l.354.354zm-11.328 0l-.354.354zM6.5 4.5H11v-1H6.5zM3 10V8H2v2zm8 3.5H6.5v1H11zM14.5 8v2h1V8zM11 14.5c.929 0 1.675.001 2.261-.078.6-.08 1.106-.253 1.507-.654l-.707-.707c-.185.184-.444.305-.933.37-.504.068-1.171.069-2.128.069zm3.5-4.5c0 .957-.001 1.624-.069 2.128-.065.49-.186.748-.37.933l.707.707c.401-.402.574-.907.654-1.507.08-.585.078-1.332.078-2.261zM2 10c0 .929-.001 1.675.078 2.261.08.6.253 1.106.654 1.507l.707-.707c-.184-.185-.304-.444-.37-.933C3 11.624 3 10.957 3 10zm4.5 3.5c-.957 0-1.624-.001-2.128-.069-.49-.065-.748-.186-.933-.37l-.707.707c.402.401.907.574 1.507.654.586.08 1.332.078 2.261.078zm4.5-9c.957 0 1.624.001 2.128.069.49.066.748.186.933.37l.707-.707c-.402-.401-.907-.574-1.507-.654C12.676 3.498 11.93 3.5 11 3.5zM15.5 8c0-.929.001-1.675-.078-2.261-.08-.6-.253-1.105-.654-1.507l-.707.707c.184.185.305.444.37.933.068.504.069 1.171.069 2.128zm-9-4.5c-.929 0-1.675-.001-2.261.078-.6.08-1.105.253-1.507.654l.707.707c.185-.184.444-.304.933-.37C4.876 4.5 5.543 4.5 6.5 4.5zM3 8c0-.957.001-1.624.069-2.128.066-.49.186-.748.37-.933l-.707-.707c-.401.402-.574.907-.654 1.507C1.998 6.325 2 7.07 2 8z"/><path d="M9.25 4a.25.25 0 0 0-.5 0zm-.5 10a.25.25 0 1 0 .5 0zM15 10.75a.25.25 0 1 0 0-.5zm-12-.5a.25.25 0 1 0 0 .5zm12-2.5a.25.25 0 1 0 0-.5zm-12-.5a.25.25 0 0 0 0 .5zM8.75 4v10h.5V4zM15 10.25H3v.5h12zm0-3H3v.5h12z"/></g></svg>