<svg width="18" height="18" fill="none" xmlns="http://www.w3.org/2000/svg"><path d="M11.434 11.709l2.22-2.22c.666-.666 1-1 1-1.413 0-.415-.334-.748-1-1.415l-3.54-3.54c-.289-.287-.433-.431-.616-.507-.183-.077-.386-.077-.793-.078L6.48 2.529c-.948-.002-1.422-.004-1.716.29-.294.294-.293.768-.29 1.716L4.48 6.76c.001.407.002.61.078.794.076.183.22.327.508.615l3.54 3.54c.667.666 1 1 1.414 1 .414 0 .748-.334 1.414-1z" stroke="currentColor" stroke-linecap="round"/><path d="M5.431 8.564l2.547 5.442c.4.854.6 1.281.989 1.422.39.141.816-.059 1.67-.458l2.066-.967c.854-.4 1.281-.6 1.423-.989.14-.39-.06-.816-.459-1.67l-.429-.917" stroke="currentColor" stroke-linecap="round"/><path d="M7.66 4.47a.714.714 0 1 1-1.01 1.01.714.714 0 0 1 1.01-1.01z" fill="currentColor"/></svg>