<svg width="18" height="18" fill="none" xmlns="http://www.w3.org/2000/svg"><path d="M4.263 8.234c-.123-1.042-.184-1.563.114-1.899C4.676 6 5.2 6 6.25 6h5.502c1.049 0 1.573 0 1.872.335.298.336.237.857.114 1.899l-.53 4.5c-.098.84-.148 1.26-.432 1.513-.284.253-.707.253-1.553.253H6.779c-.847 0-1.27 0-1.554-.253-.284-.252-.334-.673-.433-1.513l-.53-4.5z" stroke="currentColor"/><path d="M2.5 4L4 6.5l.947-1.894c.27-.538.404-.807.645-.957.242-.149.543-.149 1.144-.149h4.528c.601 0 .902 0 1.144.15.241.149.376.418.645.956L14 6.5 15.5 4" stroke="currentColor" stroke-linecap="round"/></svg>