<svg width="18" height="18" fill="none" xmlns="http://www.w3.org/2000/svg"><path d="M8.636 2.222c.236 0 .354 0 .427.073.073.073.073.191.073.427v.643c0 .236 0 .353-.073.427-.073.073-.191.073-.427.073H6.5V11c0 .236 0 .354-.073.427-.073.073-.191.073-.427.073h-.853c-.236 0-.354 0-.427-.073-.073-.073-.073-.191-.073-.427V3.865H2.499c-.236 0-.354 0-.427-.073C2 3.718 2 3.6 2 3.365v-.643c0-.236 0-.354.073-.427.073-.073.191-.073.427-.073h6.137zm3.3 12.157c.47 0 .854-.051 1.148-.154.559-.197.838-.564.838-1.1 0-.312-.139-.554-.415-.725-.278-.167-.713-.315-1.306-.444l-1.013-.224c-.995-.223-1.684-.465-2.065-.726-.645-.437-.967-1.12-.967-2.05 0-.848.312-1.553.935-2.114C9.714 6.28 10.63 6 11.838 6c1.008 0 1.868.266 2.578.797.587.433.944 1.028 1.072 1.785.038.225.057.338-.018.426-.075.09-.2.09-.449.09h-.934c-.2 0-.3 0-.366-.047-.065-.047-.107-.17-.191-.415a1.3 1.3 0 0 0-.666-.753c-.312-.159-.7-.238-1.163-.238-.515 0-.926.103-1.234.308a.98.98 0 0 0-.46.861c0 .339.151.592.454.759.195.111.61.242 1.247.392l1.65.392c.722.17 1.268.4 1.635.687.572.446.858 1.09.858 1.934 0 .865-.336 1.585-1.007 2.16-.666.569-1.61.854-2.831.854-1.247 0-2.227-.28-2.942-.842a2.72 2.72 0 0 1-1.038-1.827c-.03-.219-.045-.328.03-.413.074-.086.195-.086.437-.086h.974c.197 0 .296 0 .362.05.067.05.098.159.161.375.066.227.156.408.27.545.324.39.88.585 1.668.585z" fill="currentColor"/></svg>