<svg fill="none" height="18" width="18" xmlns="http://www.w3.org/2000/svg"><g stroke="currentColor"><path d="M2.5 9h3.513c.253 0 .38 0 .502.03l.049.015c.12.037.228.103.444.236.921.563 1.382.845 1.89.871.068.004.136.004.204 0 .508-.026.969-.308 1.89-.871.216-.133.324-.2.444-.236a.986.986 0 0 1 .05-.014c.12-.031.247-.031.502-.031H15.5v3.5c0 .943 0 1.414-.293 1.707s-.764.293-1.707.293h-9c-.943 0-1.414 0-1.707-.293S2.5 13.443 2.5 12.5z"/><path d="M2.5 10.5V8.167c0-.33 0-.496.051-.65.052-.154.15-.286.349-.55l2-2.667c.294-.393.442-.589.653-.694.21-.106.456-.106.947-.106h5c.49 0 .736 0 .947.106.211.105.359.301.653.694l2 2.667c.198.264.297.396.349.55.051.154.051.32.051.65V10.5"/></g></svg>