<svg width="18" height="18" fill="none" xmlns="http://www.w3.org/2000/svg"><path d="M14.175 4.99l-.43.255.43-.255zm-10.35 0l-.43-.256.43.256zM9 14.412v-.5.5zm3.948-7.194l-2.631 4.824.878.479 2.63-4.824-.877-.479zm-5.265 4.824l-2.63-4.824-.879.48 2.631 4.822.878-.478zM6.37 5h5.262V4H6.369v1zm7.457 2.697c.351-.645.644-1.178.803-1.612.162-.44.238-.91-.024-1.35l-.86.51c.03.05.071.153-.054.495-.128.348-.375.804-.743 1.478l.878.48zM11.63 5c.768 0 1.287.001 1.653.056.36.053.432.14.461.189l.86-.51c-.26-.44-.71-.6-1.174-.668-.457-.068-1.066-.067-1.8-.067v1zM5.052 7.218c-.368-.674-.615-1.13-.742-1.478-.126-.342-.085-.446-.055-.495l-.86-.51c-.262.44-.186.91-.024 1.35.16.434.452.967.803 1.612l.878-.479zM6.37 4c-.734 0-1.343-.001-1.8.067-.463.068-.913.227-1.174.667l.86.51c.029-.049.1-.135.46-.188C5.083 5 5.602 5 6.37 5V4zm3.948 8.042c-.396.725-.666 1.217-.906 1.536-.24.317-.355.334-.411.334v1c.538 0 .913-.339 1.21-.732.295-.392.605-.964.985-1.66l-.878-.478zm-3.512.479c.38.695.69 1.267.986 1.66.296.392.671.73 1.209.73v-1c-.056 0-.172-.016-.41-.333-.241-.319-.511-.811-.907-1.536l-.878.479z" fill="currentColor"/></svg>