<svg width="18" height="18" fill="none" xmlns="http://www.w3.org/2000/svg"><path d="M10.471 13.183l-.257.428.257-.428zm0-8.366l-.257-.428.257.428zm2.522-.921l-.247.435.247-.435zm-6.635 6.819l-.257.429.257-.429zm0-3.43l-.257-.429.257.429zM4.444 9h.5-.5zm6.284 3.754l-4.112-2.468-.515.858 4.113 2.467.514-.857zm-4.112-5.04l4.112-2.468-.514-.857L6.1 6.856l.515.858zM13 6.532v4.936h1V6.532h-1zm-2.786 7.08c.657.393 1.198.72 1.64.903.445.185.927.283 1.385.024l-.493-.87c-.049.028-.156.069-.51-.078-.356-.148-.822-.426-1.508-.837l-.514.857zM13 11.467c0 .8-.001 1.342-.058 1.724-.056.378-.146.449-.196.477l.493.87c.458-.26.621-.724.692-1.2.07-.473.069-1.105.069-1.871h-1zm-2.272-6.222c.686-.411 1.152-.69 1.509-.837.353-.147.46-.106.51-.078l.492-.87c-.458-.26-.94-.16-1.385.024-.442.183-.983.51-1.64.904l.514.857zM14 6.532c0-.766.001-1.398-.069-1.87-.07-.477-.234-.942-.692-1.201l-.493.87c.05.028.14.099.196.477.057.382.058.924.058 1.724h1zm-7.384 3.754c-.653-.391-1.093-.657-1.376-.89-.279-.229-.296-.338-.296-.396h-1c0 .508.301.874.66 1.169.356.291.873.6 1.497.975l.515-.858zM6.1 6.856c-.624.375-1.141.684-1.496.975-.36.295-.661.66-.661 1.169h1c0-.058.017-.167.296-.396.283-.233.723-.499 1.376-.89L6.1 6.856z" fill="currentColor"/></svg>