<svg width="18" height="18" fill="none" xmlns="http://www.w3.org/2000/svg"><path d="M13.555 4.007l-.046 10c-.002.483-.005.796-.037 1.026-.03.216-.077.284-.115.321-.038.038-.106.085-.321.114-.23.03-.543.032-1.027.032H6c-.486 0-.8-.001-1.03-.032-.218-.03-.285-.076-.324-.114-.038-.038-.085-.106-.114-.323-.03-.232-.032-.546-.032-1.031V4c0-.486.001-.8.032-1.03.03-.218.076-.285.114-.324.039-.038.106-.085.323-.114.232-.03.545-.032 1.031-.032h1.009c.087 0 .165.054.195.136.623 1.659 2.97 1.659 3.592 0l-.468-.176.468.176a.209.209 0 0 1 .195-.136h1.064c.488 0 .803.001 1.035.032.218.03.286.077.324.115l.355-.352-.355.352c.038.038.085.107.114.325.03.232.03.547.027 1.035zM7 6.5h4.2M7 9.3h2.333" stroke="currentColor" stroke-linecap="round"/></svg>