<svg fill="none" height="18" width="18" xmlns="http://www.w3.org/2000/svg"><g stroke="currentColor" stroke-linecap="round" stroke-linejoin="round"><path d="M2.5 4.5c0-.943 0-1.414.293-1.707S3.557 2.5 4.5 2.5h9c.943 0 1.414 0 1.707.293s.293.764.293 1.707v9c0 .943 0 1.414-.293 1.707s-.764.293-1.707.293h-9c-.943 0-1.414 0-1.707-.293S2.5 14.443 2.5 13.5z"/><path d="M4.5 9c0-.943 0-1.414.293-1.707S5.557 7 6.5 7s1.414 0 1.707.293S8.5 8.057 8.5 9v2c0 .943 0 1.414-.293 1.707S7.443 13 6.5 13s-1.414 0-1.707-.293S4.5 11.943 4.5 11zM3 5h12m-4 5h1.5M11 13h1.5M11 7h2.5"/></g></svg>