<svg width="18" height="18" fill="none" xmlns="http://www.w3.org/2000/svg"><path d="M2.5 5v7.5c0 .943 0 1.414.293 1.707.293.293.764.293 1.707.293h9c.943 0 1.414 0 1.707-.293.293-.293.293-.764.293-1.707V5" stroke="currentColor"/><path fill-rule="evenodd" clip-rule="evenodd" d="M4 3h10c.943 0 1.414 0 1.707.293C16 3.586 16 4.057 16 5H2c0-.943 0-1.414.293-1.707C2.586 3 3.057 3 4 3zm6 .8v.4a.3.3 0 0 0 .3.3h.4a.3.3 0 0 0 .3-.3v-.4a.3.3 0 0 0-.3-.3h-.4a.3.3 0 0 0-.3.3zm2 .4v-.4a.3.3 0 0 1 .3-.3h.4a.3.3 0 0 1 .3.3v.4a.3.3 0 0 1-.3.3h-.4a.3.3 0 0 1-.3-.3zm2 0v-.4a.3.3 0 0 1 .3-.3h.4a.3.3 0 0 1 .3.3v.4a.3.3 0 0 1-.3.3h-.4a.3.3 0 0 1-.3-.3z" fill="currentColor"/></svg>