<svg width="24" height="24" viewBox="0 0 24 24" fill="none" xmlns="http://www.w3.org/2000/svg">
<path d="M19.489 8.89627C19.375 8.98408 17.3625 10.11 17.3625 12.6137C17.3625 15.5096 19.9234 16.5341 20 16.5595C19.9882 16.6219 19.5932 17.9625 18.6498 19.3285C17.8086 20.5306 16.9301 21.7307 15.5937 21.7307C14.2572 21.7307 13.9133 20.9599 12.3705 20.9599C10.867 20.9599 10.3324 21.7561 9.10994 21.7561C7.88748 21.7561 7.03452 20.6438 6.0538 19.2778C4.91782 17.6737 4 15.1818 4 12.8167C4 9.02311 6.48422 7.0112 8.92912 7.0112C10.2282 7.0112 11.3111 7.85812 12.1268 7.85812C12.9031 7.85812 14.1137 6.96047 15.5917 6.96047C16.1518 6.96047 18.1644 7.0112 19.489 8.89627V8.89627ZM14.8901 5.35445C15.5013 4.63438 15.9337 3.63526 15.9337 2.63613C15.9337 2.49758 15.9219 2.35708 15.8963 2.2439C14.9019 2.28097 13.7187 2.90152 13.0053 3.72307C12.4452 4.35533 11.9224 5.35445 11.9224 6.36724C11.9224 6.51945 11.9479 6.67166 11.9597 6.72044C12.0226 6.73215 12.1248 6.74581 12.227 6.74581C13.1193 6.74581 14.2415 6.15258 14.8901 5.35445Z" fill="currentColor"/>
</svg>
