<svg width="24" height="24" fill="none" xmlns="http://www.w3.org/2000/svg"><g clip-path="url(#clip0_489_191209)"><g clip-path="url(#clip1_489_191209)"><path d="M4.122 13.286c0 4.26 2.96 7.714 7.378 7.714s8-3.058 8-7.714c0-4.656-3.582-7.715-8-7.715h-7m0 0L7.167 3M4.5 5.571l2.667 2.572" stroke="currentColor" stroke-width="2" stroke-linecap="round" stroke-linejoin="round"/></g><path d="M9.5 16.5v-6L8.125 12m7.375-1.5h-3.245l-.625 3.143c.625-.38.78-.643 1.995-.643s1.875.5 1.875 2-1.37 1.5-1.875 1.5c-.505 0-2 0-2-1" stroke="currentColor" stroke-linecap="round" stroke-linejoin="round"/></g><defs><clipPath id="clip0_489_191209"><path fill="currentColor" transform="matrix(-1 0 0 1 24 0)" d="M0 0H24V24H0z"/></clipPath><clipPath id="clip1_489_191209"><path fill="currentColor" transform="matrix(-1 0 0 1 24 0)" d="M0 0H24V24H0z"/></clipPath></defs></svg>