<svg width="24" height="24" fill="none" xmlns="http://www.w3.org/2000/svg"><g clip-path="url(#clip0_489_191211)"><g clip-path="url(#clip1_489_191211)"><path d="M4.122 13.286c0 4.26 2.96 7.714 7.378 7.714s8-3.058 8-7.714c0-4.656-3.582-7.715-8-7.715h-7m0 0L7.167 3M4.5 5.571l2.667 2.572" stroke="currentColor" stroke-width="2" stroke-linecap="round" stroke-linejoin="round"/></g><path d="M11 16.5H8l2.25-3.1C12.5 10.303 8 9.528 8 11.852m5 1.649c0-2.31.5-3 1.5-3s1.5.81 1.5 3-.5 3-1.5 3-1.5-.69-1.5-3z" stroke="currentColor" stroke-linecap="round" stroke-linejoin="round"/></g><defs><clipPath id="clip0_489_191211"><path fill="currentColor" transform="matrix(-1 0 0 1 24 0)" d="M0 0H24V24H0z"/></clipPath><clipPath id="clip1_489_191211"><path fill="currentColor" transform="matrix(-1 0 0 1 24 0)" d="M0 0H24V24H0z"/></clipPath></defs></svg>