<svg width="24" height="24" fill="none" xmlns="http://www.w3.org/2000/svg"><path fill-rule="evenodd" clip-rule="evenodd" d="M3.086 3.086C2.5 3.672 2.5 4.614 2.5 6.5v5c0 1.886 0 2.828.586 3.414.586.586 1.528.586 3.414.586h2v2c0 1.886 0 2.828.586 3.414.586.586 1.528.586 3.414.586h5c1.886 0 2.828 0 3.414-.586.586-.586.586-1.528.586-3.414v-5c0-1.886 0-2.828-.586-3.414C20.328 8.5 19.386 8.5 17.5 8.5h-2v-2c0-1.886 0-2.828-.586-3.414C14.328 2.5 13.386 2.5 11.5 2.5h-5c-1.886 0-2.828 0-3.414.586z" fill="currentColor"/><path d="M8.5 15.5H9V15h-.5v.5zm7-7H15V9h.5v-.5zm-.586-5.414l-.353.353.353-.353zM3 6.5c0-.957.001-1.624.069-2.128.066-.49.186-.748.37-.933l-.707-.707c-.401.402-.574.907-.654 1.507C1.998 4.825 2 5.57 2 6.5h1zm0 5v-5H2v5h1zm.44 3.06c-.185-.184-.305-.443-.371-.932C3 13.124 3 12.457 3 11.5H2c0 .929-.001 1.675.078 2.261.08.6.253 1.106.654 1.507l.707-.707zM6.5 15c-.957 0-1.624-.001-2.128-.069-.49-.065-.748-.186-.933-.37l-.707.707c.402.401.907.574 1.507.654.586.08 1.332.078 2.261.078v-1zm2 0h-2v1h2v-1zm.5 2.5v-2H8v2h1zm.44 3.06c-.185-.184-.305-.443-.371-.932C9 19.124 9 18.457 9 17.5H8c0 .929-.001 1.675.078 2.261.08.6.253 1.105.654 1.507l.707-.707zm3.06.44c-.957 0-1.624-.001-2.128-.069-.49-.066-.748-.186-.933-.37l-.707.707c.402.401.907.574 1.507.654.585.08 1.332.078 2.261.078v-1zm5 0h-5v1h5v-1zm3.06-.44c-.184.185-.443.306-.932.371C19.124 21 18.457 21 17.5 21v1c.929 0 1.675.001 2.261-.078.6-.08 1.105-.253 1.507-.654l-.707-.707zM21 17.5c0 .957-.001 1.624-.069 2.128-.066.49-.186.748-.37.933l.707.707c.401-.402.574-.907.654-1.507.08-.585.078-1.332.078-2.261h-1zm0-5v5h1v-5h-1zm-.44-3.06c.185.184.306.443.371.932.068.504.069 1.171.069 2.128h1c0-.929.001-1.675-.078-2.261-.08-.6-.253-1.105-.654-1.507l-.707.707zM17.5 9c.957 0 1.624.001 2.128.069.49.066.748.186.933.37l.707-.707c-.402-.401-.907-.574-1.507-.654C19.176 7.998 18.43 8 17.5 8v1zm-2 0h2V8h-2v1zM15 6.5v2h1v-2h-1zm-.44-3.06c.185.184.306.443.371.932C15 4.876 15 5.543 15 6.5h1c0-.929.001-1.675-.078-2.261-.08-.6-.253-1.105-.654-1.507l-.707.707zM11.5 3c.957 0 1.624.001 2.128.069.49.066.748.186.933.37l.707-.707c-.402-.401-.907-.574-1.507-.654C13.176 1.998 12.43 2 11.5 2v1zm-5 0h5V2h-5v1zm-3.06.44c.184-.185.443-.305.932-.371C4.876 3 5.543 3 6.5 3V2c-.929 0-1.675-.001-2.261.078-.6.08-1.105.253-1.507.654l.707.707z" fill="currentColor"/></svg>