<svg width="24" height="24" fill="none" xmlns="http://www.w3.org/2000/svg"><g clip-path="url(#clip0_489_191287)"><g clip-path="url(#clip1_489_191287)"><circle cx="12" cy="12" r="9" transform="rotate(-180 12 12)" stroke="currentColor" stroke-width="2"/><path d="M13.696 14.286l1.392-2.226c.845-1.353 1.268-2.03.982-2.545C15.785 9 14.987 9 13.392 9h-2.784c-1.595 0-2.393 0-2.678.515-.286.515.137 1.192.982 2.545l1.392 2.226c.761 1.218 1.142 1.827 1.696 1.827s.935-.609 1.696-1.827z" fill="currentColor"/></g></g><defs><clipPath id="clip0_489_191287"><path fill="currentColor" d="M0 0H24V24H0z"/></clipPath><clipPath id="clip1_489_191287"><path fill="currentColor" transform="rotate(-180 12 12)" d="M0 0H24V24H0z"/></clipPath></defs></svg>