<svg width="24" height="24" fill="none" xmlns="http://www.w3.org/2000/svg"><g clip-path="url(#clip0_489_191288)"><g clip-path="url(#clip1_489_191288)"><circle cx="12" cy="12" r="9" transform="rotate(-90 12 12)" stroke="currentColor" stroke-width="2"/><path d="M9.714 13.696l2.226 1.392c1.353.845 2.03 1.268 2.545.982.515-.285.515-1.083.515-2.678v-2.784c0-1.595 0-2.393-.515-2.678-.515-.286-1.192.137-2.545.982l-2.226 1.392c-1.218.761-1.827 1.142-1.827 1.696s.609.935 1.827 1.696z" fill="currentColor"/></g></g><defs><clipPath id="clip0_489_191288"><path fill="currentColor" d="M0 0H24V24H0z"/></clipPath><clipPath id="clip1_489_191288"><path fill="currentColor" transform="rotate(-90 12 12)" d="M0 0H24V24H0z"/></clipPath></defs></svg>