<svg width="24" height="24" fill="none" xmlns="http://www.w3.org/2000/svg"><g clip-path="url(#clip0_489_191303)"><path d="M8.4 8.4h7.2m-7.2 0v7.2m0-7.2V5.7a2.7 2.7 0 1 0-5.4 0 2.7 2.7 0 0 0 2.7 2.7h2.7zm7.2 0v7.2m0-7.2V5.7a2.7 2.7 0 1 1 5.4 0 2.7 2.7 0 0 1-2.7 2.7h-2.7zm-7.2 7.2h7.2m-7.2 0H5.7a2.7 2.7 0 1 0 0 5.4 2.7 2.7 0 0 0 2.7-2.7v-2.7zm7.2 0h2.7a2.7 2.7 0 1 1 0 5.4 2.7 2.7 0 0 1-2.7-2.7v-2.7z" stroke="currentColor" stroke-width="2"/></g><defs><clipPath id="clip0_489_191303"><path fill="currentColor" d="M0 0H24V24H0z"/></clipPath></defs></svg>