<svg width="24" height="24" fill="none" xmlns="http://www.w3.org/2000/svg"><g clip-path="url(#clip0_489_191304)"><path d="M18 12v5h2v-5h-2zM6 17v-5H4v5h2zm-1-4h7v-2H5v2zm7 0h7v-2h-7v2zm1-1V7h-2v5h2zm-7 0V7H4v5h2zm14 0V7h-2v5h2zm-9 0v5h2v-5h-2z" fill="currentColor"/><path d="M14 5a2 2 0 1 1-4 0 2 2 0 0 1 4 0zM7 5a2 2 0 1 1-4 0 2 2 0 0 1 4 0zm14 0a2 2 0 1 1-4 0 2 2 0 0 1 4 0zm-7 14a2 2 0 1 1-4 0 2 2 0 0 1 4 0zm-7 0a2 2 0 1 1-4 0 2 2 0 0 1 4 0zm14 0a2 2 0 1 1-4 0 2 2 0 0 1 4 0z" stroke="currentColor" stroke-width="2"/></g><defs><clipPath id="clip0_489_191304"><path fill="currentColor" d="M0 0H24V24H0z"/></clipPath></defs></svg>