<svg width="24" height="24" fill="none" xmlns="http://www.w3.org/2000/svg"><g clip-path="url(#clip0_489_191305)"><path d="M12 12v9" stroke="currentColor" stroke-width="2" stroke-linecap="round" stroke-linejoin="round"/><circle cx="12" cy="12" r="2" fill="currentColor"/><path d="M5.573 18A8.707 8.707 0 0 1 3 11.823C3 6.95 7.03 3 12 3s9 3.95 9 8.823A8.707 8.707 0 0 1 18.427 18" stroke="currentColor" stroke-width="2" stroke-linecap="round"/><path d="M8.5 15.5C7.616 14.651 7 13.283 7 12c0-2.599 2-5 5-5s5 2.401 5 5c0 1.283-.474 2.651-1.359 3.5" stroke="currentColor" stroke-width="2" stroke-linecap="round"/></g><defs><clipPath id="clip0_489_191305"><path fill="currentColor" d="M0 0H24V24H0z"/></clipPath></defs></svg>