<svg width="24" height="24" fill="none" xmlns="http://www.w3.org/2000/svg"><g clip-path="url(#clip0_489_191321)"><g clip-path="url(#clip1_489_191321)" stroke="currentColor" stroke-width="2"><path d="M5 7v10c0 1.886 0 2.828.586 3.414C6.172 21 7.114 21 9 21h6c1.886 0 2.828 0 3.414-.586C19 19.828 19 18.886 19 17V9.281c0-.877 0-1.316-.173-1.704-.173-.388-.499-.682-1.151-1.269L15.14 4.027c-.564-.508-.846-.761-1.192-.894S13.224 3 12.465 3H9c-1.886 0-2.828 0-3.414.586C5 4.172 5 5.114 5 7z"/><path d="M13 3v2c0 1.886 0 2.828.586 3.414C14.172 9 15.114 9 17 9h2"/></g><path d="M11.447 16.276l-.335-.67.335.67zm-1.21.34l-.394.638.394-.638zm4.222-1.845l.335.67-.335-.67zm1.046-.802l.748.047-.748-.047zm-4.366-2.308l3.011 2.007.832-1.248-3.011-2.008-.832 1.248zm2.984 2.439l-3.011 1.506.67 1.341 3.012-1.506-.67-1.341zm-3.373 1.282v-3.514h-1.5v3.514h1.5zm1.22-4.97c-.32-.214-.632-.424-.898-.55-.267-.125-.707-.273-1.162-.03l.708 1.323c-.19.102-.328-.003-.187.064.142.067.344.2.708.442l.832-1.249zm-1.22 1.456c0-.436.002-.678.025-.833.023-.154.034.018-.157.12L9.91 9.832c-.455.244-.576.692-.619.984-.043.291-.041.667-.041 1.052h1.5zm.362 3.738c-.165.082-.297.148-.412.201a2.337 2.337 0 0 1-.245.103c-.056.018-.053.01-.017.01.051 0 .124.016.193.058l-.788 1.276c.4.248.81.17 1.078.082.257-.084.56-.238.862-.389l-.671-1.341zm-1.862-.224c0 .338-.002.676.038.944.041.279.155.681.555.928l.788-1.276c.07.043.115.102.138.147.017.033.011.038.002-.019a2.33 2.33 0 0 1-.018-.266 18.58 18.58 0 0 1-.003-.458h-1.5zm4.9-1.714c.162.108.293.195.402.272.11.078.18.133.226.175.047.042.04.046.022.013a.386.386 0 0 1-.044-.205l1.497.093c.03-.49-.255-.82-.469-1.014-.208-.188-.504-.383-.802-.582l-.832 1.248zm.644 1.773c.32-.16.638-.316.868-.478.236-.165.56-.458.591-.947l-1.497-.093a.388.388 0 0 1 .07-.2c.021-.029.028-.025-.024.012-.05.035-.127.08-.246.145-.118.063-.259.133-.433.22l.671 1.341z" fill="currentColor"/></g><defs><clipPath id="clip0_489_191321"><path fill="currentColor" d="M0 0H24V24H0z"/></clipPath><clipPath id="clip1_489_191321"><path fill="currentColor" d="M0 0H24V24H0z"/></clipPath></defs></svg>