<svg width="24" height="24" fill="none" xmlns="http://www.w3.org/2000/svg"><g clip-path="url(#clip0_489_191319)"><g clip-path="url(#clip1_489_191319)" stroke="currentColor" stroke-width="2"><path d="M5 7v10c0 1.886 0 2.828.586 3.414C6.172 21 7.114 21 9 21h6c1.886 0 2.828 0 3.414-.586C19 19.828 19 18.886 19 17V9.281c0-.877 0-1.316-.173-1.704-.173-.388-.499-.682-1.151-1.269L15.14 4.027c-.564-.508-.846-.761-1.192-.894S13.224 3 12.465 3H9c-1.886 0-2.828 0-3.414.586C5 4.172 5 5.114 5 7z"/><path d="M13 3v2c0 1.886 0 2.828.586 3.414C14.172 9 15.114 9 17 9h2"/></g><path d="M19 15.5l-.649-.556c-1.351-1.158-2.027-1.737-2.822-1.707-.796.03-1.425.659-2.682 1.916L12 16m1.5 1.5l-.839-.839c-1.265-1.265-1.898-1.898-2.704-1.922-.806-.024-1.468.564-2.794 1.74-.711.631-1.36 1.217-1.663 1.521" stroke="currentColor" stroke-width="2" stroke-linecap="round" stroke-linejoin="round"/><path d="M10.5 9a1.5 1.5 0 1 1-3 0 1.5 1.5 0 0 1 3 0z" fill="currentColor"/></g><defs><clipPath id="clip0_489_191319"><path fill="currentColor" d="M0 0H24V24H0z"/></clipPath><clipPath id="clip1_489_191319"><path fill="currentColor" d="M0 0H24V24H0z"/></clipPath></defs></svg>