<svg width="24" height="24" fill="none" xmlns="http://www.w3.org/2000/svg"><g clip-path="url(#clip0_489_191318)"><g clip-path="url(#clip1_489_191318)" stroke="currentColor" stroke-width="2"><path d="M5 7v10c0 1.886 0 2.828.586 3.414C6.172 21 7.114 21 9 21h6c1.886 0 2.828 0 3.414-.586C19 19.828 19 18.886 19 17V9.281c0-.877 0-1.316-.173-1.704-.173-.388-.499-.682-1.151-1.269L15.14 4.027c-.564-.508-.846-.761-1.192-.894S13.224 3 12.465 3H9c-1.886 0-2.828 0-3.414.586C5 4.172 5 5.114 5 7z"/><path d="M13 3v2c0 1.886 0 2.828.586 3.414C14.172 9 15.114 9 17 9h2"/></g><path d="M10 12.75a.75.75 0 0 0 0-1.5v1.5zm0 6a.75.75 0 0 0 0-1.5v1.5zm4-7.5a.75.75 0 0 0 0 1.5v-1.5zm0 6a.75.75 0 0 0 0 1.5v-1.5zm1.146-1.396l-.53-.53.53.53zm.5-1.208l.53-.53-.53.53zm0 .708l-.53-.53.53.53zm-.5-1.208l-.53.53.53-.53zm-6.292 1.708l.53-.53-.53.53zm-.5-.5l-.53.53.53-.53zm.5-1.208l-.53-.53.53.53zM10 11.25h-.5v1.5h.5v-1.5zM8.25 12.5v1.293h1.5V12.5h-1.5zm.073 1.116l-.5.5 1.06 1.06.5-.5-1.06-1.06zm-.5 2.268l.5.5 1.06-1.06-.5-.5-1.06 1.06zm.427.323V17.5h1.5v-1.293h-1.5zM9.5 18.75h.5v-1.5h-.5v1.5zm4.5-6h.5v-1.5H14v1.5zm.25-.25v1.293h1.5V12.5h-1.5zm.366 2.177l.5.5 1.06-1.06-.5-.5-1.06 1.06zm.5.146l-.5.5 1.06 1.06.5-.5-1.06-1.06zm-.866 1.384V17.5h1.5v-1.293h-1.5zm.25 1.043H14v1.5h.5v-1.5zm.116-1.927a1.25 1.25 0 0 0-.366.884h1.5a.25.25 0 0 1-.073.177l-1.06-1.06zm.5-.146a.25.25 0 0 1 0-.354l1.06 1.06a1.25 1.25 0 0 0 0-1.767l-1.06 1.06zm-.866-1.384c0 .331.132.65.366.884l1.06-1.06a.25.25 0 0 1 .074.176h-1.5zm.25-1.043a.25.25 0 0 1-.25-.25h1.5c0-.69-.56-1.25-1.25-1.25v1.5zM8.25 17.5c0 .69.56 1.25 1.25 1.25v-1.5a.25.25 0 0 1 .25.25h-1.5zm.073-1.116a.25.25 0 0 1-.073-.177h1.5c0-.331-.132-.65-.366-.884l-1.06 1.06zm-.5-2.268a1.25 1.25 0 0 0 0 1.768l1.06-1.06a.25.25 0 0 1 0 .353l-1.06-1.06zm.427-.323a.25.25 0 0 1 .073-.177l1.06 1.06a1.25 1.25 0 0 0 .367-.883h-1.5zm6 3.707a.25.25 0 0 1 .25-.25v1.5c.69 0 1.25-.56 1.25-1.25h-1.5zM9.5 11.25c-.69 0-1.25.56-1.25 1.25h1.5a.25.25 0 0 1-.25.25v-1.5z" fill="currentColor"/></g><defs><clipPath id="clip0_489_191318"><path fill="currentColor" d="M0 0H24V24H0z"/></clipPath><clipPath id="clip1_489_191318"><path fill="currentColor" d="M0 0H24V24H0z"/></clipPath></defs></svg>