<svg width="24" height="24" fill="none" xmlns="http://www.w3.org/2000/svg"><g clip-path="url(#clip0_489_191320)" stroke="currentColor" stroke-width="2"><g clip-path="url(#clip1_489_191320)"><path d="M5 7v10c0 1.886 0 2.828.586 3.414C6.172 21 7.114 21 9 21h6c1.886 0 2.828 0 3.414-.586C19 19.828 19 18.886 19 17V9.281c0-.877 0-1.316-.173-1.704-.173-.388-.499-.682-1.151-1.269L15.14 4.027c-.564-.508-.846-.761-1.192-.894S13.224 3 12.465 3H9c-1.886 0-2.828 0-3.414.586C5 4.172 5 5.114 5 7z"/><path d="M13 3v2c0 1.886 0 2.828.586 3.414C14.172 9 15.114 9 17 9h2"/></g><path d="M9 17.5h3m-3-5h6m-6-5h1" stroke-linecap="round" stroke-linejoin="round"/></g><defs><clipPath id="clip0_489_191320"><path fill="currentColor" d="M0 0H24V24H0z"/></clipPath><clipPath id="clip1_489_191320"><path fill="currentColor" d="M0 0H24V24H0z"/></clipPath></defs></svg>