<svg width="24" height="24" fill="none" xmlns="http://www.w3.org/2000/svg"><g clip-path="url(#clip0_489_191358)" stroke="currentColor"><path d="M21 12l-5.5 5.5" stroke-width="2" stroke-linecap="round"/><path d="M14 19.95c0 .792-1.454 1.268-3.878.95-.532-.069.84-.316.97-.95.128-.633.408-.95 1.211-.95.803 0 1.697.425 1.697.95z" fill="currentColor"/><path d="M7.5 17H7c-1.886 0-2.828 0-3.414-.586C3 15.828 3 14.886 3 13V8c0-1.886 0-2.828.586-3.414C4.172 4 5.114 4 7 4h6c1.886 0 2.828 0 3.414.586C17 5.172 17 6.114 17 8v1" stroke-width="2" stroke-linecap="round"/><path d="M10 13l-2.036-1.842c-.692-.626-1.038-.938-1.466-.938-.427 0-.773.313-1.464.938L3 13m14-4l-2.67-1.335c-.642-.32-.963-.481-1.298-.441-.336.04-.602.27-1.133.73l-3.526 3.054" stroke-width="2" stroke-linecap="round" stroke-linejoin="round"/></g><defs><clipPath id="clip0_489_191358"><path fill="currentColor" d="M0 0H24V24H0z"/></clipPath></defs></svg>