<svg width="24" height="24" fill="none" xmlns="http://www.w3.org/2000/svg"><path d="M15.5 14.5s-3.679-.378-5.5-1c-2.455-.839-4-2-4-2" stroke="currentColor" stroke-width="2"/><path d="M3.5 6.5L4 7m-2 4h.5M2 15.5h.5" stroke="currentColor" stroke-width="2" stroke-linecap="round"/><path d="M21.042 14c-1.633.852-4.144.5-7 .5-1.633 0-3.552 4.278-6 3C5.593 16.222 5.5 16.408 5.5 13c0-4.235 3.042-7 7.542-7 3.909 0 6.795 3.296 7.5 5 .705 1.704 2.132 2.148.5 3z" stroke="currentColor" stroke-width="2"/></svg>