<svg width="24" height="24" fill="none" xmlns="http://www.w3.org/2000/svg"><path d="M2.28 15.306a1 1 0 1 0 1.44 1.388l-1.44-1.388zM21 8h1a1 1 0 0 0-1-1v1zm-4-1a1 1 0 1 0 0 2V7zm3 5a1 1 0 1 0 2 0h-2zm-7.056 3.09l.17-.986-.17.985zm.684 0l.17.985-.17-.986zM7.8 11.576l.17.986-.17-.986zm.684 0l-.171.986.17-.986zM3.72 16.694l2.571-2.666-1.44-1.389-2.57 2.667 1.439 1.388zm12.857-2.666l5.143-5.334-1.44-1.388-5.143 5.333 1.44 1.389zM21 7h-4v2h4V7zm-1 1v4h2V8h-2zM9.994 14.027c.514.533.953.99 1.349 1.32.41.343.863.63 1.43.728l.342-1.971c-.077-.013-.21-.057-.49-.291-.294-.245-.647-.61-1.19-1.174l-1.44 1.389zm5.143-1.388c-.544.564-.897.929-1.19 1.174-.28.234-.413.278-.49.291l.342 1.97c.567-.098 1.02-.384 1.43-.726.396-.33.835-.789 1.348-1.32l-1.44-1.389zm-2.364 3.436c.34.059.686.059 1.026 0l-.342-1.971c-.113.02-.23.02-.342 0l-.342 1.97zM6.29 14.027c.544-.565.897-.929 1.191-1.174.28-.234.413-.278.49-.291l-.342-1.97c-.567.098-1.02.384-1.43.726-.396.33-.835.788-1.348 1.32l1.44 1.389zm5.143-1.389c-.513-.532-.952-.99-1.348-1.32-.41-.342-.863-.628-1.43-.727l-.342 1.97c.077.014.21.058.49.292.293.245.647.61 1.19 1.174l1.44-1.389zm-3.462-.076a.997.997 0 0 1 .342 0l.342-1.97a2.997 2.997 0 0 0-1.026 0l.342 1.97z" fill="currentColor"/></svg>