<svg width="24" height="24" fill="none" xmlns="http://www.w3.org/2000/svg"><g clip-path="url(#clip0_489_191395)"><path d="M16 10H8c-1.886 0-2.828 0-3.414.586C4 11.172 4 12.114 4 14v3c0 1.886 0 2.828.586 3.414C5.172 21 6.114 21 8 21h8c1.886 0 2.828 0 3.414-.586C20 19.828 20 18.886 20 17v-3c0-1.886 0-2.828-.586-3.414C18.828 10 17.886 10 16 10zm-8 0V6.5c0-3 2.438-3.5 4-3.5 1.562 0 4 .5 4 3v4" stroke="currentColor" stroke-width="2"/></g><defs><clipPath id="clip0_489_191395"><path fill="currentColor" d="M0 0H24V24H0z"/></clipPath></defs></svg>