<svg width="24" height="24" fill="none" xmlns="http://www.w3.org/2000/svg"><g clip-path="url(#clip0_489_191400)" stroke="currentColor" stroke-width="2"><path d="M3 7c0-1.886 0-2.828.586-3.414C4.172 3 5.114 3 7 3h10c1.886 0 2.828 0 3.414.586C21 4.172 21 5.114 21 7v10c0 1.886 0 2.828-.586 3.414C19.828 21 18.886 21 17 21H7c-1.886 0-2.828 0-3.414-.586C3 19.828 3 18.886 3 17V7z"/><path d="M3 15.5h18m-12-7v7M15 3v5.5m0 7V21M3 8.5h18" stroke-linecap="round"/></g><defs><clipPath id="clip0_489_191400"><path fill="currentColor" d="M0 0H24V24H0z"/></clipPath></defs></svg>