<svg width="24" height="24" fill="none" xmlns="http://www.w3.org/2000/svg"><g clip-path="url(#clip0_489_191405)" stroke="currentColor" stroke-width="2"><rect x="3" y="6" width="18" height="12" rx="2"/><path d="M8 18c0-2.667-1.333-4-4-4m0-4c2.667 0 4-1.333 4-4m8 0c0 2.667 1.333 4 4 4m0 4c-2.667 0-4 1.333-4 4"/><path d="M14 12a2 2 0 1 1-4 0 2 2 0 0 1 4 0z" stroke-linecap="round" stroke-linejoin="round"/></g><defs><clipPath id="clip0_489_191405"><path fill="currentColor" d="M0 0H24V24H0z"/></clipPath></defs></svg>