<svg width="24" height="24" fill="none" xmlns="http://www.w3.org/2000/svg"><g clip-path="url(#clip0_489_191513)"><path d="M19.737 8.737h1v-2h-1v2zM10.5 12h1v-2h-1v2zm9.237-5.263A3.737 3.737 0 0 1 16 3h-2a5.737 5.737 0 0 0 5.737 5.737v-2zM14 3v12.5h2V3h-2zm0 12.5a3.5 3.5 0 0 1-3.5 3.5v2a5.5 5.5 0 0 0 5.5-5.5h-2zM10.5 19A3.5 3.5 0 0 1 7 15.5H5a5.5 5.5 0 0 0 5.5 5.5v-2zM7 15.5a3.5 3.5 0 0 1 3.5-3.5v-2A5.5 5.5 0 0 0 5 15.5h2z" fill="currentColor"/></g><defs><clipPath id="clip0_489_191513"><path fill="currentColor" d="M0 0H24V24H0z"/></clipPath></defs></svg>