<svg width="24" height="24" fill="none" xmlns="http://www.w3.org/2000/svg"><path d="M14.48 15.456l-.733-.68.733.68zM8.545 9.52l-.68-.733.68.733zM8.4 9.03l-.099-.995.099.995zm.636.098l.564.826-.564-.826zm5.836 5.836l.826.563-.826-.563zm-.826-.564a3.23 3.23 0 0 1-.3.375l1.467 1.36c.176-.19.339-.393.485-.608L14.046 14.4zm-.3.375A3.188 3.188 0 0 1 11.4 15.8v2a5.189 5.189 0 0 0 3.813-1.665l-1.466-1.36zM11.4 15.8a3.2 3.2 0 0 1-3.2-3.2h-2a5.2 5.2 0 0 0 5.2 5.2v-2zm-3.2-3.2c0-.927.393-1.761 1.025-2.347l-1.36-1.466A5.189 5.189 0 0 0 6.2 12.6h2zm1.025-2.347c.117-.109.242-.209.375-.3L8.473 8.303a5.22 5.22 0 0 0-.609.485l1.36 1.466zm-.726-.228C8.663 10.008 8.83 10 9 10V8a7.07 7.07 0 0 0-.699.035l.198 1.99zM4 15a5 5 0 0 1 4.499-4.975L8.3 8.035A7 7 0 0 0 2 15h2zm5 5a5 5 0 0 1-5-5H2a7 7 0 0 0 7 7v-2zm5-5a5 5 0 0 1-5 5v2a7 7 0 0 0 7-7h-2zM9.6 9.954A1.07 1.07 0 0 0 9 8v2a.93.93 0 1 1-.527-1.698L9.6 9.954zm6.098 5.573A.93.93 0 0 1 14 15h2a1.07 1.07 0 1 0-1.954-.6l1.652 1.127z" fill="currentColor"/><path d="M19 7.5v4m-2-2h4M12 3v1.5m0 0V6m0-1.5h-1.5m1.5 0h1.5" stroke="currentColor" stroke-width="2" stroke-linecap="round" stroke-linejoin="round"/></svg>