<svg width="24" height="24" fill="none" xmlns="http://www.w3.org/2000/svg"><g clip-path="url(#clip0_489_191436)" stroke="currentColor" stroke-width="2"><path d="M18 2H6c-1.886 0-2.828 0-3.414.586C2 3.172 2 4.114 2 6v12c0 1.886 0 2.828.586 3.414C3.172 22 4.114 22 6 22h12c1.886 0 2.828 0 3.414-.586C22 20.828 22 19.886 22 18V6c0-1.886 0-2.828-.586-3.414C20.828 2 19.886 2 18 2z"/><path d="M12 15.846L9.827 13.73c-1.335-1.3-2.003-1.951-2.83-1.951-.825 0-1.493.65-2.827 1.952L2 15.846m20-3.516l-3.145-3.056c-1.346-1.308-2.02-1.962-2.85-1.958-.831.005-1.497.666-2.83 1.99L9.677 12.78" stroke-linecap="round" stroke-linejoin="round"/></g><defs><clipPath id="clip0_489_191436"><path fill="currentColor" d="M0 0H24V24H0z"/></clipPath></defs></svg>