<svg width="24" height="24" fill="none" xmlns="http://www.w3.org/2000/svg"><g clip-path="url(#clip0_489_191459)" stroke="currentColor" stroke-width="2"><path d="M9 12c0-.932 0-1.398.152-1.765a2 2 0 0 1 1.083-1.083C10.602 9 11.068 9 12 9c.932 0 1.398 0 1.765.152a2 2 0 0 1 1.083 1.083C15 10.602 15 11.068 15 12c0 .932 0 1.398-.152 1.765a2 2 0 0 1-1.083 1.083C13.398 15 12.932 15 12 15c-.932 0-1.398 0-1.765-.152a2 2 0 0 1-1.083-1.083C9 13.398 9 12.932 9 12z"/><circle cx="18.5" cy="5.5" r="2.5"/><circle cx="18.5" cy="18.5" r="2.5"/><circle cx="5.5" cy="18.5" r="2.5"/><circle cx="5.5" cy="5.5" r="2.5"/><path d="M7.5 7.5l2 2m-2 7L9 15m7.5 1.5L15 15m0-6l1.5-1.5" stroke-linecap="square"/></g><defs><clipPath id="clip0_489_191459"><path fill="currentColor" d="M0 0H24V24H0z"/></clipPath></defs></svg>