<svg width="24" height="24" fill="none" xmlns="http://www.w3.org/2000/svg"><path d="M21 12a9 9 0 1 1-18 0 9 9 0 0 1 18 0z" stroke="currentColor" stroke-width="2"/><path d="M6.353 7.991a.85.85 0 0 0 .482 1.63l-.482-1.63zm10.9 2.614a.85.85 0 0 0 .81-1.495l-.81 1.495zM6.593 8.807l.241.815a1.84 1.84 0 0 1 .081-.022 13.32 13.32 0 0 1 1.388-.259 17.254 17.254 0 0 1 3.908-.061l.164-1.692a18.953 18.953 0 0 0-4.295.068c-.53.07-.953.152-1.248.217a9.673 9.673 0 0 0-.465.115l-.009.002h-.003l-.001.001.24.816zm5.618.473c1.594.155 2.87.494 3.742.792.436.149.77.286.99.385a6.848 6.848 0 0 1 .31.148h.002-.001l.404-.747.405-.748h-.002l-.003-.002-.007-.004-.025-.013a8.488 8.488 0 0 0-.39-.186 13.481 13.481 0 0 0-1.134-.442 18.332 18.332 0 0 0-4.127-.875l-.164 1.692zm-5.305 1.945a.75.75 0 1 0 .45 1.43l-.45-1.43zm9.278 2.439a.75.75 0 1 0 .752-1.298l-.752 1.298zM7.131 11.94l.224.716h-.001a.83.83 0 0 1 .063-.018 10.24 10.24 0 0 1 1.122-.222c.778-.11 1.89-.188 3.21-.06l.146-1.493a15.183 15.183 0 0 0-3.565.068 11.738 11.738 0 0 0-1.31.26 4.658 4.658 0 0 0-.102.03l-.008.002-.002.001a.02.02 0 0 0-.002 0l.225.716zm4.619.416c1.307.127 2.426.459 3.217.759a11.067 11.067 0 0 1 1.15.512l.055.03.012.006.001.001.375-.65.376-.649h-.002l-.002-.002-.007-.004-.022-.012a5.86 5.86 0 0 0-.364-.188 12.59 12.59 0 0 0-1.04-.447 14.115 14.115 0 0 0-3.604-.849l-.145 1.493zm-4.504 1.959a.6.6 0 1 0 .306 1.16l-.306-1.16zm8.206 2.064a.6.6 0 1 0 .665-1l-.665 1zm-8.053-1.484l.153.58h.002l.013-.004a12.354 12.354 0 0 1 1.166-.207 14.11 14.11 0 0 1 2.955-.067L11.79 14a15.312 15.312 0 0 0-4.174.23 9.024 9.024 0 0 0-.34.076l-.02.005a.451.451 0 0 0-.007.002h-.002l.152.58zm4.29.302a9.28 9.28 0 0 1 2.755.674 7.933 7.933 0 0 1 .954.474l.045.028.009.006h0l.332-.5a90.113 90.113 0 0 0 .332-.5l-.003-.002-.006-.003-.019-.013a6.278 6.278 0 0 0-.305-.179 9.107 9.107 0 0 0-.878-.419 10.481 10.481 0 0 0-3.115-.762l-.102 1.196z" fill="currentColor"/></svg>