<svg width="24" height="24" fill="none" xmlns="http://www.w3.org/2000/svg"><g clip-path="url(#clip0_489_191492)" stroke="currentColor" stroke-width="2"><path d="M11.979 18.622v-5.708M4.844 21s1.427-1.903 7.135-1.903c5.707 0 8.085 1.903 8.085 1.903" stroke-linecap="round"/><path d="M4.085 3.19c.944-.944 3.622.204 5.98 2.563 2.36 2.36 3.508 5.037 2.564 5.98-.944.944-3.621-.203-5.98-2.562C4.288 6.81 3.14 4.134 4.084 3.19z"/><path d="M12.023 12.121c1.24-.265 2.913-1.287 4.45-2.825 2.36-2.36 3.507-5.037 2.563-5.98-.944-.944-3.621.203-5.98 2.563-.461.46-.876.934-1.238 1.403" stroke-linecap="round"/></g><defs><clipPath id="clip0_489_191492"><path fill="currentColor" d="M0 0H24V24H0z"/></clipPath></defs></svg>