<svg width="24" height="24" fill="none" xmlns="http://www.w3.org/2000/svg"><g clip-path="url(#clip0_489_191498)" stroke="currentColor" stroke-width="2"><path d="M5 7v10c0 1.886 0 2.828.586 3.414C6.172 21 7.114 21 9 21h6c1.886 0 2.828 0 3.414-.586C19 19.828 19 18.886 19 17V7c0-1.886 0-2.828-.586-3.414C17.828 3 16.886 3 15 3H9c-1.886 0-2.828 0-3.414.586C5 4.172 5 5.114 5 7z"/><path d="M9.5 15.5H12m-2.5-4h5m-5-4h5" stroke-linecap="round" stroke-linejoin="round"/></g><defs><clipPath id="clip0_489_191498"><path fill="currentColor" d="M0 0H24V24H0z"/></clipPath></defs></svg>