<svg width="24" height="24" fill="none" xmlns="http://www.w3.org/2000/svg"><g clip-path="url(#clip0_489_191508)" stroke="currentColor" stroke-linecap="round"><path d="M12.9 19H7c-1.886 0-2.828 0-3.414-.586C3 17.828 3 16.886 3 15V9c0-1.886 0-2.828.586-3.414C4.172 5 5.114 5 7 5h10c1.886 0 2.828 0 3.414.586C21 6.172 21 7.114 21 9v2" stroke-width="2" stroke-linejoin="round"/><path d="M18 13v6m3-3h-6" stroke-width="2"/><path d="M11.77 5v14m1.845-5H3m18-4H3"/></g><defs><clipPath id="clip0_489_191508"><path fill="currentColor" d="M0 0H24V24H0z"/></clipPath></defs></svg>