<svg width="24" height="24" fill="none" xmlns="http://www.w3.org/2000/svg"><g clip-path="url(#clip0_489_191509)" stroke="currentColor"><path d="M17 5H7c-1.886 0-2.828 0-3.414.586C3 6.172 3 7.114 3 9v6c0 1.886 0 2.828.586 3.414C4.172 19 5.114 19 7 19h10c1.886 0 2.828 0 3.414-.586C21 17.828 21 16.886 21 15V9c0-1.886 0-2.828-.586-3.414C19.828 5 18.886 5 17 5z" stroke-width="2"/><path d="M11.77 5v14M21 14H3m18-4H3" stroke-linecap="round"/></g><defs><clipPath id="clip0_489_191509"><path fill="currentColor" d="M0 0H24V24H0z"/></clipPath></defs></svg>