<svg width="24" height="24" fill="none" xmlns="http://www.w3.org/2000/svg"><g clip-path="url(#clip0_489_191511)"><path d="M15.515 15l1.415-1.414c1.333-1.333 2-2 2-2.828 0-.828-.667-1.495-2-2.828l-3.763-3.763c-.576-.576-.864-.864-1.23-1.016-.366-.152-.773-.153-1.587-.156l-1.418-.004c-1.896-.005-2.844-.008-3.432.58-.588.589-.585 1.536-.58 3.432l.004 1.418c.003.814.004 1.221.156 1.587.152.366.44.654 1.016 1.23l3.763 3.763c1.333 1.333 2 2 2.828 2 .828 0 1.495-.667 2.828-2z" stroke="currentColor" stroke-width="2" stroke-linecap="round"/><path d="M6 11.442l3.06 6.54c.8 1.707 1.2 2.561 1.978 2.844.779.282 1.633-.118 3.34-.917l.725-.34c1.708-.798 2.562-1.198 2.844-1.977.283-.779-.117-1.633-.916-3.34l-.094-.2" stroke="currentColor" stroke-width="2" stroke-linecap="round"/><path d="M9.121 5.707A1 1 0 1 1 7.707 7.12a1 1 0 0 1 1.414-1.414z" fill="currentColor"/></g><defs><clipPath id="clip0_489_191511"><path fill="currentColor" d="M0 0H24V24H0z"/></clipPath></defs></svg>