<svg width="24" height="24" fill="none" xmlns="http://www.w3.org/2000/svg"><path d="M13.717 3.554l.858.512c.059-.097.126-.232.209-.398l.02-.04.055-.108a1 1 0 0 1 .84-.52h.902c.674 0 1.108.001 1.438.032.314.03.426.08.483.115a1 1 0 0 1 .33.33c.036.058.086.17.116.485.03.328.032.764.032 1.437V18c0 .971-.002 1.599-.064 2.061-.059.434-.153.57-.229.646-.076.076-.212.17-.646.229-.462.062-1.09.064-2.061.064H8c-.971 0-1.599-.002-2.061-.064-.434-.059-.57-.153-.646-.229-.076-.076-.17-.212-.229-.646C5.002 19.6 5 18.971 5 18V5.4c0-.674.001-1.11.032-1.438.03-.315.08-.427.115-.484a1 1 0 0 1 .33-.33c.058-.036.17-.086.485-.116C6.29 3.002 6.726 3 7.399 3h.902a1 1 0 0 1 .84.52l.054.105v.003l4.522-.074zM9 9.5h6m-6 4h3.333" stroke="currentColor" stroke-width="2" stroke-linecap="round"/></svg>