<svg width="25" height="24" fill="none" xmlns="http://www.w3.org/2000/svg"><g clip-path="url(#clip0_448_1807)" fill="#fff"><path d="M18.333 14.745a1 1 0 1 0 2 0h-2zM7.333 4h10V2h-10v2zm11 .997V14.744h2v-.021-.022-.022-.022-.022-.021-.022-.022-.022-.022-.022-.021-.022-.022-.022-.022-.022-.022-.021-.022-.022-.022-.022-.022-.022-.021-.022-.022-.022-.022-.021-.022-.022-.022-.022-.022-.021-.022-.022-.022-.022-.022-.021-.022-.022-.022-.022-.022-.021-.022-.022-.022-.022-.021-.022-.022-.022-.022-.021-.022-.022-.022-.022-.021-.022-.022-.022-.021-.022-.022-.022-.021-.022-.022-.022-.021-.022-.022-.022V13v-.022-.022-.021-.022-.022-.021-.022-.022-.021-.022-.022-.021-.022-.022-.021-.022-.022-.021-.022-.022-.021-.022-.021-.022-.022-.021-.022-.021-.022-.021-.022-.022-.021-.022-.021-.022-.021-.022-.021-.022-.021-.022-.021-.021-.022-.021-.022-.021-.022-.021-.021-.022-.021-.022-.021-.021-.022-.021-.021-.022-.021-.021-.022-.021-.021-.022-.02-.022-.021-.022-.02-.022-.021-.021-.022-.02-.022-.021-.021-.021-.022-.02-.022-.02-.022-.021-.021-.021-.021-.021-.021-.021-.021-.021-.021-.021-.021-.021-.021-.021-.021-.02-.022-.02-.021-.021-.021-.021-.02-.022-.02-.021-.021-.02-.021-.021-.021-.02-.021-.021-.02-.021-.021-.02-.021-.02-.021-.021-.02-.021-.02-.021-.02-.021-.02-.021-.02-.021-.02-.02-.021-.02-.021-.02-.02-.021-.02-.02-.02-.021-.02-.02-.02-.021-.02-.02-.02-.02-.02-.02-.02-.021-.02-.02-.02-.02-.02-.02-.02-.02-.02-.02-.02-.02-.02-.02-.02-.019-.02-.02-.02-.019-.02-.02-.019-.02-.02-.019-.02-.02-.019-.02-.019-.02-.019-.02-.019-.02-.019-.02-.018-.02-.02-.019-.019-.02-.018-.02-.019-.02-.018-.02-.019-.019-.019-.019-.02-.018-.02-.018-.02-.018-.02-.018-.019-.019-.019-.019-.018-.02-.018-.019-.019-.018-.019-.019-.018-.019-.019-.018-.019-.018-.019-.018-.019-.018-.019-.018-.019-.018-.018-.019-.018-.018-.019-.018-.018-.018-.018-.019-.018-.018-.018-.018-.018-.018-.018-.018-.018-.018-.018-.018-.017-.018-.018-.018-.017-.018-.018-.018-.017-.018-.017-.018-.018-.017-.018-.017-.018-.017-.017-.018-.017-.017-.018-.017-.017-.017-.018-.017-.017-.017-.017-.017-.017-.017-.017-.017-.017-.017-.017-.017-.016-.017-.017-.017-.017-.016-.017-.016-.017-.017-.016-.017-.016-.017-.016-.017-.016-.016-.017-.016-.016-.016-.017-.016-.016-.016-.016-.016-.016-.016-.016-.016-.016-.016-.016-.016V6.2v-.016-.016-.016-.015-.016-.016-.015-.016-.015-.016-.015-.016-.015-.016-.015-.015-.015-.016-.015-.015-.015-.015-.016-.015-.015-.015-.015-.015-.015-.014-.015-.015-.015-.015-.014-.015-.015-.014-.015-.014-.015-.014-.015-.014-.015-.014-.014-.015-.014-.014-.014-.015-.014-.014-.014-.014-.014-.014-.014-.014-.014-.013-.014-.014-.014-.013-.014-.014-.013-.014-.013-.014-.013-.014-.013-.013-.014-.013-.013-.013-.013-.014-.013h-2zM6.333 20V5h-2v15h2zm11-16c.554 0 1 .447 1 .997h2a2.998 2.998 0 0 0-3-2.997v2zm-10-2a3 3 0 0 0-3 3h2a1 1 0 0 1 1-1V2z"/><path d="M9.333 3V2h-1v1h1zm0 15h-1v1h1v-1zm0-14h8V2h-8v2zm9 .997V16h2v-.022-.023-.023-.022-.023-.023-.023-.023-.022-.023-.023-.023-.023-.023-.022-.023-.023-.023-.023-.023-.023-.023-.023-.023-.023-.023-.023-.023-.023-.023-.024-.023-.023-.023-.023-.023-.024-.023-.023-.023-.023-.024-.023-.023-.023-.024-.023-.023-.024-.023-.023-.024-.023-.023-.024-.023-.023-.024-.023-.024-.023-.023-.024-.023-.024-.023-.024-.023-.024-.023-.024-.023-.024-.023-.024-.023-.024-.023-.024-.024-.023-.024-.023-.024-.024-.023-.024-.023-.024-.024-.023-.024-.024-.023-.024-.024-.023-.024-.024-.023-.024-.024-.023-.024-.024-.023-.024-.024-.023-.024-.024-.024-.023-.024-.024-.023-.024-.024-.024-.023-.024-.024-.023-.024-.024-.024-.024-.023-.024-.024-.023-.024-.024-.024-.023-.024-.024-.024-.023-.024-.024-.024-.023-.024-.024-.024-.023-.024-.024-.023-.024-.024-.024-.023-.024-.024-.023-.024-.024-.023-.024-.024-.024-.023-.024-.024-.023-.024-.024-.023-.024-.024-.023-.024-.024-.023-.024-.023-.024-.024-.023-.024-.024-.023-.024-.023-.024-.023-.024-.023-.024-.024-.023-.024-.023-.024-.023-.024-.023-.024-.023-.023-.024-.023-.024-.023-.024-.023-.023-.024-.023-.024-.023-.023-.023-.024-.023-.024-.023-.023-.023-.024-.023-.023-.023-.024-.023-.023-.023-.023-.023-.024-.023-.023-.023-.023-.023-.023-.023-.023-.023-.023-.023-.023-.023-.023-.023-.023-.023-.023-.023-.023-.023-.023-.023-.022-.023-.023-.023-.022-.023-.023-.023-.022-.023-.023-.022-.023-.023-.022-.023-.022-.023V9.6v-.022-.023-.022-.023-.022-.022-.023-.022-.023-.022-.022-.023-.022-.022-.022-.023-.022-.022-.022-.023-.022-.022-.022-.022-.022-.022-.022-.022-.022-.022-.022-.022-.022-.022-.022-.022-.021-.022-.022-.022-.021-.022-.022-.022-.021-.022-.021-.022-.022-.021-.022-.021-.022-.021-.021-.022-.021-.022-.02-.022-.021-.022-.02-.022-.021-.021-.021-.022-.02-.022-.02-.022-.02-.022-.02-.021-.021-.021-.021-.02-.021-.021-.02-.022-.02-.02-.021-.021-.02-.021-.02-.021-.02-.02-.021-.02-.02-.021-.02-.02-.02-.021-.02-.02-.02-.02-.02-.02-.02-.02-.02-.02-.02-.02-.02-.02-.019-.02-.02-.019-.02-.019-.02-.019-.02-.019-.02V6.9v-.02-.02-.018-.02-.019-.019-.02-.018-.02-.018-.02-.018-.02-.018-.019-.019-.018-.02-.018-.019-.018-.019-.018-.019-.018-.019-.018-.019-.018-.018-.019-.018-.018-.018-.018-.019-.018-.018-.018-.018-.018-.017V6.1v-.018-.018-.018-.017-.018-.018-.017-.018-.017-.018-.017-.017-.018-.017-.017-.017-.018-.017-.017-.017-.017-.017V5.7v-.017-.017-.016-.017-.017-.017-.016-.017-.016-.017-.017V5.5v-.016-.017-.016-.016-.017-.016-.016-.016-.016-.016-.016-.016-.016-.016-.015-.016-.016-.016-.015-.016-.015-.016-.015-.016-.015-.015-.016-.015-.015-.015-.015-.015h-2zm-8 13.003V3h-2v15h2zm7-1h-8v2h8v-2zm1-.999a.999.999 0 0 1-1 .999v2c1.656 0 3-1.34 3-2.999h-2zM17.333 4c.555 0 1 .447 1 .997h2a2.997 2.997 0 0 0-3-2.997v2z"/><path d="M19.333 23a1 1 0 1 0 0-2v2zm-.965-4.767l-.43-.902.43.902zM19.333 21h-12v2h12v-2zm-12-2h10v-2h-10v2zm12 3l.001-1h.01c.002 0 .002 0 0 0a1.46 1.46 0 0 1-.564-.145.759.759 0 0 1-.302-.253c-.066-.1-.145-.277-.145-.602h-2c0 .675.172 1.248.48 1.71.305.458.704.75 1.073.934a3.453 3.453 0 0 0 1.392.355h.046l.005.001h.003l.001-1zm-1-2c0-.332.082-.51.15-.61a.775.775 0 0 1 .316-.255l-.862-1.805a2.772 2.772 0 0 0-1.102.928c-.322.468-.502 1.05-.502 1.742h2zm2-3v-2h-2v2h2zm-16 3a3 3 0 0 0 3 3v-2a1 1 0 0 1-1-1h-2zm14.466-.864c.618-.296 1.534-.997 1.534-2.136h-2c0-.02.011.006-.056.085-.07.082-.19.174-.34.245l.862 1.806zM6.333 20a1 1 0 0 1 1-1v-2a3 3 0 0 0-3 3h2z"/></g><defs><clipPath id="clip0_448_1807"><path fill="#fff" transform="translate(.333)" d="M0 0H24V24H0z"/></clipPath></defs></svg>