<svg fill="none" height="24" width="24" xmlns="http://www.w3.org/2000/svg"><g stroke="currentColor" stroke-linecap="round" stroke-linejoin="round"><path d="M19.878 13.286c0 4.26-2.96 7.714-7.378 7.714s-8-3.058-8-7.714 3.582-7.715 8-7.715h7m0 0L16.833 3M19.5 5.571l-2.667 2.572" stroke-width="2"/><path d="M10 13.5c.672-.07 1.5-.5 1.5-1.5 0-1.5-2-1.5-2.5-.5m1 2c-.275.029-.469.016-.469.016s.194-.03.469-.016zm0 0c.672.034 1.5.328 1.5 1.5 0 1.5-1.5 2-2.5 1m4.5-2.5c0-2.31.5-3 1.5-3s1.5.81 1.5 3-.5 3-1.5 3-1.5-.69-1.5-3z"/></g></svg>