<svg width="24" height="24" fill="none" xmlns="http://www.w3.org/2000/svg"><path d="M8 12c0-1.886 0-2.828.586-3.414C9.172 8 10.114 8 12 8h5c1.886 0 2.828 0 3.414.586C21 9.172 21 10.114 21 12v5c0 1.886 0 2.828-.586 3.414C19.828 21 18.886 21 17 21h-5c-1.886 0-2.828 0-3.414-.586C8 19.828 8 18.886 8 17v-5z" stroke="currentColor" stroke-width="2"/><path fill-rule="evenodd" clip-rule="evenodd" d="M16 8v4c0 1.886 0 2.828-.586 3.414C14.828 16 13.886 16 12 16H8v-4c0-1.886 0-2.828.586-3.414C9.172 8 10.114 8 12 8h4z" fill="currentColor"/><path d="M16 8h1V7h-1v1zm-8 8H7v1h1v-1zm7-8v4h2V8h-2zm0 4c0 .971-.002 1.599-.064 2.061-.059.434-.153.57-.229.646l1.414 1.414c.51-.51.709-1.138.797-1.793C17.002 13.7 17 12.915 17 12h-2zm-.293 2.707c-.076.076-.212.17-.646.229-.462.062-1.09.064-2.061.064v2c.915 0 1.701.002 2.328-.082.655-.088 1.284-.287 1.793-.797l-1.414-1.414zM12 15H8v2h4v-2zm-3 1v-4H7v4h2zm0-4c0-.971.002-1.599.064-2.061.059-.434.153-.57.229-.646L7.879 7.879c-.51.51-.709 1.138-.797 1.793C6.998 10.3 7 11.085 7 12h2zm.293-2.707c.076-.076.212-.17.646-.229C10.4 9.002 11.029 9 12 9V7c-.915 0-1.701-.002-2.328.082-.655.088-1.284.287-1.793.797l1.414 1.414zM12 9h4V7h-4v2z" fill="currentColor"/><path d="M3 7c0-1.886 0-2.828.586-3.414C4.172 3 5.114 3 7 3h5c1.886 0 2.828 0 3.414.586C16 4.172 16 5.114 16 7v5c0 1.886 0 2.828-.586 3.414C14.828 16 13.886 16 12 16H7c-1.886 0-2.828 0-3.414-.586C3 14.828 3 13.886 3 12V7z" stroke="currentColor" stroke-width="2"/></svg>