<svg width="24" height="24" fill="none" xmlns="http://www.w3.org/2000/svg"><path fill-rule="evenodd" clip-rule="evenodd" d="M8 16v1c0 1.886 0 2.828.586 3.414C9.172 21 10.114 21 12 21h5c1.886 0 2.828 0 3.414-.586C21 19.828 21 18.886 21 17v-5c0-1.886 0-2.828-.586-3.414C19.828 8 18.886 8 17 8h-1v4c0 1.886 0 2.828-.586 3.414C14.828 16 13.886 16 12 16H8z" fill="currentColor"/><path d="M8 16v-1H7v1h1zm.586 4.414l.707-.707-.707.707zm11.828 0l-.707-.707.707.707zm0-11.828l-.707.707.707-.707zM16 8V7h-1v1h1zm-7 9v-1H7v1h2zm.293 2.707c-.076-.076-.17-.212-.229-.646C9.002 18.6 9 17.971 9 17H7c0 .915-.002 1.701.082 2.328.088.655.287 1.284.797 1.793l1.414-1.414zM12 20c-.971 0-1.599-.002-2.061-.064-.434-.059-.57-.153-.646-.229l-1.414 1.414c.51.51 1.138.709 1.793.797.627.084 1.413.082 2.328.082v-2zm5 0h-5v2h5v-2zm2.707-.293c-.076.076-.212.17-.646.229-.462.062-1.09.064-2.061.064v2c.915 0 1.701.002 2.328-.082.655-.088 1.284-.287 1.793-.797l-1.414-1.414zM20 17c0 .971-.002 1.599-.064 2.061-.059.434-.153.57-.229.646l1.414 1.414c.51-.51.709-1.138.797-1.793C22.002 18.7 22 17.915 22 17h-2zm0-5v5h2v-5h-2zm-.293-2.707c.076.076.17.212.229.646.062.462.064 1.09.064 2.061h2c0-.915.002-1.701-.082-2.328-.088-.655-.287-1.284-.797-1.793l-1.414 1.414zM17 9c.971 0 1.599.002 2.061.064.434.059.57.153.646.229l1.414-1.414c-.51-.51-1.138-.709-1.793-.797C18.7 6.998 17.915 7 17 7v2zm-1 0h1V7h-1v2zm-1-1v4h2V8h-2zm0 4c0 .971-.002 1.599-.064 2.061-.059.434-.153.57-.229.646l1.414 1.414c.51-.51.709-1.138.797-1.793C17.002 13.7 17 12.915 17 12h-2zm-.293 2.707c-.076.076-.212.17-.646.229-.462.062-1.09.064-2.061.064v2c.915 0 1.701.002 2.328-.082.655-.088 1.284-.287 1.793-.797l-1.414-1.414zM12 15H8v2h4v-2z" fill="currentColor"/><path d="M3 7c0-1.886 0-2.828.586-3.414C4.172 3 5.114 3 7 3h5c1.886 0 2.828 0 3.414.586C16 4.172 16 5.114 16 7v5c0 1.886 0 2.828-.586 3.414C14.828 16 13.886 16 12 16H7c-1.886 0-2.828 0-3.414-.586C3 14.828 3 13.886 3 12V7z" stroke="currentColor" stroke-width="2"/></svg>