<svg width="24" height="24" fill="none" xmlns="http://www.w3.org/2000/svg"><g clip-path="url(#clip0_489_191264)"><path d="M21 10H3m14.4-7v3.6M6.6 3v3.6M10 21H7c-1.886 0-2.828 0-3.414-.586C3 19.828 3 18.886 3 17V8.8c0-1.886 0-2.828.586-3.414C4.172 4.8 5.115 4.8 7 4.8H17c1.886 0 2.83 0 3.415.586C21 5.972 21 6.914 21 8.8v1.7" stroke="currentColor" stroke-width="2" stroke-linecap="round" stroke-linejoin="round"/><path d="M8.5 17.5a1 1 0 1 1-2 0 1 1 0 0 1 2 0zm0-4a1 1 0 1 1-2 0 1 1 0 0 1 2 0zm4.5 0a1 1 0 1 1-2 0 1 1 0 0 1 2 0z" fill="currentColor"/><path d="M22 17.5a4.5 4.5 0 1 1-9 0 4.5 4.5 0 0 1 9 0z" stroke="currentColor" stroke-width="2"/><path d="M17.5 16v1.5H19" stroke="currentColor" stroke-width="2" stroke-linecap="round" stroke-linejoin="round"/></g><defs><clipPath id="clip0_489_191264"><path fill="currentColor" d="M0 0H24V24H0z"/></clipPath></defs></svg>