<svg width="24" height="24" fill="none" xmlns="http://www.w3.org/2000/svg"><path d="M8.5 3v18m0-18h3.26c.223 0 .334 0 .428.009a2 2 0 0 1 1.803 1.803c.009.094.009.205.009.428v.46M8.5 3H5.24c-.223 0-.334 0-.428.009a2 2 0 0 0-1.803 1.803C3 4.906 3 5.017 3 5.24v.46M8.5 21H5.962M8.5 21h2.539M17.5 11v10m0-10h2.07c.4 0 .6 0 .761.056a1 1 0 0 1 .613.613c.056.16.056.36.056.761v.07M17.5 11h-2.07c-.4 0-.6 0-.761.056a1 1 0 0 0-.613.613c-.056.16-.056.36-.056.761v.07m3.5 8.5H16m1.5 0H19" stroke="currentColor" stroke-width="2" stroke-linecap="round"/></svg>