<svg width="24" height="24" fill="none" xmlns="http://www.w3.org/2000/svg"><path d="M14.5 19.5h2.56c1.827 0 2.741 0 3.32-.553.023-.021.046-.044.067-.066C21 18.3 21 17.387 21 15.56V8.44c0-1.827 0-2.741-.553-3.32a1.947 1.947 0 0 0-.066-.067C19.8 4.5 18.887 4.5 17.06 4.5H6.94c-1.827 0-2.741 0-3.32.553a1.994 1.994 0 0 0-.067.067C3 5.699 3 6.613 3 8.44v.06" stroke="currentColor" stroke-width="2" stroke-linecap="round"/><path d="M4 19.5a1 1 0 1 1-2 0 1 1 0 0 1 2 0z" fill="currentColor"/><path d="M11 19.5a8 8 0 0 0-8-8m0 4a4 4 0 0 1 4 4" stroke="currentColor" stroke-width="2" stroke-linecap="round" stroke-linejoin="round"/></svg>