<svg fill="none" height="24" width="24" xmlns="http://www.w3.org/2000/svg"><clipPath id="a"><path d="M0 0h24v24H0z"/></clipPath><clipPath id="b"><path d="M0 0h24v24H0z" transform="rotate(90 12 12)"/></clipPath><g clip-path="url(#a)"><g clip-path="url(#b)"><circle cx="12" cy="12" r="9" stroke="currentColor" stroke-width="2" transform="rotate(90 12 12)"/><path d="M14.286 10.304L12.06 8.912c-1.353-.845-2.03-1.268-2.545-.982C9 8.215 9 9.013 9 10.608v2.784c0 1.595 0 2.393.515 2.678.515.286 1.192-.137 2.545-.982l2.226-1.392c1.218-.761 1.827-1.142 1.827-1.696s-.609-.935-1.827-1.696z" fill="currentColor"/></g></g></svg>