<svg fill="none" height="24" width="24" xmlns="http://www.w3.org/2000/svg"><g stroke="currentColor" stroke-width="2"><rect height="6" rx="2" width="6" x="3" y="3"/><rect height="6" rx="2" width="6" x="3" y="15"/><rect height="6" rx="2" width="6" x="15" y="15"/><path d="M3.936 8C3.336 9.205 3 10.563 3 12s.337 2.795.936 4M8 3.936C9.205 3.336 10.563 3 12 3s2.795.337 4 .936M20.064 8c.6 1.205.936 2.563.936 4s-.337 2.795-.935 4M16 20.064c-1.205.6-2.563.936-4 .936s-2.795-.337-4-.935"/><rect height="6" rx="2" width="6" x="15" y="3"/></g></svg>