<svg width="24" height="24" fill="none" xmlns="http://www.w3.org/2000/svg"><g clip-path="url(#clip0_489_191293)" stroke="currentColor" stroke-width="2"><rect x="3" y="3" width="6" height="6" rx="2"/><rect x="3" y="15" width="6" height="6" rx="2"/><rect x="15" y="15" width="6" height="6" rx="2"/><path d="M3.936 8A8.963 8.963 0 0 0 3 12c0 1.437.337 2.795.936 4M8 3.936A8.963 8.963 0 0 1 12 3c1.437 0 2.795.337 4 .936M20.064 8A8.963 8.963 0 0 1 21 12a8.963 8.963 0 0 1-.936 4M16 20.064A8.963 8.963 0 0 1 12 21a8.963 8.963 0 0 1-4-.936"/><rect x="15" y="3" width="6" height="6" rx="2"/></g><defs><clipPath id="clip0_489_191293"><path fill="currentColor" d="M0 0H24V24H0z"/></clipPath></defs></svg>