<svg width="24" height="24" fill="none" xmlns="http://www.w3.org/2000/svg"><path d="M16.022 9.5h-3.328a2 2 0 0 1-1.973-1.671l-.125-.754a3 3 0 0 1 .03-1.144l.212-.952c.21-.943-.908-1.606-1.635-.97L8.011 5.054a.5.5 0 0 1-.787-.173l-.492-1.108c-.392-.881-1.68-.752-1.89.19L4.5 5.5 2.726 8.456A1.68 1.68 0 0 0 4.166 11H5.5a1 1 0 0 1 1 1v5.586a1 1 0 0 1-.293.707l-.5.5c-.39.39-.366 1.015.158 1.19 1.305.436 3.352.338 3.995-.295.11-.108.14-.269.14-.424V16a1 1 0 0 1 1-1h2.264c.155 0 .308.036.447.106l.732.366a1.912 1.912 0 0 1 1.057 1.71.956.956 0 0 1-.191.573l-.789 1.051c-.298.398-.246.958.22 1.133 1.295.486 3.457.402 4.12-.25.11-.11.14-.27.14-.425v-6.587c0-.409.262-.762.588-1.009 1.336-1.01 1.536-3.24 1.315-4.977-.097-.766-1-.924-1.473-.315L17.6 8.728a2 2 0 0 1-1.578.772z" stroke="currentColor" stroke-width="2"/><path d="M7.75 7.25a.75.75 0 1 1-1.5 0 .75.75 0 0 1 1.5 0z" fill="currentColor"/><path d="M7 15l1.025-1.025C8.938 13.062 8.292 11.5 7 11.5V15zm9.342-5.052L16.5 9h-5l1.006 1.676a2.08 2.08 0 0 0 3.836-.728z" fill="currentColor" stroke="currentColor" stroke-linecap="round"/></svg>