<svg width="24" height="24" fill="none" xmlns="http://www.w3.org/2000/svg"><path d="M21.846 11.492v.654c-.006.035-.014.07-.018.105-.034.284-.056.57-.103.853a6.972 6.972 0 0 1-.972 2.556 7.271 7.271 0 0 1-3.014 2.732 7.051 7.051 0 0 1-2.326.686l-.539.06H7.902c-.035-.007-.07-.018-.105-.02a5.946 5.946 0 0 1-2.024-.486 6.174 6.174 0 0 1-3.135-2.98 5.86 5.86 0 0 1-.58-1.928L2 13.235v-.634c.007-.035.017-.07.02-.105.036-.61.16-1.2.38-1.77.593-1.529 1.625-2.663 3.092-3.397a6.056 6.056 0 0 1 2.42-.626c.416-.022.83.001 1.243.057a.157.157 0 0 0 .118-.038 7.352 7.352 0 0 1 2.032-1.473 7.111 7.111 0 0 1 2.337-.689c.192-.022.386-.04.579-.06h.594c.039.006.078.013.117.017.294.035.59.056.882.105.91.153 1.758.48 2.542.965a7.272 7.272 0 0 1 2.744 3.02c.362.73.594 1.517.687 2.327.021.186.04.372.059.558zM10.749 7.265c.012.015.015.023.02.025.409.201.799.437 1.166.705.024.017.081.01.11-.008 1.01-.64 2.106-.861 3.283-.652 1.153.204 2.092.78 2.809 1.7.812 1.042 1.121 2.22.897 3.53-.15.88-.502 1.667-1.1 2.327-1.091 1.203-2.458 1.701-4.066 1.49a4.292 4.292 0 0 1-2.552-1.271c-.908-.918-1.822-1.829-2.733-2.743-.121-.122-.256-.22-.431-.242a.685.685 0 0 0-.714.39c-.118.245-.103.52.153.771 1.015.997 2.02 2.003 3.035 3 .173.172.36.33.557.474.74.538 1.576.835 2.48.955.71.094 1.414.074 2.113-.083a5.856 5.856 0 0 0 3.308-2.03 5.817 5.817 0 0 0 1.303-2.984 5.85 5.85 0 0 0-.054-1.92 5.696 5.696 0 0 0-1.34-2.746c-1.337-1.502-3.02-2.172-5.022-2.022a5.58 5.58 0 0 0-2.184.642c-.37.192-.718.424-1.038.692zm-.49 10.482a11.888 11.888 0 0 1-.082-.077c-.415-.392-.832-.781-1.242-1.178a.336.336 0 0 0-.265-.111c-.416.01-.831.011-1.24-.081-2.036-.46-3.218-2.673-2.467-4.62.591-1.535 2.229-2.47 3.844-2.182.724.13 1.36.436 1.881.973.636.657 1.291 1.295 1.934 1.945a.578.578 0 0 0 .517.186c.262-.037.47-.162.565-.419a.62.62 0 0 0-.143-.686c-.675-.684-1.334-1.384-2.036-2.039-1.361-1.27-2.967-1.647-4.743-1.107-2.388.725-3.786 3.192-3.24 5.626a4.81 4.81 0 0 0 4.705 3.775h1.901c.032 0 .063-.002.111-.005z" fill="currentColor"/></svg>