<svg fill="none" height="24" width="24" xmlns="http://www.w3.org/2000/svg"><path d="M4 7c0-1.886 0-2.828.586-3.414S6.114 3 8 3h8c1.886 0 2.828 0 3.414.586S20 5.114 20 7v10c0 1.886 0 2.828-.586 3.414S17.886 21 16 21H8c-1.886 0-2.828 0-3.414-.586S4 18.886 4 17z" stroke="currentColor" stroke-width="2"/><path d="M4 9h16M4 15h16" stroke="currentColor" stroke-linecap="round" stroke-width="2"/><path d="M9 12a1 1 0 1 1-2 0 1 1 0 0 1 2 0zm0-6a1 1 0 1 1-2 0 1 1 0 0 1 2 0zm0 12a1 1 0 1 1-2 0 1 1 0 0 1 2 0z" fill="currentColor"/></svg>