<svg fill="none" height="24" width="24" xmlns="http://www.w3.org/2000/svg"><g stroke="currentColor" stroke-width="2"><path d="M8 5h8c1.442 0 2.424.002 3.159.1.706.096 1.033.263 1.255.486.223.222.39.55.485 1.255.099.735.101 1.717.101 3.159v4c0 1.443-.002 2.424-.1 3.159-.096.706-.263 1.033-.486 1.255-.222.223-.55.39-1.255.485-.735.099-1.716.101-3.159.101H8c-1.442 0-2.424-.002-3.159-.1-.706-.096-1.033-.263-1.255-.486-.223-.222-.39-.55-.485-1.255C3.002 16.424 3 15.443 3 14v-4c0-1.442.002-2.424.1-3.159.096-.706.263-1.033.486-1.255.222-.223.55-.39 1.255-.485C5.576 5.002 6.558 5 8 5z"/><path d="M4 6l5.6 4.2c1.156.867 1.733 1.3 2.4 1.3s1.244-.433 2.4-1.3L20 6"/></g></svg>