<svg width="24" height="24" fill="none" xmlns="http://www.w3.org/2000/svg"><path d="M5.423 5.16A3.157 3.157 0 0 1 8.58 2.002h3.157v6.315H8.58A3.157 3.157 0 0 1 5.423 5.16zm13.154 0a3.157 3.157 0 0 1-3.157 3.157h-3.157V2.002h3.157a3.157 3.157 0 0 1 3.157 3.158zM5.423 12A3.157 3.157 0 0 1 8.58 8.843h3.157v6.314H8.58A3.157 3.157 0 0 1 5.423 12zm6.84 0a3.157 3.157 0 1 1 6.314 0 3.157 3.157 0 0 1-6.314 0zm-6.84 6.84a3.157 3.157 0 0 1 3.157-3.157h3.157v3.157a3.157 3.157 0 0 1-6.314 0z" fill="currentColor"/></svg>