<svg width="24" height="24" fill="none" xmlns="http://www.w3.org/2000/svg"><path d="M3 8.5v7c0 1.886 0 2.828.586 3.414.586.586 1.528.586 3.414.586h10c1.886 0 2.828 0 3.414-.586C21 18.328 21 17.386 21 15.5V12c0-1.886 0-2.828-.586-3.414C19.828 8 18.886 8 17 8h-.16c-.905 0-1.358 0-1.756-.183-.398-.183-.692-.527-1.281-1.214l-.606-.706c-.589-.687-.883-1.031-1.281-1.214-.398-.183-.85-.183-1.756-.183H7c-1.886 0-2.828 0-3.414.586C3 5.672 3 6.614 3 8.5z" stroke="currentColor" stroke-width="2" stroke-linecap="round"/></svg>