<svg width="24" height="24" fill="none" xmlns="http://www.w3.org/2000/svg"><path d="M7 7.5c-1.886 0-2.828 0-3.414.586C3 8.672 3 9.614 3 11.5V16c0 1.886 0 2.828.586 3.414C4.172 20 5.114 20 7 20h8c.932 0 1.398 0 1.765-.152a2 2 0 0 0 1.083-1.083C18 18.398 18 17.932 18 17" stroke="currentColor" stroke-width="2" stroke-linecap="round"/><path d="M6.5 7.967V12.5c0 1.886 0 2.828.586 3.414.586.586 1.528.586 3.414.586H17c1.886 0 2.828 0 3.414-.586C21 15.328 21 14.386 21 12.5v-2.103c0-1.307 0-1.96-.294-2.44a2 2 0 0 0-.663-.663C19.563 7 18.91 7 17.603 7c-.647 0-.97 0-1.266-.094a2 2 0 0 1-.479-.226c-.26-.169-.466-.418-.877-.917l-.281-.34c-.59-.716-.885-1.074-1.29-1.265-.405-.191-.87-.191-1.797-.191H10.5c-1.886 0-2.828 0-3.414.585C6.5 5.138 6.5 6.081 6.5 7.967z" stroke="currentColor" stroke-width="2" stroke-linecap="round"/></svg>