<svg width="24" height="24" viewBox="0 0 24 24" fill="none" xmlns="http://www.w3.org/2000/svg">
<g clip-path="url(#clip0_772_6998)">
<line y1="-0.05" x2="33.9411" y2="-0.05" transform="matrix(-0.707107 0.707107 0.707107 0.707107 24 0)" stroke="#9B51E0" stroke-width="0.1"/>
<line x1="0.0353553" y1="-0.0353553" x2="24.0354" y2="23.9646" stroke="#9B51E0" stroke-width="0.1"/>
<circle r="10" transform="matrix(-1 0 0 1 12 12)" stroke="#9B51E0" stroke-width="0.1"/>
<rect width="18" height="18" transform="matrix(-1 0 0 1 21 3)" stroke="#9B51E0" stroke-width="0.1"/>
<rect width="20" height="16" transform="matrix(-1 0 0 1 22 4)" stroke="#9B51E0" stroke-width="0.1"/>
<rect width="20" height="16" transform="matrix(4.37114e-08 1 1 -4.37114e-08 4 2)" stroke="#9B51E0" stroke-width="0.1"/>
<path d="M11.871 2C6.27823 2 2 6.35477 2 12.0908C2 16.6772 4.81452 20.6019 8.83468 21.9832C9.35081 22.0783 9.53226 21.7516 9.53226 21.4827C9.53226 21.3329 9.52813 20.7878 9.52469 20.1872C9.52104 19.5485 8.92155 19.0655 8.2833 19.0392C7.44539 19.0047 6.43312 18.7372 6.10484 17.7111C6.10484 17.7111 5.64516 16.5076 4.98387 16.1975C4.98387 16.1975 4.06048 15.5482 5.04839 15.5606C5.04839 15.5606 5.94758 15.5157 6.5 16.5C6.85678 17.1357 7.5 17.5 8.5 17.5C8.96445 17.5 9.2993 17.2565 9.55383 16.9683C9.83575 16.6492 9.53994 16.0262 9.12004 15.9553C7.26863 15.6426 5.66129 14.873 5.66129 11.5284C5.66129 10.3911 5.96774 9.82039 6.6129 9.09253C6.51948 8.85298 6.23714 7.94677 6.56768 6.73971C6.64768 6.44755 6.89331 6.22109 7.1923 6.26974C8.12977 6.4223 9.5 7.40108 9.5 7.40108C10.3065 7.16948 11.1734 7.04955 12.0323 7.04955C12.8911 7.04955 13.7581 7.16948 14.5645 7.40108C14.5645 7.40108 15.9369 6.41786 16.8744 6.268C17.1723 6.22038 17.4163 6.44677 17.496 6.73774C17.8279 7.94854 17.5451 8.85278 17.4516 9.09253C18.0968 9.82453 18.4919 10.3952 18.4919 11.5284C18.4919 14.861 16.8357 15.6327 14.9768 15.9484C14.5498 16.0209 14.3065 16.6374 14.4251 17.054C14.5025 17.3259 14.5484 17.6458 14.5484 18.0171C14.5484 19.4108 14.5363 21.1354 14.5363 21.4745C14.5363 21.7433 14.7218 22.07 15.2339 21.9749C19.2661 20.6019 22 16.6772 22 12.0908C22 6.35477 17.4637 2 11.871 2Z" fill="white"/>
</g>
<defs>
<clipPath id="clip0_772_6998">
<rect width="24" height="24" fill="white"/>
</clipPath>
</defs>
</svg>
