<svg width="24" height="24" fill="none" xmlns="http://www.w3.org/2000/svg"><g clip-path="url(#clip0_772_6998)"><path transform="scale(-1 1) rotate(45 -12 -28.97)" stroke="#9B51E0" stroke-width=".1" d="M0 -0.05L33.941 -0.05"/><path stroke="#9B51E0" stroke-width=".1" d="M0.035 -0.035L24.035 23.965"/><circle r="10" transform="matrix(-1 0 0 1 12 12)" stroke="#9B51E0" stroke-width=".1"/><path transform="matrix(-1 0 0 1 21 3)" stroke="#9B51E0" stroke-width=".1" d="M0 0H18V18H0z"/><path transform="matrix(-1 0 0 1 22 4)" stroke="#9B51E0" stroke-width=".1" d="M0 0H20V16H0z"/><path transform="matrix(0 1 1 0 4 2)" stroke="#9B51E0" stroke-width=".1" d="M0 0H20V16H0z"/><path d="M11.871 2C6.278 2 2 6.355 2 12.09c0 4.587 2.815 8.512 6.835 9.893.516.095.697-.231.697-.5l-.007-1.296c-.004-.639-.603-1.122-1.242-1.148-.838-.034-1.85-.302-2.178-1.328 0 0-.46-1.203-1.121-1.513 0 0-.924-.65.064-.637 0 0 .9-.045 1.452.939.357.636 1 1 2 1 .464 0 .8-.244 1.054-.532.282-.319-.014-.942-.434-1.013-1.851-.312-3.459-1.082-3.459-4.427 0-1.137.307-1.708.952-2.435-.094-.24-.376-1.146-.045-2.353.08-.292.325-.519.624-.47C8.13 6.422 9.5 7.4 9.5 7.4a9.252 9.252 0 0 1 2.532-.351c.86 0 1.726.12 2.533.351 0 0 1.372-.983 2.31-1.133.297-.048.541.179.621.47.332 1.21.05 2.115-.044 2.355.645.732 1.04 1.302 1.04 2.435 0 3.333-1.656 4.105-3.515 4.42-.427.073-.67.69-.552 1.106.077.272.123.592.123.963 0 1.394-.012 3.118-.012 3.457 0 .27.186.596.698.5C19.266 20.603 22 16.678 22 12.092 22 6.355 17.464 2 11.871 2z" fill="#fff"/></g><defs><clipPath id="clip0_772_6998"><path fill="#fff" d="M0 0H24V24H0z"/></clipPath></defs></svg>