<svg width="24" height="24" fill="none" xmlns="http://www.w3.org/2000/svg"><path d="M21.692 12.723c.39-.39.397-1.03.015-1.43a.974.974 0 0 0-1.399-.016l1.384 1.446zm-6.884 4.054c-.39.39-.397 1.03-.015 1.43a.974.974 0 0 0 1.399.016l-1.384-1.446zm1.384 1.446l5.5-5.5-1.384-1.446-5.5 5.5 1.384 1.446z" fill="#fff"/><path d="M14 19.95c0 .792-1.454 1.268-3.878.95-.532-.069.84-.316.97-.95.128-.633.408-.95 1.211-.95.803 0 1.697.425 1.697.95z" fill="#fff" stroke="#fff"/><path d="M7 18a1 1 0 1 0 0-2v2zm9-9a1 1 0 1 0 2 0h-2zM5 5h10V3H5v2zM4 15V6H2v9h2zm3 1H5v2h2v-2zm9-10v3h2V6h-2zM2 15a3 3 0 0 0 3 3v-2a1 1 0 0 1-1-1H2zM15 5a1 1 0 0 1 1 1h2a3 3 0 0 0-3-3v2zM5 3a3 3 0 0 0-3 3h2a1 1 0 0 1 1-1V3z" fill="#fff"/><path d="M10 13l-2.769-2.505a1.111 1.111 0 0 0-1.465 0L3 13m14-4l-3.335-1.668a1.116 1.116 0 0 0-1.215.145l-4.077 3.53" stroke="#fff" stroke-width="2" stroke-linecap="round" stroke-linejoin="round"/></svg>