<svg width="24" height="24" fill="none" xmlns="http://www.w3.org/2000/svg"><path d="M18.635 7.141l.236.138a.99.99 0 0 1 .355 1.344l-2.384 4.019a.964.964 0 0 1-1.326.36l-.236-.138a2.395 2.395 0 0 1-1.162-1.77.787.787 0 0 0-1.111-.622l-.608.286a.836.836 0 0 1-.779-.036L8.881 9.269A.863.863 0 0 1 8.5 8.261l.266-1.111c.083-.257-.021-.542-.266-.65C6.548 5.642 4 6.482 4 5s4.92-3.394 8.187-1.482L14.977 5c.237.14.393.387.418.665l.06.676a.787.787 0 0 0 1.088.665 2.334 2.334 0 0 1 2.092.135zM8.5 9.5l-5.007 9.24a.864.864 0 0 0 .285 1.212l1.544.903A.84.84 0 0 0 6.5 20.5L11 11" stroke="#fff" stroke-width="2"/></svg>