<svg fill="none" height="24" width="24" xmlns="http://www.w3.org/2000/svg"><path d="M5.84 15.91l-.945.323a1 1 0 0 0 1.92-.095l-.974-.229zM8.402 5l.986-.168a1 1 0 0 0-1.96-.06zm2.56 15l-.985.168a1 1 0 0 0 1.945.114zm3.201-10.91l.955-.298a1 1 0 0 0-1.914.017l.96.282zm2.56 8.183l-.954.298a1 1 0 0 0 1.894.044zM21 13a1 1 0 1 0 0-2zM3 11a1 1 0 1 0 0 2zm1.963 2.351l-.946.325zm-.596-1.165L3.786 13zm14.403-.005l.573.819-.573-.82zM6.814 16.138l2.56-10.91-1.946-.457-2.56 10.91zm.601-10.97l2.56 15 1.972-.336-2.56-15zm4.506 15.114l3.2-10.91-1.918-.563-3.2 10.91zM13.208 9.39l2.56 8.181 1.909-.597-2.56-8.182-1.91.598zm4.454 8.225l1.442-3.957-1.88-.685-1.441 3.957 1.88.685zM20.043 13H21v-2h-.957zM6.787 15.585l-.878-2.558-1.892.649.878 2.557zM3.072 11H3v2h.072zm2.837 2.027c-.104-.305-.208-.613-.327-.862a1.978 1.978 0 0 0-.634-.792L3.786 13c-.058-.041-.058-.077-.01.023a7.2 7.2 0 0 1 .241.653l1.892-.65zM3.072 13c.367 0 .56.002.695.017.11.012.077.024.019-.017l1.162-1.627a1.977 1.977 0 0 0-.955-.343c-.274-.031-.6-.03-.921-.03zm16.032.658c.123-.34.189-.516.248-.636.049-.097.048-.062-.009-.022l-1.147-1.638a1.98 1.98 0 0 0-.635.77c-.12.244-.229.545-.337.841zm.94-2.658c-.317 0-.636-.002-.906.029a1.978 1.978 0 0 0-.942.333L19.343 13c-.057.04-.09.028.018.016.133-.014.321-.016.682-.016v-2z" fill="currentColor"/></svg>