<svg width="25" height="24" fill="none" xmlns="http://www.w3.org/2000/svg"><g clip-path="url(#clip0_448_1969)" stroke="#fff" stroke-width="2"><path d="M3.333 12a1 1 0 0 1 1-1h11a1 1 0 0 1 1 1v3a6 6 0 0 1-6 6h-1a6 6 0 0 1-6-6v-3z" stroke-linecap="round"/><path d="M15.333 11h2.222c1.535 0 2.778 1.25 2.778 2.908 0 1.657-1.243 3.092-2.777 3.092h-1.112"/><path d="M6.52 3l-.365.73a1 1 0 0 0 .063 1.003l.657.985a1 1 0 0 1 .116.871L6.521 8m8.125-5l-.366.73a1 1 0 0 0 .063 1.003l.656.985a1 1 0 0 1 .117.871L14.646 8" stroke-linecap="round"/></g><defs><clipPath id="clip0_448_1969"><path fill="#fff" transform="translate(.333)" d="M0 0H24V24H0z"/></clipPath></defs></svg>