<svg width="24" height="24" fill="none" xmlns="http://www.w3.org/2000/svg"><path d="M6.5 4h11l-.735 13.968c-.056 1.067-.084 1.6-.31 2.005a2 2 0 0 1-.867.823c-.417.204-.95.204-2.019.204h-3.052c-1.062 0-1.593 0-2.008-.202a2 2 0 0 1-.866-.817c-.227-.403-.258-.933-.32-1.993L6.5 4z" stroke="currentColor" stroke-width="2"/><path d="M17 10.5H7l.455 4.5h9.09L17 10.5z" fill="currentColor" stroke="currentColor" stroke-width="2"/><path d="M5 4.5h14" stroke="currentColor" stroke-width="2" stroke-linecap="round" stroke-linejoin="round"/><path d="M17.793 3a.5.5 0 0 1 0 1H6.203a.5.5 0 0 1 0-1h11.59z" stroke="currentColor" stroke-width="2"/></svg>