<svg width="25" height="24" fill="none" xmlns="http://www.w3.org/2000/svg"><g clip-path="url(#clip0_448_1803)"><circle cx="12.667" cy="12" r="9" stroke="#fff" stroke-width="2"/><path fill-rule="evenodd" clip-rule="evenodd" d="M12.056 10.649a2.499 2.499 0 0 0-.74.74l-2.963 4.58c-.147.226.12.492.345.345l4.58-2.963c.296-.192.548-.444.74-.74l2.963-4.58c.146-.226-.12-.491-.346-.345l-4.579 2.963zM11.666 13a1.414 1.414 0 1 0 2-2 1.414 1.414 0 0 0-2 2z" fill="#fff"/><path d="M11.315 11.39l-.42-.272.42.271zm.741-.741l-.271-.42.271.42zm-3.703 5.32l-.42-.272.42.271zm.345.345l.272.42-.272-.42zm4.58-2.963l-.273-.42.272.42zm.74-.74l-.42-.272.42.271zm2.963-4.58l-.42-.271.42.272zm-.346-.345l-.272-.42.272.42zm-4.9 3.975c.154-.237.356-.439.593-.592l-.543-.84a3 3 0 0 0-.89.889l.84.543zM8.772 16.24l2.963-4.579-.84-.543-2.962 4.579.84.543zm-.345-.346c.226-.146.492.12.345.346l-.84-.543c-.438.678.36 1.476 1.038 1.037l-.543-.84zm4.579-2.963l-4.58 2.963.544.84 4.579-2.963-.543-.84zm.592-.592a2 2 0 0 1-.593.592l.544.84c.356-.23.659-.533.889-.889l-.84-.543zm2.963-4.579l-2.963 4.579.84.543L17.4 8.303l-.84-.543zm.346.346c-.227.146-.492-.12-.346-.346l.84.543c.439-.679-.359-1.476-1.038-1.037l.544.84zm-4.58 2.963l4.58-2.963-.544-.84-4.578 2.963.543.84zm.986 1.577a.914.914 0 0 1-1.293 0l-.707.708c.748.747 1.96.747 2.707 0l-.707-.707zm0-1.292a.914.914 0 0 1 0 1.293l.707.707a1.914 1.914 0 0 0 0-2.707l-.707.707zm-1.293 0a.914.914 0 0 1 1.293 0l.707-.707a1.914 1.914 0 0 0-2.707 0l.707.707zm0 1.293a.914.914 0 0 1 0-1.293l-.707-.707a1.914 1.914 0 0 0 0 2.707l.707-.707z" fill="#fff"/></g><defs><clipPath id="clip0_448_1803"><path fill="#fff" transform="translate(.667)" d="M0 0H24V24H0z"/></clipPath></defs></svg>