<svg width="24" height="24" fill="none" xmlns="http://www.w3.org/2000/svg"><path d="M2.28 8.694a1 1 0 0 1 1.44-1.388L2.28 8.694zm19.44 6.612a1 1 0 1 1-1.44 1.388l1.44-1.388zM12.944 8.91l.17.985-.17-.985zm.684 0l.17-.986-.17.986zM7.8 12.423l.17-.986-.17.986zm.684 0l-.171-.986.17.986zM3.72 7.306L6.29 9.973l-1.44 1.388-2.57-2.667L3.72 7.306zm12.857 2.667l5.143 5.333-1.44 1.388-5.143-5.333 1.44-1.388zm-6.583 0c.514-.532.953-.99 1.349-1.32.41-.343.863-.63 1.43-.728l.342 1.971c-.077.013-.21.057-.49.291-.294.245-.647.61-1.19 1.174l-1.44-1.388zm5.143 1.388c-.544-.564-.897-.929-1.19-1.174-.28-.234-.413-.278-.49-.291l.342-1.97c.567.098 1.02.384 1.43.726.396.33.835.789 1.348 1.32l-1.44 1.389zm-2.364-3.436a3 3 0 0 1 1.026 0l-.342 1.971a1 1 0 0 0-.342 0l-.342-1.97zM6.29 9.973c.544.564.897.928 1.191 1.173.28.234.413.278.49.291l-.342 1.97c-.567-.098-1.02-.384-1.43-.726-.396-.33-.835-.788-1.348-1.32l1.44-1.388zm5.143 1.388c-.513.532-.952.99-1.348 1.32-.41.342-.863.628-1.43.727l-.342-1.97c.077-.014.21-.058.49-.292.293-.245.647-.61 1.19-1.173l1.44 1.388zm-3.462.076c.113.02.229.02.342 0l.342 1.97c-.34.06-.687.06-1.026 0l.342-1.97z" fill="currentColor"/></svg>