<svg width="24" height="24" fill="none" xmlns="http://www.w3.org/2000/svg"><path d="M16.606 3V2c-.02 0-.042 0-.063.002l.063.998zm-6.57.882l-.544.839.544-.84zM7.394 3l.063-.998A.998.998 0 0 0 7.394 2v1zM2 9H1h1zm10 13l-.59.808a1 1 0 0 0 1.172.005L12 22zm9-13a1 1 0 1 0 2 0h-2zm-2.553 8.667a1 1 0 1 0-1.452-1.376l1.452 1.376zM12.009 5.985l-.87-.496.87.496zm-.018 0l.87-.496-.87.496zm4.552-3.983c-1.109.07-2.18.43-3.123 1.04l1.088 1.679a4.498 4.498 0 0 1 2.162-.723l-.127-1.996zm-3.123 1.04a7.093 7.093 0 0 0-2.28 2.447l1.737.99a5.094 5.094 0 0 1 1.63-1.758L13.42 3.042zm-.56 2.447a7.092 7.092 0 0 0-2.28-2.447L9.492 4.721a5.094 5.094 0 0 1 1.63 1.759l1.738-.99zm-2.28-2.447a6.498 6.498 0 0 0-3.123-1.04L7.33 3.998c.759.048 1.5.294 2.162.723l1.088-1.679zM7.394 2c-1.757 0-3.425.754-4.642 2.069l1.467 1.359C5.075 4.503 6.22 4 7.394 4V2zM2.752 4.069C1.497 5.424 1 7.244 1 9h2c0-1.41.4-2.688 1.22-3.572l-1.468-1.36zM1 9c0 1.7.737 3.416 1.717 4.97.99 1.569 2.293 3.073 3.57 4.37a46.983 46.983 0 0 0 5.114 4.46l.006.005.002.002h.001L12 22l.59-.808h-.001l-.004-.003-.02-.014a42.885 42.885 0 0 1-1.492-1.176 44.978 44.978 0 0 1-3.36-3.063c-1.223-1.242-2.42-2.631-3.305-4.034C3.513 11.484 3 10.15 3 9H1zm22 0c0-1.756-.497-3.576-1.752-4.931l-1.467 1.359C20.599 6.312 21 7.59 21 9h2zm-1.752-4.931C20.031 2.754 18.363 2 16.606 2v2c1.175 0 2.319.503 3.175 1.428l1.467-1.36zM12 22l.582.813h.001l.003-.002.007-.006.029-.02a19.263 19.263 0 0 0 .493-.369c.332-.252.8-.617 1.356-1.074a44.652 44.652 0 0 0 3.976-3.675l-1.452-1.376a42.664 42.664 0 0 1-3.794 3.506 44.321 44.321 0 0 1-1.754 1.369l-.023.017-.005.003-.001.001L12 22zm-.86-16.51a.99.99 0 0 1 1.72 0l-1.737.99a1.01 1.01 0 0 0 1.755 0l-1.738-.99z" fill="#fff"/><path d="M7.106 13.553a1 1 0 1 0 1.788.894l-1.788-.894zM10 10l.8-.6a1 1 0 0 0-1.694.153L10 10zm3 4l-.8.6a1 1 0 0 0 1.507.107L13 14zm2-2l.707-.707a1 1 0 0 0-1.414 0L15 12zm2 2l-.707.707a1 1 0 0 0 1.307.093L17 14zm5-.5a1 1 0 1 0 0-2v2zm-13.106.947l2-4-1.788-.894-2 4 1.788.894zM9.2 10.6l3 4 1.6-1.2-3-4-1.6 1.2zm4.507 4.107l2-2-1.414-1.414-2 2 1.414 1.414zm.586-2l2 2 1.414-1.414-2-2-1.414 1.414zM17.6 14.8l1.733-1.3-1.2-1.6-1.733 1.3 1.2 1.6zm1.733-1.3H22v-2h-2.667v2zm0 0v-2a2 2 0 0 0-1.2.4l1.2 1.6z" fill="#fff"/></svg>