<svg fill="none" height="24" width="24" xmlns="http://www.w3.org/2000/svg"><g stroke="currentColor" stroke-linecap="round" stroke-linejoin="round" stroke-width="2"><path d="M12 21c-1.886 0-2.828 0-3.414-.586S8 18.886 8 17v-4c0-1.886 0-2.828.586-3.414S10.114 9 12 9s2.828 0 3.414.586S16 11.114 16 13v4c0 1.886 0 2.828-.586 3.414S13.886 21 12 21z"/><path d="M12 11.5V8.308c0-.686 0-1.029.063-1.274a2 2 0 0 1 2.24-1.478c.252.039.567.174 1.197.444s.945.405 1.196.444a2 2 0 0 0 2.24-1.478C19 4.721 19 4.378 19 3.692V3"/></g></svg>