<svg fill="none" height="24" width="24" xmlns="http://www.w3.org/2000/svg"><g stroke="currentColor" stroke-linecap="round" stroke-width="2"><path d="M6.5 15.536V7c0-1.886 0-2.828.586-3.414S8.614 3 10.5 3H17c1.886 0 2.828 0 3.414.586S21 5.114 21 7v10c0 1.886 0 2.828-.586 3.414S18.886 21 17 21H7c-1.886 0-2.828 0-3.414-.586S3 18.886 3 17V8.4m13.5 6.1h-6m6 3h-6"/><path d="M10 8.5c0-.943 0-1.414.293-1.707S11.057 6.5 12 6.5h3c.943 0 1.414 0 1.707.293S17 7.557 17 8.5V9c0 .943 0 1.414-.293 1.707S15.943 11 15 11h-3c-.943 0-1.414 0-1.707-.293S10 9.943 10 9z"/></g></svg>