<svg width="25" height="24" fill="none" xmlns="http://www.w3.org/2000/svg"><g clip-path="url(#clip0_448_1800)"><path d="M3.333 8.867a2 2 0 0 1 2-2h2.092A2 2 0 0 0 9.072 6l.094-.135A2 2 0 0 1 10.813 5h3.04a2 2 0 0 1 1.648.866l.093.135a2 2 0 0 0 1.647.866h2.092a2 2 0 0 1 2 2V17a2 2 0 0 1-2 2h-14a2 2 0 0 1-2-2V8.867z" stroke="#fff" stroke-width="2" stroke-linecap="round"/><path d="M15.476 12.571a3.143 3.143 0 1 1-6.286 0 3.143 3.143 0 0 1 6.286 0z" stroke="#fff" stroke-width="2" stroke-linecap="round"/><path d="M16.905 10a.571.571 0 0 1 1.143 0 .571.571 0 1 1-1.143 0z" fill="#fff"/></g><defs><clipPath id="clip0_448_1800"><path fill="#fff" transform="translate(.333)" d="M0 0H24V24H0z"/></clipPath></defs></svg>