<svg width="24" height="24" fill="none" xmlns="http://www.w3.org/2000/svg"><path d="M6 3a1 1 0 0 0-2 0h2zm14 0a1 1 0 1 0-2 0h2zM3 2a1 1 0 0 0 0 2V2zm18 2a1 1 0 1 0 0-2v2zM8.36 20.232a1 1 0 1 0 1.28 1.536l-1.28-1.536zm6 1.536a1 1 0 1 0 1.28-1.536l-1.28 1.536zM7.793 9.793a1 1 0 0 0 1.414 1.414L7.793 9.793zM10.5 8.5l.707-.707a1 1 0 0 0-1.414 0l.707.707zm2 2l-.707.707a1 1 0 0 0 1.414 0L12.5 10.5zm3.707-2.293a1 1 0 0 0-1.414-1.414l1.414 1.414zM5.586 14.914l-.707.707.707-.707zm12.828 0l.707.707-.707-.707zM18 3v8.5h2V3h-2zM6 11.5V3H4v8.5h2zM3 4h18V2H3v2zm12 10.5h-3v2h3v-2zm-3 0H9v2h3v-2zm-1 1v3h2v-3h-2zm.36 2.232l-3 2.5 1.28 1.536 3-2.5-1.28-1.536zm0 1.536l3 2.5 1.28-1.536-3-2.5-1.28 1.536zm-2.153-8.06l2-2-1.414-1.415-2 2 1.414 1.414zm.586-2l2 2 1.414-1.415-2-2-1.414 1.414zm3.414 2l3-3-1.414-1.415-3 3 1.414 1.414zM4 11.5c0 .915-.002 1.701.082 2.328.088.655.287 1.284.797 1.793l1.414-1.414c-.076-.076-.17-.212-.229-.646C6.002 13.1 6 12.471 6 11.5H4zm5 3c-.971 0-1.599-.002-2.061-.064-.434-.059-.57-.153-.646-.229l-1.414 1.414c.51.51 1.138.709 1.793.797.627.084 1.413.082 2.328.082v-2zm9-3c0 .971-.002 1.599-.064 2.061-.059.434-.153.57-.229.646l1.414 1.414c.51-.51.709-1.138.797-1.793.084-.627.082-1.413.082-2.328h-2zm-3 5c.915 0 1.701.002 2.328-.082.655-.088 1.284-.287 1.793-.797l-1.414-1.414c-.076.076-.212.17-.646.229-.462.062-1.09.064-2.061.064v2z" fill="currentColor"/></svg>