<svg fill="none" height="24" width="24" xmlns="http://www.w3.org/2000/svg"><g fill="currentColor"><path d="M3.454 14.269l.773-.635zm.277.277l.635-.773zM4 11.25V7H2v4.25zM7 4h7V2H7zm10 3v2h2V7zM2 11.25c0 .797-.002 1.483.064 2.036.068.574.22 1.133.617 1.617l1.546-1.269c-.057-.069-.132-.197-.177-.583-.048-.408-.05-.955-.05-1.801zM6.75 14c-.846 0-1.393-.002-1.801-.05-.386-.045-.514-.12-.583-.177l-1.27 1.546c.485.397 1.044.55 1.618.617.553.066 1.239.064 2.036.064zm-4.069.903c.125.152.264.291.416.416l1.269-1.546a.998.998 0 0 1-.139-.139l-1.546 1.27zM14 4c.971 0 1.599.002 2.061.064.434.059.57.153.646.229l1.414-1.414c-.51-.51-1.138-.709-1.793-.797C15.7 1.998 14.915 2 14 2zm5 3c0-.915.002-1.701-.082-2.328-.088-.655-.287-1.284-.797-1.793l-1.414 1.414c.076.076.17.212.229.646C16.998 5.4 17 6.029 17 7zM4 7c0-.971.002-1.599.064-2.061.059-.434.153-.57.229-.646L2.879 2.879c-.51.51-.709 1.138-.797 1.793C1.998 5.3 2 6.085 2 7zm3-5c-.914 0-1.701-.002-2.328.082-.655.088-1.284.287-1.793.797l1.414 1.414c.076-.076.212-.17.646-.229C5.4 4.002 6.029 4 7 4z"/><path d="M6.586 20.414l.707-.707zm13.828 0l-.707-.707zM20 13v4h2v-4zm-3 7h-7v2h7zM7 17v-4H5v4zm3-7h7V8h-7zm0 10c-.971 0-1.599-.002-2.061-.064-.434-.059-.57-.153-.646-.229l-1.414 1.414c.51.51 1.138.709 1.793.797C8.3 22.002 9.085 22 10 22zm-5-3c0 .915-.002 1.701.082 2.328.088.655.287 1.284.797 1.793l1.414-1.414c-.076-.076-.17-.212-.229-.646C7.002 18.6 7 17.971 7 17zm15 0c0 .971-.002 1.599-.064 2.061-.059.434-.153.57-.229.646l1.414 1.414c.51-.51.709-1.138.797-1.793C22.002 18.7 22 17.915 22 17zm-3 5c.915 0 1.701.002 2.328-.082.655-.088 1.284-.287 1.793-.797l-1.414-1.414c-.076.076-.212.17-.646.229-.462.062-1.09.064-2.061.064zm5-9c0-.915.002-1.701-.082-2.328-.088-.655-.287-1.284-.797-1.793l-1.414 1.414c.076.076.17.212.229.646.062.462.064 1.09.064 2.061zm-5-3c.971 0 1.599.002 2.061.064.434.059.57.153.646.229l1.414-1.414c-.51-.51-1.138-.709-1.793-.797C18.7 7.998 17.915 8 17 8zM7 13c0-.971.002-1.599.064-2.061.059-.434.153-.57.229-.646L5.879 8.879c-.51.51-.709 1.138-.797 1.793C4.998 11.3 5 12.085 5 13zm3-5c-.914 0-1.701-.002-2.328.082-.655.088-1.284.287-1.793.797l1.414 1.414c.076-.076.212-.17.646-.229C8.4 10.002 9.029 10 10 10z"/></g></svg>