<svg fill="none" height="24" width="24" xmlns="http://www.w3.org/2000/svg"><g fill="currentColor"><path d="M3.586 18.414l-.707.707zm16.828 0l.707.707zm0-12.828l-.707.707zM20 9v6h2V9zm-3 9H7v2h10zM4 15V9H2v6zm3.001-9h9.997V4H7.003v2zM7 18c-.971 0-1.599-.002-2.061-.064-.434-.059-.57-.153-.646-.229l-1.414 1.414c.51.51 1.138.709 1.793.797C5.3 20.002 6.085 20 7 20zm-5-3c0 .915-.002 1.701.082 2.328.088.655.287 1.284.797 1.793l1.414-1.414c-.076-.076-.17-.212-.229-.646C4.002 16.6 4 15.971 4 15zm18 0c0 .971-.002 1.599-.064 2.061-.059.434-.153.57-.229.646l1.414 1.414c.51-.51.709-1.138.797-1.793C22.002 16.7 22 15.915 22 15zm-3 5c.915 0 1.701.002 2.328-.082.655-.088 1.284-.287 1.793-.797l-1.414-1.414c-.076.076-.212.17-.646.229-.462.062-1.09.064-2.061.064zm5-11c0-.915.002-1.701-.082-2.328-.088-.655-.287-1.284-.797-1.793l-1.414 1.414c.076.076.17.212.229.646C19.998 7.4 20 8.029 20 9zm-5.001-3c.971 0 1.6.002 2.062.064.434.059.57.153.646.229l1.414-1.414c-.51-.51-1.138-.709-1.794-.797C18.7 3.998 17.914 4 17 4v2zM4 9c0-.971.002-1.599.064-2.061.059-.434.153-.57.229-.646L2.879 4.879c-.51.51-.709 1.138-.797 1.793C1.998 7.3 2 8.085 2 9zm3.001-5c-.915 0-1.701-.002-2.328.082-.656.088-1.285.287-1.794.797l1.414 1.414c.076-.076.212-.17.646-.229C5.402 6.002 6.029 6 7.001 6z"/><path d="M21 15V9c0-1.886 0-2.828-.586-3.414S18.886 5 17 5h-5v14h5c1.886 0 2.828 0 3.414-.586S21 16.886 21 15z"/></g></svg>