<svg width="24" height="24" fill="none" xmlns="http://www.w3.org/2000/svg"><g clip-path="url(#clip0_489_191480)"><path d="M3.12 13.54c-.29-2.113-.433-3.17.165-3.855C3.882 9 4.949 9 7.082 9h9.835c2.134 0 3.2 0 3.798.685.598.685.454 1.742.166 3.855l-.41 3c-.224 1.65-.337 2.474-.902 2.967-.565.493-1.397.493-3.06.493H7.491c-1.664 0-2.496 0-3.061-.493-.566-.494-.678-1.318-.903-2.966l-.409-3zM17 9V8c0-1.886 0-2.828-.586-3.414C15.828 4 14.886 4 13 4h-2c-1.886 0-2.828 0-3.414.586C7 5.172 7 6.114 7 8v1" stroke="currentColor" stroke-width="2"/></g><defs><clipPath id="clip0_489_191480"><path fill="currentColor" d="M0 0H24V24H0z"/></clipPath></defs></svg>