<svg width="24" height="24" fill="none" xmlns="http://www.w3.org/2000/svg"><path d="M5.5 4v5M3 6.5h5m-2 10v4m-2-2h4m3.508-8.217c-2.118.606-3.177.908-3.33 1.443a1 1 0 0 0 0 .548c.153.535 1.212.837 3.33 1.443.425.121.637.182.798.314a1 1 0 0 1 .156.162c.127.165.181.38.288.809.615 2.458.922 3.687 1.49 3.84.17.046.35.046.52 0 .568-.152.875-1.382 1.49-3.84.107-.43.16-.644.288-.81a1 1 0 0 1 .156-.16c.16-.133.373-.194.797-.315 2.12-.606 3.178-.908 3.33-1.443a1 1 0 0 0 0-.548c-.152-.535-1.21-.837-3.33-1.443-.424-.121-.636-.182-.797-.314a1 1 0 0 1-.156-.162c-.128-.165-.181-.38-.288-.809-.615-2.458-.922-3.688-1.49-3.84a1 1 0 0 0-.52 0c-.568.152-.875 1.382-1.49 3.84-.107.43-.16.644-.288.81a1 1 0 0 1-.156.16c-.16.133-.373.194-.797.315z" stroke="currentColor" stroke-width="2" stroke-linecap="round" stroke-linejoin="round"/></svg>