<svg width="24" height="24" fill="none" xmlns="http://www.w3.org/2000/svg"><path d="M16.836 15.227c-.757-.349-1.4-.647-1.947-.902-.89-.415-1.861.59-1.404 1.46l1.121 2.134c.61 1.159 1.322 2.443 2.592 2.758 1.626.403 3.007-.83 2.856-2.412-.149-1.553-1.8-2.386-3.218-3.038zm-9.344-3.918l-3.07-3.63C3.865 7.024 3 7.341 3 8.2v4.697c0 1.063.004 2.242.756 2.993 1.663 1.665 5.097.54 5.124-1.891.011-1.036-.72-1.9-1.388-2.69zM15 3H9.19c-.857 0-1.14.825-.466 1.354l3.267 2.567c1.324 1.04 3.068 2.205 4.451 1.245C18.342 6.85 18.357 3.201 15 3z" stroke="currentColor" stroke-width="2" stroke-linecap="round"/></svg>