<svg width="24" height="24" fill="none" xmlns="http://www.w3.org/2000/svg"><path d="M21 12a9 9 0 1 1-18 0 9 9 0 0 1 18 0z" stroke="currentColor" stroke-width="2"/><path d="M6.353 7.991a.85.85 0 1 0 .482 1.63l-.482-1.63zm10.9 2.614a.85.85 0 1 0 .81-1.495l-.81 1.495zM6.593 8.807l.241.815h.001a1.344 1.344 0 0 1 .08-.022 13.32 13.32 0 0 1 1.388-.259 17.254 17.254 0 0 1 3.908-.06l.164-1.693a18.954 18.954 0 0 0-4.295.068c-.53.07-.953.152-1.248.217a9.673 9.673 0 0 0-.465.115l-.009.002h-.003v.001h-.001l.24.816zm5.618.473a16.61 16.61 0 0 1 3.742.792c.436.149.77.287.99.385a6.702 6.702 0 0 1 .311.148l.404-.747.405-.748h-.002a.123.123 0 0 0-.01-.006 4.139 4.139 0 0 0-.11-.056 8.473 8.473 0 0 0-.305-.143 13.468 13.468 0 0 0-1.134-.442 18.332 18.332 0 0 0-4.127-.875l-.164 1.692zm-5.305 1.945a.75.75 0 1 0 .45 1.43l-.45-1.43zm9.278 2.439a.75.75 0 0 0 .752-1.298l-.752 1.298zM7.131 11.94l.224.716h-.001l.011-.003a3.56 3.56 0 0 1 .279-.072c.203-.047.506-.11.895-.165a13.68 13.68 0 0 1 3.21-.06l.146-1.493a15.187 15.187 0 0 0-3.565.068 11.745 11.745 0 0 0-1.31.26l-.08.023-.022.007-.008.002-.002.001h-.001l.224.716zm4.619.416a12.61 12.61 0 0 1 3.217.759 11.102 11.102 0 0 1 1.15.512l.055.03.012.006a.01.01 0 0 0 .001.001l.375-.65a122.486 122.486 0 0 0 .375-.649.118.118 0 0 1-.01-.006 3.062 3.062 0 0 0-.1-.055 12.55 12.55 0 0 0-1.325-.592 14.115 14.115 0 0 0-3.605-.849l-.145 1.493zm-4.504 1.958a.6.6 0 1 0 .306 1.16l-.306-1.16zm8.206 2.065a.6.6 0 0 0 .665-1l-.665 1zm-8.053-1.485l.153.58h.002l.013-.003a12.296 12.296 0 0 1 1.166-.207c.75-.096 1.791-.167 2.955-.067L11.79 14a15.305 15.305 0 0 0-4.174.23 9.024 9.024 0 0 0-.34.076l-.02.005-.007.002h-.002l.152.58zm4.29.303a9.283 9.283 0 0 1 2.755.674 7.933 7.933 0 0 1 .954.474l.045.028.009.006.332-.5.332-.5-.003-.002a.101.101 0 0 0-.006-.004l-.019-.012a6.278 6.278 0 0 0-.305-.179 9.107 9.107 0 0 0-.878-.42 10.481 10.481 0 0 0-3.115-.761l-.102 1.196z" fill="currentColor"/></svg>