<svg fill="none" height="24" width="24" xmlns="http://www.w3.org/2000/svg"><path d="M12.9 19H7c-1.886 0-2.828 0-3.414-.586S3 16.886 3 15V9c0-1.886 0-2.828.586-3.414S5.114 5 7 5h10c1.886 0 2.828 0 3.414.586S21 7.114 21 9v2" stroke="currentColor" stroke-linecap="round" stroke-linejoin="round" stroke-width="2"/><path d="M18 13v6m3-3h-6" stroke="currentColor" stroke-linecap="round" stroke-width="2"/><path d="M12.27 5a.5.5 0 1 0-1 0zm-1 14a.5.5 0 0 0 1 0zm2.345-4.5a.5.5 0 0 0 0-1zM3 13.5a.5.5 0 0 0 0 1zm18-3a.5.5 0 0 0 0-1zm-18-1a.5.5 0 0 0 0 1zM11.27 5v14h1V5zm2.345 8.5H3v1h10.615zM21 9.5H3v1h18z" fill="currentColor"/></svg>