<svg width="24" height="24" fill="none" xmlns="http://www.w3.org/2000/svg"><g clip-path="url(#clip0_489_191510)"><path d="M18.201 15.556l-2.645 2.645c-.686.687-1.132 1.13-1.503 1.412-.348.266-.51.295-.618.295-.108 0-.27-.03-.618-.295-.371-.283-.817-.725-1.503-1.412L5.962 12.85c-.645-.645-.755-.78-.813-.923-.059-.143-.075-.317-.066-1.23L5.11 8.08c.01-.953.019-1.568.084-2.021.06-.425.154-.56.23-.635.075-.075.209-.168.634-.23.453-.064 1.068-.073 2.021-.083l2.618-.027c.912-.01 1.085.007 1.229.066.143.058.278.168.923.813l5.352 5.352c.687.687 1.13 1.132 1.412 1.503.266.348.295.51.295.618 0 .108-.03.27-.295.618-.283.371-.725.817-1.412 1.503z" stroke="currentColor" stroke-width="2" stroke-linecap="round"/><path d="M9.65 8.237A1 1 0 1 1 8.237 9.65a1 1 0 0 1 1.415-1.414z" fill="currentColor"/></g><defs><clipPath id="clip0_489_191510"><path fill="currentColor" d="M0 0H24V24H0z"/></clipPath></defs></svg>