<svg width="24" height="24" fill="none" xmlns="http://www.w3.org/2000/svg"><path d="M5.361 12.332c-.169-2.027-.253-3.04.34-3.686C6.297 8 7.314 8 9.348 8h5.306c2.034 0 3.051 0 3.645.646.594.646.51 1.66.341 3.686l-.333 4c-.145 1.741-.218 2.611-.792 3.14C16.94 20 16.066 20 14.32 20H9.68c-1.746 0-2.62 0-3.194-.528-.574-.529-.647-1.399-.792-3.14l-.333-4z" stroke="currentColor" stroke-width="2"/><path d="M3 5l2 4 .994-2.486c.487-1.217.73-1.826 1.239-2.17C7.74 4 8.397 4 9.708 4h4.584c1.312 0 1.967 0 2.475.344s.752.953 1.239 2.17L19 9l2-4" stroke="currentColor" stroke-width="2" stroke-linecap="round"/></svg>