<svg width="24" height="24" fill="none" xmlns="http://www.w3.org/2000/svg"><path d="M11.29 2.5c.471 0 .707 0 .853.146.147.147.147.383.147.854v.302c0 .471 0 .707-.147.853-.146.147-.382.147-.853.147H8.596V14.5c0 .471 0 .707-.146.854-.147.146-.382.146-.854.146H7c-.471 0-.707 0-.854-.146C6 15.207 6 14.97 6 14.5V4.802H3.29c-.472 0-.707 0-.854-.147-.146-.146-.146-.382-.146-.853V3.5c0-.471 0-.707.146-.854.147-.146.382-.146.854-.146h8zm4.724 16.74c.66 0 1.198-.072 1.61-.216.783-.276 1.174-.79 1.174-1.54 0-.438-.194-.777-.582-1.017-.389-.234-.998-.441-1.83-.621l-1.419-.315c-1.395-.312-2.36-.651-2.893-1.018-.904-.612-1.356-1.57-1.356-2.871 0-1.189.437-2.176 1.31-2.963.874-.786 2.157-1.179 3.85-1.179 1.413 0 2.616.372 3.611 1.116.743.548 1.223 1.28 1.442 2.199.102.43.153.645.003.835-.15.19-.402.19-.906.19h-.717c-.36 0-.54 0-.66-.073s-.25-.326-.513-.832a1.842 1.842 0 0 0-.823-.797c-.437-.222-.98-.333-1.629-.333-.722 0-1.298.144-1.729.432-.43.288-.646.69-.646 1.206 0 .475.213.829.637 1.063.273.156.856.339 1.747.549l2.311.55c1.013.24 1.777.56 2.293.963.8.624 1.201 1.527 1.201 2.71 0 1.212-.47 2.22-1.41 3.025-.934.798-2.257 1.197-3.967 1.197-1.747 0-3.12-.393-4.122-1.18a3.785 3.785 0 0 1-1.404-2.265c-.086-.417-.13-.625.02-.81.15-.184.395-.184.883-.184h.805c.374 0 .56 0 .688.087.128.088.215.31.389.756.08.205.178.378.293.517.455.546 1.235.82 2.339.82z" fill="currentColor"/></svg>