<svg fill="none" height="24" width="24" xmlns="http://www.w3.org/2000/svg"><path d="M2.058 15.664a1 1 0 1 0 1.884.672zM5.5 9l.942-.336a1 1 0 0 0-1.884 0zm1.558 7.336a1 1 0 1 0 1.884-.672zM11 9V8a1 1 0 0 0-1 1zm1.5 0V8zm0 3.5v-1zm2 2.5l.894.447zM12 16v-1zm-1 0h-1a1 1 0 0 0 1 1zm10-6a1 1 0 1 0 0-2zm0 7a1 1 0 1 0 0-2zM3.5 14.6l-.942-.336zm4 0l.942-.336zM11 10h1.5V8H11zm1.5 0c.322 0 .622.088.809.21.162.107.191.195.191.29h2c0-.905-.494-1.567-1.094-1.961-.574-.377-1.274-.54-1.906-.54v2zm1 .5c0 .351-.09.596-.206.735-.089.107-.285.265-.794.265v2c.99 0 1.795-.342 2.33-.985.51-.61.67-1.366.67-2.015zm-1 3c.405 0 .745.201.95.475.223.297.187.515.156.578l1.788.894c.47-.938.183-1.969-.344-2.672A3.187 3.187 0 0 0 12.5 11.5zm1.106 1.053a.626.626 0 0 1-.443.36c-.277.08-.629.087-1.163.087v2c.466 0 1.114.007 1.712-.163a2.614 2.614 0 0 0 1.682-1.39zM12 15h-1v2h1zm0 1v-3.5h-2V16zm0-3.5V9h-2v3.5zm.5-1H11v2h1.5zM21 8c-1.237 0-2.371.436-3.2 1.248-.832.816-1.3 1.955-1.3 3.252h2c0-.803.282-1.413.7-1.823.421-.413 1.037-.677 1.8-.677zm-4.5 4.5c0 1.297.468 2.436 1.3 3.252.83.812 1.963 1.248 3.2 1.248v-2c-.763 0-1.379-.264-1.8-.677-.418-.41-.7-1.02-.7-1.823zM3.942 16.336l.5-1.4-1.884-.672-.5 1.4zm.5-1.4l2-5.6-1.884-.672-2 5.6zm.116-5.6l2 5.6 1.884-.672-2-5.6zm2 5.6l.5 1.4 1.884-.672-.5-1.4zM3.5 15.6h4v-2h-4z" fill="currentColor"/></svg>