<svg fill="none" height="24" width="24" xmlns="http://www.w3.org/2000/svg"><clipPath id="a"><path d="M0 0h24v24H0z"/></clipPath><clipPath id="b"><path d="M0 0h24v24H0z" transform="rotate(180 12 12)"/></clipPath><g clip-path="url(#a)"><g clip-path="url(#b)"><path d="M5.5 8c0 1.886 0 2.828.586 3.414S7.614 12 9.5 12H12m6.5-4c0 1.886 0 2.828-.586 3.414S16.386 12 14.5 12H12m0 0v4m-2.5 2.5a2.5 2.5 0 1 1 5 0 2.5 2.5 0 0 1-5 0zm6.5-13a2.5 2.5 0 1 1 5 0 2.5 2.5 0 0 1-5 0zm-13 0a2.5 2.5 0 1 1 5 0 2.5 2.5 0 0 1-5 0z" stroke="currentColor" stroke-width="2"/></g></g></svg>