<svg width="24" height="24" fill="none" xmlns="http://www.w3.org/2000/svg"><path d="M19.307 18.01l.863.505-.863-.505zM12 5.08v1-1zm-4.775 8.45l2.16-3.842-1.743-.98-2.16 3.84 1.743.981zm7.39-3.842l2.16 3.841 1.744-.98-2.161-3.841-1.743.98zM14.16 18H9.839v2h4.322v-2zm-8.68-5.451c-.73 1.297-1.335 2.369-1.669 3.242-.337.883-.503 1.832.018 2.724l1.726-1.01c-.057-.1-.14-.308.124-1 .268-.701.782-1.62 1.545-2.976l-1.743-.98zM9.84 18c-1.556 0-2.608-.003-3.35-.113-.733-.109-.875-.283-.933-.382l-1.726 1.01c.521.89 1.43 1.212 2.365 1.35.924.138 2.156.135 3.644.135v-2zm6.936-4.47c.763 1.355 1.277 2.274 1.545 2.975.264.692.181.9.123 1l1.727 1.01c.521-.892.355-1.841.018-2.724-.334-.873-.94-1.945-1.67-3.242l-1.743.98zM14.161 20c1.488 0 2.72.003 3.644-.135.935-.138 1.844-.46 2.365-1.35l-1.727-1.01c-.057.099-.2.273-.932.382-.742.11-1.794.113-3.35.113v2zM9.385 9.688c.79-1.402 1.327-2.352 1.803-2.966.472-.609.699-.643.812-.643v-2c-1.056 0-1.8.653-2.393 1.417-.588.76-1.21 1.868-1.965 3.212l1.743.98zm6.973-.98c-.756-1.344-1.377-2.453-1.965-3.212C13.8 4.732 13.056 4.08 12 4.08v2c.113 0 .34.034.812.643.476.614 1.014 1.564 1.803 2.966l1.743-.98z" fill="currentColor"/></svg>