<svg width="24" height="24" fill="none" xmlns="http://www.w3.org/2000/svg"><path d="M19.307 5.99l-.863.505.863-.505zm-14.614 0l-.863-.505.863.505zM12 18.92v1-1zm4.775-8.45l-2.16 3.842 1.743.98 2.16-3.84-1.743-.981zm-7.39 3.842l-2.16-3.841-1.743.98 2.16 3.841 1.743-.98zM9.84 6h4.322V4H9.839v2zm8.68 5.451c.73-1.297 1.335-2.369 1.669-3.242.337-.883.503-1.832-.018-2.724l-1.727 1.01c.058.1.14.308-.123 1-.268.701-.782 1.62-1.545 2.976l1.744.98zM14.16 6c1.556 0 2.608.003 3.35.113.733.109.875.283.933.382l1.726-1.01c-.521-.89-1.43-1.212-2.365-1.35C16.881 3.997 15.65 4 14.161 4v2zm-6.936 4.47C6.462 9.116 5.948 8.197 5.68 7.496c-.264-.692-.181-.9-.124-1L3.83 5.485c-.521.892-.355 1.841-.018 2.724.334.873.94 1.945 1.67 3.242l1.743-.98zM9.839 4c-1.488 0-2.72-.003-3.644.135-.935.138-1.844.46-2.365 1.35l1.726 1.01c.058-.099.2-.273.933-.382C7.23 6.003 8.283 6 9.839 6V4zm4.776 10.312c-.79 1.402-1.327 2.352-1.803 2.966-.472.609-.699.643-.812.643v2c1.056 0 1.8-.653 2.393-1.417.588-.76 1.21-1.868 1.965-3.212l-1.743-.98zm-6.973.98c.756 1.344 1.376 2.453 1.965 3.212.593.764 1.337 1.416 2.393 1.416v-2c-.113 0-.34-.033-.812-.642-.476-.614-1.014-1.564-1.803-2.966l-1.743.98z" fill="currentColor"/></svg>