<svg width="24" height="24" fill="none" xmlns="http://www.w3.org/2000/svg"><path d="M5.99 19.307l.505-.863-.505.863zm8.812-3.82l-.49-.872.49.871zM18.921 12h-1 1zm-8.45-4.775l3.84 2.16.981-1.743-3.84-2.16-.981 1.743zm3.84 7.39l-3.84 2.16.98 1.744 3.841-2.161-.98-1.743zM6 14.16V9.839H4v4.322h2zm5.451-8.68c-1.297-.73-2.369-1.335-3.242-1.669-.883-.337-1.832-.503-2.724.018l1.01 1.726c.1-.057.308-.14 1 .124.701.268 1.62.782 2.976 1.545l.98-1.743zM6 9.84c0-1.556.003-2.608.113-3.35.109-.733.283-.875.382-.933L5.485 3.83c-.89.521-1.212 1.43-1.35 2.365C3.997 7.119 4 8.35 4 9.839h2zm4.47 6.936c-1.355.763-2.274 1.277-2.975 1.545-.692.264-.9.181-1 .123l-1.01 1.727c.892.521 1.841.355 2.724.018.873-.334 1.945-.94 3.242-1.67l-.98-1.743zM4 14.161c0 1.488-.003 2.72.135 3.644.138.935.46 1.844 1.35 2.365l1.01-1.727c-.099-.057-.273-.2-.382-.932-.11-.742-.113-1.794-.113-3.35H4zm10.312-4.776c1.402.79 2.352 1.327 2.966 1.803.609.472.643.699.643.812h2c0-1.056-.653-1.8-1.417-2.393-.76-.588-1.868-1.21-3.212-1.965l-.98 1.743zm.98 6.973c1.344-.756 2.453-1.377 3.212-1.965.764-.593 1.416-1.337 1.416-2.393h-2c0 .113-.033.34-.642.812-.614.476-1.564 1.014-2.966 1.803l.98 1.743z" fill="currentColor"/></svg>