<svg width="24" height="24" fill="none" xmlns="http://www.w3.org/2000/svg"><path d="M18.01 19.307l-.505-.863.505.863zM5.08 12h1-1zm8.45 4.775l-3.842-2.16-.98 1.743 3.84 2.16.981-1.743zm-3.842-7.39l3.841-2.16-.98-1.743-3.841 2.16.98 1.743zM18 9.84v4.322h2V9.839h-2zm-5.451 8.68c1.297.73 2.369 1.335 3.242 1.669.883.337 1.832.503 2.724-.018l-1.01-1.727c-.1.058-.308.14-1-.123-.701-.268-1.62-.782-2.976-1.545l-.98 1.744zM18 14.16c0 1.556-.003 2.608-.113 3.35-.109.733-.283.875-.382.933l1.01 1.726c.89-.521 1.212-1.43 1.35-2.365.138-.924.135-2.156.135-3.644h-2zm-4.47-6.936c1.355-.763 2.274-1.277 2.975-1.545.692-.264.9-.181 1-.124l1.01-1.726c-.892-.521-1.841-.355-2.724-.018-.873.334-1.945.94-3.242 1.67l.98 1.743zM20 9.839c0-1.488.003-2.72-.135-3.644-.138-.935-.46-1.844-1.35-2.365l-1.01 1.726c.099.058.273.2.382.933.11.742.113 1.794.113 3.35h2zM9.688 14.615c-1.402-.79-2.352-1.327-2.966-1.803-.609-.472-.643-.699-.643-.812h-2c0 1.056.653 1.8 1.417 2.393.76.588 1.868 1.21 3.212 1.965l.98-1.743zm-.98-6.973c-1.344.756-2.453 1.376-3.212 1.965C4.732 10.2 4.08 10.944 4.08 12h2c0-.113.034-.34.643-.812.614-.476 1.564-1.014 2.966-1.803l-.98-1.743z" fill="currentColor"/></svg>