<svg width="25" height="24" fill="none" xmlns="http://www.w3.org/2000/svg"><g clip-path="url(#clip0_448_1806)"><path d="M22.167 4.5c-.5 0-1.26.662-2.22.854A4.157 4.157 0 0 0 16.88 4c-2.32 0-4.2 1.922-4.2 4.293 0 .335.038.661.108.976-4.453 0-5.988-4.223-7.524-4.223-1.535 0-1.535 1.83-1.535 2.614 0 2.743.143 5.505 4.937 8.34-1.75 1.401-5.449 2.119-5.96 3.072C2.193 20.025 6.772 21 9.143 21c7.216 0 12.336-3.88 12.023-11 2-2.5 1.5-5.5 1-5.5z" stroke="#fff" stroke-width="2" stroke-linejoin="round"/></g><defs><clipPath id="clip0_448_1806"><path fill="#fff" transform="translate(.667)" d="M0 0H24V24H0z"/></clipPath></defs></svg>