<svg fill="none" height="18" width="18" xmlns="http://www.w3.org/2000/svg"><g fill="#fff"><path d="m13.5 11.194a.5.5 0 0 0 1 0zm.207-8.901.354-.354zm-7.707.207h6v-1h-6zm7.5 1.5v7.193h1v-7.193zm-9 11v-11h-1v11zm7.5-12.5c.486 0 .8.001 1.03.032.218.03.286.076.324.114l.707-.707c-.255-.255-.57-.354-.897-.398-.314-.042-.707-.041-1.164-.041zm2.5 1.5c0-.458.001-.85-.041-1.164-.044-.328-.144-.642-.398-.897l-.707.707c.038.039.085.106.114.323.03.231.032.545.032 1.03h1zm-8.5-2.5c-.457 0-.85-.001-1.164.041-.328.044-.642.143-.897.398l.707.707c.039-.038.106-.085.323-.114.232-.03.545-.032 1.031-.032zm-1.5 2.5c0-.486.001-.8.032-1.03.03-.218.076-.286.114-.324l-.706-.706c-.254.255-.354.57-.398.897-.042.313-.042.706-.042 1.163z"/><path d="m7 2v-.5h-.5v.5zm0 11h-.5v.5h.5zm6.707-.293-.353-.354zm0-10.414.354-.354zm-6.707.207h5v-1h-5zm6.5 1.499v7.001h1v-7.001zm-6 9.001v-11h-1v11zm4.5-.5h-5v1h5zm1.5-1.5c0 .486-.001.8-.032 1.03-.03.218-.076.285-.114.324l.707.707c.255-.255.354-.57.398-.897.042-.313.041-.706.041-1.163h-1zm-1.5 2.5c.457 0 .85.001 1.164-.041.328-.044.642-.143.897-.398l-.707-.707c-.038.038-.106.085-.323.114-.232.03-.546.032-1.031.032zm0-11c.486 0 .8.001 1.03.032.218.03.286.076.324.114l.707-.707c-.255-.255-.57-.354-.897-.398-.314-.042-.707-.041-1.164-.041zm2.5 1.499c0-.457.001-.85-.041-1.163-.044-.328-.144-.642-.398-.897l-.707.707c.038.039.085.107.114.323.03.231.032.545.032 1.03z"/><path d="m14 16.5a.5.5 0 0 0 0-1zm0-1h-8.5v1h8.5zm-8.5-2h1.658v-1h-1.658zm-2 1a2 2 0 0 0 2 2v-1a1 1 0 0 1 -1-1zm1 0a1 1 0 0 1 1-1v-1a2 2 0 0 0 -2 2z"/></g><path d="m14 16h-.5a1.5 1.5 0 0 1 -1.5-1.5v-.167c0-.736.597-1.333 1.333-1.333a.667.667 0 0 0 .667-.667v-3.333" stroke="#fff"/></svg>