<svg fill="none" height="18" width="18" xmlns="http://www.w3.org/2000/svg"><g stroke="currentColor"><path d="m5 13h-.5c-.943 0-1.414 0-1.707-.293s-.293-.764-.293-1.707v-6c0-.943 0-1.414.293-1.707s.764-.293 1.707-.293h9c.943 0 1.414 0 1.707.293s.293.764.293 1.707v6c0 .943 0 1.414-.293 1.707s-.764.293-1.707.293h-.5" stroke-linecap="round"/><path d="m7.8 12.6c.361-.482.542-.722.753-.828a1 1 0 0 1 .894 0c.211.106.392.346.753.828.514.685.77 1.027.796 1.31a1 1 0 0 1 -.47.94c-.242.15-.67.15-1.526.15s-1.284 0-1.526-.15a1 1 0 0 1 -.47-.94c.026-.283.282-.625.796-1.31z"/></g></svg>