<svg fill="none" height="18" width="18" xmlns="http://www.w3.org/2000/svg"><path d="m7.586 14.586-1.414-1.414c-.578-.579-.868-.867-1.02-1.235s-.152-.777-.152-1.594v-5.929c0-1.027 0-1.541.309-1.669.308-.128.672.236 1.398.962l.879.879c.666.666 1 1 1.414 1s.748-.334 1.414-1l.879-.879c.726-.726 1.09-1.09 1.398-.962.309.128.309.642.309 1.67v5.928c0 .818 0 1.226-.152 1.594-.153.368-.442.657-1.02 1.235l-1.414 1.414c-.666.666-1 1-1.414 1s-.748-.334-1.414-1z" stroke="currentColor" stroke-linecap="round" stroke-linejoin="round"/></svg>