<svg fill="none" height="18" width="18" xmlns="http://www.w3.org/2000/svg"><path d="m10.414 3.414 1.414 1.414c.579.578.867.868 1.02 1.235.152.368.152.776.152 1.594v5.929c0 1.027 0 1.541-.309 1.669-.308.128-.672-.236-1.398-.962l-.879-.879c-.666-.666-1-1-1.414-1s-.748.334-1.414 1l-.879.879c-.726.726-1.09 1.09-1.398.962-.309-.128-.309-.642-.309-1.67v-5.927c0-.818 0-1.226.152-1.594.152-.367.442-.657 1.02-1.235l1.414-1.414c.666-.666 1-1 1.414-1s.748.334 1.414 1z" stroke="currentColor" stroke-linecap="round" stroke-linejoin="round"/></svg>
