<svg width="18" height="18" fill="none" xmlns="http://www.w3.org/2000/svg"><path d="M3.52 7.552l1.521-1.449c.573-.544.859-.817 1.216-.96C6.615 5 7.01 5 7.8 5h5.85c1.003 0 1.505 0 1.635.304.13.305-.219.666-.915 1.39l-.885.92c-.631.655-.947.983-.947 1.386 0 .403.316.731.947 1.387l.885.92c.696.723 1.044 1.085.915 1.389-.13.304-.632.304-1.636.304H7.8c-.79 0-1.185 0-1.543-.143-.357-.143-.643-.415-1.216-.96l-1.52-1.449C2.807 9.768 2.45 9.428 2.45 9c0-.429.357-.768 1.07-1.448z" stroke="currentColor" stroke-linecap="round" stroke-linejoin="round"/></svg>
