<svg fill="none" height="18" width="18" xmlns="http://www.w3.org/2000/svg"><path d="m4 8.5a.5.5 0 0 0 -1 0zm11 0a.5.5 0 0 0 -1 0zm-3.5 0a.5.5 0 0 0 -1 0zm-4 0a.5.5 0 0 0 -1 0zm-5 6.5a.5.5 0 0 0 0 1zm13 1a.5.5 0 0 0 0-1zm-.308-7.817-.465-.183zm-12.384 0-.466.183zm7.553-4.92-.34.367.34-.366zm-1.361-.897v.5zm-4.794 4.768 3.774-3.504-.68-.733-3.773 3.504.68.733zm5.815-3.504 3.773 3.504.68-.733-3.773-3.504zm-5.474 5.37h8.907v-1h-8.908v1zm-.547 6.5v-7h-1v7zm11 0v-7h-1v7zm-3.5 0v-7h-1v7zm-4 0v-7h-1v7zm-5 .5h1v-1h-1zm1 0h3.5v-1h-3.5zm3.5 0h4v-1h-4zm4 0h3.5v-1h-3.5zm3.5 0h1v-1h-1zm-.706-8.866c.406.377.67.623.824.813.17.208.062.173.109.053l.93.366c.172-.438-.071-.815-.264-1.051-.209-.257-.537-.56-.919-.914zm-.34 1.866c.52 0 .967.001 1.295-.044.302-.043.737-.153.909-.59l-.931-.366c.047-.12.15-.072-.116-.035-.242.035-.603.035-1.158.035v1zm-9.929-2.6c-.382.356-.71.658-.919.915-.193.236-.436.613-.265 1.05l.932-.365c.047.12-.061.155.11-.053.153-.19.417-.436.823-.813l-.68-.733zm1.021 1.6c-.554 0-.915-.001-1.157-.035-.266-.037-.163-.085-.116.035l-.93.366c.171.437.606.547.908.59.329.044.774.044 1.296.044v-1zm3.434-4.37c.333-.309.548-.507.725-.633.166-.119.244-.132.296-.132v-1c-.34 0-.62.136-.876.317-.243.173-.512.425-.825.715zm2.722-.733c-.313-.29-.582-.542-.825-.715-.255-.181-.535-.317-.876-.317v1c.052 0 .13.013.296.132.177.126.392.324.725.633z" fill="currentColor"/></svg>
