<svg fill="none" height="18" width="18" xmlns="http://www.w3.org/2000/svg"><g stroke="currentColor" stroke-linecap="round" stroke-linejoin="round"><path d="m8.5 15c-1.414 0-2.121 0-2.56-.44-.44-.439-.44-1.146-.44-2.56v-5c0-1.414 0-2.121.44-2.56.438-.44 1.145-.44 2.56-.44h1c1.414 0 2.121 0 2.56.44.44.439.44 1.146.44 2.56v5c0 1.414 0 2.121-.44 2.56-.439.44-1.146.44-2.56.44z"/><path d="m9.6 4h-1.2a.4.4 0 0 1 -.4-.4.6.6 0 0 1 .6-.6h.8a.6.6 0 0 1 .6.6.4.4 0 0 1 -.4.4z" fill="currentColor"/><path d="m8.75 12.5 1.25-2.946h-2l1.5-3.054"/></g></svg>
