<svg fill="none" height="18" width="18" xmlns="http://www.w3.org/2000/svg"><g stroke="currentColor" stroke-linecap="round" stroke-linejoin="round"><path d="m3 8.5c0-1.414 0-2.121.44-2.56.438-.44 1.145-.44 2.56-.44h5c1.414 0 2.121 0 2.56.44.44.439.44 1.146.44 2.56v1c0 1.414 0 2.121-.44 2.56-.439.44-1.146.44-2.56.44h-5c-1.414 0-2.121 0-2.56-.44-.44-.438-.44-1.145-.44-2.56z"/><path d="m14 9.6v-1.2c0-.22.18-.4.4-.4a.6.6 0 0 1 .6.6v.8a.6.6 0 0 1 -.6.6.4.4 0 0 1 -.4-.4z" fill="currentColor"/><path d="m5.5 8.75 2.946 1.25v-2l3.054 1.5"/></g></svg>