<svg fill="none" height="18" width="18" xmlns="http://www.w3.org/2000/svg"><path d="m14.16 11.108.456-.203-.457.204zm.298.817.499-.037zm-.66 1.017.168.47zm-10.256-1.017-.499-.037zm.66 1.017-.168.47zm.798-4.595h-.5zm-.062.293-.457-.203zm8.124 0-.457.203zm-.562-2.14v1.847h1v-1.847zm-7 1.847v-1.847h-1v1.847zm-1.202 2.965 1.097-2.469-.914-.406-1.097 2.469zm8.307-2.469 1.098 2.469.913-.406-1.097-2.47zm.325 3.657h-3.93v1h3.93zm-3.93 0h-3.93v1h3.93zm4.703-1.188c.097.22.162.366.206.48.043.114.05.157.05.17l.998-.074c-.012-.16-.06-.31-.115-.454s-.133-.319-.226-.528zm-.773 2.188c.23 0 .421 0 .575-.008s.31-.026.461-.08l-.336-.941a.701.701 0 0 1 -.178.022c-.121.007-.282.007-.522.007zm1.03-1.537a.5.5 0 0 1 -.33.508l.336.941a1.5 1.5 0 0 0 .991-1.524zm-10.576-1.058c-.093.209-.171.384-.227.528a1.61 1.61 0 0 0 -.114.454l.997.075a.706.706 0 0 1 .051-.171c.044-.114.109-.26.207-.48zm1.686 1.595c-.24 0-.401 0-.522-.007a.702.702 0 0 1 -.178-.022l-.336.941c.15.054.307.072.46.08.155.008.347.008.576.008zm-2.027-.612a1.5 1.5 0 0 0 .99 1.524l.337-.941a.5.5 0 0 1 -.33-.508zm1.457-3.541a.222.222 0 0 1 -.02.09l.915.406c.07-.156.105-.325.105-.496zm8 0c0 .17.036.34.105.496l.914-.406a.222.222 0 0 1 -.019-.09zm-3.5-5.347a3.5 3.5 0 0 1 3.5 3.5h1a4.5 4.5 0 0 0 -4.5-4.5zm0-1a4.5 4.5 0 0 0 -4.5 4.5h1a3.5 3.5 0 0 1 3.5-3.5zm-1.875 12.998a.5.5 0 1 0 -.25.968zm4 .968a.5.5 0 0 0 -.25-.968zm-3.63-.356-.126.484.125-.484zm-.62.356.494.128.25-.968-.494-.128zm3.756.128.495-.129-.252-.967-.494.128zm-3.262 0a6.5 6.5 0 0 0 3.262 0l-.25-.968a5.501 5.501 0 0 1 -2.761 0z" fill="currentColor"/></svg>
