<svg fill="none" height="18" width="18" xmlns="http://www.w3.org/2000/svg"><path d="m3 2a.5.5 0 0 0 0 1zm7.5.5v.5h.013zm.364 6.5-.049-.498a.5.5 0 0 0 .032.997l.017-.5zm-7.864 6a.5.5 0 1 0 0 1zm2.91.5v.5zm4.62 0-.007.5zm-.063 0v.5zm.019 0-.004.5zm.014-13 .012.5h.008a2.582 2.582 0 0 1 .155.001c.11.003.269.01.46.028a6.41 6.41 0 0 1 1.39.279c.5.166.963.41 1.296.757.321.335.543.788.543 1.435h1c0-.909-.324-1.608-.821-2.127-.486-.507-1.114-.819-1.704-1.014a7.891 7.891 0 0 0 -2.346-.359h-.005zm3.864 3c0 1.285-.806 2.023-1.719 2.467a5.964 5.964 0 0 1 -1.685.515 3.949 3.949 0 0 1 -.14.02h-.005l.049.497.048.498h.006a1.654 1.654 0 0 0 .052-.006 7.02 7.02 0 0 0 .63-.113c.398-.09.937-.247 1.482-.512 1.088-.529 2.282-1.54 2.282-3.366zm-3.5 3.5-.018.5a.812.812 0 0 1 .032 0l.112.01a5.413 5.413 0 0 1 1.672.422c.893.393 1.702 1.098 1.702 2.457h1c0-1.895-1.192-2.885-2.299-3.373a6.41 6.41 0 0 0 -1.493-.438 6.558 6.558 0 0 0 -.672-.078h-.016-.001-.001l-.017.5zm3.5 3.389c0 .657-.206 1.123-.503 1.467-.304.354-.728.607-1.197.784-.946.358-1.953.363-2.127.36l-.014 1c.21.003 1.37 0 2.495-.425.566-.214 1.153-.546 1.601-1.067.457-.53.745-1.228.745-2.119zm-3.897 2.61-4.557.001v1h4.558v-1zm-4.557.001h-2.91v1h2.91zm-2.91-12h2.91v-1h-2.91zm2.91 0h4.59v-1h-4.59zm.5 12.5v-13h-1v13zm4.127-.5h-.048l-.007 1h.041zm-.07 1h.015l.007-1h-.022z" fill="currentColor"/></svg>
