<svg fill="none" height="18" width="18" xmlns="http://www.w3.org/2000/svg"><path d="m4 4.5c0-.943 0-1.414.293-1.707s.764-.293 1.707-.293h6c.943 0 1.414 0 1.707.293s.293.764.293 1.707v9c0 .943 0 1.414-.293 1.707s-.764.293-1.707.293h-6c-.943 0-1.414 0-1.707-.293s-.293-.764-.293-1.707z" stroke="currentColor" stroke-linecap="round" stroke-linejoin="round"/><path d="m6 13.5a.5.5 0 0 1 .5-.5h1a.5.5 0 0 1 0 1h-1a.5.5 0 0 1 -.5-.5zm0-9a.5.5 0 0 1 .5-.5h5a.5.5 0 0 1 0 1h-5a.5.5 0 0 1 -.5-.5zm1 3a.5.5 0 1 1 -1 0 .5.5 0 0 1 1 0zm0 3a.5.5 0 1 1 -1 0 .5.5 0 0 1 1 0zm2.5 0a.5.5 0 1 1 -1 0 .5.5 0 0 1 1 0zm0-3a.5.5 0 1 1 -1 0 .5.5 0 0 1 1 0zm2.5 0a.5.5 0 1 1 -1 0 .5.5 0 0 1 1 0zm0 3a.5.5 0 1 1 -1 0 .5.5 0 0 1 1 0zm0 3a.5.5 0 1 1 -1 0 .5.5 0 0 1 1 0z" fill="currentColor"/></svg>
