<svg fill="none" height="18" width="18" xmlns="http://www.w3.org/2000/svg" xmlns:xlink="http://www.w3.org/1999/xlink"><clipPath id="a"><path d="m0 0h18v18h-18z"/></clipPath><clipPath id="b"><path d="m0 0h18v18h-18z" transform="matrix(-1 0 0 -1 18 18)"/></clipPath><g clip-path="url(#a)"><g clip-path="url(#b)"><circle cx="9" cy="9" r="6.5" stroke="currentColor" transform="matrix(-1 0 0 -1 18 18)"/><path d="m10.664 10.004.263-.395c.913-1.368 1.369-2.053 1.086-2.58-.283-.529-1.105-.529-2.75-.529h-.526c-1.645 0-2.468 0-2.75.528-.283.528.173 1.213 1.086 2.581l.263.395c.753 1.129 1.129 1.693 1.664 1.693s.911-.564 1.664-1.693z" fill="currentColor"/></g></g></svg>