<svg fill="none" height="18" width="18" xmlns="http://www.w3.org/2000/svg" xmlns:xlink="http://www.w3.org/1999/xlink"><clipPath id="a"><path d="m0 0h18v18h-18z"/></clipPath><clipPath id="b"><path d="m0 0h18v18h-18z" transform="matrix(0 1 -1 0 18 0)"/></clipPath><g clip-path="url(#a)"><g clip-path="url(#b)"><circle cx="9" cy="9" r="6.5" stroke="#fff" transform="matrix(0 1 -1 0 18 0)"/><path d="m10.004 7.336-.395-.263c-1.368-.913-2.053-1.369-2.579-1.086-.53.282-.53 1.105-.53 2.75v.526c0 1.645 0 2.467.528 2.75s1.213-.173 2.581-1.086l.395-.263c1.129-.753 1.693-1.129 1.693-1.664s-.564-.911-1.693-1.664z" fill="#fff"/></g></g></svg>