<svg fill="none" height="18" width="18" xmlns="http://www.w3.org/2000/svg"><g stroke="currentColor"><path d="m5.875 3.5c-.822 0-1.233 0-1.51.227a.999.999 0 0 0 -.138.139c-.227.276-.227.687-.227 1.509v8.125c0 .943 0 1.414.293 1.707s.764.293 1.707.293h6c.943 0 1.414 0 1.707-.293s.293-.764.293-1.707v-8.125c0-.822 0-1.233-.227-1.51a.998.998 0 0 0 -.139-.138c-.276-.227-.687-.227-1.509-.227"/><path d="m6 3.5a1 1 0 0 1 1-1h4a1 1 0 1 1 0 2h-4a1 1 0 0 1 -1-1z"/><path d="m6.5 7.5h5m-5 2.5h5m-5 2.5h2" stroke-linecap="round" stroke-linejoin="round"/></g></svg>
