<svg fill="none" height="18" width="18" xmlns="http://www.w3.org/2000/svg"><path d="m3 4.5c0-.943 0-1.414.293-1.707s.764-.293 1.707-.293h8c.943 0 1.414 0 1.707.293s.293.764.293 1.707v9c0 .943 0 1.414-.293 1.707s-.764.293-1.707.293h-8c-.943 0-1.414 0-1.707-.293s-.293-.764-.293-1.707z" stroke="currentColor"/><path d="m3 7h12m-12 4.5h12" stroke="currentColor" stroke-linecap="round"/><path d="m6 9a.5.5 0 1 1 -1 0 .5.5 0 0 1 1 0zm0-4.5a.5.5 0 1 1 -1 0 .5.5 0 0 1 1 0zm0 9a.5.5 0 1 1 -1 0 .5.5 0 0 1 1 0z" fill="currentColor"/></svg>