<svg fill="none" height="18" width="18" xmlns="http://www.w3.org/2000/svg" xmlns:xlink="http://www.w3.org/1999/xlink"><clipPath id="a"><path d="m0 0h18v18h-18z"/></clipPath><g clip-path="url(#a)"><path d="m13.421 5.447-.46.195zm-2.95-2.874.187-.463-.188.463zm2.736 12.634.354.354zm-8.414 0 .353-.353zm.207-1.707v-9h-1v9zm6.5 1.5h-5v1h5zm-5-12h3.189v-1h-3.189zm6.5 3.26v7.24h1v-7.24zm-2.266-2.836 1.811 1.76.697-.718-1.812-1.76zm3.266 2.835c0-.375.01-.705-.118-1.007l-.921.39c.03.071.039.159.039.617zm-1.455-1.076c.33.32.385.387.415.459l.922-.39c-.128-.301-.371-.525-.64-.786zm-2.855-2.183c.44 0 .524.009.593.037l.376-.927c-.292-.119-.609-.11-.97-.11v1zm1.741-.293c-.258-.252-.48-.478-.772-.597l-.376.927c.07.028.136.08.452.387zm.069 13.293c.457 0 .85.001 1.164-.041.328-.044.642-.143.897-.398l-.707-.707c-.038.038-.106.085-.323.114-.232.03-.546.032-1.031.032zm1.5-2.5c0 .486-.001.8-.032 1.03-.03.218-.076.286-.114.324l.707.707c.255-.255.354-.57.398-.897.041-.314.041-.707.041-1.164zm-9 0c0 .457-.001.85.041 1.164.044.328.144.642.398.897l.707-.707c-.038-.038-.085-.106-.114-.323-.03-.232-.032-.546-.032-1.031zm2.5 1.5c-.486 0-.8-.001-1.03-.032-.218-.03-.285-.076-.324-.114l-.707.707c.255.255.57.354.897.398.314.041.707.041 1.164.041zm-1.5-10.5c0-.486.001-.8.032-1.03.03-.218.076-.285.114-.324l-.706-.706c-.254.255-.354.57-.398.897-.042.313-.042.706-.042 1.163zm1.5-2.5c-.457 0-.85-.001-1.164.041-.328.044-.642.144-.897.398l.707.707c.039-.038.106-.085.323-.114.232-.03.545-.032 1.031-.032z" fill="currentColor"/><path d="m10.5 3v1c0 .943 0 1.414.293 1.707s.764.293 1.707.293h1" stroke="currentColor"/><path d="m7.6 8.5a.5.5 0 0 0 0-1zm0 5a.5.5 0 0 0 0-1zm2.8-6a.5.5 0 0 0 0 1zm0 5a.5.5 0 0 0 0 1zm.6-1.236h-.5zm0-1.528h-.5zm0-1.236h-.5zm-4 1.236h-.5zm.6-2.236h-.1v1h.1zm-1.1 1v1.236h1v-1.236zm0 2.764v1.236h1v-1.236zm1 2.236h.1v-1h-.1zm2.9-5h.1v-1h-.1zm.1 0v1.236h1v-1.236zm0 2.764v1.236h1v-1.236zm0 1.236h-.1v1h.1zm.512-2.065a.927.927 0 0 0 -.512.829h1a.073.073 0 0 1 -.04.065zm0 .13a.078.078 0 0 1 -.03-.03.07.07 0 0 1 -.01-.035.07.07 0 0 1 .01-.036.078.078 0 0 1 .03-.03l.448.895a.927.927 0 0 0 0-1.658zm-.512-.829a.93.93 0 0 0 .512.83l.448-.895c.024.012.04.037.04.065zm0-1.236h1a1 1 0 0 0 -1-1zm-4 4a1 1 0 0 0 1 1v-1zm.04-1.17a.073.073 0 0 1 -.04-.066h1a.927.927 0 0 0 -.512-.83l-.448.895zm0-1.66a.927.927 0 0 0 0 1.66l.448-.895a.078.078 0 0 1 .04.065.078.078 0 0 1 -.04.065l-.448-.894zm-.04.066c0-.028.016-.053.04-.065l.448.894a.927.927 0 0 0 .512-.829zm4 2.764v1a1 1 0 0 0 1-1zm-3-5a1 1 0 0 0 -1 1h1z" fill="currentColor"/></g></svg>
