<svg fill="none" height="18" width="18" xmlns="http://www.w3.org/2000/svg" xmlns:xlink="http://www.w3.org/1999/xlink"><clipPath id="a"><path d="m0 0h18v18h-18z"/></clipPath><g clip-path="url(#a)"><path d="m13.421 5.447-.46.195zm-2.95-2.874.187-.463-.188.463zm2.736 12.634.354.354zm-8.414 0 .353-.353zm.207-1.707v-9h-1v9zm6.5 1.5h-5v1h5zm-5-12h3.189v-1h-3.189zm6.5 3.26v7.24h1v-7.24zm-2.266-2.836 1.811 1.76.697-.718-1.812-1.76zm3.266 2.835c0-.375.01-.705-.118-1.007l-.921.39c.03.071.039.159.039.617zm-1.455-1.076c.33.32.385.387.415.459l.922-.39c-.128-.301-.371-.525-.64-.786zm-2.855-2.183c.44 0 .524.009.593.037l.376-.927c-.292-.119-.609-.11-.97-.11v1zm1.741-.293c-.258-.252-.48-.478-.772-.597l-.376.927c.07.028.136.08.452.387zm.069 13.293c.457 0 .85.001 1.164-.041.328-.044.642-.143.897-.398l-.707-.707c-.038.038-.106.085-.323.114-.232.03-.546.032-1.031.032zm1.5-2.5c0 .486-.001.8-.032 1.03-.03.218-.076.286-.114.324l.707.707c.255-.255.354-.57.398-.897.041-.314.041-.707.041-1.164zm-9 0c0 .457-.001.85.041 1.164.044.328.144.642.398.897l.707-.707c-.038-.038-.085-.106-.114-.323-.03-.232-.032-.546-.032-1.031zm2.5 1.5c-.486 0-.8-.001-1.03-.032-.218-.03-.285-.076-.324-.114l-.707.707c.255.255.57.354.897.398.314.041.707.041 1.164.041zm-1.5-10.5c0-.486.001-.8.032-1.03.03-.218.076-.285.114-.324l-.706-.706c-.254.255-.354.57-.398.897-.042.313-.042.706-.042 1.163zm1.5-2.5c-.457 0-.85-.001-1.164.041-.328.044-.642.144-.897.398l.707.707c.039-.038.106-.085.323-.114.232-.03.545-.032 1.031-.032z" fill="currentColor"/><g stroke="currentColor"><path d="m10.5 3v1c0 .943 0 1.414.293 1.707s.764.293 1.707.293h1"/><path d="m7 13h3m-3-3.5h5m-5-3.5h1.5" stroke-linecap="round" stroke-linejoin="round"/></g></g></svg>