<svg fill="none" height="18" width="18" xmlns="http://www.w3.org/2000/svg"><path d="m5.167 9.833a.333.333 0 0 1 .667 0v.243a.1.1 0 0 0 .09.09h.243a.333.333 0 1 1 0 .667h-.243a.1.1 0 0 0 -.09.092v.242a.333.333 0 1 1 -.667 0v-.223-.02a.1.1 0 0 0 -.092-.09h-.242a.333.333 0 0 1 0-.667h.243a.1.1 0 0 0 .09-.092v-.242zm6.833.667a.4.4 0 1 1 -.8 0 .4.4 0 0 1 .8 0zm.9.9a.4.4 0 1 1 -.8 0 .4.4 0 0 1 .8 0zm.9-.9a.4.4 0 1 1 -.8 0 .4.4 0 0 1 .8 0zm-.9-.9a.4.4 0 1 1 -.8 0 .4.4 0 0 1 .8 0z" fill="currentColor"/><g stroke="currentColor"><path d="m9 7v-.695c0-.972 0-1.458.275-1.747a1 1 0 0 1 .21-.169c.342-.205.817-.1 1.765.111.948.21 1.423.316 1.765.11a.998.998 0 0 0 .21-.168c.275-.29.275-.775.275-1.747v-.195" stroke-linecap="round"/><path d="m2.5 11c0 1.684.899 3.085 2.337 3.485.511.142 1-.199 1.213-.685s.693-.8 1.223-.8h3.854c.53 0 1.01.314 1.223.8s.705.834 1.212.677c1.33-.41 1.938-1.803 1.938-3.477 0-2-1.567-3.5-3.5-3.5h-5.973c-1.933 0-3.527 1.5-3.527 3.5z"/></g></svg>