<svg width="18" height="18" fill="none" xmlns="http://www.w3.org/2000/svg"><path d="M7.167 13.973c-3.334.926-3.334-1.853-4.667-1.853m9.333 3.38v-2.406a1.922 1.922 0 0 0-.07-.697c-.119-.41.096-.99.513-1.081 1.71-.377 3.224-1.36 3.224-4.156 0-.643-.2-1.268-.568-1.804a1.615 1.615 0 0 1-.254-1.157c.065-.416.04-.84-.077-1.248-.08-.283-.331-.472-.623-.43-.361.053-.945.22-1.78.693a1.124 1.124 0 0 1-.778.122 9.614 9.614 0 0 0-3.84 0 1.12 1.12 0 0 1-.778-.122c-.835-.473-1.418-.64-1.78-.692-.292-.043-.543.146-.624.43a2.907 2.907 0 0 0-.076 1.247c.062.401-.024.823-.254 1.157A3.18 3.18 0 0 0 3.5 7.18c0 2.786 1.525 3.761 3.243 4.15.413.092.62.664.5 1.07a1.92 1.92 0 0 0-.076.695V15.5" stroke="currentColor" stroke-linecap="round" stroke-linejoin="round"/></svg>
