<svg fill="none" height="18" width="18" xmlns="http://www.w3.org/2000/svg"><path d="m2.5 2.5v11c0 .943 0 1.414.293 1.707s.764.293 1.707.293h11m-.5-3-.329-.986c-.29-.872-.436-1.308-.75-1.345-.316-.038-.56.352-1.046 1.131l-.103.165c-.542.867-.813 1.3-1.142 1.246-.329-.055-.446-.552-.68-1.547l-.886-3.767c-.24-1.017-.36-1.526-.692-1.578s-.601.396-1.139 1.293l-.284.473c-.604 1.007-.906 1.51-1.252 1.44s-.43-.65-.595-1.813l-.602-4.212" stroke="#fff" stroke-linecap="round" stroke-linejoin="round"/></svg>