<svg fill="none" height="18" width="18" xmlns="http://www.w3.org/2000/svg"><path d="m5 12-.474.158a.5.5 0 0 0 .964-.059zm1.621-8 .496-.067a.5.5 0 0 0 -.987-.033l.49.099zm1.495 11-.495.067a.5.5 0 0 0 .978.065zm2.185-8 .48-.14a.5.5 0 0 0 -.963.008zm1.747 6-.48.14a.5.5 0 0 0 .955.016zm3.452-3.5a.5.5 0 0 0 0-1zm-13-1a.5.5 0 1 0 0 1zm1.956 1.868-.474.158zm-.592-1.18-.292.406.292-.405zm9.044 1.19-.476-.156.476.155zm.589-1.188-.294-.405zm-8.007 2.91 1.621-8-.98-.2-1.621 8zm.636-8.033 1.495 11 .99-.134-1.494-11zm2.473 11.065 2.184-8-.965-.264-2.184 8zm1.221-7.992 1.747 6 .96-.28-1.747-6zm2.702 6.016.86-2.623-.95-.311-.86 2.622zm2.286-3.656h.692v-1h-.692zm-9.334 2.342-.544-1.633-.948.317.544 1.632zm-2.916-3.342h-.058v1h.058zm2.372 1.71c-.106-.32-.198-.599-.301-.82-.108-.232-.247-.444-.473-.607l-.584.811c.036.027.083.073.15.218.073.157.146.373.26.714zm-2.372-.71c.36 0 .587 0 .76.02.158.019.217.048.254.074l.584-.81a1.482 1.482 0 0 0 -.725-.257c-.242-.028-.536-.027-.873-.027zm10.825 1.033c.112-.343.184-.56.257-.718.067-.147.114-.194.15-.22l-.587-.81c-.226.164-.365.379-.472.612-.102.222-.193.503-.299.825l.95.31zm1.425-2.033c-.338 0-.634 0-.876.027-.256.03-.502.094-.729.258l.587.81c.037-.026.096-.056.256-.074.172-.02.401-.021.762-.021z" fill="currentColor"/></svg>
