<svg fill="none" height="18" width="18" xmlns="http://www.w3.org/2000/svg"><g stroke="currentColor"><path d="m2.5 9.23v-.065a1 1 0 0 1 .971-.971h7.735a1 1 0 0 1 .971.97v1.449a4.839 4.839 0 0 1 -9.677 0z" stroke-linecap="round"/><path d="m9 8.194h3.984c1.113 0 2.016.84 2.016 1.954 0 1.113-.903 2.078-2.016 2.078h-.807"/><path d="m4.92 2.548-.051.101c-.09.181-.136.272-.161.363a1 1 0 0 0 .04.66c.037.087.094.171.206.34.095.142.143.214.176.288a1 1 0 0 1 .077.57c-.013.08-.04.162-.095.325l-.193.58m5.242-3.227-.05.101a2.22 2.22 0 0 0 -.162.363 1 1 0 0 0 .042.66c.036.087.093.171.205.34.095.142.143.214.176.288a1 1 0 0 1 .077.57 2.17 2.17 0 0 1 -.095.325l-.193.58" stroke-linecap="round"/></g></svg>
