<svg fill="none" height="18" width="18" xmlns="http://www.w3.org/2000/svg"><path d="m3.793 15.207-.354.354zm10.414 0-.353-.353zm-.207-7.707v6h1v-6zm-1.5 7.5h-7v1h7zm-8.5-1.5v-6h-1v6zm1.5 1.5c-.486 0-.8-.001-1.03-.032-.218-.03-.285-.076-.324-.114l-.707.707c.255.255.57.354.897.398.314.041.707.041 1.164.041zm-2.5-1.5c0 .457-.001.85.041 1.164.044.328.144.642.398.897l.707-.707c-.038-.038-.085-.106-.114-.323-.03-.232-.032-.546-.032-1.031zm11 0c0 .486-.001.8-.032 1.03-.03.218-.076.286-.114.324l.707.707c.255-.255.354-.57.398-.897.041-.314.041-.707.041-1.164zm-1.5 2.5c.457 0 .85.001 1.164-.041.328-.044.642-.143.897-.398l-.707-.707c-.038.038-.106.085-.323.114-.232.03-.546.032-1.031.032z" fill="currentColor"/><path d="m2.5 8.5 5.086-5.086c.666-.666 1-1 1.414-1s.748.334 1.414 1l5.086 5.086" stroke="currentColor" stroke-linecap="round"/><path d="m7 13c0-.943 0-1.414.293-1.707s.764-.293 1.707-.293 1.414 0 1.707.293.293.764.293 1.707v3h-4zm5-9c0-.471 0-.707.146-.854.147-.146.384-.146.854-.146s.707 0 .854.146c.146.147.146.384.146.854v3l-1.414-1.414c-.29-.29-.434-.434-.51-.618-.076-.183-.076-.388-.076-.796z" fill="currentColor"/></svg>