<svg fill="none" height="18" width="18" xmlns="http://www.w3.org/2000/svg"><path d="m5.243 15.207.353-.353zm7.464 0 .354.354zm-.207-10.707v9h1v-9zm-1.5 10.5h-4.05v1h4.05zm-5.55-1.5v-9h-1v9zm1.5-10.5h4.05v-1h-4.05zm0 12c-.486 0-.8-.001-1.03-.032-.218-.03-.285-.076-.324-.114l-.707.707c.255.255.57.354.897.398.314.041.707.041 1.164.041zm-2.5-1.5c0 .457-.001.85.041 1.164.044.328.144.642.398.897l.707-.707c-.038-.038-.085-.106-.114-.323-.03-.232-.032-.546-.032-1.031zm8.05 0c0 .486-.001.8-.032 1.03-.03.218-.076.286-.114.324l.707.707c.255-.255.354-.57.398-.897.042-.313.041-.707.041-1.164zm-1.5 2.5c.457 0 .85.001 1.164-.041.328-.044.642-.143.897-.398l-.707-.707c-.038.038-.106.085-.323.114-.232.03-.545.032-1.031.032zm2.5-11.5c0-.457.001-.85-.041-1.164-.044-.328-.143-.642-.398-.897l-.707.707c.038.039.085.106.114.323.031.232.032.545.032 1.031zm-2.5-1.5c.486 0 .8.001 1.03.032.218.03.286.076.324.114l.707-.707c-.255-.254-.57-.354-.897-.398-.314-.041-.707-.041-1.164-.041zm-5.55 1.5c0-.486.001-.8.032-1.03.03-.218.076-.285.114-.324l-.706-.706c-.254.255-.354.57-.398.897-.042.313-.041.707-.041 1.164h1zm1.5-2.5c-.457 0-.85-.001-1.164.041-.328.044-.642.144-.897.398l.707.707c.039-.038.106-.085.323-.114.232-.03.545-.032 1.031-.032z" fill="currentColor"/><path d="m7 13.5h4" stroke="currentColor" stroke-linecap="round" stroke-width=".5"/><path d="m7.5 3.5h3a.5.5 0 0 0 0-1h-3a.5.5 0 0 0 0 1z" fill="currentColor"/></svg>
