<svg fill="none" height="18" width="18" xmlns="http://www.w3.org/2000/svg" xmlns:xlink="http://www.w3.org/1999/xlink"><clipPath id="a"><path d="m0 0h18v18h-18z"/></clipPath><g clip-path="url(#a)" stroke="currentColor"><path d="m3 15h12" stroke-linecap="round"/><path d="m12.6 10.201-8.847-3.837a.934.934 0 0 1 -.545-1.033l.188-.97c.148-.767 1.24-.787 1.416-.025.06.256.252.46.505.532l.81.235.033.01a1 1 0 0 0 1.265-.98l-.001-.036-.002-.056c-.026-.854.97-1.337 1.626-.788a.99.99 0 0 1 .266.351l1.197 2.653c.138.305.207.458.319.578s.26.2.554.36l2.12 1.143.052.028a1 1 0 0 1 .425 1.254l-.025.064a1 1 0 0 1 -1.356.517z"/></g></svg>
