<svg width="18" height="18" fill="none" xmlns="http://www.w3.org/2000/svg"><path d="M5 12h8c.5 0 .774.002.964.028h.007l.001.008c.026.19.028.464.028.964 0 .5-.002.774-.028.964v.007l-.008.001c-.19.026-.464.028-.964.028H5c-.5 0-.774-.002-.964-.028h-.007l-.001-.008C4.002 13.774 4 13.5 4 13c0-.5.002-.774.028-.964v-.007l.008-.001C4.226 12.002 4.5 12 5 12z" fill="currentColor" stroke="currentColor" stroke-width="2"/><mask id="a" fill="currentColor"><path d="M3 7.5a1 1 0 0 1 1-1h10a1 1 0 1 1 0 2H4a1 1 0 0 1-1-1z"/></mask><path d="M3 7.5a1 1 0 0 1 1-1h10a1 1 0 1 1 0 2H4a1 1 0 0 1-1-1z" fill="currentColor"/><path d="M4 8.5h10v-4H4v4zm10-2H4v4h10v-4zm-10 0a1 1 0 0 1 1 1H1a3 3 0 0 0 3 3v-4zm9 1a1 1 0 0 1 1-1v4a3 3 0 0 0 3-3h-4zm1 1a1 1 0 0 1-1-1h4a3 3 0 0 0-3-3v4zm-10-4a3 3 0 0 0-3 3h4a1 1 0 0 1-1 1v-4z" fill="currentColor" mask="url(#a)"/><mask id="b" fill="currentColor"><path d="M3 3.5a.5.5 0 0 1 .5-.5h11a.5.5 0 0 1 0 1h-11a.5.5 0 0 1-.5-.5z"/></mask><path d="M3 3.5a.5.5 0 0 1 .5-.5h11a.5.5 0 0 1 0 1h-11a.5.5 0 0 1-.5-.5z" fill="currentColor"/><path d="M3.5 5h11V1h-11v4zm11-3h-11v4h11V2zm-11 0A1.5 1.5 0 0 1 5 3.5H1A2.5 2.5 0 0 0 3.5 6V2zM13 3.5A1.5 1.5 0 0 1 14.5 2v4A2.5 2.5 0 0 0 17 3.5h-4zM14.5 5A1.5 1.5 0 0 1 13 3.5h4A2.5 2.5 0 0 0 14.5 1v4zm-11-4A2.5 2.5 0 0 0 1 3.5h4A1.5 1.5 0 0 1 3.5 5V1z" fill="currentColor" mask="url(#b)"/></svg>
