<svg fill="none" height="18" width="18" xmlns="http://www.w3.org/2000/svg"><path d="m14.207 15.207.354.354zm-10.414 0-.354.354zm10.414-6.914-.353.353zm-8.707.207h7v-1h-7zm-1.5 5v-3.5h-1v3.5zm8.5 1.5h-7v1h7zm1.5-5v3.5h1v-3.5zm-1.5 6c.457 0 .85.001 1.164-.041.328-.044.642-.143.897-.398l-.707-.707c-.038.038-.106.085-.323.114-.232.03-.546.032-1.031.032zm1.5-2.5c0 .486-.001.8-.032 1.03-.03.218-.076.286-.114.324l.707.707c.255-.255.354-.57.398-.897.041-.314.041-.707.041-1.164zm-11 0c0 .457-.001.85.041 1.164.044.328.144.642.398.897l.707-.707c-.038-.038-.085-.106-.114-.323-.03-.232-.032-.546-.032-1.031zm2.5 1.5c-.486 0-.8-.001-1.03-.032-.218-.03-.285-.076-.324-.114l-.707.707c.255.255.57.354.897.398.314.041.707.041 1.164.041zm7-6.5c.486 0 .8.001 1.03.032.218.03.286.076.324.114l.707-.707c-.255-.254-.57-.354-.897-.398-.314-.041-.707-.041-1.164-.041zm2.5 1.5c0-.457.001-.85-.041-1.164-.044-.328-.143-.642-.398-.897l-.707.707c.038.039.085.106.114.323.03.232.032.545.032 1.031zm-9.5-2.5c-.457 0-.85-.001-1.164.041-.328.044-.642.144-.897.398l.707.707c.039-.038.106-.085.323-.114.232-.03.545-.032 1.031-.032zm-1.5 2.5c0-.486.001-.8.032-1.03.03-.218.076-.285.114-.324l-.706-.706c-.254.255-.354.57-.398.897-.042.313-.042.706-.042 1.163zm2.5-2.5h.5v-2.5h-1v2.5zm.5-2.5c0-.927.138-1.369.367-1.606.223-.233.661-.394 1.633-.394v-1c-1.01 0-1.823.151-2.353.7-.525.543-.647 1.351-.647 2.3zm2-2c.972 0 1.409.161 1.633.394.23.237.367.679.367 1.606h1c0-.948-.122-1.756-.647-2.3-.53-.55-1.344-.7-2.353-.7zm2 2v2.5h1v-2.5z" fill="currentColor"/></svg>