<svg fill="none" height="18" width="18" xmlns="http://www.w3.org/2000/svg"><g stroke="currentColor"><path d="m4 4.5c0-.943 0-1.414.293-1.707s.764-.293 1.707-.293h6c.943 0 1.414 0 1.707.293s.293.764.293 1.707v7c0 .943 0 1.414-.293 1.707s-.764.293-1.707.293h-6c-.943 0-1.414 0-1.707-.293s-.293-.764-.293-1.707z"/><path d="m6 4.7c0-.094 0-.141.03-.17.029-.03.076-.03.17-.03h5.6c.094 0 .141 0 .17.03.03.029.03.076.03.17v3.6c0 .094 0 .141-.03.17-.029.03-.076.03-.17.03h-5.6c-.094 0-.141 0-.17-.03-.03-.028-.03-.075-.03-.17z" fill="currentColor"/><path d="m5 13.5h8c0 .943 0 1.414-.293 1.707s-.764.293-1.707.293h-4c-.943 0-1.414 0-1.707-.293s-.293-.764-.293-1.707z"/><path d="m9 11h3" stroke-linecap="round" stroke-linejoin="round" stroke-width=".75"/></g><path d="m6.5 11a.5.5 0 1 1 -1 0 .5.5 0 0 1 1 0z" fill="currentColor"/></svg>