<svg fill="none" height="18" width="18" xmlns="http://www.w3.org/2000/svg"><path d="m12.224 3v-.5l-.03.001zm-4.599.603-.267.423zm-1.85-.603.032-.499a.495.495 0 0 0 -.031-.001v.5zm-3.775 4.105h-.5zm7 8.895-.29.407a.5.5 0 0 0 .577.003zm6.5-8.895a.5.5 0 0 0 1 0zm-2.136 5.807a.5.5 0 0 0 -.718-.696l.718.697zm-4.347-7.89-.43-.253.43.254zm-.034 0-.431.255.43-.254zm.017.02v-.5zm3.193-2.541a4.409 4.409 0 0 0 -2.086.68l.535.845a3.409 3.409 0 0 1 1.614-.527zm-2.086.68a4.704 4.704 0 0 0 -1.52 1.588l.861.508a3.704 3.704 0 0 1 1.194-1.251zm-.694 1.588a4.704 4.704 0 0 0 -1.52-1.588l-.535.845c.48.304.891.737 1.194 1.25zm-1.52-1.589a4.409 4.409 0 0 0 -2.086-.68l-.062.998a3.409 3.409 0 0 1 1.613.527zm-2.117-.68c-1.168 0-2.282.49-3.1 1.352l.727.688a3.269 3.269 0 0 1 2.373-1.04zm-3.1 1.352c-.836.884-1.176 2.08-1.176 3.253h1c0-.993.289-1.917.903-2.565l-.726-.688zm-1.176 3.253c0 1.116.496 2.257 1.174 3.306.683 1.059 1.585 2.077 2.474 2.96a32.435 32.435 0 0 0 3.555 3.031l.005.004a.02.02 0 0 0 .001 0l.291-.406.29-.407-.003-.003a1.757 1.757 0 0 1 -.07-.05 30.264 30.264 0 0 1 -.997-.77 31.445 31.445 0 0 1 -2.368-2.11c-.861-.854-1.709-1.816-2.338-2.79-.635-.985-1.014-1.93-1.014-2.766h-1zm15 0c0-1.172-.34-2.37-1.177-3.253l-.726.688c.614.648.903 1.572.903 2.565zm-1.177-3.253a4.268 4.268 0 0 0 -3.099-1.352v1c.885 0 1.739.37 2.373 1.04zm-6.323 12.148.287.41.002-.002.005-.004.02-.013a21.27 21.27 0 0 0 .341-.25c.23-.17.557-.42.944-.73a30.81 30.81 0 0 0 2.765-2.498l-.718-.697a29.806 29.806 0 0 1 -2.674 2.416 31.019 31.019 0 0 1 -1.17.896l-.067.047a2.534 2.534 0 0 1 -.02.015h-.002zm-.413-11.231c-.013.02.006-.013.032-.045a.49.49 0 0 1 .381-.181v1a.51.51 0 0 0 .436-.246l.012-.02zm-.035.508.012.02a.51.51 0 0 0 .436.246v-1a.49.49 0 0 1 .381.181c.026.032.045.066.032.045zm-2.736 5.026a.5.5 0 1 0 .894.447zm1.816-2.514.4-.3a.5.5 0 0 0 -.848.077zm2.052 2.737-.4.3a.5.5 0 0 0 .754.054zm1.369-1.368.353-.354a.5.5 0 0 0 -.707 0zm1.368 1.368-.353.354a.5.5 0 0 0 .653.046zm3.421-.526a.5.5 0 1 0 0-1zm-2.035-.449-.159-.474zm-7.097 1.199 1.37-2.737-.895-.447-1.368 2.737.894.447zm.522-2.66 2.052 2.736.8-.6-2.052-2.736zm2.806 2.79 1.368-1.369-.707-.707-1.368 1.369zm.661-1.369 1.369 1.369.707-.707-1.369-1.369zm2.022 1.415.835-.626-.6-.8-.835.626zm1.735-.926h1.386v-1h-1.386zm-.9.3c.29-.218.35-.255.409-.274l-.316-.949c-.25.083-.454.244-.693.423zm.9-1.3c-.298 0-.559-.006-.807.077l.316.949c.059-.02.129-.026.491-.026z" fill="currentColor"/></svg>