<svg fill="none" height="18" width="18" xmlns="http://www.w3.org/2000/svg"><g stroke="currentColor" stroke-linecap="round" stroke-linejoin="round"><path d="m9 15.5c-1.414 0-2.121 0-2.56-.44-.44-.438-.44-1.145-.44-2.56v-3c0-1.414 0-2.121.44-2.56.438-.44 1.145-.44 2.56-.44 1.414 0 2.121 0 2.56.44.44.439.44 1.146.44 2.56v3c0 1.414 0 2.121-.44 2.56-.439.44-1.146.44-2.56.44z"/><path d="m9 8v-2.137c0-.466 0-.7.032-.84a1.25 1.25 0 0 1 1.822-.81c.126.069.3.225.646.537.347.312.52.468.646.538a1.25 1.25 0 0 0 1.821-.812c.033-.14.033-.373.033-.84v-1.136"/></g></svg>