<svg width="18" height="18" fill="none" xmlns="http://www.w3.org/2000/svg"><path d="M14.5 13c0 .958-.542 1.603-1.653 1.904-1.112.302-2.175-.062-2.373-.812-.199-.75.541-1.603 1.653-1.904 1.112-.302 2.373-.146 2.373.812zm-8 1c0 .958-.542 1.684-1.653 1.985-1.112.302-2.175-.062-2.373-.812-.199-.75.542-1.603 1.653-1.904C5.24 12.967 6.5 13.042 6.5 14z" fill="currentColor"/><path d="M6 13.96V7.5m0 0l8-2m-8 2V5.562c0-.75 0-1.125.212-1.397.212-.27.575-.362 1.303-.544l4-1c1.144-.286 1.716-.429 2.1-.128.385.3.385.89.385 2.069V5.5m0 0V13" stroke="currentColor" stroke-linecap="round"/></svg>
