<svg fill="none" height="18" width="18" xmlns="http://www.w3.org/2000/svg"><path d="m10.725 11.529-.367-.34zm-4.287-4.287.34.367zm.2-.17-.306-.395.307.394zm4.415 4.034.42.27zm-.42-.27a2.548 2.548 0 0 1 -.275.353l.733.68c.141-.152.27-.317.382-.492l-.84-.542zm-.275.353c-.463.5-1.124.811-1.858.811v1a3.525 3.525 0 0 0 2.591-1.131zm-1.858.811a2.533 2.533 0 0 1 -2.533-2.533h-1a3.533 3.533 0 0 0 3.533 3.533zm-2.533-2.533c0-.734.311-1.395.81-1.858l-.68-.733a3.525 3.525 0 0 0 -1.13 2.59h1zm.81-1.858c.055-.05.11-.098.169-.143l-.614-.79c-.081.064-.16.13-.234.2l.68.733zm-3.61 3.558a3.834 3.834 0 0 1 3.45-3.815l-.1-.995a4.834 4.834 0 0 0 -4.35 4.81zm3.833 3.833a3.833 3.833 0 0 1 -3.833-3.833h-1a4.833 4.833 0 0 0 4.833 4.833zm3.833-3.833a3.833 3.833 0 0 1 -3.833 3.833v1a4.833 4.833 0 0 0 4.833-4.833zm-3.887-3.701a.626.626 0 0 0 .21-.687.606.606 0 0 0 -.639-.422l.1.995a.394.394 0 0 1 -.412-.267.374.374 0 0 1 .127-.408zm4.527 3.91a.338.338 0 0 1 -.541.04.373.373 0 0 1 -.099-.25h1a.63.63 0 0 0 -.511-.62.662.662 0 0 0 -.69.29z" fill="#fff"/><path d="m14 5.5v3m-1.5-1.5h3m-6-4.5v1m0 0v1m0-1h-1m1 0h1" stroke="#fff" stroke-linecap="round" stroke-linejoin="round"/></svg>