<svg fill="none" height="18" width="18" xmlns="http://www.w3.org/2000/svg"><path d="m2.146 7.146a.5.5 0 0 0 .708.708zm1.854-1.146h.5a.5.5 0 0 0 -.854-.354zm-1 5.5a.5.5 0 0 0 0 1zm2 1a.5.5 0 0 0 0-1zm5 0a.5.5 0 0 0 0-1zm-3-.5-.39-.312a.5.5 0 0 0 .39.812zm-.4-5.3a.5.5 0 0 0 .8.6zm5.333-.344a.5.5 0 1 0 .66.75zm3.567 1.144h-.5zm-2.5 1.5-.06-.496a.5.5 0 0 0 .034.995zm-.3 2.005a.5.5 0 0 0 -.873.49l.872-.49zm-9.847-3.151 1.5-1.5-.708-.708-1.5 1.5zm.647-1.854v6h1v-6zm.5 5.5h-1v1h1zm0 1h1v-1h-1zm6-1h-3v1h3zm-2.61.812 2-2.5-.78-.624-2 2.5zm2-2.5c1.1-1.374 1.08-2.8.276-3.603a1.782 1.782 0 0 0 -1.505-.51c-.571.077-1.121.416-1.561 1.001l.8.6c.31-.414.636-.575.892-.609a.782.782 0 0 1 .667.225c.322.322.551 1.146-.35 2.272zm5.61-2.312a.704.704 0 0 1 -.23.555c-.153.142-.38.25-.652.324a4.106 4.106 0 0 1 -1.09.122h-.003l-.025.499a60.687 60.687 0 0 0 -.025.5h.003a1.168 1.168 0 0 0 .035 0c.022.002.053.002.092.002a5.109 5.109 0 0 0 1.277-.158c.353-.097.751-.262 1.067-.555a1.7 1.7 0 0 0 .551-1.289zm-2 1.5.06.496h-.001.001a1.317 1.317 0 0 1 .08-.006 3.36 3.36 0 0 1 .245-.006 3 3 0 0 1 .735.093c.26.07.478.18.627.338.14.145.253.365.253.735h1c0-.605-.199-1.079-.529-1.425-.319-.335-.726-.515-1.09-.614a3.996 3.996 0 0 0 -.985-.127 4.35 4.35 0 0 0 -.45.019h-.005zm2 1.65c0 .409-.338.758-.929.862-.59.104-1.143-.1-1.372-.507l-.872.49c.508.904 1.573 1.15 2.418 1.002.843-.15 1.755-.756 1.755-1.847zm-2.407-3.543c.489-.43 1.137-.566 1.64-.459.485.104.767.402.767.852h1c0-1.032-.729-1.652-1.558-1.83-.811-.173-1.782.046-2.509.686l.66.75z" fill="currentColor"/></svg>