<svg fill="none" height="18" width="18" xmlns="http://www.w3.org/2000/svg"><path d="m10.168 6.173-.21.454zm-1.4-.754-.318.385.319-.385zm-.313-.3-.371.334.371-.335zm-3.34 3.201.322-.383zm1.303 2.218-.459.198.46-.198zm1.314 1.937-.094.491.094-.49zm4.772-4.758-.492.088zm-6.291-5.463.024.5zm.401.064-.176.467zm-4.232 4.348-.45.217zm1.256-1.496 1.51-1.51-.707-.708-1.51 1.51zm7.22 4.094-1.543 1.542.707.708 1.542-1.543-.707-.707zm-3.98 1.076-.165-.379-.918.396.164.38.918-.397zm3.08-3.713.465.213.417-.908-.464-.213-.417.908zm.418-.908c-.754-.347-1.048-.486-1.288-.686l-.638.77c.365.303.802.5 1.509.824zm-3.18-1.739c.355.692.57 1.12.888 1.472l.742-.67c-.21-.232-.361-.52-.74-1.258zm1.892 1.052a2.5 2.5 0 0 1 -.262-.25l-.742.67a3.5 3.5 0 0 0 .366.35zm-2.375 4.929c-.302-.7-.484-1.13-.768-1.495l-.789.614c.187.24.317.532.64 1.277zm-3.172-1.944c.734.35 1.02.49 1.253.687l.643-.766c-.353-.297-.778-.495-1.465-.823l-.43.902zm2.404.449a3.5 3.5 0 0 0 -.508-.528l-.643.766a2.5 2.5 0 0 1 .362.376l.79-.614zm3.37 2.34c-.484.484-.807.806-1.072 1.002-.256.19-.36.188-.417.177l-.188.982c.463.089.856-.1 1.202-.356.337-.25.722-.637 1.182-1.098zm-3.356-.07c.258.598.473 1.1.694 1.457.227.366.523.686.985.774l.188-.982c-.058-.01-.154-.047-.322-.318-.174-.28-.356-.699-.627-1.327l-.918.397zm5.605-.765c.45-.45.829-.827 1.075-1.158.254-.34.439-.727.357-1.183l-.984.176c.01.058.01.16-.175.41-.192.259-.506.575-.98 1.048zm-1.141-3.13c.608.279 1.012.466 1.283.642.26.17.295.266.306.323l.984-.176c-.082-.456-.39-.754-.745-.985-.346-.226-.832-.447-1.41-.713l-.418.908zm-5.275-3.183c.353-.353.588-.586.78-.738.187-.149.27-.165.309-.167l-.049-.999c-.346.017-.628.182-.881.382-.249.197-.53.48-.866.815zm2.938-.134c-.216-.422-.398-.778-.574-1.041-.179-.269-.397-.512-.721-.634l-.353.935c.037.014.11.055.243.254.136.204.288.498.515.942zm-1.849-.771a.5.5 0 0 1 .2.031l.354-.935a1.5 1.5 0 0 0 -.603-.095zm-3.306 1.71c-.311.31-.573.572-.758.8-.188.232-.347.49-.381.806l.994.109c.004-.035.023-.11.164-.286.144-.178.36-.395.688-.722zm1.04 2.652c-.417-.2-.693-.332-.888-.452-.192-.118-.236-.183-.25-.214l-.902.434c.138.286.375.476.628.632.251.154.585.313.982.502zm-2.18-1.046a1.5 1.5 0 0 0 .14.814l.901-.434a.5.5 0 0 1 -.046-.271l-.994-.109z" fill="currentColor"/><path d="m15 15-4.5-4.5" stroke="currentColor" stroke-linecap="round"/></svg>
