<svg fill="none" height="18" width="18" xmlns="http://www.w3.org/2000/svg"><path d="m2.717 12.358a.5.5 0 1 0 .885-.466zm2.628-9.496a.5.5 0 1 0 -.69-.724zm-1.743 9.03c-.919-1.748-1.521-5.926 1.743-9.03l-.69-.724c-3.677 3.497-3.001 8.196-1.938 10.22z" fill="currentColor"/><path d="m8.637 8.875-2.94 3.609a1.01 1.01 0 0 0 -.158.27l-.705 1.813c-.263.676.511 1.296 1.166.933l1.827-1.013a1.06 1.06 0 0 0 .309-.257l7.083-8.77a.993.993 0 0 0 -.194-1.439l-.705-.521a1.114 1.114 0 0 0 -1.511.18l-.575.705a.279.279 0 0 1 -.377.045l-.567-.418a.557.557 0 0 0 -.755.09l-1.035 1.271" stroke="currentColor" stroke-linecap="round"/></svg>