<svg fill="none" height="18" width="18" xmlns="http://www.w3.org/2000/svg"><g fill="currentColor"><path d="m7.293 15.207-.354.354zm7.414 0-.353-.353zm-.207-7.207v5.5h1v-5.5zm-1.5 7h-4v1h4zm-5.5-1.5v-5.5h-1v5.5zm1.5-7h4v-1h-3.999v1zm0 8.5c-.486 0-.8-.001-1.03-.032-.218-.03-.285-.076-.324-.114l-.707.707c.255.255.57.354.897.398.314.041.707.041 1.164.041zm-2.5-1.5c0 .457-.001.85.041 1.164.044.328.144.642.398.897l.707-.707c-.038-.038-.085-.106-.114-.323-.03-.232-.032-.546-.032-1.031zm8 0c0 .486-.001.8-.032 1.03-.03.218-.076.286-.114.324l.707.707c.255-.255.354-.57.398-.897.042-.313.041-.707.041-1.164zm-1.5 2.5c.457 0 .85.001 1.164-.041.328-.044.642-.143.897-.398l-.707-.707c-.038.038-.106.085-.323.114-.232.03-.546.032-1.031.032zm2.5-8c0-.457.001-.85-.041-1.164-.044-.328-.143-.642-.398-.897l-.707.707c.038.039.085.106.114.323.03.232.032.545.032 1.031zm-2.5-1.5c.485 0 .8.001 1.03.032.218.03.286.076.324.114l.707-.707c-.255-.255-.57-.354-.897-.398-.314-.042-.707-.041-1.165-.041v1zm-5.5 1.5c0-.486.001-.8.032-1.03.03-.218.076-.285.114-.324l-.706-.706c-.254.255-.354.57-.398.897-.042.313-.042.706-.042 1.163zm1.5-2.5c-.457 0-.85-.001-1.164.041-.328.044-.642.143-.897.398l.707.707c.038-.038.106-.085.323-.114.232-.03.546-.032 1.032-.032v-1z"/><path d="m3.293 11.707.353-.353zm.207-1.707v-5.5h-1v5.5zm1.5-7h4v-1h-3.999v1zm5.5 1.5v1.5h1v-1.5zm-3.5 7h-2v1h2zm-4.5-1.5c0 .457-.001.85.041 1.164.044.328.144.642.398.897l.707-.707c-.038-.038-.085-.106-.114-.323-.03-.232-.032-.546-.032-1.031zm2.5 1.5c-.486 0-.8-.001-1.03-.032-.218-.03-.285-.076-.324-.114l-.707.707c.255.255.57.354.897.398.313.042.707.041 1.164.041zm4-8.5c.485 0 .8.001 1.03.032.218.03.286.076.324.114l.707-.707c-.255-.255-.57-.354-.897-.398-.314-.041-.707-.041-1.165-.041v1zm2.5 1.5c0-.457.001-.85-.041-1.164-.044-.328-.143-.642-.398-.897l-.707.707c.038.039.085.106.114.323.03.232.032.545.032 1.031zm-8 0c0-.486.001-.8.032-1.03.03-.218.076-.285.114-.324l-.706-.706c-.254.255-.354.57-.398.897-.042.313-.042.706-.042 1.163zm1.5-2.5c-.457 0-.85-.001-1.164.041-.328.044-.642.143-.897.398l.707.707c.038-.038.106-.085.323-.114.232-.03.546-.032 1.032-.032v-1z"/></g></svg>