<svg width="18" height="18" fill="none" xmlns="http://www.w3.org/2000/svg"><path d="M2.793 10.707l.353-.353-.353.353zm9.914-7.914l-.353.353.353-.353zM3 9V4.5H2V9h1zm1.501-6H11V2H4.5v1zM12.5 4.5V7h1V4.5h-1zm-7.75 6H4.5v1h.25v-1zM2 9c0 .457-.001.85.041 1.164.044.328.144.642.398.897l.707-.707c-.038-.038-.085-.106-.114-.323C3.002 9.799 3 9.486 3 9H2zm2.5 1.5c-.486 0-.8-.001-1.03-.032-.218-.03-.285-.076-.324-.114l-.707.707c.255.255.57.354.897.398.313.042.707.041 1.164.041v-1zM10.999 3c.486 0 .8.001 1.031.032.218.03.286.076.324.114l.707-.707c-.255-.255-.57-.354-.897-.398C11.85 2 11.457 2 10.999 2v1zM13.5 4.5c0-.457.001-.85-.041-1.164-.044-.328-.143-.642-.398-.897l-.707.707c.038.039.085.106.114.323.03.232.032.545.032 1.031h1zM3 4.5c0-.486.001-.8.032-1.03.03-.218.076-.285.114-.324L2.44 2.44c-.254.255-.354.57-.398.897C2 3.65 2 4.043 2 4.5h1zM4.501 2c-.458 0-.851-.001-1.165.041-.327.044-.642.143-.897.398l.707.707c.038-.038.106-.085.324-.114C3.7 3.002 4.015 3 4.5 3V2z" fill="currentColor"/><path d="M5.293 15.207l.353-.353-.353.353zm9.914 0l-.353-.353.353.353zm0-7.914l-.353.353.353-.353zM15 9v4.5h1V9h-1zm-1.5 6H7v1h6.5v-1zm-8-1.5V9h-1v4.5h1zm1.501-6H13.5v-1H7v1zM7 15c-.486 0-.8-.001-1.03-.032-.218-.03-.285-.076-.324-.114l-.707.707c.255.255.57.354.897.398C6.15 16 6.543 16 7 16v-1zm-2.5-1.5c0 .457-.001.85.041 1.164.044.328.144.642.398.897l.707-.707c-.038-.038-.085-.106-.114-.323-.03-.232-.032-.546-.032-1.031h-1zm10.5 0c0 .486-.001.8-.032 1.03-.03.218-.076.286-.114.324l.707.707c.255-.255.354-.57.398-.897C16 14.35 16 13.957 16 13.5h-1zM13.5 16c.457 0 .85.001 1.164-.041.328-.044.642-.143.897-.398l-.707-.707c-.038.038-.106.085-.323.114-.232.03-.546.032-1.031.032v1zM16 9c0-.457.001-.85-.041-1.164-.044-.328-.143-.642-.398-.897l-.707.707c.038.039.085.106.114.323.03.232.032.545.032 1.031h1zm-2.501-1.5c.486 0 .8.001 1.031.032.218.03.286.076.324.114l.707-.707c-.255-.255-.57-.354-.897-.398-.314-.042-.707-.041-1.165-.041v1zM5.5 9c0-.486.001-.8.032-1.03.03-.218.076-.285.114-.324L4.94 6.94c-.254.255-.354.57-.398.897C4.5 8.15 4.5 8.543 4.5 9h1zm1.501-2.5c-.458 0-.851-.001-1.165.041-.327.044-.642.143-.897.398l.707.707c.038-.038.106-.085.324-.114C6.2 7.502 6.515 7.5 7 7.5v-1z" fill="currentColor"/></svg>
