<svg width="18" height="18" fill="none" xmlns="http://www.w3.org/2000/svg"><path d="M15.5 15.5v-.14c0-1.271 0-1.907-.278-2.378a2.001 2.001 0 0 0-.704-.704C14.048 12 13.411 12 12.14 12h-1.78c-1.271 0-1.907 0-2.378.278a2 2 0 0 0-.703.704C7 13.452 7 14.089 7 15.36v.14M2.5 13v-.34c0-1.082 0-1.624.204-2.04a2 2 0 0 1 .916-.916c.416-.204.958-.204 2.04-.204H6" stroke="currentColor" stroke-linecap="round" stroke-linejoin="round"/><path d="M13.833 7.667a2.333 2.333 0 1 1-4.666 0 2.333 2.333 0 0 1 4.666 0z" stroke="currentColor"/><path d="M8.222 3.51A2.333 2.333 0 1 0 5.5 7" stroke="currentColor" stroke-linecap="round"/></svg>
