<svg width="18" height="18" fill="none" xmlns="http://www.w3.org/2000/svg"><path d="M4 5.983c0-.8 0-1.2.123-1.535a2 2 0 0 1 .83-1.013c.305-.187.697-.265 1.481-.422l1.39-.278C8.41 2.618 8.702 2.56 9 2.56c.297 0 .59.06 1.177.176l1.389.278c.784.157 1.176.235 1.48.422a2 2 0 0 1 .83 1.013c.124.335.124.735.124 1.535v.607c0 1.078 0 1.617-.067 2.132a8 8 0 0 1-1.591 3.841c-.317.412-.698.793-1.46 1.555-.435.435-.652.652-.878.784a2 2 0 0 1-2.008 0c-.226-.131-.443-.349-.878-.784-.762-.762-1.143-1.143-1.46-1.555a8 8 0 0 1-1.59-3.84C4 8.206 4 7.667 4 6.59v-.607z" stroke="currentColor"/></svg>
