<svg fill="none" height="18" width="18" xmlns="http://www.w3.org/2000/svg" xmlns:xlink="http://www.w3.org/1999/xlink"><clipPath id="a"><path d="m0 0h18v18h-18z"/></clipPath><g stroke="currentColor" stroke-linecap="round" stroke-linejoin="round"><g clip-path="url(#a)"><path d="m7.5 15a.5.5 0 1 1 -1 0 .5.5 0 0 1 1 0zm6.5 0a.5.5 0 1 1 -1 0 .5.5 0 0 1 1 0z" fill="currentColor"/><path d="m14.486 12.499h-7.389c-.808 0-1.212 0-1.492-.237-.28-.236-.346-.635-.48-1.431l-.953-5.664c-.134-.797-.2-1.195-.48-1.432-.28-.235-.684-.235-1.492-.235h-.2m2.162 1.508 9.358-.006c1.146 0 1.718 0 2.019.372.3.372.179.931-.063 2.051l-.27 1.25c-.164.756-.245 1.134-.52 1.356-.275.221-.662.221-1.435.221h-8.224"/></g><path d="m9.5 2c-2.636 0-5 .5-5 3h9.5c0-2.5-1.864-3-4.5-3z"/></g></svg>
