<svg fill="none" height="18" width="18" xmlns="http://www.w3.org/2000/svg"><g stroke="#fff"><path d="m9 14v-5m-5.5 6.5s.982-1.5 5.5-1.5 5.5 1.5 5.5 1.5" stroke-linecap="round"/><path d="m3.32 2.68c.661-.662 2.538.142 4.193 1.796 1.654 1.655 2.457 3.532 1.797 4.194-.662.661-2.54-.143-4.194-1.797-1.654-1.655-2.458-3.533-1.796-4.194z"/><path d="m8.885 8.941c.87-.185 2.042-.903 3.12-1.98 1.654-1.655 2.459-3.532 1.797-4.194-.662-.661-2.54.143-4.193 1.797-.323.324-.614.655-.868.985" stroke-linecap="round"/></g></svg>