<svg fill="none" height="18" width="18" xmlns="http://www.w3.org/2000/svg"><path d="m3.5 8.5v7m11-7v5c0 .943 0 1.414-.293 1.707s-.764.293-1.707.293h-3.115c-.943 0-1.415 0-1.707-.293-.293-.293-.293-.764-.293-1.707v-5zm-1.819-6h-7.361c-.64 0-.96 0-1.21.165s-.377.46-.628 1.047l-.82 1.91c-.08.189-.12.283-.14.382-.021.1-.021.202-.021.407v.089c0 .943 0 1.414.293 1.707s.764.293 1.707.293h9c.943 0 1.414 0 1.707-.293s.293-.764.293-1.707v-.09c0-.204 0-.306-.02-.406s-.061-.193-.142-.381l-.818-1.91c-.252-.589-.378-.883-.629-1.048-.25-.165-.57-.165-1.21-.165zm-3.681 5.5v-2m-4 2v-2m8 2v-2" stroke="#fff" stroke-linecap="round" stroke-linejoin="round"/></svg>