<svg fill="none" height="18" width="18" xmlns="http://www.w3.org/2000/svg" xmlns:xlink="http://www.w3.org/1999/xlink"><clipPath id="a"><path d="m0 0h18v18h-18z"/></clipPath><g clip-path="url(#a)"><path d="m10 14h-3.5c-1.886 0-2.828 0-3.414-.586s-.586-1.528-.586-3.414v-2c0-1.886 0-2.828.586-3.414s1.528-.586 3.414-.586h5c1.886 0 2.828 0 3.414.586s.586 1.528.586 3.414v.5" stroke="currentColor" stroke-linecap="round" stroke-linejoin="round"/><path d="m13.5 10v4m2-2h-4" stroke="currentColor" stroke-linecap="round"/><path d="m9.096 4a.25.25 0 1 0 -.5 0zm-.5 10a.25.25 0 1 0 .5 0zm2.008-3.117a.25.25 0 0 0 0-.5zm-7.604-.5a.25.25 0 1 0 0 .5zm12-2.563a.25.25 0 1 0 0-.5zm-12-.5a.25.25 0 0 0 0 .5zm5.596-3.32v10h.5v-10zm2.008 6.383h-7.604v.5h7.604zm4.396-3.063h-12v.5h12z" fill="currentColor"/></g></svg>
