<svg fill="none" height="18" width="18" xmlns="http://www.w3.org/2000/svg"><g stroke="currentColor"><path d="m3 15h12" stroke-linecap="round"/><path d="m13.961 6.54-9.243 2.747a.934.934 0 0 1 -1.082-.442l-.48-.863c-.38-.684.445-1.4 1.07-.93.21.158.488.19.728.084l.772-.342.031-.014a1 1 0 0 0 .339-1.563l-.023-.026-.038-.042c-.569-.639-.115-1.649.74-1.649a.99.99 0 0 1 .429.098l2.621 1.262c.302.146.453.218.617.239.163.02.327-.014.655-.082l2.36-.487.057-.011a1 1 0 0 1 1.112.632l.02.056.021.064a1 1 0 0 1 -.64 1.249z"/></g></svg>
