<svg fill="none" height="18" width="18" xmlns="http://www.w3.org/2000/svg"><path d="m2.032 11.19a.5.5 0 0 0 .936.354zm2.31-4.69.468-.177a.5.5 0 0 0 -.936 0zm1.375 5.044a.5.5 0 0 0 .935-.354zm2.783-5.044v-.5a.5.5 0 0 0 -.5.5zm.868 0v-.5zm0 2.434v-.5zm1.474 1.738.442.234zm-1.842.695v-.5zm-.5 0h-.5a.5.5 0 0 0 .5.5zm7-4.367a.5.5 0 0 0 0-1zm0 4.867a.5.5 0 0 0 0-1zm-12.532-.323.506-1.338-.935-.354-.507 1.338zm.506-1.338 1.336-3.529-.936-.354-1.335 3.53zm.4-3.529 1.336 3.53.935-.355-1.335-3.529zm1.336 3.53.507 1.337.935-.354-.507-1.338-.935.354zm-2.204.322h2.672v-1h-2.672zm5.494-3.529h.868v-1h-.868zm.868 0c.28 0 .552.071.737.186.175.108.237.226.237.357h1c0-.564-.323-.968-.71-1.207-.375-.233-.84-.336-1.264-.336zm.974.543c0 .267-.071.482-.197.625-.116.13-.334.266-.777.266v1c.664 0 1.181-.213 1.527-.604.334-.379.447-.858.447-1.287zm-.974 1.89c.392 0 .712.185.899.42.196.247.196.467.133.585l.884.468c.306-.578.122-1.227-.235-1.675a2.144 2.144 0 0 0 -1.68-.797v1zm1.032 1.005c-.107.202-.255.301-.47.36-.247.066-.545.069-.93.069v1c.352 0 .79.003 1.19-.104.428-.116.833-.364 1.094-.857zm-1.4.429h-.5v1h.5zm0 .5v-2.433h-1v2.433zm0-2.433v-2.434h-1v2.434zm.368-.5h-.868v1h.868zm6.132-2.434c-.818 0-1.583.189-2.146.692-.573.513-.854 1.276-.854 2.242h1c0-.773.22-1.227.52-1.496.313-.279.798-.438 1.48-.438zm-3 2.934c0 .965.28 1.728.854 2.24.563.504 1.328.693 2.146.693v-1c-.682 0-1.167-.159-1.48-.438-.3-.27-.52-.723-.52-1.495z" fill="currentColor"/></svg>
