<svg fill="none" height="18" width="18" xmlns="http://www.w3.org/2000/svg"><g stroke="currentColor"><path d="m2 9h4.013c.253 0 .38 0 .502.03l.049.015c.12.037.228.103.444.236.921.563 1.382.845 1.89.871.068.004.136.004.204 0 .508-.026.969-.308 1.89-.871.216-.133.324-.2.444-.236a.986.986 0 0 1 .05-.014c.12-.031.247-.031.502-.031h4.012v3c0 .943 0 1.414-.293 1.707s-.764.293-1.707.293h-10c-.943 0-1.414 0-1.707-.293s-.293-.764-.293-1.707z"/><path d="m2 10.5v-2.172c0-.408 0-.613.076-.796.076-.184.22-.329.51-.618l2.328-2.328c.29-.29.434-.434.618-.51.183-.076.388-.076.796-.076h5.344c.408 0 .613 0 .796.076.184.076.329.22.618.51l2.328 2.328c.29.29.434.434.51.618.076.183.076.388.076.796v2.172"/><path d="m7 5.75h4m-6 1.5h8" stroke-linecap="round" stroke-width=".5"/></g></svg>