<svg fill="none" height="18" width="18" xmlns="http://www.w3.org/2000/svg" xmlns:xlink="http://www.w3.org/1999/xlink"><clipPath id="a"><path d="m0 0h18v18h-18z"/></clipPath><clipPath id="b"><path d="m0 0h18v18h-18z" transform="matrix(0 1 -1 0 18 0)"/></clipPath><g clip-path="url(#a)"><g clip-path="url(#b)"><path d="m5.5 14h1.5c.943 0 1.414 0 1.707-.293s.293-.764.293-1.707v-3m-3.5-5h1.5c.943 0 1.414 0 1.707.293s.293.764.293 1.707v3m0 0h3.5m1.5 1.5a1.5 1.5 0 1 1 0-3 1.5 1.5 0 0 1 0 3zm-10-5a1.5 1.5 0 1 1 0-3 1.5 1.5 0 0 1 0 3zm0 10a1.5 1.5 0 1 1 0-3 1.5 1.5 0 0 1 0 3z" stroke="#fff"/></g></g></svg>