<svg fill="none" height="18" width="18" xmlns="http://www.w3.org/2000/svg" xmlns:xlink="http://www.w3.org/1999/xlink"><clipPath id="a"><path d="m0 0h18v18h-18z"/></clipPath><clipPath id="b"><path d="m0 0h18v18h-18z" transform="matrix(-1 0 0 -1 18 18)"/></clipPath><g clip-path="url(#a)"><g clip-path="url(#b)"><path d="m4 5.5v1.5c0 .943 0 1.414.293 1.707s.764.293 1.707.293h3m5-3.5v1.5c0 .943 0 1.414-.293 1.707s-.764.293-1.707.293h-3m0 0v3.5m-1.5 1.5a1.5 1.5 0 1 1 3 0 1.5 1.5 0 0 1 -3 0zm5-10a1.5 1.5 0 1 1 3 0 1.5 1.5 0 0 1 -3 0zm-10 0a1.5 1.5 0 1 1 3 0 1.5 1.5 0 0 1 -3 0z" stroke="currentColor"/></g></g></svg>
