<svg width="18" height="18" fill="none" xmlns="http://www.w3.org/2000/svg"><g clip-path="url(#clip0_821_23176)"><path d="M12.5 4H11c-.943 0-1.414 0-1.707.293C9 4.586 9 5.057 9 6v3m3.5 5H11c-.943 0-1.414 0-1.707-.293C9 13.414 9 12.943 9 12V9m0 0H5.5M4 7.5a1.5 1.5 0 1 1 0 3 1.5 1.5 0 0 1 0-3zm10 5a1.5 1.5 0 1 1 0 3 1.5 1.5 0 0 1 0-3zm0-10a1.5 1.5 0 1 1 0 3 1.5 1.5 0 0 1 0-3z" stroke="currentColor"/></g><defs><clipPath id="clip0_821_23176"><path fill="currentColor" d="M0 0H18V18H0z"/></clipPath></defs></svg>
