<svg fill="none" height="18" width="18" xmlns="http://www.w3.org/2000/svg"><path d="m3.267 14.526-.85.526zm11.466 0 .85.526zm-7.523-8.948-.894-.448zm1.79-2.342v-1zm-4.158 9.317 3.264-6.528-1.79-.895-3.263 6.528zm5.052-6.528 3.264 6.528 1.79-.895-3.265-6.527zm2.37 7.975h-6.528v2h6.528zm-9.211-2.342c-.31.62-.595 1.184-.75 1.655-.158.485-.265 1.126.114 1.739l1.701-1.052c.086.138-.006.217.087-.065.096-.296.297-.704.637-1.382l-1.79-.895zm2.683 2.342c-.759 0-1.213-.003-1.521-.048-.294-.044-.182-.09-.097.048l-1.701 1.052c.378.612 1 .803 1.504.878.49.073 1.123.07 1.815.07zm7.422-1.447c.34.678.54 1.086.637 1.382.093.282.002.203.087.065l1.701 1.052c.379-.613.272-1.254.113-1.739-.154-.47-.44-1.036-.749-1.655zm-.894 3.447c.692 0 1.325.003 1.815-.07.505-.075 1.126-.266 1.504-.878l-1.701-1.052c.085-.138.197-.092-.097-.048-.308.045-.762.048-1.521.048zm-4.158-9.975c.405-.811.66-1.316.88-1.631.225-.322.216-.158.014-.158v-2c-.82 0-1.333.554-1.654 1.013-.324.465-.654 1.131-1.03 1.881zm3.577-.895c-.375-.75-.705-1.416-1.03-1.88-.32-.46-.833-1.014-1.653-1.014v2c-.202 0-.211-.164.013.158.22.315.476.82.881 1.63l1.79-.894z" fill="#fff"/></svg>