<svg fill="none" height="18" width="18" xmlns="http://www.w3.org/2000/svg"><path d="m2.5 6c0-.943 0-1.414.293-1.707s.764-.293 1.707-.293h3c.943 0 1.414 0 1.707.293s.293.764.293 1.707v4c0 .943 0 1.414-.293 1.707s-.764.293-1.707.293h-3c-.943 0-1.414 0-1.707-.293s-.293-.764-.293-1.707zm7 2c0-.943 0-1.414.293-1.707s.764-.293 1.707-.293h.666c.477 0 .715 0 .922.1.206.1.354.288.649.662l1.334 1.693c.213.27.319.405.374.564.055.16.055.33.055.674v.307c0 .943 0 1.414-.293 1.707s-.764.293-1.707.293h-2c-.943 0-1.414 0-1.707-.293s-.293-.764-.293-1.707zm5.5 4a2 2 0 1 1 -4 0h-4a2 2 0 1 1 -4 0" stroke="currentColor"/></svg>
