<svg width="18" height="18" fill="none" xmlns="http://www.w3.org/2000/svg"><path d="M14.5 3a.5.5 0 0 0-1 0h1zm-10 0a.5.5 0 0 0-1 0h1zm8.786 13a.5.5 0 1 0 0-1v1zm-8.572-1a.5.5 0 0 0 0 1v-1zM13.5 3c0 2.006 0 3.606-.077 4.89-.078 1.29-.23 2.205-.508 2.86-.266.625-.645 1.012-1.222 1.26-.607.26-1.461.379-2.693.379v1c1.268 0 2.29-.118 3.088-.46.83-.357 1.388-.943 1.747-1.79.348-.817.507-1.875.586-3.189.08-1.32.079-2.956.079-4.95h-1zM9 12.389c-1.232 0-2.086-.119-2.693-.38-.577-.247-.956-.634-1.222-1.26-.277-.654-.43-1.569-.508-2.859C4.5 6.606 4.5 5.006 4.5 3h-1c0 1.994 0 3.63.079 4.95.079 1.314.238 2.372.586 3.19.36.846.918 1.432 1.747 1.788.799.343 1.82.46 3.088.46v-1zM13.286 15H4.714v1h8.572v-1z" fill="currentColor"/></svg>
