<svg fill="none" height="18" width="18" xmlns="http://www.w3.org/2000/svg"><g stroke="currentColor" stroke-linecap="round" stroke-linejoin="round"><path d="m2.5 4.5c0-.943 0-1.414.293-1.707s.764-.293 1.707-.293h9c.943 0 1.414 0 1.707.293s.293.764.293 1.707v9c0 .943 0 1.414-.293 1.707s-.764.293-1.707.293h-9c-.943 0-1.414 0-1.707-.293s-.293-.764-.293-1.707z"/><path d="m4.5 9c0-.943 0-1.414.293-1.707s.764-.293 1.707-.293 1.414 0 1.707.293.293.764.293 1.707v2c0 .943 0 1.414-.293 1.707s-.764.293-1.707.293-1.414 0-1.707-.293-.293-.764-.293-1.707zm-1.5-4h12m-4 5h1.5m-1.5 3h1.5m-1.5-6h2.5"/></g></svg>
