<svg fill="none" height="18" width="18" xmlns="http://www.w3.org/2000/svg" xmlns:xlink="http://www.w3.org/1999/xlink"><clipPath id="a"><path d="m0 0h18v18h-18z"/></clipPath><g clip-path="url(#a)"><path d="m2.5 12c0-.943 0-1.414.293-1.707s.764-.293 1.707-.293h1.5c.943 0 1.414 0 1.707.293s.293.764.293 1.707v1.5c0 .943 0 1.414-.293 1.707s-.764.293-1.707.293h-1.5c-.943 0-1.414 0-1.707-.293s-.293-.764-.293-1.707zm0-7.5c0-.943 0-1.414.293-1.707s.764-.293 1.707-.293h9c.943 0 1.414 0 1.707.293s.293.764.293 1.707v1c0 .943 0 1.414-.293 1.707s-.764.293-1.707.293h-9c-.943 0-1.414 0-1.707-.293s-.293-.764-.293-1.707zm7.5 7.5c0-.943 0-1.414.293-1.707s.764-.293 1.707-.293h1.5c.943 0 1.414 0 1.707.293s.293.764.293 1.707v1.5c0 .943 0 1.414-.293 1.707s-.764.293-1.707.293h-1.5c-.943 0-1.414 0-1.707-.293s-.293-.764-.293-1.707z" stroke="currentColor" stroke-linecap="round" stroke-linejoin="round"/></g></svg>