<svg width="19" height="18" fill="none" xmlns="http://www.w3.org/2000/svg"><g clip-path="url(#clip0_448_2009)" fill="#fff"><path d="M13.833 10.981a.5.5 0 0 0 1 0h-1zM6.333 2.5h6v-1h-6v1zm7.5 1.498V10.981h1v-.013-.012-.013-.013-.012-.013-.013-.013-.013-.012-.013-.013-.013-.013-.013-.013-.013-.012-.013-.013-.014-.013-.013-.013-.013-.013-.013-.013-.013-.013-.013-.013-.014-.013-.013-.013-.014-.013-.013-.013-.014-.013-.013-.014-.013-.013-.014-.013-.013-.014-.013-.014-.013-.014-.013-.014-.013-.014-.013-.014-.013-.014-.013-.014-.013-.014-.014-.013-.014-.014-.013-.014-.014-.014-.013-.014-.014-.013-.014-.014-.014-.014-.013-.014-.014-.014-.014-.014-.013-.014-.014-.014-.014-.014-.014-.014-.014-.014-.014-.014-.014-.014V9.6v-.014-.014-.014-.014-.014-.014-.014-.014-.014-.014-.014-.014-.015-.014-.014-.014-.014-.014-.014-.015-.014-.014-.014-.014-.015-.014-.014-.014-.014-.015-.014-.014-.014-.015-.014-.014-.015-.014-.014-.015-.014-.014-.014-.015-.014-.014-.015-.014-.015-.014-.014-.015-.014-.014-.015-.014-.015-.014-.014-.015-.014-.015-.014-.015-.014-.014-.015-.014-.015-.014-.015-.014-.015-.014-.014-.015-.014-.015-.014-.015-.014-.015-.014-.015-.014-.015-.014-.015-.014-.015-.014-.015-.014-.015-.014-.015-.015-.014-.015-.014-.015-.014-.015-.014-.015-.014-.015-.014-.015-.014-.015-.015-.014-.015-.014-.015-.014-.015-.014-.015-.014-.015-.014-.015-.015-.014-.015-.014-.015-.014-.015-.014-.015-.014-.015-.014-.015-.014V7.6v-.014-.015-.014-.015-.015-.014-.015-.014-.015-.014-.015-.014-.015-.014-.014-.015-.014-.015-.014-.015-.014-.015-.014-.015-.014-.015-.014-.015-.014-.014-.015-.014-.015-.014-.015-.014-.014-.015-.014-.015-.014-.014-.015-.014-.014-.015-.014-.014-.015-.014-.014-.015-.014-.014-.015-.014-.014-.015-.014-.014-.014-.015-.014-.014-.014-.015-.014-.014-.014-.015-.014-.014-.014-.014-.015-.014-.014-.014-.014-.014-.014-.015-.014-.014-.014-.014-.014-.014-.014-.014-.014-.014-.014-.014-.014-.014-.014-.014-.014-.014-.014-.014-.014-.014V6.1v-.014-.014-.014-.013-.014-.014-.014-.014-.014-.013-.014-.014-.014-.014-.013-.014-.014-.014-.013-.014-.014-.013-.014-.014-.013-.014-.014-.013V5.7v-.013-.014-.013-.014-.014-.013-.014-.013-.014-.013-.013-.014-.013-.014V5.5v-.014-.013-.013-.014-.013-.013-.014-.013-.013-.013-.014-.013-.013-.013-.014-.013-.013-.013-.013-.013-.013-.014-.013-.013-.013-.013-.013-.013-.013-.013-.013-.013-.013-.012-.013-.013-.013V5v-.013-.013-.012-.013-.013-.013-.012-.013-.013-.012-.013-.013-.012-.013-.013-.012-.013-.012-.013-.012-.013-.012-.013-.012-.012-.013-.012-.013-.012-.012-.013-.012-.012-.012-.013-.012-.012-.012-.012V4.5v-.012-.013-.012-.012-.012-.012-.012-.012-.012-.012-.011-.012-.012-.012-.012-.012-.012-.011-.012-.012-.011-.012-.012-.011-.012-.012-.011-.012-.011-.012-.011-.012-.011V4.1 4.09v-.012-.01-.012-.012-.01-.012-.011-.012h-1zm-9 10.701V4h-1v10.7h1zm7.5-12.199c.83 0 1.5.67 1.5 1.498h1a2.499 2.499 0 0 0-2.5-2.498v1zm-6-1a2.5 2.5 0 0 0-2.5 2.5h1a1.5 1.5 0 0 1 1.5-1.5v-1z"/><path d="M7.333 2v-.5h-.5V2h.5zm0 11.5h-.5v.5h.5v-.5zm0-11h5v-1h-5v1zm6.5 1.497V11.501h1v-.015-.015-.015-.016-.015-.015-.015-.016-.015-.015-.015-.016-.015-.015-.015-.016-.015-.015-.016-.015-.015-.016-.015-.016-.015-.015-.016-.015-.015-.016-.015-.016-.015-.016-.015-.015-.016-.015-.016-.015-.016-.015-.016-.015-.016-.015-.016-.015-.016-.015-.016-.016-.015-.016-.015-.016-.015-.016-.016-.015-.016-.015-.016-.016-.015-.016-.016-.015-.016-.015-.016-.016-.015-.016-.016-.016-.015-.016-.015-.016-.016-.016-.015-.016-.016-.015-.016-.016-.016-.015-.016-.016-.015-.016-.016-.016-.016-.015-.016-.016-.016-.015-.016-.016-.016-.015-.016-.016-.016-.016-.015-.016-.016-.016-.015-.016-.016-.016-.016-.015-.016-.016-.016-.016-.015-.016-.016-.016-.016-.016-.015-.016-.016-.016-.016-.015-.016-.016-.016-.016-.015-.016-.016-.016-.016-.016-.015-.016-.016-.016-.016-.015-.016-.016-.016-.016-.015-.016-.016-.016-.016-.015-.016-.016-.016-.016-.015-.016-.016-.016-.016-.015-.016-.016-.016-.015-.016-.016-.016-.016-.015-.016-.016-.016-.015-.016-.016-.016-.015-.016-.016-.015-.016-.016-.016-.015-.016-.016-.015-.016-.016-.016-.015-.016-.016-.015-.016-.016-.015-.016-.016-.015-.016-.015-.016-.016-.015-.016-.016-.015-.016-.015-.016-.016-.015-.016-.015-.016-.015-.016-.016-.015-.016-.015-.016-.015-.016-.015-.016-.015-.016-.015V7.7v-.015-.016-.015-.015-.016-.015-.016-.015-.016-.015-.015-.016V7.5v-.015-.016-.015-.016-.015-.015-.016-.015-.015-.015-.016-.015-.015-.016-.015-.015-.015-.016-.015-.015-.015-.015-.016-.015-.015-.015-.015-.015-.015-.016-.015-.015-.015-.015-.015-.015-.015-.015-.015-.015-.015-.015-.015-.015-.015-.015-.015-.015-.015-.015-.015-.015-.015-.014-.015-.015-.015-.015-.015-.014-.015-.015-.015-.015-.014-.015-.015-.014-.015-.015-.015-.014-.015-.014-.015-.015-.014-.015-.014V6.3v-.015-.014-.015-.014-.015-.014-.015-.014-.015-.014-.014-.015-.014-.015-.014-.014-.015-.014-.014-.014-.015-.014-.014-.015-.014-.014-.014-.014-.014-.015-.014-.014-.014-.014-.014-.014-.014-.014-.014-.014-.014V5.7v-.014-.014-.014-.014-.014-.014-.014-.013-.014-.014-.014-.014-.013-.014-.014-.013-.014-.014-.013-.014-.014-.013-.014-.014-.013-.014-.013-.014-.013-.014-.013-.013-.014-.013-.014-.013-.013-.014-.013-.013-.014-.013-.013-.013-.013-.014-.013-.013-.013-.013-.013-.013-.013-.013-.013-.013-.013-.013-.013-.013-.013-.013-.013-.013-.012-.013-.013-.013-.012-.013-.013-.013-.012-.013-.012-.013-.013-.012-.013-.012-.013-.012-.013-.012-.012-.013-.012-.012-.013-.012-.012-.013-.012-.012-.012-.012-.013-.012-.012-.012-.012-.012-.012-.012-.012-.012-.012-.012-.011-.012-.012-.012-.012-.012-.011-.012-.012-.011-.012-.012-.011-.012-.011-.012V4.1v-.012-.011-.012-.011-.011-.012-.011-.011-.012h-1zm-6 9.503V2h-1v11.5h1zm4.5-.5h-5v1h5v-1zm1.5-1.499a1.5 1.5 0 0 1-1.5 1.499v1a2.5 2.5 0 0 0 2.5-2.499h-1zm-1.5-9.001c.83 0 1.5.67 1.5 1.497h1a2.498 2.498 0 0 0-2.5-2.497v1z"/><path d="M14.333 16.5a.5.5 0 1 0 0-1v1zm0-1h-8.75v1h8.75v-1zM5.583 14h1.75v-1h-1.75v1zm8.75 2v-.5h0c-.005 0-.015 0-.028-.002a1.375 1.375 0 0 1-.498-.133.818.818 0 0 1-.323-.275c-.08-.12-.15-.303-.15-.59h-1c0 .463.116.843.318 1.145.199.298.46.491.708.615a2.344 2.344 0 0 0 .968.24h.004l.001-.5zm-1-1.5c0-.457.177-.67.349-.79l-.577-.818c-.432.305-.772.82-.772 1.608h1zm1.5-2.5v-.5h-1v.5h1zm-11 2.75c0 .966.784 1.75 1.75 1.75v-1a.75.75 0 0 1-.75-.75h-1zm9.849-1.04c.237-.169.515-.386.736-.654.223-.27.415-.624.415-1.056h-1c0 .12-.052.257-.186.42a2.794 2.794 0 0 1-.542.472l.577.817zm-8.849 1.04a.75.75 0 0 1 .75-.75v-1a1.75 1.75 0 0 0-1.75 1.75h1z"/></g><defs><clipPath id="clip0_448_2009"><path fill="#fff" transform="translate(.333)" d="M0 0H18V18H0z"/></clipPath></defs></svg>