<svg fill="none" height="18" width="18" xmlns="http://www.w3.org/2000/svg"><path d="M4 8.5a.5.5 0 0 0-1 0zm11 0a.5.5 0 0 0-1 0zm-3.5 0a.5.5 0 0 0-1 0zm-4 0a.5.5 0 0 0-1 0zm-5 6.5a.5.5 0 0 0 0 1zm13 1a.5.5 0 0 0 0-1zm-.308-7.817L14.727 8zm-12.384 0l-.466.183zm7.553-4.92l-.34.367.34-.366zM9 2.366v.5zM4.206 7.134L7.98 3.63l-.68-.733-3.773 3.504.68.733zm5.815-3.504l3.773 3.504.68-.733-3.773-3.504zM4.547 9h8.907V8H4.546v1zM4 15.5v-7H3v7zm11 0v-7h-1v7zm-3.5 0v-7h-1v7zm-4 0v-7h-1v7zm-5 .5h1v-1h-1zm1 0H7v-1H3.5zM7 16h4v-1H7zm4 0h3.5v-1H11zm3.5 0h1v-1h-1zm-.706-8.866c.406.377.67.623.824.813.17.208.062.173.109.053l.93.366c.172-.438-.071-.815-.264-1.051-.209-.257-.537-.56-.919-.914zM13.454 9c.52 0 .967.001 1.295-.044.302-.043.737-.153.909-.59L14.727 8c.047-.12.15-.072-.116-.035C14.369 8 14.008 8 13.453 8v1zM3.525 6.4c-.382.356-.71.658-.919.915-.193.236-.436.613-.265 1.05L3.273 8c.047.12-.061.155.11-.053.153-.19.417-.436.823-.813l-.68-.733zM4.546 8c-.554 0-.915-.001-1.157-.035-.266-.037-.163-.085-.116.035l-.93.366c.171.437.606.547.908.59C3.58 9 4.025 9 4.547 9V8zM7.98 3.63c.333-.309.548-.507.725-.633.166-.119.244-.132.296-.132v-1c-.34 0-.62.136-.876.317-.243.173-.512.425-.825.715zm2.722-.733c-.313-.29-.582-.542-.825-.715-.255-.181-.535-.317-.876-.317v1c.052 0 .13.013.296.132.177.126.392.324.725.633z" fill="currentColor"/></svg>