<svg fill="none" height="18" width="18" xmlns="http://www.w3.org/2000/svg"><g stroke="currentColor" stroke-linecap="round" stroke-linejoin="round"><path d="M3 8.5c0-1.414 0-2.121.44-2.56C3.878 5.5 4.585 5.5 6 5.5h5c1.414 0 2.121 0 2.56.44.44.439.44 1.146.44 2.56v1c0 1.414 0 2.121-.44 2.56-.439.44-1.146.44-2.56.44H6c-1.414 0-2.121 0-2.56-.44C3 11.622 3 10.915 3 9.5z"/><path d="M14 9.6V8.4c0-.22.18-.4.4-.4a.6.6 0 0 1 .6.6v.8a.6.6 0 0 1-.6.6.4.4 0 0 1-.4-.4z" fill="currentColor"/><path d="M5.5 7.5v3"/></g></svg>