<svg width="18" height="18" fill="none" xmlns="http://www.w3.org/2000/svg"><circle cx="9" cy="9" r="3" stroke="currentColor"/><path d="M5.559 13.206a.765.765 0 1 1-1.53 0 .765.765 0 0 1 1.53 0zM4.029 9A.765.765 0 1 1 2.5 9a.765.765 0 0 1 1.53 0zm1.53-4.206a.765.765 0 1 1-1.53 0 .765.765 0 0 1 1.53 0zm4.206-1.53a.765.765 0 1 1-1.53 0 .765.765 0 0 1 1.53 0zm4.206 1.53a.765.765 0 1 1-1.53 0 .765.765 0 0 1 1.53 0zM15.5 9a.765.765 0 1 1-1.53 0 .765.765 0 0 1 1.53 0zm-1.53 4.206a.765.765 0 1 1-1.529 0 .765.765 0 0 1 1.53 0zm-4.205 1.53a.765.765 0 1 1-1.53 0 .765.765 0 0 1 1.53 0z" fill="currentColor"/></svg>