<svg width="18" height="18" fill="none" xmlns="http://www.w3.org/2000/svg"><path d="M13.214 2.5a.5.5 0 0 0-1 0h1zm-1 2.786a.5.5 0 1 0 1 0h-1zM5.786 2.5a.5.5 0 1 0-1 0h1zm-1 2.786a.5.5 0 1 0 1 0h-1zm-1.7 9.628l.353-.353-.353.353zm11.828 0l.354.354-.354-.354zm0-10.435l.354-.354-.354.354zm-11.828 0l-.354-.354.354.354zM15 7.893V11.5h1V7.893h-1zM11.5 15h-5v1h5v-1zM3 11.5V7.893H2V11.5h1zm3.5-7.107H11.5v-1H6.501v1zm9 2.25h-13v1h13v-1zM12.214 2.5v2.786h1V2.5h-1zm-7.428 0v2.786h1V2.5h-1zM6.5 15c-.957 0-1.624-.001-2.128-.069-.49-.066-.748-.186-.933-.37l-.707.707c.402.401.907.574 1.507.654.586.079 1.332.078 2.261.078v-1zM2 11.5c0 .929-.001 1.675.078 2.261.08.6.253 1.105.654 1.507l.707-.707c-.184-.185-.304-.444-.37-.933C3 13.124 3 12.457 3 11.5H2zm13 0c0 .957-.001 1.624-.069 2.128-.065.49-.186.748-.37.933l.707.707c.401-.402.574-.907.654-1.507.08-.586.078-1.332.078-2.261h-1zM11.5 16c.929 0 1.675.001 2.261-.078.6-.08 1.106-.253 1.507-.654l-.707-.707c-.185.184-.444.304-.933.37C13.124 15 12.457 15 11.5 15v1zM16 7.893c0-.929.001-1.676-.078-2.261-.08-.6-.253-1.106-.654-1.507l-.707.707c.184.185.305.444.37.933.068.504.069 1.17.069 2.128h1zm-4.5-3.5c.957 0 1.624 0 2.128.069.49.065.748.186.933.37l.707-.707c-.402-.401-.907-.574-1.507-.654-.586-.08-1.333-.078-2.262-.078v1zM3 7.893c0-.957.001-1.624.069-2.128.066-.49.186-.748.37-.933l-.707-.707c-.401.401-.574.907-.654 1.507C1.998 6.217 2 6.964 2 7.892h1zm3.5-4.5c-.928 0-1.675-.001-2.261.078-.6.08-1.105.253-1.507.654l.707.707c.185-.184.444-.305.933-.37.504-.068 1.171-.07 2.129-.07v-1zM6.126 10A.562.562 0 1 1 5 10a.562.562 0 0 1 1.125 0z" fill="currentColor"/><path d="M6.125 10A.562.562 0 1 1 5 10a.562.562 0 0 1 1.125 0zm0 2.5A.562.562 0 1 1 5 12.5a.562.562 0 0 1 1.125 0z" fill="currentColor"/><path d="M6.125 12.5A.562.562 0 1 1 5 12.5a.562.562 0 0 1 1.125 0zm3.438 0a.562.562 0 1 1-1.125 0 .562.562 0 0 1 1.124 0z" fill="currentColor"/><path d="M9.563 12.5a.562.562 0 1 1-1.125 0 .562.562 0 0 1 1.124 0zm3.437 0a.562.562 0 1 1-1.125 0 .562.562 0 0 1 1.125 0z" fill="currentColor"/><path d="M13 12.5a.562.562 0 1 1-1.125 0 .562.562 0 0 1 1.125 0zm0-2.5a.562.562 0 1 1-1.125 0A.562.562 0 0 1 13 10z" fill="currentColor"/><path d="M13 10a.562.562 0 1 1-1.125 0A.562.562 0 0 1 13 10zm-3.438 0a.562.562 0 1 1-1.124 0 .562.562 0 0 1 1.124 0z" fill="currentColor"/><path d="M9.563 10a.562.562 0 1 1-1.125 0 .562.562 0 0 1 1.124 0z" fill="currentColor"/></svg>