<svg fill="none" height="18" width="18" xmlns="http://www.w3.org/2000/svg"><clipPath id="a"><path d="M0 0h18v18H0z"/></clipPath><clipPath id="b"><path d="M0 0h18v18H0z" transform="rotate(-90 9 9)"/></clipPath><g clip-path="url(#a)"><g clip-path="url(#b)"><circle cx="9" cy="9" r="6.5" stroke="currentColor" transform="rotate(-90 9 9)"/><path d="M7.996 10.664l.395.263c1.368.913 2.053 1.369 2.58 1.086.529-.283.529-1.105.529-2.75v-.526c0-1.645 0-2.468-.528-2.75-.528-.283-1.213.173-2.581 1.086l-.395.263C6.867 8.089 6.303 8.465 6.303 9s.564.911 1.693 1.664z" fill="currentColor"/></g></g></svg>