<svg fill="none" height="18" width="18" xmlns="http://www.w3.org/2000/svg"><clipPath id="a"><path d="M0 0h18v18H0z"/></clipPath><clipPath id="b"><path d="M0 0h18v18H0z" transform="rotate(180 9 9)"/></clipPath><g clip-path="url(#a)"><g clip-path="url(#b)"><circle cx="9" cy="9" r="6.5" stroke="currentColor" transform="rotate(180 9 9)"/><path d="M10.664 10.004l.263-.395c.913-1.368 1.369-2.053 1.086-2.58-.283-.529-1.105-.529-2.75-.529h-.526c-1.645 0-2.468 0-2.75.528-.283.528.173 1.213 1.086 2.581l.263.395c.753 1.129 1.129 1.693 1.664 1.693s.911-.564 1.664-1.693z" fill="currentColor"/></g></g></svg>