<svg width="18" height="18" fill="none" xmlns="http://www.w3.org/2000/svg"><path d="M16 8.516v.469c-.004.025-.01.05-.013.075-.024.204-.04.41-.072.612a5.055 5.055 0 0 1-.686 1.834 5.16 5.16 0 0 1-2.127 1.96c-.514.259-1.07.425-1.64.492l-.38.042H6.164c-.025-.005-.05-.012-.075-.014a4.137 4.137 0 0 1-1.428-.349A4.388 4.388 0 0 1 2.45 11.5a4.257 4.257 0 0 1-.409-1.383L2 9.767V9.31c.005-.025.012-.05.013-.075a4.25 4.25 0 0 1 .27-1.27C2.7 6.87 3.428 6.057 4.463 5.53a4.216 4.216 0 0 1 1.708-.449c.293-.015.585.001.877.041a.11.11 0 0 0 .082-.027 5.19 5.19 0 0 1 1.434-1.057 4.954 4.954 0 0 1 1.648-.494c.136-.016.273-.029.409-.043h.42c.027.004.054.01.082.013.207.024.416.04.622.075.642.11 1.24.344 1.793.692a5.186 5.186 0 0 1 1.936 2.166c.255.523.42 1.088.484 1.67.015.133.028.266.042.4zM8.172 5.483c.009.011.01.017.014.018.288.145.563.314.823.506.016.012.057.007.076-.005a3.117 3.117 0 0 1 2.317-.469c.813.147 1.476.56 1.981 1.22.573.748.792 1.593.633 2.533-.106.63-.354 1.195-.776 1.669-.77.863-1.733 1.22-2.868 1.069a3.01 3.01 0 0 1-1.8-.912c-.64-.658-1.286-1.312-1.928-1.968a.518.518 0 0 0-.304-.173.482.482 0 0 0-.504.279c-.083.176-.072.374.108.554.716.714 1.426 1.436 2.141 2.152.122.123.254.236.393.34.522.385 1.111.599 1.75.684a4.154 4.154 0 0 0 3.823-1.516 4.207 4.207 0 0 0 .92-2.14 4.266 4.266 0 0 0-.038-1.377 4.115 4.115 0 0 0-.945-1.97c-.944-1.077-2.13-1.558-3.543-1.45a3.887 3.887 0 0 0-1.54.46 4.061 4.061 0 0 0-.733.496zm-.345 7.52l-.059-.055c-.292-.282-.587-.56-.876-.846a.235.235 0 0 0-.187-.08c-.293.008-.586.009-.875-.057-1.436-.33-2.27-1.918-1.74-3.315.417-1.1 1.573-1.772 2.712-1.565.51.093.959.313 1.327.699.448.47.91.928 1.364 1.394a.404.404 0 0 0 .365.134c.185-.027.332-.116.399-.3a.45.45 0 0 0-.102-.493c-.476-.49-.94-.993-1.436-1.462-.96-.911-2.093-1.182-3.346-.795-1.684.52-2.67 2.29-2.286 4.036.351 1.59 1.72 2.707 3.32 2.709h1.341c.022 0 .044-.002.079-.004z" fill="currentColor"/></svg>