<svg fill="none" height="18" width="18" xmlns="http://www.w3.org/2000/svg"><path d="M7.4 9h-.5zm0 0h-.5zM5.48 7.056l.166-.471zm0 0l.166-.471zm0 3.888l-.165-.472zm0 0l.166.471zm-2.687-.237l-.354.354zM4.5 11.5h.298v-1H4.5zm.298-5H4.5v1h.298zm1.562 4.452c.438-.35.81-.646 1.066-.92.265-.282.473-.61.473-1.032h-1c0 .058-.017.15-.202.349-.195.208-.499.452-.962.822zM5.735 7.83c.463.37.767.614.962.822.185.198.202.291.202.349h1c0-.423-.208-.75-.473-1.033-.255-.272-.628-.569-1.066-.92zM7.9 9h-1zM3 9c0-.486.001-.8.032-1.03.03-.218.076-.285.114-.324L2.44 6.94c-.254.255-.354.57-.398.897C2 8.15 2 8.543 2 9zm1.5-2.5c-.457 0-.85-.001-1.164.041-.328.044-.642.144-.897.398l.707.707c.039-.038.106-.085.323-.114.232-.03.545-.032 1.031-.032zm.298 1c.382 0 .455.007.517.028l.33-.943c-.259-.092-.533-.085-.847-.085zm1.562-.452c-.244-.196-.455-.372-.714-.463l-.331.943c.062.022.123.062.42.3zm-1.045.48l.33-.943zM4.798 11.5c.314 0 .588.007.848-.085l-.331-.943c-.062.021-.135.028-.517.028zm.937-1.329c-.297.239-.358.28-.42.3l.33.944c.26-.09.47-.267.715-.463l-.625-.78zm-.09 1.244l-.33-.943zM2 9c0 .457-.001.85.041 1.164.044.328.144.642.398.897l.707-.707c-.038-.038-.085-.106-.114-.323C3.002 9.799 3 9.486 3 9zm2.5 1.5c-.486 0-.8-.001-1.03-.032-.218-.03-.285-.076-.324-.114l-.707.707c.255.255.57.354.897.398.313.042.707.041 1.164.041zm4.5.1v.5zm0 0v.5zm-2 2.9h.5zm.293 1.707l-.354.354zM7 13.202h.5zm.056-.682l.472.165zm0 0l.472.165zm3.888 0l.471-.166zm0 0l-.472.165zm.056.98h.5zm.5 0v-.298h-1v.298zm-5-.298v.298h1v-.298zm4.452-1.562c-.35-.438-.646-.81-.92-1.066-.282-.265-.61-.473-1.032-.473v1c.058 0 .15.017.349.202.208.195.452.499.822.961zm-3.123.624c.37-.462.614-.766.822-.96.198-.186.291-.203.349-.203v-1c-.423 0-.75.208-1.033.473-.272.255-.569.628-.92 1.066zM9 10.101v1zM9 15c-.486 0-.8-.001-1.03-.032-.218-.03-.285-.076-.324-.114l-.707.707c.255.255.57.354.897.398C8.15 16 8.543 16 9 16zm-2.5-1.5c0 .457-.001.85.041 1.164.044.328.144.642.398.897l.707-.707c-.038-.038-.085-.106-.114-.323-.03-.232-.032-.546-.032-1.031zm1-.298c0-.382.007-.455.028-.517l-.943-.33c-.092.259-.085.533-.085.847zm-.452-1.562c-.196.244-.372.455-.463.714l.943.331c.022-.062.062-.123.3-.42zm.48 1.045l-.943-.33zm3.972.517c0-.314.007-.588-.085-.848l-.943.331c.021.062.028.135.028.517zm-1.329-.938c.239.298.28.36.3.421l.944-.33c-.09-.26-.267-.47-.463-.715l-.78.624zm1.244.09l-.943.331.943-.33zM9 16c.457 0 .85.001 1.164-.041.328-.044.642-.143.897-.398l-.707-.707c-.038.038-.106.085-.323.114-.232.03-.545.032-1.031.032zm1.5-2.5c0 .486-.001.8-.032 1.03-.03.218-.076.286-.114.324l.707.707c.255-.255.354-.57.398-.897.042-.313.041-.707.041-1.164zM9 7.4v.5zm0 0v.5zm1.707-4.607l.354-.354zm0 0l-.353.353zm.237 2.687l.471.166zm0 0l-.472-.165zM7 4.798h.5zm.056.682l.472-.165zm0 0l-.471.166zm.237-2.687l.353.353zm0 0l-.354-.354zM6.5 4.5v.298h1V4.5zm5 .298V4.5h-1v.298zM7.048 6.36c.35.438.647.81.92 1.066.282.265.61.473 1.032.473v-1c-.058 0-.15-.017-.349-.202-.208-.195-.452-.499-.822-.962zm3.123-.625c-.37.463-.614.767-.822.962-.198.185-.291.202-.349.202v1c.423 0 .75-.208 1.033-.473.273-.255.569-.628.92-1.066zM9 7.9v-1zM9 3c.486 0 .8.001 1.03.032.218.03.286.076.324.114l.707-.707c-.255-.254-.57-.354-.897-.398C9.85 2 9.457 2 9 2zm2.5 1.5c0-.457.001-.85-.041-1.164-.044-.328-.143-.642-.398-.897l-.707.707c.038.039.085.106.114.323.03.232.032.545.032 1.031zm-1.146-1.354l.707-.707zm.146 1.652c0 .382-.007.455-.028.517l.943.33c.092-.259.085-.533.085-.847zm.452 1.562c.196-.244.372-.455.463-.714l-.943-.331c-.022.062-.062.123-.3.42zm-.48-1.045l.943.33zM6.5 4.798c0 .314-.007.588.085.848l.943-.331c-.021-.062-.028-.135-.028-.517zm1.329.937c-.239-.297-.28-.358-.3-.42l-.944.33c.09.26.267.47.463.715l.78-.625zm-1.244-.09l.943-.33zM9 2c-.457 0-.85-.001-1.164.041-.328.044-.642.144-.897.398l.707.707c.039-.038.106-.085.323-.114C8.201 3.002 8.514 3 9 3zM7.5 4.5c0-.486.001-.8.032-1.03.03-.218.076-.285.114-.324L6.94 2.44c-.254.255-.354.57-.398.897C6.5 3.65 6.5 4.043 6.5 4.5zm-.56-2.06l.706.706-.707-.707zM10.802 9h.5zm0 0h.5zm2.233 1.964l-.134.482zm-.046-.014l.156-.475zm.046-3.914l.133.482zm-.046.014l-.156-.475zm2.26.29l.376-.331-.375.33zm-.09-.09l.331-.376-.33.375zM16 9.08v-.162h-1v.162zm-3.764-2.173c-.557.371-1.022.68-1.34.967-.326.293-.593.647-.593 1.125h1c0-.057.017-.161.262-.382.252-.227.642-.488 1.226-.877zm.555 3.351c-.584-.389-.975-.65-1.226-.877-.245-.22-.262-.325-.262-.382h-1c0 .478.267.832.593 1.125.318.287.783.595 1.34.966zM10.303 9h1zM15 9.081c0 .445 0 .733-.027.946-.025.202-.066.268-.098.303l.751.661c.218-.247.302-.54.339-.84.036-.29.035-.65.035-1.07zM13.581 11.5c.42 0 .78 0 1.07-.035.3-.037.593-.121.84-.339l-.66-.75c-.036.03-.102.072-.304.097-.213.026-.5.027-.946.027zm1.294-1.17a.5.5 0 0 1-.045.045l.661.751c.048-.042.093-.087.135-.135l-.75-.66zm-1.294.17c-.303 0-.361-.004-.412-.018l-.267.964c.212.058.43.054.679.054zm-1.345.591c.21.14.39.265.598.334l.313-.95c-.05-.016-.102-.046-.356-.216zm.933-.61a.988.988 0 0 1-.023-.006l-.312.95.068.02.267-.963zm.412-3.981c-.25 0-.467-.004-.679.054l.267.964c.05-.014.11-.018.412-.018zm-.79 1.24c.254-.17.306-.199.355-.215l-.312-.95c-.209.069-.389.194-.598.333l.555.833zm.111-1.186a1.546 1.546 0 0 0-.068.021l.313.95a.549.549 0 0 1 .022-.007zM16 8.92c0-.42 0-.78-.035-1.07-.037-.3-.121-.593-.339-.84l-.75.66c.03.036.072.102.097.304.026.213.027.5.027.946zM13.581 7.5c.445 0 .733 0 .946.027.202.025.268.066.303.098l.661-.751c-.247-.218-.54-.302-.84-.339-.29-.036-.65-.035-1.07-.035zm2.045-.491a1.516 1.516 0 0 0-.135-.135l-.66.75a.5.5 0 0 1 .044.046z" fill="currentColor"/></svg>