<svg width="18" height="18" fill="none" xmlns="http://www.w3.org/2000/svg"><path d="M5.5 7H5c-.943 0-1.414 0-1.707.293C3 7.586 3 8.057 3 9v3.5c0 .943 0 1.414.293 1.707.293.293.764.293 1.707.293h6c.943 0 1.414 0 1.707-.293.293-.293.293-.764.293-1.707" stroke="currentColor" stroke-linecap="round"/><path d="M5.5 5.5V10c0 .943 0 1.414.293 1.707C6.086 12 6.557 12 7.5 12h6c.943 0 1.414 0 1.707-.293.293-.293.293-.764.293-1.707V7.5c0-.943 0-1.414-.293-1.707-.293-.293-.764-.293-1.707-.293H13c-.49 0-.736 0-.947-.106-.211-.105-.359-.301-.653-.694l-.3-.4c-.294-.393-.442-.589-.653-.694-.21-.106-.456-.106-.947-.106h-2c-.943 0-1.414 0-1.707.293C5.5 4.086 5.5 4.557 5.5 5.5z" stroke="currentColor" stroke-linecap="round"/></svg>