<svg width="18" height="18" fill="none" xmlns="http://www.w3.org/2000/svg"><g clip-path="url(#clip0_772_7000)"><path stroke="#9B51E0" stroke-width=".1" d="M0.035 -0.035L18.035 17.965"/><path transform="scale(-1 1) rotate(45 -9 -21.728)" stroke="#9B51E0" stroke-width=".1" d="M0 -0.05L25.456 -0.05"/><circle cx="9" cy="9" r="7" stroke="#9B51E0" stroke-width=".1"/><path stroke="#9B51E0" stroke-width=".1" d="M3 3H15V15H3z"/><path stroke="#9B51E0" stroke-width=".1" d="M2 4H16V14H2z"/><path transform="rotate(90 14 2)" stroke="#9B51E0" stroke-width=".1" d="M14 2H28V12H14z"/><path d="M8.91 2C4.995 2 2 5.048 2 9.064c0 3.21 1.97 5.957 4.784 6.924.362.067.489-.162.489-.35 0-.125-.005-.646-.007-1.156-.002-.32-.3-.563-.619-.553-.617.018-1.51-.107-1.774-.931 0 0-.321-.843-.784-1.06 0 0-.647-.454.045-.446 0 0 .703.058 1.09.747.276.493.776.759 1.276.761.52.002.789-.348.965-.665.104-.186-.057-.503-.268-.533-1.383-.199-2.634-.663-2.634-3.132 0-.796.214-1.196.666-1.705-.068-.174-.277-.849-.005-1.74.044-.144.164-.259.315-.248.654.049 1.711.804 1.711.804a6.477 6.477 0 0 1 3.545 0s1.058-.758 1.712-.805c.15-.01.27.105.314.249.273.893.063 1.566-.005 1.74.452.512.728.912.728 1.705 0 2.465-1.294 2.928-2.682 3.129-.215.03-.324.328-.24.527.099.23.162.522.162.886 0 .976-.009 2.183-.009 2.42 0 .188.13.417.489.35C14.086 15.022 16 12.274 16 9.064 16 5.048 12.825 2 8.91 2z" fill="#fff"/></g><defs><clipPath id="clip0_772_7000"><path fill="#fff" d="M0 0H18V18H0z"/></clipPath></defs></svg>