<svg width="18" height="18" viewBox="0 0 18 18" fill="none" xmlns="http://www.w3.org/2000/svg">
<g clip-path="url(#clip0_772_7000)">
<line x1="0.0353553" y1="-0.0353553" x2="18.0354" y2="17.9646" stroke="#9B51E0" stroke-width="0.1"/>
<line y1="-0.05" x2="25.4558" y2="-0.05" transform="matrix(-0.707107 0.707107 0.707107 0.707107 18 0)" stroke="#9B51E0" stroke-width="0.1"/>
<circle cx="9" cy="9" r="7" stroke="#9B51E0" stroke-width="0.1"/>
<rect x="3" y="3" width="12" height="12" stroke="#9B51E0" stroke-width="0.1"/>
<rect x="2" y="4" width="14" height="10" stroke="#9B51E0" stroke-width="0.1"/>
<rect x="14" y="2" width="14" height="10" transform="rotate(90 14 2)" stroke="#9B51E0" stroke-width="0.1"/>
<path d="M8.90968 2C4.99476 2 2 5.04834 2 9.06358C2 12.274 3.97016 15.0213 6.78427 15.9882C7.14556 16.0548 7.27258 15.8261 7.27258 15.6379C7.27258 15.5126 7.26845 14.992 7.26596 14.4822C7.2644 14.1629 6.96646 13.9192 6.6472 13.9287C6.03048 13.9469 5.13697 13.8217 4.87339 12.9978C4.87339 12.9978 4.55161 12.1553 4.08871 11.9382C4.08871 11.9382 3.44234 11.4837 4.13387 11.4924C4.13387 11.4924 4.83669 11.5503 5.22339 12.2393C5.5 12.7322 6 12.9978 6.5 13C7.0203 13.0023 7.28883 12.6523 7.46524 12.3354C7.56881 12.1494 7.408 11.8321 7.19724 11.8019C5.81399 11.6032 4.5629 11.1387 4.5629 8.66987C4.5629 7.87377 4.77742 7.47427 5.22903 6.96477C5.16128 6.79105 4.9516 6.11648 5.22405 5.22577C5.26835 5.08093 5.38829 4.96613 5.53933 4.97735C6.19331 5.02594 7.25 5.78075 7.25 5.78075C7.81452 5.61864 8.42137 5.53469 9.02258 5.53469C9.62379 5.53469 10.2306 5.61864 10.7952 5.78075C10.7952 5.78075 11.8531 5.02279 12.507 4.97647C12.6575 4.96581 12.7765 5.08054 12.8206 5.2248C13.0938 6.11818 12.8839 6.79095 12.8161 6.96477C13.2677 7.47717 13.5444 7.87667 13.5444 8.66987C13.5444 11.1348 12.2501 11.5983 10.8616 11.7986C10.6473 11.8295 10.5376 12.1269 10.6228 12.326C10.721 12.5552 10.7839 12.8484 10.7839 13.212C10.7839 14.1876 10.7754 15.3947 10.7754 15.6321C10.7754 15.8203 10.9052 16.049 11.2637 15.9824C14.0863 15.0213 16 12.274 16 9.06358C16 5.04834 12.8246 2 8.90968 2Z" fill="white"/>
</g>
<defs>
<clipPath id="clip0_772_7000">
<rect width="18" height="18" fill="white"/>
</clipPath>
</defs>
</svg>
