<svg width="18" height="18" fill="none" xmlns="http://www.w3.org/2000/svg"><path d="M16.619 8.414a.513.513 0 0 0 .007-.715.487.487 0 0 0-.699-.008l.692.723zm-5.42 4.005a.513.513 0 0 0-.007.714c.191.2.504.203.7.008l-.692-.723zm.692.722l4.728-4.727-.692-.723L11.2 12.42l.691.722z" fill="#fff"/><path d="M10.364 14.523c0 .468-.86.749-2.292.562-.314-.041.497-.187.573-.562.076-.374.241-.561.716-.561s1.003.251 1.003.561z" fill="#fff" stroke="#fff"/><path d="M6 13.5a.5.5 0 0 0 0-1v1zm6.5-6.75a.5.5 0 0 0 1 0h-1zM3 3.5h9v-1H3v1zM2.5 12V4h-1v8h1zm3.5.5H3v1h3v-1zM12.5 4v2.75h1V4h-1zm-11 8A1.5 1.5 0 0 0 3 13.5v-1a.5.5 0 0 1-.5-.5h-1zM12 3.5a.5.5 0 0 1 .5.5h1A1.5 1.5 0 0 0 12 2.5v1zm-9-1A1.5 1.5 0 0 0 1.5 4h1a.5.5 0 0 1 .5-.5v-1z" fill="#fff"/><path d="M8.017 10.5L5.22 7.542a1.037 1.037 0 0 0-1.497 0L2.107 9.25M13 7l-1.264-1.264a1.038 1.038 0 0 0-1.465.007L6.835 9.25" stroke="#fff" stroke-linecap="round" stroke-linejoin="round"/></svg>