<svg width="18" height="18" fill="none" xmlns="http://www.w3.org/2000/svg"><path d="M15.5 14.075c0 .003-.008.126-.323.33-.293.19-.75.381-1.36.55-1.212.332-2.916.545-4.817.545-1.901 0-3.605-.213-4.817-.546-.61-.168-1.067-.358-1.36-.549-.315-.204-.323-.327-.323-.33 0-.003.008-.125.323-.33.293-.19.75-.381 1.36-.55 1.212-.332 2.916-.545 4.817-.545 1.901 0 3.605.213 4.817.546.61.168 1.067.358 1.36.549.315.205.323.327.323.33zM15.5 9c0 .003-.008.126-.323.33-.293.19-.75.381-1.36.549-1.212.334-2.916.546-4.817.546-1.901 0-3.605-.213-4.817-.546-.61-.168-1.067-.358-1.36-.549C2.508 9.126 2.5 9.003 2.5 9c0-.003.008-.126.323-.33.293-.19.75-.381 1.36-.55C5.395 7.788 7.099 7.576 9 7.576c1.901 0 3.605.212 4.817.546.61.168 1.067.358 1.36.549.315.204.323.327.323.33zm0-5.075c0 .003-.008.126-.323.33-.293.19-.75.381-1.36.55-1.212.333-2.916.545-4.817.545-1.901 0-3.605-.212-4.817-.546-.61-.168-1.067-.358-1.36-.549-.315-.204-.323-.327-.323-.33 0-.003.008-.126.323-.33.293-.19.75-.381 1.36-.55C5.395 2.713 7.099 2.5 9 2.5c1.901 0 3.605.212 4.817.546.61.168 1.067.358 1.36.549.315.204.323.327.323.33z" stroke="currentColor"/></svg>