<svg width="19" height="18" fill="none" xmlns="http://www.w3.org/2000/svg"><g clip-path="url(#clip0_448_2004)" stroke="#fff"><path d="M2.833 9.194a1 1 0 0 1 1-1h7.678a1 1 0 0 1 1 1v1.419a4.839 4.839 0 1 1-9.677 0v-1.42z" stroke-linecap="round"/><path d="M11.704 8.194h1.613c1.114 0 2.016.84 2.016 1.954 0 1.113-.902 2.078-2.016 2.078h-.806"/><path d="M5.253 2.548l-.144.288a1 1 0 0 0 .062 1.002l.214.32a1 1 0 0 1 .116.87l-.248.746m5.242-3.226l-.144.288a1 1 0 0 0 .062 1.002l.213.32a1 1 0 0 1 .117.87l-.248.746" stroke-linecap="round"/></g><defs><clipPath id="clip0_448_2004"><path fill="#fff" transform="translate(.333)" d="M0 0H18V18H0z"/></clipPath></defs></svg>