<svg width="18" height="18" fill="none" xmlns="http://www.w3.org/2000/svg"><path d="M5 3.5h8l-.817 9.8c-.064.776-.097 1.164-.269 1.458a1.5 1.5 0 0 1-.647.595c-.307.147-.696.147-1.475.147H8.208c-.779 0-1.168 0-1.475-.147a1.5 1.5 0 0 1-.647-.595c-.172-.294-.205-.682-.27-1.459L5 3.5z" stroke="currentColor"/><path d="M6 7.5h6V11H6V7.5z" fill="currentColor" stroke="currentColor"/><path d="M4.5 3.5h9" stroke="currentColor" stroke-linecap="round" stroke-linejoin="round"/><path d="M12.191 2.5a.5.5 0 0 1 0 1H5.809a.5.5 0 0 1 0-1h6.382z" stroke="currentColor"/></svg>