<svg width="18" height="18" fill="none" xmlns="http://www.w3.org/2000/svg"><path d="M2.124 6.33a.5.5 0 1 1 .752-.66l-.752.66zm13.745 5.332a.5.5 0 0 1-.738.676l.738-.676zM9.99 6.446l-.01.5.01-.5zm-3.975 3.09l-.016.5.016-.5zM2.876 5.672L4.97 8.06l-.753.66-2.092-2.392.752-.658zm4.282 2.464L8.17 7.123l.708.708-1.012 1.01-.707-.706zm4.622-.933l4.089 4.46-.738.676-4.088-4.46.737-.676zm-3.61-.079c.336-.336.624-.626.884-.823.272-.207.575-.362.947-.354l-.022 1c-.054-.001-.138.012-.32.15-.193.147-.425.378-.782.735l-.708-.708zm2.873.755c-.341-.373-.563-.613-.75-.768-.175-.146-.259-.163-.314-.164l.022-1c.372.008.668.176.93.394.252.21.527.511.85.862l-.738.676zm-6.074.184c.339.388.56.64.747.802.177.153.26.171.316.173l-.033 1c-.379-.013-.676-.19-.938-.418-.251-.218-.525-.533-.845-.899l.753-.658zm2.896.78c-.344.344-.637.639-.903.84-.276.21-.585.367-.963.354l.033-1c.055.003.14-.01.326-.151.198-.15.436-.386.8-.75l.707.707z" fill="currentColor"/></svg>