<svg width="18" height="18" fill="none" xmlns="http://www.w3.org/2000/svg"><path d="M6.5 13l5.056 2.528M6.5 13V2.528M6.5 13l-.898.572c-1.358.864-2.037 1.296-2.555 1.01-.52-.284-.52-1.089-.52-2.698V5.882c0-.579 0-.868.14-1.104.141-.236.395-.375.903-.652L6.5 2.528m5.056 13V4.695m0 10.833l3.148-2.29c.404-.294.606-.44.715-.654.109-.214.109-.464.109-.963V5.896c0-1.503 0-2.254-.49-2.545-.49-.29-1.149.07-2.468.79l-1.014.553m0 0L6.5 2.528" stroke="currentColor" stroke-linecap="round" stroke-linejoin="round"/></svg>