<svg width="18" height="18" fill="none" xmlns="http://www.w3.org/2000/svg"><g clip-path="url(#clip0_448_2010)"><path d="M12.224 3v-.5l-.03.001.03.499zm-4.599.603l-.267.423.267-.423zM5.775 3l.032-.499a.495.495 0 0 0-.031-.001V3zM2 7.105h-.5.5zM9 16l-.29.407a.5.5 0 0 0 .577.003L9 16zm6.5-8.895a.5.5 0 1 0 1 0h-1zm-2.136 5.807a.5.5 0 1 0-.718-.696l.717.697zM9.008 5.038l-.432-.253.432.253zm-.018 0l-.431.252.431-.252zM12.193 2.5a4.409 4.409 0 0 0-2.086.68l.535.845a3.409 3.409 0 0 1 1.614-.527l-.063-.998zm-2.086.68a4.707 4.707 0 0 0-1.53 1.604l.863.505c.304-.52.718-.958 1.202-1.264l-.535-.845zm-.684 1.604a4.707 4.707 0 0 0-1.53-1.604l-.535.845c.484.306.898.745 1.202 1.264l.863-.505zm-1.53-1.604a4.409 4.409 0 0 0-2.086-.68l-.063.998a3.409 3.409 0 0 1 1.614.527l.535-.845zM5.776 2.5c-1.168 0-2.282.49-3.1 1.352l.727.688A3.269 3.269 0 0 1 5.776 3.5v-1zm-3.1 1.352C1.84 4.736 1.5 5.932 1.5 7.105h1c0-.993.289-1.917.903-2.565l-.726-.688zM1.5 7.105c0 1.116.496 2.257 1.174 3.306.683 1.059 1.585 2.077 2.474 2.96a32.435 32.435 0 0 0 3.555 3.031l.005.004h.001L9 16l.29-.407-.003-.003a1.714 1.714 0 0 1-.07-.05 30.246 30.246 0 0 1-.997-.77 31.445 31.445 0 0 1-2.368-2.11c-.861-.854-1.709-1.816-2.338-2.79C2.879 8.885 2.5 7.94 2.5 7.104h-1zm15 0c0-1.172-.34-2.37-1.177-3.253l-.726.688c.614.648.903 1.572.903 2.565h1zm-1.177-3.253A4.268 4.268 0 0 0 12.224 2.5v1c.885 0 1.739.37 2.373 1.04l.726-.688zM9 16l.287.41.002-.002.005-.004.02-.013a21.27 21.27 0 0 0 .341-.25c.23-.17.557-.42.944-.73.772-.62 1.79-1.493 2.764-2.498l-.717-.697a29.805 29.805 0 0 1-2.674 2.416 31.019 31.019 0 0 1-1.17.896l-.067.047a2.534 2.534 0 0 1-.022.015L9 16zM8.577 4.785a.49.49 0 0 1 .846 0l-.863.505a.51.51 0 0 0 .88 0l-.863-.505zm-2.761 5.518a.5.5 0 1 0 .894.447l-.894-.447zm1.816-2.514l.4-.3a.5.5 0 0 0-.848.077l.448.223zm2.052 2.737l-.4.3a.5.5 0 0 0 .754.054l-.354-.354zm1.369-1.368l.353-.354a.5.5 0 0 0-.707 0l.354.354zm1.368 1.368l-.353.354a.5.5 0 0 0 .653.046l-.3-.4zM15.842 10a.5.5 0 0 0 0-1v1zm-2.32-.3l-.3-.4.3.4zM6.71 10.75L8.08 8.013l-.895-.447-1.368 2.737.894.447zm.522-2.66l2.052 2.736.8-.6L8.032 7.49l-.8.6zm2.806 2.79l1.368-1.369-.707-.707-1.368 1.369.707.707zm.661-1.369l1.369 1.369.707-.707-1.369-1.369-.707.707zm2.022 1.415l1.102-.826-.6-.8-1.102.826.6.8zM14.123 10h1.72V9h-1.72v1zm-.3.1a.5.5 0 0 1 .3-.1V9a1.5 1.5 0 0 0-.9.3l.6.8z" fill="#fff"/></g><defs><clipPath id="clip0_448_2010"><path fill="#fff" d="M0 0H18V18H0z"/></clipPath></defs></svg>