<svg width="18" height="18" fill="none" xmlns="http://www.w3.org/2000/svg"><g clip-path="url(#clip0_448_2000)"><path d="M3.782 11.66l-.317.386.317-.386zm2.885 1.423l.126-.483-.126.483zm-3.792 1.661l-.223.448a.5.5 0 0 0 .07.028l.153-.476zM15.5 8.13c0 1.476-.693 2.677-1.846 3.525-1.164.854-2.804 1.35-4.654 1.35v1c2.016 0 3.876-.538 5.246-1.544 1.38-1.014 2.254-2.5 2.254-4.331h-1zm-13 0c0-1.221.669-2.323 1.837-3.138C5.507 4.173 7.153 3.667 9 3.667v-1c-2.02 0-3.873.552-5.236 1.504C2.398 5.125 1.5 6.504 1.5 8.129h1zM9 3.667c1.871 0 3.516.401 4.676 1.159 1.14.744 1.824 1.834 1.824 3.303h1c0-1.84-.883-3.23-2.277-4.14C12.85 3.091 10.995 2.666 9 2.666v1zm-4.9 7.606c-1.01-.83-1.6-1.996-1.6-3.144h-1c0 1.489.758 2.925 1.965 3.917l.635-.773zm4.9 1.73c-.74 0-1.452-.207-2.207-.403l-.252.967c.704.184 1.562.437 2.459.437v-1zM6.793 12.6c-.252-.066-.476.024-.607.09a2.57 2.57 0 0 0-.413.28c-.13.103-.271.226-.41.344-.143.122-.29.245-.443.363-.64.495-1.259.795-1.892.591l-.306.952c1.149.37 2.141-.235 2.81-.751.173-.134.335-.27.48-.393.147-.127.271-.234.385-.324.115-.092.193-.145.245-.171.063-.033.009.015-.101-.014l.252-.967zm-3.695 1.697a.367.367 0 0 1 .174.184.28.28 0 0 1 .021.082v.003a.113.113 0 0 1 .002-.015 1.469 1.469 0 0 1 .05-.186c.08-.241.23-.56.4-.92.163-.341.345-.72.46-1.033.056-.154.108-.325.126-.486.013-.126.028-.44-.231-.653l-.635.773c-.163-.134-.12-.3-.129-.227a1.232 1.232 0 0 1-.07.25c-.095.258-.252.586-.424.947-.163.343-.342.721-.446 1.031a1.74 1.74 0 0 0-.103.499c-.003.158.035.484.359.646l.446-.895z" fill="#fff"/></g><defs><clipPath id="clip0_448_2000"><path fill="#fff" d="M0 0H18V18H0z"/></clipPath></defs></svg>