<svg width="18" height="18" fill="none" xmlns="http://www.w3.org/2000/svg"><g clip-path="url(#clip0_489_202547)"><path d="M14.762 6.262h.5v-1h-.5v1zM7.5 9H8V8h-.5v1zm7.262-3.738A3.262 3.262 0 0 1 11.5 2h-1a4.262 4.262 0 0 0 4.262 4.262v-1zM10.5 2v10h1V2h-1zm0 10a3 3 0 0 1-3 3v1a4 4 0 0 0 4-4h-1zm-3 3a3 3 0 0 1-3-3h-1a4 4 0 0 0 4 4v-1zm-3-3a3 3 0 0 1 3-3V8a4 4 0 0 0-4 4h1z" fill="currentColor"/></g><defs><clipPath id="clip0_489_202547"><path fill="currentColor" d="M0 0H18V18H0z"/></clipPath></defs></svg>