<svg width="19" height="18" fill="none" xmlns="http://www.w3.org/2000/svg"><g clip-path="url(#clip0_448_1999)"><path d="M2.333 5.65a1 1 0 0 1 1-1H5.82a1 1 0 0 0 .813-.419l.402-.562a1 1 0 0 1 .814-.419h2.97a1 1 0 0 1 .814.419l.402.562a1 1 0 0 0 .814.419h2.485a1 1 0 0 1 1 1v7.1a1 1 0 0 1-1 1h-12a1 1 0 0 1-1-1v-7.1z" stroke="#fff" stroke-linecap="round"/><path d="M11.667 9.083a2.333 2.333 0 1 1-4.667 0 2.333 2.333 0 0 1 4.667 0z" stroke="#fff" stroke-linecap="round"/><path d="M13.639 6.847a.514.514 0 1 1 1.028 0 .514.514 0 1 1-1.028 0z" fill="#fff"/></g><defs><clipPath id="clip0_448_1999"><path fill="#fff" transform="translate(.333)" d="M0 0H18V18H0z"/></clipPath></defs></svg>