<svg width="18" height="18" fill="none" xmlns="http://www.w3.org/2000/svg"><path d="M4.444 2.5a.5.5 0 1 0-1 0h1zm10.112 0a.5.5 0 0 0-1 0h1zM2.5 2a.5.5 0 0 0 0 1V2zm13 1a.5.5 0 0 0 0-1v1zM6.513 15.116a.5.5 0 1 0 .64.768l-.64-.768zm4.334.768a.5.5 0 0 0 .64-.768l-.64.768zm-4.728-8.32a.5.5 0 0 0 .707.706l-.707-.707zm1.798-1.092l.353-.353a.5.5 0 0 0-.707 0l.354.353zM9.36 7.917l-.353.353a.5.5 0 0 0 .707 0l-.354-.353zm2.52-1.813a.5.5 0 1 0-.707-.708l.707.708zm-7.35 4.838l.353-.354-.354.354zm8.939 0l-.354-.354.354.354zm.086-8.442v5.028h1V2.5h-1zM4.444 7.528V2.5h-1v5.028h1zM2.5 3h13V2h-13v1zm7.556 8.028H9v1h1.056v-1zm-1.056 0H7.944v1H9v-1zm-.5.5v2.166h1v-2.166h-1zm.18 1.782l-2.167 1.806.64.768L9.32 14.08l-.64-.769zm0 .769l2.167 1.805.64-.768L9.32 13.31l-.64.769zM6.826 8.27L8.27 6.826l-.707-.707L6.12 7.563l.707.707zm.737-1.444L9.008 8.27l.707-.707L8.27 6.12l-.707.707zM9.715 8.27l2.166-2.166-.707-.708-2.166 2.167.707.707zm-6.27-.742c0 .928-.002 1.675.077 2.261.08.6.253 1.105.655 1.507l.707-.708c-.185-.184-.305-.443-.37-.932-.068-.504-.07-1.171-.07-2.128h-1zm4.5 3.5c-.958 0-1.625-.001-2.128-.069-.49-.066-.749-.186-.933-.37l-.707.707c.401.4.906.573 1.506.654.586.079 1.333.078 2.261.078v-1zm5.61-3.5c0 .957 0 1.624-.068 2.128-.066.489-.186.748-.37.932l.706.708c.402-.402.574-.907.655-1.507.079-.586.078-1.333.078-2.261h-1zm-3.5 4.5c.93 0 1.676 0 2.262-.078.6-.08 1.105-.253 1.506-.654l-.707-.708c-.184.185-.443.305-.932.371-.504.068-1.171.069-2.128.069v1z" fill="currentColor"/></svg>