<svg width="18" height="18" fill="none" xmlns="http://www.w3.org/2000/svg"><path d="M4.444 2.5a.5.5 0 1 0-1 0h1zm10.112 0a.5.5 0 0 0-1 0h1zM2.5 2a.5.5 0 0 0 0 1V2zm13 1a.5.5 0 0 0 0-1v1zM6.513 15.116a.5.5 0 1 0 .64.768l-.64-.768zm4.334.768a.5.5 0 0 0 .64-.768l-.64.768zM4.53 10.942l.354-.354-.354.354zm8.94 0l-.354-.354.354.354zm.086-8.442v5.028h1V2.5h-1zM4.444 7.528V2.5h-1v5.028h1zM2.5 3h13V2h-13v1zm7.556 8.028H9v1h1.056v-1zm-1.056 0H7.944v1H9v-1zm-.5.5v2.166h1v-2.166h-1zm.18 1.782l-2.167 1.806.64.768L9.32 14.08l-.64-.769zm0 .769l2.167 1.805.64-.768L9.32 13.31l-.64.769zM3.444 7.528c0 .928 0 1.675.078 2.261.08.6.253 1.105.655 1.507l.707-.708c-.185-.184-.305-.443-.37-.932-.068-.504-.07-1.171-.07-2.128h-1zm4.5 3.5c-.957 0-1.624-.001-2.127-.069-.49-.066-.749-.186-.933-.37l-.707.707c.401.4.906.573 1.506.654.586.079 1.333.078 2.261.078v-1zm5.612-3.5c0 .957-.001 1.624-.07 2.128-.065.489-.185.748-.37.932l.707.708c.402-.402.574-.907.655-1.507.079-.586.078-1.333.078-2.261h-1zm-3.5 4.5c.928 0 1.675 0 2.26-.078.6-.08 1.106-.253 1.507-.654l-.707-.708c-.184.185-.443.305-.932.371-.504.068-1.171.069-2.128.069v1z" fill="currentColor"/></svg>