<svg fill="none" height="24" width="24" xmlns="http://www.w3.org/2000/svg"><g stroke="currentColor" stroke-width="2"><path d="M5.62 5.636A8.831 8.831 0 0 0 2.91 12c0 2.445.998 4.66 2.617 6.273m12.854.09A8.831 8.831 0 0 0 21.09 12c0-2.445-1-4.66-2.619-6.273M8.012 8.023a5.517 5.517 0 0 0-.057 7.898m8.033.056a5.517 5.517 0 0 0 .057-7.898" stroke-linecap="round"/><path d="M13.273 12c0 .665-.554 1.233-1.273 1.233-.72 0-1.273-.568-1.273-1.233s.554-1.233 1.273-1.233c.72 0 1.273.568 1.273 1.233z" fill="currentColor"/></g></svg>