<svg fill="none" height="18" width="18" xmlns="http://www.w3.org/2000/svg"><path d="M4.5 11.5v-5m7-2h-5m7 2v5m-2 2h-5m-4-9c0-.943 0-1.414.293-1.707S3.557 2.5 4.5 2.5s1.414 0 1.707.293.293.764.293 1.707 0 1.414-.293 1.707S5.443 6.5 4.5 6.5s-1.414 0-1.707-.293S2.5 5.443 2.5 4.5zm0 9c0-.943 0-1.414.293-1.707S3.557 11.5 4.5 11.5s1.414 0 1.707.293.293.764.293 1.707 0 1.414-.293 1.707-.764.293-1.707.293-1.414 0-1.707-.293S2.5 14.443 2.5 13.5zm9 0c0-.943 0-1.414.293-1.707s.764-.293 1.707-.293 1.414 0 1.707.293.293.764.293 1.707 0 1.414-.293 1.707-.764.293-1.707.293-1.414 0-1.707-.293-.293-.764-.293-1.707zm0-9c0-.943 0-1.414.293-1.707S12.557 2.5 13.5 2.5s1.414 0 1.707.293.293.764.293 1.707 0 1.414-.293 1.707-.764.293-1.707.293-1.414 0-1.707-.293S11.5 5.443 11.5 4.5z" stroke="currentColor"/></svg>