<svg fill="none" height="18" width="18" xmlns="http://www.w3.org/2000/svg"><path d="m5.467 7.741-1.398 2.446c-.76 1.331-1.14 1.997-.852 2.495.29.498 1.056.498 2.588.498h.699m-1.037-5.44-2.46.375m2.46-.375.905 2.317m3.17 3.25 2.816-.012c1.533-.006 2.3-.01 2.586-.51.287-.499-.096-1.162-.862-2.49l-.35-.604m-4.19 3.617 1.553 1.942m-1.554-1.94 1.554-1.942m1.195-4.298-1.42-2.432c-.772-1.324-1.158-1.986-1.734-1.985s-.96.665-1.726 1.992l-.349.605m5.228 1.821.906-2.317m-.906 2.317-2.458-.374" stroke="currentColor" stroke-linecap="round" stroke-linejoin="round"/></svg>