<svg width="18" height="18" fill="none" xmlns="http://www.w3.org/2000/svg"><path d="M12 3.5H6c-.957 0-1.624.001-2.128.069-.49.066-.748.186-.933.37-.184.185-.304.444-.37.933C2.5 5.376 2.5 6.043 2.5 7v4c0 .957.001 1.624.069 2.128.066.49.186.748.37.933.185.184.444.305.933.37.504.068 1.171.069 2.128.069h6c.957 0 1.624-.001 2.128-.069.49-.065.748-.186.933-.37.184-.185.305-.444.37-.933.068-.504.069-1.171.069-2.128V7c0-.957-.001-1.624-.069-2.128-.065-.49-.186-.748-.37-.933-.185-.184-.444-.304-.933-.37C13.624 3.5 12.957 3.5 12 3.5z" stroke="currentColor"/><path d="M7.5 3.5v11m-2-7h-1m1 2h-1m1-4h-1" stroke="currentColor" stroke-linecap="round" stroke-linejoin="round"/></svg>