<svg fill="none" height="18" width="18" xmlns="http://www.w3.org/2000/svg"><clipPath id="a"><path d="M0 0h18v18H0z"/></clipPath><g clip-path="url(#a)"><path d="M10 14H6.5c-1.886 0-2.828 0-3.414-.586S2.5 11.886 2.5 10V8c0-1.886 0-2.828.586-3.414S4.614 4 6.5 4h5c1.886 0 2.828 0 3.414.586S15.5 6.114 15.5 8v.5" stroke="currentColor" stroke-linecap="round" stroke-linejoin="round"/><path d="M13.5 10v4m2-2h-4" stroke="currentColor" stroke-linecap="round"/><path d="M9.096 4a.25.25 0 1 0-.5 0zm-.5 10a.25.25 0 1 0 .5 0zm2.008-3.117a.25.25 0 0 0 0-.5zM3 10.383a.25.25 0 1 0 0 .5zM15 7.82a.25.25 0 1 0 0-.5zm-12-.5a.25.25 0 0 0 0 .5zM8.596 4v10h.5V4zm2.008 6.383H3v.5h7.604zM15 7.32H3v.5h12z" fill="currentColor"/></g></svg>