<svg width="18" height="18" fill="none" xmlns="http://www.w3.org/2000/svg"><path d="M7.529 13.183l-.257-.43.257.43zm-2.522.921l.247-.435-.247.435zm6.635-3.389l-.258-.429.258.429zM13.556 9h.5-.5zm-5.77 4.611l4.113-2.467-.515-.858-4.112 2.468.514.857zM11.9 6.856L7.786 4.39l-.514.857 4.112 2.468.515-.858zM4 6.532v4.936h1V6.532H4zm3.272 6.222c-.686.411-1.152.69-1.509.837-.353.147-.46.106-.51.078l-.492.87c.458.26.94.16 1.385-.024.442-.183.983-.51 1.64-.904l-.514-.857zM4 11.468c0 .766-.001 1.398.069 1.87.07.477.234.942.692 1.201l.493-.87c-.05-.028-.14-.099-.196-.477C5.001 12.81 5 12.268 5 11.468H4zm3.786-7.08c-.657-.394-1.198-.72-1.64-.903-.445-.185-.927-.283-1.385-.024l.493.87c.049-.028.156-.069.51.078.356.148.822.426 1.508.837l.514-.857zM5 6.533c0-.8.001-1.342.058-1.724.056-.378.146-.449.196-.477l-.493-.87c-.458.26-.621.724-.692 1.2C3.999 5.134 4 5.766 4 6.532h1zm6.899 4.612c.624-.375 1.142-.684 1.496-.975.36-.295.661-.66.661-1.169h-1c0 .058-.017.167-.296.396-.283.233-.723.499-1.376.89l.515.858zm-.515-3.43c.653.391 1.093.657 1.376.89.279.229.296.338.296.396h1c0-.508-.301-.874-.66-1.169-.356-.291-.873-.6-1.497-.975l-.515.858z" fill="currentColor"/></svg>