<svg width="18" height="18" fill="none" xmlns="http://www.w3.org/2000/svg"><path d="M13.387 11.542l-.44.24.44-.24zm.788 2.469l-.43-.256.43.255zm-9.562-2.469l-.439-.24.44.24zm-.788 2.469l.43-.256-.43.255zm6.93-7.292l-.438.24.439-.24zm-3.51 0l-.44-.24.44.24zm6.58 4.584l-2.63-4.823-.878.478 2.63 4.824.879-.48zM6.806 6.48l-2.63 4.823.877.479 2.631-4.824-.878-.478zM6.37 15h5.262v-1H6.369v1zm6.579-3.218c.368.674.615 1.13.742 1.478.126.342.085.446.055.495l.86.51c.261-.44.186-.91.024-1.35-.16-.434-.452-.967-.803-1.612l-.878.479zM11.63 15c.734 0 1.343.001 1.8-.067.463-.068.913-.227 1.174-.667l-.86-.51c-.029.049-.1.135-.46.188-.367.055-.886.056-1.654.056v1zm-7.457-3.697c-.351.645-.644 1.178-.803 1.612-.162.44-.238.91.024 1.35l.86-.51c-.03-.05-.071-.153.055-.495.127-.348.374-.804.742-1.478l-.878-.48zM6.37 14c-.768 0-1.287-.001-1.653-.056-.36-.053-.432-.14-.461-.189l-.86.51c.26.44.71.6 1.174.668.457.068 1.066.067 1.8.067v-1zm4.826-7.52c-.38-.696-.69-1.268-.986-1.66-.296-.393-.671-.732-1.209-.732v1c.056 0 .172.017.41.334.241.319.511.811.907 1.536l.878-.478zm-3.512.478c.396-.725.666-1.217.906-1.536.24-.317.355-.334.411-.334v-1c-.538 0-.913.339-1.21.732-.295.392-.605.964-.985 1.66l.878.478z" fill="currentColor"/></svg>