<svg fill="none" height="18" width="18" xmlns="http://www.w3.org/2000/svg"><path d="M13.5 11.5l-3-5m1 7.5h-5m-2-2.5l3-5m-5 7c0-.943 0-1.414.293-1.707S3.557 11.5 4.5 11.5s1.414 0 1.707.293.293.764.293 1.707 0 1.414-.293 1.707-.764.293-1.707.293-1.414 0-1.707-.293S2.5 14.443 2.5 13.5zm9 0c0-.943 0-1.414.293-1.707s.764-.293 1.707-.293 1.414 0 1.707.293.293.764.293 1.707 0 1.414-.293 1.707-.764.293-1.707.293-1.414 0-1.707-.293-.293-.764-.293-1.707zM7 4.5c0-.943 0-1.414.293-1.707S8.057 2.5 9 2.5s1.414 0 1.707.293S11 3.557 11 4.5s0 1.414-.293 1.707S9.943 6.5 9 6.5s-1.414 0-1.707-.293S7 5.443 7 4.5z" stroke="currentColor"/></svg>