<svg width="19" height="18" fill="none" xmlns="http://www.w3.org/2000/svg"><g clip-path="url(#clip0_448_2008)"><path d="M14.758 4.354a.5.5 0 0 0 .466.152c.264-.053.542-.195.758-.311.07-.037.135-.073.198-.108.159-.087.298-.163.432-.223a1.95 1.95 0 0 1 .049-.02 2.527 2.527 0 0 1-.073.286 5.584 5.584 0 0 1-.598 1.28 1.51 1.51 0 0 1-.309.365.5.5 0 0 0-.202.424c.006.131.009.264.009.394 0 3.993-2.96 7.907-8.463 7.907-.84 0-2.1-.175-3.098-.438a5.87 5.87 0 0 1-1.028-.356 2.81 2.81 0 0 1 .11-.025c.274-.06.616-.1 1.017-.146l.213-.025a12.03 12.03 0 0 0 1.516-.253c.5-.127 1.01-.32 1.418-.646a.5.5 0 0 0-.058-.82c-1.733-1.026-2.627-2.063-3.1-3.05-.475-.993-.55-1.99-.55-2.996-.001-.307.003-.713.116-1.038a.715.715 0 0 1 .193-.318c.063-.054.162-.105.342-.105.073 0 .23.06.559.363.145.134.3.291.477.472l.018.018c.182.185.384.39.605.597.892.83 2.131 1.718 3.983 1.718a.5.5 0 0 0 .488-.609 2.858 2.858 0 0 1-.069-.623c0-1.513 1.197-2.72 2.65-2.72.759 0 1.446.327 1.931.854zm1.896-.683l.003.009a.026.026 0 0 1-.003-.009z" stroke="#fff" stroke-linejoin="round"/></g><defs><clipPath id="clip0_448_2008"><path fill="#fff" transform="translate(.667)" d="M0 0H18V18H0z"/></clipPath></defs></svg>