<svg width="24" height="24" fill="none" xmlns="http://www.w3.org/2000/svg"><path d="M8.5 16l.5 2 .089.534c.193 1.157.29 1.736.686 2.088l.053.044C10.24 21 10.827 21 12 21s1.76 0 2.172-.334a1.48 1.48 0 0 0 .053-.044c.397-.352.493-.93.686-2.088L15 18l.5-2m-7-8L9 6l.089-.534c.193-1.157.29-1.736.686-2.088l.053-.044C10.24 3 10.827 3 12 3s1.76 0 2.172.334l.053.044c.397.352.493.93.686 2.088L15 6l.5 2" stroke="currentColor" stroke-width="2" stroke-linecap="round" stroke-linejoin="round"/><circle cx="12" cy="12" r="5" stroke="currentColor" stroke-width="2"/><path d="M12 10v2h1.5" stroke="currentColor" stroke-width="2" stroke-linecap="round" stroke-linejoin="round"/></svg>