<svg width="24" height="24" fill="none" xmlns="http://www.w3.org/2000/svg"><path d="M8.5 16.5l.4 1.202c.05.15.075.223.094.3.019.076.032.153.058.308l.037.224c.193 1.157.29 1.736.686 2.088l.053.044C10.24 21 10.827 21 12 21s1.76 0 2.172-.334a1.48 1.48 0 0 0 .053-.044c.397-.352.493-.93.686-2.088l.037-.224c.026-.155.04-.232.058-.308.019-.076.044-.15.093-.3L15.5 16.5m-7-9l.4-1.202c.05-.149.075-.223.094-.3.019-.076.032-.153.058-.308l.037-.224c.193-1.157.29-1.736.686-2.088l.053-.044C10.24 3 10.827 3 12 3s1.76 0 2.172.334l.053.044c.397.352.493.93.686 2.088l.037.224c.026.155.04.232.058.309.019.076.044.15.093.299L15.5 7.5" stroke="currentColor" stroke-width="2" stroke-linecap="round" stroke-linejoin="round"/><path d="M12 16.5c-1.196 0-2.01-.002-2.628-.071-.598-.068-.889-.188-1.09-.342a1.999 1.999 0 0 1-.369-.37c-.154-.2-.274-.491-.342-1.09C7.501 14.01 7.5 13.197 7.5 12c0-1.196.001-2.01.071-2.628.068-.598.188-.889.342-1.09a2 2 0 0 1 .37-.369c.2-.154.491-.274 1.09-.342C9.99 7.501 10.803 7.5 12 7.5c1.196 0 2.01.001 2.628.071.598.068.889.188 1.09.342.138.107.262.23.369.37.154.2.274.491.342 1.09.07.618.071 1.431.071 2.627 0 1.196-.002 2.01-.071 2.628-.068.598-.188.889-.342 1.09-.107.138-.23.262-.37.369-.2.154-.491.274-1.09.342-.618.07-1.431.071-2.627.071z" stroke="currentColor" stroke-width="2"/></svg>