<svg fill="none" height="24" width="24" xmlns="http://www.w3.org/2000/svg"><path d="M9.172 19.172l-1.415-1.415c-.867-.867-1.3-1.3-1.529-1.852C6 15.355 6 14.741 6 13.515v-9.1c0-1.028 0-1.542.309-1.67.308-.128.672.236 1.398.962l1.465 1.465c1.333 1.333 2 2 2.828 2s1.495-.667 2.828-2l1.465-1.465c.726-.726 1.09-1.09 1.398-.962.309.128.309.642.309 1.67v9.1c0 1.226 0 1.84-.228 2.39-.229.552-.662.985-1.53 1.852l-1.414 1.415c-1.333 1.333-2 2-2.828 2s-1.495-.667-2.828-2z" stroke="currentColor" stroke-linecap="round" stroke-linejoin="round" stroke-width="2"/></svg>