<svg fill="none" height="24" width="24" xmlns="http://www.w3.org/2000/svg"><clipPath id="a"><path d="M0 0h24v24H0z"/></clipPath><clipPath id="b"><path d="M0 0h24v24H0z" transform="rotate(-90 12 12)"/></clipPath><g clip-path="url(#a)"><g clip-path="url(#b)" stroke="currentColor" stroke-linecap="round" stroke-linejoin="round" stroke-width="2"><path d="M11 21c-1.886 0-2.828 0-3.414-.586S7 18.886 7 17V9c0-1.886 0-2.828.586-3.414S9.114 5 11 5h2c1.886 0 2.828 0 3.414.586S17 7.114 17 9v8c0 1.886 0 2.828-.586 3.414S14.886 21 13 21z"/><path d="M12.5 5h-1a1 1 0 1 1 0-2h1a1 1 0 1 1 0 2z" fill="currentColor"/><path d="M10 17.5h4"/></g></g></svg>