<svg fill="none" height="24" width="24" xmlns="http://www.w3.org/2000/svg"><path d="M18.4 3a1 1 0 1 0-2 0zm-2 3.6a1 1 0 1 0 2 0zM7.6 3a1 1 0 0 0-2 0zm-2 3.6a1 1 0 0 0 2 0zM3.586 20.414l.707-.707zm16.828 0l.707.707zm0-15.028l.707-.707zm-16.828 0l-.707-.707zM20 8.8V17h2V8.8zM17 20H7v2h10zM4 17V8.8H2V17zM7.001 5.8h9.997v-2H7.003v2zM21 9.2H3v2h18zM16.4 3v3.6h2V3zM5.6 3v3.6h2V3zM7 20c-.971 0-1.599-.002-2.061-.064-.434-.059-.57-.153-.646-.229l-1.414 1.414c.51.51 1.138.709 1.793.797C5.3 22.002 6.085 22 7 22zm-5-3c0 .915-.002 1.701.082 2.328.088.655.287 1.284.797 1.793l1.414-1.414c-.076-.076-.17-.212-.229-.646C4.002 18.6 4 17.971 4 17zm18 0c0 .971-.002 1.599-.064 2.061-.059.434-.153.57-.229.646l1.414 1.414c.51-.51.709-1.138.797-1.793C22.002 18.7 22 17.915 22 17zm-3 5c.915 0 1.701.002 2.328-.082.655-.088 1.284-.287 1.793-.797l-1.414-1.414c-.076.076-.212.17-.646.229-.462.062-1.09.064-2.061.064zm5-13.2c0-.915.002-1.701-.082-2.328-.088-.655-.287-1.284-.797-1.793l-1.414 1.414c.076.076.17.212.229.646.062.462.064 1.09.064 2.061zm-5.001-3c.971 0 1.6.002 2.062.064.434.059.57.153.646.229l1.414-1.414c-.51-.51-1.138-.709-1.794-.797C18.7 3.798 17.914 3.8 17 3.8v2zM4 8.8c0-.971.002-1.599.064-2.061.059-.434.153-.57.229-.646L2.879 4.679c-.51.51-.709 1.138-.797 1.793C1.998 7.1 2 7.885 2 8.8zm3.001-5c-.915 0-1.701-.002-2.328.082-.656.088-1.285.287-1.794.797l1.414 1.414c.076-.076.212-.17.646-.229.463-.062 1.09-.064 2.062-.064z" fill="currentColor"/></svg>