<svg fill="none" height="24" width="24" xmlns="http://www.w3.org/2000/svg"><path d="M9.5 5.5c-1.886 0-2.828 0-3.414.586S5.5 7.614 5.5 9.5m4-4V3m0 2.5h5m0 0c1.886 0 2.828 0 3.414.586S18.5 7.614 18.5 9.5m-4-4V3m4 6.5H21m-2.5 0v5m0 0c0 1.886 0 2.828-.586 3.414s-1.528.586-3.414.586m4-4H21m-6.5 4V21m0-2.5h-5m0 0c-1.886 0-2.828 0-3.414-.586S5.5 16.386 5.5 14.5m4 4V21m-4-6.5H3m2.5 0v-5m0 0H3m11.5 1v3c0 .471 0 .707-.146.854-.147.146-.383.146-.854.146h-3c-.471 0-.707 0-.854-.146-.146-.147-.146-.383-.146-.854v-3c0-.471 0-.707.146-.854.147-.146.383-.146.854-.146h3c.471 0 .707 0 .854.146.146.147.146.383.146.854z" stroke="currentColor" stroke-linecap="round" stroke-linejoin="round" stroke-width="2"/></svg>