<svg width="24" height="24" fill="none" xmlns="http://www.w3.org/2000/svg"><path d="M7.293 5.707a1 1 0 0 0 1.414-1.414L7.293 5.707zm14.54 11.348a1 1 0 0 0-1.665-1.11l1.664 1.11zM8.835 3.572l.352.936-.352-.936zM4.831 8.445a1 1 0 1 0-1.791-.89l1.791.89zm15.254-.636l-.9.436.9-.436zM12 20c-3.981 0-8-3.615-8-8H2c0 5.556 4.981 10 10 10v-2zm0-16c3.208 0 5.904 1.602 7.185 4.245l1.8-.872C19.335 3.968 15.892 2 12 2v2zm8.168 11.945c-.934 1.4-1.942 2.391-3.193 3.043C15.719 19.643 14.14 20 12 20v2c2.36 0 4.28-.393 5.9-1.238 1.625-.848 2.866-2.108 3.932-3.707l-1.664-1.11zm-18-3.39c1.233 1.85 3.192 2.546 5.148 1.894l-.632-1.898c-1.044.348-2.085.045-2.852-1.106l-1.664 1.11zm5.148 1.894c.585-.195 1.09-.6 1.493-.97.402-.369.845-.844 1.21-1.21.397-.396.758-.724 1.111-.954.348-.226.628-.315.87-.315V9c-.758 0-1.416.286-1.959.638-.537.349-1.02.802-1.436 1.217-.447.447-.784.816-1.149 1.15-.362.333-.607.491-.772.546l.632 1.898zM12 11c.242 0 .521.09.87.315.353.23.714.558 1.11.955.366.365.81.84 1.21 1.209.404.37.909.775 1.494.97l.632-1.898c-.165-.055-.41-.213-.772-.545-.365-.335-.702-.704-1.15-1.15-.415-.416-.898-.87-1.435-1.218C13.416 9.286 12.759 9 12 9v2zm4.684 3.449c.044.015.09.028.134.04l.522-1.93a.355.355 0 0 1-.024-.008l-.632 1.898zM8.707 4.293c.02.019.054.061.082.128a.51.51 0 0 1 .039.209c-.004.124-.052.175-.03.145a.67.67 0 0 1 .146-.135 1.09 1.09 0 0 1 .244-.132l-.703-1.872c-.47.176-.981.513-1.31.97a1.748 1.748 0 0 0-.346.965 1.53 1.53 0 0 0 .464 1.136l1.414-1.414zm.48.215A7.98 7.98 0 0 1 12 4V2a9.98 9.98 0 0 0-3.515.636l.703 1.872zM4 12c0-1.279.3-2.485.831-3.555l-1.791-.89A9.963 9.963 0 0 0 2 12h2zm15.185-3.755c.443.916.392 2.203-.071 3.186-.226.479-.518.815-.813.998-.27.168-.578.233-.961.13l-.522 1.93a3.15 3.15 0 0 0 2.54-.362c.702-.437 1.22-1.113 1.565-1.844.678-1.437.81-3.365.062-4.91l-1.8.872z" fill="currentColor"/></svg>