<svg fill="none" height="24" width="24" xmlns="http://www.w3.org/2000/svg"><g stroke="currentColor" stroke-linecap="round" stroke-linejoin="round" stroke-width="2"><path d="M3 6.5c0-1.404 0-2.107.337-2.611a2 2 0 0 1 .552-.552C4.393 3 5.096 3 6.5 3c1.404 0 2.107 0 2.611.337a2 2 0 0 1 .552.552C10 4.393 10 5.096 10 6.5c0 1.404 0 2.107-.337 2.611a2 2 0 0 1-.552.552C8.607 10 7.904 10 6.5 10c-1.404 0-2.107 0-2.611-.337a2 2 0 0 1-.552-.552C3 8.607 3 7.904 3 6.5z" fill="currentColor"/><rect height="7" rx="2" width="7" x="3" y="14"/><rect height="7" rx="2" width="7" x="14" y="3"/><rect height="7" rx="2" width="7" x="14" y="14"/></g></svg>