<svg width="24" height="24" fill="none" xmlns="http://www.w3.org/2000/svg"><circle cx="4.5" cy="4.5" r="1.5" fill="currentColor" stroke="currentColor" stroke-width="2"/><circle cx="19.5" cy="4.5" r="1.5" fill="currentColor" stroke="currentColor" stroke-width="2"/><path d="M13.5 4.5a1.5 1.5 0 1 1-3 0 1.5 1.5 0 0 1 3 0zm0 15a1.5 1.5 0 1 1-3 0 1.5 1.5 0 0 1 3 0z" fill="currentColor" stroke="currentColor" stroke-width="2"/><circle cx="19.5" cy="19.5" r="1.5" fill="currentColor" stroke="currentColor" stroke-width="2"/><circle cx="4.5" cy="19.5" r="1.5" fill="currentColor" stroke="currentColor" stroke-width="2"/><path d="M6 12a1.5 1.5 0 1 1-3 0 1.5 1.5 0 0 1 3 0zm7.5 0a1.5 1.5 0 1 1-3 0 1.5 1.5 0 0 1 3 0zm7.5 0a1.5 1.5 0 1 1-3 0 1.5 1.5 0 0 1 3 0z" fill="currentColor" stroke="currentColor" stroke-width="2"/></svg>