<svg fill="none" height="24" width="24" xmlns="http://www.w3.org/2000/svg"><g fill="currentColor"><path d="M7.333 13.167c0-.155 0-.233.017-.296a.5.5 0 0 1 .354-.354c.064-.017.141-.017.296-.017s.233 0 .296.017a.5.5 0 0 1 .354.354c.017.063.017.14.017.296v.466c0 .095 0 .142.029.171.03.03.076.03.17.03h.467c.155 0 .233 0 .296.016a.5.5 0 0 1 .354.354c.017.063.017.141.017.296s0 .232-.017.296a.5.5 0 0 1-.354.354c-.063.017-.14.017-.296.017h-.466c-.095 0-.142 0-.171.029-.03.03-.03.076-.03.17v.467c0 .155 0 .233-.016.296a.5.5 0 0 1-.354.354c-.064.017-.141.017-.296.017s-.233 0-.296-.017a.5.5 0 0 1-.354-.354c-.017-.063-.017-.14-.017-.296v-.466c0-.095 0-.142-.029-.171-.03-.03-.076-.03-.17-.03h-.467c-.155 0-.233 0-.296-.016a.5.5 0 0 1-.354-.354C6 14.733 6 14.655 6 14.5s0-.232.017-.296a.5.5 0 0 1 .354-.354c.063-.017.14-.017.296-.017h.466c.095 0 .142 0 .171-.029.03-.03.03-.076.03-.17v-.467zm9.834-.417a.75.75 0 1 1-1.5 0 .75.75 0 0 1 1.5 0z"/><circle cx="16.417" cy="16.083" r=".75"/><circle cx="14.75" cy="14.417" r=".75"/><circle cx="18.083" cy="14.417" r=".75"/></g><path d="M12 10V7.562c0-1.18 0-1.77.385-2.07.384-.3.956-.157 2.1.13l1.03.257c1.144.286 1.716.429 2.1.128.385-.3.385-.89.385-2.069V3" stroke="currentColor" stroke-linecap="round" stroke-width="2"/><path d="M3 15c0 2.346 1.454 4.315 3.416 4.854.644.177 1.26-.245 1.534-.854s.88-1 1.547-1h5.006c.668 0 1.273.391 1.547 1s.89 1.03 1.534.854C19.546 19.315 21 17.346 21 15c0-2.761-2.015-5-4.5-5h-9C5.015 10 3 12.239 3 15z" stroke="currentColor" stroke-width="2"/></svg>