<svg width="24" height="24" fill="none" xmlns="http://www.w3.org/2000/svg"><path d="M20.67 19.018c.157.103.244.181.29.232-.046.05-.133.13-.29.232-.385.25-1.007.512-1.864.748-1.701.468-4.108.77-6.806.77-2.698 0-5.105-.302-6.806-.77-.858-.236-1.48-.498-1.863-.748a1.492 1.492 0 0 1-.29-.232c.045-.05.132-.13.29-.232.384-.25 1.005-.512 1.863-.748 1.701-.468 4.108-.77 6.806-.77 2.698 0 5.105.302 6.806.77.857.236 1.48.498 1.863.748zm0-7.25c.157.103.244.181.29.232-.046.05-.133.13-.29.232-.385.25-1.007.513-1.864.748-1.701.468-4.108.77-6.806.77-2.698 0-5.105-.302-6.806-.77-.858-.236-1.48-.498-1.863-.748A1.492 1.492 0 0 1 3.04 12c.045-.05.132-.13.29-.232.384-.25 1.005-.513 1.863-.748 1.701-.468 4.108-.77 6.806-.77 2.698 0 5.105.302 6.806.77.857.236 1.48.498 1.863.748zm0-7.25c.157.103.244.181.29.232-.046.05-.133.13-.29.232-.385.25-1.007.512-1.864.748-1.701.468-4.108.77-6.806.77-2.698 0-5.105-.302-6.806-.77-.858-.236-1.48-.498-1.863-.748a1.494 1.494 0 0 1-.29-.232c.045-.05.132-.13.29-.232.384-.25 1.005-.512 1.863-.748C6.895 3.302 9.302 3 12 3c2.698 0 5.105.302 6.806.77.857.236 1.48.498 1.863.748z" stroke="currentColor" stroke-width="2"/></svg>