<svg width="24" height="24" fill="none" xmlns="http://www.w3.org/2000/svg"><path d="M10 10.627h1a1 1 0 0 0-.58-.908l-.42.908zM10 19H9a1 1 0 0 0 .293.707L10 19zm2 2l-.707.707a1 1 0 0 0 1.347.061L12 21zm3-2.5l.64.768a1 1 0 0 0 .192-1.323L15 18.5zM14 17h-1a1 1 0 0 0 .168.555L14 17zm0-2l-.707-.707A1 1 0 0 0 13 15h1zm1.5-1.5l.707.707a1 1 0 0 0 0-1.414l-.707.707zM14 12h-1a1 1 0 0 0 .293.707L14 12zm0-1.373l-.47-.884a1 1 0 0 0-.53.883h1zM9 7a3 3 0 0 1 3-3V2a5 5 0 0 0-5 5h2zm3-3a3 3 0 0 1 3 3h2a5 5 0 0 0-5-5v2zm-3 6.627V19h2v-8.373H9zm.293 9.08l2 2 1.414-1.414-2-2-1.414 1.414zm3.347 2.061l3-2.5-1.28-1.536-3 2.5 1.28 1.536zm3.192-3.823l-1-1.5-1.664 1.11 1 1.5 1.664-1.11zM15 17v-2h-2v2h2zm-.293-1.293l1.5-1.5-1.414-1.414-1.5 1.5 1.414 1.414zm1.5-2.914l-1.5-1.5-1.414 1.414 1.5 1.5 1.414-1.414zM15 12v-1.373h-2V12h2zm-5-1.373l.42-.908h.002l.001.002h.003l.004.003c.002 0 .002 0 0 0a1.911 1.911 0 0 1-.176-.108 2.761 2.761 0 0 1-.503-.45C9.391 8.756 9 8.078 9 7H7c0 1.624.61 2.759 1.249 3.486.314.358.63.611.872.778a3.865 3.865 0 0 0 .437.26l.013.006.005.002.002.001h.001s.001.001.421-.906zM15 7c0 .998-.383 1.682-.76 2.126a3.251 3.251 0 0 1-.683.601 1.19 1.19 0 0 1-.032.02h-.003.003l.003-.002a.038.038 0 0 1 .002-.001l.47.883.47.882h.001l.002-.002.005-.002a.648.648 0 0 0 .042-.024 4.294 4.294 0 0 0 .39-.259c.235-.175.543-.438.85-.798C16.384 9.694 17 8.566 17 7h-2zm-2.25-.75a.75.75 0 1 1-1.5 0 .75.75 0 0 1 1.5 0z" fill="currentColor"/></svg>