<svg width="24" height="24" fill="none" xmlns="http://www.w3.org/2000/svg"><path d="M3 7v9c0 1.886 0 2.828.586 3.414C4.172 20 5.114 20 7 20h10c1.886 0 2.828 0 3.414-.586C21 18.828 21 17.886 21 16V7" stroke="currentColor" stroke-width="2"/><path fill-rule="evenodd" clip-rule="evenodd" d="M2 7h20c0-1.886 0-2.828-.586-3.414C20.828 3 19.886 3 18 3H6c-1.886 0-2.828 0-3.414.586C2 4.172 2 5.114 2 7zm3-2a.5.5 0 1 1-1 0 .5.5 0 0 1 1 0zm2 0a.5.5 0 1 1-1 0 .5.5 0 0 1 1 0zm1.5.5a.5.5 0 1 0 0-1 .5.5 0 0 0 0 1z" fill="currentColor"/></svg>