<svg fill="none" height="24" width="24" xmlns="http://www.w3.org/2000/svg"><g fill="currentColor"><path d="M16.606 3V2c-.02 0-.042 0-.063.002zm-6.57.882l-.544.839.544-.84zM7.394 3l.063-.998A.998.998 0 0 0 7.394 2zM2 9H1zm10 13l-.59.808a1 1 0 0 0 1.172.005zm9-13a1 1 0 1 0 2 0zm-2.553 8.667a1 1 0 1 0-1.452-1.376zm-6.43-11.698l-.867-.497zm-.034 0l.867-.497zm.017.02v1zm4.543-3.987a6.5 6.5 0 0 0-3.123 1.04l1.088 1.679a4.498 4.498 0 0 1 2.162-.723zm-3.123 1.04a7.09 7.09 0 0 0-2.27 2.43l1.735.995a5.09 5.09 0 0 1 1.623-1.746zm-.57 2.43a7.09 7.09 0 0 0-2.27-2.43L9.492 4.721a5.09 5.09 0 0 1 1.623 1.746zm-2.27-2.43a6.498 6.498 0 0 0-3.123-1.04L7.33 3.998c.759.048 1.5.294 2.162.723zM7.394 2c-1.757 0-3.425.754-4.642 2.069l1.467 1.359C5.075 4.503 6.22 4 7.394 4zM2.752 4.069C1.497 5.424 1 7.244 1 9h2c0-1.41.4-2.688 1.22-3.572l-1.468-1.36zM1 9c0 1.7.737 3.416 1.717 4.97.99 1.569 2.293 3.073 3.57 4.37a46.983 46.983 0 0 0 5.114 4.46l.006.005.002.002h.001L12 22l.59-.808h-.001l-.004-.003-.02-.014a42.885 42.885 0 0 1-1.492-1.176 44.978 44.978 0 0 1-3.36-3.063c-1.223-1.242-2.42-2.631-3.305-4.034C3.513 11.484 3 10.15 3 9zm22 0c0-1.756-.497-3.576-1.752-4.931l-1.467 1.359C20.599 6.312 21 7.59 21 9zm-1.752-4.931C20.031 2.754 18.363 2 16.606 2v2c1.175 0 2.319.503 3.175 1.428l1.467-1.36zM12 22l.582.813h.001l.003-.002.007-.006.029-.02a19.263 19.263 0 0 0 .493-.369c.332-.252.8-.617 1.356-1.074a44.652 44.652 0 0 0 3.976-3.675l-1.452-1.376a42.664 42.664 0 0 1-3.794 3.506 44.321 44.321 0 0 1-1.754 1.369l-.023.017-.005.003-.001.001zm-.85-16.528c-.02.036.018-.037.072-.106A.99.99 0 0 1 12 4.99v2a1.01 1.01 0 0 0 .866-.492l.013-.021a.506.506 0 0 1 .006-.01zm-.035.995l.006.01.013.021A1.01 1.01 0 0 0 12 6.99v-2a.99.99 0 0 1 .778.377c.054.069.092.142.072.106l-1.735.995z"/><path d="M7.106 13.553a1 1 0 1 0 1.788.894zM10 10l.8-.6a1 1 0 0 0-1.694.153zm3 4l-.8.6a1 1 0 0 0 1.507.107zm2-2l.707-.707a1 1 0 0 0-1.414 0zm2 2l-.707.707a1 1 0 0 0 1.307.093zm5-.5a1 1 0 1 0 0-2zm-3.533-.6l-.6-.8zm.55-.349l.316.949zM8.894 14.447l2-4-1.788-.894-2 4zM9.2 10.6l3 4 1.6-1.2-3-4zm4.507 4.107l2-2-1.414-1.414-2 2zm.586-2l2 2 1.414-1.414-2-2zM17.6 14.8l1.467-1.1-1.2-1.6-1.467 1.1zm2.067-1.3H22v-2h-2.333zm-.6.2c.141-.106.212-.159.265-.193.041-.028.033-.018.001-.007l-.632-1.897c-.343.114-.622.338-.834.497zm.6-2.2c-.266 0-.623-.012-.966.103l.632 1.897c-.032.01-.044.008.006.004.063-.003.15-.004.328-.004z"/></g></svg>