<svg width="24" height="24" fill="none" xmlns="http://www.w3.org/2000/svg"><path d="M5.292 15.647l-.66.752.66-.752zM9 17.6l.267-.963L9 17.6zm-4.875 2.278l-.47.883c.047.024.096.046.146.063l.324-.946zM20 10.805c0 1.94-.85 3.5-2.253 4.6-1.421 1.114-3.442 1.772-5.747 1.772v2c2.666 0 5.145-.76 6.98-2.198C20.836 15.526 22 13.4 22 10.805h-2zm-16 0c0-1.576.807-3 2.234-4.064C7.668 5.673 9.7 5 12 5V3c-2.671 0-5.138.779-6.961 2.138C3.209 6.5 2 8.479 2 10.805h2zM12 5c2.351 0 4.381.539 5.793 1.522C19.166 7.478 20 8.879 20 10.805h2c0-2.611-1.18-4.612-3.065-5.924C17.09 3.595 14.62 3 12 3v2zm-6.049 9.896C4.721 13.816 4 12.298 4 10.805H2c0 2.125 1.012 4.174 2.632 5.594l1.319-1.503zM12 17.176c-.884 0-1.74-.264-2.733-.54l-.534 1.928c.883.245 2.047.613 3.267.613v-2zm-2.733-.54c-.476-.132-.88.054-1.072.158-.218.12-.423.283-.59.425-.173.146-.362.32-.537.48-.183.165-.366.33-.556.487-.823.678-1.466.95-2.063.746l-.648 1.892c1.694.58 3.124-.387 3.983-1.095.23-.19.443-.38.629-.55.194-.176.347-.317.487-.436.145-.123.222-.176.254-.194.06-.032-.127.096-.421.015l.534-1.927zm-4.672 2.36a.822.822 0 0 1 .379.42c.048.123.046.213.046.225 0 .018 0-.036.052-.2.099-.313.283-.735.505-1.232.206-.463.447-.997.6-1.44.074-.218.15-.477.175-.729.018-.175.059-.741-.401-1.144l-1.319 1.503c-.337-.295-.26-.66-.27-.56a1.607 1.607 0 0 1-.077.281c-.117.339-.312.775-.535 1.275-.208.466-.445 1-.585 1.445-.068.214-.14.488-.145.76-.005.23.039.843.635 1.16l.94-1.765zM9 11a1 1 0 1 1-2 0 1 1 0 0 1 2 0zm4 0a1 1 0 1 1-2 0 1 1 0 0 1 2 0zm4 0a1 1 0 1 1-2 0 1 1 0 0 1 2 0z" fill="currentColor"/></svg>