<svg fill="none" height="24" width="24" xmlns="http://www.w3.org/2000/svg"><path d="M20.22 12.683l.733.68zM11.317 3.78l.68.733zm-.217-.736l-.099-.995zm.954.148l.564.826zm8.754 8.754l-.826-.564zm-.826-.564c-.15.22-.315.427-.495.621l1.466 1.36a7.33 7.33 0 0 0 .681-.854zm-.495.621A5.283 5.283 0 0 1 15.6 13.7v2a7.28 7.28 0 0 0 5.353-2.337zM15.6 13.7a5.3 5.3 0 0 1-5.3-5.3h-2a7.3 7.3 0 0 0 7.3 7.3zm-5.3-5.3c0-1.536.652-2.918 1.697-3.887l-1.36-1.466A7.283 7.283 0 0 0 8.3 8.4zm1.697-3.887a5.36 5.36 0 0 1 .62-.495l-1.126-1.652a7.334 7.334 0 0 0-.854.68zm-.798-.473c.263-.027.53-.04.801-.04V2c-.337 0-.67.017-.999.05zM4 12a8.001 8.001 0 0 1 7.199-7.96L11 2.05c-5.053.5-9 4.763-9 9.95zm8 8a8 8 0 0 1-8-8H2c0 5.523 4.477 10 10 10zm8-8a8 8 0 0 1-8 8v2c5.523 0 10-4.477 10-10zm-7.382-7.982A1.106 1.106 0 0 0 12 2v2a.895.895 0 1 1-.51-1.634zm9.016 8.491A.894.894 0 0 1 20 12h2a1.106 1.106 0 1 0-2.018-.618z" fill="currentColor"/></svg>