<svg width="24" height="24" fill="none" xmlns="http://www.w3.org/2000/svg"><path d="M21.414 21.414l-.707-.707.707.707zm-18.828 0l.707-.707-.707.707zM21.414 2.586l.707-.707-.707.707zM6 3h12V1H6v2zM3 18V6H1v12h2zm15 3H6v2h12v-2zm3-15v12h2V6h-2zm-3 17c.915 0 1.701.002 2.328-.082.655-.088 1.284-.287 1.793-.797l-1.414-1.414c-.076.076-.212.17-.646.229-.462.062-1.09.064-2.061.064v2zm3-5c0 .971-.002 1.599-.064 2.061-.059.434-.153.57-.229.646l1.414 1.414c.51-.51.709-1.138.797-1.793C23.002 19.7 23 18.915 23 18h-2zM1 18c0 .915-.002 1.701.082 2.328.088.655.287 1.284.797 1.793l1.414-1.414c-.076-.076-.17-.212-.229-.646C3.002 19.6 3 18.971 3 18H1zm5 3c-.971 0-1.599-.002-2.061-.064-.434-.059-.57-.153-.646-.229l-1.414 1.414c.51.51 1.138.709 1.793.797C4.3 23.002 5.085 23 6 23v-2zM18 3c.971 0 1.599.002 2.061.064.434.059.57.153.646.229l1.414-1.414c-.51-.51-1.138-.709-1.793-.797C19.7.998 18.915 1 18 1v2zm5 3c0-.915.002-1.701-.082-2.328-.088-.655-.287-1.284-.797-1.793l-1.414 1.414c.076.076.17.212.229.646C20.998 4.4 21 5.029 21 6h2zM6 1c-.915 0-1.701-.002-2.328.082-.655.088-1.284.287-1.793.797l1.414 1.414c.076-.076.212-.17.646-.229C4.4 3.002 5.029 3 6 3V1zM3 6c0-.971.002-1.599.064-2.061.059-.434.153-.57.229-.646L1.879 1.879c-.51.51-.709 1.138-.797 1.793C.998 4.3 1 5.085 1 6h2z" fill="currentColor"/><path d="M12 15.846L9.827 13.73c-1.335-1.3-2.003-1.951-2.83-1.951-.825 0-1.493.65-2.827 1.952L2 15.846m20-3.516l-3.145-3.056c-1.346-1.308-2.02-1.962-2.85-1.958-.831.005-1.497.666-2.83 1.99L9.677 12.78" stroke="currentColor" stroke-width="2" stroke-linecap="round" stroke-linejoin="round"/></svg>