<svg fill="none" height="24" width="24" xmlns="http://www.w3.org/2000/svg"><clipPath id="a"><path d="M0 0h24v24H0z"/></clipPath><g clip-path="url(#a)" stroke="currentColor" stroke-width="2"><path d="M3 6.513c0-.944 0-1.416.156-1.788a2 2 0 0 1 1.07-1.069c.37-.156.843-.156 1.787-.156h11.974c.944 0 1.416 0 1.788.156a2 2 0 0 1 1.069 1.07c.156.37.156.843.156 1.787v2.044a16 16 0 0 1-1.874 7.483l-.088.165c-3.024 5.596-11.052 5.596-14.076 0l-.088-.165-.029-.055A16 16 0 0 1 3 8.557z"/><path d="M8 10l2.586 2.586c.666.666 1 1 1.414 1s.748-.334 1.414-1L16 10" stroke-linecap="round"/></g></svg>