<svg fill="none" height="24" width="24" xmlns="http://www.w3.org/2000/svg"><path d="M6.747 3.665a1 1 0 0 0-1.494-1.33zM2.574 15.289a1 1 0 0 0 1.914-.578zm1.914-.578c-.812-2.695-.945-7.445 2.26-11.046l-1.495-1.33C1.429 6.633 1.64 12.192 2.573 15.29l1.915-.578z" fill="currentColor"/><path d="M11.16 12.064l-3.875 4.674a1.3 1.3 0 0 0-.208.35l-.93 2.348c-.348.876.673 1.679 1.537 1.209l2.41-1.312A1.39 1.39 0 0 0 10.5 19L20.541 7.038c.48-.579.366-1.413-.255-1.863l-.931-.675c-.62-.45-1.513-.346-1.993.233l-.757.914a.372.372 0 0 1-.499.058l-.746-.541a.744.744 0 0 0-.997.116L13 6.924" stroke="currentColor" stroke-linecap="round" stroke-width="2"/></svg>