<svg width="24" height="24" fill="none" xmlns="http://www.w3.org/2000/svg"><path d="M6.5 11.5l-.58 1.015c-1.521 2.662-2.282 3.993-1.703 4.989.578.996 2.11.996 5.176.996h.442m-3.335-7l-3.165.482M6.5 11.5l1.165 2.982m8.065-6.518l-.59-1.01c-1.544-2.648-2.316-3.972-3.468-3.97-1.152.003-1.918 1.33-3.45 3.985L8 7.352m7.73.612l1.165-2.982M15.73 7.964l-3.165-.482m1.102 10.906l1.17-.005c3.065-.014 4.598-.02 5.172-1.02.573-.998-.193-2.325-1.726-4.98l-.22-.383m-4.396 6.388l2 2.5m-2-2.5l2-2.5" stroke="currentColor" stroke-width="2" stroke-linecap="round" stroke-linejoin="round"/></svg>