<svg width="24" height="24" fill="none" xmlns="http://www.w3.org/2000/svg"><path d="M5 7.693c0-1.565 0-2.347.451-2.9.451-.552 1.218-.708 2.751-1.02l2.601-.53c.596-.12.895-.181 1.197-.181.302 0 .6.06 1.197.182l2.6.53c1.534.311 2.3.467 2.752 1.02C19 5.346 19 6.128 19 7.693v1.024c0 2.846 0 4.269-.464 5.571-.083.231-.175.458-.278.68-.582 1.255-1.58 2.27-3.573 4.3-1.18 1.2-1.77 1.8-2.497 1.87a2.01 2.01 0 0 1-.376 0c-.727-.07-1.317-.67-2.497-1.87-1.994-2.03-2.99-3.045-3.573-4.3a7.987 7.987 0 0 1-.278-.68C5 12.986 5 11.563 5 8.718V7.692z" stroke="currentColor" stroke-width="2"/></svg>