<svg width="24" height="24" fill="none" xmlns="http://www.w3.org/2000/svg"><path d="M16 4H7c-1.442 0-2.424.002-3.159.1-.706.096-1.033.263-1.255.486-.223.222-.39.55-.485 1.255C2.002 6.576 2 7.558 2 9v6c0 1.442.002 2.424.1 3.159.096.706.263 1.033.486 1.255.222.223.55.39 1.255.485C4.576 19.998 5.558 20 7 20h9c1.442 0 2.424-.002 3.159-.1.706-.096 1.033-.263 1.255-.486.223-.222.39-.55.485-1.255.099-.735.101-1.716.101-3.159V9c0-1.442-.002-2.424-.1-3.159-.096-.706-.263-1.033-.486-1.255-.222-.223-.55-.39-1.255-.485C18.424 4.002 17.443 4 16 4z" stroke="currentColor" stroke-width="2"/><path d="M9 4v16" stroke="currentColor" stroke-width="2" stroke-linecap="round" stroke-linejoin="round"/><path d="M6 10H5m1 3H5m1-6H5" stroke="currentColor" stroke-width="1.5" stroke-linecap="round" stroke-linejoin="round"/></svg>