<svg width="24" height="24" fill="none" xmlns="http://www.w3.org/2000/svg"><g clip-path="url(#clip0_489_191485)"><path transform="scale(-1 1) rotate(45 -12 -28.97)" stroke="#9B51E0" stroke-width=".1" d="M0 -0.05L33.941 -0.05"/><path stroke="#9B51E0" stroke-width=".1" d="M0.035 -0.035L24.035 23.965"/><circle r="10" transform="matrix(-1 0 0 1 12 12)" stroke="#9B51E0" stroke-width=".1"/><path transform="matrix(-1 0 0 1 21 3)" stroke="#9B51E0" stroke-width=".1" d="M0 0H18V18H0z"/><path transform="matrix(-1 0 0 1 22 4)" stroke="#9B51E0" stroke-width=".1" d="M0 0H20V16H0z"/><path transform="matrix(0 1 1 0 4 2)" stroke="#9B51E0" stroke-width=".1" d="M0 0H20V16H0z"/><mask id="a" fill="currentColor"><path d="M7.65 2.7c.215-.43.653-.7 1.132-.7h6.436c.48 0 .917.27 1.132.7.098.196.246.364.43.486l.217.146c.11.072.164.109.213.146a2 2 0 0 1 .786 1.469c.004.062.004.127.004.258v13.757a1.68 1.68 0 0 1-.929 1.502l-.138.07c-.279.139-.497.376-.613.666-.193.483-.661.8-1.182.8H8.862c-.52 0-.989-.317-1.182-.8a1.274 1.274 0 0 0-.613-.666l-.138-.07A1.68 1.68 0 0 1 6 18.962V5.205c0-.131 0-.196.004-.258a2 2 0 0 1 .786-1.47c.05-.036.104-.073.213-.145l.217-.146c.184-.122.332-.29.43-.487z"/></mask><path d="M7.22 3.186L6.111 1.522l1.11 1.664zm9.713 17.348l.895 1.788-.895-1.788zm-9.866 0l.894-1.79-.894 1.79zm10.93-15.587L16 5.07l1.996-.123zm-1-1.615l1.11-1.664-1.11 1.664zm.213.146L16 5.07l1.21-1.592zM7.003 3.332l1.109 1.664-1.11-1.664zm-.213.146L8 5.07 6.79 3.478zm.139 16.986l.894-1.788-.894 1.788zM8.782 4h6.436V0H8.782v4zm6.356 16H8.862v4h6.276v-4zM8 18.962V5.205H4v13.757h4zm8-13.757v13.757h4V5.205h-4zm-8.039 13.54l-.138-.07-1.789 3.578.139.07 1.788-3.578zm8.216-.07l-.138.07 1.788 3.577.139-.069-1.79-3.578zM8.112 4.995l.218-.145L6.11 1.522l-.218.146 2.219 3.328zm7.558-.145l.218.146 2.219-3.328-.218-.146L15.67 4.85zm-1.11-1.256c.255.508.637.941 1.11 1.256l2.219-3.328c.106.071.192.169.25.283L14.56 3.594zM8.33 4.85a3.265 3.265 0 0 0 1.11-1.256L5.86 1.805a.735.735 0 0 1 .25-.283L8.33 4.85zm7.709 13.895a3.274 3.274 0 0 0-1.576 1.712l3.714 1.485a.726.726 0 0 1-.35.38l-1.788-3.577zm-6.502 1.712a3.274 3.274 0 0 0-1.576-1.712l-1.788 3.577a.726.726 0 0 1-.35-.38l3.714-1.485zM20 5.205c0-.105 0-.244-.008-.382L16 5.07v.134h4zm-4.112-.21l.11.074c.017.012.013.01.002.001l2.42-3.185c-.11-.083-.225-.159-.313-.217l-2.219 3.328zm4.104-.172a4 4 0 0 0-1.572-2.938L16 5.07l3.992-.247zM8 5.205v-.131-.004l-3.992-.247C3.999 4.961 4 5.1 4 5.205h4zM5.893 1.668c-.088.058-.203.134-.313.217L8 5.07c-.011.009-.015.011.003-.001l.109-.073-2.219-3.328zM8 5.07L5.58 1.885a4 4 0 0 0-1.572 2.938L8 5.07zm8 13.892a.32.32 0 0 1 .177-.287l1.789 3.578A3.68 3.68 0 0 0 20 18.962h-4zm-12 0a3.68 3.68 0 0 0 2.034 3.291l1.79-3.578a.32.32 0 0 1 .176.287H4zM8.862 20c.297 0 .564.18.675.457l-3.714 1.485A3.273 3.273 0 0 0 8.863 24v-4zm6.276 4a3.273 3.273 0 0 0 3.04-2.058l-3.715-1.485a.727.727 0 0 1 .675-.457v4zm.08-20a.735.735 0 0 1-.657-.406l3.578-1.789A3.265 3.265 0 0 0 15.218 0v4zM8.782 0a3.265 3.265 0 0 0-2.92 1.805l3.577 1.789A.735.735 0 0 1 8.782 4V0z" fill="currentColor" mask="url(#a)"/><path d="M7 17.5a1 1 0 1 0 0 2v-2zm10 2a1 1 0 1 0 0-2v2zM7 4.5a1 1 0 0 0 0 2v-2zm10 2a1 1 0 1 0 0-2v2zm-10 13h10v-2H7v2zm0-13h10v-2H7v2z" fill="currentColor"/><path d="M7.5 6s2 9.5 4.5 6 5 6 5 6" stroke="currentColor" stroke-width="2" stroke-linecap="round" stroke-linejoin="round"/></g><defs><clipPath id="clip0_489_191485"><path fill="currentColor" d="M0 0H24V24H0z"/></clipPath></defs></svg>