<svg fill="none" height="24" width="24" xmlns="http://www.w3.org/2000/svg"><path d="M10.293 12.293a1 1 0 1 0 1.414 1.414zm8.414-5.586L19.414 6 18 4.586l-.707.707zm.586-3.414L18.586 4 20 5.414l.707-.707zm2.414.414a1 1 0 0 0-1.414-1.414zm-10 10l7-7-1.414-1.414-7 7zm9-9l1-1-1.414-1.414-1 1z" fill="currentColor"/><path d="M10 7H7c-1.886 0-2.828 0-3.414.586S3 9.114 3 11v6c0 1.886 0 2.828.586 3.414S5.114 21 7 21h6c1.886 0 2.828 0 3.414-.586S17 18.886 17 17v-3" stroke="currentColor" stroke-linecap="round" stroke-width="2"/></svg>