<svg fill="none" height="24" width="24" xmlns="http://www.w3.org/2000/svg"><g fill="currentColor"><path d="M20.414 18.414l-.707-.707zm-16.828 0l-.707.707zM20.414 5.586l.707-.707zM7 6h10V4H7zm-3 9V9H2v6zm13 3H7v2h10zm3-9v6h2V9zm-3 11c.915 0 1.701.002 2.328-.082.655-.088 1.284-.287 1.793-.797l-1.414-1.414c-.076.076-.212.17-.646.229-.462.062-1.09.064-2.061.064zm3-5c0 .971-.002 1.599-.064 2.061-.059.434-.153.57-.229.646l1.414 1.414c.51-.51.709-1.138.797-1.793C22.002 16.7 22 15.915 22 15zM2 15c0 .915-.002 1.701.082 2.328.088.655.287 1.284.797 1.793l1.414-1.414c-.076-.076-.17-.212-.229-.646C4.002 16.6 4 15.971 4 15zm5 3c-.971 0-1.599-.002-2.061-.064-.434-.059-.57-.153-.646-.229l-1.414 1.414c.51.51 1.138.709 1.793.797C5.3 20.002 6.085 20 7 20zM17 6c.971 0 1.599.002 2.061.064.434.059.57.153.646.229l1.414-1.414c-.51-.51-1.138-.709-1.793-.797C18.7 3.998 17.915 4 17 4zm5 3c0-.915.002-1.701-.082-2.328-.088-.655-.287-1.284-.797-1.793l-1.414 1.414c.076.076.17.212.229.646C19.998 7.4 20 8.029 20 9zM7 4c-.915 0-1.701-.002-2.328.082-.655.088-1.284.287-1.793.797l1.414 1.414c.076-.076.212-.17.646-.229C5.4 6.002 6.029 6 7 6zM4 9c0-.971.002-1.599.064-2.061.059-.434.153-.57.229-.646L2.879 4.879c-.51.51-.709 1.138-.797 1.793C1.998 7.3 2 8.085 2 9z"/><path d="M12.27 5a.5.5 0 1 0-1 0zm-1 14a.5.5 0 0 0 1 0zM21 14.5a.5.5 0 0 0 0-1zm-18-1a.5.5 0 0 0 0 1zm18-3a.5.5 0 0 0 0-1zm-18-1a.5.5 0 0 0 0 1zM11.27 5v14h1V5zM21 13.5H3v1h18zm0-4H3v1h18z"/></g></svg>