<svg fill="none" height="24" width="24" xmlns="http://www.w3.org/2000/svg"><path d="M3.947 18.106l-.894-.448zm-.68 2.42L4.118 20l-.85.526zm17.466 0l.85.526zM10.21 5.578l-.894-.448zM12 3.236v-1zM4.842 18.553l6.264-12.528-1.79-.895-6.263 12.528zm8.052-12.528l6.264 12.528 1.79-.895L14.682 5.13l-1.789.895zM18.264 20H5.736v2h12.528zM3.053 17.658c-.31.62-.595 1.184-.75 1.655-.158.485-.265 1.126.114 1.739L4.118 20c.086.138-.006.218.087-.065.096-.296.297-.704.637-1.382l-1.79-.895zM5.736 20c-.759 0-1.213-.003-1.521-.048-.294-.044-.182-.09-.097.048l-1.701 1.052c.378.612 1 .803 1.504.878.49.073 1.123.07 1.815.07zm13.422-1.447c.34.678.54 1.086.637 1.382.093.283.002.203.087.065l1.701 1.052c.379-.613.272-1.254.113-1.739-.154-.47-.44-1.036-.749-1.655zM18.264 22c.692 0 1.325.003 1.815-.07.505-.075 1.126-.266 1.504-.878L19.882 20c.085-.138.197-.092-.097-.048-.308.045-.762.048-1.521.048zM11.106 6.025c.405-.811.66-1.316.88-1.631.225-.322.216-.158.014-.158v-2c-.82 0-1.333.554-1.653 1.013-.325.465-.655 1.131-1.03 1.881zm3.577-.895c-.375-.75-.705-1.416-1.03-1.88-.32-.46-.833-1.014-1.653-1.014v2c-.202 0-.211-.164.014.158.22.315.475.82.88 1.63l1.79-.894z" fill="currentColor"/></svg>