<svg width="24" height="24" fill="none" xmlns="http://www.w3.org/2000/svg"><path fill-rule="evenodd" clip-rule="evenodd" d="M8.934 1h6.132c.886 0 1.65 0 2.262.082.655.088 1.284.287 1.793.797.51.51.709 1.137.797 1.793.082.611.082 1.375.082 2.26v8.503a1 1 0 0 1-2 0V6c0-.971-.002-1.598-.064-2.06-.059-.434-.153-.57-.229-.646-.076-.076-.212-.17-.646-.229C16.6 3.002 15.971 3 15 3H9c-.971 0-1.599.002-2.061.064-.434.059-.57.153-.646.229-.076.076-.17.212-.229.646C6.002 4.4 6 5.029 6 6v14H4V6v-.066c0-.886 0-1.65.082-2.262.088-.655.287-1.284.797-1.793.51-.51 1.138-.709 1.793-.797C7.284 1 8.048 1 8.934 1z" fill="#fff"/><path fill-rule="evenodd" clip-rule="evenodd" d="M17.061 3.064C16.6 3.002 15.971 3 15 3h-5v14h5c.971 0 1.599-.002 2.061-.064.434-.059.57-.153.646-.229.076-.076.17-.212.229-.646.062-.462.064-1.09.064-2.06V5.998c0-.97-.002-1.598-.064-2.06-.059-.434-.153-.57-.229-.646-.076-.076-.212-.17-.646-.229zm.267-1.982c.655.088 1.284.287 1.793.797.51.51.709 1.137.797 1.793C20 4.283 20 5.047 20 5.933v8.133c0 .887 0 1.65-.082 2.262-.088.655-.287 1.284-.797 1.793-.51.51-1.138.709-1.793.797-.612.082-1.376.082-2.262.082H8V1h7.066c.886 0 1.65 0 2.262.082z" fill="#fff"/><path fill-rule="evenodd" clip-rule="evenodd" d="M20 16.421c0 .22 0 .418-.008.58a2.147 2.147 0 0 1-.1.6c-.026.078-.076.23-.162.376-.087.145-.196.262-.253.322l-.013.014a1.79 1.79 0 0 1-.308.256c-.091.062-.196.125-.307.19-.22.127-.519.29-.893.496l-.015.008a.889.889 0 0 0-.322.275c-.06.089-.119.226-.119.462 0 .272.078.42.159.516.095.115.248.22.462.306a2.65 2.65 0 0 0 .829.176l.049.002h.006A1 1 0 0 1 19 23H7a3 3 0 0 1 0-6h8.918v1.484c.279-.44.667-.759 1.064-.976.392-.215.668-.366.86-.478.066-.038.115-.067.15-.09.002-.01.002-.02.003-.032.005-.11.005-.26.005-.508V14h2v2.421zM15.666 19H7a1 1 0 1 0 0 2h8.667a2.946 2.946 0 0 1-.167-1c0-.375.06-.707.166-1z" fill="#fff"/></svg>