<svg width="24" height="24" fill="none" xmlns="http://www.w3.org/2000/svg"><path fill-rule="evenodd" clip-rule="evenodd" d="M19.061 4.064C18.6 4.002 17.971 4 17 4H7c-.971 0-1.599.002-2.061.064-.434.059-.57.153-.646.229-.076.076-.17.212-.229.646C4.002 5.4 4 6.029 4 7v6c0 .971.002 1.599.064 2.061.059.434.153.57.229.646.076.076.212.17.646.229C5.4 15.998 6.029 16 7 16h.5a1 1 0 1 1 0 2h-.566c-.886 0-1.65 0-2.262-.082-.655-.088-1.284-.287-1.793-.797-.51-.51-.709-1.138-.797-1.793C2 14.716 2 13.952 2 13.066V7v-.066c0-.886 0-1.65.082-2.262.088-.655.287-1.284.797-1.793.51-.51 1.138-.709 1.793-.797C5.284 2 6.048 2 6.934 2H17.066c.886 0 1.65 0 2.262.082.655.088 1.284.287 1.793.797.51.51.709 1.138.797 1.793C22 5.284 22 6.048 22 6.934v6.132c0 .886 0 1.65-.082 2.262-.088.655-.287 1.284-.797 1.793-.51.51-1.138.709-1.793.797-.612.082-1.376.082-2.262.082H16.5a1 1 0 1 1 0-2h.5c.971 0 1.599-.002 2.061-.064.434-.059.57-.153.646-.229.076-.076.17-.212.229-.646.062-.462.064-1.09.064-2.061V7c0-.971-.002-1.599-.064-2.061-.059-.434-.153-.57-.229-.646-.076-.076-.212-.17-.646-.229z" fill="#fff"/><path fill-rule="evenodd" clip-rule="evenodd" d="M11.66 15.773c.225-.039.455-.039.68 0 .532.091.899.413 1.16.704.245.273.504.642.781 1.038l.031.044.035.05c.364.52.69.984.898 1.379.212.398.436.956.253 1.577a2 2 0 0 1-.356.683c-.404.506-.99.642-1.437.697-.442.055-1.01.055-1.644.055h-.121c-.635 0-1.202 0-1.645-.055-.447-.055-1.033-.191-1.437-.697a2 2 0 0 1-.356-.683c-.183-.621.041-1.18.253-1.577.209-.395.534-.86.898-1.38l.035-.049.031-.044c.277-.396.536-.765.78-1.038.262-.29.63-.613 1.161-.704zm.326 2.042c-.152.17-.34.435-.66.891-.41.585-.66.948-.805 1.22l-.016.03.034.005c.306.037.747.039 1.461.039.714 0 1.155-.002 1.46-.04a2.81 2.81 0 0 0 .035-.004l-.016-.03c-.144-.272-.396-.635-.805-1.22-.32-.456-.508-.721-.66-.891L12 17.8l-.014.015zm1.581 2.313v-.002zm-3.134 0v-.002z" fill="#fff"/></svg>