<svg width="24" height="24" fill="none" xmlns="http://www.w3.org/2000/svg"><path fill-rule="evenodd" clip-rule="evenodd" d="M12 3a9 9 0 1 0 0 18 9 9 0 0 0 0-18zM1 12C1 5.925 5.925 1 12 1s11 4.925 11 11-4.925 11-11 11S1 18.075 1 12z" fill="#fff"/><path fill-rule="evenodd" clip-rule="evenodd" d="M3.707 1.293a1 1 0 0 1 0 1.414l-1 1a1 1 0 0 1-1.414-1.414l1-1a1 1 0 0 1 1.414 0zm16.586 0a1 1 0 0 1 1.414 0l1 1a1 1 0 0 1-1.414 1.414l-1-1a1 1 0 0 1 0-1.414zm-15.086 17.5a1 1 0 0 1 0 1.414l-2.5 2.5a1 1 0 0 1-1.414-1.414l2.5-2.5a1 1 0 0 1 1.414 0zm13.586 0a1 1 0 0 1 1.414 0l2.5 2.5a1 1 0 0 1-1.414 1.414l-2.5-2.5a1 1 0 0 1 0-1.414zM12 11a1 1 0 0 1 1 1v4a1 1 0 1 1-2 0v-4a1 1 0 0 1 1-1z" fill="#fff"/><path fill-rule="evenodd" clip-rule="evenodd" d="M11.293 12.707a1 1 0 0 1 0-1.414l2.828-2.829a1 1 0 1 1 1.415 1.415l-2.829 2.828a1 1 0 0 1-1.414 0z" fill="#fff"/></svg>