<svg width="24" height="24" viewBox="0 0 24 24" fill="none" xmlns="http://www.w3.org/2000/svg">
<g clip-path="url(#clip0_878_22849)">
<path fill-rule="evenodd" clip-rule="evenodd" d="M16 5.63598C16 5.08369 15.5523 4.63598 15 4.63598L5.63606 4.63603C5.08377 4.63603 4.63606 5.08375 4.63606 5.63603L4.63606 15C4.63606 15.5523 5.08378 16 5.63606 16C6.18835 16 6.63606 15.5523 6.63606 15L6.63606 8.05025L17.6569 19.0711C18.0474 19.4616 18.6806 19.4616 19.0711 19.0711C19.4616 18.6805 19.4616 18.0474 19.0711 17.6568L8.05026 6.63602L15 6.63598C15.5523 6.63598 16 6.18826 16 5.63598Z" fill="white"/>
</g>
<defs>
<clipPath id="clip0_878_22849">
<rect width="24" height="24" fill="white" transform="matrix(1 0 0 -1 0 24)"/>
</clipPath>
</defs>
</svg>
