<svg width="24" height="24" fill="none" xmlns="http://www.w3.org/2000/svg"><path fill-rule="evenodd" clip-rule="evenodd" d="M16.113 2.306a1 1 0 0 1 1.415-.026l2.666 2.572a1 1 0 0 1 0 1.44l-2.666 2.57a1 1 0 0 1-1.389-1.439l.883-.852H12.5c-3.935 0-7 2.678-7 6.715 0 4.036 3.065 6.714 7 6.714 3.795 0 6.378-2.932 6.378-6.714a1 1 0 1 1 2 0c0 4.738-3.336 8.714-8.378 8.714-4.901 0-9-3.44-9-8.714 0-5.275 4.099-8.715 9-8.715h4.522l-.883-.851a1 1 0 0 1-.026-1.414z" fill="#fff"/><path fill-rule="evenodd" clip-rule="evenodd" d="M10.056 10.034a.5.5 0 0 1 .319.466v6a.5.5 0 1 1-1 0v-4.715l-.506.553a.5.5 0 0 1-.738-.676l1.375-1.5a.5.5 0 0 1 .55-.128zm2.084.368a.5.5 0 0 1 .49-.402h3.245a.5.5 0 0 1 0 1h-2.834l-.333 1.67c.33-.116.722-.17 1.292-.17.662 0 1.29.134 1.744.582.455.448.631 1.108.631 1.918 0 .453-.104.833-.302 1.139a1.72 1.72 0 0 1-.736.627c-.507.235-1.067.234-1.319.234h-.032c-.251 0-.808 0-1.313-.144-.259-.074-.547-.198-.776-.415a1.263 1.263 0 0 1-.397-.941.5.5 0 0 1 1 0c0 .108.034.166.086.216a.885.885 0 0 0 .362.178c.36.103.792.106 1.052.106.263 0 .625-.006.917-.141a.722.722 0 0 0 .316-.263c.075-.116.142-.299.142-.596 0-.69-.153-1.03-.333-1.207-.18-.177-.489-.293-1.042-.293-.574 0-.842.063-1.025.14-.095.04-.183.09-.295.162l-.108.071c-.089.059-.195.13-.306.197a.5.5 0 0 1-.751-.524l.625-3.143z" fill="#fff"/></svg>