<svg width="24" height="24" fill="none" xmlns="http://www.w3.org/2000/svg"><path fill-rule="evenodd" clip-rule="evenodd" d="M19.877 11.382c-.284-.371-.726-.817-1.412-1.503L17.05 8.465c-.925-.925-1.203-1.178-1.527-1.313-.325-.134-.7-.152-2.008-.152H4.273l1.529 1.667c.552.603 1.03 1.124 1.362 1.596.356.507.623 1.062.623 1.737s-.267 1.23-.623 1.737c-.332.472-.81.993-1.362 1.596L4.273 17h9.242c1.308 0 1.683-.018 2.008-.152.325-.135.602-.388 1.527-1.312l1.415-1.415c.686-.686 1.128-1.132 1.412-1.503.265-.348.295-.51.295-.618 0-.108-.03-.27-.296-.618zm1.59-1.213c.4.525.705 1.11.705 1.831 0 .72-.304 1.306-.705 1.832-.375.49-.915 1.03-1.542 1.657l-1.46 1.46-.12.121c-.75.75-1.318 1.32-2.057 1.626-.739.306-1.543.305-2.603.304H4.21c-.433 0-.86 0-1.193-.047-.321-.046-.965-.19-1.254-.849-.29-.659.038-1.23.221-1.498.19-.277.48-.592.772-.911l.042-.046 1.486-1.622c.607-.661.995-1.088 1.243-1.44.231-.33.259-.484.259-.587 0-.103-.028-.257-.26-.587-.247-.352-.635-.779-1.242-1.44L2.8 8.35l-.042-.046c-.293-.318-.582-.634-.772-.911-.183-.268-.511-.84-.221-1.498.29-.659.933-.802 1.254-.848C3.35 5 3.778 5 4.21 5h9.474c1.06 0 1.864-.002 2.603.305.739.306 1.308.875 2.056 1.625l.12.12 1.415 1.415.046.046c.627.627 1.167 1.167 1.542 1.658z" fill="#fff"/></svg>