<svg width="24" height="24" fill="none" xmlns="http://www.w3.org/2000/svg"><path fill-rule="evenodd" clip-rule="evenodd" d="M12.618 19.877c.371-.284.817-.726 1.503-1.412l1.415-1.415c.924-.925 1.177-1.202 1.312-1.527.134-.325.152-.7.152-2.008v-9.1l-1.511 1.51c-.627.627-1.167 1.167-1.658 1.542-.525.4-1.11.705-1.831.705-.72 0-1.306-.304-1.832-.705-.49-.375-1.03-.915-1.657-1.542L7 4.415v9.1c0 1.308.018 1.683.152 2.008.135.325.388.602 1.312 1.527l1.415 1.415c.686.686 1.132 1.128 1.503 1.412.348.265.51.295.618.295.108 0 .27-.03.618-.295zm1.213 1.59c-.525.4-1.11.705-1.831.705-.72 0-1.306-.304-1.832-.705-.49-.375-1.03-.915-1.657-1.542l-1.46-1.46-.121-.12c-.75-.75-1.32-1.318-1.626-2.057C4.998 15.55 5 14.745 5 13.685v-9.27-.064c0-.458 0-.905.048-1.249.046-.32.19-.995.878-1.28.689-.286 1.267.09 1.526.285.278.209.593.524.917.848L8.414 3 9.88 4.465c.686.686 1.132 1.129 1.503 1.412.348.265.51.295.618.295.108 0 .27-.03.618-.295.371-.283.817-.726 1.503-1.412L15.586 3l.045-.045c.323-.324.639-.64.917-.848.259-.195.837-.571 1.526-.286.689.286.832.96.877 1.281.05.344.05.79.049 1.249v9.333c0 1.06.002 1.865-.305 2.604-.306.739-.875 1.308-1.625 2.056l-.12.12-1.414 1.415-.047.046c-.627.627-1.167 1.167-1.658 1.542z" fill="#fff"/></svg>