<svg width="24" height="24" viewBox="0 0 24 24" fill="none" xmlns="http://www.w3.org/2000/svg">
<g clip-path="url(#clip0_878_23133)">
<path fill-rule="evenodd" clip-rule="evenodd" d="M16 18.364C16 18.9163 15.5523 19.364 15 19.364L5.63606 19.364C5.08377 19.364 4.63606 18.9163 4.63606 18.364L4.63606 8.99998C4.63606 8.44769 5.08378 7.99998 5.63606 7.99998C6.18835 7.99998 6.63606 8.44769 6.63606 8.99998L6.63606 15.9498L17.6569 4.92894C18.0474 4.53841 18.6806 4.53842 19.0711 4.92894C19.4616 5.31946 19.4616 5.95263 19.0711 6.34315L8.05026 17.364L15 17.364C15.5523 17.364 16 17.8117 16 18.364Z" fill="white"/>
</g>
<defs>
<clipPath id="clip0_878_23133">
<rect width="24" height="24" fill="white"/>
</clipPath>
</defs>
</svg>
