<svg width="24" height="24" viewBox="0 0 24 24" fill="none" xmlns="http://www.w3.org/2000/svg">
<g clip-path="url(#clip0_878_22985)">
<path fill-rule="evenodd" clip-rule="evenodd" d="M7.99997 18.364C7.99997 18.9163 8.44769 19.364 8.99998 19.364L18.3639 19.364C18.9162 19.364 19.3639 18.9163 19.3639 18.364L19.3639 8.99998C19.3639 8.44769 18.9162 7.99998 18.3639 7.99998C17.8117 7.99998 17.3639 8.44769 17.3639 8.99998L17.3639 15.9498L6.34312 4.92894C5.9526 4.53841 5.31943 4.53842 4.92891 4.92894C4.53839 5.31946 4.53839 5.95263 4.92891 6.34315L15.9497 17.364L8.99997 17.364C8.44768 17.364 7.99997 17.8117 7.99997 18.364Z" fill="white"/>
</g>
<defs>
<clipPath id="clip0_878_22985">
<rect width="24" height="24" fill="white" transform="matrix(-1 0 0 1 24 0)"/>
</clipPath>
</defs>
</svg>
