<svg width="24" height="24" fill="none" xmlns="http://www.w3.org/2000/svg"><path fill-rule="evenodd" clip-rule="evenodd" d="M16.113 2.306a1 1 0 0 1 1.415-.026l2.666 2.572a1 1 0 0 1 0 1.44l-2.666 2.57a1 1 0 0 1-1.389-1.439l.883-.852H12.5c-3.935 0-7 2.678-7 6.715 0 4.036 3.065 6.714 7 6.714 3.795 0 6.378-2.932 6.378-6.714a1 1 0 1 1 2 0c0 4.738-3.336 8.714-8.378 8.714-4.901 0-9-3.44-9-8.714 0-5.275 4.099-8.715 9-8.715h4.522l-.883-.851a1 1 0 0 1-.026-1.414z" fill="#fff"/><path fill-rule="evenodd" clip-rule="evenodd" d="M14.315 11.372c-.187.343-.315.984-.315 2.128 0 1.144.128 1.785.315 2.128a.66.66 0 0 0 .265.288c.095.05.226.084.42.084a.775.775 0 0 0 .403-.092.758.758 0 0 0 .28-.32c.19-.363.317-1.01.317-2.088s-.127-1.725-.318-2.089a.758.758 0 0 0-.28-.32A.775.775 0 0 0 15 11a.872.872 0 0 0-.42.084.66.66 0 0 0-.265.288zm-.208-1.169c.28-.15.587-.203.893-.203.318 0 .63.065.91.23.281.165.497.411.658.717.309.589.432 1.441.432 2.553 0 1.112-.123 1.964-.432 2.553-.16.306-.377.552-.658.717-.28.165-.592.23-.91.23a1.86 1.86 0 0 1-.893-.203 1.656 1.656 0 0 1-.672-.692C13.122 15.526 13 14.666 13 13.5s.122-2.026.435-2.605c.165-.303.387-.538.672-.692zm-3.725 1.106c-.415-.046-.803.151-.935.415a.5.5 0 1 1-.894-.448c.368-.736 1.23-1.04 1.94-.96.37.04.75.188 1.04.479.298.298.467.71.467 1.205 0 .642-.267 1.13-.651 1.46.405.333.651.844.651 1.54 0 .931-.48 1.636-1.2 1.906-.706.265-1.533.068-2.154-.552a.5.5 0 0 1 .708-.708c.38.38.802.433 1.095.323.28-.105.551-.4.551-.969 0-.453-.151-.664-.303-.78-.17-.132-.414-.2-.687-.219a3.843 3.843 0 0 1-.495.015l-.01-.001h-.006l.032-.5-.075-.493h.002l.004-.001.011-.002a2.132 2.132 0 0 1 .155-.015c.09-.006.212-.01.354-.005.252-.032.511-.128.7-.285.184-.152.318-.371.318-.714 0-.256-.081-.405-.174-.498a.734.734 0 0 0-.444-.193zm-.85 2.207l-.076-.494a.5.5 0 0 0 .042.993l.033-.5zm.031-.5z" fill="#fff"/></svg>