<svg width="24" height="24" fill="none" xmlns="http://www.w3.org/2000/svg"><path fill-rule="evenodd" clip-rule="evenodd" d="M7.886 2.306a1 1 0 0 0-1.413-.026L3.806 4.852a1 1 0 0 0 0 1.44l2.667 2.57A1 1 0 1 0 7.86 7.424l-.883-.852H11.5c3.935 0 7 2.678 7 6.715 0 4.036-3.065 6.714-7 6.714-3.795 0-6.378-2.932-6.378-6.714a1 1 0 1 0-2 0C3.122 18.024 6.458 22 11.5 22c4.901 0 9-3.44 9-8.714 0-5.275-4.099-8.715-9-8.715H6.978l.883-.851a1 1 0 0 0 .026-1.414z" fill="#fff"/><path fill-rule="evenodd" clip-rule="evenodd" d="M13.815 11.372c-.187.343-.315.984-.315 2.128 0 1.144.128 1.785.315 2.128a.66.66 0 0 0 .265.288c.095.05.226.084.42.084a.775.775 0 0 0 .403-.092.758.758 0 0 0 .28-.32c.19-.363.317-1.01.317-2.088s-.127-1.725-.318-2.089a.758.758 0 0 0-.28-.32A.775.775 0 0 0 14.5 11a.873.873 0 0 0-.42.084.66.66 0 0 0-.265.288zm-.208-1.169c.28-.15.587-.203.893-.203.318 0 .63.065.91.23.281.165.497.411.658.717.309.589.432 1.441.432 2.553 0 1.112-.123 1.964-.432 2.553-.16.306-.377.552-.658.717-.28.165-.592.23-.91.23a1.86 1.86 0 0 1-.893-.203 1.656 1.656 0 0 1-.672-.692c-.313-.579-.435-1.439-.435-2.605s.122-2.026.435-2.605c.165-.303.387-.538.672-.692zm-2.952 3.492L8.98 16H11a.5.5 0 1 1 0 1H8a.5.5 0 0 1-.405-.794l2.25-3.099c.517-.712.577-1.195.515-1.473-.06-.268-.26-.467-.554-.569a1.174 1.174 0 0 0-.903.054c-.227.12-.403.34-.403.732a.5.5 0 1 1-1 0c0-.77.387-1.325.933-1.615.52-.277 1.158-.302 1.699-.116.549.189 1.053.619 1.204 1.296.148.665-.073 1.44-.681 2.279z" fill="#fff"/></svg>