<svg width="24" height="24" fill="none" xmlns="http://www.w3.org/2000/svg"><path fill-rule="evenodd" clip-rule="evenodd" d="M4.123 12.618c.284.371.726.817 1.413 1.503l1.414 1.415c.925.924 1.202 1.177 1.527 1.312.325.134.7.152 2.008.152h9.242l-1.529-1.667c-.552-.603-1.03-1.124-1.362-1.596-.356-.507-.623-1.062-.623-1.737s.267-1.23.623-1.737c.332-.472.81-.993 1.362-1.596L19.727 7h-9.242c-1.308 0-1.683.018-2.008.152-.325.135-.602.388-1.527 1.312L5.536 9.88c-.687.686-1.13 1.132-1.413 1.503-.265.348-.295.51-.295.618 0 .108.03.27.295.618zm-1.59 1.213c-.4-.525-.705-1.11-.705-1.831 0-.72.304-1.306.705-1.832.375-.49.915-1.03 1.542-1.657l1.46-1.46.12-.121c.75-.75 1.318-1.32 2.057-1.626C8.45 4.998 9.256 5 10.315 5h9.474c.433 0 .86 0 1.193.047.321.046.965.19 1.254.849.29.659-.038 1.23-.221 1.498-.19.277-.48.592-.772.911l-.042.046-1.486 1.622c-.607.661-.995 1.088-1.243 1.44-.232.33-.259.484-.259.587 0 .103.027.257.26.587.247.352.635.779 1.242 1.44L21.2 15.65l.042.046c.293.319.582.634.772.911.183.268.511.84.221 1.498-.29.659-.933.802-1.254.849-.332.047-.76.047-1.193.047h-9.474c-1.06 0-1.864.002-2.603-.305-.739-.306-1.308-.875-2.056-1.625l-.12-.12-1.415-1.414-.046-.047c-.627-.627-1.167-1.167-1.542-1.658z" fill="#fff"/></svg>