<svg width="24" height="24" fill="none" xmlns="http://www.w3.org/2000/svg"><path fill-rule="evenodd" clip-rule="evenodd" d="M11.382 4.123c-.371.283-.817.726-1.503 1.412L8.464 6.95c-.924.924-1.177 1.202-1.312 1.527-.134.325-.152.7-.152 2.008v9.1l1.511-1.51c.627-.627 1.167-1.167 1.658-1.542.525-.4 1.11-.705 1.831-.705.72 0 1.306.304 1.831.705.491.375 1.031.915 1.658 1.542L17 19.585v-9.1c0-1.308-.018-1.683-.152-2.008-.135-.325-.388-.603-1.312-1.527L14.12 5.535c-.686-.686-1.132-1.129-1.503-1.412-.348-.265-.51-.295-.618-.295-.108 0-.27.03-.618.295zm-1.213-1.59c.525-.4 1.11-.705 1.831-.705.72 0 1.306.304 1.831.705.491.375 1.031.915 1.658 1.542l1.46 1.46.121.12c.75.75 1.32 1.318 1.625 2.057.306.739.306 1.543.305 2.603v9.334c0 .458 0 .905-.048 1.249-.046.32-.19.995-.878 1.28-.689.286-1.267-.09-1.526-.285-.278-.209-.593-.524-.917-.848a9.546 9.546 0 0 1-.045-.045l-1.465-1.465c-.686-.686-1.132-1.128-1.503-1.412-.348-.265-.51-.295-.618-.295-.108 0-.27.03-.618.295-.371.284-.817.726-1.503 1.412L8.414 21l-.045.045c-.324.324-.639.64-.917.848-.259.195-.837.57-1.526.286-.689-.286-.832-.96-.878-1.281C5 20.554 5 20.108 5 19.649v-9.163-.17c0-1.06-.002-1.865.304-2.604.307-.739.876-1.308 1.626-2.056l.12-.12L8.464 4.12l.047-.046c.627-.627 1.167-1.167 1.658-1.542z" fill="#fff"/></svg>