<svg width="24" height="24" fill="none" xmlns="http://www.w3.org/2000/svg"><path fill-rule="evenodd" clip-rule="evenodd" d="M11.401 4.027c-.36.261-.793.67-1.464 1.305L5.01 10h13.98l-4.927-4.668c-.671-.636-1.105-1.044-1.464-1.305-.337-.244-.494-.272-.599-.272-.105 0-.262.028-.599.272zM18.5 12h-3v8h3v-8zm2 8h.5a1 1 0 1 1 0 2H3a1 1 0 1 1 0-2h.5v-8.076c-.353-.071-.897-.263-1.139-.869-.282-.708.125-1.29.327-1.543.222-.278.554-.593.9-.92l.046-.044L8.561 3.88l.046-.044c.612-.58 1.141-1.08 1.62-1.428.514-.373 1.081-.653 1.773-.653s1.259.28 1.773.653c.479.348 1.008.849 1.62 1.428l4.973 4.712.047.044c.345.327.677.642.899.92.202.253.609.835.327 1.543-.242.606-.786.798-1.139.869V20zm-15-8v8h3v-8h-3zm5 0v8h3v-8h-3z" fill="#fff"/></svg>