<svg width="24" height="24" fill="none" xmlns="http://www.w3.org/2000/svg"><path fill-rule="evenodd" clip-rule="evenodd" d="M12 4a8 8 0 1 0 0 16 8 8 0 0 0 0-16zM2 12C2 6.477 6.477 2 12 2s10 4.477 10 10-4.477 10-10 10S2 17.523 2 12z" fill="#fff"/><path fill-rule="evenodd" clip-rule="evenodd" d="M5.227 19.239a1 1 0 0 1 .042-1.414A7.975 7.975 0 0 0 7.786 12a7.975 7.975 0 0 0-2.517-5.825 1 1 0 0 1 1.372-1.456A9.975 9.975 0 0 1 9.786 12c0 2.87-1.21 5.459-3.145 7.281a1 1 0 0 1-1.414-.042zM18.773 4.76a1 1 0 0 1-.042 1.414A7.975 7.975 0 0 0 16.214 12c0 2.296.966 4.365 2.517 5.825a1 1 0 0 1-1.372 1.456A9.975 9.975 0 0 1 14.214 12c0-2.87 1.21-5.459 3.145-7.28a1 1 0 0 1 1.414.041z" fill="#fff"/><path fill-rule="evenodd" clip-rule="evenodd" d="M2 12a1 1 0 0 1 1-1h18a1 1 0 1 1 0 2H3a1 1 0 0 1-1-1z" fill="#fff"/><path fill-rule="evenodd" clip-rule="evenodd" d="M12 2a1 1 0 0 1 1 1v17.357a1 1 0 1 1-2 0V3a1 1 0 0 1 1-1z" fill="#fff"/></svg>