<svg width="24" height="24" fill="none" xmlns="http://www.w3.org/2000/svg"><g clip-path="url(#clip0_878_25533)"><g clip-path="url(#clip1_878_25533)" stroke="#fff" stroke-width="2" stroke-linecap="round" stroke-linejoin="round"><path d="M11 21c-1.886 0-2.828 0-3.414-.586C7 19.828 7 18.886 7 17V9c0-1.886 0-2.828.586-3.414C8.172 5 9.114 5 11 5h2c1.886 0 2.828 0 3.414.586C17 6.172 17 7.114 17 9v8c0 1.886 0 2.828-.586 3.414C15.828 21 14.886 21 13 21h-2z"/><path d="M12.5 5h-1a1 1 0 1 1 0-2h1a1 1 0 1 1 0 2z" fill="#fff"/><path d="M10 17.5h4m-4-9h4M10 13h4"/></g></g><defs><clipPath id="clip0_878_25533"><path fill="#fff" d="M0 0H24V24H0z"/></clipPath><clipPath id="clip1_878_25533"><path fill="#fff" transform="rotate(-90 12 12)" d="M0 0H24V24H0z"/></clipPath></defs></svg>