<svg width="24" height="24" viewBox="0 0 24 24" fill="none" xmlns="http://www.w3.org/2000/svg">
<path d="M3 11C3 9.11438 3 8.17157 3.58579 7.58579C4.17157 7 5.11438 7 7 7H15C16.8856 7 17.8284 7 18.4142 7.58579C19 8.17157 19 9.11438 19 11V13C19 14.8856 19 15.8284 18.4142 16.4142C17.8284 17 16.8856 17 15 17H7C5.11438 17 4.17157 17 3.58579 16.4142C3 15.8284 3 14.8856 3 13V11Z" stroke="white" stroke-width="2" stroke-linecap="round" stroke-linejoin="round"/>
<path d="M19 12.5V11.5C19 10.9477 19.4477 10.5 20 10.5C20.5523 10.5 21 10.9477 21 11.5V12.5C21 13.0523 20.5523 13.5 20 13.5C19.4477 13.5 19 13.0523 19 12.5Z" fill="white" stroke="white" stroke-width="2" stroke-linecap="round" stroke-linejoin="round"/>
<path fill-rule="evenodd" clip-rule="evenodd" d="M6.5 9C7.05228 9 7.5 9.44772 7.5 10V14C7.5 14.5523 7.05228 15 6.5 15C5.94772 15 5.5 14.5523 5.5 14V10C5.5 9.44772 5.94772 9 6.5 9ZM11 9C11.5523 9 12 9.44772 12 10V14C12 14.5523 11.5523 15 11 15C10.4477 15 10 14.5523 10 14V10C10 9.44772 10.4477 9 11 9ZM15.5 9C16.0523 9 16.5 9.44772 16.5 10V14C16.5 14.5523 16.0523 15 15.5 15C14.9477 15 14.5 14.5523 14.5 14V10C14.5 9.44772 14.9477 9 15.5 9Z" fill="white"/>
</svg>
