<svg width="24" height="24" fill="none" xmlns="http://www.w3.org/2000/svg"><path fill-rule="evenodd" clip-rule="evenodd" d="M6.934 6H15.066c.886 0 1.65 0 2.262.082.655.088 1.284.287 1.793.797.51.51.709 1.138.797 1.793.082.612.082 1.376.082 2.262v2.132c0 .886 0 1.65-.082 2.262-.088.655-.287 1.284-.797 1.793-.51.51-1.138.709-1.793.797-.612.082-1.376.082-2.262.082H6.934c-.886 0-1.65 0-2.262-.082-.655-.088-1.284-.287-1.793-.797-.51-.51-.709-1.138-.797-1.793C2 14.716 2 13.952 2 13.066V11v-.066c0-.886 0-1.65.082-2.262.088-.655.287-1.284.797-1.793.51-.51 1.138-.709 1.793-.797C5.284 6 6.048 6 6.934 6zM4.94 8.064c-.434.059-.57.153-.646.229-.076.076-.17.212-.229.646C4.002 9.4 4 10.029 4 11v2c0 .971.002 1.599.064 2.061.059.434.153.57.229.646.076.076.212.17.646.229C5.4 15.998 6.029 16 7 16h8c.971 0 1.599-.002 2.061-.064.434-.059.57-.153.646-.229.076-.076.17-.212.229-.646.062-.462.064-1.09.064-2.061v-2c0-.971-.002-1.599-.064-2.061-.059-.434-.153-.57-.229-.646-.076-.076-.212-.17-.646-.229C16.6 8.002 15.971 8 15 8H7c-.971 0-1.599.002-2.061.064z" fill="#fff"/><path d="M19 12.5v-1a1 1 0 1 1 2 0v1a1 1 0 1 1-2 0z" fill="#fff"/><path fill-rule="evenodd" clip-rule="evenodd" d="M18 11.5a2 2 0 1 1 4 0v1a2 2 0 1 1-4 0v-1z" fill="#fff"/></svg>