<svg width="24" height="24" fill="none" xmlns="http://www.w3.org/2000/svg"><path d="M11 21c-1.886 0-2.828 0-3.414-.586C7 19.828 7 18.886 7 17V9c0-1.886 0-2.828.586-3.414C8.172 5 9.114 5 11 5h2c1.886 0 2.828 0 3.414.586C17 6.172 17 7.114 17 9v8c0 1.886 0 2.828-.586 3.414C15.828 21 14.886 21 13 21h-2z" stroke="#fff" stroke-width="2" stroke-linecap="round" stroke-linejoin="round"/><path d="M12.5 5h-1a1 1 0 1 1 0-2h1a1 1 0 1 1 0 2z" fill="#fff" stroke="#fff" stroke-width="2" stroke-linecap="round" stroke-linejoin="round"/><path fill-rule="evenodd" clip-rule="evenodd" d="M13.192 8.05a1 1 0 0 1 .455 1.339l-1.305 2.645.93.02a1 1 0 0 1 .892 1.405l-1.75 3.947a1 1 0 0 1-1.828-.811l1.141-2.574-.998-.021a1 1 0 0 1-.876-1.442l2-4.054a1 1 0 0 1 1.34-.455z" fill="#fff"/></svg>