<svg width="24" height="24" fill="none" xmlns="http://www.w3.org/2000/svg"><path fill-rule="evenodd" clip-rule="evenodd" d="M8 2a1 1 0 0 1 1 1v5.738c0 .346 0 .652-.063.957-.063.305-.186.585-.324.903l-.028.064-2.235 5.142c-.563 1.293-.936 2.16-1.113 2.815-.172.638-.087.831-.023.93.064.097.208.252.861.349.672.1 1.616.102 3.026.102h5.798c1.41 0 2.354-.003 3.026-.102.653-.097.797-.252.86-.35.065-.098.15-.291-.022-.929-.177-.656-.55-1.522-1.113-2.815l-2.235-5.142-.028-.064c-.138-.318-.26-.598-.324-.903-.064-.305-.063-.611-.063-.957V3a1 1 0 1 1 2 0v5.668c0 .454.005.542.021.62.016.077.047.16.228.576l2.268 5.216c.521 1.2.957 2.203 1.177 3.019.23.85.293 1.74-.236 2.546-.528.805-1.369 1.102-2.24 1.231-.836.124-1.93.124-3.238.124H9.02c-1.308 0-2.402 0-3.238-.124-.871-.129-1.712-.426-2.24-1.231-.529-.805-.465-1.695-.236-2.546.22-.816.656-1.82 1.177-3.019l2.268-5.216c.181-.416.212-.499.228-.576.016-.078.021-.166.021-.62V3a1 1 0 0 1 1-1z" fill="#fff"/><path fill-rule="evenodd" clip-rule="evenodd" d="M6 14a1 1 0 0 1 1-1h10a1 1 0 1 1 0 2H7a1 1 0 0 1-1-1zM5 3a1 1 0 0 1 1-1h12a1 1 0 1 1 0 2H6a1 1 0 0 1-1-1z" fill="#fff"/></svg>