<svg width="24" height="24" fill="none" xmlns="http://www.w3.org/2000/svg"><path fill-rule="evenodd" clip-rule="evenodd" d="M5 8.5a7 7 0 0 1 14 0v2.276c0 .003 0 .006.002.009l1.155 2.503c.19.411.35.755.462 1.04.116.288.216.591.244.912a3 3 0 0 1-1.972 3.083 3.23 3.23 0 0 1-.93.16c-.306.017-.686.017-1.139.017H7.178c-.453 0-.833 0-1.138-.016a3.228 3.228 0 0 1-.93-.162 3 3 0 0 1-1.973-3.082 3.23 3.23 0 0 1 .244-.912c.113-.284.272-.629.462-1.04l1.155-2.503a.022.022 0 0 0 .002-.01V8.5zm7-5a5 5 0 0 0-5 5v2.276c0 .292-.064.581-.186.847L5.67 14.102c-.204.442-.34.737-.432.967-.092.23-.106.317-.108.344a1 1 0 0 0 .657 1.028c.026.01.11.033.359.046.246.013.572.013 1.059.013h9.59c.487 0 .813 0 1.06-.013.247-.013.332-.037.358-.046a1 1 0 0 0 .657-1.028c-.002-.027-.016-.114-.108-.344-.092-.23-.228-.525-.432-.968l-1.144-2.478a2.022 2.022 0 0 1-.186-.847V8.5a5 5 0 0 0-5-5zM8.014 20.836a1 1 0 0 1 1.15-.822l.699.116c1.415.236 2.86.236 4.274 0l.699-.116a1 1 0 0 1 .328 1.972l-.698.117c-1.633.272-3.3.272-4.932 0l-.698-.117a1 1 0 0 1-.822-1.15z" fill="#fff"/></svg>