<svg width="24" height="24" fill="none" xmlns="http://www.w3.org/2000/svg"><path fill-rule="evenodd" clip-rule="evenodd" d="M3 3a1 1 0 0 1 1-1h9.546v0h.027a4.543 4.543 0 0 1 .26.01c.168.008.404.025.686.06a9.557 9.557 0 0 1 2.098.491c.772.283 1.614.732 2.27 1.454C19.565 4.759 20 5.748 20 7c0 2.497-1.585 4.017-2.985 4.857a8.592 8.592 0 0 1-.189.11c.06.032.118.065.177.1C18.428 12.896 20 14.422 20 17c0 1.227-.39 2.209-1.022 2.959-.616.732-1.417 1.189-2.168 1.478-1.484.571-2.996.568-3.25.563H4a1 1 0 1 1 0-2h2.636V4H4a1 1 0 0 1-1-1zm5.636 1v16h4.956c.18.004 1.381 0 2.5-.43.55-.212 1.025-.506 1.357-.9.317-.377.551-.897.551-1.67 0-1.606-.928-2.58-2.003-3.204a7.168 7.168 0 0 0-2.129-.804l-.028-.005h-.001L14 12l-.197-.98m0 0h-.001a1 1 0 0 0 .037 1.967M13.544 4z" fill="#fff"/></svg>