<svg width="24" height="24" fill="none" xmlns="http://www.w3.org/2000/svg"><path fill-rule="evenodd" clip-rule="evenodd" d="M6.6 2a1 1 0 0 1 1 1v.8h8.8V3a1 1 0 1 1 2 0v.813c.339.011.649.032.927.07.656.087 1.285.286 1.794.796.51.51.709 1.138.797 1.793C22 7.084 22 7.848 22 8.734v8.332c0 .886 0 1.65-.082 2.262-.088.655-.287 1.284-.797 1.793-.51.51-1.138.709-1.793.797-.612.082-1.376.082-2.262.082H6.934c-.886 0-1.65 0-2.262-.082-.655-.088-1.284-.287-1.793-.797-.51-.51-.709-1.138-.797-1.793C2 18.716 2 17.952 2 17.066V8.8v-.066c0-.886 0-1.65.082-2.262.088-.655.287-1.284.797-1.793.51-.51 1.138-.709 1.794-.797.278-.037.588-.058.927-.069V3a1 1 0 0 1 1-1zm-1 3.814c-.256.01-.472.025-.661.05-.434.059-.57.153-.646.229-.076.076-.17.212-.229.646C4.002 7.2 4 7.829 4 8.8v.4h16v-.4c0-.971-.002-1.599-.064-2.061-.059-.434-.153-.57-.229-.646-.076-.076-.212-.17-.646-.229a6.914 6.914 0 0 0-.661-.05V6.6a1 1 0 1 1-2 0v-.8H7.6v.8a1 1 0 1 1-2 0v-.786zM20 11.2H4V17c0 .971.002 1.599.064 2.061.059.434.153.57.229.646.076.076.212.17.646.229C5.4 19.998 6.029 20 7 20h10c.971 0 1.599-.002 2.061-.064.434-.059.57-.153.646-.229.076-.076.17-.212.229-.646.062-.462.064-1.09.064-2.061v-5.8z" fill="#fff"/></svg>