<svg width="24" height="24" fill="none" xmlns="http://www.w3.org/2000/svg"><path fill-rule="evenodd" clip-rule="evenodd" d="M9.567 2h4.866c.702 0 1.315 0 1.818.06.542.065 1.066.21 1.534.575.468.366.735.838.93 1.349.18.473.329 1.068.5 1.75l1.1 4.402A2.5 2.5 0 0 1 22 12.5V14c0 .554-.095 1.147-.215 1.685l-.036.16c-.211.95-.407 1.835-1.235 2.497-.32.256-.658.41-1.014.505V21a1 1 0 1 1-2 0v-2H6v2a1 1 0 1 1-2 0v-2.282a2.853 2.853 0 0 1-.592-.364c-.366-.29-.631-.596-.819-.984-.157-.326-.241-.68-.313-.982l-.011-.048A10.098 10.098 0 0 1 2 14v-1.501a2.5 2.5 0 0 1 1.685-2.363l1.087-4.349.014-.054c.17-.681.319-1.276.5-1.75.194-.51.461-.982.93-1.348.468-.365.99-.51 1.533-.575C8.252 2 8.865 2 9.567 2zm-3.786 8h12.438l-.932-3.728c-.188-.75-.308-1.228-.441-1.576-.123-.323-.218-.426-.292-.484-.074-.058-.198-.125-.54-.166-.37-.044-.863-.046-1.637-.046H9.623c-.774 0-1.267.002-1.636.046-.343.04-.467.108-.54.166-.075.058-.17.161-.293.484-.132.348-.254.825-.441 1.576L5.78 10zM4.5 12c-.277 0-.5.224-.5.499V14c0 .745.09 1.372.21 1.877.09.374.128.515.18.623.03.063.079.143.258.285a.775.775 0 0 0 .395.175c.212.037.485.04 1.007.04h11.288c.694 0 1.116-.002 1.436-.046.28-.038.396-.098.49-.173.223-.178.3-.335.569-1.533.105-.469.167-.9.167-1.248v-1.5a.5.5 0 0 0-.5-.5h-15z" fill="#fff"/><path d="M8 14a1 1 0 1 1-2 0 1 1 0 0 1 2 0zm10 0a1 1 0 1 1-2 0 1 1 0 0 1 2 0z" fill="#fff"/></svg>