<svg width="24" height="24" fill="none" xmlns="http://www.w3.org/2000/svg"><path fill-rule="evenodd" clip-rule="evenodd" d="M12 4a8 8 0 1 0 0 16 8 8 0 0 0 0-16zM2 12C2 6.477 6.477 2 12 2s10 4.477 10 10-4.477 10-10 10S2 17.523 2 12z" fill="#fff"/><path fill-rule="evenodd" clip-rule="evenodd" d="M16.03 7.652a1 1 0 0 1 .318 1.378l-4.252 6.804-.027.042c-.146.235-.309.495-.475.69-.19.225-.53.538-1.057.568-.528.031-.9-.24-1.116-.441-.188-.175-.38-.415-.552-.63l-.031-.04-1.119-1.398a1 1 0 0 1 1.562-1.25l1.119 1.399 4.252-6.804a1 1 0 0 1 1.378-.318zm-5.968 7.628l.002-.001a.01.01 0 0 1-.002.001zm.73-.044a.021.021 0 0 1 .002.002l-.002-.002z" fill="#fff"/></svg>