<svg width="24" height="24" fill="none" xmlns="http://www.w3.org/2000/svg"><g clip-path="url(#clip0_878_21981)"><g clip-path="url(#clip1_878_21981)" fill-rule="evenodd" clip-rule="evenodd" fill="#fff"><path d="M9.123 12.618c.284.371.726.817 1.413 1.503l5.171 5.172a1 1 0 0 1-1.414 1.414L9.12 15.536l-.046-.047c-.627-.627-1.167-1.167-1.542-1.658-.4-.525-.705-1.11-.705-1.831 0-.72.304-1.306.705-1.832.375-.49.915-1.03 1.542-1.657l5.218-5.218a1 1 0 1 1 1.414 1.414L10.536 9.88c-.687.686-1.13 1.132-1.413 1.503-.265.348-.295.51-.295.618 0 .108.03.27.295.618z"/><path d="M9.123 12.618c.284.371.726.817 1.413 1.503l5.171 5.172a1 1 0 0 1-1.414 1.414L9.12 15.536l-.046-.047c-.627-.627-1.167-1.167-1.542-1.658-.4-.525-.705-1.11-.705-1.831 0-.72.304-1.306.705-1.832.375-.49.915-1.03 1.542-1.657l5.218-5.218a1 1 0 1 1 1.414 1.414L10.536 9.88c-.687.686-1.13 1.132-1.413 1.503-.265.348-.295.51-.295.618 0 .108.03.27.295.618z"/></g></g><defs><clipPath id="clip0_878_21981"><path fill="#fff" d="M0 0H24V24H0z"/></clipPath><clipPath id="clip1_878_21981"><path fill="#fff" transform="rotate(-90 12 12)" d="M0 0H24V24H0z"/></clipPath></defs></svg>