<svg width="24" height="24" fill="none" xmlns="http://www.w3.org/2000/svg"><g clip-path="url(#clip0_878_23587)"><g clip-path="url(#clip1_878_23587)" fill-rule="evenodd" clip-rule="evenodd" fill="#fff"><path d="M12.618 14.877c.371-.284.817-.726 1.503-1.413l5.172-5.171a1 1 0 1 1 1.414 1.414l-5.171 5.172-.047.046c-.627.627-1.167 1.167-1.658 1.542-.525.4-1.11.705-1.831.705-.72 0-1.306-.304-1.832-.705-.49-.375-1.03-.915-1.657-1.542L3.293 9.707a1 1 0 0 1 1.414-1.414l5.172 5.171c.686.687 1.132 1.13 1.503 1.413.348.265.51.295.618.295.108 0 .27-.03.618-.295z"/><path d="M12.618 14.877c.371-.284.817-.726 1.503-1.413l5.172-5.171a1 1 0 1 1 1.414 1.414l-5.171 5.172-.047.046c-.627.627-1.167 1.167-1.658 1.542-.525.4-1.11.705-1.831.705-.72 0-1.306-.304-1.832-.705-.49-.375-1.03-.915-1.657-1.542L3.293 9.707a1 1 0 0 1 1.414-1.414l5.172 5.171c.686.687 1.132 1.13 1.503 1.413.348.265.51.295.618.295.108 0 .27-.03.618-.295z"/></g></g><defs><clipPath id="clip0_878_23587"><path fill="#fff" d="M0 0H24V24H0z"/></clipPath><clipPath id="clip1_878_23587"><path fill="#fff" transform="rotate(180 12 12)" d="M0 0H24V24H0z"/></clipPath></defs></svg>