<svg width="24" height="24" fill="none" xmlns="http://www.w3.org/2000/svg"><path fill-rule="evenodd" clip-rule="evenodd" d="M12.618 17.877c.371-.284.817-.726 1.503-1.412l5.172-5.172a1 1 0 1 1 1.414 1.414l-5.171 5.172-.047.046c-.627.627-1.167 1.167-1.658 1.542-.525.4-1.11.705-1.831.705-.72 0-1.306-.304-1.832-.705-.49-.375-1.03-.915-1.657-1.542l-5.218-5.218a1 1 0 1 1 1.414-1.414l5.172 5.172c.686.686 1.132 1.128 1.503 1.412.348.265.51.295.618.295.108 0 .27-.03.618-.295z" fill="#fff"/><path fill-rule="evenodd" clip-rule="evenodd" d="M12.618 9.877c.371-.283.817-.726 1.503-1.412l5.172-5.172a1 1 0 1 1 1.414 1.414L15.536 9.88l-.047.046c-.627.627-1.167 1.167-1.658 1.542-.525.4-1.11.705-1.831.705-.72 0-1.306-.304-1.832-.705-.49-.375-1.03-.915-1.657-1.542L3.293 4.707a1 1 0 0 1 1.414-1.414L9.88 8.465c.686.686 1.132 1.129 1.503 1.412.348.265.51.295.618.295.108 0 .27-.03.618-.295z" fill="#fff"/></svg>