<svg width="24" height="24" fill="none" xmlns="http://www.w3.org/2000/svg"><path fill-rule="evenodd" clip-rule="evenodd" d="M6.123 12.618c.284.371.726.817 1.413 1.503l5.171 5.172a1 1 0 0 1-1.414 1.414L6.12 15.536l-.046-.047c-.627-.627-1.167-1.167-1.542-1.658-.4-.525-.705-1.11-.705-1.831 0-.72.304-1.306.705-1.832.375-.49.915-1.03 1.542-1.657l5.218-5.218a1 1 0 1 1 1.414 1.414L7.536 9.88c-.687.686-1.13 1.132-1.413 1.503-.265.348-.295.51-.295.618 0 .108.03.27.295.618z" fill="#fff"/><path fill-rule="evenodd" clip-rule="evenodd" d="M14.123 12.618c.284.371.726.817 1.413 1.503l5.171 5.172a1 1 0 0 1-1.414 1.414l-5.172-5.171-.046-.047c-.627-.627-1.167-1.167-1.542-1.658-.4-.525-.705-1.11-.705-1.831 0-.72.304-1.306.705-1.832.375-.49.915-1.03 1.542-1.657l5.218-5.218a1 1 0 1 1 1.414 1.414L15.536 9.88c-.687.686-1.13 1.132-1.412 1.503-.266.348-.296.51-.296.618 0 .108.03.27.296.618z" fill="#fff"/></svg>