<svg width="24" height="24" fill="none" xmlns="http://www.w3.org/2000/svg"><path fill-rule="evenodd" clip-rule="evenodd" d="M17.877 11.382c-.284-.371-.726-.817-1.412-1.503l-5.172-5.172a1 1 0 1 1 1.414-1.414l5.172 5.171.046.047c.627.627 1.167 1.167 1.542 1.658.4.525.705 1.11.705 1.831 0 .72-.304 1.306-.705 1.832-.375.49-.915 1.03-1.542 1.657l-5.218 5.218a1 1 0 0 1-1.414-1.414l5.172-5.172c.686-.686 1.128-1.132 1.412-1.503.265-.348.295-.51.295-.618 0-.108-.03-.27-.295-.618z" fill="#fff"/><path fill-rule="evenodd" clip-rule="evenodd" d="M9.877 11.382c-.283-.371-.726-.817-1.412-1.503L3.293 4.707a1 1 0 0 1 1.414-1.414L9.88 8.464l.046.047c.627.627 1.167 1.167 1.542 1.658.4.525.705 1.11.705 1.831 0 .72-.304 1.306-.705 1.832-.375.49-.915 1.03-1.542 1.657l-5.218 5.218a1 1 0 0 1-1.414-1.414l5.172-5.172c.686-.686 1.129-1.132 1.412-1.503.265-.348.295-.51.295-.618 0-.108-.03-.27-.295-.618z" fill="#fff"/></svg>