<svg width="24" height="24" fill="none" xmlns="http://www.w3.org/2000/svg"><path fill-rule="evenodd" clip-rule="evenodd" d="M9.5 2a1 1 0 0 1 1 1v1.5h3V3a1 1 0 1 1 2 0v1.504c.498.007.943.026 1.328.078.655.088 1.284.287 1.793.797.51.51.709 1.138.797 1.793.052.385.07.83.078 1.328H21a1 1 0 1 1 0 2h-1.5v3H21a1 1 0 1 1 0 2h-1.504c-.007.498-.026.943-.078 1.328-.088.655-.287 1.284-.797 1.793-.51.51-1.138.709-1.793.797-.385.052-.83.07-1.328.078V21a1 1 0 1 1-2 0v-1.5h-3V21a1 1 0 1 1-2 0v-1.504a11.493 11.493 0 0 1-1.328-.078c-.655-.088-1.284-.287-1.793-.797-.51-.51-.709-1.138-.797-1.793-.052-.385-.07-.83-.078-1.328H3a1 1 0 1 1 0-2h1.5v-3H3a1 1 0 1 1 0-2h1.504c.007-.498.026-.943.078-1.328.088-.655.287-1.284.797-1.793.51-.51 1.138-.709 1.793-.797.385-.052.83-.07 1.328-.078V3a1 1 0 0 1 1-1zm0 15.5h5c.971 0 1.599-.002 2.061-.064.434-.059.57-.153.646-.229.076-.076.17-.212.229-.646.062-.462.064-1.09.064-2.061v-5c0-.971-.002-1.599-.064-2.061-.059-.434-.153-.57-.229-.646-.076-.076-.212-.17-.646-.229-.462-.062-1.09-.064-2.061-.064h-5c-.971 0-1.599.002-2.061.064-.434.059-.57.153-.646.229-.076.076-.17.212-.229.646C6.502 7.9 6.5 8.529 6.5 9.5v5c0 .971.002 1.599.064 2.061.059.434.153.57.229.646.076.076.212.17.646.229.462.062 1.09.064 2.061.064zm.96-9h3.08c.2 0 .437 0 .642.027.247.033.589.122.879.412.29.29.379.632.412.88.027.204.027.442.027.642v3.079c0 .2 0 .437-.027.642a1.488 1.488 0 0 1-.412.879c-.29.29-.632.379-.88.412-.204.027-.442.027-.642.027H10.46c-.2 0-.437 0-.642-.027a1.488 1.488 0 0 1-.879-.412 1.488 1.488 0 0 1-.412-.88c-.027-.204-.027-.442-.027-.642V10.5v-.04c0-.2 0-.437.027-.642.033-.247.122-.589.412-.879.29-.29.632-.379.88-.412.204-.027.442-.027.642-.027zm-.38 2.01h.002zm.42-.01h3v3h-3v-3zm-.42 2.99h.002zm.43.428v.001zm2.98.001v-.001zm.43-3.409h-.002zm-.43-.428a.02.02 0 0 1 0-.001zm-2.98 0v-.001z" fill="#fff"/></svg>