<svg width="24" height="24" fill="none" xmlns="http://www.w3.org/2000/svg"><path fill-rule="evenodd" clip-rule="evenodd" d="M12 4a8 8 0 1 0 0 16 8 8 0 0 0 0-16zM2 12C2 6.477 6.477 2 12 2s10 4.477 10 10-4.477 10-10 10S2 17.523 2 12z" fill="#fff"/><path fill-rule="evenodd" clip-rule="evenodd" d="M11.991 9.897c-.193.214-.428.562-.823 1.154l-.263.394c-.475.713-.765 1.153-.919 1.479l-.009.018a2.5 2.5 0 0 0 .02.003c.356.052.884.055 1.74.055h.526c.857 0 1.384-.003 1.74-.055l.02-.003-.009-.018c-.154-.326-.444-.766-.919-1.479l-.263-.394c-.395-.592-.63-.94-.823-1.154L12 9.887l-.009.01zm.129-.122l-.004.002a.026.026 0 0 1 .004-.002zm-.236.002a.024.024 0 0 1-.004-.002l.004.002zm2.213 3.369l-.001-.009a.028.028 0 0 1 0 .009zm.13-.252a.033.033 0 0 1 .006-.004l-.007.004zm-4.46-.004l.007.004a.03.03 0 0 1-.007-.004zm.137.247v.009-.009zm.604-4.581c.33-.365.807-.753 1.492-.753.685 0 1.163.388 1.492.753.306.337.623.813.966 1.328l.038.057.263.395.041.062c.421.63.798 1.196 1.022 1.671.233.492.445 1.18.073 1.875-.372.694-1.061.9-1.6.98-.52.076-1.2.076-1.958.076H11.663c-.759 0-1.438 0-1.958-.077-.539-.08-1.228-.285-1.6-.98-.371-.694-.16-1.381.072-1.874.225-.475.602-1.04 1.023-1.671l.04-.062.264-.395.038-.057c.343-.515.66-.99.966-1.328z" fill="#fff"/></svg>