<svg width="24" height="24" fill="none" xmlns="http://www.w3.org/2000/svg"><path fill-rule="evenodd" clip-rule="evenodd" d="M12 3a9 9 0 1 0 0 18 9 9 0 0 0 0-18zM1 12C1 5.925 5.925 1 12 1s11 4.925 11 11-4.925 11-11 11S1 18.075 1 12z" fill="#fff"/><path fill-rule="evenodd" clip-rule="evenodd" d="M1.293 1.293a1 1 0 0 1 1.414 0L12 10.586l6.293-6.293 3-3a1 1 0 1 1 1.414 1.414l-1.5 1.5L13.414 12l6.293 6.293 3 3a1 1 0 0 1-1.414 1.414l-3-3L12 13.414l-9.293 9.293a1 1 0 0 1-1.414-1.414L10.586 12 1.293 2.707a1 1 0 0 1 0-1.414z" fill="#fff"/></svg>