<svg width="24" height="24" fill="none" xmlns="http://www.w3.org/2000/svg"><path fill-rule="evenodd" clip-rule="evenodd" d="M12 4a8 8 0 1 0 0 16 8 8 0 0 0 0-16zM2 12C2 6.477 6.477 2 12 2s10 4.477 10 10-4.477 10-10 10S2 17.523 2 12z" fill="#fff"/><path fill-rule="evenodd" clip-rule="evenodd" d="M11.951 7.5h.098c.66 0 1.23 0 1.695.047.494.05.979.162 1.423.459a3 3 0 0 1 .827.827c.297.444.409.93.459 1.423.047.465.047 1.035.047 1.695v.098c0 .66 0 1.23-.047 1.695-.05.494-.162.979-.459 1.423a3 3 0 0 1-.827.827c-.444.297-.93.409-1.423.459-.465.047-1.035.047-1.695.047h-.098c-.66 0-1.23 0-1.695-.047-.494-.05-.979-.162-1.423-.459a3 3 0 0 1-.827-.827c-.297-.444-.409-.93-.459-1.423C7.5 13.28 7.5 12.71 7.5 12.05V12v-.049c0-.66 0-1.23.047-1.695.05-.494.162-.979.459-1.423a3 3 0 0 1 .827-.827c.444-.297.93-.409 1.423-.459C10.72 7.5 11.29 7.5 11.95 7.5zm-1.493 2.037c-.335.034-.453.091-.514.132a1 1 0 0 0-.275.275c-.04.061-.098.179-.132.514-.036.352-.037.819-.037 1.542 0 .723.001 1.19.037 1.542.034.335.091.453.132.514a1 1 0 0 0 .275.276c.061.04.179.097.514.131.352.036.819.037 1.542.037.723 0 1.19-.001 1.542-.037.335-.034.453-.091.514-.131a1 1 0 0 0 .276-.276c.04-.061.097-.179.131-.514.036-.352.037-.819.037-1.542 0-.723-.001-1.19-.037-1.542-.034-.335-.091-.453-.131-.514a1 1 0 0 0-.276-.275c-.061-.04-.179-.098-.514-.132C13.19 9.501 12.723 9.5 12 9.5c-.723 0-1.19.001-1.542.037z" fill="#fff"/></svg>