<svg width="24" height="24" fill="none" xmlns="http://www.w3.org/2000/svg"><g clip-path="url(#clip0_878_22581)"><path fill-rule="evenodd" clip-rule="evenodd" d="M9 21a1 1 0 0 1-1-1v-2.586l-4.293 4.293a1 1 0 0 1-1.414-1.414L6.586 16H4a1 1 0 1 1 0-2h5a1 1 0 0 1 1 1v5a1 1 0 0 1-1 1zM21 9a1 1 0 0 1-1 1h-5a1 1 0 0 1-1-1V4a1 1 0 1 1 2 0v2.586l4.293-4.293a1 1 0 1 1 1.414 1.414L17.414 8H20a1 1 0 0 1 1 1z" fill="#fff"/></g><defs><clipPath id="clip0_878_22581"><path fill="#fff" d="M0 0H24V24H0z"/></clipPath></defs></svg>