<svg width="24" height="24" fill="none" xmlns="http://www.w3.org/2000/svg"><path fill-rule="evenodd" clip-rule="evenodd" d="M8.13 6.78C9.296 5.74 10.993 5 12.9 5c1.893 0 3.742.734 4.964 2.027 1.022 1.082 1.58 2.535 1.358 4.163A4.002 4.002 0 0 1 18 19H6.75a4.75 4.75 0 0 1-.259-9.493c.172-1.036.824-2.004 1.638-2.727zm.34 3.041a4.766 4.766 0 0 1 2.634 2.529 1 1 0 0 1-1.832.8A2.75 2.75 0 1 0 6.75 17H18a2 2 0 1 0-1.5-3.323 1 1 0 0 1-1.5-1.323 3.998 3.998 0 0 1 2.215-1.277c.197-1.079-.151-1.985-.804-2.676C15.608 7.551 14.307 7 12.9 7c-1.394 0-2.622.545-3.442 1.274-.618.55-.912 1.108-.988 1.547z" fill="#fff"/></svg>