<svg width="24" height="24" viewBox="0 0 24 24" fill="none" xmlns="http://www.w3.org/2000/svg">
<path fill-rule="evenodd" clip-rule="evenodd" d="M12 11C12.5523 11 13 11.4477 13 12L13 21C13 21.5523 12.5523 22 12 22C11.4477 22 11 21.5523 11 21L11 12C11 11.4477 11.4477 11 12 11Z" fill="white"/>
<path d="M14 12C14 13.1046 13.1046 14 12 14C10.8954 14 10 13.1046 10 12C10 10.8954 10.8954 10 12 10C13.1046 10 14 10.8954 14 12Z" fill="white"/>
<path fill-rule="evenodd" clip-rule="evenodd" d="M12 4C7.56296 4 4 7.52129 4 11.8235C4 13.9497 4.8662 15.8792 6.27984 17.2929C6.67035 17.6835 6.67033 18.3166 6.27979 18.7071C5.88925 19.0976 5.25609 19.0976 4.86558 18.7071C3.09637 16.9377 2 14.507 2 11.8235C2 6.37957 6.49591 2 12 2C17.5041 2 22 6.37957 22 11.8235C22 14.507 20.9036 16.9377 19.1344 18.7071C18.7439 19.0976 18.1107 19.0976 17.7202 18.7071C17.3297 18.3166 17.3296 17.6835 17.7202 17.2929C19.1338 15.8792 20 13.9497 20 11.8235C20 7.52129 16.437 4 12 4Z" fill="white"/>
<path fill-rule="evenodd" clip-rule="evenodd" d="M12 8C9.60404 8 8 9.90008 8 12C8 13.0001 8.49738 14.1112 9.19256 14.7786C9.59096 15.1611 9.60385 15.7942 9.22136 16.1926C8.83887 16.591 8.20584 16.6039 7.80744 16.2214C6.73437 15.1911 6 13.565 6 12C6 8.90195 8.39596 6 12 6C15.604 6 18 8.90195 18 12C18 13.4897 17.457 15.1432 16.334 16.2214C15.9356 16.6039 15.3026 16.591 14.9201 16.1926C14.5376 15.7942 14.5505 15.1611 14.9489 14.7786C15.5941 14.1592 16 13.0754 16 12C16 9.90008 14.396 8 12 8Z" fill="white"/>
</svg>
