<svg width="24" height="24" fill="none" xmlns="http://www.w3.org/2000/svg"><path fill-rule="evenodd" clip-rule="evenodd" d="M12 11a1 1 0 0 1 1 1v9a1 1 0 1 1-2 0v-9a1 1 0 0 1 1-1z" fill="#fff"/><path d="M14 12a2 2 0 1 1-4 0 2 2 0 0 1 4 0z" fill="#fff"/><path fill-rule="evenodd" clip-rule="evenodd" d="M12 4c-4.437 0-8 3.521-8 7.823 0 2.127.866 4.056 2.28 5.47a1 1 0 0 1-1.414 1.414A9.707 9.707 0 0 1 2 11.823C2 6.38 6.496 2 12 2s10 4.38 10 9.823a9.707 9.707 0 0 1-2.866 6.884 1 1 0 0 1-1.414-1.414 7.707 7.707 0 0 0 2.28-5.47C20 7.521 16.437 4 12 4z" fill="#fff"/><path fill-rule="evenodd" clip-rule="evenodd" d="M12 8c-2.396 0-4 1.9-4 4 0 1 .497 2.111 1.193 2.779a1 1 0 0 1-1.386 1.442C6.734 15.191 6 13.565 6 12c0-3.098 2.396-6 6-6s6 2.902 6 6c0 1.49-.543 3.143-1.666 4.221a1 1 0 1 1-1.385-1.442C15.594 14.159 16 13.075 16 12c0-2.1-1.604-4-4-4z" fill="#fff"/></svg>