<svg width="24" height="24" fill="none" xmlns="http://www.w3.org/2000/svg"><path fill-rule="evenodd" clip-rule="evenodd" d="M12 4a8 8 0 1 0 0 16 8 8 0 0 0 0-16zM2 12C2 6.477 6.477 2 12 2s10 4.477 10 10-4.477 10-10 10S2 17.523 2 12z" fill="#fff"/><path fill-rule="evenodd" clip-rule="evenodd" d="M8.293 8.293a1 1 0 0 1 1.414 0L12 10.586l2.293-2.293a1 1 0 1 1 1.414 1.414L13.414 12l2.293 2.293a1 1 0 0 1-1.414 1.414L12 13.414l-2.293 2.293a1 1 0 0 1-1.414-1.414L10.586 12 8.293 9.707a1 1 0 0 1 0-1.414z" fill="#fff"/></svg>