<svg width="24" height="24" fill="none" xmlns="http://www.w3.org/2000/svg"><path fill-rule="evenodd" clip-rule="evenodd" d="M6.451 2h.098c.66 0 1.23 0 1.695.047.494.05.979.162 1.423.459a3 3 0 0 1 .827.827c.297.444.409.93.459 1.423C11 5.22 11 5.79 11 6.45v.098c0 .66 0 1.23-.047 1.695-.05.494-.162.979-.459 1.423a3 3 0 0 1-.827.827c-.444.297-.93.409-1.423.459C7.78 11 7.21 11 6.55 11H6.45c-.66 0-1.23 0-1.695-.047-.494-.05-.979-.162-1.423-.459a3 3 0 0 1-.827-.827c-.297-.444-.409-.93-.459-1.423C2 7.78 2 7.21 2 6.55V6.5v-.049c0-.66 0-1.23.047-1.695.05-.494.162-.979.459-1.423a3 3 0 0 1 .827-.827c.444-.297.93-.409 1.423-.459C5.22 2 5.79 2 6.45 2zM4.958 4.037c-.335.034-.453.091-.514.132a1 1 0 0 0-.275.275c-.04.061-.098.179-.132.514C4.001 5.31 4 5.777 4 6.5c0 .723.001 1.19.037 1.542.034.335.091.453.132.514a1 1 0 0 0 .275.275c.061.04.179.098.514.132C5.31 8.999 5.777 9 6.5 9c.723 0 1.19-.001 1.542-.037.335-.034.453-.091.514-.132a1 1 0 0 0 .275-.275c.04-.06.098-.179.132-.514C8.999 7.69 9 7.223 9 6.5c0-.723-.001-1.19-.037-1.542-.034-.335-.091-.453-.132-.514a1 1 0 0 0-.275-.275c-.06-.04-.179-.098-.514-.132C7.69 4.001 7.223 4 6.5 4c-.723 0-1.19.001-1.542.037zM6.451 13h.098c.66 0 1.23 0 1.695.047.494.05.979.162 1.423.459a3 3 0 0 1 .827.827c.297.444.409.93.459 1.423C11 16.22 11 16.79 11 17.45v.098c0 .66 0 1.23-.047 1.695-.05.494-.162.979-.459 1.423a3 3 0 0 1-.827.827c-.444.297-.93.409-1.423.459C7.78 22 7.21 22 6.55 22H6.45c-.66 0-1.23 0-1.695-.047-.494-.05-.979-.162-1.423-.459a3 3 0 0 1-.827-.827c-.297-.444-.409-.93-.459-1.423C2 18.78 2 18.21 2 17.55V17.5v-.049c0-.66 0-1.23.047-1.695.05-.494.162-.979.459-1.423a3 3 0 0 1 .827-.827c.444-.297.93-.409 1.423-.459C5.22 13 5.79 13 6.45 13zm-1.493 2.037c-.335.034-.453.091-.514.131a1 1 0 0 0-.275.276c-.04.061-.098.179-.132.514C4.001 16.31 4 16.777 4 17.5c0 .723.001 1.19.037 1.542.034.335.091.453.132.514a1 1 0 0 0 .275.275c.061.04.179.098.514.132.352.036.819.037 1.542.037.723 0 1.19-.001 1.542-.037.335-.034.453-.091.514-.132a1 1 0 0 0 .275-.275c.04-.061.098-.179.132-.514.036-.352.037-.819.037-1.542 0-.723-.001-1.19-.037-1.542-.034-.335-.091-.453-.132-.514a1 1 0 0 0-.275-.276c-.06-.04-.179-.097-.514-.131C7.69 15.001 7.223 15 6.5 15c-.723 0-1.19.001-1.542.037zM17.451 2h.098c.66 0 1.23 0 1.695.047.494.05.979.162 1.423.459a3 3 0 0 1 .827.827c.297.444.409.93.459 1.423C22 5.22 22 5.79 22 6.45v.098c0 .66 0 1.23-.047 1.695-.05.494-.162.979-.459 1.423a3 3 0 0 1-.827.827c-.444.297-.93.409-1.423.459C18.78 11 18.21 11 17.55 11h-.098c-.66 0-1.23 0-1.695-.047-.494-.05-.979-.162-1.423-.459a3 3 0 0 1-.827-.827c-.297-.444-.409-.93-.459-1.423C13 7.78 13 7.21 13 6.55V6.5v-.049c0-.66 0-1.23.047-1.695.05-.494.162-.979.459-1.423a3 3 0 0 1 .827-.827c.444-.297.93-.409 1.423-.459C16.22 2 16.79 2 17.45 2zm-1.493 2.037c-.335.034-.453.091-.514.132a1 1 0 0 0-.276.275c-.04.061-.097.179-.131.514C15.001 5.31 15 5.777 15 6.5c0 .723.001 1.19.037 1.542.034.335.091.453.131.514a1 1 0 0 0 .276.275c.061.04.179.098.514.132.352.036.819.037 1.542.037.723 0 1.19-.001 1.542-.037.335-.034.453-.091.514-.132a1 1 0 0 0 .275-.275c.04-.06.098-.179.132-.514.036-.352.037-.819.037-1.542 0-.723-.001-1.19-.037-1.542-.034-.335-.091-.453-.132-.514a1 1 0 0 0-.275-.275c-.061-.04-.179-.098-.514-.132C18.69 4.001 18.223 4 17.5 4c-.723 0-1.19.001-1.542.037zM17.451 13h.098c.66 0 1.23 0 1.695.047.494.05.979.162 1.423.459a3 3 0 0 1 .827.827c.297.444.409.93.459 1.423C22 16.22 22 16.79 22 17.45v.098c0 .66 0 1.23-.047 1.695-.05.494-.162.979-.459 1.423a3 3 0 0 1-.827.827c-.444.297-.93.409-1.423.459C18.78 22 18.21 22 17.55 22h-.098c-.66 0-1.23 0-1.695-.047-.494-.05-.979-.162-1.423-.459a3 3 0 0 1-.827-.827c-.297-.444-.409-.93-.459-1.423C13 18.78 13 18.21 13 17.55V17.5v-.049c0-.66 0-1.23.047-1.695.05-.494.162-.979.459-1.423a3 3 0 0 1 .827-.827c.444-.297.93-.409 1.423-.459C16.22 13 16.79 13 17.45 13zm-1.493 2.037c-.335.034-.453.091-.514.131a1 1 0 0 0-.276.276c-.04.061-.097.179-.131.514-.036.352-.037.819-.037 1.542 0 .723.001 1.19.037 1.542.034.335.091.453.131.514a1 1 0 0 0 .276.275c.061.04.179.098.514.132.352.036.819.037 1.542.037.723 0 1.19-.001 1.542-.037.335-.034.453-.091.514-.132a1 1 0 0 0 .275-.275c.04-.061.098-.179.132-.514.036-.352.037-.819.037-1.542 0-.723-.001-1.19-.037-1.542-.034-.335-.091-.453-.132-.514a1 1 0 0 0-.275-.276c-.061-.04-.179-.097-.514-.131-.352-.036-.819-.037-1.542-.037-.723 0-1.19.001-1.542.037z" fill="#fff"/></svg>