<svg width="24" height="24" fill="none" xmlns="http://www.w3.org/2000/svg"><g clip-path="url(#clip0_878_23984)" fill="#fff"><path fill-rule="evenodd" clip-rule="evenodd" d="M13.59 4.066C13.459 4.016 13.3 4 12.466 4H9c-.971 0-1.599.002-2.061.064-.434.059-.57.153-.646.229-.076.076-.17.212-.229.646C6.002 5.4 6 6.029 6 7v10c0 .971.002 1.599.064 2.061.059.434.153.57.229.646.076.076.212.17.646.229C7.4 19.998 8.029 20 9 20h6c.971 0 1.599-.002 2.061-.064.434-.059.57-.153.646-.229.076-.076.17-.212.229-.646.062-.462.064-1.09.064-2.061V9.281c0-.965-.02-1.148-.087-1.297-.066-.149-.188-.286-.906-.932L14.472 4.77c-.62-.558-.748-.653-.881-.704zM12.595 2c.63-.001 1.19-.002 1.713.2.524.2.94.575 1.407.997l.096.087 2.535 2.281.11.1c.543.486 1.024.917 1.286 1.505.261.588.26 1.235.26 1.962l-.001.15v7.784c0 .886 0 1.65-.082 2.262-.088.655-.287 1.284-.797 1.793-.51.51-1.138.709-1.793.797-.612.082-1.376.082-2.262.082H8.934c-.886 0-1.65 0-2.262-.082-.655-.088-1.284-.287-1.793-.797-.51-.51-.709-1.138-.797-1.793C4 18.716 4 17.952 4 17.066V7v-.066c0-.886 0-1.65.082-2.262.088-.655.287-1.284.797-1.793.51-.51 1.138-.709 1.793-.797C7.284 2 8.048 2 8.934 2H12.594z"/><path fill-rule="evenodd" clip-rule="evenodd" d="M12 5V3h2v2c0 .971.002 1.599.064 2.061.059.434.153.57.229.646.076.076.212.17.646.229C15.4 7.998 16.029 8 17 8h2v2h-2.066c-.886 0-1.65 0-2.262-.082-.655-.088-1.284-.287-1.793-.797-.51-.51-.709-1.138-.797-1.793C12 6.716 12 5.952 12 5.066V5zm7.76 11.151c-.365.415-1 .459-1.42.1l-.648-.557c-.697-.597-1.146-.98-1.516-1.22-.345-.226-.504-.248-.609-.244-.105.004-.26.037-.588.289-.35.268-.768.684-1.416 1.332l-.149.149.802.802a.985.985 0 0 1-.009 1.405 1.016 1.016 0 0 1-1.423-.009l-.84-.839c-.651-.652-1.072-1.07-1.424-1.34-.328-.25-.485-.283-.593-.287-.11-.003-.268.021-.605.248-.363.245-.802.631-1.486 1.238a48.579 48.579 0 0 0-1.62 1.48c-.39.39-1.028.395-1.423.01a.985.985 0 0 1-.01-1.406c.33-.33 1.002-.936 1.708-1.562l.048-.043c.621-.551 1.16-1.03 1.649-1.358.527-.355 1.103-.613 1.8-.593.697.02 1.26.316 1.766.704.07.053.14.11.212.17l.165-.165.045-.045c.59-.59 1.1-1.1 1.567-1.46.5-.384 1.056-.68 1.747-.706.69-.026 1.268.226 1.797.572.493.322 1.042.793 1.676 1.337l.697.597c.42.36.464.987.1 1.401z"/><path d="M10.5 9a1.5 1.5 0 1 1-3 0 1.5 1.5 0 0 1 3 0z"/></g><defs><clipPath id="clip0_878_23984"><path fill="#fff" d="M0 0H24V24H0z"/></clipPath></defs></svg>