<svg width="24" height="24" fill="none" xmlns="http://www.w3.org/2000/svg"><path fill-rule="evenodd" clip-rule="evenodd" d="M13.59 4.066C13.459 4.016 13.3 4 12.466 4H9c-.971 0-1.599.002-2.061.064-.434.059-.57.153-.646.229-.076.076-.17.212-.229.646C6.002 5.4 6 6.029 6 7v10c0 .971.002 1.599.064 2.061.059.434.153.57.229.646.076.076.212.17.646.229C7.4 19.998 8.029 20 9 20h6c.971 0 1.599-.002 2.061-.064.434-.059.57-.153.646-.229.076-.076.17-.212.229-.646.062-.462.064-1.09.064-2.061V9.281c0-.965-.02-1.148-.087-1.297-.066-.149-.188-.286-.906-.932L14.472 4.77c-.62-.558-.748-.653-.881-.704zM12.595 2c.63-.001 1.19-.002 1.713.2.524.2.94.575 1.407.997l.096.087 2.535 2.281.11.1c.543.486 1.024.917 1.286 1.505.261.588.26 1.235.26 1.962l-.001.15v7.784c0 .886 0 1.65-.082 2.262-.088.655-.287 1.284-.797 1.793-.51.51-1.138.709-1.793.797-.612.082-1.376.082-2.262.082H8.934c-.886 0-1.65 0-2.262-.082-.655-.088-1.284-.287-1.793-.797-.51-.51-.709-1.138-.797-1.793C4 18.716 4 17.952 4 17.066V7v-.066c0-.886 0-1.65.082-2.262.088-.655.287-1.284.797-1.793.51-.51 1.138-.709 1.793-.797C7.284 2 8.048 2 8.934 2H12.594z" fill="#fff"/><path fill-rule="evenodd" clip-rule="evenodd" d="M12 5V3h2v2c0 .971.002 1.599.064 2.061.059.434.153.57.229.646.076.076.212.17.646.229C15.4 7.998 16.029 8 17 8h2v2h-2.066c-.886 0-1.65 0-2.262-.082-.655-.088-1.284-.287-1.793-.797-.51-.51-.709-1.138-.797-1.793C12 6.716 12 5.952 12 5.066V5zm2.504 8.907c-.1-.069-.215-.146-.354-.239l-3.011-2.007a27.896 27.896 0 0 0-.386-.255c-.003.124-.003.275-.003.463v3.513c0 .157 0 .288.002.401.102-.049.22-.107.36-.177l3.011-1.506c.15-.075.274-.137.381-.193zm-3.717-2.934v0zm-.41.223a.03.03 0 0 0 0 0zm5.407 1.806c.214.193.5.525.47 1.014-.031.489-.356.782-.592.947-.22.155-.52.305-.825.457a8.375 8.375 0 0 0-.043.021l-3.011 1.506a7.907 7.907 0 0 0-.042.02c-.288.145-.574.288-.82.369-.268.087-.678.166-1.078-.082-.4-.247-.514-.649-.555-.928-.038-.255-.038-.576-.038-.898V11.87v-.05c0-.368 0-.724.041-1.003.043-.292.164-.74.62-.984.454-.243.894-.095 1.161.03.255.121.551.319.858.523l.04.027 3.012 2.008.04.027c.284.189.563.375.762.555z" fill="#fff"/></svg>