<svg width="24" height="24" fill="none" xmlns="http://www.w3.org/2000/svg"><path fill-rule="evenodd" clip-rule="evenodd" d="M18.584 15.5h-.891c-.119 0-.223 0-.329-.007a3 3 0 0 1-1.199-.344c-.093-.05-.182-.105-.283-.168l-.02-.013c-.038-.024-.076-.048-.114-.07-.482-.302-.885-.553-1.15-.833a3 3 0 0 1 0-4.13c.265-.28.668-.531 1.15-.832l.114-.071.02-.013c.101-.063.19-.118.283-.168a3 3 0 0 1 1.2-.344c.105-.007.21-.007.328-.007h.891c.38 0 .709 0 1.001.058a3 3 0 0 1 2.357 2.357c.059.293.058.62.058 1.001v.168c0 .38 0 .709-.058 1.001a3 3 0 0 1-2.357 2.357c-.293.059-.62.058-1.001.058zm-.084-2c.513 0 .623-.005.695-.02a1 1 0 0 0 .786-.785c.014-.072.019-.182.019-.695 0-.513-.005-.623-.02-.695a1 1 0 0 0-.785-.786c-.072-.014-.182-.019-.695-.019h-.783c-.156 0-.186 0-.213.002a1 1 0 0 0-.4.115c-.024.013-.05.028-.182.111-.66.412-.81.517-.874.584a1 1 0 0 0 0 1.376c.064.068.215.172.874.584.132.082.158.098.182.11.124.067.26.106.4.116.027.002.057.002.213.002h.783zm-3-8.084v.891c0 .119 0 .223-.007.329a3 3 0 0 1-.512 1.482l-.013.02-.071.114c-.3.482-.552.885-.832 1.15a3 3 0 0 1-4.13 0c-.28-.265-.531-.668-.832-1.15a162.77 162.77 0 0 0-.071-.114l-.013-.02c-.063-.1-.118-.19-.168-.283a3 3 0 0 1-.344-1.2C8.5 6.53 8.5 6.426 8.5 6.308V5.5v-.084c0-.38 0-.708.058-1.001a3 3 0 0 1 2.357-2.357c.293-.059.62-.058 1.001-.058a77.105 77.105 0 0 0 .168 0c.38 0 .709 0 1.001.058a3 3 0 0 1 2.357 2.357c.059.293.058.62.058 1.001zm-2 .084c0-.513-.005-.623-.02-.695a1 1 0 0 0-.785-.786C12.623 4.005 12.513 4 12 4c-.513 0-.623.005-.695.02a1 1 0 0 0-.786.785c-.014.072-.019.183-.019.695v.783c0 .156 0 .186.002.213a1 1 0 0 0 .115.4c.013.024.028.05.111.182.412.66.517.81.584.874a1 1 0 0 0 1.376 0c.068-.064.172-.215.584-.874.082-.132.098-.158.11-.182a.999.999 0 0 0 .116-.4c.002-.027.002-.057.002-.213V5.5zm-8.084 3h.891a3 3 0 0 1 1.528.351c.093.05.182.105.283.168l.02.013.114.071c.482.301.885.552 1.15.832a3 3 0 0 1 0 4.13c-.265.28-.668.531-1.15.832a62.39 62.39 0 0 0-.114.071l-.02.013c-.101.063-.19.118-.283.168a3 3 0 0 1-1.2.344c-.105.007-.21.007-.328.007h-.891c-.38 0-.708 0-1.001-.058a3 3 0 0 1-2.357-2.357c-.059-.293-.058-.62-.058-1.001V12v-.084c0-.38 0-.708.058-1.001a3 3 0 0 1 2.357-2.357c.293-.059.62-.058 1.001-.058zm.084 2c-.513 0-.623.005-.695.02a1 1 0 0 0-.786.785C4.005 11.377 4 11.488 4 12c0 .513.005.623.02.695a1 1 0 0 0 .785.786c.072.014.182.02.695.02h.783c.156 0 .186-.002.213-.003a1 1 0 0 0 .4-.115c.024-.013.05-.028.182-.11.66-.413.81-.517.874-.585a1 1 0 0 0 0-1.376c-.064-.067-.215-.172-.874-.584a3.552 3.552 0 0 0-.182-.11 1 1 0 0 0-.4-.116 3.595 3.595 0 0 0-.213-.002H5.5zm3 8.084v-.867-.024c0-.119 0-.223.007-.329a3 3 0 0 1 .344-1.199c.05-.093.105-.182.168-.283l.013-.02.071-.114c.3-.482.552-.885.832-1.15a3 3 0 0 1 4.13 0c.28.265.531.668.832 1.15l.071.114.013.02c.063.101.118.19.168.283a3 3 0 0 1 .351 1.528v.891c0 .38 0 .709-.058 1.001a3 3 0 0 1-2.357 2.357c-.293.059-.62.058-1.001.058h-.168c-.38 0-.708 0-1.001-.058a3 3 0 0 1-2.357-2.357c-.059-.293-.058-.62-.058-1.001zm2-.084c0 .513.005.623.02.695a1 1 0 0 0 .785.786c.072.014.182.019.695.019.513 0 .623-.005.695-.02a1 1 0 0 0 .786-.785c.014-.072.019-.182.019-.695v-.783c0-.156 0-.186-.002-.213a1 1 0 0 0-.115-.4 3.522 3.522 0 0 0-.111-.182c-.412-.66-.516-.81-.584-.874a1 1 0 0 0-1.376 0c-.067.064-.172.215-.584.874a3.612 3.612 0 0 0-.11.182.998.998 0 0 0-.116.4 3.528 3.528 0 0 0-.002.213v.783z" fill="#fff"/></svg>