<svg width="24" height="24" fill="none" xmlns="http://www.w3.org/2000/svg"><path fill-rule="evenodd" clip-rule="evenodd" d="M12 4a8 8 0 1 0 0 16 8 8 0 0 0 0-16zM2 12C2 6.477 6.477 2 12 2s10 4.477 10 10-4.477 10-10 10S2 17.523 2 12z" fill="#fff"/><path d="M10.73 17.123l.33.15c.434.2.71.606.71 1.052 0 .649 1.021 1.925 1.73 1.925 2.14 0 2.948-.08 4.5-1.5.275-.252.75-1.143.75-1.5 0-.743-1.407-1.554-2.219-1.554h-.089c-.86 0-1.557-.638-1.557-1.426v-.476c0-1.05-.93-1.901-2.077-1.901H9.692c-.573 0-1.038-.426-1.038-.951 0-.525.465-.951 1.038-.951h.772c.721 0 1.305-.535 1.305-1.195v-.154c0-.74.792-1.262 1.558-1.028.766.233 1.558-.289 1.558-1.028v-.29c0-.564-.608-2.128-1.217-2.481-.104-.06-.229-.065-.35-.065h-1.886c-.121 0-.242-.013-.362-.026-.962-.107-1.986.318-2.82.776L6 6c-.957.526-1.5 1.764-1.5 2.786 0 .771.335 1.511.93 2.057l3.673 3.363c.377.345.59.814.59 1.303v.075c0 .652.401 1.247 1.038 1.539z" fill="#fff"/></svg>