<svg width="24" height="24" fill="none" xmlns="http://www.w3.org/2000/svg"><path fill-rule="evenodd" clip-rule="evenodd" d="M16 6H8c-1.47 0-2.373.004-3.025.092-.574.077-.67.187-.681.2a.025.025 0 0 1-.002.002c-.013.011-.123.107-.2.68C4.004 7.628 4 8.53 4 10v4c0 1.47.004 2.373.092 3.025.077.574.187.67.2.681v.001l.002.001c.011.013.107.123.68.2C5.628 17.996 6.53 18 8 18h8c1.47 0 2.373-.004 3.025-.092.574-.077.67-.187.681-.2h.001l.001-.002c.013-.011.123-.107.2-.68.088-.653.092-1.555.092-3.026v-4c0-1.47-.004-2.373-.092-3.025-.077-.574-.187-.67-.2-.681v-.001l-.002-.001c-.011-.013-.107-.123-.68-.2C18.372 6.004 17.47 6 16 6zM2.879 4.879C2 5.757 2 7.172 2 10v4c0 2.828 0 4.243.879 5.121C3.757 20 5.172 20 8 20h8c2.828 0 4.243 0 5.121-.879C22 18.243 22 16.828 22 14v-4c0-2.828 0-4.243-.879-5.121C20.243 4 18.828 4 16 4H8c-2.828 0-4.243 0-5.121.879z" fill="#fff"/><path fill-rule="evenodd" clip-rule="evenodd" d="M3.4 6.8l1.2-1.6 5.6 4.2c.597.447.976.73 1.286.91.288.168.422.19.514.19.092 0 .226-.022.514-.19.31-.18.69-.463 1.286-.91l5.6-4.2 1.2 1.6-5.643 4.232c-.541.406-1.014.76-1.437 1.007-.457.266-.945.461-1.52.461-.575 0-1.063-.195-1.52-.46-.423-.247-.896-.602-1.437-1.008L3.4 6.8z" fill="#fff"/></svg>