<svg width="24" height="24" fill="none" xmlns="http://www.w3.org/2000/svg"><path fill-rule="evenodd" clip-rule="evenodd" d="M6.934 3H17.066c.886 0 1.65 0 2.262.082.655.088 1.284.287 1.793.797.51.51.709 1.138.797 1.793C22 6.284 22 7.048 22 7.934v4.132c0 .886 0 1.65-.082 2.262-.088.655-.287 1.284-.797 1.793-.51.51-1.138.709-1.793.797-.612.082-1.376.082-2.262.082H6.934c-.886 0-1.65 0-2.262-.082-.655-.088-1.284-.287-1.793-.797-.51-.51-.709-1.138-.797-1.793C2 13.716 2 12.952 2 12.066V8v-.066c0-.886 0-1.65.082-2.262.088-.655.287-1.284.797-1.793.51-.51 1.138-.709 1.793-.797C5.284 3 6.048 3 6.934 3zM4.94 5.064c-.434.059-.57.153-.646.229-.076.076-.17.212-.229.646C4.002 6.4 4 7.029 4 8v4c0 .971.002 1.599.064 2.061.059.434.153.57.229.646.076.076.212.17.646.229C5.4 14.998 6.029 15 7 15h10c.971 0 1.599-.002 2.061-.064.434-.059.57-.153.646-.229.076-.076.17-.212.229-.646.062-.462.064-1.09.064-2.061V8c0-.971-.002-1.599-.064-2.061-.059-.434-.153-.57-.229-.646-.076-.076-.212-.17-.646-.229C18.6 5.002 17.971 5 17 5H7c-.971 0-1.599.002-2.061.064z" fill="#fff"/><path fill-rule="evenodd" clip-rule="evenodd" d="M6.046 15h11.908l.947 1.082c.582.665 1.09 1.246 1.409 1.738.316.487.666 1.216.308 2.006-.359.79-1.138 1.007-1.713 1.09-.58.084-1.352.084-2.236.084H7.331c-.884 0-1.656 0-2.236-.084-.574-.083-1.354-.3-1.712-1.09-.359-.79-.009-1.52.307-2.006.319-.492.827-1.073 1.41-1.738l.05-.058L6.046 15zm.908 2l-.299.341c-.647.74-1.057 1.212-1.287 1.567l-.016.025.03.004c.418.06 1.042.063 2.026.063h9.184c.984 0 1.608-.003 2.027-.063l.029-.004-.016-.025c-.23-.355-.64-.827-1.287-1.567L17.046 17H6.954zm11.816 2.17l-.002-.01.002.01zm.128-.297a.042.042 0 0 1 .01-.005l-.01.005zm-13.806-.005l.01.005a.038.038 0 0 1-.01-.005zm.14.292a.04.04 0 0 1-.002.01l.002-.01z" fill="#fff"/></svg>