<svg width="24" height="24" fill="none" xmlns="http://www.w3.org/2000/svg"><g clip-path="url(#clip0_878_25125)"><g clip-path="url(#clip1_878_25125)"><path fill-rule="evenodd" clip-rule="evenodd" d="M17.716 9.573a1 1 0 0 1-1.414.018l-2.208-2.152c-.68-.663-1.12-1.09-1.485-1.362-.342-.255-.503-.284-.609-.284-.106 0-.267.03-.61.284-.365.273-.805.699-1.484 1.362L7.698 9.59a1 1 0 0 1-1.396-1.432L8.556 5.96c.62-.604 1.155-1.126 1.64-1.487.52-.388 1.097-.68 1.804-.68.707 0 1.284.292 1.804.68.485.361 1.02.883 1.64 1.487l.046.046 2.208 2.152a1 1 0 0 1 .018 1.414zm0 4.854a1 1 0 0 1-.018 1.414l-2.254 2.198c-.62.604-1.155 1.126-1.64 1.487-.52.388-1.097.68-1.804.68-.707 0-1.284-.292-1.804-.68-.485-.361-1.02-.883-1.64-1.487L6.302 15.84a1 1 0 1 1 1.396-1.432l2.208 2.152c.68.663 1.12 1.089 1.485 1.361.342.256.503.285.609.285.106 0 .267-.03.61-.285.365-.272.805-.698 1.484-1.36l2.208-2.153a1 1 0 0 1 1.414.018z" fill="#fff"/></g></g><defs><clipPath id="clip0_878_25125"><path fill="#fff" d="M0 0H24V24H0z"/></clipPath><clipPath id="clip1_878_25125"><path fill="#fff" transform="rotate(90 12 12)" d="M0 0H24V24H0z"/></clipPath></defs></svg>