<svg width="24" height="24" fill="none" xmlns="http://www.w3.org/2000/svg"><path fill-rule="evenodd" clip-rule="evenodd" d="M9.573 6.284a1 1 0 0 1 .018 1.414L7.439 9.906c-.663.68-1.089 1.12-1.362 1.485-.255.342-.284.503-.284.609 0 .106.03.267.284.61.273.365.699.805 1.362 1.484l2.152 2.208a1 1 0 0 1-1.432 1.396l-2.198-2.254c-.604-.62-1.126-1.155-1.487-1.64-.388-.52-.68-1.097-.68-1.804 0-.707.292-1.284.68-1.804.361-.485.883-1.02 1.487-1.64l.046-.046 2.152-2.208a1 1 0 0 1 1.414-.018zm4.854 0a1 1 0 0 1 1.414.018l2.198 2.254c.604.62 1.126 1.155 1.487 1.64.388.52.68 1.097.68 1.804 0 .707-.292 1.284-.68 1.804-.361.485-.883 1.02-1.487 1.64l-2.198 2.254a1 1 0 1 1-1.432-1.396l2.152-2.208c.663-.68 1.089-1.12 1.361-1.485.256-.342.285-.503.285-.609 0-.106-.03-.267-.285-.61-.272-.365-.698-.805-1.36-1.484l-2.153-2.208a1 1 0 0 1 .018-1.414z" fill="#fff"/></svg>