<svg width="24" height="24" fill="none" xmlns="http://www.w3.org/2000/svg"><path fill-rule="evenodd" clip-rule="evenodd" d="M3.675 10.465C3.175 11.17 3 11.702 3 12c0 .298.174.83.675 1.535.48.676 1.188 1.406 2.061 2.08C7.496 16.975 9.787 18 12 18s4.503-1.025 6.264-2.385c.873-.674 1.581-1.404 2.062-2.08.5-.704.674-1.237.674-1.535 0-.298-.174-.83-.674-1.535-.48-.676-1.189-1.406-2.062-2.08C16.504 7.025 14.213 6 12 6S7.497 7.025 5.736 8.385c-.873.674-1.581 1.404-2.061 2.08zm.839-3.663C6.504 5.266 9.213 4 12 4s5.497 1.266 7.486 2.802c1.002.773 1.856 1.642 2.47 2.505C22.549 10.142 23 11.089 23 12c0 .91-.45 1.858-1.044 2.693-.614.863-1.468 1.732-2.47 2.505C17.496 18.734 14.787 20 12 20s-5.497-1.266-7.486-2.802c-1.002-.773-1.856-1.642-2.47-2.505C1.451 13.858 1 12.911 1 12c0-.91.45-1.858 1.044-2.693.614-.863 1.468-1.732 2.47-2.505z" fill="#fff"/><path fill-rule="evenodd" clip-rule="evenodd" d="M12 10a2 2 0 1 0 0 4 2 2 0 0 0 0-4zm-4 2a4 4 0 1 1 8 0 4 4 0 0 1-8 0z" fill="#fff"/></svg>