<svg width="24" height="24" fill="none" xmlns="http://www.w3.org/2000/svg"><path fill-rule="evenodd" clip-rule="evenodd" d="M18.898 2.048c.32.046.995.19 1.28.878.286.689-.09 1.267-.285 1.526-.209.278-.524.593-.848.917L19 5.414 17.414 7 19 8.586l.045.045c.324.324.64.639.848.917.195.259.571.837.286 1.526-.286.689-.96.832-1.281.878-.344.048-.79.048-1.249.048H7v9a1 1 0 1 1-2 0V5v-.054c0-.424 0-.837.046-1.176.051-.384.177-.821.54-1.184.363-.363.8-.489 1.183-.54C7.11 2 7.522 2 7.946 2H17.649c.459 0 .905 0 1.249.048zM7 10h10.586L16 8.414l-.028-.028a5.03 5.03 0 0 1-.435-.473 1.488 1.488 0 0 1-.33-.913c0-.41.179-.715.33-.913A5.041 5.041 0 0 1 16 5.586L17.586 4H8c-.5 0-.774.002-.964.028h-.007l-.001.008C7.002 4.226 7 4.5 7 5v5zm10.125-3.303zm0 .605v.001z" fill="#fff"/></svg>