<svg width="24" height="24" fill="none" xmlns="http://www.w3.org/2000/svg"><path fill-rule="evenodd" clip-rule="evenodd" d="M10.086 2.228a1 1 0 0 1 .828-.21c.752.148 2.297.603 3.373 2.01.847 1.107 1.295 2.658 1.021 4.773.797-.93 1.86-1.928 3.081-2.167.507-.1.982-.16 1.38-.114.207.024.463.084.703.24.264.17.449.42.54.71.15.477.003.955-.076 1.196-.08.244-.197.527-.31.797l-.065.16c-.548 1.334-1.19 3.116-.272 5.297.703 1.67.421 3.27-.151 4.483-.551 1.167-1.438 2.115-2.19 2.491a1 1 0 1 1-.895-1.788c.247-.124.86-.676 1.276-1.557.395-.835.546-1.831.116-2.854-1.248-2.966-.317-5.415.266-6.832l.078-.19.036-.086-.052.01c-.497.097-1.177.606-1.954 1.516-.737.86-1.406 1.89-1.927 2.714a85.66 85.66 0 0 0-.137.215c-.197.313-.379.6-.52.805-.08.114-.19.268-.313.39l-.003.002a1.157 1.157 0 0 1-.465.284 1.03 1.03 0 0 1-1.226-.525 1.163 1.163 0 0 1-.115-.551v-.004a2.13 2.13 0 0 1 .03-.285c.029-.169.077-.377.14-.614.125-.482.332-1.183.627-2.145.882-2.88.388-4.372-.212-5.157a3.107 3.107 0 0 0-.897-.784 23.195 23.195 0 0 0 .035.324c.04.356.082.729.082 1.086 0 .984-.306 1.832-1.156 3.08-.575.844-.613 1.974-.518 3.05.02.233.046.45.07.657l.009.073c.025.216.051.449.06.647.003.1.004.221-.01.345-.011.11-.042.31-.158.516a1.1 1.1 0 0 1-.796.55 1.206 1.206 0 0 1-.709-.118c-.514-.252-1.116-.72-1.658-1.169a63.43 63.43 0 0 1-1.06-.906l-.286-.247c.041.908-.047 2.021-.28 3.857-.188 1.482.157 2.247.521 2.72.2.259.438.47.703.68l.187.143c.21.16.469.358.654.54a1 1 0 1 1-1.398 1.429c-.094-.091-.197-.17-.353-.289-.09-.068-.196-.149-.328-.253a5.908 5.908 0 0 1-1.048-1.028c-.727-.942-1.168-2.253-.922-4.194.395-3.118.326-3.825.023-5.011a1.852 1.852 0 0 1-.064-.546c.01-.198.074-.572.412-.851a1.15 1.15 0 0 1 .92-.24c.2.032.37.107.485.164.43.215.982.67 1.473 1.088.216.184.43.37.645.557.297.258.594.515.893.764-.077-1.129-.032-2.714.88-4.054.722-1.06.81-1.516.81-1.954 0-.236-.027-.477-.067-.833a83.84 83.84 0 0 1-.026-.24A15.983 15.983 0 0 1 9.722 3a1 1 0 0 1 .364-.772zm-4.69 8.184zm-1.081.84zm15.231-2.744z" fill="#fff"/></svg>