<svg width="24" height="24" fill="none" xmlns="http://www.w3.org/2000/svg"><path fill-rule="evenodd" clip-rule="evenodd" d="M11.447 4.106C11.286 4.025 11.082 4 10 4H7c-.971 0-1.599.002-2.061.064-.434.059-.57.153-.646.229-.076.076-.17.212-.229.646C4.002 5.4 4 6.029 4 7v10c0 .971.002 1.599.064 2.061.059.434.153.57.229.646.076.076.212.17.646.229C5.4 19.998 6.029 20 7 20h5a1 1 0 1 1 0 2H6.934c-.886 0-1.65 0-2.262-.082-.655-.088-1.284-.287-1.793-.797-.51-.51-.709-1.138-.797-1.793C2 18.716 2 17.952 2 17.066V7v-.066c0-.886 0-1.65.082-2.262.088-.655.287-1.284.797-1.793.51-.51 1.138-.709 1.793-.797C5.284 2 6.048 2 6.934 2h3.234c.812-.002 1.534-.003 2.174.317.639.32 1.071.898 1.558 1.549L14 4l.6.8c.65.865.791 1.014.953 1.094.161.081.365.106 1.447.106h.066c.886 0 1.65 0 2.262.082.655.088 1.284.287 1.793.797.51.51.709 1.138.797 1.793.082.612.082 1.376.082 2.262V12a1 1 0 1 1-2 0v-1c0-.971-.002-1.599-.064-2.061-.059-.434-.153-.57-.229-.646-.076-.076-.212-.17-.646-.229C18.6 8.002 17.971 8 17 8h-.168c-.812.002-1.534.003-2.174-.317-.639-.32-1.071-.898-1.558-1.549L13 6l-.6-.8c-.65-.865-.791-1.014-.953-1.094z" fill="#fff"/><path d="M18.5 21a1 1 0 1 1-2 0 1 1 0 0 1 2 0z" fill="#fff"/><path fill-rule="evenodd" clip-rule="evenodd" d="M17.5 12a1 1 0 0 1 1 1v4.5a1 1 0 1 1-2 0V13a1 1 0 0 1 1-1zM2 6h16v2H2V6z" fill="#fff"/></svg>