<svg width="24" height="24" fill="none" xmlns="http://www.w3.org/2000/svg"><path fill-rule="evenodd" clip-rule="evenodd" d="M18.5 15a1 1 0 0 1 1 1v1.5H21a1 1 0 1 1 0 2h-1.5V21a1 1 0 1 1-2 0v-1.5H16a1 1 0 1 1 0-2h1.5V16a1 1 0 0 1 1-1z" fill="#fff"/><path fill-rule="evenodd" clip-rule="evenodd" d="M11.447 4.106C11.286 4.025 11.082 4 10 4H7c-.971 0-1.599.002-2.061.064-.434.059-.57.153-.646.229-.076.076-.17.212-.229.646A9.27 9.27 0 0 0 4.004 6H13l-.6-.8c-.65-.865-.791-1.014-.953-1.094zM15.5 6L14 4l-.1-.134c-.487-.651-.919-1.23-1.558-1.55-.64-.319-1.362-.318-2.174-.316H6.934c-.886 0-1.65 0-2.262.082-.655.088-1.284.287-1.793.797-.51.51-.709 1.138-.797 1.793C2 5.284 2 6.048 2 6.934V17.066c0 .886 0 1.65.082 2.262.088.655.287 1.284.797 1.793.51.51 1.138.709 1.793.797C5.284 22 6.048 22 6.934 22H11a1 1 0 1 0 0-2H7c-.971 0-1.599-.002-2.061-.064-.434-.059-.57-.153-.646-.229-.076-.076-.17-.212-.229-.646C4.002 18.6 4 17.971 4 17V8h13c.971 0 1.599.002 2.061.064.434.059.57.153.646.229.076.076.17.212.229.646.062.462.064 1.09.064 2.061v.5a1 1 0 1 0 2 0v-.566c0-.886 0-1.65-.082-2.262-.088-.655-.287-1.284-.797-1.793-.51-.51-1.138-.709-1.793-.797C18.716 6 17.952 6 17.066 6H15.5z" fill="#fff"/></svg>