<svg width="24" height="24" fill="none" xmlns="http://www.w3.org/2000/svg"><path d="M7.333 13.167c0-.155 0-.233.017-.296a.5.5 0 0 1 .354-.354c.064-.017.141-.017.296-.017s.233 0 .296.017a.5.5 0 0 1 .354.354c.017.063.017.14.017.296v.466c0 .095 0 .142.029.171.03.03.076.03.17.03h.467c.155 0 .233 0 .296.016a.5.5 0 0 1 .354.354c.017.063.017.141.017.296s0 .232-.017.296a.5.5 0 0 1-.354.354c-.063.017-.14.017-.296.017h-.466c-.095 0-.142 0-.171.029-.03.03-.03.076-.03.17v.467c0 .155 0 .233-.016.296a.5.5 0 0 1-.354.354c-.064.017-.141.017-.296.017s-.233 0-.296-.017a.5.5 0 0 1-.354-.354c-.017-.063-.017-.14-.017-.296v-.466c0-.095 0-.142-.029-.171-.03-.03-.076-.03-.17-.03h-.467c-.155 0-.233 0-.296-.016a.5.5 0 0 1-.354-.354C6 14.733 6 14.655 6 14.5s0-.232.017-.296a.5.5 0 0 1 .354-.354c.063-.017.14-.017.296-.017h.466c.095 0 .142 0 .171-.029.03-.03.03-.076.03-.17v-.467zm9.834-.417a.75.75 0 1 1-1.5 0 .75.75 0 0 1 1.5 0zm0 3.333a.75.75 0 1 1-1.5 0 .75.75 0 0 1 1.5 0zM15.5 14.417a.75.75 0 1 1-1.5 0 .75.75 0 0 1 1.5 0zm3.333 0a.75.75 0 1 1-1.5 0 .75.75 0 0 1 1.5 0z" fill="#fff"/><path fill-rule="evenodd" clip-rule="evenodd" d="M18 2a1 1 0 0 1 1 1v1.002c0 .534 0 1.039-.058 1.444-.065.446-.226.97-.711 1.35-.486.379-1.033.407-1.482.362-.407-.042-.896-.164-1.415-.294l-.062-.015-1.03-.258c-.602-.15-.948-.234-1.193-.26h-.01l-.001.01c-.036.244-.038.6-.038 1.22V10a1 1 0 1 1-2 0V7.562v-.064c0-.534 0-1.039.058-1.444.065-.446.226-.97.711-1.35.486-.379 1.033-.407 1.482-.362.407.042.897.164 1.415.294l.062.015 1.03.258c.602.15.948.234 1.193.26h.01l.001-.01c.035-.244.038-.6.038-1.22V3a1 1 0 0 1 1-1zm-1.069 3.3zm.162-.127h0zm-4.024 1.026zm-.162.128h-.003.003z" fill="#fff"/><path fill-rule="evenodd" clip-rule="evenodd" d="M7.5 11C5.663 11 4 12.69 4 15c0 1.95 1.203 3.484 2.681 3.89.028.007.065.01.13-.028a.609.609 0 0 0 .227-.272A2.696 2.696 0 0 1 9.497 17h5.006c1.061 0 2.024.622 2.459 1.59a.61.61 0 0 0 .227.272c.065.039.102.035.13.028C18.797 18.484 20 16.95 20 15c0-2.31-1.663-4-3.5-4h-9zM2 15c0-3.212 2.366-6 5.5-6h9c3.134 0 5.5 2.788 5.5 6 0 2.743-1.706 5.146-4.151 5.818-1.272.35-2.308-.511-2.71-1.408a.696.696 0 0 0-.636-.41H9.497a.696.696 0 0 0-.635.41c-.403.897-1.44 1.758-2.71 1.408C3.705 20.146 2 17.743 2 15z" fill="#fff"/></svg>