<svg width="24" height="24" fill="none" xmlns="http://www.w3.org/2000/svg"><path d="M9.6 3.205c.018.01.041.014.062.01a14.31 14.31 0 0 1 6.06 0c.021.004.044 0 .062-.01 1.48-.862 2.527-1.134 3.2-1.192.827-.072 1.454.48 1.668 1.126.29.87.337 1.794.139 2.684a.382.382 0 0 0 .062.312A5.421 5.421 0 0 1 22 9.452c0 2.249-.65 3.874-1.785 4.994-.997.985-2.27 1.479-3.505 1.746.174.48.25.996.213 1.515V21a1 1 0 0 1-2 0V17.67c0-.029.001-.057.004-.085a1.707 1.707 0 0 0-.155-.854 1.806 1.806 0 0 1-.017-1.427c.172-.419.56-.884 1.195-.999 1.175-.212 2.164-.594 2.86-1.282.67-.66 1.19-1.725 1.19-3.57 0-.746-.253-1.478-.73-2.094a2.382 2.382 0 0 1-.432-1.97c.098-.439.097-.892-.003-1.331-.408.089-1.08.314-2.044.876-.45.262-.984.346-1.493.236a12.31 12.31 0 0 0-5.212 0c-.508.11-1.042.055-1.492-.208-.965-.561-1.636-.787-2.044-.876-.1.44-.102.892-.004 1.332.15.674.005 1.403-.432 1.97a3.415 3.415 0 0 0-.73 2.091c0 1.831.522 2.889 1.195 3.55.701.687 1.698 1.073 2.882 1.296.63.118 1.014.58 1.184 1.002.168.417.196.943-.026 1.42a1.708 1.708 0 0 0-.16.847c.002.025.002.05.002.076V21a1 1 0 0 1-2 0v-.896c-.73.085-1.375.042-1.954-.112-.899-.24-1.536-.72-2.02-1.198a10.262 10.262 0 0 1-.612-.679l-.047-.055a8.888 8.888 0 0 0-.405-.46c-.264-.272-.365-.28-.423-.28a1 1 0 1 1 0-2c.865 0 1.456.473 1.856.884.176.18.347.383.496.56l.05.061c.172.202.327.383.495.549.324.322.668.564 1.125.685.343.091.804.13 1.44.026v-.382a3.687 3.687 0 0 1 .218-1.498c-1.231-.275-2.504-.771-3.502-1.75-1.137-1.116-1.793-2.734-1.793-4.974 0-1.205.41-2.364 1.146-3.318a.382.382 0 0 0 .063-.311 5.028 5.028 0 0 1 .138-2.685c.215-.645.841-1.197 1.668-1.126.674.059 1.72.302 3.2 1.164z" fill="#fff"/></svg>