<svg width="24" height="24" fill="none" xmlns="http://www.w3.org/2000/svg"><path fill-rule="evenodd" clip-rule="evenodd" d="M9.5 4a5 5 0 1 0 0 10 5 5 0 0 0 0-10zm-7 5a7 7 0 1 1 14 0 7 7 0 0 1-14 0z" fill="#fff"/><path fill-rule="evenodd" clip-rule="evenodd" d="M9.003 8.649C7.772 6.949 6.283 6 5 6V4c2.217 0 4.228 1.55 5.622 3.476C12.041 9.434 13 12.011 13 14.5h-2c0-2.01-.79-4.184-1.997-5.851z" fill="#fff"/><path fill-rule="evenodd" clip-rule="evenodd" d="M9.743 8.897c1.783-1.082 3.022-2.622 3.272-4.067l1.97.34c-.384 2.226-2.145 4.186-4.204 5.436-2.07 1.258-4.687 1.948-7.024 1.364l.486-1.94c1.663.416 3.73-.058 5.5-1.133z" fill="#fff"/><path fill-rule="evenodd" clip-rule="evenodd" d="M15.793 2.293a1 1 0 0 1 1.414 0c1.2 1.2 2.293 3.46 2.293 6.207 0 2.962-.945 5.601-2.78 7.506C14.88 17.917 12.23 19 9 19c-2.778 0-4.973-1.114-6.554-2.167a1 1 0 1 1 1.108-1.664C4.974 16.114 6.778 17 9 17c2.77 0 4.87-.917 6.28-2.381 1.415-1.47 2.22-3.581 2.22-6.119 0-2.253-.907-3.993-1.707-4.793a1 1 0 0 1 0-1.414z" fill="#fff"/><path fill-rule="evenodd" clip-rule="evenodd" d="M14.5 16a1 1 0 0 1 1 1v3h2a1 1 0 1 1 0 2H11a1 1 0 1 1 0-2h2.5v-3a1 1 0 0 1 1-1z" fill="#fff"/></svg>