<svg width="24" height="24" fill="none" xmlns="http://www.w3.org/2000/svg"><path fill-rule="evenodd" clip-rule="evenodd" d="M3 2a1 1 0 0 1 1 1v14c0 .971.002 1.599.064 2.061.059.434.153.57.229.646.076.076.212.17.646.229C5.4 19.998 6.029 20 7 20h14a1 1 0 1 1 0 2H6.934c-.886 0-1.65 0-2.262-.082-.655-.088-1.284-.287-1.793-.797-.51-.51-.709-1.138-.797-1.793C2 18.716 2 17.952 2 17.066V3a1 1 0 0 1 1-1zm17.148.511a1 1 0 0 1 .84 1.137l-.853 5.69v.003m.013-6.83a1 1 0 0 0-1.137.84zm-1.137.84l-.854 5.693zM13.545 7.61a2 2 0 0 1 2.167-.288c.401.193.663.543.837.8.186.275.396.643.64 1.068l.018.032c.306.536.509.89.67 1.13l.046.066a3.29 3.29 0 0 0 .018-.079c.064-.281.125-.683.216-1.291m-3.3.144l.036.05c.138.205.31.506.578.974m-.614-1.024a17.411 17.411 0 0 0-.325 1.149l-1.253 4.803c-.108.415-.204.78-.301 1.064-.094.273-.242.64-.545.919a2 2 0 0 1-2.112.38c-.38-.157-.647-.449-.83-.673-.19-.232-.407-.541-.653-.892l-.021-.03a13.242 13.242 0 0 0-.542-.742 13.226 13.226 0 0 0-.34.854l-.499 1.328a1 1 0 0 1-1.872-.702l.51-1.363c.134-.356.254-.675.37-.925.115-.248.287-.567.59-.804a2 2 0 0 1 2.041-.259c.351.155.598.421.771.632.175.213.37.492.588.804l.021.03a15.114 15.114 0 0 0 .614.84l.017-.047c.07-.203.146-.493.267-.955l1.254-4.805c.123-.473.23-.883.338-1.197.1-.294.262-.7.6-.99" fill="#fff"/></svg>