<svg width="24" height="24" fill="none" xmlns="http://www.w3.org/2000/svg"><path fill-rule="evenodd" clip-rule="evenodd" d="M21.707 11.293c.382.4.375 1.04-.015 1.43l-5.5 5.5a.974.974 0 0 1-1.399-.016c-.382-.4-.375-1.04.015-1.43l5.5-5.5a.974.974 0 0 1 1.399.016z" fill="#fff"/><path d="M14 19.95c0 .792-1.454 1.268-3.878.95-.532-.069.84-.316.97-.95.128-.633.408-.95 1.211-.95.803 0 1.697.425 1.697.95z" fill="#fff"/><path fill-rule="evenodd" clip-rule="evenodd" d="M11.768 19.619c-.06.05-.131.156-.187.43a1.079 1.079 0 0 1-.211.45c.61.012 1.104-.043 1.47-.14.292-.078.47-.175.568-.26.082-.07.091-.117.092-.144-.003.001-.028-.1-.282-.235a2.05 2.05 0 0 0-.915-.22c-.345 0-.477.07-.535.119zm1.732.331v.005zm-2.38-1.093c.316-.268.725-.357 1.183-.357.48 0 .986.125 1.384.337.362.192.813.558.813 1.113 0 .37-.176.679-.438.905-.251.218-.587.369-.963.47-.753.2-1.795.235-3.042.072a.998.998 0 0 1-.158-.033.579.579 0 0 1-.266-.165.52.52 0 0 1-.077-.581.59.59 0 0 1 .171-.203 1.39 1.39 0 0 1 .206-.123l.091-.046.007-.003.1-.051c.14-.072.268-.145.363-.222.095-.078.107-.12.107-.12v.001c.073-.36.207-.729.52-.994zM6.935 3h6.132c.886 0 1.65 0 2.262.082.655.088 1.284.287 1.793.797.51.51.709 1.138.797 1.793C18 6.284 18 7.048 18 7.934V9a1 1 0 1 1-2 0V8c0-.971-.002-1.599-.064-2.061-.059-.434-.153-.57-.229-.646-.076-.076-.212-.17-.646-.229C14.6 5.002 13.971 5 13 5H7c-.971 0-1.599.002-2.061.064-.434.059-.57.153-.646.229-.076.076-.17.212-.229.646C4.002 6.4 4 7.029 4 8v5c0 .971.002 1.599.064 2.061.059.434.153.57.229.646.076.076.212.17.646.229C5.4 15.998 6.029 16 7 16h.5a1 1 0 1 1 0 2h-.566c-.886 0-1.65 0-2.262-.082-.655-.088-1.284-.287-1.793-.797-.51-.51-.709-1.138-.797-1.793C2 14.716 2 13.952 2 13.066V8v-.066c0-.886 0-1.65.082-2.262.088-.655.287-1.284.797-1.793.51-.51 1.138-.709 1.793-.797C5.284 3 6.048 3 6.934 3z" fill="#fff"/><path fill-rule="evenodd" clip-rule="evenodd" d="M10.742 13.671a1.11 1.11 0 0 1-1.474.01L7.23 11.837c-.366-.332-.568-.512-.726-.62a.399.399 0 0 1-.006-.005.454.454 0 0 1-.006.004c-.158.11-.36.29-.727.621L3.733 13.68a1.11 1.11 0 0 1-1.475-.008.9.9 0 0 1 .01-1.352L4.3 10.48l.04-.037c.31-.281.613-.555.896-.75.32-.221.731-.428 1.261-.428.53 0 .943.206 1.262.427.283.195.585.47.896.75l.04.037 2.036 1.842a.9.9 0 0 1 .01 1.351z" fill="#fff"/><path fill-rule="evenodd" clip-rule="evenodd" d="M17.915 9.458c-.275.463-.909.634-1.414.381l-2.67-1.335a7.835 7.835 0 0 0-.657-.31c-.002 0-.003 0-.005-.002l-.005.004a7.37 7.37 0 0 0-.549.452L9.09 11.703a1.11 1.11 0 0 1-1.473-.039.9.9 0 0 1 .041-1.35l3.526-3.055.033-.028c.237-.206.474-.411.698-.565.255-.175.573-.341.984-.39a2.23 2.23 0 0 1 1.06.147c.258.097.545.24.832.383l.039.02 2.67 1.335c.506.253.692.833.416 1.297z" fill="#fff"/></svg>