<svg width="24" height="24" fill="none" xmlns="http://www.w3.org/2000/svg"><path fill-rule="evenodd" clip-rule="evenodd" d="M3 2a1 1 0 0 1 1 1v14c0 .971.002 1.599.064 2.061.059.434.153.57.229.646.076.076.212.17.646.229C5.4 19.998 6.029 20 7 20h14a1 1 0 1 1 0 2H6.934c-.886 0-1.65 0-2.262-.082-.655-.088-1.284-.287-1.793-.797-.51-.51-.709-1.138-.797-1.793C2 18.716 2 17.952 2 17.066V3a1 1 0 0 1 1-1zm3.9.505a1 1 0 0 1 1.095.896l.55 5.502c.057.57.096.952.14 1.221l.015.088.05-.074c.15-.228.34-.56.624-1.058a1 1 0 0 1 .036-.058l.832.554-.868-.496.017-.03c.21-.368.393-.687.553-.929.149-.225.371-.533.704-.726a2 2 0 0 1 2.423.322c.271.273.406.628.491.885.091.275.184.63.292 1.041l.008.031v.002l1.285 4.926a15.14 15.14 0 0 0 .284 1.002l.032-.039a15.055 15.055 0 0 0 .601-.828l.8.6-.82-.573.022-.03c.218-.312.413-.591.588-.804.173-.21.42-.477.771-.632a2 2 0 0 1 2.042.259c.302.237.474.556.589.804.116.25.236.57.37.925l.51 1.363a1 1 0 1 1-1.872.702l-.499-1.329a13.261 13.261 0 0 0-.34-.853c-.008.009-.016.02-.026.03a13.244 13.244 0 0 0-.535.738l-.8-.6m-4.937-5.155l1.294 4.961c.108.415.204.78.301 1.064.094.273.242.64.545.919a2 2 0 0 0 2.112.38c.38-.157.647-.449.83-.673.19-.232.407-.541.653-.892l.021-.03m-5.756-5.729a.971.971 0 0 0 .019.063l.948-.317-.967.253v.001zm0 0v-.001a17.21 17.21 0 0 0-.282-1.005c.05-.073.075-.099.075-.099s-.024.023-.069.049c-.036-.037-.053-.065-.053-.065s.016.031.047.115l-.034.05c-.119.18-.269.44-.5.846a1 1 0 0 1-.037.059l-.832-.555.868.496-.016.03c-.264.46-.485.847-.672 1.133-.165.25-.418.615-.796.817a2 2 0 0 1-2.522-.537c-.262-.338-.345-.774-.393-1.07-.055-.337-.1-.78-.152-1.308l-.004-.034a.97.97 0 0 0 .003.024l.992-.124-.995.1-.55-5.503a1 1 0 0 1 .896-1.095" fill="#fff"/></svg>