<svg width="24" height="24" fill="none" xmlns="http://www.w3.org/2000/svg"><path fill-rule="evenodd" clip-rule="evenodd" d="M6.934 2H17.066c.886 0 1.65 0 2.262.082.655.088 1.284.287 1.793.797.51.51.709 1.138.797 1.793C22 5.284 22 6.048 22 6.934v10.132c0 .886 0 1.65-.082 2.262-.088.655-.287 1.284-.797 1.793-.51.51-1.138.709-1.793.797-.612.082-1.376.082-2.262.082H6.934c-.886 0-1.65 0-2.262-.082-.655-.088-1.284-.287-1.793-.797-.51-.51-.709-1.138-.797-1.793C2 18.716 2 17.952 2 17.066V7v-.066c0-.886 0-1.65.082-2.262.088-.655.287-1.284.797-1.793.51-.51 1.138-.709 1.793-.797C5.284 2 6.048 2 6.934 2zM4.94 4.064c-.434.059-.57.153-.646.229-.076.076-.17.212-.229.646C4.002 5.4 4 6.029 4 7v10c0 .971.002 1.599.064 2.061.059.434.153.57.229.646.076.076.212.17.646.229C5.4 19.998 6.029 20 7 20h10c.971 0 1.599-.002 2.061-.064.434-.059.57-.153.646-.229.076-.076.17-.212.229-.646.062-.462.064-1.09.064-2.061V7c0-.971-.002-1.599-.064-2.061-.059-.434-.153-.57-.229-.646-.076-.076-.212-.17-.646-.229C18.6 4.002 17.971 4 17 4H7c-.971 0-1.599.002-2.061.064z" fill="#fff"/><path fill-rule="evenodd" clip-rule="evenodd" d="M7.5 2.5A.5.5 0 0 1 8 3v4.45h3.5V3a.5.5 0 0 1 1 0v4.45H16V3a.5.5 0 0 1 1 0v4.45h4a.5.5 0 0 1 0 1h-4v3.05h4a.5.5 0 0 1 0 1h-4v3.05h4a.5.5 0 0 1 0 1h-4V21a.5.5 0 0 1-1 0v-4.45h-3.5V21a.5.5 0 0 1-1 0v-4.45H8V21a.5.5 0 0 1-1 0v-4.45H3a.5.5 0 0 1 0-1h4V12.5H3a.5.5 0 0 1 0-1h4V8.45H3a.5.5 0 0 1 0-1h4V3a.5.5 0 0 1 .5-.5zM8 8.45v3.05h3.5V8.45H8zm4.5 0v3.05H16V8.45h-3.5zM16 12.5h-3.5v3.05H16V12.5zm-4.5 3.05V12.5H8v3.05h3.5z" fill="#fff"/></svg>