<svg width="18" height="18" fill="none" xmlns="http://www.w3.org/2000/svg"><path fill-rule="evenodd" clip-rule="evenodd" d="M9.313 3.114l2.475 1.291.01.007c.306.179.502.494.534.844l.041.465a.05.05 0 0 0 .007.023c.004.006.01.011.015.015a.038.038 0 0 0 .017.006c.003 0 .008 0 .016-.003a2.105 2.105 0 0 1 1.886.121l.162.095c.558.327.744 1.044.426 1.603L13.524 10c-.32.563-1.036.76-1.598.432l-.162-.095a2.146 2.146 0 0 1-1.043-1.585.051.051 0 0 0-.008-.023.046.046 0 0 0-.015-.014.038.038 0 0 0-.016-.005c-.004 0-.009 0-.017.004l-.418.196a1.075 1.075 0 0 1-.987-.038L6.818 7.6l-.01-.006a1.093 1.093 0 0 1-.493-1.257l.16-.668a2.709 2.709 0 0 0-.784-.124 9.628 9.628 0 0 0-.812.019l-.24.011c-.32.014-.703.024-1.01-.073a.985.985 0 0 1-.49-.324.963.963 0 0 1-.196-.607c0-.268.11-.502.248-.688.138-.186.324-.352.53-.496.411-.287.962-.527 1.569-.684 1.2-.311 2.75-.328 4.023.411zm-5.364 1.44a.366.366 0 0 1 .046-.076c.055-.075.152-.169.298-.27.293-.205.728-.403 1.247-.537 1.048-.272 2.307-.256 3.279.313l.01.006 2.47 1.288a.09.09 0 0 1 .037.067l.041.465a1.041 1.041 0 0 0 1.441.872c.322-.136.688-.113.99.065l.163.094c.08.047.112.157.062.245l-1.378 2.419a.162.162 0 0 1-.224.063l-.162-.094a1.147 1.147 0 0 1-.556-.848 1.04 1.04 0 0 0-1.472-.817l-.418.196A.075.075 0 0 1 9.753 8l-.011-.006-2.435-1.268a.094.094 0 0 1-.033-.105l.006-.018.184-.768c.11-.377-.035-.846-.465-1.035-.418-.184-.867-.242-1.275-.255-.319-.01-.642.006-.92.02a28.17 28.17 0 0 1-.208.01c-.331.015-.531.009-.647-.022z" fill="#fff"/><path fill-rule="evenodd" clip-rule="evenodd" d="M2.665 13.488l3.797-6.734.87.492-3.809 6.757-.008.012a.094.094 0 0 0 .028.13l1.062.622c.036.02.086.01.11-.036l.004-.01L8.505 7.84l.876.482-3.777 6.867c-.282.55-.966.757-1.504.442l-1.062-.621a1.094 1.094 0 0 1-.373-1.52z" fill="#fff"/></svg>