<svg width="24" height="24" fill="none" xmlns="http://www.w3.org/2000/svg"><path fill-rule="evenodd" clip-rule="evenodd" d="M10.856 3a1 1 0 0 1 1-1C17.443 2 22 6.462 22 12s-4.557 10-10.144 10c-4.717 0-8.694-3.177-9.823-7.497a1 1 0 0 1 1.934-.506C4.867 17.44 8.051 20 11.856 20 16.369 20 20 16.403 20 12c0-4.403-3.631-8-8.144-8a1 1 0 0 1-1-1z" fill="#fff"/><path fill-rule="evenodd" clip-rule="evenodd" d="M11 7a1 1 0 0 1 1-1 6 6 0 1 1-5.848 4.65 1 1 0 0 1 1.95.45A4 4 0 1 0 12 8a1 1 0 0 1-1-1z" fill="#fff"/><path d="M14 12a2 2 0 1 1-4 0 2 2 0 0 1 4 0z" fill="#fff"/></svg>