<svg width="24" height="24" viewBox="0 0 24 24" fill="none" xmlns="http://www.w3.org/2000/svg">
<path fill-rule="evenodd" clip-rule="evenodd" d="M10.856 3C10.856 2.44772 11.3037 2 11.856 2C17.4433 2 22 6.46224 22 12C22 17.5378 17.4433 22 11.856 22C7.139 22 3.16235 18.8235 2.03253 14.503C1.89281 13.9687 2.21269 13.4223 2.74701 13.2825C3.28132 13.1428 3.82774 13.4627 3.96747 13.997C4.86782 17.44 8.05141 20 11.856 20C16.3688 20 20 16.4034 20 12C20 7.59663 16.3688 4 11.856 4C11.3037 4 10.856 3.55228 10.856 3Z" fill="white"/>
<path fill-rule="evenodd" clip-rule="evenodd" d="M11 7C11 6.44772 11.4477 6 12 6C15.3137 6 18 8.68629 18 12C18 15.3137 15.3137 18 12 18C8.68629 18 6 15.3137 6 12C6 11.5372 6.05258 11.0855 6.1525 10.6509C6.27626 10.1127 6.81291 9.77667 7.35115 9.90043C7.88939 10.0242 8.2254 10.5608 8.10164 11.0991C8.03528 11.3877 8 11.6891 8 12C8 14.2091 9.79086 16 12 16C14.2091 16 16 14.2091 16 12C16 9.79086 14.2091 8 12 8C11.4477 8 11 7.55228 11 7Z" fill="white"/>
<path d="M14 12C14 13.1046 13.1046 14 12 14C10.8954 14 10 13.1046 10 12C10 10.8954 10.8954 10 12 10C13.1046 10 14 10.8954 14 12Z" fill="white"/>
</svg>
