<svg width="24" height="24" fill="none" xmlns="http://www.w3.org/2000/svg"><path fill-rule="evenodd" clip-rule="evenodd" d="M2.878 3.962a6.358 6.358 0 0 1 4.637-1.96 6.58 6.58 0 0 1 3.075.984c.522.324.995.719 1.41 1.17a6.764 6.764 0 0 1 1.41-1.17A6.58 6.58 0 0 1 16.546 2c1.723 0 3.369.71 4.576 1.962A6.762 6.762 0 0 1 23 8.655c0 1.655-.747 3.309-1.73 4.79-.992 1.498-2.299 2.927-3.577 4.156a45.462 45.462 0 0 1-5.093 4.2l-.024.017-.007.004-.002.001L12 21l-.57.821-.003-.002-.007-.004-.024-.017a23.864 23.864 0 0 1-.417-.3 46.419 46.419 0 0 1-4.673-3.925c-1.278-1.233-2.583-2.664-3.576-4.158C1.749 11.94 1 10.294 1 8.655c0-1.754.672-3.442 1.878-4.693zM12 21l-.57.821a1 1 0 0 0 1.136.003L12 21zm.003-1.233a43.462 43.462 0 0 0 4.304-3.609c1.222-1.174 2.415-2.489 3.297-3.818C20.497 10.993 21 9.736 21 8.655a4.762 4.762 0 0 0-1.317-3.305A4.36 4.36 0 0 0 16.576 4a4.58 4.58 0 0 0-2.11.684c-.644.401-1.19.958-1.59 1.627l-.006.01a1.101 1.101 0 0 1-.087.124 1.01 1.01 0 0 1-1.653-.124l-.006-.01a4.829 4.829 0 0 0-1.59-1.627A4.58 4.58 0 0 0 7.424 4a4.36 4.36 0 0 0-3.107 1.35A4.762 4.762 0 0 0 3 8.655c0 1.06.501 2.308 1.395 3.653.882 1.327 2.077 2.645 3.3 3.825a44.396 44.396 0 0 0 4.308 3.634zm-.844-14.482l.004-.006-.004.006zm1.678-.006c.01.016.013.022.004.006l-.004-.006z" fill="#fff"/></svg>