<svg width="24" height="24" fill="none" xmlns="http://www.w3.org/2000/svg"><path fill-rule="evenodd" clip-rule="evenodd" d="M8.432 4a1 1 0 0 1 .955.832l1.833 10.736 1.983-6.759a1 1 0 0 1 1.914-.017l1.677 5.362.43-1.18.014-.04c.104-.284.208-.569.323-.801.132-.266.32-.55.635-.771.316-.221.647-.3.942-.333.258-.03.561-.03.863-.029H21a1 1 0 1 1 0 2h-.957c-.36 0-.55.002-.682.016l-.006.001c0 .002-.002.004-.003.005-.06.12-.125.297-.248.636l-1.442 3.957a1 1 0 0 1-1.894-.044l-1.575-5.033-2.272 7.744a1 1 0 0 1-1.945-.114l-1.73-10.132-1.432 6.102a1 1 0 0 1-1.92.095l-.877-2.557a7.212 7.212 0 0 0-.241-.653l-.003-.005-.006-.001A7.203 7.203 0 0 0 3.072 13H3a1 1 0 1 1 0-2H3.114c.308 0 .617 0 .879.03.3.034.636.115.955.343.319.227.505.52.634.792.025.052.049.106.072.162l1.774-7.555A1 1 0 0 1 8.432 4z" fill="#fff"/></svg>