<svg width="24" height="24" fill="none" xmlns="http://www.w3.org/2000/svg"><path fill-rule="evenodd" clip-rule="evenodd" d="M4.342 10H14.658c.302-.001.674-.003 1.003.112a2 2 0 0 1 1.227 1.227c.115.33.113.701.112 1.003V14.544c0 .422 0 .685-.015.914a7 7 0 0 1-6.527 6.527c-.23.015-.492.015-.914.015h-.088c-.422 0-.685 0-.914-.015a7 7 0 0 1-6.527-6.527C2 15.228 2 14.966 2 14.544v-2.115-.087c-.001-.302-.003-.674.112-1.003a2 2 0 0 1 1.227-1.227c.33-.115.7-.113 1.003-.112zm-.336 2.006v.012c-.006.084-.006.2-.006.41V14.5c0 .48 0 .672.01.827a5 5 0 0 0 4.663 4.662c.155.01.347.011.827.011s.672 0 .827-.01a5 5 0 0 0 4.662-4.663c.01-.155.011-.347.011-.827v-2.071c0-.212 0-.327-.005-.41l-.001-.013h-.012a8.121 8.121 0 0 0-.41-.006H4.428c-.212 0-.327 0-.41.005l-.013.001z" fill="#fff"/><path fill-rule="evenodd" clip-rule="evenodd" d="M17.222 12H12v-2h5.222C19.34 10 21 11.73 21 13.908 21 16.002 19.417 18 17.222 18h-1.11v-2h1.11c.874 0 1.778-.873 1.778-2.092C19 12.77 18.173 12 17.222 12zM6.635 2.106a1 1 0 0 1 .447 1.341l-.106.212a6.719 6.719 0 0 0-.245.518l.002.005c.052.098.137.227.305.479l.064.095.056.083c.207.307.47.699.533 1.168.063.47-.088.917-.207 1.268a20.19 20.19 0 0 0-.032.094l-.316.947a1 1 0 1 1-1.897-.632l.315-.947a6.44 6.44 0 0 0 .144-.458v-.005a6.435 6.435 0 0 0-.261-.408l-.063-.096-.02-.03a7.77 7.77 0 0 1-.386-.618 1.978 1.978 0 0 1-.248-.82c-.02-.326.054-.606.145-.844.079-.207.193-.436.306-.662l.016-.031.106-.212a1 1 0 0 1 1.342-.447zm8.125 0a1 1 0 0 1 .447 1.341l-.106.212a6.744 6.744 0 0 0-.245.518l.002.005c.053.098.137.227.305.479l.064.095.056.083c.207.307.47.699.534 1.168.062.47-.09.917-.208 1.268l-.032.094-.316.947a1 1 0 0 1-1.897-.632l.316-.947c.08-.244.121-.368.143-.458v-.005c0-.001 0-.003-.002-.004a6.452 6.452 0 0 0-.258-.404l-.064-.096a1.98 1.98 0 0 1-.654-1.468 1.98 1.98 0 0 1 .145-.844c.079-.207.193-.436.306-.662l.016-.031.106-.212a1 1 0 0 1 1.342-.447z" fill="#fff"/></svg>