<svg width="24" height="24" fill="none" xmlns="http://www.w3.org/2000/svg"><path fill-rule="evenodd" clip-rule="evenodd" d="M5 10v7c0 .971.002 1.599.064 2.061.059.434.153.57.229.646.076.076.212.17.646.229C6.4 19.998 7.029 20 8 20h8c.971 0 1.599-.002 2.061-.064.434-.059.57-.153.646-.229.076-.076.17-.212.229-.646.062-.462.064-1.09.064-2.061v-7h2v7.066c0 .886 0 1.65-.082 2.262-.088.655-.287 1.284-.797 1.793-.51.51-1.138.709-1.793.797-.612.082-1.376.082-2.262.082H7.934c-.886 0-1.65 0-2.262-.082-.655-.088-1.284-.287-1.793-.797-.51-.51-.709-1.138-.797-1.793C3 18.716 3 17.952 3 17.066V10h2z" fill="#fff"/><path fill-rule="evenodd" clip-rule="evenodd" d="M11.382 4.123c-.371.283-.817.726-1.503 1.412l-6.172 6.172a1 1 0 1 1-1.414-1.414L8.464 4.12l.047-.046c.627-.627 1.167-1.167 1.658-1.542.525-.4 1.11-.705 1.831-.705.72 0 1.306.304 1.832.705.49.375 1.03.915 1.657 1.542l6.218 6.218a1 1 0 0 1-1.414 1.414L14.12 5.535c-.686-.686-1.132-1.129-1.503-1.412-.348-.265-.51-.295-.618-.295-.108 0-.27.03-.618.295z" fill="#fff"/><path d="M9 17c0-.932 0-1.398.152-1.765a2 2 0 0 1 1.083-1.083C10.602 14 11.068 14 12 14c.932 0 1.398 0 1.765.152a2 2 0 0 1 1.083 1.083C15 15.602 15 16.068 15 17v4H9v-4zm7-12.5c0-.466 0-.699.076-.883a1 1 0 0 1 .541-.54C16.801 3 17.034 3 17.5 3s.699 0 .883.076a1 1 0 0 1 .54.541c.077.184.077.417.077.883V10l-3-3.5v-2z" fill="#fff"/></svg>