<svg width="24" height="24" fill="none" xmlns="http://www.w3.org/2000/svg"><path fill-rule="evenodd" clip-rule="evenodd" d="M8.72 5.625a1 1 0 0 1 .155-1.406l2.5-2a1 1 0 0 1 1.25 0l2.5 2a1 1 0 1 1-1.25 1.562L13 5.08V11a1 1 0 1 1-2 0V5.08l-.875.7a1 1 0 0 1-1.406-.155zm-.546 9.396c-.078-.016-.168-.021-.628-.021H4v2c0 .971.002 1.599.064 2.061.059.434.153.57.229.646.076.076.212.17.646.229C5.4 19.998 6.029 20 7 20h10c.971 0 1.599-.002 2.061-.064.434-.059.57-.153.646-.229.076-.076.17-.212.229-.646.062-.462.064-1.09.064-2.061v-2h-3.547c-.46 0-.549.005-.627.021a.959.959 0 0 0-.103.027c-.075.025-.155.065-.555.293l-.162.093c-.993.569-1.744.999-2.582 1.088-.282.03-.566.03-.848 0-.838-.09-1.59-.52-2.582-1.088l-.162-.093c-.4-.228-.48-.268-.555-.292a.96.96 0 0 0-.103-.028zM7.617 13c.35 0 .66 0 .967.064.104.021.207.049.308.081.298.097.567.25.87.425l.062.035c1.231.703 1.597.89 1.964.928.14.016.283.016.424 0 .367-.039.733-.225 1.964-.928l.061-.035c.304-.174.573-.328.871-.425a3.01 3.01 0 0 1 .308-.081c.307-.065.617-.064.967-.064H22v4.066c0 .886 0 1.65-.082 2.262-.088.655-.287 1.284-.797 1.793-.51.51-1.138.709-1.793.797-.612.082-1.376.082-2.262.082H6.934c-.886 0-1.65 0-2.262-.082-.655-.088-1.284-.287-1.793-.797-.51-.51-.709-1.138-.797-1.793C2 18.716 2 17.952 2 17.066V13h5.617z" fill="#fff"/><path fill-rule="evenodd" clip-rule="evenodd" d="M18.001 8.046c-.112-.035-.258-.046-.99-.046H16.5a1 1 0 1 1 0-2h.627c.549 0 1.03-.001 1.475.139a3 3 0 0 1 1.346.875c.31.349.504.79.727 1.291l.046.106.93 2.09.014.034c.076.17.144.322.194.482.06.187.1.38.123.576.018.166.018.332.018.519v1.887a1 1 0 1 1-2 0v-1.85c0-.245-.001-.293-.006-.335a1.006 1.006 0 0 0-.04-.192 3.574 3.574 0 0 0-.131-.31l-.93-2.089c-.296-.668-.366-.798-.443-.885A1 1 0 0 0 18 8.046zM7.031 6H7.5a1 1 0 0 1 0 2h-.359c-.697 0-.836.01-.944.043a1 1 0 0 0-.438.27c-.077.082-.148.202-.46.826L4.218 11.3a3.548 3.548 0 0 0-.16.337 1 1 0 0 0-.05.212c-.006.047-.008.1-.008.372V14a1 1 0 1 1-2 0v-1.778-.042c0-.207 0-.39.023-.576a3 3 0 0 1 .15-.635 4.65 4.65 0 0 1 .237-.525l.019-.037 1.08-2.163.05-.098c.234-.47.44-.881.746-1.206a3 3 0 0 1 1.313-.812c.429-.13.89-.129 1.413-.128z" fill="#fff"/></svg>