<svg width="24" height="24" fill="none" xmlns="http://www.w3.org/2000/svg"><path fill-rule="evenodd" clip-rule="evenodd" d="M12 4a8 8 0 1 0 0 16 8 8 0 0 0 0-16zM2 12C2 6.477 6.477 2 12 2s10 4.477 10 10-4.477 10-10 10S2 17.523 2 12z" fill="#fff"/><path fill-rule="evenodd" clip-rule="evenodd" d="M11.39 10.649a2.501 2.501 0 0 0-.741.74l-2.963 4.58c-.146.226.12.492.346.345l4.579-2.963a2.5 2.5 0 0 0 .74-.74l2.963-4.58c.146-.226-.12-.491-.346-.345l-4.579 2.963zM11 13a1.414 1.414 0 1 0 2-2 1.414 1.414 0 0 0-2 2z" fill="#fff"/><path fill-rule="evenodd" clip-rule="evenodd" d="M15.26 8.74l-2.397 1.55a1.911 1.911 0 0 1 .846.847l1.552-2.398zm-4.123 4.97a1.91 1.91 0 0 1-.846-.847L8.74 15.261l2.397-1.552zm4.56-6.444c.678-.44 1.476.359 1.037 1.037l-2.963 4.58a3 3 0 0 1-.889.888l-4.579 2.963c-.678.439-1.476-.359-1.037-1.037l2.963-4.58a3 3 0 0 1 .889-.888l4.579-2.963zm-3.05 4.088a.914.914 0 1 0-1.293 1.292.914.914 0 0 0 1.292-1.292z" fill="#fff"/></svg>