<svg width="24" height="24" fill="none" xmlns="http://www.w3.org/2000/svg"><path fill-rule="evenodd" clip-rule="evenodd" d="M9.934 2h4.132c.886 0 1.65 0 2.262.082.655.088 1.284.287 1.793.797.51.51.709 1.138.797 1.793C19 5.284 19 6.048 19 6.934v10.132c0 .886 0 1.65-.082 2.262-.088.655-.287 1.284-.797 1.793-.51.51-1.138.709-1.793.797-.612.082-1.376.082-2.262.082H9.934c-.886 0-1.65 0-2.262-.082-.655-.088-1.284-.287-1.793-.797-.51-.51-.709-1.138-.797-1.793C5 18.716 5 17.952 5 17.066V7v-.066c0-.886 0-1.65.082-2.262.088-.655.287-1.284.797-1.793.51-.51 1.138-.709 1.793-.797C8.284 2 9.048 2 9.934 2zM7.94 4.064c-.434.059-.57.153-.646.229-.076.076-.17.212-.229.646C7.002 5.4 7 6.029 7 7v10c0 .971.002 1.599.064 2.061.059.434.153.57.229.646.076.076.212.17.646.229C8.4 19.998 9.029 20 10 20h4c.971 0 1.599-.002 2.061-.064.434-.059.57-.153.646-.229.076-.076.17-.212.229-.646.062-.462.064-1.09.064-2.061V7c0-.971-.002-1.599-.064-2.061-.059-.434-.153-.57-.229-.646-.076-.076-.212-.17-.646-.229C15.6 4.002 14.971 4 14 4h-4c-.971 0-1.599.002-2.061.064z" fill="#fff"/><path d="M10 5h4a1 1 0 1 0 0-2h-4a1 1 0 1 0 0 2z" fill="#fff"/><path fill-rule="evenodd" clip-rule="evenodd" d="M15.5 18a.5.5 0 0 1-.5.5H9a.5.5 0 0 1 0-1h6a.5.5 0 0 1 .5.5z" fill="#fff"/></svg>