<svg width="24" height="24" fill="none" xmlns="http://www.w3.org/2000/svg"><g clip-path="url(#clip0_878_22305)"><path fill-rule="evenodd" clip-rule="evenodd" d="M20.5 22H3a1 1 0 1 1 0-2h17.5a1 1 0 1 1 0 2zM14.33 5.275l1.93 3.462c.334.597.407.707.493.788.086.081.2.148.814.448l2.709 1.319a2.911 2.911 0 0 1-2.226 5.368L5.06 12.168c-.462-.159-.866-.299-1.193-.444-.351-.156-.683-.348-.972-.646a3 3 0 0 1-.552-.794c-.178-.375-.242-.753-.266-1.137-.022-.357-.012-.785 0-1.272l.005-.244c.025-1.061.045-1.925.114-2.557.035-.322.089-.641.185-.923.094-.276.267-.625.614-.869a2 2 0 0 1 1.487-.336c.418.072.724.312.928.521.208.213.393.478.563.754.335.54.724 1.312 1.203 2.26l.023.046a6.211 6.211 0 0 0 .14.266l.003.002c.054.02.13.043.283.089l.833.251a9.688 9.688 0 0 0 .82.227 9.685 9.685 0 0 0 .057-.85l.002-.051c.04-.916.071-1.672.144-2.23.038-.288.093-.577.187-.837.094-.258.257-.57.563-.8a2 2 0 0 1 1.562-.372c.378.069.664.274.864.463.2.19.38.423.542.662.317.467.685 1.127 1.131 1.928zm-3.063-1.15l.004.002zm.213.254c.02.028.042.058.064.092.261.384.587.966 1.065 1.823l1.905 3.417.051.092c.253.454.476.856.814 1.175.337.32.751.52 1.218.747l.095.046L19.4 13.09a.911.911 0 0 1-.697 1.68L5.75 10.291c-.509-.176-.83-.288-1.07-.395-.224-.1-.304-.164-.348-.21a1 1 0 0 1-.184-.264c-.027-.057-.06-.154-.075-.4-.016-.26-.01-.601.003-1.14l.004-.152c.026-1.126.045-1.902.104-2.438a5.37 5.37 0 0 1 .016-.133c.023.034.047.072.072.113.283.459.634 1.152 1.142 2.157l.028.055c.103.206.234.466.435.68a2 2 0 0 0 .365.307c.246.16.525.244.745.31l.06.018.873.263c.347.105.676.204.955.259.3.059.673.095 1.066-.038a2 2 0 0 0 .933-.663c.255-.327.344-.692.387-.994.04-.281.055-.624.07-.987l.002-.042c.042-.98.071-1.646.131-2.107l.016-.111z" fill="#fff"/></g><defs><clipPath id="clip0_878_22305"><path fill="#fff" d="M0 0H24V24H0z"/></clipPath></defs></svg>