<svg width="24" height="24" fill="none" xmlns="http://www.w3.org/2000/svg"><path fill-rule="evenodd" clip-rule="evenodd" d="M12 2a1 1 0 0 1 1 1v2.054c2.297.248 4.333 1.351 5.617 3.107l.055.076c.331.452.709.966.88 1.53.216.71.093 1.384-.266 2.09-.193.38-.443.709-.774.968a2.82 2.82 0 0 1-1.07.508c-.567.143-1.247.164-1.967.167a6.227 6.227 0 0 1-.02.212c-.047.42-.148.894-.393 1.336-.555.998-1.608 1.452-3.062 1.452-1.454 0-2.507-.454-3.062-1.452-.245-.442-.346-.916-.393-1.336a6.006 6.006 0 0 1-.02-.212c-.72-.003-1.4-.024-1.968-.167a2.82 2.82 0 0 1-1.07-.508 2.827 2.827 0 0 1-.773-.967c-.359-.707-.482-1.381-.266-2.091.171-.563.548-1.078.88-1.53l.055-.076C6.667 6.405 8.703 5.302 11 5.054V3a1 1 0 0 1 1-1zm-1.466 11.5c.032.278.087.458.153.577.07.127.267.423 1.313.423 1.046 0 1.243-.296 1.313-.423.066-.119.121-.299.153-.577h-2.932zm4.466-2c.998 0 1.56-.007 1.953-.107a.838.838 0 0 0 .325-.142.844.844 0 0 0 .224-.298c.197-.388.162-.521.136-.605-.06-.198-.219-.437-.636-1.007C15.955 7.91 14.14 7 12 7c-2.14 0-3.955.91-5.002 2.341-.417.57-.576.81-.636 1.007-.026.084-.061.217.136.605.085.168.162.25.224.298.062.05.156.1.324.143.394.099.956.106 1.954.106h6z" fill="#fff"/></svg>