<svg width="24" height="24" fill="none" xmlns="http://www.w3.org/2000/svg"><path fill-rule="evenodd" clip-rule="evenodd" d="M8.247 5.04C7.43 5.958 7 7.212 7 8.5c0 1.253.408 2.16.878 3.021l.191.345c.181.322.376.67.526.996.218.471.405 1.018.405 1.638a1 1 0 1 1-2 0c0-.213-.063-.458-.22-.8-.116-.25-.251-.491-.414-.782a43.003 43.003 0 0 1-.244-.44C5.592 11.507 5 10.248 5 8.5c0-1.713.57-3.459 1.753-4.79C7.952 2.363 9.729 1.5 12 1.5s4.048.862 5.247 2.21C18.43 5.042 19 6.788 19 8.5c0 1.747-.592 3.006-1.122 3.979l-.244.44c-.163.29-.298.53-.413.781-.158.342-.221.587-.221.8a1 1 0 1 1-2 0c0-.62.187-1.167.405-1.638.15-.326.345-.674.526-.996l.191-.345c.47-.86.878-1.768.878-3.021 0-1.287-.43-2.541-1.247-3.46C14.952 4.137 13.729 3.5 12 3.5s-2.952.638-3.753 1.54zM7.5 17.5a1 1 0 0 1 1-1h7a1 1 0 1 1 0 2h-7a1 1 0 0 1-1-1zM9 21a1 1 0 0 1 1-1h4a1 1 0 1 1 0 2h-4a1 1 0 0 1-1-1z" fill="#fff"/></svg>