<svg width="24" height="24" fill="none" xmlns="http://www.w3.org/2000/svg"><path fill-rule="evenodd" clip-rule="evenodd" d="M12 4C9.254 4 7 6.228 7 8.953c0 1.196.27 2.377.792 3.454l2.106 4.352c.524 1.084.885 1.827 1.2 2.341.327.53.493.622.538.64a1 1 0 0 0 .728 0c.045-.018.211-.11.537-.64.316-.514.677-1.257 1.201-2.341l2.106-4.352A7.93 7.93 0 0 0 17 8.953C17 6.228 14.746 4 12 4zM5 8.953C5 5.103 8.17 2 12 2s7 3.103 7 6.953a9.93 9.93 0 0 1-.991 4.325l-2.13 4.403c-.495 1.02-.899 1.856-1.274 2.466-.372.605-.828 1.188-1.514 1.456a3 3 0 0 1-2.182 0c-.686-.268-1.142-.85-1.514-1.456-.375-.61-.78-1.446-1.273-2.466l-2.13-4.403A9.93 9.93 0 0 1 5 8.953z" fill="#fff"/><path d="M14 9a2 2 0 1 1-4 0 2 2 0 0 1 4 0z" fill="#fff"/></svg>