<svg width="24" height="24" fill="none" xmlns="http://www.w3.org/2000/svg"><path fill-rule="evenodd" clip-rule="evenodd" d="M7.934 9H16.066c.886 0 1.65 0 2.262.082.655.088 1.284.287 1.793.797.51.51.709 1.138.797 1.793.082.612.082 1.376.082 2.262v3.132c0 .886 0 1.65-.082 2.262-.088.655-.287 1.284-.797 1.793-.51.51-1.138.709-1.793.797-.612.082-1.376.082-2.262.082H7.934c-.886 0-1.65 0-2.262-.082-.655-.088-1.284-.287-1.793-.797-.51-.51-.709-1.138-.797-1.793C3 18.716 3 17.952 3 17.066V14v-.066c0-.886 0-1.65.082-2.262.088-.655.287-1.284.797-1.793.51-.51 1.138-.709 1.793-.797C6.284 9 7.048 9 7.934 9zM5.94 11.064c-.434.059-.57.153-.646.229-.076.076-.17.212-.229.646C5.002 12.4 5 13.029 5 14v3c0 .971.002 1.599.064 2.061.059.434.153.57.229.646.076.076.212.17.646.229C6.4 19.998 7.029 20 8 20h8c.971 0 1.599-.002 2.061-.064.434-.059.57-.153.646-.229.076-.076.17-.212.229-.646.062-.462.064-1.09.064-2.061v-3c0-.971-.002-1.599-.064-2.061-.059-.434-.153-.57-.229-.646-.076-.076-.212-.17-.646-.229C17.6 11.002 16.971 11 16 11H8c-.971 0-1.599.002-2.061.064z" fill="#fff"/><path fill-rule="evenodd" clip-rule="evenodd" d="M9.942 4.474C9.447 4.782 9 5.326 9 6.5V10H7V6.5c0-1.826.772-3.032 1.886-3.724C9.923 2.13 11.144 2 12 2c.856 0 2.049.132 3.063.684C16.15 3.274 17 4.339 17 6v4h-2V6c0-.84-.368-1.274-.892-1.559C13.513 4.118 12.706 4 12 4c-.707 0-1.486.119-2.058.474z" fill="#fff"/></svg>