<svg width="24" height="24" fill="none" xmlns="http://www.w3.org/2000/svg"><path fill-rule="evenodd" clip-rule="evenodd" d="M8.434 2h7.132c.886 0 1.65 0 2.262.082.655.088 1.284.287 1.793.797.51.51.709 1.138.797 1.793.082.612.082 1.376.082 2.262v7.132c0 .886 0 1.65-.082 2.262-.088.655-.287 1.284-.797 1.793-.51.51-1.138.709-1.793.797-.612.082-1.376.082-2.262.082H8.434c-.886 0-1.65 0-2.262-.082-.655-.088-1.284-.287-1.793-.797-.51-.51-.709-1.138-.797-1.793-.082-.612-.082-1.376-.082-2.262V7v-.066c0-.886 0-1.65.082-2.262.088-.655.287-1.284.797-1.793.51-.51 1.138-.709 1.793-.797C6.784 2 7.548 2 8.434 2zM6.44 4.064c-.434.059-.57.153-.646.229-.076.076-.17.212-.229.646C5.502 5.4 5.5 6.029 5.5 7v7c0 .971.002 1.599.064 2.061.059.434.153.57.229.646.076.076.212.17.646.229.462.062 1.09.064 2.061.064h7c.971 0 1.599-.002 2.061-.064.434-.059.57-.153.646-.229.076-.076.17-.212.229-.646.062-.462.064-1.09.064-2.061V7c0-.971-.002-1.599-.064-2.061-.059-.434-.153-.57-.229-.646-.076-.076-.212-.17-.646-.229C17.1 4.002 16.471 4 15.5 4h-7c-.971 0-1.599.002-2.061.064z" fill="#fff"/><path d="M8 7.5c0-.471 0-.707.146-.854C8.293 6.5 8.53 6.5 9 6.5h6c.471 0 .707 0 .854.146.146.147.146.383.146.854V10c0 .471 0 .707-.146.854C15.707 11 15.47 11 15 11H9c-.471 0-.707 0-.854-.146C8 10.707 8 10.47 8 10V7.5z" fill="#fff"/><path fill-rule="evenodd" clip-rule="evenodd" d="M8.96 5.5h6.08c.2 0 .437 0 .642.027.247.033.589.122.879.412.29.29.379.632.412.88.027.204.027.442.027.642v2.579c0 .2 0 .437-.027.642a1.488 1.488 0 0 1-.412.879c-.29.29-.632.379-.88.412a5.04 5.04 0 0 1-.642.027H8.96c-.2 0-.437 0-.642-.027a1.488 1.488 0 0 1-.879-.412 1.488 1.488 0 0 1-.412-.88A5.031 5.031 0 0 1 7 10.04V7.5v-.04c0-.2 0-.437.027-.642.033-.247.122-.589.412-.879.29-.29.632-.379.88-.412.204-.027.442-.027.642-.027zm-.38 2.01h.002zm.43-.428v-.001zm6.41.428h-.002zm-.43-.43v.002zm.01.42V10H9V7.5h6zM8.58 9.99h.002zm.43.428a.03.03 0 0 1 0 .001zm5.98.001v-.001zm.428-.429h.001zM7.014 19l.002.026c.015.228.042.315.06.357a1 1 0 0 0 .54.54c.042.018.129.045.357.06C8.21 20 8.52 20 9 20h6c.48 0 .79 0 1.026-.017.228-.015.315-.042.357-.06a1 1 0 0 0 .54-.54c.018-.042.045-.129.06-.357l.002-.026h-9.97zM18 18v-1H6v1H5v.032c0 .439 0 .817.021 1.13.023.33.072.66.207.986a3 3 0 0 0 1.624 1.624c.326.135.656.184.986.207.313.021.691.021 1.13.021h6.064c.439 0 .817 0 1.13-.021.33-.023.66-.072.986-.207a3 3 0 0 0 1.624-1.624c.135-.326.184-.656.207-.986.021-.313.021-.691.021-1.13V18h-1z" fill="#fff"/><path d="M9 14.5a1 1 0 1 1-2 0 1 1 0 0 1 2 0z" fill="#fff"/><path fill-rule="evenodd" clip-rule="evenodd" d="M12.5 14.5a.5.5 0 0 1 .5-.5h3.5a.5.5 0 0 1 0 1H13a.5.5 0 0 1-.5-.5z" fill="#fff"/></svg>