<svg width="24" height="24" fill="none" xmlns="http://www.w3.org/2000/svg"><path fill-rule="evenodd" clip-rule="evenodd" d="M2.752 4.069C3.969 2.754 5.637 2 7.394 2a6.498 6.498 0 0 1 3.186 1.042A6.818 6.818 0 0 1 12 4.278a6.818 6.818 0 0 1 1.42-1.236A6.498 6.498 0 0 1 16.606 2c1.757 0 3.425.754 4.642 2.069C22.503 5.424 23 7.244 23 9a1 1 0 1 1-2 0c0-1.41-.4-2.688-1.22-3.572-.848-.916-1.978-1.419-3.142-1.428a4.5 4.5 0 0 0-2.13.72 5.09 5.09 0 0 0-1.623 1.747l-.006.01-.013.021a1.01 1.01 0 0 1-1.733 0l-.012-.021-.006-.01A5.09 5.09 0 0 0 9.492 4.72 4.5 4.5 0 0 0 7.362 4c-1.164.008-2.295.51-3.143 1.427C3.401 6.312 3 7.59 3 9c0 1.15.513 2.484 1.408 3.902.885 1.403 2.082 2.793 3.304 4.034a44.978 44.978 0 0 0 4.294 3.811c.306-.234.717-.556 1.195-.95a42.664 42.664 0 0 0 3.794-3.506 1 1 0 1 1 1.452 1.376 44.652 44.652 0 0 1-3.976 3.675 46.254 46.254 0 0 1-1.85 1.443l-.028.02-.007.006-.003.001v.001L12 22l-.59.807-.003-.002-.006-.004-.024-.018a19.432 19.432 0 0 1-.417-.316 46.983 46.983 0 0 1-4.672-4.128c-1.278-1.296-2.581-2.8-3.571-4.37C1.737 12.416 1 10.7 1 9c0-1.756.497-3.576 1.752-4.931zM12 22l-.59.807c.348.255.822.257 1.172.006L12 22zm-.85-16.528c-.009.016-.007.01.004-.007l-.004.007zm1.696-.007l.004.007-.004-.007z" fill="#fff"/><path fill-rule="evenodd" clip-rule="evenodd" d="M9.91 9.004a1 1 0 0 1 .89.396l2.308 3.078 1.185-1.185a1 1 0 0 1 1.414 0l1.387 1.387.773-.58.054-.041c.205-.155.465-.351.78-.456.315-.105.64-.104.897-.103H22a1 1 0 1 1 0 2h-2.333c-.178 0-.265 0-.329.004h-.003a6.114 6.114 0 0 0-.268.195L17.6 14.801a1 1 0 0 1-1.307-.093L15 13.414l-1.293 1.293A1 1 0 0 1 12.2 14.6l-2.03-2.706-1.276 2.553a1 1 0 1 1-1.788-.894l2-4a1 1 0 0 1 .804-.549z" fill="#fff"/></svg>