<svg width="24" height="24" fill="none" xmlns="http://www.w3.org/2000/svg"><path fill-rule="evenodd" clip-rule="evenodd" d="M6.234 6.741C4.807 7.804 4 9.23 4 10.805c0 1.493.72 3.012 1.951 4.09.46.404.42.97.401 1.145-.025.252-.1.51-.175.728-.143.416-.364.91-.56 1.352l-.04.09c-.118.264-.226.508-.316.725.376-.11.784-.365 1.25-.75a15.278 15.278 0 0 0 .641-.563c.15-.137.307-.28.453-.403.167-.142.372-.305.59-.425.191-.104.596-.29 1.072-.157l.271.075c.88.247 1.66.465 2.462.465 2.305 0 4.326-.659 5.747-1.772 1.403-1.1 2.253-2.66 2.253-4.6 0-1.926-.834-3.327-2.207-4.283C16.38 5.539 14.35 5 12 5c-2.3 0-4.332.673-5.766 1.741zM5.039 5.138C6.862 3.779 9.329 3 12 3c2.62 0 5.09.595 6.935 1.88C20.82 6.194 22 8.195 22 10.806c0 2.595-1.165 4.721-3.02 6.174-1.835 1.438-4.314 2.198-6.98 2.198-1.092 0-2.139-.295-2.98-.533a4.018 4.018 0 0 0-.12.099c-.117.1-.243.214-.394.352l-.093.084c-.186.17-.4.36-.63.55-.858.708-2.288 1.675-3.982 1.095a1.01 1.01 0 0 1-.146-.064c-.596-.317-.64-.93-.635-1.16.006-.273.077-.546.145-.76.14-.444.377-.979.585-1.445l.022-.05c.214-.479.4-.897.513-1.225a3.06 3.06 0 0 0 .01-.033C2.874 14.687 2 12.778 2 10.805 2 8.479 3.208 6.5 5.039 5.138zm-.676 10.7l-.002.009c0-.028.004-.034.002-.008zm4.791 2.711z" fill="#fff"/><path d="M9 11a1 1 0 1 1-2 0 1 1 0 0 1 2 0zm4 0a1 1 0 1 1-2 0 1 1 0 0 1 2 0zm4 0a1 1 0 1 1-2 0 1 1 0 0 1 2 0z" fill="#fff"/></svg>