<svg width="24" height="24" fill="none" xmlns="http://www.w3.org/2000/svg"><path fill-rule="evenodd" clip-rule="evenodd" d="M6.934 5H17.066c.886 0 1.65 0 2.262.082.655.088 1.284.287 1.793.797.51.51.709 1.138.797 1.793C22 8.284 22 9.048 22 9.934v4.132c0 .886 0 1.65-.082 2.262-.088.655-.287 1.284-.797 1.793-.51.51-1.138.709-1.793.797-.612.082-1.376.082-2.262.082H6.934c-.886 0-1.65 0-2.262-.082-.655-.088-1.284-.287-1.793-.797-.51-.51-.709-1.138-.797-1.793C2 15.716 2 14.952 2 14.066V10v-.066c0-.886 0-1.65.082-2.262.088-.655.287-1.284.797-1.793.51-.51 1.138-.709 1.793-.797C5.284 5 6.048 5 6.934 5zM4.94 7.064c-.434.059-.57.153-.646.229-.076.076-.17.212-.229.646C4.002 8.4 4 9.029 4 10v4c0 .971.002 1.599.064 2.061.059.434.153.57.229.646.076.076.212.17.646.229C5.4 16.998 6.029 17 7 17h10c.971 0 1.599-.002 2.061-.064.434-.059.57-.153.646-.229.076-.076.17-.212.229-.646.062-.462.064-1.09.064-2.061v-4c0-.971-.002-1.599-.064-2.061-.059-.434-.153-.57-.229-.646-.076-.076-.212-.17-.646-.229C18.6 7.002 17.971 7 17 7H7c-.971 0-1.599.002-2.061.064z" fill="#fff"/><path fill-rule="evenodd" clip-rule="evenodd" d="M6.293 15.707C5.88 15.294 5.179 15 4 15v-2c1.487 0 2.787.373 3.707 1.293C8.627 15.213 9 16.513 9 18H7c0-1.18-.294-1.88-.707-2.293zm0-7.414C6.706 7.88 7 7.179 7 6h2c0 1.487-.373 2.787-1.293 3.707C6.787 10.627 5.487 11 4 11V9c1.18 0 1.88-.294 2.293-.707zm11.414 0C18.12 8.706 18.821 9 20 9v2c-1.488 0-2.787-.373-3.707-1.293C15.373 8.787 15 7.487 15 6h2c0 1.18.294 1.88.707 2.293zm0 7.414C17.294 16.12 17 16.821 17 18h-2c0-1.488.373-2.787 1.293-3.707.92-.92 2.22-1.293 3.707-1.293v2c-1.18 0-1.88.294-2.293.707zM12 11a1 1 0 1 0 0 2 1 1 0 0 0 0-2zm-3 1a3 3 0 1 1 6 0 3 3 0 0 1-6 0z" fill="#fff"/></svg>