<svg width="24" height="24" viewBox="0 0 24 24" fill="none" xmlns="http://www.w3.org/2000/svg">
<path fill-rule="evenodd" clip-rule="evenodd" d="M9.49218 4.40073C6.30259 5.45269 4 8.4579 4 12C4 16.4183 7.58172 20 12 20C15.5423 20 18.5468 17.6978 19.599 14.508C18.4506 15.2612 17.0761 15.7 15.6 15.7C11.5683 15.7 8.3 12.4317 8.3 8.4C8.3 6.92373 8.73884 5.54923 9.49218 4.40073ZM11.0012 2.04933C11.33 2.01669 11.6632 2 12 2C12.5614 2 12.9454 2.39496 13.06 2.80526C13.1723 3.20724 13.0566 3.71856 12.6179 4.01783C12.3986 4.16741 12.191 4.33308 11.9968 4.51317C10.9518 5.48246 10.3 6.86435 10.3 8.4C10.3 11.3271 12.6729 13.7 15.6 13.7C17.1356 13.7 18.5175 13.0482 19.4868 12.0032C19.6669 11.809 19.8326 11.6014 19.9822 11.3821C20.2814 10.9434 20.7928 10.8277 21.1947 10.94C21.605 11.0546 22 11.4386 22 12C22 17.5228 17.5228 22 12 22C6.47715 22 2 17.5228 2 12C2 6.81405 5.94681 2.55116 11.0012 2.04933Z" fill="white"/>
</svg>
