<svg width="24" height="24" fill="none" xmlns="http://www.w3.org/2000/svg"><path fill-rule="evenodd" clip-rule="evenodd" d="M5 15.07V8.93c0-1.355 0-2.471.119-3.355.125-.928.396-1.747 1.053-2.403.656-.657 1.475-.929 2.403-1.053.884-.12 2-.119 3.355-.119h.14c1.355 0 2.471 0 3.355.119.928.124 1.747.396 2.403 1.053.657.656.928 1.475 1.053 2.403.12.884.119 2 .119 3.354v6.142c0 1.354 0 2.47-.119 3.354-.125.928-.396 1.747-1.053 2.403-.656.657-1.475.928-2.403 1.053-.884.12-2 .119-3.354.119h-.142c-1.354 0-2.47 0-3.354-.119-.928-.125-1.747-.396-2.403-1.053-.657-.656-.928-1.475-1.053-2.403-.12-.884-.119-2-.119-3.354zm6-11.068V8.5a1 1 0 1 0 2 0V4.002c.918.005 1.608.025 2.159.099.706.095 1.033.262 1.255.485.223.222.39.55.485 1.255C16.998 6.576 17 7.558 17 9v6c0 1.442-.002 2.424-.1 3.159-.096.706-.263 1.033-.486 1.255-.222.223-.55.39-1.255.485-.735.099-1.716.101-3.159.101-1.443 0-2.424-.002-3.159-.1-.706-.096-1.033-.263-1.255-.486-.223-.222-.39-.55-.485-1.255C7.002 17.424 7 16.443 7 15V9c0-1.442.002-2.424.1-3.159.096-.706.263-1.033.486-1.255.222-.223.55-.39 1.255-.485.551-.074 1.24-.094 2.159-.1z" fill="#fff"/></svg>