<svg width="24" height="24" fill="none" xmlns="http://www.w3.org/2000/svg"><path fill-rule="evenodd" clip-rule="evenodd" d="M9 13v4a3 3 0 1 0 6 0v-4a3 3 0 1 0-6 0zm-2 4v-4a5 5 0 0 1 10 0v4a5 5 0 0 1-10 0z" fill="#fff"/><path fill-rule="evenodd" clip-rule="evenodd" d="M13.032 7.283c-.024.09-.032.267-.032 1.025V11.5a1 1 0 1 1-2 0V8.308v-.13c0-.555-.001-1.021.095-1.394a3 3 0 0 1 3.36-2.216c.381.058.81.242 1.32.462l.119.05c.697.3.862.361.954.375a1 1 0 0 0 1.12-.738c.023-.09.032-.267.032-1.025V3a1 1 0 1 1 2 0v.822c0 .555.001 1.021-.095 1.394a3 3 0 0 1-3.36 2.216c-.381-.058-.81-.242-1.32-.462l-.119-.05c-.697-.3-.862-.361-.954-.375a1 1 0 0 0-1.12.738z" fill="#fff"/></svg>