<svg width="24" height="24" fill="none" xmlns="http://www.w3.org/2000/svg"><path fill-rule="evenodd" clip-rule="evenodd" d="M9.064 10.939C9.002 11.4 9 12.029 9 13v4c0 .971.002 1.599.064 2.061.059.434.153.57.229.646.076.076.212.17.646.229.462.062 1.09.064 2.061.064.971 0 1.599-.002 2.061-.064.434-.059.57-.153.646-.229.076-.076.17-.212.229-.646.062-.462.064-1.09.064-2.061v-4c0-.971-.002-1.599-.064-2.061-.059-.434-.153-.57-.229-.646-.076-.076-.212-.17-.646-.229C13.6 10.002 12.971 10 12 10c-.971 0-1.599.002-2.061.064-.434.059-.57.153-.646.229-.076.076-.17.212-.229.646zm-1.982-.267c.088-.655.287-1.284.797-1.793.51-.51 1.138-.709 1.793-.797C10.284 8 11.048 8 11.934 8h.132c.886 0 1.65 0 2.262.082.655.088 1.284.287 1.793.797.51.51.709 1.138.797 1.793.082.612.082 1.376.082 2.262v4.132c0 .886 0 1.65-.082 2.262-.088.655-.287 1.284-.797 1.793-.51.51-1.138.709-1.793.797-.612.082-1.376.082-2.262.082h-.132c-.886 0-1.65 0-2.262-.082-.655-.088-1.284-.287-1.793-.797-.51-.51-.709-1.138-.797-1.793C7 18.716 7 17.952 7 17.066v-4.132c0-.886 0-1.65.082-2.262z" fill="#fff"/><path fill-rule="evenodd" clip-rule="evenodd" d="M13.032 7.283c-.024.09-.032.267-.032 1.025V11.5a1 1 0 1 1-2 0V8.308v-.13c0-.555-.001-1.021.095-1.394a3 3 0 0 1 3.36-2.216c.381.058.81.242 1.32.462l.119.05c.697.3.862.361.954.375a1 1 0 0 0 1.12-.738c.023-.09.032-.267.032-1.025V3a1 1 0 1 1 2 0v.822c0 .555.001 1.021-.095 1.394a3 3 0 0 1-3.36 2.216c-.381-.058-.81-.242-1.32-.462l-.119-.05c-.697-.3-.862-.361-.954-.375a1 1 0 0 0-1.12.738z" fill="#fff"/></svg>