<svg width="24" height="24" fill="none" xmlns="http://www.w3.org/2000/svg"><path fill-rule="evenodd" clip-rule="evenodd" d="M12 4C8.533 4 5.573 6.043 4.469 8.81c-.564 1.414-.242 3.063.298 4.904l.88 3.005a1 1 0 0 1-1.92.562l-.88-3.005c-.53-1.813-1.083-4.085-.236-6.207C4.04 4.49 7.771 2 12 2c4.227 0 7.946 2.52 9.379 6.067.857 2.12.305 4.397-.226 6.209l-.88 3.005a1 1 0 1 1-1.92-.562l.88-3.005c.54-1.841.86-3.489.291-4.898C18.413 6.064 15.454 4 12 4z" fill="#fff"/><path fill-rule="evenodd" clip-rule="evenodd" d="M7.758 13.03a1.026 1.026 0 0 1 1.217.748l1.5 6a.975.975 0 0 1-.733 1.192 1.026 1.026 0 0 1-1.217-.748l-1.5-6a.975.975 0 0 1 .733-1.192zm8.485 0a.975.975 0 0 1 .732 1.192l-1.5 6c-.134.535-.679.87-1.217.748a.975.975 0 0 1-.733-1.192l1.5-6c.134-.536.679-.87 1.217-.748z" fill="#fff"/></svg>