<svg width="24" height="24" fill="none" xmlns="http://www.w3.org/2000/svg"><path fill-rule="evenodd" clip-rule="evenodd" d="M10.434 2h6.632c.886 0 1.65 0 2.262.082.655.088 1.284.287 1.793.797.51.51.709 1.138.797 1.793C22 5.284 22 6.048 22 6.934v10.132c0 .886 0 1.65-.082 2.262-.088.655-.287 1.284-.797 1.793-.51.51-1.138.709-1.793.797-.612.082-1.376.082-2.262.082H6.934c-.886 0-1.65 0-2.262-.082-.655-.088-1.284-.287-1.793-.797-.51-.51-.709-1.138-.797-1.793C2 18.716 2 17.952 2 17.066V8.4a1 1 0 0 1 2 0V17c0 .971.002 1.599.064 2.061.059.434.153.57.229.646.076.076.212.17.646.229C5.4 19.998 6.029 20 7 20h10c.971 0 1.599-.002 2.061-.064.434-.059.57-.153.646-.229.076-.076.17-.212.229-.646.062-.462.064-1.09.064-2.061V7c0-.971-.002-1.599-.064-2.061-.059-.434-.153-.57-.229-.646-.076-.076-.212-.17-.646-.229C18.6 4.002 17.971 4 17 4h-6.5c-.971 0-1.599.002-2.061.064-.434.059-.57.153-.646.229-.076.076-.17.212-.229.646C7.502 5.4 7.5 6.029 7.5 7v8.536a1 1 0 1 1-2 0V7v-.066c0-.886 0-1.65.082-2.262.088-.655.287-1.284.797-1.793.51-.51 1.138-.709 1.793-.797C8.784 2 9.548 2 10.434 2z" fill="#fff"/><path fill-rule="evenodd" clip-rule="evenodd" d="M9.5 14.5a1 1 0 0 1 1-1h6a1 1 0 1 1 0 2h-6a1 1 0 0 1-1-1zm0 3a1 1 0 0 1 1-1h6a1 1 0 1 1 0 2h-6a1 1 0 0 1-1-1zm2.446-12H15.054c.425 0 .837 0 1.176.046.384.051.821.177 1.184.54.363.363.489.8.54 1.183.046.34.046.753.046 1.177V9.054c0 .424 0 .837-.046 1.176-.051.384-.177.821-.54 1.184-.363.363-.8.489-1.184.54-.34.046-.752.046-1.176.046H11.946c-.425 0-.837 0-1.176-.046-.384-.051-.821-.177-1.184-.54-.363-.363-.489-.8-.54-1.184C9 9.89 9 9.478 9 9.054V8.5v-.054c0-.424 0-.837.046-1.177.051-.383.177-.82.54-1.183.363-.363.8-.489 1.184-.54.34-.046.752-.046 1.176-.046zm-.917 2.029l-.001.007C11.002 7.726 11 8 11 8.5V9c0 .5.002.774.028.964v.007l.008.001c.19.026.464.028.964.028h3c.5 0 .774-.002.964-.028h.007l.001-.008C15.998 9.774 16 9.5 16 9v-.5c0-.5-.002-.774-.028-.964v-.007l-.008-.001C15.774 7.502 15.5 7.5 15 7.5h-3c-.5 0-.774.002-.964.028a.77.77 0 0 0-.007 0z" fill="#fff"/></svg>