<svg width="24" height="24" fill="none" xmlns="http://www.w3.org/2000/svg"><path fill-rule="evenodd" clip-rule="evenodd" d="M14.789 9.229c-.022 1.115-.565 2.295-1.634 3.45l-.01.01-1.77 1.81H13.5a1 1 0 0 1 0 2H9a1 1 0 0 1-.715-1.698l3.411-3.49c.845-.916 1.084-1.645 1.093-2.121.009-.458-.188-.79-.478-1.002-.587-.43-1.728-.442-2.443.808a1 1 0 1 1-1.736-.992c1.285-2.25 3.776-2.589 5.36-1.43a3.159 3.159 0 0 1 1.296 2.655zm-9.75-3.064a1 1 0 0 1 .593.914v7.42h.631a1 1 0 0 1 0 2H3a1 1 0 1 1 0-2h.632V9.327l-.463.417a1 1 0 0 1-1.338-1.486l2.131-1.92a1 1 0 0 1 1.076-.172zm14.15 2.01c-.591-.13-1.398.03-2.035.582a1 1 0 1 1-1.308-1.514c1.1-.949 2.543-1.29 3.768-1.023.619.135 1.218.434 1.668.93.46.509.718 1.173.718 1.929 0 .858-.337 1.536-.853 2.022a3.1 3.1 0 0 1-.08.073c.042.04.084.083.125.127.511.547.808 1.285.808 2.199 0 1.724-1.42 2.66-2.68 2.885-1.26.225-2.885-.143-3.688-1.547a1 1 0 0 1 1.736-.992c.25.437.874.7 1.6.57.73-.13 1.032-.535 1.032-.916 0-.454-.134-.69-.269-.833-.155-.165-.396-.298-.72-.387a3.547 3.547 0 0 0-.74-.113 8.343 8.343 0 0 1-.576.02c-.056 0-.101 0-.134-.002l-.04-.001h-.014l-.004-.001h-.002l.052-.999-.12-.992h.002l.005-.001.014-.002a3.97 3.97 0 0 1 .182-.015 6.228 6.228 0 0 1 .593-.01c.24-.022.515-.064.779-.138.348-.097.607-.23.767-.38.131-.124.225-.281.225-.567 0-.283-.088-.462-.2-.585-.122-.135-.322-.257-.611-.32zm-1.636 3.01l-.12-.994a1 1 0 0 0 .067 1.992l.053-.999z" fill="#fff"/></svg>