<svg width="24" height="24" viewBox="0 0 24 24" fill="none" xmlns="http://www.w3.org/2000/svg">
<path fill-rule="evenodd" clip-rule="evenodd" d="M2 3C2 2.44772 2.44772 2 3 2H6.20683C7.38736 2 8.45814 2.69235 8.94259 3.76891L15.9812 19.4104C16.1427 19.7692 16.4997 20 16.8932 20H21C21.5523 20 22 20.4477 22 21C22 21.5523 21.5523 22 21 22H16.8932C15.7126 22 14.6419 21.3076 14.1574 20.2311L7.11875 4.58964C6.95727 4.23078 6.60034 4 6.20683 4H3C2.44772 4 2 3.55228 2 3ZM13.7 3C13.7 2.44772 14.1477 2 14.7 2H21C21.5523 2 22 2.44772 22 3C22 3.55228 21.5523 4 21 4H14.7C14.1477 4 13.7 3.55228 13.7 3Z" fill="white"/>
</svg>
