<svg width="24" height="24" fill="none" xmlns="http://www.w3.org/2000/svg"><path fill-rule="evenodd" clip-rule="evenodd" d="M20.547 3.37a36.957 36.957 0 0 1 .12.118c.269.269.5.5.666.749a3 3 0 0 1 0 3.333c-.165.249-.397.48-.667.75l-.06.058L9.774 19.212l-.044.044c-.221.222-.416.417-.649.576-.232.159-.485.27-.771.396l-.058.025-.99.436c-.933.41-1.73.761-2.354.938-.59.167-1.48.317-2.148-.35-.668-.668-.518-1.56-.35-2.149.177-.624.527-1.421.937-2.353l.436-.99.026-.058c.125-.287.237-.54.395-.772.16-.232.355-.428.576-.648l.044-.045L15.657 3.43l.06-.06c.268-.27.5-.501.748-.667a3 3 0 0 1 3.334 0c.248.166.48.398.748.667zm-1.354 1.473c-.363-.363-.444-.437-.506-.478a1 1 0 0 0-1.11 0c-.062.04-.143.115-.506.478L6.238 15.677c-.29.29-.343.348-.384.407-.04.06-.076.13-.24.506l-.405.919c-.45 1.023-.742 1.692-.877 2.165a3.249 3.249 0 0 0-.01.04l.04-.01c.473-.135 1.141-.427 2.165-.877l.919-.405c.375-.165.446-.2.505-.24.06-.041.118-.095.408-.384L19.193 6.964c.362-.362.437-.444.477-.505a1 1 0 0 0 0-1.111c-.04-.061-.115-.143-.477-.505zM4 19.77h.012-.012zm.264.252a.043.043 0 0 1 0 .012v-.012z" fill="#fff"/><path fill-rule="evenodd" clip-rule="evenodd" d="M16.45 11.086L12.914 7.55l1.414-1.414 3.536 3.536-1.414 1.414z" fill="#fff"/></svg>