<svg width="24" height="24" fill="none" xmlns="http://www.w3.org/2000/svg"><path fill-rule="evenodd" clip-rule="evenodd" d="M4.804 21.98a1 1 0 0 1-.785-1.176l1.369-6.841c.144-.721.27-1.35.435-1.85.178-.54.437-1.041.915-1.433.478-.392 1.02-.547 1.584-.616C8.845 10 9.486 10 10.222 10h3.556c.736 0 1.377 0 1.9.064.564.07 1.107.224 1.584.616.478.392.736.894.915 1.433.166.5.291 1.129.435 1.85l1.369 6.84a1 1 0 0 1-1.962.393l-1.356-6.784c-.16-.795-.262-1.3-.385-1.67-.113-.344-.208-.454-.284-.515-.075-.062-.2-.134-.56-.178-.387-.047-.903-.049-1.713-.049h-3.442c-.81 0-1.326.002-1.713.05-.36.043-.485.115-.56.177-.075.061-.17.17-.284.514-.123.37-.226.876-.385 1.67l-1.356 6.785a1 1 0 0 1-1.177.785z" fill="#fff"/><path d="M12 3l-3 8h6l-3-8z" fill="#fff"/><path fill-rule="evenodd" clip-rule="evenodd" d="M15.822 11.57A1 1 0 0 1 15 12H9a1 1 0 0 1-.936-1.351l3-8a1 1 0 0 1 1.872 0l3 8a1 1 0 0 1-.114.92zM13.557 10L12 5.848 10.443 10h3.114z" fill="#fff"/></svg>