<svg width="24" height="24" fill="none" xmlns="http://www.w3.org/2000/svg"><path fill-rule="evenodd" clip-rule="evenodd" d="M4.946 12h.108c.424 0 .837 0 1.177.046.383.051.82.177 1.183.54.363.363.489.8.54 1.184.046.34.046.752.046 1.176V19.054c0 .425 0 .837-.046 1.177-.051.383-.177.82-.54 1.183-.363.363-.8.489-1.183.54C5.89 22 5.478 22 5.054 22h-.108c-.424 0-.837 0-1.177-.046-.383-.051-.82-.177-1.183-.54-.363-.363-.489-.8-.54-1.184C2 19.89 2 19.479 2 19.055V15v-.054c0-.425 0-.837.046-1.176.051-.384.177-.821.54-1.184.363-.363.8-.489 1.183-.54C4.11 12 4.522 12 4.946 12zm-.917 2.029l-.001.007C4.002 14.226 4 14.5 4 15v4c0 .5.002.774.028.964v.007l.008.001c.19.026.464.028.964.028.5 0 .774-.002.964-.028a.16.16 0 0 0 .007 0l.001-.008C5.998 19.774 6 19.5 6 19v-4c0-.5-.002-.774-.028-.964v-.007l-.008-.001C5.774 14.002 5.5 14 5 14c-.5 0-.774.002-.964.028h-.007zM11.946 7h.108c.425 0 .837 0 1.176.046.384.051.821.177 1.184.54.363.363.489.8.54 1.183.046.34.046.753.046 1.177v9.108c0 .425 0 .837-.046 1.177-.051.383-.177.82-.54 1.183-.363.363-.8.489-1.184.54-.34.046-.752.046-1.176.046h-.108c-.425 0-.837 0-1.176-.046-.384-.051-.821-.177-1.184-.54-.363-.363-.489-.8-.54-1.184C9 19.89 9 19.479 9 19.055V10v-.054c0-.424 0-.837.046-1.177.051-.383.177-.82.54-1.183.363-.363.8-.489 1.184-.54C11.11 7 11.522 7 11.946 7zm-.917 2.029l-.001.007C11.002 9.226 11 9.5 11 10v9c0 .5.002.774.028.964v.007a.16.16 0 0 0 .008.001c.19.026.464.028.964.028.5 0 .774-.002.964-.028a.16.16 0 0 0 .007 0l.001-.008c.026-.19.028-.464.028-.964v-9c0-.5-.002-.774-.028-.964v-.007a.77.77 0 0 0-.008-.001C12.774 9.002 12.5 9 12 9c-.5 0-.774.002-.964.028a.77.77 0 0 0-.007 0zM18.946 2h.108c.425 0 .837 0 1.177.046.383.051.82.177 1.183.54.363.363.489.8.54 1.183.046.34.046.753.046 1.177v14.108c0 .425 0 .837-.046 1.177-.051.383-.177.82-.54 1.183-.363.363-.8.489-1.184.54-.34.046-.752.046-1.176.046h-.108c-.425 0-.837 0-1.177-.046-.383-.051-.82-.177-1.183-.54-.363-.363-.489-.8-.54-1.184C16 19.89 16 19.479 16 19.055V5v-.054c0-.424 0-.837.046-1.177.051-.383.177-.82.54-1.183.363-.363.8-.489 1.184-.54C18.11 2 18.521 2 18.945 2zm-.917 2.029l-.001.007C18.002 4.226 18 4.5 18 5v14c0 .5.002.774.028.964v.007a.16.16 0 0 0 .008.001c.19.026.464.028.964.028.5 0 .774-.002.964-.028a.16.16 0 0 0 .007 0l.001-.008c.026-.19.028-.464.028-.964V5c0-.5-.002-.774-.028-.964v-.007a.77.77 0 0 0-.008-.001C19.774 4.002 19.5 4 19 4c-.5 0-.774.002-.964.028a.77.77 0 0 0-.007 0z" fill="#fff"/></svg>