<svg width="24" height="24" fill="none" xmlns="http://www.w3.org/2000/svg"><g clip-path="url(#clip0_878_25290)"><path fill-rule="evenodd" clip-rule="evenodd" d="M6.439 5.54L5.207 6.773c-.671.672-.812 1.82-.152 3.502.644 1.643 1.953 3.485 3.57 5.101 1.616 1.617 3.458 2.926 5.1 3.57 1.684.66 2.831.52 3.503-.152l1.231-1.232a1 1 0 0 0-.202-1.57l-.914-.534a1 1 0 0 0-1.065.035l-.535.362a2.5 2.5 0 0 1-3.17-.302l-4.125-4.125a2.5 2.5 0 0 1-.302-3.17l.362-.535a1 1 0 0 0 .035-1.066l-.534-.913a1 1 0 0 0-1.57-.202zm-2.646-.182l1.231-1.232a3 3 0 0 1 4.711.607l.535.914a3 3 0 0 1-.106 3.197l-.363.535a.5.5 0 0 0 .06.634l4.126 4.125a.5.5 0 0 0 .634.06l.535-.362a3 3 0 0 1 3.197-.106l.914.535a3 3 0 0 1 .607 4.71l-1.232 1.232c-1.528 1.529-3.71 1.359-5.646.6-1.976-.775-4.043-2.275-5.786-4.017-1.742-1.743-3.242-3.81-4.017-5.786-.759-1.936-.929-4.118.6-5.646z" fill="#fff"/></g><path fill-rule="evenodd" clip-rule="evenodd" d="M13.75 2.5a.75.75 0 0 1 .75-.75H17a.75.75 0 0 1 .75.75V5a.75.75 0 0 1-1.5 0v-.69l-2.72 2.72a.75.75 0 0 1-1.06-1.06l2.72-2.72h-.69a.75.75 0 0 1-.75-.75zM17 7.25a.75.75 0 0 1 .75.75v.69l2.72-2.72a.75.75 0 0 1 1.06 1.06l-2.72 2.72h.69a.75.75 0 0 1 0 1.5H17a.75.75 0 0 1-.75-.75V8a.75.75 0 0 1 .75-.75z" fill="#fff"/><defs><clipPath id="clip0_878_25290"><path fill="#fff" d="M0 0H24V24H0z"/></clipPath></defs></svg>