<svg width="24" height="24" fill="none" xmlns="http://www.w3.org/2000/svg"><g clip-path="url(#clip0_878_22044)" fill-rule="evenodd" clip-rule="evenodd" fill="#fff"><path d="M5.934 1H18.066c.886 0 1.65 0 2.262.082.655.088 1.284.287 1.793.797.51.51.709 1.138.797 1.793C23 4.284 23 5.048 23 5.934v12.132c0 .886 0 1.65-.082 2.262-.088.655-.287 1.284-.797 1.793-.51.51-1.138.709-1.793.797-.612.082-1.376.082-2.262.082H5.934c-.886 0-1.65 0-2.262-.082-.655-.088-1.284-.287-1.793-.797-.51-.51-.709-1.138-.797-1.793C1 19.716 1 18.952 1 18.066V6v-.066c0-.886 0-1.65.082-2.262.088-.655.287-1.284.797-1.793.51-.51 1.138-.709 1.793-.797C4.284 1 5.048 1 5.934 1zM3.94 3.064c-.434.059-.57.153-.646.229-.076.076-.17.212-.229.646C3.002 4.4 3 5.029 3 6v12c0 .971.002 1.599.064 2.061.059.434.153.57.229.646.076.076.212.17.646.229C4.4 20.998 5.029 21 6 21h12c.971 0 1.599-.002 2.061-.064.434-.059.57-.153.646-.229.076-.076.17-.212.229-.646.062-.462.064-1.09.064-2.061V6c0-.971-.002-1.599-.064-2.061-.059-.434-.153-.57-.229-.646-.076-.076-.212-.17-.646-.229C19.6 3.002 18.971 3 18 3H6c-.971 0-1.599.002-2.061.064z"/><path d="M22.717 13.027a1.016 1.016 0 0 1-1.423.01l-3.145-3.055c-.693-.673-1.143-1.107-1.517-1.385-.35-.26-.514-.288-.622-.287-.108 0-.271.03-.619.294-.37.281-.815.72-1.501 1.402l-3.195 3.173 2.012 1.96a.985.985 0 0 1 .01 1.405c-.391.39-1.028.395-1.424.01L9.12 14.435c-.688-.67-1.133-1.101-1.504-1.377-.348-.258-.51-.287-.618-.287-.108 0-.27.029-.618.287-.37.276-.816.708-1.503 1.378l-2.17 2.116a1.016 1.016 0 0 1-1.423-.009.985.985 0 0 1 .009-1.405l2.216-2.161c.628-.612 1.168-1.14 1.66-1.505.526-.392 1.11-.688 1.829-.689.718 0 1.303.296 1.83.688.133.1.27.211.412.333l3.222-3.2.047-.046c.626-.622 1.165-1.158 1.656-1.53.526-.4 1.111-.702 1.834-.706.723-.004 1.311.292 1.842.685.495.367 1.04.897 1.673 1.512l3.192 3.102a.985.985 0 0 1 .011 1.405z"/></g><defs><clipPath id="clip0_878_22044"><path fill="#fff" d="M0 0H24V24H0z"/></clipPath></defs></svg>