<svg width="24" height="24" fill="none" xmlns="http://www.w3.org/2000/svg"><path fill-rule="evenodd" clip-rule="evenodd" d="M10.548 4h2.904a3 3 0 0 1 2.473 1.206c.034.046.067.094.105.149l.008.011.069.099a1 1 0 0 0 .763.4c.015.002.032.002.12.002h.683c.603 0 1.124 0 1.55.04.451.041.898.135 1.316.384a3 3 0 0 1 1.036 1.037c.25.418.343.864.385 1.316.04.426.04.946.04 1.55v4.872c0 .886 0 1.65-.082 2.262-.088.655-.287 1.284-.797 1.793-.51.51-1.138.709-1.793.797-.612.082-1.376.082-2.262.082H6.934c-.886 0-1.65 0-2.262-.082-.655-.088-1.284-.287-1.793-.797-.51-.51-.709-1.138-.797-1.793C2 16.716 2 15.952 2 15.066v-4.872c0-.604 0-1.124.04-1.55.042-.452.135-.898.385-1.316A3 3 0 0 1 3.46 6.291c.418-.25.865-.343 1.316-.385.426-.04.947-.04 1.55-.04h.803a1 1 0 0 0 .763-.401c.009-.012.02-.026.07-.099l.007-.011c.038-.055.07-.103.105-.15a3 3 0 0 1 2.29-1.203C10.424 4 10.483 4 10.549 4zm.014 2h-.12a1 1 0 0 0-.764.402 3.857 3.857 0 0 0-.069.099l-.008.01a3 3 0 0 1-2.396 1.353c-.057.003-.115.003-.182.003h-.652c-.66 0-1.086 0-1.409.03-.308.03-.419.078-.475.111a1 1 0 0 0-.345.346c-.034.056-.082.167-.11.475C4 9.152 4 9.578 4 10.238V15c0 .971.002 1.599.064 2.061.059.434.153.57.229.646.076.076.212.17.646.229C5.4 17.998 6.029 18 7 18h10c.971 0 1.599-.002 2.061-.064.434-.059.57-.153.646-.229.076-.076.17-.212.229-.646.062-.462.064-1.09.064-2.061v-4.762c0-.66-.001-1.086-.031-1.409-.029-.308-.077-.42-.11-.475a1 1 0 0 0-.346-.346c-.056-.033-.167-.082-.475-.11-.323-.03-.75-.031-1.41-.031h-.651c-.067 0-.125 0-.183-.002a3 3 0 0 1-2.29-1.204c-.035-.046-.068-.094-.105-.15l-.008-.01a3.733 3.733 0 0 0-.07-.099 1 1 0 0 0-.763-.401L13.438 6h-2.876z" fill="#fff"/><path fill-rule="evenodd" clip-rule="evenodd" d="M12 10.429a2.143 2.143 0 1 0 0 4.285 2.143 2.143 0 0 0 0-4.285zM7.857 12.57a4.143 4.143 0 1 1 8.286 0 4.143 4.143 0 0 1-8.286 0z" fill="#fff"/><path d="M16.571 10a.571.571 0 1 1 1.143 0 .571.571 0 1 1-1.143 0z" fill="#fff"/></svg>