<svg width="24" height="24" fill="none" xmlns="http://www.w3.org/2000/svg"><g clip-path="url(#clip0_878_22759)" fill-rule="evenodd" clip-rule="evenodd" fill="#fff"><path d="M4.136 4.935l.799-.799c.515-.515.95-.95 1.331-1.267.393-.327.828-.614 1.359-.724a3 3 0 0 1 2.109.342c.469.272.79.683 1.06 1.117.261.42.536.971.862 1.623l.021.042c.33.66.43.848.557 1.002.118.144.256.271.41.377.163.113.36.198 1.045.472l.282.113c.99.396 1.818.727 2.433 1.066.635.35 1.22.8 1.506 1.523a3 3 0 0 1 .207 1.013c.023.778-.338 1.422-.783 1.994-.432.553-1.063 1.184-1.816 1.938l-.751.75c-.754.754-1.385 1.385-1.938 1.817-.572.445-1.216.806-1.994.784a3 3 0 0 1-1.013-.208c-.724-.286-1.174-.871-1.523-1.506-.339-.615-.67-1.443-1.066-2.433l-.113-.282c-.274-.685-.359-.882-.472-1.045a2.003 2.003 0 0 0-.377-.41c-.154-.126-.343-.227-1.002-.557l-.042-.02c-.652-.327-1.202-.602-1.623-.863-.434-.27-.845-.591-1.117-1.06a3 3 0 0 1-.342-2.109c.11-.531.397-.966.724-1.359.317-.38.752-.816 1.267-1.331zm.271 2.61c-.247.297-.291.428-.303.484a1 1 0 0 0 .114.702c.029.05.112.16.44.364.334.206.8.44 1.505.793l.086.043c.536.268.942.47 1.29.757.29.236.543.513.755.82.257.371.425.792.647 1.349l.036.089.088.222c.427 1.066.714 1.778.985 2.27.268.487.427.58.506.611a1 1 0 0 0 .338.07c.084.002.268-.021.705-.362.444-.347.988-.888 1.8-1.7l.658-.658c.812-.812 1.353-1.356 1.7-1.8.34-.437.364-.621.361-.705a.998.998 0 0 0-.069-.338c-.03-.079-.124-.238-.61-.506-.493-.271-1.205-.558-2.271-.985l-.222-.088-.09-.036c-.556-.222-.977-.39-1.348-.647a3.999 3.999 0 0 1-.82-.754c-.287-.35-.489-.755-.757-1.29l-.043-.087c-.352-.705-.587-1.171-.793-1.504-.204-.329-.314-.412-.364-.44a1 1 0 0 0-.702-.115c-.056.012-.187.056-.484.303-.302.25-.672.62-1.23 1.177l-.731.732c-.558.557-.926.927-1.177 1.229z"/><path d="M14.343 14.343a1 1 0 0 1 1.414 0l4.95 4.95a1 1 0 0 1-1.414 1.414l-4.95-4.95a1 1 0 0 1 0-1.414z"/></g><defs><clipPath id="clip0_878_22759"><path fill="#fff" d="M0 0H24V24H0z"/></clipPath></defs></svg>