<svg width="24" height="24" fill="none" xmlns="http://www.w3.org/2000/svg"><path fill-rule="evenodd" clip-rule="evenodd" d="M11.355 4.387l5.91 3.283c1.33.739 2.427 1.348 3.181 1.927.773.593 1.436 1.339 1.436 2.403s-.663 1.81-1.436 2.403c-.755.58-1.851 1.188-3.18 1.927l-5.91 3.283c-1.262.701-2.308 1.282-3.163 1.604-.881.331-1.828.491-2.714-.03-.887-.522-1.207-1.427-1.345-2.359C4 17.925 4 16.728 4 15.285v-6.57c0-1.444 0-2.64.134-3.543.138-.932.458-1.837 1.345-2.359.886-.521 1.833-.361 2.714-.03.855.322 1.9.903 3.162 1.604zm-3.866.268c-.689-.259-.897-.176-.996-.118-.1.058-.273.2-.38.928C6.002 6.204 6 7.25 6 8.798v6.404c0 1.548.003 2.594.112 3.333.108.728.282.87.38.928.1.058.308.14.997-.118.699-.263 1.615-.769 2.968-1.52l5.763-3.202c1.422-.79 2.386-1.329 3.01-1.807.618-.474.652-.703.652-.816 0-.113-.034-.341-.653-.816-.623-.478-1.587-1.017-3.009-1.806l-5.763-3.202c-1.353-.752-2.269-1.258-2.968-1.52z" fill="#fff"/></svg>