<svg width="24" height="24" fill="none" xmlns="http://www.w3.org/2000/svg"><path fill-rule="evenodd" clip-rule="evenodd" d="M5.98 2.5h12.04c.444 0 .827 0 1.145.022.334.023.668.074.997.212a3 3 0 0 1 1.604 1.604c.138.33.189.663.212.997.022.318.022.701.022 1.146v2.078a17 17 0 0 1-1.96 7.892l-.03.057-.092.173c-3.402 6.295-12.434 6.295-15.836 0l-.088-.166-.034-.064A17 17 0 0 1 2 8.56V6.48c0-.445 0-.828.022-1.146.023-.334.074-.668.212-.997a3 3 0 0 1 1.604-1.604c.33-.138.663-.189.997-.212.318-.022.701-.022 1.146-.022zM4.974 4.517c-.23.016-.318.043-.36.061a1 1 0 0 0-.535.535c-.018.042-.045.13-.06.36C4 5.713 4 6.027 4 6.513v2.042a15 15 0 0 0 1.73 6.964l.028.053.084.158c2.645 4.896 9.67 4.896 12.316 0l.084-.158.028-.053A15 15 0 0 0 20 8.555V6.513c0-.486 0-.8-.017-1.04-.016-.23-.043-.318-.061-.36a1 1 0 0 0-.535-.535c-.042-.018-.13-.045-.36-.06-.24-.017-.554-.018-1.04-.018H6.013c-.486 0-.8 0-1.04.017z" fill="#fff"/><path fill-rule="evenodd" clip-rule="evenodd" d="M7.293 9.293a1 1 0 0 1 1.414 0l2.586 2.586c.353.353.549.545.701.662l.006.004.006-.004c.152-.117.348-.309.701-.662l2.586-2.586a1 1 0 1 1 1.414 1.414l-2.586 2.586-.038.038c-.3.3-.591.592-.864.8-.307.234-.705.455-1.219.455-.514 0-.912-.22-1.219-.455-.273-.208-.564-.5-.864-.8l-.038-.038-2.586-2.586a1 1 0 0 1 0-1.414z" fill="#fff"/></svg>