<svg width="24" height="24" viewBox="0 0 24 24" fill="none" xmlns="http://www.w3.org/2000/svg">
<path fill-rule="evenodd" clip-rule="evenodd" d="M12 2C12.5523 2 13 2.44772 13 3V11C13 11.5523 12.5523 12 12 12C11.4477 12 11 11.5523 11 11V3C11 2.44772 11.4477 2 12 2Z" fill="white"/>
<path fill-rule="evenodd" clip-rule="evenodd" d="M6.40604 4.87899C6.79311 5.27294 6.78753 5.90608 6.39358 6.29315C4.9151 7.74579 4 9.76511 4 12C4 16.4183 7.58172 20 12 20C16.4183 20 20 16.4183 20 12C20 9.76511 19.0849 7.74579 17.6064 6.29315C17.2125 5.90608 17.2069 5.27294 17.594 4.87899C17.981 4.48504 18.6142 4.47946 19.0081 4.86652C20.8536 6.67972 22 9.20688 22 12C22 17.5228 17.5228 22 12 22C6.47715 22 2 17.5228 2 12C2 9.20688 3.14643 6.67972 4.99188 4.86652C5.38583 4.47946 6.01897 4.48504 6.40604 4.87899Z" fill="white"/>
</svg>
