<svg width="24" height="24" fill="none" xmlns="http://www.w3.org/2000/svg"><path fill-rule="evenodd" clip-rule="evenodd" d="M6.665 2.253a1 1 0 0 1 .082 1.412c-3.204 3.6-3.07 8.35-2.259 11.046a1 1 0 1 1-1.914.578C1.64 12.192 1.429 6.633 5.253 2.335a1 1 0 0 1 1.412-.082zm9.927 1.842c.827-.997 2.316-1.154 3.35-.405l.931.675c1.072.778 1.3 2.272.438 3.311l-.004.005-10.04 11.96a2.39 2.39 0 0 1-.695.57l-2.41 1.312a2.107 2.107 0 0 1-2.319-.192c-.61-.48-.988-1.35-.626-2.264l.93-2.347.927.368-.927-.368c.09-.225.214-.434.368-.62l3.876-4.675a1 1 0 1 1 1.54 1.277l-3.876 4.674-.762-.631.762.631a.3.3 0 0 0-.049.081l-.915 2.31a.119.119 0 0 0 .047.016.09.09 0 0 0 .027 0 .14.14 0 0 0 .04-.017l2.41-1.311.479.878-.478-.878a.391.391 0 0 0 .114-.093l.004-.005L19.773 6.398a.259.259 0 0 0 .063-.204.312.312 0 0 0-.137-.21l-.931-.674c-.208-.15-.503-.099-.636.062l-.77-.639.77.639-.758.913a1.372 1.372 0 0 1-1.855.23l-.55-.4-1.2 1.448a1 1 0 1 1-1.539-1.277l1.363-1.644c.587-.708 1.63-.812 2.354-.288l.269.195.376-.454zm-.757.913l.485.403-.485-.403zm-.703.911l-.2-.166.2.166z" fill="#fff"/></svg>