<svg width="24" height="24" fill="none" xmlns="http://www.w3.org/2000/svg"><path fill-rule="evenodd" clip-rule="evenodd" d="M12 4a8 8 0 1 0 0 16 8 8 0 0 0 0-16zM2 12C2 6.477 6.477 2 12 2s10 4.477 10 10-4.477 10-10 10S2 17.523 2 12z" fill="#fff"/><path d="M13 17a1 1 0 1 1-2 0 1 1 0 0 1 2 0z" fill="#fff"/><path fill-rule="evenodd" clip-rule="evenodd" d="M12 6.125c1.452 0 3.11.828 3.48 2.679.169.84.047 1.57-.269 2.189-.302.593-.752 1.025-1.14 1.343-.196.16-.393.305-.558.425-.175.128-.306.224-.414.314a1.798 1.798 0 0 0-.099.087V14a1 1 0 1 1-2 0v-1c0-.759.559-1.246.823-1.465.157-.13.332-.258.486-.37l.024-.018c.169-.124.323-.238.471-.358.3-.245.506-.469.625-.704.107-.209.172-.48.09-.889-.13-.65-.72-1.071-1.519-1.071-.798 0-1.39.422-1.52 1.071a1 1 0 1 1-1.96-.392c.37-1.85 2.028-2.679 3.48-2.679zm.941 7.1z" fill="#fff" filter="url(#filter0_d_878_23170)"/><defs><filter id="filter0_d_878_23170" x="4.5" y="6.125" width="15.056" height="16.875" filterUnits="userSpaceOnUse" color-interpolation-filters="sRGB"><feFlood flood-opacity="0" result="BackgroundImageFix"/><feColorMatrix in="SourceAlpha" values="0 0 0 0 0 0 0 0 0 0 0 0 0 0 0 0 0 0 127 0" result="hardAlpha"/><feOffset dy="4"/><feGaussianBlur stdDeviation="2"/><feComposite in2="hardAlpha" operator="out"/><feColorMatrix values="0 0 0 0 0 0 0 0 0 0 0 0 0 0 0 0 0 0 0.25 0"/><feBlend in2="BackgroundImageFix" result="effect1_dropShadow_878_23170"/><feBlend in="SourceGraphic" in2="effect1_dropShadow_878_23170" result="shape"/></filter></defs></svg>