<svg width="24" height="24" fill="none" xmlns="http://www.w3.org/2000/svg"><path fill-rule="evenodd" clip-rule="evenodd" d="M6.338 4.94a1 1 0 0 1-.023 1.415A7.831 7.831 0 0 0 3.909 12c0 2.166.884 4.13 2.324 5.565a1 1 0 1 1-1.411 1.417A9.828 9.828 0 0 1 1.909 12a9.831 9.831 0 0 1 3.015-7.082 1 1 0 0 1 1.414.023zm11.324 14.12a1 1 0 0 1 .023-1.415A7.831 7.831 0 0 0 20.091 12c0-2.166-.884-4.13-2.324-5.565a1 1 0 0 1 1.411-1.417A9.827 9.827 0 0 1 22.091 12a9.832 9.832 0 0 1-3.015 7.082 1 1 0 0 1-1.414-.023z" fill="#fff"/><path fill-rule="evenodd" clip-rule="evenodd" d="M8.73 7.327a1 1 0 0 1-.022 1.414 4.517 4.517 0 0 0-.047 6.471 1 1 0 0 1-1.412 1.417 6.517 6.517 0 0 1 .067-9.325 1 1 0 0 1 1.414.023zm6.54 9.346a1 1 0 0 1 .022-1.414 4.517 4.517 0 0 0 .047-6.471 1 1 0 0 1 1.412-1.417 6.517 6.517 0 0 1-.067 9.325 1 1 0 0 1-1.414-.023z" fill="#fff"/><path d="M14.273 12c0 1.234-1.018 2.233-2.273 2.233-1.255 0-2.273-1-2.273-2.233S10.745 9.767 12 9.767c1.255 0 2.273 1 2.273 2.233z" fill="#fff"/><path fill-rule="evenodd" clip-rule="evenodd" d="M12 12.233c.184 0 .273-.137.273-.233s-.09-.233-.273-.233c-.184 0-.273.137-.273.233s.09.233.273.233zm0 2c1.255 0 2.273-1 2.273-2.233S13.255 9.767 12 9.767c-1.255 0-2.273 1-2.273 2.233 0 1.234 1.018 2.233 2.273 2.233z" fill="#fff"/></svg>