<svg width="24" height="24" fill="none" xmlns="http://www.w3.org/2000/svg"><path fill-rule="evenodd" clip-rule="evenodd" d="M6.201 2.019a1 1 0 0 1-.023 1.414 8.02 8.02 0 0 0-2.464 5.781c0 2.218.906 4.23 2.38 5.7a1 1 0 1 1-1.411 1.417 10.017 10.017 0 0 1-2.969-7.117 10.02 10.02 0 0 1 3.073-7.218 1 1 0 0 1 1.414.023zM17.799 16.41a1 1 0 0 1 .023-1.414 8.02 8.02 0 0 0 2.464-5.782c0-2.218-.906-4.23-2.38-5.7a1 1 0 1 1 1.411-1.416 10.017 10.017 0 0 1 2.969 7.116 10.02 10.02 0 0 1-3.073 7.219 1 1 0 0 1-1.414-.023z" fill="#fff"/><path fill-rule="evenodd" clip-rule="evenodd" d="M8.645 4.456a1 1 0 0 1-.023 1.414 4.635 4.635 0 0 0-.049 6.64 1 1 0 0 1-1.41 1.418 6.636 6.636 0 0 1 .068-9.495 1 1 0 0 1 1.414.023zm6.71 9.517a1 1 0 0 1 .023-1.415 4.635 4.635 0 0 0 .048-6.64A1 1 0 0 1 16.838 4.5a6.635 6.635 0 0 1-.069 9.494 1 1 0 0 1-1.414-.022z" fill="#fff"/><path d="M14.321 9.214c0 1.26-1.039 2.282-2.321 2.282-1.282 0-2.321-1.022-2.321-2.282s1.039-2.28 2.321-2.28c1.282 0 2.321 1.02 2.321 2.28z" fill="#fff"/><path fill-rule="evenodd" clip-rule="evenodd" d="M12 9.496c.21 0 .321-.159.321-.282 0-.122-.11-.28-.321-.28-.21 0-.321.158-.321.28 0 .123.11.282.321.282zm0 2c1.282 0 2.321-1.022 2.321-2.282S13.282 6.934 12 6.934c-1.282 0-2.321 1.02-2.321 2.28 0 1.26 1.039 2.282 2.321 2.282z" fill="#fff"/><path fill-rule="evenodd" clip-rule="evenodd" d="M12 10.072a1 1 0 0 1 1 1v9.285a1 1 0 1 1-2 0v-9.285a1 1 0 0 1 1-1z" fill="#fff"/></svg>