<svg width="24" height="24" fill="none" xmlns="http://www.w3.org/2000/svg"><g clip-path="url(#clip0_878_22603)" fill-rule="evenodd" clip-rule="evenodd" fill="#fff"><path d="M7 7a1 1 0 0 1 1-1h8a1 1 0 1 1 0 2H8a1 1 0 0 1-1-1zm0 4.5a1 1 0 0 1 1-1h3.5a1 1 0 1 1 0 2H8a1 1 0 0 1-1-1zM7 16a1 1 0 0 1 1-1h2a1 1 0 1 1 0 2H8a1 1 0 0 1-1-1zm7-4.5a1 1 0 0 1 1-1h1a1 1 0 1 1 0 2h-1a1 1 0 0 1-1-1zm0 4.5a1 1 0 0 1 1-1h1a1 1 0 1 1 0 2h-1a1 1 0 0 1-1-1z"/><path d="M3 18.239V6.934c0-.886 0-1.65.082-2.262.088-.655.287-1.284.797-1.793.51-.51 1.138-.709 1.793-.797C6.284 2 7.048 2 7.934 2h8.132c.886 0 1.65 0 2.262.082.655.088 1.284.287 1.793.797.51.51.709 1.138.797 1.793C21 5.284 21 6.048 21 6.934V18.24c0 .586 0 1.132-.063 1.565-.07.471-.244 1.034-.782 1.415-.538.38-1.127.357-1.595.265-.43-.084-.944-.266-1.497-.461a9.527 9.527 0 0 1-.062-.022l-.13-.046a6.343 6.343 0 0 0-.398-.133l-.004-.001a6.281 6.281 0 0 0-.382.185l-.806.408-.086.044c-.313.16-.71.364-1.152.383a1.993 1.993 0 0 1-.42-.027c-.436-.074-.805-.325-1.095-.523l-.08-.054a6.93 6.93 0 0 0-.442-.287L12 20.947l-.006.003c-.091.05-.211.13-.442.287l-.08.054c-.29.198-.659.45-1.095.523-.139.024-.28.033-.42.026-.442-.018-.84-.222-1.153-.382l-.085-.044-.806-.408a6.273 6.273 0 0 0-.378-.183l-.004-.002-.004.001a6.331 6.331 0 0 0-.399.133L7 21.001a9.736 9.736 0 0 1-.062.022c-.553.195-1.068.377-1.497.462-.468.091-1.057.114-1.595-.266s-.712-.944-.782-1.415C3 19.37 3 18.824 3 18.239zm2.044 1.285l-.002-.011c-.04-.27-.042-.665-.042-1.34V7c0-.971.002-1.599.064-2.061.059-.434.153-.57.229-.646.076-.076.212-.17.646-.229C6.4 4.002 7.029 4 8 4h8c.971 0 1.599.002 2.061.064.434.059.57.153.646.229.076.076.17.212.229.646C18.998 5.4 19 6.029 19 7v11.172c0 .677-.003 1.071-.042 1.34a.338.338 0 0 1-.002.012l-.011-.002c-.267-.052-.64-.182-1.278-.407l-.129-.045-.082-.03c-.307-.11-.698-.25-1.116-.223-.418.027-.788.216-1.078.365l-.078.04-.806.408c-.219.11-.33.166-.414.2l-.006.003-.005-.003a6.763 6.763 0 0 1-.386-.251l-.026-.018c-.194-.13-.388-.262-.566-.36a1.99 1.99 0 0 0-.74-.253 2.002 2.002 0 0 0-.47 0 1.99 1.99 0 0 0-.74.253c-.178.098-.372.23-.566.36l-.026.018a6.763 6.763 0 0 1-.386.25l-.005.004-.006-.003a6.664 6.664 0 0 1-.414-.2l-.806-.408-.078-.04c-.29-.149-.66-.338-1.078-.365-.418-.027-.809.113-1.116.223l-.082.03-.129.045c-.638.225-1.01.354-1.278.407l-.011.002z"/></g><defs><clipPath id="clip0_878_22603"><path fill="#fff" d="M0 0H24V24H0z"/></clipPath></defs></svg>