<svg width="24" height="24" fill="none" xmlns="http://www.w3.org/2000/svg"><path fill-rule="evenodd" clip-rule="evenodd" d="M5.935 3h12.13c.887 0 1.65 0 2.263.082.655.088 1.284.287 1.793.797.51.51.709 1.138.797 1.793C23 6.284 23 7.048 23 7.934v8.132c0 .886 0 1.65-.082 2.262-.088.655-.287 1.284-.797 1.793-.51.51-1.138.709-1.793.797-.612.082-1.376.082-2.262.082H5.934c-.886 0-1.65 0-2.262-.082-.655-.088-1.284-.287-1.793-.797-.51-.51-.709-1.138-.797-1.793C1 17.716 1 16.952 1 16.066V8v-.066c0-.886 0-1.65.082-2.262.088-.655.287-1.284.797-1.793.51-.51 1.138-.709 1.793-.797C4.284 3 5.048 3 5.935 3zM3.939 5.064c-.434.059-.57.153-.646.229-.076.076-.17.212-.229.646C3.002 6.4 3 7.029 3 8v8c0 .971.002 1.599.064 2.061.059.434.153.57.229.646.076.076.212.17.646.229C4.4 18.998 5.029 19 6 19h12c.971 0 1.599-.002 2.061-.064.434-.059.57-.153.646-.229.076-.076.17-.212.229-.646.062-.462.064-1.09.064-2.061V8c0-.971-.002-1.599-.064-2.061-.059-.434-.153-.57-.229-.646-.076-.076-.212-.17-.646-.229C19.6 5.002 18.971 5 18 5H6.001c-.972 0-1.6.002-2.062.064z" fill="#fff"/><path d="M12 16V8c0-1.886 0-2.828-.586-3.414C10.828 4 9.886 4 8 4H6c-1.886 0-2.828 0-3.414.586C2 5.172 2 6.114 2 8v8c0 1.886 0 2.828.586 3.414C3.172 20 4.114 20 6 20h2c1.886 0 2.828 0 3.414-.586C12 18.828 12 17.886 12 16z" fill="#fff"/></svg>