<svg width="24" height="24" fill="none" xmlns="http://www.w3.org/2000/svg"><path fill-rule="evenodd" clip-rule="evenodd" d="M6.934 2h7.132c.886 0 1.65 0 2.262.082.655.088 1.284.287 1.793.797.51.51.709 1.138.797 1.793C19 5.284 19 6.048 19 6.934V9h-2V7c0-.971-.002-1.599-.064-2.061-.059-.434-.153-.57-.229-.646-.076-.076-.212-.17-.646-.229C15.6 4.002 14.971 4 14 4H7c-.971 0-1.599.002-2.061.064-.434.059-.57.153-.646.229-.076.076-.17.212-.229.646C4.002 5.4 4 6.029 4 7v4.25c0 .846.002 1.393.05 1.801.045.386.12.514.177.583a1 1 0 0 0 .139.139c.069.057.197.132.583.177.408.048.955.05 1.801.05v2h-.057c-.773 0-1.44 0-1.979-.064-.574-.068-1.133-.22-1.617-.617a2.996 2.996 0 0 1-.416-.416c-.397-.484-.55-1.043-.617-1.617C2 12.746 2 12.08 2 11.307V7v-.066c0-.886 0-1.65.082-2.262.088-.655.287-1.284.797-1.793.51-.51 1.138-.709 1.793-.797C5.284 2 6.048 2 6.934 2z" fill="#fff"/><path fill-rule="evenodd" clip-rule="evenodd" d="M9.934 8h7.132c.886 0 1.65 0 2.262.082.655.088 1.284.287 1.793.797.51.51.709 1.138.797 1.793.082.612.082 1.376.082 2.262v4.132c0 .886 0 1.65-.082 2.262-.088.655-.287 1.284-.797 1.793-.51.51-1.138.709-1.793.797-.612.082-1.376.082-2.262.082H9.934c-.886 0-1.65 0-2.262-.082-.655-.088-1.284-.287-1.793-.797-.51-.51-.709-1.138-.797-1.793C5 18.716 5 17.952 5 17.066V13v-.066c0-.886 0-1.65.082-2.262.088-.655.287-1.284.797-1.793.51-.51 1.138-.709 1.793-.797C8.284 8 9.048 8 9.934 8zM7.94 10.064c-.434.059-.57.153-.646.229-.076.076-.17.212-.229.646C7.002 11.4 7 12.029 7 13v4c0 .971.002 1.599.064 2.061.059.434.153.57.229.646.076.076.212.17.646.229C8.4 19.998 9.029 20 10 20h7c.971 0 1.599-.002 2.061-.064.434-.059.57-.153.646-.229.076-.076.17-.212.229-.646.062-.462.064-1.09.064-2.061v-4c0-.971-.002-1.599-.064-2.061-.059-.434-.153-.57-.229-.646-.076-.076-.212-.17-.646-.229C18.6 10.002 17.971 10 17 10h-7c-.971 0-1.599.002-2.061.064z" fill="#fff"/></svg>