<svg width="24" height="24" fill="none" xmlns="http://www.w3.org/2000/svg"><path fill-rule="evenodd" clip-rule="evenodd" d="M6 11V7H4v10h2v-4h5v4h2v-4h5v4h2V7h-2v4h-5V7h-2v4H6z" fill="#fff"/><path fill-rule="evenodd" clip-rule="evenodd" d="M12 4a1 1 0 1 0 0 2 1 1 0 0 0 0-2zM9 5a3 3 0 1 1 6 0 3 3 0 0 1-6 0zM5 4a1 1 0 1 0 0 2 1 1 0 0 0 0-2zM2 5a3 3 0 1 1 6 0 3 3 0 0 1-6 0zm17-1a1 1 0 1 0 0 2 1 1 0 0 0 0-2zm-3 1a3 3 0 1 1 6 0 3 3 0 0 1-6 0zm-4 13a1 1 0 1 0 0 2 1 1 0 0 0 0-2zm-3 1a3 3 0 1 1 6 0 3 3 0 0 1-6 0zm-4-1a1 1 0 1 0 0 2 1 1 0 0 0 0-2zm-3 1a3 3 0 1 1 6 0 3 3 0 0 1-6 0zm17-1a1 1 0 1 0 0 2 1 1 0 0 0 0-2zm-3 1a3 3 0 1 1 6 0 3 3 0 0 1-6 0z" fill="#fff"/></svg>