<svg width="24" height="24" fill="none" xmlns="http://www.w3.org/2000/svg"><path fill-rule="evenodd" clip-rule="evenodd" d="M6.934 4H17.066c.886 0 1.65 0 2.262.082.655.088 1.284.287 1.793.797.51.51.709 1.138.797 1.793C22 7.284 22 8.048 22 8.934v6.132c0 .886 0 1.65-.082 2.262-.088.655-.287 1.284-.797 1.793-.51.51-1.138.709-1.793.797-.612.082-1.376.082-2.262.082H6.934c-.886 0-1.65 0-2.262-.082-.655-.088-1.284-.287-1.793-.797-.51-.51-.709-1.138-.797-1.793C2 16.716 2 15.952 2 15.066V9v-.066c0-.886 0-1.65.082-2.262.088-.655.287-1.284.797-1.793.51-.51 1.138-.709 1.793-.797C5.284 4 6.048 4 6.934 4zM4.94 6.064c-.434.059-.57.153-.646.229-.076.076-.17.212-.229.646C4.002 7.4 4 8.029 4 9v6c0 .971.002 1.599.064 2.061.059.434.153.57.229.646.076.076.212.17.646.229C5.4 17.998 6.029 18 7 18h10c.971 0 1.599-.002 2.061-.064.434-.059.57-.153.646-.229.076-.076.17-.212.229-.646.062-.462.064-1.09.064-2.061V9c0-.971-.002-1.599-.064-2.061-.059-.434-.153-.57-.229-.646-.076-.076-.212-.17-.646-.229C18.6 6.002 17.971 6 17 6H7c-.971 0-1.599.002-2.061.064z" fill="#fff"/><path fill-rule="evenodd" clip-rule="evenodd" d="M7.854 10.146a.5.5 0 0 1 0 .708l-.647.646H10a.5.5 0 0 1 0 1H7.207l.647.646a.5.5 0 0 1-.708.708l-1.5-1.5a.5.5 0 0 1 0-.708l1.5-1.5a.5.5 0 0 1 .708 0zm8.292 0a.5.5 0 0 1 .708 0l1.5 1.5a.5.5 0 0 1 0 .708l-1.5 1.5a.5.5 0 0 1-.708-.708l.647-.646H14a.5.5 0 0 1 0-1h2.793l-.647-.646a.5.5 0 0 1 0-.708z" fill="#fff"/></svg>