<svg width="24" height="24" fill="none" xmlns="http://www.w3.org/2000/svg"><path fill-rule="evenodd" clip-rule="evenodd" d="M15 7H9V5h6v2zM7 9v6H5V9h2zm10 6V9h2v6h-2zm-8 2h6v2H9v-2z" fill="#fff"/><path fill-rule="evenodd" clip-rule="evenodd" d="M5.968 2h.064c.439 0 .817 0 1.13.021.33.023.66.072.986.207a3 3 0 0 1 1.624 1.624c.135.326.184.656.207.986.021.313.021.691.021 1.13v.064c0 .439 0 .817-.021 1.13a3.07 3.07 0 0 1-.207.986 3 3 0 0 1-1.624 1.624 3.07 3.07 0 0 1-.986.207C6.85 10 6.471 10 6.032 10h-.064c-.439 0-.817 0-1.13-.021a3.07 3.07 0 0 1-.986-.207 3 3 0 0 1-1.624-1.624 3.07 3.07 0 0 1-.207-.986C2 6.85 2 6.471 2 6.032v-.064c0-.439 0-.817.021-1.13.023-.33.072-.66.207-.986a3 3 0 0 1 1.624-1.624 3.07 3.07 0 0 1 .986-.207C5.15 2 5.529 2 5.968 2zm-.994 2.017c-.228.015-.315.042-.357.06a1 1 0 0 0-.54.54c-.018.042-.045.129-.06.357C4 5.21 4 5.52 4 6s0 .79.017 1.026c.015.228.042.315.06.357a1 1 0 0 0 .54.54c.042.018.129.045.357.06C5.21 8 5.52 8 6 8s.79 0 1.026-.017c.228-.015.315-.042.357-.06a1 1 0 0 0 .54-.54c.018-.042.045-.129.06-.357C8 6.79 8 6.48 8 6s0-.79-.017-1.026c-.015-.228-.042-.315-.06-.357a1 1 0 0 0-.54-.54c-.042-.018-.129-.045-.357-.06A16.91 16.91 0 0 0 6 4c-.48 0-.79 0-1.026.017zM5.968 14h.064c.439 0 .817 0 1.13.021.33.023.66.072.986.207a3 3 0 0 1 1.624 1.624c.135.326.184.656.207.986.021.313.021.691.021 1.13v.064c0 .439 0 .817-.021 1.13a3.07 3.07 0 0 1-.207.986 3 3 0 0 1-1.624 1.624 3.072 3.072 0 0 1-.986.207C6.85 22 6.471 22 6.032 22h-.064c-.439 0-.817 0-1.13-.021a3.072 3.072 0 0 1-.986-.207 3 3 0 0 1-1.624-1.624 3.07 3.07 0 0 1-.207-.986C2 18.85 2 18.471 2 18.032v-.064c0-.439 0-.817.021-1.13.023-.33.072-.66.207-.986a3 3 0 0 1 1.624-1.624 3.07 3.07 0 0 1 .986-.207C5.15 14 5.529 14 5.968 14zm-.994 2.017c-.228.015-.315.042-.357.06a1 1 0 0 0-.54.54c-.018.042-.045.129-.06.357C4 17.21 4 17.52 4 18s0 .79.017 1.026c.015.228.042.315.06.357a1 1 0 0 0 .54.54c.042.018.129.045.357.06C5.21 20 5.52 20 6 20s.79 0 1.026-.017c.228-.015.315-.042.357-.06a1 1 0 0 0 .54-.54c.018-.042.045-.129.06-.357C8 18.79 8 18.48 8 18s0-.79-.017-1.026c-.015-.228-.042-.315-.06-.357a1 1 0 0 0-.54-.54c-.042-.018-.129-.045-.357-.06A16.888 16.888 0 0 0 6 16c-.48 0-.79 0-1.026.017zM17.968 14h.064c.439 0 .817 0 1.13.021.33.023.66.072.986.207a3 3 0 0 1 1.624 1.624c.135.326.184.656.207.986.021.313.021.691.021 1.13v.064c0 .439 0 .817-.021 1.13-.023.33-.072.66-.207.986a3 3 0 0 1-1.624 1.624 3.073 3.073 0 0 1-.986.207c-.313.021-.691.021-1.13.021h-.064c-.439 0-.817 0-1.13-.021a3.072 3.072 0 0 1-.986-.207 3 3 0 0 1-1.624-1.624 3.07 3.07 0 0 1-.207-.986C14 18.85 14 18.471 14 18.032v-.064c0-.439 0-.817.021-1.13.023-.33.072-.66.207-.986a3 3 0 0 1 1.624-1.624c.326-.135.656-.184.986-.207.313-.021.691-.021 1.13-.021zm-.994 2.017c-.228.015-.315.042-.357.06a1 1 0 0 0-.54.54c-.018.042-.045.129-.06.357C16 17.21 16 17.52 16 18s0 .79.017 1.026c.015.228.042.315.06.357a1 1 0 0 0 .54.54c.042.018.129.045.357.06C17.21 20 17.52 20 18 20s.79 0 1.026-.017c.228-.015.315-.042.357-.06a1 1 0 0 0 .54-.54c.018-.042.045-.129.06-.357C20 18.79 20 18.48 20 18s0-.79-.017-1.026c-.015-.228-.042-.315-.06-.357a1 1 0 0 0-.54-.54c-.042-.018-.129-.045-.357-.06A16.885 16.885 0 0 0 18 16c-.48 0-.79 0-1.026.017zM17.968 2h.064c.439 0 .817 0 1.13.021.33.023.66.072.986.207a3 3 0 0 1 1.624 1.624c.135.326.184.656.207.986.021.313.021.691.021 1.13v.064c0 .439 0 .817-.021 1.13-.023.33-.072.66-.207.986a3 3 0 0 1-1.624 1.624 3.07 3.07 0 0 1-.986.207c-.313.021-.691.021-1.13.021h-.064c-.439 0-.817 0-1.13-.021a3.069 3.069 0 0 1-.986-.207 3 3 0 0 1-1.624-1.624 3.07 3.07 0 0 1-.207-.986C14 6.85 14 6.471 14 6.032v-.064c0-.439 0-.817.021-1.13.023-.33.072-.66.207-.986a3 3 0 0 1 1.624-1.624c.326-.135.656-.184.986-.207C17.15 2 17.529 2 17.968 2zm-.994 2.017c-.228.015-.315.042-.357.06a1 1 0 0 0-.54.54c-.018.042-.045.129-.06.357C16 5.21 16 5.52 16 6s0 .79.017 1.026c.015.228.042.315.06.357a1 1 0 0 0 .54.54c.042.018.129.045.357.06C17.21 8 17.52 8 18 8s.79 0 1.026-.017c.228-.015.315-.042.357-.06a1 1 0 0 0 .54-.54c.018-.042.045-.129.06-.357C20 6.79 20 6.48 20 6s0-.79-.017-1.026c-.015-.228-.042-.315-.06-.357a1 1 0 0 0-.54-.54c-.042-.018-.129-.045-.357-.06A16.908 16.908 0 0 0 18 4c-.48 0-.79 0-1.026.017z" fill="#fff"/></svg>