<svg width="24" height="24" fill="none" xmlns="http://www.w3.org/2000/svg"><path fill-rule="evenodd" clip-rule="evenodd" d="M11.968 8h.064c.439 0 .817 0 1.13.021.33.023.66.072.986.207a3 3 0 0 1 1.624 1.624c.135.326.184.656.207.986.021.313.021.691.021 1.13v.064c0 .439 0 .817-.021 1.13-.023.33-.072.66-.207.986a3 3 0 0 1-1.624 1.624 3.073 3.073 0 0 1-.986.207c-.313.021-.691.021-1.13.021h-.064c-.439 0-.817 0-1.13-.021a3.072 3.072 0 0 1-.986-.207 3 3 0 0 1-1.624-1.624 3.07 3.07 0 0 1-.207-.986C8 12.85 8 12.471 8 12.032v-.064c0-.439 0-.817.021-1.13.023-.33.072-.66.207-.986a3 3 0 0 1 1.624-1.624 3.07 3.07 0 0 1 .986-.207C11.15 8 11.529 8 11.968 8zm-.994 2.017c-.228.015-.315.042-.357.06a1 1 0 0 0-.54.54c-.018.042-.045.129-.06.357C10 11.21 10 11.52 10 12s0 .79.017 1.026c.015.228.042.315.06.357a1 1 0 0 0 .54.54c.042.018.129.045.357.06C11.21 14 11.52 14 12 14s.79 0 1.026-.017c.228-.015.315-.042.357-.06a1 1 0 0 0 .54-.54c.018-.042.045-.129.06-.357C14 12.79 14 12.48 14 12s0-.79-.017-1.026c-.015-.228-.042-.315-.06-.357a1 1 0 0 0-.54-.54c-.042-.018-.129-.045-.357-.06A16.885 16.885 0 0 0 12 10c-.48 0-.79 0-1.026.017zM18.5 4a1.5 1.5 0 1 0 0 3 1.5 1.5 0 0 0 0-3zM15 5.5a3.5 3.5 0 1 1 7 0 3.5 3.5 0 0 1-7 0zM18.5 17a1.5 1.5 0 1 0 0 3 1.5 1.5 0 0 0 0-3zM15 18.5a3.5 3.5 0 1 1 7 0 3.5 3.5 0 0 1-7 0zM5.5 17a1.5 1.5 0 1 0 0 3 1.5 1.5 0 0 0 0-3zM2 18.5a3.5 3.5 0 1 1 7 0 3.5 3.5 0 0 1-7 0zM5.5 4a1.5 1.5 0 1 0 0 3 1.5 1.5 0 0 0 0-3zM2 5.5a3.5 3.5 0 1 1 7 0 3.5 3.5 0 0 1-7 0z" fill="#fff"/><path fill-rule="evenodd" clip-rule="evenodd" d="M7.5 6.086L10.914 9.5 9.5 10.914 6.086 7.5 7.5 6.086zM17.914 7.5L15 10.414 13.586 9 16.5 6.086 17.914 7.5zm-7.5 7.5L7.5 17.914 6.086 16.5 9 13.586 10.414 15zM15 13.586l2.914 2.914-1.414 1.414L13.586 15 15 13.586z" fill="#fff"/></svg>