<svg width="24" height="24" fill="none" xmlns="http://www.w3.org/2000/svg"><path fill-rule="evenodd" clip-rule="evenodd" d="M9.309 19.5h.526a1 1 0 1 0 0-2h-.442c-1.567 0-2.627-.003-3.374-.114-.738-.11-.88-.285-.938-.384-.057-.099-.14-.31.132-1.005.216-.556.588-1.247 1.118-2.182l.403 1.03a1 1 0 1 0 1.862-.727l-1.165-2.982a1 1 0 0 0-1.082-.625l-3.165.482a1 1 0 0 0 .301 1.978l1.121-.171c-.542.958-.986 1.777-1.257 2.47-.345.885-.518 1.839.003 2.736.52.897 1.434 1.22 2.373 1.359.912.135 2.123.135 3.584.135zM7.397 6.397l-.263.455a1 1 0 0 0 1.732 1l.221-.383c.783-1.356 1.316-2.273 1.786-2.865.464-.584.687-.62.801-.62.115 0 .338.034.804.617.373.465.786 1.133 1.332 2.06l-1.095-.168a1 1 0 1 0-.301 1.978l3.165.482a1 1 0 0 0 1.082-.625l1.165-2.982a1 1 0 1 0-1.863-.728l-.412 1.056c-.559-.949-1.046-1.743-1.512-2.324-.593-.74-1.332-1.368-2.37-1.365-1.037.002-1.773.632-2.363 1.376-.573.722-1.178 1.77-1.91 3.036zm11.794 5.559l-.263-.456a1 1 0 1 0-1.732 1l.221.383c.784 1.357 1.311 2.276 1.589 2.979.274.694.192.905.136 1.004-.057.099-.198.275-.936.388-.59.09-1.375.114-2.45.123l.692-.864a1 1 0 1 0-1.561-1.25l-2 2.5a1 1 0 0 0 0 1.25l2 2.5a1 1 0 1 0 1.561-1.25l-.708-.885c1.101-.009 2.032-.034 2.769-.147.938-.143 1.85-.47 2.367-1.37.516-.899.339-1.851-.01-2.734-.339-.858-.944-1.906-1.675-3.171z" fill="#fff"/></svg>