<svg width="24" height="24" fill="none" xmlns="http://www.w3.org/2000/svg"><path fill-rule="evenodd" clip-rule="evenodd" d="M19.061 6.064C18.6 6.002 17.971 6 17 6h-2.5a1 1 0 1 1 0-2h2.566c.886 0 1.65 0 2.262.082.655.088 1.284.287 1.793.797.51.51.709 1.138.797 1.793C22 7.284 22 8.048 22 8.934v.132c0 .886 0 1.65-.082 2.262-.088.655-.287 1.284-.797 1.793-.51.51-1.138.709-1.793.797-.612.082-1.376.082-2.262.082H4.635l3.633 4.36a1 1 0 1 1-1.536 1.28l-5-6a1 1 0 0 1 0-1.28l5-6a1 1 0 1 1 1.536 1.28L4.635 12H17c.971 0 1.599-.002 2.061-.064.434-.059.57-.153.646-.229.076-.076.17-.212.229-.646C19.998 10.6 20 9.971 20 9c0-.971-.002-1.599-.064-2.061-.059-.434-.153-.57-.229-.646-.076-.076-.212-.17-.646-.229z" fill="#fff"/></svg>