<svg width="24" height="24" fill="none" xmlns="http://www.w3.org/2000/svg"><g clip-path="url(#clip0_878_24636)"><g clip-path="url(#clip1_878_24636)"><path fill-rule="evenodd" clip-rule="evenodd" d="M6.064 19.061C6.002 18.6 6 17.971 6 17v-2.5a1 1 0 1 0-2 0v2.566c0 .886 0 1.65.082 2.262.088.655.287 1.284.797 1.793.51.51 1.138.709 1.793.797C7.284 22 8.048 22 8.934 22h.132c.886 0 1.65 0 2.262-.082.655-.088 1.284-.287 1.793-.797.51-.51.709-1.138.797-1.793.082-.612.082-1.376.082-2.262V4.635l4.36 3.633a1 1 0 1 0 1.28-1.536l-6-5a1 1 0 0 0-1.28 0l-6 5a1 1 0 1 0 1.28 1.536L12 4.635V17c0 .971-.002 1.599-.064 2.061-.059.434-.153.57-.229.646-.076.076-.212.17-.646.229C10.6 19.998 9.971 20 9 20c-.971 0-1.599-.002-2.061-.064-.434-.059-.57-.153-.646-.229-.076-.076-.17-.212-.229-.646z" fill="#fff"/></g></g><defs><clipPath id="clip0_878_24636"><path fill="#fff" d="M0 0H24V24H0z"/></clipPath><clipPath id="clip1_878_24636"><path fill="#fff" transform="matrix(0 1 1 0 0 0)" d="M0 0H24V24H0z"/></clipPath></defs></svg>