<svg width="24" height="24" fill="none" xmlns="http://www.w3.org/2000/svg"><g clip-path="url(#clip0_878_24655)"><g clip-path="url(#clip1_878_24655)"><path fill-rule="evenodd" clip-rule="evenodd" d="M6.064 4.939C6.002 5.4 6 6.029 6 7v2.5a1 1 0 1 1-2 0V6.934c0-.886 0-1.65.082-2.262.088-.655.287-1.284.797-1.793.51-.51 1.138-.709 1.793-.797C7.284 2 8.048 2 8.934 2h.132c.886 0 1.65 0 2.262.082.655.088 1.284.287 1.793.797.51.51.709 1.138.797 1.793C14 5.284 14 6.048 14 6.934v12.431l4.36-3.633a1 1 0 1 1 1.28 1.536l-6 5a1 1 0 0 1-1.28 0l-6-5a1 1 0 1 1 1.28-1.536L12 19.365V7c0-.971-.002-1.599-.064-2.061-.059-.434-.153-.57-.229-.646-.076-.076-.212-.17-.646-.229C10.6 4.002 9.971 4 9 4c-.971 0-1.599.002-2.061.064-.434.059-.57.153-.646.229-.076.076-.17.212-.229.646z" fill="#fff"/></g></g><defs><clipPath id="clip0_878_24655"><path fill="#fff" d="M0 0H24V24H0z"/></clipPath><clipPath id="clip1_878_24655"><path fill="#fff" transform="rotate(-90 12 12)" d="M0 0H24V24H0z"/></clipPath></defs></svg>