<svg width="24" height="24" fill="none" xmlns="http://www.w3.org/2000/svg"><g clip-path="url(#clip0_878_24617)"><path fill-rule="evenodd" clip-rule="evenodd" d="M4.939 6.064C5.4 6.002 6.029 6 7 6h2.5a1 1 0 1 0 0-2H6.934c-.886 0-1.65 0-2.262.082-.655.088-1.284.287-1.793.797-.51.51-.709 1.138-.797 1.793C2 7.284 2 8.048 2 8.934v.132c0 .886 0 1.65.082 2.262.088.655.287 1.284.797 1.793.51.51 1.138.709 1.793.797C5.284 14 6.048 14 6.934 14h12.431l-3.633 4.36a1 1 0 1 0 1.536 1.28l5-6a1 1 0 0 0 0-1.28l-5-6a1 1 0 1 0-1.536 1.28L19.365 12H7c-.971 0-1.599-.002-2.061-.064-.434-.059-.57-.153-.646-.229-.076-.076-.17-.212-.229-.646C4.002 10.6 4 9.971 4 9c0-.971.002-1.599.064-2.061.059-.434.153-.57.229-.646.076-.076.212-.17.646-.229z" fill="#fff"/></g><defs><clipPath id="clip0_878_24617"><path fill="#fff" d="M0 0H24V24H0z"/></clipPath></defs></svg>