<svg width="24" height="24" fill="none" xmlns="http://www.w3.org/2000/svg"><path fill-rule="evenodd" clip-rule="evenodd" d="M11.5 5.5a1 1 0 0 0 1 1H14c.971 0 1.599.002 2.061.064.434.059.57.153.646.229.076.076.17.212.229.646.062.462.064 1.09.064 2.061v6.865l-1.36-1.133a1 1 0 1 0-1.28 1.536l3 2.5a1 1 0 0 0 1.28 0l3-2.5a1 1 0 1 0-1.28-1.536L19 16.365V9.5v-.066c0-.886 0-1.65-.082-2.262-.088-.655-.287-1.284-.797-1.793-.51-.51-1.138-.709-1.793-.797-.612-.082-1.376-.082-2.262-.082H12.5a1 1 0 0 0-1 1zm1 13a1 1 0 0 0-1-1H10c-.971 0-1.599-.002-2.061-.064-.434-.059-.57-.153-.646-.229-.076-.076-.17-.212-.229-.646C7.002 16.1 7 15.471 7 14.5V7.635l1.36 1.133a1 1 0 1 0 1.28-1.536l-3-2.5a1 1 0 0 0-1.28 0l-3 2.5a1 1 0 1 0 1.28 1.536L5 7.635v6.931c0 .886 0 1.65.082 2.262.088.655.287 1.284.797 1.793.51.51 1.138.709 1.793.797.612.082 1.375.082 2.262.082H11.5a1 1 0 0 0 1-1z" fill="#fff"/></svg>