<svg width="24" height="24" fill="none" xmlns="http://www.w3.org/2000/svg"><path fill-rule="evenodd" clip-rule="evenodd" d="M9.934 2H10.5a1 1 0 1 1 0 2H10c-.971 0-1.599.002-2.061.064-.434.058-.57.153-.646.229-.076.076-.17.212-.229.646C7.002 5.4 7 6.029 7 6.999v8.223c0 1.763.002 2.977.115 3.803.055.41.128.635.189.752a.419.419 0 0 0 .028.047.42.42 0 0 0 .052-.018c.122-.05.322-.177.627-.456.615-.562 1.395-1.493 2.525-2.847l.696-.835a1 1 0 0 1 1.536 0l.696.835c1.13 1.354 1.91 2.285 2.525 2.847.305.279.505.405.627.456.023.01.04.015.052.018a.424.424 0 0 0 .028-.047c.061-.117.134-.343.19-.752.112-.826.114-2.04.114-3.803V12a1 1 0 1 1 2 0v3.305c0 1.66 0 3.012-.133 3.99-.125.923-.43 2.023-1.515 2.416-1.086.394-2.024-.255-2.712-.885-.724-.661-1.585-1.692-2.64-2.956-1.055 1.264-1.916 2.295-2.64 2.956-.688.63-1.626 1.279-2.712.885-1.085-.393-1.39-1.493-1.515-2.417C5 18.317 5 16.964 5 15.305V7v-.066c0-.886 0-1.65.082-2.262.088-.655.287-1.284.797-1.793.51-.51 1.138-.709 1.793-.797C8.284 2 9.048 2 9.934 2z" fill="#fff"/><path fill-rule="evenodd" clip-rule="evenodd" d="M15.5 2a1 1 0 0 1 1 1v2h2a1 1 0 1 1 0 2h-2v2a1 1 0 1 1-2 0V7h-2a1 1 0 1 1 0-2h2V3a1 1 0 0 1 1-1z" fill="#fff"/></svg>