<svg width="24" height="24" fill="none" xmlns="http://www.w3.org/2000/svg"><path fill-rule="evenodd" clip-rule="evenodd" d="M12.71 4.488a.909.909 0 0 0-1.42 0A10.452 10.452 0 0 0 9 11.018v2.761c0 .587 0 .966.025 1.254.023.276.062.378.088.428a1 1 0 0 0 .426.426c.05.026.152.065.428.088.288.024.667.025 1.254.025h1.558c.587 0 .966 0 1.254-.025.276-.023.378-.062.428-.088a1 1 0 0 0 .426-.426c.026-.05.065-.152.088-.428.024-.288.025-.667.025-1.254v-2.762c0-2.373-.808-4.676-2.29-6.53zm-2.981-1.25a2.909 2.909 0 0 1 4.542 0A12.452 12.452 0 0 1 17 11.018v2.8c0 .537 0 1-.032 1.38-.033.403-.107.802-.306 1.186-.285.547-.73.993-1.278 1.278-.384.2-.783.273-1.186.306-.38.032-.843.032-1.38.032h-1.636c-.537 0-1 0-1.38-.032-.403-.033-.802-.107-1.186-.306a3 3 0 0 1-1.278-1.278c-.2-.384-.273-.783-.306-1.186A17.912 17.912 0 0 1 7 13.819v-2.8c0-2.828.962-5.572 2.729-7.78z" fill="#fff"/><path d="M13 8a1 1 0 1 1-2 0 1 1 0 0 1 2 0z" fill="#fff"/><path fill-rule="evenodd" clip-rule="evenodd" d="M8.832 10.055l-.854 1.28c-.931 1.398-1.564 2.351-1.91 3.085-.346.732-.265.954-.213 1.052.053.098.192.288.993.407.803.118 1.947.121 3.626.121h3.052c1.679 0 2.823-.003 3.626-.121.8-.119.94-.31.993-.407.052-.098.133-.32-.213-1.052-.346-.733-.979-1.687-1.91-3.084l-.854-1.281 1.664-1.11.901 1.352c.873 1.309 1.59 2.385 2.008 3.269.425.9.68 1.891.167 2.85-.513.958-1.479 1.296-2.464 1.441-.966.143-2.26.143-3.833.143H10.39c-1.573 0-2.867 0-3.833-.143-.985-.145-1.951-.483-2.464-1.441-.513-.959-.258-1.95.167-2.85.417-.884 1.135-1.96 2.008-3.269l.047-.07.854-1.282 1.664 1.11zM9 19a1 1 0 0 1 1 1v1a1 1 0 1 1-2 0v-1a1 1 0 0 1 1-1zm3 0a1 1 0 0 1 1 1v2h-2v-2a1 1 0 0 1 1-1zm3 0a1 1 0 0 1 1 1v1a1 1 0 1 1-2 0v-1a1 1 0 0 1 1-1zm-3 4a1 1 0 0 1-1-1h2a1 1 0 0 1-1 1z" fill="#fff"/></svg>