<svg width="24" height="24" fill="none" xmlns="http://www.w3.org/2000/svg"><path fill-rule="evenodd" clip-rule="evenodd" d="M12 3a9 9 0 1 0 0 18 9 9 0 0 0 0-18zM1 12C1 5.925 5.925 1 12 1s11 4.925 11 11-4.925 11-11 11S1 18.075 1 12z" fill="#fff"/><path fill-rule="evenodd" clip-rule="evenodd" d="M12 9a6 6 0 1 0 0 12 6 6 0 0 0 0-12zm-8 6a8 8 0 1 1 16 0 8 8 0 0 1-16 0z" fill="#fff"/><path fill-rule="evenodd" clip-rule="evenodd" d="M12 15a3 3 0 1 0 0 6 3 3 0 0 0 0-6zm-5 3a5 5 0 1 1 10 0 5 5 0 0 1-10 0z" fill="#fff"/></svg>