<svg width="24" height="24" viewBox="0 0 24 24" fill="none" xmlns="http://www.w3.org/2000/svg">
<path fill-rule="evenodd" clip-rule="evenodd" d="M9.375 4C6.40647 4 4 6.40647 4 9.375C4 12.3435 6.40647 14.75 9.375 14.75C12.3435 14.75 14.75 12.3435 14.75 9.375C14.75 6.40647 12.3435 4 9.375 4ZM2 9.375C2 5.3019 5.3019 2 9.375 2C13.4481 2 16.75 5.3019 16.75 9.375C16.75 13.4481 13.4481 16.75 9.375 16.75C5.3019 16.75 2 13.4481 2 9.375Z" fill="white"/>
<path fill-rule="evenodd" clip-rule="evenodd" d="M20.7071 20.7071C20.3166 21.0976 19.6834 21.0976 19.2929 20.7071L13.6262 15.0404C13.2357 14.6499 13.2357 14.0167 13.6262 13.6262C14.0168 13.2357 14.6499 13.2357 15.0404 13.6262L20.7071 19.2929C21.0976 19.6834 21.0976 20.3166 20.7071 20.7071Z" fill="white"/>
</svg>
