<svg width="24" height="24" fill="none" xmlns="http://www.w3.org/2000/svg"><path fill-rule="evenodd" clip-rule="evenodd" d="M17.964 10.028C17.774 10.002 17.5 10 17 10h-1a1 1 0 0 1 0-2h1.054c.425 0 .837 0 1.177.045.383.052.82.178 1.183.54.363.364.489.801.54 1.184.046.34.046.752.046 1.176v8.109c0 .424 0 .837-.046 1.177-.051.383-.177.82-.54 1.183-.363.363-.8.489-1.184.54-.34.046-.752.046-1.176.046H6.946c-.424 0-.837 0-1.177-.046-.383-.051-.82-.177-1.183-.54-.363-.363-.489-.8-.54-1.184C4 19.89 4 19.479 4 19.055V11v-.054c0-.425 0-.837.046-1.177.051-.383.177-.82.54-1.183.363-.363.8-.489 1.184-.54C6.11 8 6.522 8 6.946 8H8a1 1 0 1 1 0 2H7c-.5 0-.774.002-.964.028h-.007l-.001.008C6.002 10.226 6 10.5 6 11v8c0 .5.002.774.028.964v.007l.008.001c.19.026.464.028.964.028h10c.5 0 .774-.002.964-.028h.007l.001-.008c.026-.19.028-.464.028-.964v-8c0-.5-.002-.774-.028-.964v-.007a.16.16 0 0 0-.008-.001z" fill="#fff"/><path fill-rule="evenodd" clip-rule="evenodd" d="M8.793 6.207a1 1 0 0 1 0-1.414l2.5-2.5a1 1 0 0 1 1.414 0l2.5 2.5a1 1 0 0 1-1.414 1.414L13 5.414V14a1 1 0 1 1-2 0V5.414l-.793.793a1 1 0 0 1-1.414 0z" fill="#fff"/></svg>