<svg width="24" height="24" fill="none" xmlns="http://www.w3.org/2000/svg"><path fill-rule="evenodd" clip-rule="evenodd" d="M12.406 15.5h4.689c.835 0 1.455-.001 1.99.15a4 4 0 0 1 2.765 2.764c.15.536.15 1.156.15 1.991V21a1 1 0 0 1-2 0v-.45c0-1.044-.01-1.36-.075-1.593a2 2 0 0 0-1.382-1.382c-.233-.066-.549-.075-1.593-.075h-4.4c-1.044 0-1.36.01-1.593.075a2 2 0 0 0-1.382 1.382c-.065.233-.075.549-.075 1.593V21a1 1 0 0 1-2 0v-.45-.145c0-.835 0-1.455.15-1.99a4 4 0 0 1 2.764-2.765c.536-.151 1.156-.15 1.992-.15zM6.776 11H7a1 1 0 1 1 0 2h-.1c-.894 0-1.166.007-1.367.055a2 2 0 0 0-1.478 1.478C4.007 14.734 4 15.006 4 15.9v1.6a1 1 0 1 1-2 0v-1.6-.124c0-.716 0-1.247.11-1.71a4 4 0 0 1 2.956-2.955c.463-.112.994-.111 1.71-.111zM15 7a2.5 2.5 0 1 0 0 5 2.5 2.5 0 0 0 0-5zm-4.5 2.5a4.5 4.5 0 1 1 9 0 4.5 4.5 0 0 1-9 0zM8.273 4C6.962 4 6 4.989 6 6.088c0 .87.592 1.661 1.498 1.963a1 1 0 0 1-.633 1.898C5.23 9.403 4 7.906 4 6.088 4 3.776 5.969 2 8.273 2c1.461 0 2.77.705 3.544 1.804a1 1 0 1 1-1.634 1.152C9.785 4.392 9.088 4 8.273 4z" fill="#fff"/></svg>