<svg width="24" height="24" fill="none" xmlns="http://www.w3.org/2000/svg"><path fill-rule="evenodd" clip-rule="evenodd" d="M4.946 2h14.108c.425 0 .837 0 1.177.046.383.051.82.177 1.183.54.363.363.489.8.54 1.183.046.34.046.753.046 1.177v14.108c0 .425 0 .837-.046 1.177-.051.383-.177.82-.54 1.183-.363.363-.8.489-1.184.54-.34.046-.752.046-1.176.046H4.946c-.424 0-.837 0-1.177-.046-.383-.051-.82-.177-1.183-.54-.363-.363-.489-.8-.54-1.184C2 19.89 2 19.479 2 19.055V5v-.054c0-.424 0-.837.046-1.177.051-.383.177-.82.54-1.183.363-.363.8-.489 1.183-.54C4.11 2 4.522 2 4.946 2zm-.917 2.029l-.001.007C4.002 4.226 4 4.5 4 5v2h16V5c0-.5-.002-.774-.028-.964v-.007l-.008-.001C19.774 4.002 19.5 4 19 4H5c-.5 0-.774.002-.964.028h-.007zM20 9H10v11h9c.5 0 .774-.002.964-.028a.16.16 0 0 0 .007 0l.001-.008c.026-.19.028-.464.028-.964V9zM8 20V9H4v10c0 .5.002.774.028.964v.007l.008.001c.19.026.464.028.964.028h3z" fill="#fff"/></svg>