<svg width="24" height="24" fill="none" xmlns="http://www.w3.org/2000/svg"><path fill-rule="evenodd" clip-rule="evenodd" d="M12 4.062c-.178 0-.363.032-.997.162l-2.601.529c-.792.161-1.296.266-1.664.389-.342.114-.451.21-.512.284-.062.075-.133.201-.177.56-.047.384-.049.9-.049 1.707v1.024c0 2.916.013 4.134.406 5.236.072.202.153.4.244.594.492 1.062 1.335 1.94 3.379 4.02.607.618 1.001 1.017 1.33 1.28.31.248.457.286.547.295a.996.996 0 0 0 .188 0c.09-.009.237-.047.548-.296.328-.262.722-.661 1.33-1.28 2.043-2.08 2.886-2.957 3.378-4.019.09-.194.172-.393.244-.594.392-1.102.406-2.32.406-5.236V7.693c0-.808-.002-1.323-.049-1.708-.044-.358-.115-.484-.177-.559-.06-.075-.17-.17-.512-.284-.368-.123-.872-.228-1.664-.389l-2.6-.53c-.635-.129-.82-.161-.998-.161zm-1.315-1.815c.518-.105.91-.185 1.315-.185.405 0 .797.08 1.315.185l.081.017 2.658.54c.718.147 1.344.274 1.842.44.538.18 1.037.44 1.427.917.39.477.544 1.019.613 1.58C20 6.264 20 6.903 20 7.636v1.282c0 2.654 0 4.24-.522 5.707a8.97 8.97 0 0 1-.313.765c-.655 1.413-1.767 2.544-3.627 4.437l-.14.142-.04.042c-.556.565-1.034 1.051-1.467 1.398-.461.369-.973.665-1.61.725a3.006 3.006 0 0 1-.562 0c-.637-.06-1.15-.356-1.61-.725-.433-.347-.911-.833-1.466-1.398l-.041-.042-.14-.142c-1.86-1.893-2.972-3.024-3.627-4.437a9 9 0 0 1-.313-.765C4 13.157 4 11.571 4 8.917V7.693v-.058c0-.733 0-1.372.064-1.893.069-.562.223-1.104.613-1.581.39-.477.89-.736 1.427-.916.498-.167 1.124-.294 1.842-.44l.057-.012 2.6-.53.082-.016z" fill="#fff"/></svg>