<svg width="24" height="24" fill="none" xmlns="http://www.w3.org/2000/svg"><g clip-path="url(#clip0_878_22535)"><path d="M19.5 17H9.195c-.81 0-1.214 0-1.494-.237s-.346-.636-.48-1.435l-1.443-8.67c-.133-.798-.2-1.197-.479-1.434-.28-.237-.684-.237-1.494-.237H3M5.857 7l11.308-.007c1.704 0 2.556-.001 3.102.43a2 2 0 0 1 .552.683c.309.624.13 1.457-.226 3.124-.243 1.133-.364 1.7-.71 2.092a2 2 0 0 1-.522.422c-.456.256-1.035.256-2.194.256H7.001" stroke="#fff" stroke-width="2" stroke-linecap="round" stroke-linejoin="round"/><path d="M20 20.5a1.5 1.5 0 1 1-3 0 1.5 1.5 0 0 1 3 0zm-9.5 0a1.5 1.5 0 1 1-3 0 1.5 1.5 0 0 1 3 0z" fill="#fff"/></g><path fill-rule="evenodd" clip-rule="evenodd" d="M9.967 4.314c-.644.215-1.01.54-1.227 1.088-.074.188-.128.324-.168.442-.018.05-.03.092-.04.124.074.011.178.02.33.026C9.038 6 9.242 6 9.5 6h7c.26 0 .463 0 .637-.006.153-.006.257-.015.33-.026a2.197 2.197 0 0 0-.039-.124c-.04-.118-.094-.254-.168-.442-.217-.548-.583-.873-1.227-1.088C15.325 4.08 14.343 4 13 4c-1.342 0-2.325.079-3.033.314zm-.632-1.897C10.376 2.07 11.645 2 13 2s2.624.07 3.665.417c1.105.368 1.985 1.061 2.455 2.25l.024.06c.122.309.27.68.322 1.035.07.475-.021.93-.316 1.363-.337.496-.808.714-1.284.803-.385.072-.85.072-1.298.072H9.432c-.449 0-.913 0-1.298-.072-.476-.09-.947-.307-1.284-.803a1.858 1.858 0 0 1-.316-1.363c.052-.355.2-.726.322-1.036l.024-.059c.47-1.189 1.35-1.882 2.455-2.25z" fill="#fff"/><defs><clipPath id="clip0_878_22535"><path fill="#fff" d="M0 0H24V24H0z"/></clipPath></defs></svg>