<svg width="24" height="24" fill="none" xmlns="http://www.w3.org/2000/svg"><g clip-path="url(#clip0_878_22627)" fill="#fff"><path fill-rule="evenodd" clip-rule="evenodd" d="M4.627 6.009c-.161-.02-.391-.022-.822-.022H3a1 1 0 1 1 0-2H3.854c.362 0 .72 0 1.02.037.342.043.727.146 1.072.437.344.292.508.655.606.985.05.167.09.355.128.554l10.539-.007c.805 0 1.49 0 2.04.059.574.062 1.142.202 1.629.587.348.276.631.625.828 1.024.275.556.293 1.14.234 1.716-.056.549-.2 1.219-.368 2.007l-.02.094c-.114.532-.213.995-.33 1.372-.127.403-.297.789-.598 1.13a2.999 2.999 0 0 1-.784.635c-.397.222-.81.308-1.23.347-.393.036-.867.036-1.41.036H8.18l.028.164c.07.425.11.652.157.807 0 .002 0 .004.002.006l.006.001c.161.02.391.022.822.022H19.5a1 1 0 1 1 0 2H9.146c-.362 0-.72 0-1.02-.037-.342-.043-.727-.146-1.072-.437-.344-.292-.508-.655-.606-.985-.087-.29-.145-.643-.205-1l-.008-.048-.218-1.31a.97.97 0 0 1-.006-.035l-1.22-7.325c-.07-.425-.11-.651-.156-.807 0-.002 0-.004-.002-.006l-.006-.001zM7.847 13h9.32c.598 0 .979-.001 1.269-.028.273-.025.377-.067.436-.1a.999.999 0 0 0 .261-.211c.045-.05.108-.144.19-.405.086-.279.167-.65.292-1.236.183-.855.302-1.417.346-1.845.042-.414-.005-.558-.038-.626a1 1 0 0 0-.276-.341c-.06-.047-.19-.123-.605-.168-.427-.046-1.002-.047-1.877-.047L7.016 8 7.848 13z"/><path d="M20 20.5a1.5 1.5 0 1 1-3 0 1.5 1.5 0 0 1 3 0zm-9.5 0a1.5 1.5 0 1 1-3 0 1.5 1.5 0 0 1 3 0z"/></g><defs><clipPath id="clip0_878_22627"><path fill="#fff" d="M0 0H24V24H0z"/></clipPath></defs></svg>