<svg width="24" height="24" fill="none" xmlns="http://www.w3.org/2000/svg"><path fill-rule="evenodd" clip-rule="evenodd" d="M7.011 8h9.978c1.006 0 1.865 0 2.543.095.722.102 1.413.333 1.937.932.523.6.658 1.316.661 2.045.003.685-.113 1.536-.249 2.533l-.427 3.13c-.105.774-.197 1.445-.34 1.98-.154.577-.398 1.118-.887 1.545-.49.427-1.058.595-1.65.67-.55.07-1.228.07-2.008.07H7.43c-.78 0-1.458 0-2.008-.07-.592-.075-1.16-.243-1.65-.67-.49-.427-.733-.968-.887-1.545-.144-.535-.235-1.206-.34-1.98l-.418-3.06-.01-.07c-.135-.997-.251-1.848-.248-2.533.003-.729.138-1.445.661-2.045.523-.6 1.215-.83 1.937-.932C5.146 8 6.005 8 7.011 8zm-2.264 2.076c-.494.07-.635.181-.71.266-.074.086-.165.24-.167.739-.003.527.092 1.238.24 2.324l.409 3c.116.85.192 1.395.299 1.793.1.372.194.49.27.555.076.067.205.145.587.193.409.052.958.054 1.817.054h9.016c.858 0 1.408-.002 1.817-.054.381-.048.511-.126.587-.193.076-.066.17-.183.27-.555.107-.398.183-.942.299-1.793l.409-3c.148-1.086.243-1.797.24-2.324-.002-.499-.093-.653-.168-.739-.074-.085-.215-.197-.709-.266-.522-.074-1.239-.076-2.335-.076H7.082c-1.096 0-1.813.002-2.335.076z" fill="#fff"/><path fill-rule="evenodd" clip-rule="evenodd" d="M10.934 3H13.066c.886 0 1.65 0 2.262.082.655.088 1.284.287 1.793.797.51.51.709 1.138.797 1.793C18 6.284 18 7.048 18 7.934V9h-2V8c0-.971-.002-1.599-.064-2.061-.059-.434-.153-.57-.229-.646-.076-.076-.212-.17-.646-.229C14.6 5.002 13.971 5 13 5h-2c-.971 0-1.599.002-2.061.064-.434.059-.57.153-.646.229-.076.076-.17.212-.229.646C8.002 6.4 8 7.029 8 8v1H6V8v-.066c0-.886 0-1.65.082-2.262.088-.655.287-1.284.797-1.793.51-.51 1.138-.709 1.793-.797C9.284 3 10.048 3 10.934 3z" fill="#fff"/></svg>