<svg width="24" height="24" fill="none" xmlns="http://www.w3.org/2000/svg"><path fill-rule="evenodd" clip-rule="evenodd" d="M5.5 3a1 1 0 0 1 1 1v1.5H8a1 1 0 0 1 0 2H6.5V9a1 1 0 0 1-2 0V7.5H3a1 1 0 0 1 0-2h1.5V4a1 1 0 0 1 1-1zm8.48 1.192a2 2 0 0 1 1.04 0c.465.125.765.445.955.725.188.28.332.617.455.962.24.68.48 1.639.775 2.82l.015.057c.057.23.087.346.115.43l.002.005.005.002c.082.03.197.064.424.129l.058.016c1.01.289 1.844.527 2.44.764.305.121.609.265.863.453.26.19.537.477.657.897a2 2 0 0 1 0 1.096c-.12.42-.397.707-.657.898a3.9 3.9 0 0 1-.863.452c-.596.237-1.43.475-2.44.764l-.058.016a6.626 6.626 0 0 0-.424.13l-.005.001-.002.006c-.028.083-.058.2-.115.43l-.015.057c-.295 1.18-.535 2.14-.775 2.819-.123.345-.267.683-.455.962-.19.28-.49.6-.955.725-.34.092-.7.092-1.04 0-.465-.125-.765-.444-.955-.725-.188-.28-.332-.617-.455-.962-.24-.68-.48-1.639-.775-2.82l-.015-.057a6.714 6.714 0 0 0-.115-.429l-.002-.006a6.626 6.626 0 0 0-.43-.131l-.057-.016c-1.01-.289-1.844-.527-2.44-.764a3.898 3.898 0 0 1-.863-.452c-.26-.191-.537-.478-.657-.898a2 2 0 0 1 0-1.096c.12-.42.397-.707.657-.897.254-.188.558-.332.863-.453.596-.237 1.43-.475 2.44-.764l.058-.016c.227-.065.342-.099.424-.129l.005-.002.002-.006c.028-.083.058-.2.115-.429l.015-.058c.295-1.18.535-2.14.775-2.819.123-.345.267-.683.455-.962.19-.28.49-.6.955-.725zm.475 2.355c-.204.578-.421 1.442-.735 2.694l-.022.09c-.08.33-.183.748-.444 1.087a1.999 1.999 0 0 1-.311.322c-.33.272-.744.388-1.07.48l-.09.025c-1.082.31-1.817.52-2.307.715a4.587 4.587 0 0 0-.097.04l.097.04c.49.195 1.225.406 2.307.715l.09.025c.326.092.74.208 1.07.48a2 2 0 0 1 .311.322c.261.339.363.757.444 1.087l.022.09c.313 1.252.53 2.116.735 2.694.016.043.03.084.045.121a5.23 5.23 0 0 0 .045-.121c.204-.578.421-1.442.735-2.694l.022-.09c.08-.33.183-.748.444-1.087a2 2 0 0 1 .312-.322c.329-.272.743-.388 1.07-.48l.089-.025c1.082-.309 1.817-.52 2.308-.715l.096-.04a4.722 4.722 0 0 0-.096-.04c-.491-.195-1.226-.406-2.308-.715l-.09-.025c-.326-.092-.74-.208-1.07-.48a1.999 1.999 0 0 1-.311-.322c-.261-.339-.363-.757-.444-1.087l-.022-.09c-.313-1.252-.53-2.116-.735-2.694a5.336 5.336 0 0 0-.045-.121l-.045.121zm.245-.534zm-.398.002zM14.3 17.987l.002-.002-.002.002zm.398-.002a.082.082 0 0 1 .002.002l-.002-.002zM6 15.5a1 1 0 0 1 1 1v1h1a1 1 0 1 1 0 2H7v1a1 1 0 1 1-2 0v-1H4a1 1 0 1 1 0-2h1v-1a1 1 0 0 1 1-1z" fill="#fff"/></svg>