<svg width="24" height="24" fill="none" xmlns="http://www.w3.org/2000/svg"><path fill-rule="evenodd" clip-rule="evenodd" d="M12 4a8 8 0 1 0 0 16 8 8 0 0 0 0-16zM2 12C2 6.477 6.477 2 12 2s10 4.477 10 10-4.477 10-10 10S2 17.523 2 12z" fill="#fff"/><path fill-rule="evenodd" clip-rule="evenodd" d="M11.365 8.632a1 1 0 0 1 1.2-.007l2.602 1.929a1 1 0 0 1 .385 1l-.643 3.214a1 1 0 0 1-.98.803H10.07a1 1 0 0 1-.98-.803l-.643-3.215a1 1 0 0 1 .376-.992l2.54-1.929zm.611 2.047l-1.444 1.096.36 1.796h2.217l.357-1.788-1.49-1.104zm-4.503-.658a.75.75 0 0 1-.326.7L3.42 13.237a.75.75 0 0 1-.84-1.243L5.935 9.73l-.42-4.026a.75.75 0 0 1 1.491-.156l.467 4.474zm9.25.646a.75.75 0 0 1-.326-.7l.467-4.474a.75.75 0 1 1 1.492.156l-.42 4.027 3.354 2.265a.75.75 0 0 1-.84 1.243l-3.727-2.517zm-2.022 5.798a.75.75 0 0 1 .577-.458l4.442-.706a.75.75 0 0 1 .236 1.481l-4.025.64-1.308 3.218a.75.75 0 1 1-1.39-.565l1.468-3.61zm-2.315-9.608a.75.75 0 0 1-.772 0L7.757 4.543a.75.75 0 1 1 .772-1.286L12 5.34l3.471-2.083a.75.75 0 1 1 .772 1.286l-3.857 2.314zm-3.664 9.15a.75.75 0 0 1 .577.458l1.467 3.61a.75.75 0 1 1-1.39.565L8.07 17.422l-4.025-.64a.75.75 0 0 1 .236-1.481l4.442.706z" fill="#fff"/></svg>