<svg width="24" height="24" fill="none" xmlns="http://www.w3.org/2000/svg"><path fill-rule="evenodd" clip-rule="evenodd" d="M11.979 11.914a1 1 0 0 1 1 1v5.708a1 1 0 1 1-2 0v-5.708a1 1 0 0 1 1-1z" fill="#fff"/><path fill-rule="evenodd" clip-rule="evenodd" d="M20.064 21c.625-.78.625-.781.624-.782l-.003-.002-.005-.004-.012-.01a2.155 2.155 0 0 0-.153-.11 6.153 6.153 0 0 0-.415-.258c-.36-.205-.887-.467-1.597-.725-1.42-.517-3.557-1.012-6.524-1.012-2.964 0-4.891.494-6.114 1.038a6.073 6.073 0 0 0-1.333.787 3.52 3.52 0 0 0-.432.409 1.73 1.73 0 0 0-.033.04l-.013.016-.005.007-.003.003v.002c-.001 0-.002.001.798.6l-.8-.599a1 1 0 0 0 1.582 1.224l.01-.012c.021-.021.067-.066.145-.128.154-.124.437-.318.896-.522.918-.407 2.558-.864 5.302-.864 2.74 0 4.645.456 5.841.89a8.377 8.377 0 0 1 1.287.583 4.143 4.143 0 0 1 .34.215h-.002l-.002-.003h-.002m0-.001zm-7.514-10.76l-.003.003a.012.012 0 0 1 .003-.003zm-.005.004c-.02.011-.09.042-.266.037-.252-.007-.62-.09-1.093-.291-.938-.403-2.095-1.196-3.208-2.309C6.243 7.351 5.45 6.194 5.047 5.255c-.202-.472-.285-.84-.292-1.092-.004-.176.027-.247.038-.266.018-.01.089-.042.265-.037.252.007.62.09 1.093.292.939.402 2.095 1.195 3.208 2.308 1.113 1.113 1.906 2.27 2.308 3.208.202.472.285.84.292 1.093.005.176-.026.247-.037.265zM4.796 3.892l-.003.003a.013.013 0 0 1 .003-.003zm-.007.007a.012.012 0 0 1-.003.002L4.79 3.9zm7.13 7.13l-.002.003.002-.004zm-2.144 1.58c-1.226-.524-2.588-1.485-3.835-2.731C4.695 8.63 3.734 7.269 3.21 6.043c-.261-.61-.436-1.235-.453-1.824-.016-.592.13-1.243.622-1.736.493-.493 1.144-.639 1.736-.622.589.016 1.214.191 1.825.453 1.225.525 2.587 1.485 3.834 2.732 1.247 1.247 2.207 2.608 2.732 3.834.262.61.437 1.236.453 1.825.017.592-.129 1.243-.622 1.736-.493.493-1.144.638-1.736.622-.589-.017-1.214-.192-1.824-.453z" fill="#fff"/><path fill-rule="evenodd" clip-rule="evenodd" d="M13.763 6.586c-.432.431-.818.872-1.153 1.306a1 1 0 1 1-1.584-1.22 15.54 15.54 0 0 1 1.322-1.5c1.247-1.247 2.609-2.207 3.835-2.733.61-.261 1.235-.436 1.824-.453.592-.016 1.243.13 1.736.622.493.493.639 1.144.622 1.736-.016.59-.191 1.215-.453 1.825-.525 1.226-1.485 2.588-2.732 3.834-1.605 1.605-3.442 2.774-4.948 3.096a1 1 0 1 1-.418-1.956c.975-.208 2.482-1.085 3.952-2.554 1.113-1.113 1.906-2.27 2.308-3.208.202-.472.285-.84.292-1.093.005-.176-.026-.246-.037-.265-.02-.011-.09-.042-.266-.037-.252.007-.62.09-1.092.292-.94.402-2.096 1.195-3.208 2.308zm4.571-2.56l-.003-.002a.012.012 0 0 1 .003.003zm-.007-.005a.014.014 0 0 1-.002-.003l.002.003z" fill="#fff"/></svg>