<svg width="24" height="24" fill="none" xmlns="http://www.w3.org/2000/svg"><path fill-rule="evenodd" clip-rule="evenodd" d="M21.707 2.293a1 1 0 0 1 0 1.414L20 5.414 18.586 4l1.707-1.707a1 1 0 0 1 1.414 0zM19.414 6l-7.707 7.707a1 1 0 0 1-1.414-1.414L18 4.586 19.414 6z" fill="#fff"/><path fill-rule="evenodd" clip-rule="evenodd" d="M6.934 6H10a1 1 0 1 1 0 2H7c-.971 0-1.599.002-2.061.064-.434.059-.57.153-.646.229-.076.076-.17.212-.229.646C4.002 9.4 4 10.029 4 11v6c0 .971.002 1.599.064 2.061.059.434.153.57.229.646.076.076.212.17.646.229C5.4 19.998 6.029 20 7 20h6c.971 0 1.599-.002 2.061-.064.434-.059.57-.153.646-.229.076-.076.17-.212.229-.646.062-.462.064-1.09.064-2.061v-3a1 1 0 1 1 2 0v3.066c0 .886 0 1.65-.082 2.262-.088.655-.287 1.284-.797 1.793-.51.51-1.138.709-1.793.797-.612.082-1.376.082-2.262.082H6.934c-.886 0-1.65 0-2.262-.082-.655-.088-1.284-.287-1.793-.797-.51-.51-.709-1.138-.797-1.793C2 18.716 2 17.952 2 17.066V11v-.066c0-.886 0-1.65.082-2.262.088-.655.287-1.284.797-1.793.51-.51 1.138-.709 1.793-.797C5.284 6 6.048 6 6.934 6z" fill="#fff"/></svg>