<svg width="24" height="24" fill="none" xmlns="http://www.w3.org/2000/svg"><path fill-rule="evenodd" clip-rule="evenodd" d="M17.977 15.923c-.22-.136-.521-.304-.963-.549l.972-1.748.02.011c.416.231.757.42 1.02.583.26.16.522.339.73.566a3 3 0 0 1-.179 4.232c-.226.208-.502.365-.774.502-.276.14-.632.3-1.065.495l-2.865 1.289-.169.076c-1.046.472-1.841.83-2.704.83-.863 0-1.658-.358-2.704-.83l-.168-.076-3.256-1.465c-.366-.165-.668-.3-.904-.418a3.34 3.34 0 0 1-.675-.422A3 3 0 0 1 4 14.71c.178-.198.396-.361.612-.509.218-.149.499-.324.839-.537l.018-.011 1.06 1.696c-.362.227-.609.38-.79.504-.185.127-.24.18-.25.192a1 1 0 0 0 .097 1.43c.013.011.074.057.275.157.195.098.46.217.85.393l3.236 1.456c1.294.582 1.673.73 2.052.73.38 0 .758-.148 2.052-.73l2.843-1.28c.46-.207.775-.348 1.006-.465.239-.12.308-.176.32-.188a1 1 0 0 0 .06-1.41c-.012-.013-.076-.074-.304-.214z" fill="#fff"/><path fill-rule="evenodd" clip-rule="evenodd" d="M17.714 11.493c-.265-.15-.63-.333-1.161-.599l.894-1.788.025.012c.5.25.91.455 1.225.633.309.174.62.372.86.635a3 3 0 0 1-.085 4.127c-.25.253-.569.438-.884.6-.322.164-.74.352-1.25.582l-2.5 1.125-.164.074c-1.016.458-1.788.806-2.625.816h-.097c-.838-.01-1.61-.358-2.626-.816a87 87 0 0 0-.163-.074l-2.9-1.305c-.434-.195-.79-.355-1.066-.495-.272-.137-.548-.294-.774-.502a3 3 0 0 1-.179-4.232c.208-.227.47-.406.73-.566.263-.162.604-.352 1.02-.582l.02-.012.972 1.748c-.442.245-.743.413-.963.549-.228.14-.292.2-.304.214a1 1 0 0 0 .06 1.41c.012.012.081.067.32.188.231.117.545.258 1.006.466l2.878 1.295c1.256.565 1.625.71 1.993.714h.048c.368-.004.737-.149 1.993-.714l2.475-1.114c.542-.244.913-.411 1.185-.55.132-.068.223-.12.287-.162a.912.912 0 0 0 .066-.046l.02-.016a1 1 0 0 0 .027-1.376l-.018-.017a.93.93 0 0 0-.064-.05 3.29 3.29 0 0 0-.28-.172z" fill="#fff"/><path fill-rule="evenodd" clip-rule="evenodd" d="M12 3.854c-.417 0-.83.179-2.236.882L7.447 5.894c-.531.266-.896.449-1.161.599-.13.073-.219.129-.28.173a.91.91 0 0 0-.065.049l-.018.017a1 1 0 0 0 .028 1.376l.019.016a.912.912 0 0 0 .066.046c.064.042.155.094.287.162.272.139.643.306 1.185.55l2.476 1.114c1.255.565 1.624.71 1.992.714h.048c.368-.004.737-.149 1.993-.714l2.475-1.114c.542-.244.913-.411 1.185-.55a3.3 3.3 0 0 0 .287-.162.912.912 0 0 0 .066-.046l.02-.016a1 1 0 0 0 .027-1.376l-.018-.017a.908.908 0 0 0-.064-.05c-.062-.043-.151-.1-.28-.172-.266-.15-.63-.333-1.162-.599l-2.317-1.158c-1.406-.703-1.82-.882-2.236-.882zm-2.947-.999c1.135-.568 1.998-1 2.947-1 .95 0 1.812.432 2.947 1l.184.092 2.34 1.17c.502.251.912.456 1.226.634.309.174.62.372.86.635a3 3 0 0 1-.085 4.127c-.25.253-.569.438-.884.6-.322.164-.74.352-1.25.582l-2.5 1.125-.164.074c-1.016.458-1.788.806-2.625.816h-.098c-.837-.01-1.609-.358-2.625-.816a81.567 81.567 0 0 0-.163-.074l-2.5-1.125c-.511-.23-.93-.418-1.25-.583-.316-.16-.636-.346-.885-.599a3 3 0 0 1-.084-4.127c.239-.263.55-.461.859-.635.314-.178.724-.383 1.225-.633l2.341-1.17.184-.093z" fill="#fff"/></svg>