<svg width="24" height="24" fill="none" xmlns="http://www.w3.org/2000/svg"><path fill-rule="evenodd" clip-rule="evenodd" d="M14.686 4.071A3 3 0 0 1 17.86 6.15c.086.272.114.552.127.826.013.27.013.603.013 1.001V8h-2c0-.428 0-.714-.01-.93a1.426 1.426 0 0 0-.037-.317 1 1 0 0 0-1.058-.693 1.415 1.415 0 0 0-.304.094 22.15 22.15 0 0 0-.857.362L11 7.71c-.893.39-1.49.652-1.93.903-.42.24-.616.425-.743.62-.128.195-.22.449-.271.929C8 10.665 8 11.317 8 12.291V15c0 .887.001 1.48.044 1.92.042.437.115.57.149.616a1 1 0 0 0 .589.386c.056.013.207.026.625-.11.42-.137.964-.373 1.776-.728l.8 1.834-.046.02c-.755.329-1.387.605-1.91.775-.535.175-1.1.29-1.681.16a3 3 0 0 1-1.768-1.156c-.351-.48-.471-1.045-.525-1.606C6 16.563 6 15.873 6 15.05v-2.81c0-.909 0-1.669.067-2.293.07-.66.224-1.256.586-1.81.363-.554.849-.933 1.425-1.262.545-.31 1.242-.615 2.074-.978l2.804-1.223c.364-.16.67-.293.922-.389.257-.098.525-.184.808-.214z" fill="#fff"/><path fill-rule="evenodd" clip-rule="evenodd" d="M11.953 4.753a1 1 0 0 0-1.058-.693 1.415 1.415 0 0 0-.304.094c-.203.077-.465.191-.857.362L7 5.71c-.893.39-1.49.652-1.93.903-.42.24-.616.425-.743.62-.128.195-.22.449-.271.929C4 8.665 4 9.317 4 10.291v2.784c0 .84.001 1.402.04 1.82.037.417.103.546.133.59a1 1 0 0 0 .65.421c.052.01.196.018.592-.117.398-.134.911-.362 1.679-.703l.812 1.828-.043.019c-.713.317-1.31.582-1.805.75-.505.172-1.038.292-1.591.192a3 3 0 0 1-1.948-1.267c-.316-.464-.423-1-.472-1.532C2 14.556 2 13.903 2 13.123v-2.884c0-.908 0-1.668.067-2.292.07-.66.224-1.256.586-1.81.363-.554.849-.933 1.425-1.262.545-.31 1.242-.615 2.074-.978l2.804-1.223c.364-.16.67-.293.922-.389.257-.098.525-.184.808-.214A3 3 0 0 1 13.86 4.15c.086.272.114.552.127.826.013.27.013.603.013 1.001V6h-2c0-.428 0-.714-.01-.93a1.426 1.426 0 0 0-.037-.317z" fill="#fff"/><path fill-rule="evenodd" clip-rule="evenodd" d="M18.6 8.21c-.518.156-1.193.449-2.2.888L15 9.71c-.893.39-1.49.652-1.93.903-.42.24-.616.425-.743.62-.128.195-.22.449-.271.929-.055.504-.056 1.156-.056 2.13v1.89c0 1.272.002 2.123.085 2.736.081.601.214.748.29.81.05.039.103.073.159.103.086.046.274.109.858-.057.595-.17 1.375-.508 2.54-1.017L17 18.291c.893-.39 1.49-.652 1.93-.903.42-.24.616-.426.743-.62.128-.195.22-.449.272-.93.054-.503.055-1.155.055-2.13v-2.253c0-1.099-.002-1.834-.065-2.371-.063-.531-.168-.676-.223-.732a1 1 0 0 0-.353-.23c-.073-.029-.248-.067-.76.088zm-.58-1.915c.664-.2 1.364-.307 2.058-.04a3 3 0 0 1 1.057.692c.522.529.705 1.213.786 1.902.08.669.079 1.523.079 2.544v2.368c0 .908 0 1.668-.067 2.292-.07.66-.224 1.256-.586 1.81-.363.554-.849.933-1.425 1.262-.545.31-1.242.615-2.074.978l-1.182.515c-1.081.473-1.986.867-2.727 1.078-.767.219-1.574.306-2.338-.097a3 3 0 0 1-.474-.31c-.675-.54-.917-1.314-1.024-2.105-.103-.763-.103-1.75-.103-2.93V14.24c0-.908 0-1.668.067-2.292.07-.66.224-1.256.586-1.81.363-.554.849-.933 1.425-1.262.545-.31 1.242-.615 2.074-.978l1.505-.657c.936-.408 1.719-.75 2.363-.945z" fill="#fff"/></svg>