<svg width="24" height="24" fill="none" xmlns="http://www.w3.org/2000/svg"><path fill-rule="evenodd" clip-rule="evenodd" d="M11.045 2.535c.22-.221.543-.408.955-.408.412 0 .735.187.955.408a2.2 2.2 0 0 1 .414.62c.172.363.336.87.514 1.422l.02.063 1.325 4.102h3.75c.578 0 1.11 0 1.507.052.208.027.471.078.717.203.278.142.554.392.68.783.127.391.05.756-.092 1.033a2.196 2.196 0 0 1-.462.585c-.291.275-.722.587-1.191.926l-3.212 2.323 1.357 4.201c.177.545.339 1.047.411 1.439.038.205.07.47.026.742a1.34 1.34 0 0 1-.532.884c-.33.24-.698.281-1.006.234a2.187 2.187 0 0 1-.698-.253c-.35-.19-.777-.499-1.242-.834L12 18.718 8.812 21.02l-.053.039c-.465.335-.892.644-1.242.834-.184.1-.426.21-.698.253a1.339 1.339 0 0 1-1.006-.234 1.34 1.34 0 0 1-.532-.884 2.187 2.187 0 0 1 .026-.742c.072-.392.234-.894.41-1.439l1.358-4.201-3.158-2.284-.054-.04c-.469-.338-.9-.65-1.191-.925a2.198 2.198 0 0 1-.462-.585 1.34 1.34 0 0 1-.093-1.033c.127-.391.404-.64.681-.783.246-.125.509-.176.717-.203.397-.052.929-.052 1.508-.052H8.772l1.325-4.102.02-.063c.178-.552.342-1.06.514-1.422.09-.19.219-.425.414-.62zm2.28 6.822L12 5.254l-1.325 4.103-.009.028c-.045.141-.102.317-.17.466a1.486 1.486 0 0 1-.477.604 1.487 1.487 0 0 1-.721.268 4.495 4.495 0 0 1-.496.019H5.09l3.158 2.284.025.018c.12.086.269.194.39.305.148.135.328.339.426.64.099.3.074.57.034.767-.032.161-.09.336-.135.477l-.009.029L7.641 19.4l3.188-2.303.024-.018c.119-.086.267-.194.41-.273.174-.099.422-.205.737-.205s.563.107.737.205c.143.08.291.187.41.273l.024.018L16.36 19.4l-1.337-4.138-.01-.03c-.045-.14-.102-.315-.134-.476a1.487 1.487 0 0 1 .034-.768c.098-.3.278-.504.426-.64.122-.11.27-.218.39-.304l.025-.018 3.158-2.284H15.198c-.148 0-.332 0-.496-.019a1.487 1.487 0 0 1-.72-.268 1.488 1.488 0 0 1-.478-.604c-.068-.15-.125-.325-.17-.466a2.77 2.77 0 0 0-.01-.028z" fill="#fff"/></svg>