<svg width="24" height="24" fill="none" xmlns="http://www.w3.org/2000/svg"><path fill-rule="evenodd" clip-rule="evenodd" d="M8 10h12.5v7.066c0 .886 0 1.65-.082 2.262-.088.655-.287 1.284-.797 1.793-.51.51-1.138.709-1.793.797-.612.082-1.376.082-2.262.082h-2.632c-.886 0-1.65 0-2.262-.082-.655-.088-1.284-.287-1.793-.797-.51-.51-.709-1.138-.797-1.793C8 18.716 8 17.952 8 17.066V10zm2 2v5c0 .971.002 1.599.064 2.061.059.434.153.57.229.646.076.076.212.17.646.229.462.062 1.09.064 2.061.064h2.5c.971 0 1.599-.002 2.061-.064.434-.059.57-.153.646-.229.076-.076.17-.212.229-.646.062-.462.064-1.09.064-2.061v-5H10zm-5.5-1.09a1 1 0 0 1 1 1V21a1 1 0 1 1-2 0v-9.09a1 1 0 0 1 1-1z" fill="#fff"/><path fill-rule="evenodd" clip-rule="evenodd" d="M7.568 2h8.865c.593 0 1.114 0 1.548.046.47.05.924.163 1.353.443.429.28.714.653.948 1.062.216.379.426.857.663 1.4l.733 1.676.012.027c.058.133.11.25.152.374.077.228.126.464.147.704.011.13.011.258.011.403v.17c.001.636.002 1.187-.16 1.662a3 3 0 0 1-1.873 1.873c-.475.162-1.026.161-1.662.16H5.695c-.636.001-1.187.002-1.662-.16A3 3 0 0 1 2.16 9.967C1.998 9.492 1.999 8.94 2 8.305v-.14-.03c0-.145 0-.273.011-.403a3 3 0 0 1 .147-.704c.042-.123.094-.24.152-.374l.012-.027.713-1.631.02-.045c.237-.543.447-1.021.663-1.4.234-.41.52-.781.948-1.062.429-.28.884-.392 1.353-.443C6.452 2 6.974 2 7.568 2zM6.233 4.035c-.29.031-.402.082-.472.128-.07.046-.162.128-.307.381-.157.274-.323.652-.586 1.254l-.714 1.63c-.076.175-.09.21-.101.241a1 1 0 0 0-.05.235c-.002.033-.003.07-.003.26 0 .86.013 1.041.053 1.158a1 1 0 0 0 .625.625c.117.04.298.053 1.157.053h12.33c.859 0 1.04-.013 1.157-.053a1 1 0 0 0 .625-.625c.04-.117.053-.298.053-1.157 0-.19 0-.228-.004-.261a1 1 0 0 0-.049-.235 3.495 3.495 0 0 0-.1-.24l-.715-1.631c-.263-.602-.43-.98-.586-1.254-.145-.253-.237-.335-.307-.38-.07-.047-.181-.098-.472-.129C17.453 4.001 17.04 4 16.384 4H7.616c-.656 0-1.07.001-1.383.035z" fill="#fff"/><path fill-rule="evenodd" clip-rule="evenodd" d="M7 7a1 1 0 0 1 1 1v3a1 1 0 1 1-2 0V8a1 1 0 0 1 1-1zm5 0a1 1 0 0 1 1 1v3a1 1 0 1 1-2 0V8a1 1 0 0 1 1-1zm5 0a1 1 0 0 1 1 1v3a1 1 0 1 1-2 0V8a1 1 0 0 1 1-1z" fill="#fff"/></svg>