<svg width="24" height="24" fill="none" xmlns="http://www.w3.org/2000/svg"><path fill-rule="evenodd" clip-rule="evenodd" d="M8.274 4.82C7.45 5.318 7 6.012 7 7c0 .769.164 1.314.452 1.743.227.338.564.657 1.066.961.803.486 1.965.9 3.6 1.296H21a1 1 0 1 1 0 2h-3.875l.014.01C18.419 14.007 19 15.323 19 17c0 1.773-.892 3.078-2.24 3.892C15.46 21.675 13.758 22 12 22c-2.19 0-4.35-.507-5.7-1.83a1 1 0 1 1 1.4-1.429C8.5 19.524 10.016 20 12 20c1.555 0 2.853-.294 3.726-.82C16.55 18.682 17 17.988 17 17c0-1.13-.35-1.835-1.09-2.41-.78-.609-2.052-1.112-4.028-1.59H3a1 1 0 1 1 0-2h3.875A4.879 4.879 0 0 1 5.79 9.857C5.235 9.027 5 8.07 5 7c0-1.773.892-3.079 2.24-3.892C8.54 2.325 10.243 2 12 2c2.348 0 4.688.585 6.003 2.159A1 1 0 1 1 16.47 5.44C15.729 4.556 14.149 4 12 4c-1.555 0-2.853.294-3.726.82z" fill="#fff"/></svg>