<svg width="24" height="24" viewBox="0 0 24 24" fill="none" xmlns="http://www.w3.org/2000/svg">
<path fill-rule="evenodd" clip-rule="evenodd" d="M12.982 4.306C12.5988 3.90837 11.9657 3.89674 11.5681 4.28002L6 9.64716V5C6 4.44772 5.55229 4 5 4C4.44771 4 4 4.44772 4 5V19C4 19.5523 4.44771 20 5 20C5.55229 20 6 19.5523 6 19V14.3528L11.5681 19.72C11.9657 20.1033 12.5988 20.0916 12.982 19.694C13.3653 19.2964 13.3537 18.6633 12.9561 18.28L7.47837 13H19C19.5523 13 20 12.5523 20 12C20 11.4477 19.5523 11 19 11H7.47837L12.9561 5.71998C13.3537 5.3367 13.3653 4.70364 12.982 4.306Z" fill="white"/>
</svg>
