<svg width="24" height="24" fill="none" xmlns="http://www.w3.org/2000/svg"><g clip-path="url(#clip0_878_24200)"><g clip-path="url(#clip1_878_24200)"><path fill-rule="evenodd" clip-rule="evenodd" d="M11.293 2.293a1 1 0 0 1 1.414 0L20 9.586V3a1 1 0 1 1 2 0v18a1 1 0 1 1-2 0v-6.586l-7.293 7.293a1 1 0 0 1-1.414-1.414L18.586 13H3a1 1 0 1 1 0-2h15.586l-7.293-7.293a1 1 0 0 1 0-1.414z" fill="#fff"/></g></g><defs><clipPath id="clip0_878_24200"><path fill="#fff" d="M0 0H24V24H0z"/></clipPath><clipPath id="clip1_878_24200"><path fill="#fff" transform="rotate(-90 12 12)" d="M0 0H24V24H0z"/></clipPath></defs></svg>