<svg width="24" height="24" viewBox="0 0 24 24" fill="none" xmlns="http://www.w3.org/2000/svg">
<g clip-path="url(#clip0_878_24200)">
<g clip-path="url(#clip1_878_24200)">
<path fill-rule="evenodd" clip-rule="evenodd" d="M11.2929 2.29289C11.6834 1.90237 12.3166 1.90237 12.7071 2.29289L20 9.58579V3C20 2.44772 20.4477 2 21 2C21.5523 2 22 2.44772 22 3V11.999C22 11.9997 22 12.0003 22 12.001V21C22 21.5523 21.5523 22 21 22C20.4477 22 20 21.5523 20 21V14.4142L12.7071 21.7071C12.3166 22.0976 11.6834 22.0976 11.2929 21.7071C10.9024 21.3166 10.9024 20.6834 11.2929 20.2929L18.5858 13L3 13C2.44772 13 2 12.5523 2 12C2 11.4477 2.44772 11 3 11L18.5858 11L11.2929 3.70711C10.9024 3.31658 10.9024 2.68342 11.2929 2.29289Z" fill="white"/>
</g>
</g>
<defs>
<clipPath id="clip0_878_24200">
<rect width="24" height="24" fill="white"/>
</clipPath>
<clipPath id="clip1_878_24200">
<rect width="24" height="24" fill="white" transform="translate(0 24) rotate(-90)"/>
</clipPath>
</defs>
</svg>
