<svg width="24" height="24" viewBox="0 0 24 24" fill="none" xmlns="http://www.w3.org/2000/svg">
<path fill-rule="evenodd" clip-rule="evenodd" d="M21.7071 11.2929C22.0976 11.6834 22.0976 12.3166 21.7071 12.7071L14.4142 20L21 20C21.5523 20 22 20.4477 22 21C22 21.5523 21.5523 22 21 22L12.001 22C12.0003 22 11.9997 22 11.999 22L3 22C2.44771 22 2 21.5523 2 21C2 20.4477 2.44771 20 3 20L9.58579 20L2.29289 12.7071C1.90237 12.3166 1.90237 11.6834 2.29289 11.2929C2.68342 10.9024 3.31658 10.9024 3.70711 11.2929L11 18.5858L11 3C11 2.44771 11.4477 2 12 2C12.5523 2 13 2.44771 13 3L13 18.5858L20.2929 11.2929C20.6834 10.9024 21.3166 10.9024 21.7071 11.2929Z" fill="white"/>
</svg>
