<svg width="24" height="24" viewBox="0 0 24 24" fill="none" xmlns="http://www.w3.org/2000/svg">
<path fill-rule="evenodd" clip-rule="evenodd" d="M11.018 4.306C11.4012 3.90837 12.0343 3.89674 12.4319 4.28002L18 9.64716V5C18 4.44772 18.4477 4 19 4C19.5523 4 20 4.44772 20 5V19C20 19.5523 19.5523 20 19 20C18.4477 20 18 19.5523 18 19V14.3528L12.4319 19.72C12.0343 20.1033 11.4012 20.0916 11.018 19.694C10.6347 19.2964 10.6463 18.6633 11.0439 18.28L16.5216 13H5C4.44772 13 4 12.5523 4 12C4 11.4477 4.44772 11 5 11H16.5216L11.0439 5.71998C10.6463 5.3367 10.6347 4.70364 11.018 4.306Z" fill="white"/>
</svg>
