<svg width="24" height="24" viewBox="0 0 24 24" fill="none" xmlns="http://www.w3.org/2000/svg">
<g clip-path="url(#clip0_878_24221)">
<path fill-rule="evenodd" clip-rule="evenodd" d="M12.7071 21.7071C12.3166 22.0976 11.6834 22.0976 11.2929 21.7071L4 14.4142L4 21C4 21.5523 3.55228 22 3 22C2.44772 22 2 21.5523 2 21L2 12.001C2 12.0003 2 11.9997 2 11.999L2 3C2 2.44771 2.44772 2 3 2C3.55229 2 4 2.44771 4 3L4 9.58579L11.2929 2.29289C11.6834 1.90237 12.3166 1.90237 12.7071 2.29289C13.0976 2.68342 13.0976 3.31658 12.7071 3.70711L5.41422 11L21 11C21.5523 11 22 11.4477 22 12C22 12.5523 21.5523 13 21 13L5.41422 13L12.7071 20.2929C13.0976 20.6834 13.0976 21.3166 12.7071 21.7071Z" fill="white"/>
</g>
<defs>
<clipPath id="clip0_878_24221">
<rect width="24" height="24" fill="white"/>
</clipPath>
</defs>
</svg>
