<svg width="24" height="24" fill="none" xmlns="http://www.w3.org/2000/svg"><path fill-rule="evenodd" clip-rule="evenodd" d="M20.5 22H3a1 1 0 1 1 0-2h17.5a1 1 0 1 1 0 2zM10.947 3.847l3.478 1.277c.619.227.741.261.855.268.114.007.24-.013.881-.168l2.729-.657a2.703 2.703 0 0 1 1.567 5.163L8.523 14.128l-.128.047c-.604.224-1.133.42-1.675.42a3 3 0 0 1-1.499-.403c-.469-.271-.833-.712-1.25-1.215l-.09-.108-.025-.031c-.55-.662-.996-1.2-1.3-1.62a4.616 4.616 0 0 1-.402-.646 1.733 1.733 0 0 1-.199-.84 2 2 0 0 1 1.32-1.79 1.73 1.73 0 0 1 .852-.061c.235.036.483.107.73.19.483.161 1.115.423 1.893.744l.038.015c.112.047.168.07.209.084L7 8.916l.003-.002c.042-.015.097-.037.21-.084l.767-.317a9.756 9.756 0 0 0 .585-.254 9.757 9.757 0 0 0-.389-.506l-.023-.03c-.415-.519-.757-.947-.994-1.287a4.135 4.135 0 0 1-.326-.537 1.733 1.733 0 0 1-.189-.696 2 2 0 0 1 1.434-1.99c.27-.08.529-.067.72-.041.2.027.409.079.613.14.398.117.913.306 1.536.535zm-2.21 1.352l.107.03c.328.097.782.263 1.449.508l3.442 1.264.095.035c.47.173.887.327 1.335.353.448.026.879-.079 1.366-.197l.099-.024 2.728-.657a.703.703 0 0 1 .408 1.342L7.832 12.251c-.808.298-.975.343-1.11.343a1 1 0 0 1-.5-.134c-.117-.068-.242-.194-.801-.868-.582-.701-.984-1.186-1.243-1.545a5.354 5.354 0 0 1-.086-.122l.13.042c.41.137.978.371 1.802.712l.044.018c.162.067.366.152.586.19.229.041.463.041.692 0 .22-.038.424-.123.586-.19l.044-.018.795-.329c.249-.102.483-.199.672-.294.2-.1.438-.24.64-.468a2 2 0 0 0 .454-1.757 2.063 2.063 0 0 0-.334-.72c-.119-.174-.277-.372-.445-.582l-.019-.024a27.702 27.702 0 0 1-.94-1.213 4.401 4.401 0 0 1-.063-.093z" fill="#fff"/></svg>