<svg width="24" height="24" fill="none" xmlns="http://www.w3.org/2000/svg"><path fill-rule="evenodd" clip-rule="evenodd" d="M7.8 2h8.4c.824 0 1.533 0 2.104.072.61.076 1.2.248 1.698.693.082.074.16.152.233.233.445.498.617 1.088.694 1.698.071.571.071 1.28.071 2.103V7a1 1 0 1 1-2 0v-.14c0-.901-.002-1.483-.056-1.915-.051-.407-.134-.54-.2-.612a1.008 1.008 0 0 0-.077-.078c-.072-.065-.205-.148-.612-.199C17.623 4.002 17.041 4 16.14 4H13v16h3a1 1 0 1 1 0 2H8a1 1 0 1 1 0-2h3V4H7.86c-.901 0-1.483.002-1.915.056-.407.051-.54.134-.612.2a1 1 0 0 0-.078.077c-.065.072-.148.205-.199.612C5.002 5.377 5 5.959 5 6.86V7a1 1 0 1 1-2 0v-.14-.06c0-.824 0-1.533.072-2.104.076-.61.248-1.2.693-1.698a3 3 0 0 1 .233-.233c.498-.445 1.088-.617 1.698-.693C6.267 2 6.976 2 7.799 2z" fill="#fff"/></svg>