<svg width="24" height="24" fill="none" xmlns="http://www.w3.org/2000/svg"><path fill-rule="evenodd" clip-rule="evenodd" d="M5.2 2h6.6c.183 0 .34 0 .482.013a3 3 0 0 1 2.705 2.705c.013.142.013.3.013.482v.5a1 1 0 1 1-2 0v-.46c0-.246-.001-.299-.004-.334a1 1 0 0 0-.902-.902A4.726 4.726 0 0 0 11.76 4H9.5v16h1.539a1 1 0 1 1 0 2H5.962a1 1 0 1 1 0-2H7.5V4H5.24c-.246 0-.299.001-.334.004a1 1 0 0 0-.902.902A4.726 4.726 0 0 0 4 5.24v.46a1 1 0 1 1-2 0v-.46-.04c0-.183 0-.34.013-.482a3 3 0 0 1 2.705-2.705C4.86 2 5.018 2 5.2 2z" fill="#fff"/><path fill-rule="evenodd" clip-rule="evenodd" d="M15.343 10H19.657c.303-.001.676-.003 1.006.113a2 2 0 0 1 1.224 1.224c.116.33.114.703.113 1.006v.157a1 1 0 1 1-2 0v-.07a8.17 8.17 0 0 0-.006-.424h-.012A8.178 8.178 0 0 0 19.57 12H18.5v8h.5a1 1 0 1 1 0 2h-3a1 1 0 0 1 0-2h.5v-8h-1.07c-.212 0-.328 0-.412.005l-.012.001v.012c-.005.084-.006.2-.006.412v.07a1 1 0 1 1-2 0v-.07-.087c-.001-.303-.003-.676.113-1.006a2 2 0 0 1 1.224-1.224c.33-.116.703-.114 1.006-.113z" fill="#fff"/></svg>