<svg width="24" height="24" fill="none" xmlns="http://www.w3.org/2000/svg"><path fill-rule="evenodd" clip-rule="evenodd" d="M4.866 8.509a1 1 0 0 1 1.125.857l1.087 8.036c.115.851.19 1.396.297 1.795.1.372.194.49.27.556.076.066.206.145.587.193.41.052.96.054 1.819.054h3.898c.86 0 1.41-.002 1.819-.054.381-.048.51-.127.587-.193.076-.066.17-.184.27-.556.106-.399.182-.944.297-1.795l1.087-8.036a1 1 0 0 1 1.982.268l-1.095 8.096c-.105.774-.196 1.446-.339 1.982-.153.578-.397 1.12-.886 1.547-.49.428-1.06.596-1.652.671-.55.07-1.228.07-2.01.07H9.991c-.782 0-1.46 0-2.01-.07-.593-.075-1.162-.243-1.652-.671-.49-.428-.733-.97-.886-1.547-.143-.536-.234-1.208-.339-1.982L4.01 9.634a1 1 0 0 1 .857-1.125zM11.968 2h.064c.439 0 .817 0 1.13.021.33.023.66.072.986.207a3 3 0 0 1 1.624 1.624c.135.326.184.656.207.986.021.313.021.691.021 1.13V6h-2c0-.48 0-.79-.017-1.026-.015-.228-.042-.315-.06-.357a1 1 0 0 0-.54-.54c-.042-.018-.129-.045-.357-.06A16.908 16.908 0 0 0 12 4c-.48 0-.79 0-1.026.017-.228.015-.315.042-.357.06a1 1 0 0 0-.54.54c-.018.042-.045.129-.06.357C10 5.21 10 5.52 10 6H8v-.032c0-.439 0-.817.021-1.13.023-.33.072-.66.207-.986a3 3 0 0 1 1.624-1.624 3.07 3.07 0 0 1 .986-.207C11.15 2 11.529 2 11.968 2z" fill="#fff"/><path fill-rule="evenodd" clip-rule="evenodd" d="M4 6a1 1 0 0 1 1-1h14a1 1 0 1 1 0 2H5a1 1 0 0 1-1-1z" fill="#fff"/></svg>