<svg width="24" height="24" fill="none" xmlns="http://www.w3.org/2000/svg"><g clip-path="url(#clip0_878_23410)" fill-rule="evenodd" clip-rule="evenodd" fill="#fff"><path d="M15.614 6.271a1 1 0 0 1 1.413.044l4.701 5a1 1 0 0 1 0 1.37l-4.7 5a1 1 0 1 1-1.458-1.37L18.687 13H7.5a1 1 0 1 1 0-2h11.187L15.57 7.685a1 1 0 0 1 .044-1.414z"/><path d="M11 3a1 1 0 0 1-1 1H7c-.971 0-1.599.002-2.061.064-.434.059-.57.153-.646.229-.076.076-.17.212-.229.646C4.002 5.4 4 6.029 4 7v10c0 .971.002 1.599.064 2.061.059.434.153.57.229.646.076.076.212.17.646.229C5.4 19.998 6.029 20 7 20h3a1 1 0 0 1 0 2H6.934c-.886 0-1.65 0-2.262-.082-.655-.088-1.284-.287-1.793-.797-.51-.51-.709-1.138-.797-1.793C2 18.716 2 17.952 2 17.066V6.934c0-.886 0-1.65.082-2.262.088-.655.287-1.284.797-1.793.51-.51 1.138-.709 1.793-.797C5.284 2 6.048 2 6.934 2H10a1 1 0 0 1 1 1z"/></g><defs><clipPath id="clip0_878_23410"><path fill="#fff" d="M0 0H24V24H0z"/></clipPath></defs></svg>