<svg width="24" height="24" fill="none" xmlns="http://www.w3.org/2000/svg"><path fill-rule="evenodd" clip-rule="evenodd" d="M8.614 10.02c-.075-.015-.16-.02-.598-.02H4v3.5h3.5v2H2V8h6.083c.334 0 .63 0 .924.059.03.005.06.012.089.019.292.067.561.19.865.328l.062.028c1.208.548 1.563.689 1.917.7h.12c.354-.011.709-.152 1.917-.7l.062-.028c.304-.138.573-.26.865-.328l.089-.02c.294-.059.59-.058.924-.058H22v7.5h-5.5v-2H20V10h-4.016c-.438 0-.523.005-.598.02a.966.966 0 0 0-.03.006c-.074.017-.153.048-.553.23l-.157.07c-.978.445-1.72.782-2.525.807-.08.002-.161.002-.242 0-.805-.025-1.547-.362-2.525-.806l-.157-.072c-.4-.18-.479-.212-.553-.23a.991.991 0 0 0-.03-.005z" fill="#fff"/><path fill-rule="evenodd" clip-rule="evenodd" d="M8.41 15.51a3.601 3.601 0 0 0-.432-.01H4V17c0 .971.002 1.599.064 2.061.059.434.153.57.229.646.076.076.212.17.646.229C5.4 19.998 6.029 20 7 20h10c.971 0 1.599-.002 2.061-.064.434-.059.57-.153.646-.229.076-.076.17-.212.229-.646.062-.462.064-1.09.064-2.061v-1.5h-3.977c-.317 0-.379.002-.433.01a.999.999 0 0 0-.27.079c-.05.022-.104.053-.37.223l-.11.07c-.67.426-1.175.746-1.726.906a4 4 0 0 1-2.228 0c-.551-.16-1.055-.48-1.725-.906l-.11-.07c-.267-.17-.321-.201-.37-.223a.999.999 0 0 0-.271-.079zm-.384-2.01c.241 0 .454 0 .666.03.28.04.553.12.811.236.196.088.375.202.578.331l.042.026c.83.527 1.079.674 1.32.744a2 2 0 0 0 1.114 0c.241-.07.49-.217 1.32-.744l.042-.026c.203-.129.382-.243.578-.331.258-.117.53-.196.81-.236.213-.03.426-.03.667-.03H22v3.566c0 .886 0 1.65-.082 2.262-.088.655-.287 1.284-.797 1.793-.51.51-1.138.709-1.793.797-.612.082-1.376.082-2.262.082H6.934c-.886 0-1.65 0-2.262-.082-.655-.088-1.284-.287-1.793-.797-.51-.51-.709-1.138-.797-1.793C2 18.716 2 17.952 2 17.066V13.5h6.026zM8.893 2h6.214c.625-.001 1.179-.002 1.699.196.52.197.933.566 1.4.982l.095.085 2.02 1.796.113.1c.55.486 1.037.918 1.303 1.51S22 7.912 22 8.646V9h-2v-.204c0-.973-.02-1.158-.088-1.308-.067-.15-.191-.287-.919-.934l-2.02-1.796c-.618-.55-.746-.643-.878-.693-.132-.05-.29-.065-1.116-.065H9.021c-.826 0-.984.015-1.116.065-.132.05-.26.144-.877.693L5.007 6.554c-.728.647-.852.785-.92.934-.066.15-.087.335-.087 1.308V9H2v-.204-.15c-.001-.734-.002-1.385.263-1.977.266-.592.754-1.024 1.303-1.51l.112-.1L5.7 3.263l.095-.085c.467-.416.88-.785 1.4-.982.52-.198 1.074-.197 1.7-.196z" fill="#fff"/></svg>