<svg width="24" height="24" fill="none" xmlns="http://www.w3.org/2000/svg"><g clip-path="url(#clip0_878_23389)"><g clip-path="url(#clip1_878_23389)" fill-rule="evenodd" clip-rule="evenodd" fill="#fff"><path d="M8.386 17.729a1 1 0 0 1-1.413-.044l-4.701-5a1 1 0 0 1 0-1.37l4.7-5a1 1 0 1 1 1.458 1.37L5.313 11H16.5a1 1 0 0 1 0 2H5.313l3.117 3.315a1 1 0 0 1-.044 1.413z"/><path d="M13 21a1 1 0 0 1 1-1h3c.971 0 1.599-.002 2.061-.064.434-.059.57-.153.646-.229.076-.076.17-.212.229-.646.062-.462.064-1.09.064-2.061V7c0-.971-.002-1.599-.064-2.061-.059-.434-.153-.57-.229-.646-.076-.076-.212-.17-.646-.229C18.6 4.002 17.971 4 17 4h-3a1 1 0 1 1 0-2h3.066c.886 0 1.65 0 2.262.082.655.088 1.284.287 1.793.797.51.51.709 1.138.797 1.793C22 5.284 22 6.048 22 6.934v10.132c0 .886 0 1.65-.082 2.262-.088.655-.287 1.284-.797 1.793-.51.51-1.138.709-1.793.797-.612.082-1.376.082-2.262.082H14a1 1 0 0 1-1-1z"/></g></g><defs><clipPath id="clip0_878_23389"><path fill="#fff" d="M0 0H24V24H0z"/></clipPath><clipPath id="clip1_878_23389"><path fill="#fff" transform="rotate(-90 12 12)" d="M0 0H24V24H0z"/></clipPath></defs></svg>