<svg width="24" height="24" fill="none" xmlns="http://www.w3.org/2000/svg"><path fill-rule="evenodd" clip-rule="evenodd" d="M9.332 3h5.336c.812-.002 1.534-.003 2.174.317.639.32 1.071.898 1.558 1.549l.1.134L21 8.333l.067.09c.33.44.624.829.78 1.295.154.466.154.954.153 1.504V14h-2v-2.667c0-.725-.012-.864-.051-.982-.04-.119-.114-.237-.549-.818L16.9 6.2c-.65-.865-.791-1.014-.953-1.094C15.786 5.025 15.582 5 14.5 5h-5c-1.082 0-1.286.025-1.447.106-.162.08-.304.229-.953 1.094L4.6 9.533c-.435.58-.51.699-.549.818-.04.118-.051.257-.051.982V14H2v-2.667-.111c0-.55-.001-1.038.154-1.504.155-.466.448-.856.779-1.295L3 8.333 5.5 5l.1-.134c.487-.651.919-1.23 1.558-1.55.64-.319 1.362-.318 2.174-.316z" fill="#fff"/><path fill-rule="evenodd" clip-rule="evenodd" d="M8.174 13.021c-.078-.016-.168-.02-.628-.02H4v3c0 .97.002 1.598.064 2.06.059.434.153.57.229.646.076.076.212.17.646.229C5.4 18.998 6.029 19 7 19h10c.971 0 1.599-.002 2.061-.064.434-.058.57-.153.646-.229.076-.076.17-.212.229-.646.062-.462.064-1.09.064-2.06v-3h-3.547c-.46 0-.549.004-.627.02a1.008 1.008 0 0 0-.103.028c-.075.024-.155.064-.555.292l-.162.093c-.993.569-1.744.999-2.582 1.088-.282.03-.566.03-.848 0-.838-.09-1.59-.52-2.582-1.088l-.162-.093c-.4-.228-.48-.268-.555-.292a1.01 1.01 0 0 0-.103-.028zM7.617 11c.35 0 .66 0 .967.064.104.022.207.049.308.082.298.096.567.25.87.424l.062.035c1.231.703 1.597.89 1.964.928.14.016.283.016.424 0 .367-.039.733-.225 1.964-.928l.061-.035c.304-.174.573-.328.871-.424a3.01 3.01 0 0 1 .308-.082c.307-.065.617-.064.967-.064H22v5.066c0 .886 0 1.65-.082 2.262-.088.655-.287 1.284-.797 1.793-.51.51-1.138.709-1.793.797-.612.082-1.376.082-2.262.082H6.934c-.886 0-1.65 0-2.262-.082-.655-.088-1.284-.287-1.793-.797-.51-.51-.709-1.138-.797-1.793C2 17.716 2 16.952 2 16.066V11h5.617z" fill="#fff"/></svg>