<svg width="24" height="24" fill="none" xmlns="http://www.w3.org/2000/svg"><g clip-path="url(#clip0_878_24433)"><g clip-path="url(#clip1_878_24433)" fill-rule="evenodd" clip-rule="evenodd" fill="#fff"><path d="M13 13h1.566c.886 0 1.65 0 2.262-.082.655-.088 1.284-.287 1.793-.797.51-.51.709-1.138.797-1.793.082-.612.082-1.376.082-2.262V8h-2c0 .971-.002 1.599-.064 2.061-.059.434-.153.57-.229.646-.076.076-.212.17-.646.229-.462.062-1.09.064-2.061.064h-5c-.971 0-1.599-.002-2.061-.064-.434-.059-.57-.153-.646-.229-.076-.076-.17-.212-.229-.646C6.502 9.6 6.5 8.971 6.5 8h-2v.066c0 .886 0 1.65.082 2.262.088.655.287 1.284.797 1.793.51.51 1.138.709 1.793.797C7.784 13 8.548 13 9.434 13H11v3h2v-3z"/><path d="M12 20a1.5 1.5 0 1 0 0-3 1.5 1.5 0 0 0 0 3zm3.5-1.5a3.5 3.5 0 1 1-7 0 3.5 3.5 0 0 1 7 0zm3-11.5a1.5 1.5 0 1 0 0-3 1.5 1.5 0 0 0 0 3zM22 5.5a3.5 3.5 0 1 1-7 0 3.5 3.5 0 0 1 7 0zM5.5 7a1.5 1.5 0 1 0 0-3 1.5 1.5 0 0 0 0 3zM9 5.5a3.5 3.5 0 1 1-7 0 3.5 3.5 0 0 1 7 0z"/></g></g><defs><clipPath id="clip0_878_24433"><path fill="#fff" d="M0 0H24V24H0z"/></clipPath><clipPath id="clip1_878_24433"><path fill="#fff" transform="rotate(-180 12 12)" d="M0 0H24V24H0z"/></clipPath></defs></svg>