<svg width="24" height="24" fill="none" xmlns="http://www.w3.org/2000/svg"><path fill-rule="evenodd" clip-rule="evenodd" d="M11 11H9.434c-.886 0-1.65 0-2.262.082-.655.088-1.284.287-1.793.797-.51.51-.709 1.138-.797 1.793-.082.612-.082 1.376-.082 2.262v.566h2V16c0-.971.002-1.599.064-2.061.059-.434.153-.57.229-.646.076-.076.212-.17.646-.229C7.9 13.002 8.529 13 9.5 13h5c.971 0 1.599.002 2.061.064.434.059.57.153.646.229.076.076.17.212.229.646.062.462.064 1.09.064 2.061v.5h2v-.566c0-.886 0-1.65-.082-2.262-.088-.655-.287-1.284-.797-1.793-.51-.51-1.138-.709-1.793-.797C16.216 11 15.452 11 14.566 11H13V8h-2v3z" fill="#fff"/><path fill-rule="evenodd" clip-rule="evenodd" d="M12 4a1.5 1.5 0 1 0 0 3 1.5 1.5 0 0 0 0-3zM8.5 5.5a3.5 3.5 0 1 1 7 0 3.5 3.5 0 0 1-7 0zM5.5 17a1.5 1.5 0 1 0 0 3 1.5 1.5 0 0 0 0-3zM2 18.5a3.5 3.5 0 1 1 7 0 3.5 3.5 0 0 1-7 0zM18.5 17a1.5 1.5 0 1 0 0 3 1.5 1.5 0 0 0 0-3zM15 18.5a3.5 3.5 0 1 1 7 0 3.5 3.5 0 0 1-7 0z" fill="#fff"/></svg>