<svg width="24" height="24" fill="none" xmlns="http://www.w3.org/2000/svg"><g clip-path="url(#clip0_878_24456)"><g clip-path="url(#clip1_878_24456)" fill-rule="evenodd" clip-rule="evenodd" fill="#fff"><path d="M13 11V9.5v-.066c0-.886 0-1.65-.082-2.262-.088-.655-.287-1.284-.797-1.793-.51-.51-1.138-.709-1.793-.797C9.716 4.5 8.952 4.5 8.066 4.5H8v2c.971 0 1.599.002 2.061.064.434.059.57.153.646.229.076.076.17.212.229.646.062.462.064 1.09.064 2.061v5c0 .971-.002 1.599-.064 2.061-.059.434-.153.57-.229.646-.076.076-.212.17-.646.229-.462.062-1.09.064-2.061.064v2h.066c.886 0 1.65 0 2.262-.082.655-.088 1.284-.287 1.793-.797.51-.51.709-1.138.797-1.793.082-.612.082-1.376.082-2.262V13h3v-2h-3z"/><path d="M20 12a1.5 1.5 0 1 0-3 0 1.5 1.5 0 0 0 3 0zm-1.5-3.5a3.5 3.5 0 1 1 0 7 3.5 3.5 0 0 1 0-7zM7 5.5a1.5 1.5 0 1 0-3 0 1.5 1.5 0 0 0 3 0zM5.5 2a3.5 3.5 0 1 1 0 7 3.5 3.5 0 0 1 0-7zM7 18.5a1.5 1.5 0 1 0-3 0 1.5 1.5 0 0 0 3 0zM5.5 15a3.5 3.5 0 1 1 0 7 3.5 3.5 0 0 1 0-7z"/></g></g><defs><clipPath id="clip0_878_24456"><path fill="#fff" d="M0 0H24V24H0z"/></clipPath><clipPath id="clip1_878_24456"><path fill="#fff" transform="rotate(90 12 12)" d="M0 0H24V24H0z"/></clipPath></defs></svg>