<svg width="24" height="24" fill="none" xmlns="http://www.w3.org/2000/svg"><g clip-path="url(#clip0_878_21935)"><g clip-path="url(#clip1_878_21935)" fill-rule="evenodd" clip-rule="evenodd" fill="#fff"><path d="M11 13v1.566c0 .886 0 1.65.082 2.262.088.655.287 1.284.797 1.793.51.51 1.138.709 1.793.797.612.082 1.376.082 2.262.082H16v-2c-.971 0-1.599-.002-2.061-.064-.434-.059-.57-.153-.646-.229-.076-.076-.17-.212-.229-.646C13.002 16.1 13 15.471 13 14.5v-5c0-.971.002-1.599.064-2.061.059-.434.153-.57.229-.646.076-.076.212-.17.646-.229C14.4 6.502 15.029 6.5 16 6.5v-2h-.066c-.886 0-1.65 0-2.262.082-.655.088-1.284.287-1.793.797-.51.51-.709 1.138-.797 1.793C11 7.784 11 8.548 11 9.434V11H8v2h3z"/><path d="M4 12a1.5 1.5 0 1 0 3 0 1.5 1.5 0 0 0-3 0zm1.5 3.5a3.5 3.5 0 1 1 0-7 3.5 3.5 0 0 1 0 7zm11.5 3a1.5 1.5 0 1 0 3 0 1.5 1.5 0 0 0-3 0zm1.5 3.5a3.5 3.5 0 1 1 0-7 3.5 3.5 0 0 1 0 7zM17 5.5a1.5 1.5 0 1 0 3 0 1.5 1.5 0 0 0-3 0zM18.5 9a3.5 3.5 0 1 1 0-7 3.5 3.5 0 0 1 0 7z"/></g></g><defs><clipPath id="clip0_878_21935"><path fill="#fff" d="M0 0H24V24H0z"/></clipPath><clipPath id="clip1_878_21935"><path fill="#fff" transform="rotate(-90 12 12)" d="M0 0H24V24H0z"/></clipPath></defs></svg>