<svg width="24" height="24" fill="none" xmlns="http://www.w3.org/2000/svg"><path fill-rule="evenodd" clip-rule="evenodd" d="M11.986 4.394c-.22.315-.475.82-.88 1.63L4.842 18.554c-.34.678-.54 1.086-.637 1.382l-.005.014.015.003c.308.045.762.048 1.521.048h12.528c.759 0 1.213-.003 1.521-.048l.015-.003a1.2 1.2 0 0 1-.005-.014c-.097-.296-.297-.704-.637-1.382L12.894 6.025c-.405-.811-.66-1.316-.88-1.631a2.705 2.705 0 0 0-.014-.02 2.705 2.705 0 0 0-.014.02zm.167-.2l-.007.006a.034.034 0 0 1 .007-.006zm-.299.006a.035.035 0 0 1-.007-.006l.007.006zm7.987 15.925v-.006.006zm.13-.215a.024.024 0 0 1 .005-.002l-.005.002zm-15.947-.002l.006.002a.038.038 0 0 1-.006-.002zm.135.211a.03.03 0 0 1 0 .006v-.006zm6.188-16.87c.32-.459.833-1.013 1.653-1.013.82 0 1.333.554 1.653 1.013.315.451.635 1.091.996 1.814l.034.068 6.264 12.527.032.064c.297.594.568 1.136.717 1.591.159.485.266 1.126-.113 1.739-.378.612-1 .803-1.504.878-.473.07-1.08.07-1.744.07H5.666C5 22 4.393 22 3.92 21.93c-.505-.075-1.126-.266-1.504-.878-.379-.613-.272-1.254-.113-1.739.149-.455.42-.997.717-1.591l.032-.064L9.317 5.131l.033-.068c.362-.723.682-1.363.997-1.814z" fill="#fff"/></svg>