<svg width="24" height="24" fill="none" xmlns="http://www.w3.org/2000/svg"><path fill-rule="evenodd" clip-rule="evenodd" d="M11.989 5.18c-.21.272-.459.711-.862 1.432l-6.091 10.9c-.387.692-.619 1.112-.735 1.42l-.006.015.017.002c.324.048.804.051 1.597.051H18.09c.793 0 1.273-.003 1.597-.05.006-.002.011-.003.017-.003l-.006-.016c-.116-.307-.348-.727-.735-1.419l-6.091-10.9c-.403-.721-.651-1.16-.862-1.433A1.282 1.282 0 0 0 12 5.165l-.011.014zm-1.584-1.222c.326-.423.828-.908 1.595-.908s1.269.485 1.595.908c.312.405.633.978.988 1.614l.036.064L20.745 16.6c.34.609.649 1.16.824 1.624.185.489.328 1.147-.048 1.79-.377.641-1.022.838-1.539.914-.49.073-1.122.073-1.819.073H5.837c-.697 0-1.33 0-1.82-.073-.516-.076-1.161-.273-1.538-.915-.376-.642-.233-1.3-.048-1.79.175-.463.484-1.014.824-1.623l.035-.063 6.091-10.9.036-.064c.355-.636.676-1.21.988-1.614z" fill="#fff"/></svg>