<svg width="24" height="24" fill="none" xmlns="http://www.w3.org/2000/svg"><path fill-rule="evenodd" clip-rule="evenodd" d="M6.934 4H9.066c.886 0 1.65 0 2.262.082.655.088 1.284.287 1.793.797.51.51.709 1.138.797 1.793C14 7.284 14 8.048 14 8.934v3.132c0 .886 0 1.65-.082 2.262-.088.655-.287 1.284-.797 1.793-.51.51-1.138.709-1.793.797C10.716 17 9.952 17 9.066 17H6.934c-.886 0-1.65 0-2.262-.082-.655-.088-1.284-.287-1.793-.797-.51-.51-.709-1.138-.797-1.793C2 13.716 2 12.952 2 12.066V9v-.066c0-.886 0-1.65.082-2.262.088-.655.287-1.284.797-1.793.51-.51 1.138-.709 1.793-.797C5.284 4 6.048 4 6.934 4zM4.94 6.064c-.434.059-.57.153-.646.229-.076.076-.17.212-.229.646C4.002 7.4 4 8.029 4 9v3c0 .971.002 1.599.064 2.061.059.434.153.57.229.646.076.076.212.17.646.229C5.4 14.998 6.029 15 7 15h2c.971 0 1.599-.002 2.061-.064.434-.059.57-.153.646-.229.076-.076.17-.212.229-.646.062-.462.064-1.09.064-2.061V9c0-.971-.002-1.599-.064-2.061-.059-.434-.153-.57-.229-.646-.076-.076-.212-.17-.646-.229C10.6 6.002 9.971 6 9 6H7c-.971 0-1.599.002-2.061.064z" fill="#fff"/><path fill-rule="evenodd" clip-rule="evenodd" d="M17.315 9.1c-.159-.077-.357-.1-1.407-.1H14v3c0 .971.002 1.599.064 2.061.059.434.153.57.229.646.076.076.212.17.646.229.462.062 1.09.064 2.061.064h1.03c.465 0 .765 0 .995-.016.222-.014.306-.04.347-.056a1 1 0 0 0 .556-.556c.017-.04.042-.125.056-.347.015-.23.016-.53.016-.995 0-.365-.003-.436-.013-.498a1 1 0 0 0-.112-.323c-.03-.055-.072-.113-.298-.399l-1.313-1.667c-.65-.825-.791-.966-.95-1.043zM16.07 7c.79-.002 1.492-.003 2.118.3.626.305 1.059.857 1.547 1.478l.1.128 1.313 1.666.035.045c.172.217.323.409.442.624.167.3.28.629.336.969.04.242.04.486.039.763v.087c0 .426 0 .793-.02 1.098a3.07 3.07 0 0 1-.195.958 3 3 0 0 1-1.67 1.669 3.07 3.07 0 0 1-.957.195c-.305.02-.672.02-1.097.02h-1.127c-.886 0-1.65 0-2.262-.082-.655-.088-1.284-.287-1.793-.797-.51-.51-.709-1.138-.797-1.793C12 13.716 12 12.952 12 12.066V7h4.07z" fill="#fff"/><path fill-rule="evenodd" clip-rule="evenodd" d="M9 15h6v1a2 2 0 1 0 4 0h2a4 4 0 0 1-7.874 1h-2.252A4.002 4.002 0 0 1 3 16h2a2 2 0 1 0 4 0v-1z" fill="#fff"/></svg>