<svg width="24" height="24" fill="none" xmlns="http://www.w3.org/2000/svg"><path fill-rule="evenodd" clip-rule="evenodd" d="M11.043 8.532A4.79 4.79 0 0 1 15.826 4c1.146 0 2.2.403 3.023 1.072a7.473 7.473 0 0 0 .499-.234 7.31 7.31 0 0 1 .49-.23c.178-.071.45-.167.758-.167.568 0 .886.399.993.557.136.201.22.428.275.627.113.41.159.923.125 1.475a6.707 6.707 0 0 1-1.284 3.521c.054 3.245-1.128 5.851-3.24 7.644C15.3 20.102 12.263 21 8.845 21c-1.168 0-2.82-.23-4.13-.567-.646-.166-1.285-.378-1.755-.64-.224-.126-.512-.317-.714-.605a1.332 1.332 0 0 1-.24-.63 1.265 1.265 0 0 1 .153-.74c.16-.291.396-.497.59-.637.203-.147.433-.274.66-.385.45-.22 1.006-.433 1.539-.638a32.194 32.194 0 0 0 1.544-.623c-1.42-1.036-2.306-2.107-2.833-3.233-.676-1.445-.7-2.86-.7-4.072v-.034c0-.337 0-1.058.23-1.713a2.41 2.41 0 0 1 .715-1.066c.392-.326.885-.494 1.441-.494.767 0 1.372.498 1.75.84a17.93 17.93 0 0 1 .653.63c.22.219.44.438.678.654.714.651 1.535 1.241 2.617 1.485zM15.826 6a2.789 2.789 0 0 0-2.717 3.427 1 1 0 0 1-.975 1.222c-2.365 0-3.948-1.114-5.055-2.124-.274-.25-.523-.496-.742-.714l-.017-.017c-.217-.217-.397-.395-.564-.546-.3-.27-.424-.318-.434-.325a.378.378 0 0 0-.11.016.082.082 0 0 0-.028.015c-.014.012-.06.06-.109.196-.107.303-.116.708-.116 1.08 0 1.208.041 2.22.511 3.224.462.986 1.4 2.086 3.445 3.269a1 1 0 0 1 .116 1.653c-.9.705-2.229 1.213-3.253 1.606l-.114.044c-.329.126-.625.24-.886.348.134.041.28.082.436.122C6.39 18.8 7.873 19 8.844 19c3.095 0 5.624-.814 7.327-2.26 1.674-1.42 2.653-3.537 2.524-6.4a1 1 0 0 1 .225-.68 4.727 4.727 0 0 0 1.073-2.68c.005-.082.007-.16.007-.234a5.046 5.046 0 0 1-1.215.43 1 1 0 0 1-.92-.296A2.79 2.79 0 0 0 15.825 6zM3.868 18.844z" fill="#fff"/></svg>