<svg width="24" height="24" fill="none" xmlns="http://www.w3.org/2000/svg"><path fill-rule="evenodd" clip-rule="evenodd" d="M5 2.222a1 1 0 0 1 1 1c0 3.046 0 5.423.108 7.295.108 1.888.321 3.146.687 4.004.337.791.801 1.238 1.527 1.525.797.317 1.948.454 3.678.454s2.88-.137 3.678-.454c.726-.287 1.19-.733 1.527-1.525.366-.858.579-2.116.687-4.004C18 8.645 18 6.268 18 3.222a1 1 0 1 1 2 0v.03c0 3.01 0 5.443-.111 7.38-.11 1.927-.335 3.479-.844 4.673-.538 1.26-1.386 2.108-2.63 2.6-1.17.465-2.645.595-4.415.595s-3.244-.13-4.415-.594c-1.244-.493-2.092-1.34-2.63-2.6-.51-1.195-.733-2.747-.844-4.675C4 8.695 4 6.262 4 3.253v-.03a1 1 0 0 1 1-1zM5 21a1 1 0 0 1 1-1h12a1 1 0 1 1 0 2H6a1 1 0 0 1-1-1z" fill="#fff"/></svg>