<svg width="24" height="24" fill="none" xmlns="http://www.w3.org/2000/svg"><path fill-rule="evenodd" clip-rule="evenodd" d="M8.116 3.848A7.107 7.107 0 0 1 12.9 2c1.905 0 3.757.766 4.977 2.104 1.024 1.124 1.573 2.628 1.34 4.31 1.63.533 2.783 2.108 2.783 3.92 0 1.479-.763 2.789-1.924 3.514a1 1 0 1 1-1.06-1.696A2.135 2.135 0 0 0 20 12.333c0-1.2-.93-2.11-2-2.11-.44 0-.846.148-1.179.405a2.062 2.062 0 0 0-.31.296 1 1 0 1 1-1.522-1.297c.182-.214.387-.41.61-.582a3.937 3.937 0 0 1 1.61-.742c.211-1.155-.146-2.122-.81-2.852C15.591 4.567 14.294 4 12.9 4c-1.383 0-2.607.56-3.428 1.318-.636.587-.94 1.194-1.008 1.677a4.797 4.797 0 0 1 2.244 1.857c.155.24.29.493.402.76a1 1 0 1 1-1.844.776 2.926 2.926 0 0 0-.238-.451l.84-.543-.84.543c-.502-.778-1.342-1.27-2.278-1.27C5.265 8.667 4 9.925 4 11.556c0 1.06.542 1.976 1.335 2.477a1 1 0 1 1-1.07 1.69A4.918 4.918 0 0 1 2 11.556c0-2.577 1.956-4.74 4.487-4.882.162-1.063.806-2.067 1.629-2.826z" fill="#fff"/><path fill-rule="evenodd" clip-rule="evenodd" d="M15.707 18.207a1 1 0 0 0 0-1.414l-3-3a1 1 0 0 0-1.414 0l-3 3a1 1 0 1 0 1.414 1.414L11 16.914V22a1 1 0 1 0 2 0v-5.086l1.293 1.293a1 1 0 0 0 1.414 0z" fill="#fff"/></svg>