<svg width="24" height="24" fill="none" xmlns="http://www.w3.org/2000/svg"><path fill-rule="evenodd" clip-rule="evenodd" d="M12 3.996c-1.799 0-3.2 1.402-3.2 3.064 0 1.662 1.401 3.065 3.2 3.065 1.799 0 3.2-1.403 3.2-3.065S13.799 3.996 12 3.996zM6.8 7.06c0-2.828 2.36-5.064 5.2-5.064 2.84 0 5.2 2.236 5.2 5.064s-2.36 5.065-5.2 5.065c-2.84 0-5.2-2.237-5.2-5.065zm1.106 7.44h7.189c.835 0 1.455 0 1.99.15a4 4 0 0 1 2.765 2.764c.15.536.15 1.156.15 1.991V21a1 1 0 1 1-2 0v-1.45c0-1.044-.01-1.36-.075-1.593a2 2 0 0 0-1.382-1.382c-.233-.066-.549-.075-1.593-.075h-6.9c-1.044 0-1.36.01-1.593.075a2 2 0 0 0-1.382 1.382C5.01 18.19 5 18.506 5 19.55V21a1 1 0 1 1-2 0v-1.45-.145c0-.835 0-1.455.15-1.99a4 4 0 0 1 2.764-2.765c.536-.15 1.156-.15 1.992-.15z" fill="#fff"/></svg>