<svg width="24" height="24" fill="none" xmlns="http://www.w3.org/2000/svg"><path fill-rule="evenodd" clip-rule="evenodd" d="M6.934 7H17.066c.886 0 1.65 0 2.262.082.655.088 1.284.287 1.793.797.51.51.709 1.138.797 1.793.082.612.082 1.376.082 2.262v4.132c0 .886 0 1.65-.082 2.262-.088.655-.287 1.284-.797 1.793-.51.51-1.138.709-1.793.797-.612.082-1.376.082-2.262.082H6.934c-.886 0-1.65 0-2.262-.082-.655-.088-1.284-.287-1.793-.797-.51-.51-.709-1.138-.797-1.793C2 17.716 2 16.952 2 16.066V12v-.066c0-.886 0-1.65.082-2.262.088-.655.287-1.284.797-1.793.51-.51 1.138-.709 1.793-.797C5.284 7 6.048 7 6.934 7zM4.94 9.064c-.434.059-.57.153-.646.229-.076.076-.17.212-.229.646C4.002 10.4 4 11.029 4 12v4c0 .971.002 1.599.064 2.061.059.434.153.57.229.646.076.076.212.17.646.229C5.4 18.998 6.029 19 7 19h10c.971 0 1.599-.002 2.061-.064.434-.059.57-.153.646-.229.076-.076.17-.212.229-.646.062-.462.064-1.09.064-2.061v-4c0-.971-.002-1.599-.064-2.061-.059-.434-.153-.57-.229-.646-.076-.076-.212-.17-.646-.229C18.6 9.002 17.971 9 17 9H7c-.971 0-1.599.002-2.061.064z" fill="#fff"/><path fill-rule="evenodd" clip-rule="evenodd" d="M6.934 3.5H13.911c.598 0 1.124 0 1.56.047.473.051.93.164 1.362.448.43.285.715.66.948 1.075.215.383.422.866.658 1.416l.48 1.12-1.838.788-.461-1.076c-.26-.607-.426-.99-.582-1.267-.144-.257-.236-.34-.306-.386-.07-.046-.183-.098-.475-.13-.317-.034-.733-.035-1.395-.035H7c-.971 0-1.599.002-2.061.064-.434.059-.57.153-.646.229-.076.076-.17.212-.229.646C4.002 6.9 4 7.529 4 8.5V15H2V8.5v-.066c0-.886 0-1.65.082-2.262.088-.655.287-1.284.797-1.793.51-.51 1.138-.709 1.793-.797C5.284 3.5 6.048 3.5 6.934 3.5z" fill="#fff"/><path d="M16.5 12a1 1 0 1 1 2 0 1 1 0 1 1-2 0z" fill="#fff"/></svg>