<svg width="24" height="24" fill="none" xmlns="http://www.w3.org/2000/svg"><path fill-rule="evenodd" clip-rule="evenodd" d="M12.23 10.307c1.003 0 1.902.435 2.524 1.129a1 1 0 1 0 1.49-1.334 5.386 5.386 0 0 0-9.306 2.593A4.654 4.654 0 0 0 7.115 22h10.962a3.923 3.923 0 1 0-2.942-6.518 1 1 0 1 0 1.5 1.323A1.923 1.923 0 1 1 18.077 20H7.114a2.654 2.654 0 1 1 2.434-3.715 1 1 0 1 0 1.832-.8 4.67 4.67 0 0 0-2.474-2.435 3.386 3.386 0 0 1 3.324-2.743zM7.466 4.105A3.66 3.66 0 0 0 4.692 9.91a1 1 0 0 1-1.616 1.178 5.66 5.66 0 0 1 9.382-6.322 1 1 0 0 1-1.697 1.058 3.658 3.658 0 0 0-3.296-1.72z" fill="#fff"/></svg>