<svg width="24" height="24" viewBox="0 0 24 24" fill="none" xmlns="http://www.w3.org/2000/svg">
<path fill-rule="evenodd" clip-rule="evenodd" d="M12.2306 10.3075C13.2329 10.3075 14.1325 10.7419 14.7537 11.4359C15.122 11.8475 15.7542 11.8825 16.1657 11.5142C16.5773 11.1458 16.6123 10.5136 16.2439 10.1021C15.2594 9.0021 13.8255 8.30746 12.2306 8.30746C9.59724 8.30746 7.40539 10.1978 6.93795 12.6955C4.44975 12.7886 2.46119 14.8351 2.46119 17.3461C2.46119 19.9164 4.54482 22 7.11511 22H18.0769C20.2436 22 22 20.2436 22 18.0769C22 15.9102 20.2436 14.1537 18.0769 14.1537C16.905 14.1537 15.8522 14.6688 15.1348 15.4816C14.7693 15.8957 14.8087 16.5276 15.2228 16.8931C15.6368 17.2585 16.2688 17.2191 16.6343 16.8051C16.9881 16.4042 17.5026 16.1537 18.0769 16.1537C19.139 16.1537 20 17.0148 20 18.0769C20 19.139 19.139 20 18.0769 20H7.11511C5.64939 20 4.46119 18.8118 4.46119 17.3461C4.46119 15.8804 5.64939 14.6922 7.11511 14.6922C8.20183 14.6922 9.13819 15.3455 9.54863 16.2849C9.76975 16.791 10.3593 17.022 10.8654 16.8009C11.3714 16.5798 11.6025 15.9902 11.3813 15.4841C10.9026 14.3885 10.0133 13.5116 8.9068 13.0496C9.20699 11.4876 10.581 10.3075 12.2306 10.3075Z" fill="white"/>
<path fill-rule="evenodd" clip-rule="evenodd" d="M7.46452 4.10488C5.44608 4.20916 3.89436 5.92997 3.99865 7.9484C4.03674 8.68555 4.28924 9.35771 4.69244 9.91118C5.01763 10.3576 4.91938 10.9831 4.47299 11.3083C4.02659 11.6335 3.4011 11.5352 3.0759 11.0888C2.45119 10.2313 2.06002 9.18788 2.00131 8.0516C1.84003 4.93007 4.23979 2.26882 7.36132 2.10754C9.49142 1.99749 11.4057 3.08048 12.4579 4.76679C12.7502 5.23535 12.6074 5.85219 12.1388 6.14454C11.6703 6.4369 11.0534 6.29405 10.7611 5.82549C10.0782 4.73097 8.83969 4.03383 7.46452 4.10488Z" fill="white"/>
</svg>
