<svg width="24" height="24" fill="none" xmlns="http://www.w3.org/2000/svg"><path fill-rule="evenodd" clip-rule="evenodd" d="M6.934 2H17.066c.886 0 1.65 0 2.262.082.655.088 1.284.287 1.793.797.51.51.709 1.138.797 1.793C22 5.284 22 6.048 22 6.934v10.132c0 .886 0 1.65-.082 2.262-.088.655-.287 1.284-.797 1.793-.51.51-1.138.709-1.793.797-.612.082-1.376.082-2.262.082H6.934c-.886 0-1.65 0-2.262-.082-.655-.088-1.284-.287-1.793-.797-.51-.51-.709-1.138-.797-1.793C2 18.716 2 17.952 2 17.066V7v-.066c0-.886 0-1.65.082-2.262.088-.655.287-1.284.797-1.793.51-.51 1.138-.709 1.793-.797C5.284 2 6.048 2 6.934 2zM4.94 4.064c-.434.059-.57.153-.646.229-.076.076-.17.212-.229.646C4.002 5.4 4 6.029 4 7v10c0 .971.002 1.599.064 2.061.059.434.153.57.229.646.076.076.212.17.646.229C5.4 19.998 6.029 20 7 20h10c.971 0 1.599-.002 2.061-.064.434-.059.57-.153.646-.229.076-.076.17-.212.229-.646.062-.462.064-1.09.064-2.061V7c0-.971-.002-1.599-.064-2.061-.059-.434-.153-.57-.229-.646-.076-.076-.212-.17-.646-.229C18.6 4.002 17.971 4 17 4H7c-.971 0-1.599.002-2.061.064z" fill="#fff"/><path fill-rule="evenodd" clip-rule="evenodd" d="M8.446 8.5h1.108c.424 0 .837 0 1.176.046.384.051.821.177 1.184.54.363.363.489.8.54 1.184.046.34.046.752.046 1.176V15.554c0 .425 0 .837-.046 1.176-.051.384-.177.821-.54 1.184-.363.363-.8.489-1.184.54-.34.046-.752.046-1.176.046H8.446c-.424 0-.837 0-1.177-.046-.383-.051-.82-.177-1.183-.54-.363-.363-.489-.8-.54-1.184-.046-.34-.046-.752-.046-1.176V11.5v-.054c0-.425 0-.837.046-1.176.051-.384.177-.821.54-1.184.363-.363.8-.489 1.183-.54.34-.046.753-.046 1.177-.046zm-.917 2.029l-.001.007c-.026.19-.028.464-.028.964v4c0 .5.002.774.028.964v.007l.008.001c.19.026.464.028.964.028h1c.5 0 .774-.002.964-.028a.16.16 0 0 0 .007 0l.001-.008c.026-.19.028-.464.028-.964v-4c0-.5-.002-.774-.028-.964a.16.16 0 0 0 0-.007l-.008-.001c-.19-.026-.464-.028-.964-.028h-1c-.5 0-.774.002-.964.028h-.007zM2 6a1 1 0 0 1 1-1h18a1 1 0 1 1 0 2H3a1 1 0 0 1-1-1zm12 4a1 1 0 0 1 1-1h2a1 1 0 1 1 0 2h-2a1 1 0 0 1-1-1zm0 3.5a1 1 0 0 1 1-1h2a1 1 0 1 1 0 2h-2a1 1 0 0 1-1-1zm0 3.5a1 1 0 0 1 1-1h.8a1 1 0 1 1 0 2H15a1 1 0 0 1-1-1z" fill="#fff"/></svg>