<svg width="24" height="24" fill="none" xmlns="http://www.w3.org/2000/svg"><path d="M18 14.435a1 1 0 0 0 2 0h-2zm.414-11.85l.707-.706-.707.707zM9 3h6V1H9v2zm9 2.999V14.435h2v-.017-.018-.018-.018-.018-.017-.018-.018-.018-.017-.018-.018-.018-.017-.018-.018-.018-.017-.018-.018-.018-.018-.017-.018-.018-.018-.018-.017-.018-.018-.018-.017-.018-.018-.018-.018-.017-.018-.018-.018-.017-.018-.018-.018-.017-.018-.018-.018-.018-.017-.018-.018-.018-.017-.018-.018-.018-.017-.018-.018-.018-.017-.018-.018-.018-.017-.018-.018-.018-.017-.018-.018-.018-.017-.018-.018-.018-.017-.018-.018-.018-.017-.018-.018-.017-.018-.018-.018-.017-.018-.018-.017-.018-.018-.018-.017-.018-.018-.017-.018-.018-.017-.018-.018-.017-.018-.018-.017-.018-.018-.017-.018-.018-.017-.018-.018-.017-.018-.017-.018-.018-.017-.018-.018-.017-.018-.017-.018-.018-.017-.018-.017-.018-.017-.018-.018-.017-.018-.017-.018-.017-.018-.017-.018-.018-.017-.018-.017-.018-.017-.018-.017-.018-.017-.018-.017-.018-.017-.018-.017-.018-.017-.017-.018-.017-.018-.017-.018-.017-.017-.018-.017-.018-.017-.018-.017-.017-.018-.017-.017-.018-.017-.018-.017-.017-.018-.017-.017-.018-.017-.017-.017-.018-.017-.017-.018-.017-.017-.017-.018-.017-.017-.017-.018-.017-.017-.017-.017-.018-.017-.017-.017-.017-.018-.017-.017-.017-.017-.017-.017-.018-.017-.017-.017-.017-.017-.017-.017-.017-.017-.017-.017-.017-.018-.017-.017-.016-.018-.017-.017-.016-.017-.017-.017-.017-.017-.017-.017-.017-.017-.017-.017-.017-.017-.016-.017-.017-.017-.017-.017-.016-.017-.017-.017-.017-.016-.017-.017-.017-.016-.017-.017-.017-.016-.017-.017-.016-.017-.017-.016-.017-.017-.016-.017-.017-.016-.017-.016-.017-.017-.016-.017-.016-.017-.016-.017-.016-.017-.016-.017-.016-.017-.016-.017-.016-.016-.017-.016-.017-.016-.016-.017-.016-.016-.017-.016-.016-.017-.016-.016-.017-.016-.016-.016-.017-.016-.016-.016-.016-.017-.016V8.7v-.016-.016-.016-.016-.016-.017-.016-.016-.016-.016-.016-.016-.016-.016-.016-.016-.016-.016-.016-.016-.016-.016-.015-.016-.016-.016-.016-.016-.016-.015-.016-.016-.016-.016-.015-.016-.016-.016-.015-.016-.016-.015-.016-.016-.015-.016-.016-.015-.016-.015-.016-.015-.016-.016-.015-.016-.015-.016-.015-.015-.016-.015-.016-.015-.016-.015-.015-.016-.015-.015-.016-.015-.015-.015-.016-.015-.015-.015-.016-.015-.015-.015-.015-.015-.016-.015-.015-.015-.015-.015-.015-.015-.015-.015-.015-.015-.015-.015-.015-.015-.015-.015V7.1v-.015-.015-.015-.015-.015-.014-.015-.015-.015-.014-.015-.015-.014-.015-.015-.014-.015-.015-.014-.015-.014-.015-.015-.014-.015-.014-.015-.014-.014-.015-.014-.015-.014-.014-.015-.014-.014-.015-.014-.014V6.5v-.014-.014-.014-.015-.014-.014-.014-.014-.014-.014-.014-.015-.014-.014-.014-.014-.014-.014-.014-.014-.013-.014-.014-.014-.014-.014-.014-.013-.014-.014-.014-.014-.013-.014-.014V6h-2zM6 20V6H4v14h2zm9-17c.971 0 1.599.002 2.061.064.434.059.57.153.646.229l1.414-1.414c-.51-.51-1.138-.709-1.793-.797C16.7.998 15.915 1 15 1v2zm5 2.999c0-.914.002-1.7-.082-2.327-.088-.656-.287-1.284-.797-1.793l-1.414 1.414c.076.076.17.212.229.645.062.463.064 1.09.064 2.06h2zM9 1c-.915 0-1.701-.002-2.328.082-.655.088-1.284.287-1.793.797l1.414 1.414c.076-.076.212-.17.646-.229C7.4 3.002 8.029 3 9 3V1zM6 6c0-.971.002-1.599.064-2.061.059-.434.153-.57.229-.646L4.879 1.879c-.51.51-.709 1.138-.797 1.793C3.998 4.3 4 5.085 4 6h2z" fill="currentColor"/><path d="M9 2V1H8v1h1zm0 16H8v1h1v-1zm9.414-.586l-.707-.707.707.707zm0-14.828l-.707.707.707-.707zM9 3h6V1H9v2zm9 2.999V14h2v-.017-.016-.017-.016-.017-.016-.016-.017-.016-.017-.016-.016-.017-.016-.017-.016-.017-.016-.017-.016-.016-.017-.016-.017-.016-.017-.016-.017-.016-.017-.016-.016-.017-.017-.016-.017-.016-.016-.017-.016-.017-.016-.017-.016-.017-.016-.017-.016-.017-.016-.017-.016-.017-.017-.016-.017-.016-.016-.017-.017-.016-.017-.016-.017-.016-.017-.016-.017-.016-.017-.016-.017-.016-.017-.017-.016-.016-.017-.017-.016-.017-.016-.017-.016-.017-.016-.017-.016-.017-.016-.017-.017-.016-.017-.016-.017-.016-.017-.016-.017-.016-.017-.016-.017-.016-.017-.017-.016-.016-.017-.017-.016-.017-.016-.017-.016-.017-.016-.017-.016-.017-.016-.017-.016-.017-.016-.017-.016-.017-.016-.017-.016-.017-.016-.017-.016-.017-.016-.017-.016-.017-.016-.017-.016-.017-.016-.017-.016-.016-.017-.016-.017-.016-.017-.016-.017-.016-.017-.016-.017-.016-.016-.017-.016-.017-.016-.017-.016-.016-.017-.016-.017-.016-.016-.017-.016-.017-.016-.016-.017-.016V11v-.017-.016-.017-.016-.016-.017-.016-.016-.017-.016-.016-.017-.016-.016-.017-.016-.016-.017-.016-.016-.016-.017-.016-.016-.017-.016-.016-.016-.017-.016-.016-.016-.017-.016-.016-.016-.017-.016-.016-.016-.017-.016-.016-.016-.016-.016-.017-.016-.016-.016-.016-.016-.016-.017-.016-.016-.016-.016-.016-.016-.017-.016-.016-.016-.016-.016-.016-.016-.016-.016-.016-.016-.016V9.8v-.016-.016-.016-.016-.016-.016-.016-.016-.016-.016-.016-.016-.016-.016-.016-.016-.016-.016-.016-.015-.016-.016-.016-.016-.016-.016-.016-.015-.016-.016-.016-.016-.015-.016-.016-.016-.016-.015-.016-.016-.016-.015-.016-.016-.016-.015-.016-.016-.015-.016-.016-.015-.016-.016-.015-.016-.016-.015-.016-.015-.016-.016-.015-.016-.015-.016-.015-.016-.015-.016-.015-.016-.015-.016-.015-.016-.015-.016-.015-.016-.015-.015-.016-.015-.016-.015-.015-.016-.015-.015-.016-.015-.015-.016-.015-.015-.015-.016-.015-.015-.015-.016-.015-.015-.015-.015-.016-.015-.015-.015-.015-.015-.015-.015-.016-.015-.015-.015-.015-.015-.015-.015-.015-.015-.015-.015-.015-.015-.015-.015-.015-.014-.015-.015-.015-.015-.015-.015-.015-.014-.015-.015-.015-.015-.014-.015-.015-.015-.014-.015-.015-.014-.015-.015-.014-.015-.015-.014-.015-.014-.015-.015-.014-.015-.014-.015-.014-.015-.014-.015-.014-.015-.014-.015-.014-.014-.015-.014-.015-.014-.014-.015-.014-.014-.014-.015-.014-.014-.014-.015-.014-.014-.014-.014-.015-.014-.014-.014-.014-.014-.014-.014-.014-.014-.014-.014-.014-.014-.014-.014-.014-.014-.014-.014-.014-.014-.014-.014-.013-.014-.014-.014-.014-.013-.014-.014-.014-.013-.014-.014-.013-.014-.014-.013-.014-.013-.014-.014-.013-.014V6.2v-.014-.013-.014-.013-.014-.013-.013-.014-.013-.014-.013-.013-.014-.013V6h-2zM10 18V2H8v16h2zm5-1H9v2h6v-2zm3-3c0 .971-.002 1.599-.064 2.061-.059.434-.153.57-.229.646l1.414 1.414c.51-.51.709-1.138.797-1.793C20.002 15.7 20 14.915 20 14h-2zm-3 5c.915 0 1.701.002 2.328-.082.655-.088 1.284-.287 1.793-.797l-1.414-1.414c-.076.076-.212.17-.646.229-.462.062-1.09.064-2.061.064v2zm0-16c.971 0 1.599.002 2.061.064.434.059.57.153.646.229l1.414-1.414c-.51-.51-1.138-.709-1.793-.797C16.7.998 15.915 1 15 1v2zm5 2.999c0-.914.002-1.7-.082-2.327-.088-.656-.287-1.284-.797-1.793l-1.414 1.414c.076.076.17.212.229.645.062.463.064 1.09.064 2.06h2z" fill="currentColor"/><path d="M19 23a1 1 0 1 0 0-2v2zm-1.538-4.615l-.48-.877.48.877zm1.27-.753l.732.681-.732-.68zm.217-.365L18 16.95l.949.316zM19 21H7v2h12v-2zM7 19h8.918v-2H7v2zm12 3v-1H19a2.187 2.187 0 0 1-.258-.023 2.65 2.65 0 0 1-.62-.155 1.148 1.148 0 0 1-.462-.306c-.08-.097-.159-.244-.159-.516h-2c0 .728.234 1.33.622 1.796.374.448.846.718 1.257.883a4.651 4.651 0 0 0 1.6.32l.013.001h.007L19 22zm-1.5-2c0-.236.059-.373.119-.462a.889.889 0 0 1 .322-.275l-.96-1.755c-.758.415-1.481 1.2-1.481 2.492h2zm2.5-3.6v-.005-.004-.004-.005-.004-.005-.004-.004-.005-.004-.005-.004-.004-.005-.004-.005-.004-.004-.005-.004-.004-.005-.004-.005-.004-.004-.005-.004-.004-.005-.004-.005-.004-.004-.005-.004-.004-.005-.004-.005-.004-.004-.005-.004-.004-.005-.004-.004-.005-.004-.005-.004-.004-.005-.004-.004-.005-.004-.004-.005-.004-.005-.004-.004-.005-.004-.004-.005-.004-.004-.005-.004-.004-.005-.004-.004-.005-.004-.004-.005-.004-.005-.004-.004-.005-.004-.004-.005-.004-.004-.005-.004-.004-.005-.004-.004-.005-.004-.004-.005-.004-.005-.004-.004-.005-.004-.004-.005-.004-.004-.005-.004-.004-.005-.004-.004-.005-.004-.004-.005-.004-.005-.004-.004-.005-.004-.004-.005-.004-.004-.005-.004-.004-.005-.004-.005-.004-.004-.005-.004-.004-.005-.004-.004-.005-.004-.005-.004-.004-.005-.004-.004-.005-.004-.005-.004-.004-.005-.004-.004-.005-.004-.005-.004-.004-.005-.004-.005-.004-.004-.005-.004-.004-.005-.004-.005-.004-.005-.004-.004-.005-.004-.005-.004-.004-.005-.004-.005-.004-.004-.005-.004-.005-.004-.005-.004-.004-.005-.004-.005-.004-.004-.005-.004-.005-.004-.005-.004-.005-.004-.004-.005-.004-.005-.004-.005-.004-.005-.004-.005-.004-.004-.005-.004-.005-.004-.005-.004-.005-.004-.005-.004-.005-.004-.005-.004-.005-.004-.005-.004-.005-.004-.005-.004-.005-.004-.005-.004-.005-.004-.005-.004-.005-.004-.005-.004-.005-.005-.004-.005-.004-.005-.004-.005-.004-.005-.004-.005-.005-.004-.005-.004-.005-.004-.005-.005-.004-.005-.004-.005-.005-.004-.005-.004-.005-.005-.004-.005-.004-.005-.005-.004-.005-.005-.004-.005-.005-.004-.005-.004-.005-.005-.004-.005-.005-.004-.005-.005-.004-.005-.005-.004-.005-.005-.005-.004-.005-.005-.004-.005-.005-.004-.005-.005-.005-.004-.005-.005-.005-.004-.005-.005-.005-.004-.005-.005-.005-.004-.005-.005-.005-.004-.005-.005-.005-.005-.004-.005-.005-.005-.005-.004-.005-.005-.005-.005-.005-.004-.005-.005-.005-.005-.005-.005-.004-.005-.005-.005-.005-.005-.005-.005-.004-.005-.005-.005-.005-.005-.005-.005-.005-.005-.005-.005-.005-.004-.005-.005-.005-.005-.005-.005-.005-.005-.005-.005-.005-.005-.005-.005-.005-.005-.005-.005-.005-.005-.005-.005-.005-.005-.005-.005-.006-.005-.005-.005-.005-.005-.005-.005-.005-.005-.005-.006-.005-.005-.005-.005-.005-.005-.005-.006-.005-.005-.005-.005-.005-.006-.005-.005-.005-.005-.006-.005-.005-.005-.005-.006-.005-.005-.005-.006-.005-.005-.005-.006-.005-.005-.005-.006-.005-.005-.006-.005-.005-.006-.005-.005-.006-.005-.005-.006-.005-.005-.006-.005-.005-.006-.005-.006-.005-.005-.006-.005-.006-.005-.006-.005-.005-.006-.005-.006-.005-.006-.005-.006-.005-.006-.005-.006-.005-.006-.005-.006-.005-.006-.005-.006-.005-.006-.005V14h-2V16.4h2zM4 20a3 3 0 0 0 3 3v-2a1 1 0 0 1-1-1H4zm13.941-.737c.382-.209.686-.375.908-.504.11-.065.216-.128.306-.19a1.79 1.79 0 0 0 .31-.256L18 16.951c.053-.056.085-.073.036-.04a3.736 3.736 0 0 1-.193.12c-.193.111-.469.262-.861.477l.96 1.755zM18 16.4c0 .247 0 .398-.005.508-.006.116-.014.101.005.043l1.898.631c.07-.211.087-.422.095-.582.007-.166.007-.372.007-.6h-2zm1.464 1.913c.052-.055.172-.178.266-.336.093-.158.144-.323.168-.395L18 16.952l-.01.031-.009.024a1.718 1.718 0 0 1-.005.014l-.002.005.01-.02a.553.553 0 0 1 .07-.114l-.004.004a.414.414 0 0 1-.01.012l-.017.018-.023.025 1.464 1.362zM6 20a1 1 0 0 1 1-1v-2a3 3 0 0 0-3 3h2z" fill="currentColor"/></svg>