<svg fill="none" height="24" width="24" xmlns="http://www.w3.org/2000/svg"><g stroke="currentColor" stroke-width="2"><path d="m7.5 17h-.5c-1.886 0-2.828 0-3.414-.586s-.586-1.528-.586-3.414v-6c0-1.886 0-2.828.586-3.414s1.528-.586 3.414-.586h10c1.886 0 2.828 0 3.414.586s.586 1.528.586 3.414v6c0 1.886 0 2.828-.586 3.414s-1.528.586-3.414.586h-.5" stroke-linecap="round"/><path d="m10.507 18.133c.609-.87.913-1.304 1.323-1.375.113-.019.227-.019.34 0 .41.071.714.506 1.323 1.375.788 1.125 1.181 1.688 1.046 2.15-.037.124-.097.24-.178.341-.301.376-.987.376-2.361.376s-2.06 0-2.36-.376a1 1 0 0 1 -.179-.342c-.136-.461.258-1.024 1.046-2.15z"/></g></svg>
