<svg fill="none" height="24" width="24" xmlns="http://www.w3.org/2000/svg"><path d="m4.828 9.172 1.415-1.415c.867-.867 1.3-1.3 1.852-1.529.55-.228 1.164-.228 2.39-.228h9.242c.975 0 1.463 0 1.594.299.131.298-.198.658-.857 1.377l-1.486 1.621c-1.178 1.283-1.765 1.925-1.765 2.703s.588 1.42 1.765 2.703l1.486 1.621c.659.72.988 1.079.857 1.377-.131.299-.619.299-1.594.299h-9.242c-1.226 0-1.84 0-2.39-.228-.552-.229-.985-.662-1.852-1.53l-1.415-1.414c-1.333-1.333-2-2-2-2.828s.667-1.495 2-2.828z" stroke="currentColor" stroke-linecap="round" stroke-linejoin="round" stroke-width="2"/></svg>