<svg fill="none" height="24" width="24" xmlns="http://www.w3.org/2000/svg"><path d="m5.5 11a1 1 0 1 0 -2 0zm15 0a1 1 0 1 0 -2 0zm-5 0a1 1 0 1 0 -2 0zm-5 0a1 1 0 1 0 -2 0zm-7.5 9a1 1 0 1 0 0 2zm18 2a1 1 0 1 0 0-2zm-1.322-12.726.688-.726zm1.032 1.411-.93-.37zm-17.42 0 .93-.37zm8.71-7.93v-1zm-6.99 7.245 4.927-4.668-1.377-1.452-4.926 4.668zm9.053-4.668 4.927 4.668 1.376-1.452-4.927-4.668zm-9.053 6.668h13.98v-2h-13.98zm.49 9v-10h-2v10zm15 0v-10h-2v10zm-5 0v-10h-2v10zm-5 0v-10h-2v10zm-7.5 1h1.5v-2h-1.5zm1.5 0h5v-2h-5zm5 0h5v-2h-5zm5 0h5v-2h-5zm5 0h1.5v-2h-1.5zm-.51-12c.196.185.355.336.487.467.134.134.219.226.271.292.058.073.038.066.015-.003a.654.654 0 0 1 .018-.441l1.858.74c.282-.708-.125-1.29-.327-1.543-.232-.29-.585-.621-.946-.964zm0 2c.498 0 .983.002 1.35-.049.32-.045 1.017-.188 1.299-.896l-1.858-.74c.07-.177.199-.284.29-.333.064-.033.084-.025-.008-.012-.084.012-.209.02-.398.025a29.35 29.35 0 0 1 -.675.005zm-15.356-3.452c-.361.343-.714.674-.946.964-.202.253-.609.835-.327 1.543l1.858-.74c.07.177.051.343.018.441-.023.069-.043.076.014.003.053-.066.138-.158.272-.292.132-.131.291-.282.487-.467zm1.376 1.452c-.27 0-.489 0-.675-.005a3.713 3.713 0 0 1 -.398-.025c-.092-.013-.072-.021-.008.012.091.049.22.156.29.333l-1.858.74c.283.708.979.851 1.299.896.368.051.852.049 1.35.049zm4.927-4.668c.671-.636 1.105-1.044 1.464-1.305.337-.244.494-.272.599-.272v-2c-.692 0-1.259.28-1.773.653-.49.356-1.034.874-1.666 1.472zm5.502-1.452c-.632-.598-1.175-1.116-1.666-1.472-.514-.373-1.081-.653-1.773-.653v2c.105 0 .262.028.599.272.36.261.793.67 1.464 1.305l1.377-1.452z" fill="currentColor"/></svg>
