<svg fill="none" height="24" viewBox="0 0 24 24" width="24" xmlns="http://www.w3.org/2000/svg"><g stroke="currentColor" stroke-linecap="round" stroke-linejoin="round" stroke-width="2"><path d="m11 21c-1.88562 0-2.82843 0-3.41421-.5858-.58579-.5858-.58579-1.5286-.58579-3.4142v-8c0-1.88562 0-2.82843.58579-3.41421.58578-.58579 1.52859-.58579 3.41421-.58579h2c1.8856 0 2.8284 0 3.4142.58579.5858.58578.5858 1.52859.5858 3.41421v8c0 1.8856 0 2.8284-.5858 3.4142s-1.5286.5858-3.4142.5858z"/><path d="m12.5 5h-1c-.5523 0-1-.44772-1-1s.4477-1 1-1h1c.5523 0 1 .44772 1 1s-.4477 1-1 1z" fill="currentColor"/><path d="m11.5 17 1.75-3.9461-2.5-.0538 2-4.0539"/></g></svg>