<svg fill="none" height="24" width="24" xmlns="http://www.w3.org/2000/svg" xmlns:xlink="http://www.w3.org/1999/xlink"><clipPath id="a"><path d="m0 0h24v24h-24z"/></clipPath><clipPath id="b"><path d="m0 0h24v24h-24z" transform="matrix(0 -1 1 0 0 24)"/></clipPath><g clip-path="url(#a)"><g clip-path="url(#b)" stroke="currentColor" stroke-linecap="round" stroke-linejoin="round" stroke-width="2"><path d="m11 21c-1.886 0-2.828 0-3.414-.586s-.586-1.528-.586-3.414v-8c0-1.886 0-2.828.586-3.414s1.528-.586 3.414-.586h2c1.886 0 2.828 0 3.414.586s.586 1.528.586 3.414v8c0 1.886 0 2.828-.586 3.414s-1.528.586-3.414.586z"/><path d="m12.5 5h-1a1 1 0 1 1 0-2h1a1 1 0 1 1 0 2z" fill="currentColor"/><path d="m10 17.5h4m-4-9h4m-4 4.5h4"/></g></g></svg>