<svg fill="none" height="24" width="24" xmlns="http://www.w3.org/2000/svg"><path d="m19.238 13.682-.908.42zm.629 1.645.996-.087zm-1.315 2.055.339.94-.34-.94zm-13.79-3.7-.908-.419.908.42zm-.629 1.645-.996-.087zm1.315 2.055-.339.94.34-.94zm.552-6.606h1zm12.094.428-.908.419.908-.42zm-1.094-2.704v2.276h2v-2.276zm-10 2.276v-2.276h-2v2.276zm-1.33 3.324 1.144-2.478-1.816-.838-1.144 2.478zm11.516-2.478 1.144 2.479 1.816-.839-1.144-2.478zm-.39 4.877h-4.796v2h4.795v-2zm-4.796.001h-4.795v2h4.795zm6.33-2.399c.204.443.34.738.432.968s.106.317.108.344l1.993-.173a3.23 3.23 0 0 0 -.244-.912c-.115-.29-.278-.643-.473-1.065zm-1.535 4.399c.465 0 .854 0 1.165-.016a3.23 3.23 0 0 0 .93-.161l-.677-1.882c-.026.01-.11.033-.358.046-.247.013-.573.013-1.06.013zm2.075-3.087a1 1 0 0 1 -.657 1.028l.678 1.882a3 3 0 0 0 1.972-3.083zm-15.016-2.15c-.195.422-.358.775-.473 1.065a3.229 3.229 0 0 0 -.244.912l1.993.173c.002-.027.016-.114.108-.344s.228-.525.432-.968zm3.35 3.237c-.486 0-.812 0-1.059-.013-.248-.013-.332-.037-.358-.046l-.678 1.882c.303.109.62.144.93.16.312.017.7.017 1.166.017v-2zm-4.067-1.26a3 3 0 0 0 1.972 3.083l.678-1.882a1 1 0 0 1 -.657-1.028zm1.863-4.464c0 .003 0 .006-.002.009l1.816.838c.122-.266.186-.555.186-.847zm12 0c0 .292.064.581.186.847l1.816-.838a.022.022 0 0 1 -.002-.01h-2zm-5-7.276a5 5 0 0 1 5 5h2a7 7 0 0 0 -7-7zm0-2a7 7 0 0 0 -7 7h2a5 5 0 0 1 5-5zm-2.836 18.514a1 1 0 1 0 -.328 1.972zm6 1.972a1 1 0 1 0 -.328-1.972zm-6.328 0 .698.117.329-1.973-.699-.116zm5.63.117.698-.117-.328-1.972-.699.116zm-4.932 0c1.633.272 3.3.272 4.932 0l-.329-1.973c-1.415.236-2.86.236-4.274 0z" fill="currentColor"/></svg>