<svg fill="none" height="24" width="24" xmlns="http://www.w3.org/2000/svg"><path d="m4.5 7c0-1.886 0-2.828.586-3.414s1.528-.586 3.414-.586h7c1.886 0 2.828 0 3.414.586s.586 1.528.586 3.414v10c0 1.886 0 2.828-.586 3.414s-1.528.586-3.414.586h-7c-1.886 0-2.828 0-3.414-.586s-.586-1.528-.586-3.414z" stroke="#fff" stroke-linecap="round" stroke-linejoin="round" stroke-width="2"/><path d="m7 17.5a1 1 0 0 1 1-1h2a1 1 0 1 1 0 2h-2a1 1 0 0 1 -1-1zm0-11a1 1 0 0 1 1-1h8a1 1 0 1 1 0 2h-8a1 1 0 0 1 -1-1zm2 3.5a1 1 0 1 1 -2 0 1 1 0 0 1 2 0zm0 4a1 1 0 1 1 -2 0 1 1 0 0 1 2 0zm4 0a1 1 0 1 1 -2 0 1 1 0 0 1 2 0zm0-4a1 1 0 1 1 -2 0 1 1 0 0 1 2 0zm4 0a1 1 0 1 1 -2 0 1 1 0 0 1 2 0zm0 4a1 1 0 1 1 -2 0 1 1 0 0 1 2 0zm0 3.5a1 1 0 1 1 -2 0 1 1 0 0 1 2 0z" fill="#fff"/></svg>