<svg width="24" height="24" fill="none" xmlns="http://www.w3.org/2000/svg"><path d="M5 21v-3m13.5 3v-3m-14-7c-.828 0-1.5.67-1.5 1.499V14c0 .827.1 1.532.238 2.108.163.687.245 1.03.79 1.461C4.573 18 5.065 18 6.05 18h11.288c1.335 0 2.003 0 2.551-.439s.672-.99.92-2.095c.113-.503.191-1.015.191-1.466v-1.5a1.5 1.5 0 0 0-1.5-1.5m-15 0l1.243-4.97c.363-1.455.545-2.183 1.088-2.606C7.373 3 8.123 3 9.623 3h4.754c1.5 0 2.25 0 2.792.424.543.423.725 1.15 1.088 2.606L19.5 11m-15 0h15" stroke="currentColor" stroke-width="2" stroke-linecap="round" stroke-linejoin="round"/><path d="M8 14a1 1 0 1 1-2 0 1 1 0 0 1 2 0zm10 0a1 1 0 1 1-2 0 1 1 0 0 1 2 0z" fill="currentColor"/></svg>