<svg width="24" height="24" fill="none" xmlns="http://www.w3.org/2000/svg"><path fill-rule="evenodd" clip-rule="evenodd" d="M16.3 2.97l-.08-.04c-.597-.284-1.203-.573-1.783-.684-.713-.136-1.37-.009-2.038.413-.737.465-1.1 1.111-1.261 1.883C11 5.202 11 6.019 11 6.909v1.157c0 .886 0 1.65.082 2.262.088.655.287 1.284.797 1.793.51.51 1.138.709 1.793.797.612.082 1.376.082 2.262.082h1.157c.89 0 1.706 0 2.367-.138.772-.161 1.418-.524 1.883-1.261.422-.669.549-1.325.413-2.038-.11-.58-.4-1.186-.685-1.782l-.039-.082a10.037 10.037 0 0 0-4.73-4.73zm-2.834 1.38c.265-.167.41-.175.597-.139.295.056.663.224 1.377.564a8.037 8.037 0 0 1 3.785 3.785c.34.714.508 1.082.564 1.377.036.188.027.332-.14.597-.123.195-.255.298-.6.37-.433.09-1.037.096-2.049.096h-1c-.971 0-1.599-.002-2.061-.064-.434-.059-.57-.153-.646-.229-.076-.076-.17-.212-.229-.646C13.002 9.6 13 8.971 13 8V7c0-1.012.005-1.616.095-2.05.072-.344.175-.476.371-.6zm-5.021.481a1 1 0 0 0-.89-1.791A10 10 0 0 0 2 12c0 5.523 4.477 10 10 10a10 10 0 0 0 8.888-5.414 1 1 0 0 0-1.776-.918A8 8 0 1 1 8.445 4.83z" fill="currentColor"/></svg>