<svg fill="none" height="24" width="24" xmlns="http://www.w3.org/2000/svg"><circle cx="12" cy="12" r="9" stroke="currentColor" stroke-width="2"/><path d="m9.389 15.163-.556.831zm5.774-.552-.832-.555zm-.552.552-.555-.832zm.552-5.774-.832.555zm-3.163 5.111c-.723 0-1.19-.001-1.542-.037-.335-.034-.453-.091-.514-.131l-1.11 1.662c.443.297.928.409 1.422.459.476.048 1.063.047 1.744.047zm-4.5-2.5c0 .681-.001 1.268.047 1.744.05.494.162.979.459 1.423l1.663-1.111c-.04-.061-.098-.179-.132-.514-.036-.352-.037-.819-.037-1.542zm2.444 2.332a1 1 0 0 1 -.275-.276l-1.663 1.11a3 3 0 0 0 .827.828zm4.556-2.332c0 .723-.001 1.19-.037 1.542-.034.335-.091.453-.131.514l1.662 1.11c.297-.443.409-.928.459-1.422.048-.476.047-1.063.047-1.744zm-2.5 4.5c.681 0 1.268.001 1.744-.047.494-.05.979-.162 1.423-.459l-1.111-1.662c-.061.04-.179.097-.514.131-.352.036-.819.037-1.542.037zm2.332-2.444a1 1 0 0 1 -.276.276l1.11 1.662a3 3 0 0 0 .828-.827zm2.168-2.056c0-.681.001-1.268-.047-1.744-.05-.494-.162-.979-.459-1.423l-1.662 1.111c.04.061.097.179.131.514.036.352.037.819.037 1.542zm-4.5-2.5c.723 0 1.19.001 1.542.037.335.034.453.091.514.132l1.11-1.663c-.443-.297-.928-.409-1.422-.459-.476-.047-1.063-.047-1.744-.047zm3.994-.667a3 3 0 0 0 -.827-.827l-1.111 1.663a1 1 0 0 1 .276.275l1.662-1.11zm-6.494 3.167c0-.723.001-1.19.037-1.542.034-.335.091-.453.132-.514l-1.663-1.11c-.297.443-.409.928-.459 1.422-.047.476-.047 1.063-.047 1.744zm2.5-4.5c-.681 0-1.268-.001-1.744.047-.494.05-.979.162-1.423.459l1.111 1.663c.061-.04.179-.098.514-.132.352-.036.819-.037 1.542-.037zm-2.331 2.444a1 1 0 0 1 .275-.275l-1.11-1.663a3 3 0 0 0 -.828.827z" fill="currentColor"/></svg>