<svg fill="none" height="24" width="24" xmlns="http://www.w3.org/2000/svg" xmlns:xlink="http://www.w3.org/1999/xlink"><clipPath id="a"><path d="m0 0h24v24h-24z"/></clipPath><clipPath id="b"><path d="m0 0h24v24h-24z" transform="matrix(0 1 -1 0 24 0)"/></clipPath><g clip-path="url(#a)"><g clip-path="url(#b)"><circle cx="12" cy="12" r="9" stroke="#fff" stroke-width="2" transform="matrix(0 1 -1 0 24 0)"/><path d="m14.286 10.304-2.226-1.392c-1.353-.845-2.03-1.268-2.545-.982-.515.285-.515 1.083-.515 2.678v2.784c0 1.595 0 2.393.515 2.678.515.286 1.192-.137 2.545-.982l2.226-1.392c1.218-.761 1.827-1.142 1.827-1.696s-.609-.935-1.827-1.696z" fill="#fff"/></g></g></svg>