<svg fill="none" height="24" viewBox="0 0 24 24" width="24" xmlns="http://www.w3.org/2000/svg"><g stroke="currentColor" stroke-width="2"><rect height="6" rx="2" width="6" x="3" y="3"/><rect height="6" rx="2" width="6" x="3" y="15"/><rect height="6" rx="2" width="6" x="15" y="15"/><path d="m3.93552 8c-.59881 1.20496-.93552 2.5632-.93552 4s.33671 2.795.93552 4m4.06448-12.06448c1.20496-.59881 2.5632-.93552 4-.93552s2.795.33671 4 .93552m4.0645 4.06448c.5988 1.20496.9355 2.5632.9355 4s-.3367 2.795-.9355 4m-4.0645 4.0645c-1.205.5988-2.5632.9355-4 .9355s-2.79504-.3367-4-.9355"/><rect height="6" rx="2" width="6" x="15" y="3"/></g></svg>