<svg fill="none" height="24" width="24" xmlns="http://www.w3.org/2000/svg"><g stroke="currentColor" stroke-width="2"><path d="m7 3.5c-.932 0-1.398 0-1.765.152a2 2 0 0 0 -1.083 1.083c-.152.367-.152.833-.152 1.765v10.5c0 1.886 0 2.828.586 3.414s1.528.586 3.414.586h8c1.886 0 2.828 0 3.414-.586s.586-1.528.586-3.414v-10.5c0-.932 0-1.398-.152-1.765a2 2 0 0 0 -1.083-1.083c-.367-.152-.833-.152-1.765-.152"/><path d="m7 3.25c0-.966.784-1.75 1.75-1.75h6.5a1.75 1.75 0 1 1 0 3.5h-6.5a1.75 1.75 0 0 1 -1.75-1.75z"/></g></svg>