<svg fill="none" height="24" width="24" xmlns="http://www.w3.org/2000/svg"><path d="m18.3 15.6v1zm0-7.2v1zm-9.9 1h7.2v-2h-7.2zm1 6.2v-7.2h-2v7.2zm6.2-1h-7.2v2h7.2zm-1-6.2v7.2h2v-7.2zm2 0v-2.7h-2v2.7zm-9.2-2.7v2.7h2v-2.7zm-1.7 10.9h2.7v-2h-2.7zm9.9 0h2.7v-2h-2.7zm1 1.7v-2.7h-2v2.7zm1.7-10.9h-2.7v2h2.7zm-9.9 0h-2.7v2h2.7zm1 10.9v-2.7h-2v2.7zm8.9-1.7a1.7 1.7 0 0 1 1.7 1.7h2a3.7 3.7 0 0 0 -3.7-3.7zm-3.7 1.7a3.7 3.7 0 0 0 3.7 3.7v-2a1.7 1.7 0 0 1 -1.7-1.7zm3.7 3.7a3.7 3.7 0 0 0 3.7-3.7h-2a1.7 1.7 0 0 1 -1.7 1.7zm-12.6-7.4a3.7 3.7 0 0 0 -3.7 3.7h2a1.7 1.7 0 0 1 1.7-1.7zm0 7.4a3.7 3.7 0 0 0 3.7-3.7h-2a1.7 1.7 0 0 1 -1.7 1.7zm0-2a1.7 1.7 0 0 1 -1.7-1.7h-2a3.7 3.7 0 0 0 3.7 3.7zm3.7-14.3a3.7 3.7 0 0 0 -3.7-3.7v2a1.7 1.7 0 0 1 1.7 1.7zm-3.7-3.7a3.7 3.7 0 0 0 -3.7 3.7h2a1.7 1.7 0 0 1 1.7-1.7zm-3.7 3.7a3.7 3.7 0 0 0 3.7 3.7v-2a1.7 1.7 0 0 1 -1.7-1.7zm14.6 0a1.7 1.7 0 0 1 1.7-1.7v-2a3.7 3.7 0 0 0 -3.7 3.7zm5.4 0a3.7 3.7 0 0 0 -3.7-3.7v2a1.7 1.7 0 0 1 1.7 1.7zm-3.7 3.7a3.7 3.7 0 0 0 3.7-3.7h-2a1.7 1.7 0 0 1 -1.7 1.7z" fill="#fff"/></svg>