<svg fill="none" height="24" viewBox="0 0 24 24" width="24" xmlns="http://www.w3.org/2000/svg"><g stroke="currentColor" stroke-linecap="round" stroke-linejoin="round" stroke-width="2"><path d="m3 6.5c0-1.40446 0-2.10669.33706-2.61114.14592-.21838.33342-.40588.5518-.5518.50445-.33706 1.20668-.33706 2.61114-.33706 1.40446 0 2.10669 0 2.61114.33706.21838.14592.40588.33342.5518.5518.33706.50445.33706 1.20668.33706 2.61114 0 1.40446 0 2.10669-.33706 2.61114-.14592.21838-.33342.40588-.5518.5518-.50445.33706-1.20668.33706-2.61114.33706-1.40446 0-2.10669 0-2.61114-.33706-.21838-.14592-.40588-.33342-.5518-.5518-.33706-.50445-.33706-1.20668-.33706-2.61114z" fill="currentColor"/><rect height="7" rx="2" width="7" x="3" y="14"/><rect height="7" rx="2" width="7" x="14" y="3"/><rect height="7" rx="2" width="7" x="14" y="14"/></g></svg>