<svg fill="none" height="24" width="24" xmlns="http://www.w3.org/2000/svg"><path d="m4 7c0-1.886 0-2.828.586-3.414s1.528-.586 3.414-.586h8c1.886 0 2.828 0 3.414.586s.586 1.528.586 3.414v10c0 1.886 0 2.828-.586 3.414s-1.528.586-3.414.586h-8c-1.886 0-2.828 0-3.414-.586s-.586-1.528-.586-3.414z" stroke="currentColor" stroke-width="2"/><path d="m4 9h16m-16 6h16" stroke="currentColor" stroke-linecap="round" stroke-width="2"/><path d="m9 12a1 1 0 1 1 -2 0 1 1 0 0 1 2 0zm0-6a1 1 0 1 1 -2 0 1 1 0 0 1 2 0zm0 12a1 1 0 1 1 -2 0 1 1 0 0 1 2 0z" fill="currentColor"/></svg>