<svg fill="none" height="24" width="24" xmlns="http://www.w3.org/2000/svg"><path d="m12.414 20.414.707.707zm-8.828 0-.707.707zm8.828-8.828-.707.707zm-5.414.414h2v-2h-2zm-3 5v-2h-2v2zm5 3h-2v2h2zm3-5v2h2v-2zm-3 7c.915 0 1.701.002 2.328-.082.655-.088 1.284-.287 1.793-.797l-1.414-1.414c-.076.076-.212.17-.646.229-.461.062-1.09.064-2.061.064zm3-5c0 .971-.002 1.599-.064 2.061-.059.434-.153.57-.229.646l1.414 1.414c.51-.51.709-1.138.797-1.793.084-.628.082-1.413.082-2.328zm-10 0c0 .915-.002 1.701.082 2.328.088.655.287 1.284.797 1.793l1.414-1.414c-.076-.076-.17-.212-.229-.646-.062-.461-.064-1.09-.064-2.061zm5 3c-.971 0-1.599-.002-2.061-.064-.434-.059-.57-.153-.646-.229l-1.414 1.414c.51.51 1.138.709 1.793.797.628.084 1.413.082 2.328.082zm2-8c.971 0 1.599.002 2.061.064.434.059.57.153.646.229l1.414-1.414c-.51-.51-1.138-.709-1.793-.797-.628-.084-1.413-.082-2.328-.082zm5 3c0-.915.002-1.701-.082-2.328-.088-.655-.287-1.284-.797-1.793l-1.414 1.414c.076.076.17.212.229.646.062.462.064 1.09.064 2.061zm-7-5c-.915 0-1.701-.002-2.328.082-.655.088-1.284.287-1.793.797l1.414 1.414c.076-.076.212-.17.646-.229.461-.062 1.09-.064 2.061-.064zm-3 5c0-.971.002-1.599.064-2.061.059-.434.153-.57.229-.646l-1.414-1.414c-.51.51-.709 1.138-.797 1.793-.084.628-.082 1.413-.082 2.328z" fill="currentColor"/><path d="m5.5 7.5v-.5c0-1.886 0-2.828.586-3.414s1.528-.586 3.414-.586h.5m11 4.5v-.5c0-1.886 0-2.828-.586-3.414s-1.528-.586-3.414-.586h-.5m4.5 11v.5c0 1.886 0 2.828-.586 3.414s-1.528.586-3.414.586h-.5" stroke="currentColor" stroke-linecap="round" stroke-linejoin="round" stroke-width="2"/></svg>