<svg fill="none" height="24" width="24" xmlns="http://www.w3.org/2000/svg"><path d="m17.676 6.308-.67.744zm1.151 1.269.913-.407zm-4.878-4.444-.358.933zm4.465 17.281-.707-.707zm-12.828 0 .707-.707zm.414-3.414v-10h-2v10zm9 3h-6v2h6zm-6-16h3.465v-2h-3.465zm9 5.281v7.719h2v-7.719zm-3.528-4.51 2.535 2.28 1.338-1.486-2.535-2.281-1.338 1.486zm5.528 4.509c0-.789.02-1.483-.26-2.11l-1.826.813c.066.149.086.332.086 1.297zm-2.993-2.23c.718.647.84.784.906.933l1.828-.814c-.28-.628-.81-1.077-1.396-1.605l-1.338 1.487zm-4.542-3.05c.834 0 .993.015 1.126.066l.716-1.867c-.559-.214-1.157-.199-1.842-.199zm3.345-.716c-.508-.458-.944-.87-1.503-1.085l-.716 1.867c.133.051.261.146.881.704zm-.81 18.716c.915 0 1.701.002 2.328-.082.655-.088 1.284-.287 1.793-.797l-1.414-1.414c-.076.076-.212.17-.646.229-.462.062-1.09.064-2.061.064zm3-5c0 .971-.002 1.599-.064 2.061-.059.434-.153.57-.229.646l1.414 1.414c.51-.51.709-1.138.797-1.793.084-.628.082-1.413.082-2.328zm-14 0c0 .915-.002 1.701.082 2.328.088.655.287 1.284.797 1.793l1.414-1.414c-.076-.076-.17-.212-.229-.646-.062-.461-.064-1.09-.064-2.061zm5 3c-.971 0-1.599-.002-2.061-.064-.434-.059-.57-.153-.646-.229l-1.414 1.414c.51.51 1.138.709 1.793.797.628.084 1.413.082 2.328.082zm-3-13c0-.971.002-1.599.064-2.061.059-.434.153-.57.229-.646l-1.414-1.414c-.51.51-.709 1.138-.797 1.793-.084.628-.082 1.413-.082 2.328zm3-5c-.915 0-1.701-.002-2.328.082-.655.088-1.284.287-1.793.797l1.414 1.414c.076-.076.212-.17.646-.229.461-.062 1.09-.064 2.061-.064z" fill="#fff"/><path d="m13 3v2c0 1.886 0 2.828.586 3.414s1.528.586 3.414.586h2" stroke="#fff" stroke-width="2"/></svg>