<svg fill="none" height="24" width="24" xmlns="http://www.w3.org/2000/svg"><path d="m17.676 6.308-.67.744zm1.151 1.269.913-.407zm-4.878-4.444-.358.933zm4.465 17.281-.707-.707zm-12.828 0 .707-.707zm.414-3.414v-10h-2v10zm9 3h-6v2h6zm-6-16h3.465v-2h-3.465zm9 5.281v7.719h2v-7.719zm-3.528-4.51 2.535 2.28 1.338-1.486-2.535-2.281-1.338 1.486zm5.528 4.509c0-.789.02-1.483-.26-2.11l-1.826.813c.066.149.086.332.086 1.297zm-2.993-2.23c.718.647.84.784.906.933l1.828-.814c-.28-.628-.81-1.077-1.396-1.605l-1.338 1.487zm-4.542-3.05c.834 0 .993.015 1.126.066l.716-1.867c-.559-.214-1.157-.199-1.842-.199zm3.345-.716c-.508-.458-.944-.87-1.503-1.085l-.716 1.867c.133.051.261.146.881.704zm-.81 18.716c.915 0 1.701.002 2.328-.082.655-.088 1.284-.287 1.793-.797l-1.414-1.414c-.076.076-.212.17-.646.229-.462.062-1.09.064-2.061.064zm3-5c0 .971-.002 1.599-.064 2.061-.059.434-.153.57-.229.646l1.414 1.414c.51-.51.709-1.138.797-1.793.084-.628.082-1.413.082-2.328zm-14 0c0 .915-.002 1.701.082 2.328.088.655.287 1.284.797 1.793l1.414-1.414c-.076-.076-.17-.212-.229-.646-.062-.461-.064-1.09-.064-2.061zm5 3c-.971 0-1.599-.002-2.061-.064-.434-.059-.57-.153-.646-.229l-1.414 1.414c.51.51 1.138.709 1.793.797.628.084 1.413.082 2.328.082zm-3-13c0-.971.002-1.599.064-2.061.059-.434.153-.57.229-.646l-1.414-1.414c-.51.51-.709 1.138-.797 1.793-.084.628-.082 1.413-.082 2.328zm3-5c-.915 0-1.701-.002-2.328.082-.655.088-1.284.287-1.793.797l1.414 1.414c.076-.076.212-.17.646-.229.461-.062 1.09-.064 2.061-.064z" fill="currentColor"/><path d="m13 3v2c0 1.886 0 2.828.586 3.414s1.528.586 3.414.586h2" stroke="currentColor" stroke-width="2"/><path d="m10 12.75a.75.75 0 0 0 0-1.5zm0 6a.75.75 0 0 0 0-1.5zm4-7.5a.75.75 0 0 0 0 1.5zm0 6a.75.75 0 0 0 0 1.5zm1.146-1.396-.53-.53zm.5-1.208.53-.53zm0 .708-.53-.53zm-.5-1.208-.53.53zm-6.292 1.708.53-.53zm-.5-.5-.53.53zm.5-1.208-.53-.53zm1.146-2.896h-.5v1.5h.5zm-1.75 1.25v1.293h1.5v-1.293zm.073 1.116-.5.5 1.06 1.06.5-.5zm-.5 2.268.5.5 1.06-1.06-.5-.5zm.427.323v1.293h1.5v-1.293zm1.25 2.543h.5v-1.5h-.5zm4.5-6h.5v-1.5h-.5zm.25-.25v1.293h1.5v-1.293zm.366 2.177.5.5 1.06-1.06-.5-.5zm.5.146-.5.5 1.06 1.06.5-.5zm-.866 1.384v1.293h1.5v-1.293zm.25 1.043h-.5v1.5h.5zm.116-1.927a1.25 1.25 0 0 0 -.366.884h1.5a.25.25 0 0 1 -.073.177l-1.06-1.06zm.5-.146a.25.25 0 0 1 0-.354l1.06 1.06a1.25 1.25 0 0 0 0-1.767l-1.06 1.06zm-.866-1.384c0 .331.132.65.366.884l1.06-1.06a.25.25 0 0 1 .074.176zm.25-1.043a.25.25 0 0 1 -.25-.25h1.5c0-.69-.56-1.25-1.25-1.25zm-6.25 4.75c0 .69.56 1.25 1.25 1.25v-1.5a.25.25 0 0 1 .25.25zm.073-1.116a.25.25 0 0 1 -.073-.177h1.5c0-.331-.132-.65-.366-.884l-1.06 1.06zm-.5-2.268a1.25 1.25 0 0 0 0 1.768l1.06-1.06a.25.25 0 0 1 0 .353l-1.06-1.06zm.427-.323a.25.25 0 0 1 .073-.177l1.06 1.06a1.25 1.25 0 0 0 .367-.883zm6 3.707a.25.25 0 0 1 .25-.25v1.5c.69 0 1.25-.56 1.25-1.25zm-4.75-6.25c-.69 0-1.25.56-1.25 1.25h1.5a.25.25 0 0 1 -.25.25z" fill="currentColor"/></svg>