<svg fill="none" height="24" width="24" xmlns="http://www.w3.org/2000/svg"><path d="m15.323 10.623-.726-.688zm0 2.754-.726.688zm2.111 1.118.07-.997zm-.8-.23.47-.882-.47.883zm1.083-4.765v-1zm-.283.005.07.997zm-.8.23-.469-.884.47.883zm2.756-.197.195-.98zm-.89-1.038h-.783v2h.783zm-.783 7h.783v-2h-.783zm-1.855-6.468c-.533.333-.978.601-1.265.903l1.451 1.377c.064-.068.215-.172.874-.584zm1.06 4.24c-.66-.412-.81-.516-.874-.584l-1.45 1.377c.286.302.731.57 1.264.903zm-2.325-3.337a3 3 0 0 0 0 4.13l1.451-1.377a1 1 0 0 1 0-1.376l-1.45-1.377zm5.403 2.065c0 .513-.005.623-.02.695l1.962.39c.063-.314.058-.668.058-1.085zm-1.5 3.5c.417 0 .771.005 1.085-.058l-.39-1.961c-.072.014-.182.019-.695.019zm1.48-2.805a1 1 0 0 1 -.785.786l.39 1.961a3 3 0 0 0 2.357-2.357l-1.961-.39zm-2.263.805c-.156 0-.186 0-.213-.002l-.14 1.995c.113.008.224.007.353.007zm-1.855 1.468c.11.068.203.128.303.18l.939-1.765a3.605 3.605 0 0 1 -.182-.111zm1.642-1.47a1.001 1.001 0 0 1 -.4-.115l-.939 1.766c.371.197.78.314 1.2.344zm.213-4.998c-.129 0-.24 0-.353.007l.14 1.995c.027-.001.057-.002.213-.002zm-.795 2.228c.132-.082.158-.098.182-.11l-.939-1.767c-.1.053-.194.113-.303.181zm.442-2.22a3 3 0 0 0 -1.199.343l.939 1.766c.124-.066.26-.105.4-.115l-.14-1.995zm4.636 3.492c0-.417.005-.771-.058-1.085l-1.961.39c.014.072.019.182.019.695zm-3.5-1.5c.513 0 .623.005.695.02l.39-1.962c-.314-.063-.668-.058-1.085-.058zm3.442.415a3 3 0 0 0 -2.357-2.357l-.39 1.961a1 1 0 0 1 .786.786zm-11.319-2.238-.688.726zm2.754 0 .688.726zm-.487-5.639.195-.98zm1.376 4.328.883.469-.883-.47zm-4.766-1.084h1zm.005.283.997-.07zm.23.8.882-.47-.883.47zm1.375-4.328-.195-.98zm-1.61 2.463h-1zm.038-.89-.98-.195zm-1.038.89v.783h2v-.783zm7 .783v-.783h-2v.783zm-6.468 1.855c.333.533.601.978.903 1.265l1.377-1.451c-.068-.064-.172-.215-.584-.874zm4.24-1.06c-.412.66-.516.81-.584.874l1.377 1.45c.302-.286.57-.731.903-1.264zm-3.337 2.325a3 3 0 0 0 4.13 0l-1.377-1.451a1 1 0 0 1 -1.376 0l-1.377 1.45zm2.065-5.403c.513 0 .623.005.695.02l.39-1.962c-.314-.063-.668-.058-1.085-.058zm3.5 1.5c0-.417.005-.771-.058-1.085l-1.961.39c.014.072.019.182.019.695zm-2.805-1.48a1 1 0 0 1 .786.785l1.961-.39a3 3 0 0 0 -2.357-2.357l-.39 1.961zm.805 2.263c0 .156 0 .186-.002.213l1.995.14c.008-.113.007-.224.007-.353zm1.468 1.855c.068-.11.128-.203.18-.303l-1.765-.939c-.013.024-.028.05-.111.182zm-1.47-1.642a1 1 0 0 1 -.115.4l1.766.939c.197-.371.314-.78.344-1.2zm-4.998-.213c0 .129 0 .24.007.353l1.995-.14a3.706 3.706 0 0 1 -.002-.213zm2.228.795a3.549 3.549 0 0 1 -.11-.182l-1.767.939c.053.1.113.194.181.303zm-2.22-.442a3 3 0 0 0 .343 1.199l1.766-.939a1 1 0 0 1 -.115-.4l-1.995.14zm3.492-4.636c-.417 0-.771-.005-1.085.058l.39 1.961c.072-.014.182-.019.695-.019zm-1.5 3.5c0-.513.005-.623.02-.695l-1.962-.39c-.063.314-.058.668-.058 1.085zm.415-3.442a3 3 0 0 0 -2.357 2.357l1.961.39a1 1 0 0 1 .786-.786zm-2.238 11.319.726.688zm0-2.754-.725.689zm-4.067-1.085-.195-.98zm2.755.196.47-.883zm-1.081 4.766v1zm.283-.005-.07-.997zm.8-.23-.47-.882.47.883zm-4.33-1.375-.98.195zm2.463 1.61v1zm0 1h.783v-2h-.783zm.783-7h-.783v2h.783zm1.855 6.468c.533-.333.978-.601 1.265-.903l-1.451-1.377c-.064.068-.215.172-.874.584zm-1.06-4.24c.66.412.81.516.874.584l1.45-1.377c-.286-.302-.731-.57-1.264-.903zm2.325 3.337a3 3 0 0 0 0-4.13l-1.451 1.377a1 1 0 0 1 0 1.376l1.45 1.377zm-5.403-2.065c0-.513.005-.623.02-.695l-1.962-.39c-.063.314-.058.668-.058 1.085zm1.5-3.5c-.417 0-.771-.005-1.085.058l.39 1.961c.072-.014.182-.019.695-.019zm-1.48 2.805a1 1 0 0 1 .785-.786l-.39-1.961a3 3 0 0 0 -2.357 2.357l1.961.39zm2.263-.805c.156 0 .186 0 .213.002l.14-1.995c-.113-.007-.224-.007-.353-.007zm1.855-1.468c-.11-.068-.203-.128-.303-.18l-.939 1.765c.024.013.05.028.182.111zm-1.642 1.47a1 1 0 0 1 .4.115l.939-1.766a3 3 0 0 0 -1.2-.344zm-.213 4.998c.129 0 .24 0 .353-.007l-.14-1.995a3.706 3.706 0 0 1 -.213.002zm.795-2.228a3.549 3.549 0 0 1 -.182.11l.939 1.767c.1-.053.194-.113.303-.181zm-.442 2.22c.42-.029.828-.146 1.199-.343l-.939-1.766a1 1 0 0 1 -.4.115l.14 1.995zm-4.636-3.492c0 .417-.005.771.058 1.085l1.961-.39c-.014-.072-.019-.182-.019-.695zm3.5 1.5c-.513 0-.623-.005-.695-.02l-.39 1.962c.314.063.668.058 1.085.058zm-3.442-.415a3 3 0 0 0 2.357 2.357l.39-1.961a1 1 0 0 1 -.786-.786zm11.319 2.238.688-.726zm-2.754 0-.688-.726zm-1.085 4.067-.98.195zm.196-2.756-.883-.469.883.47zm4.766 1.083h1zm-.005-.283-.997.07zm-.23-.8.884-.469-.883.47zm.197 2.756.98.195zm1.038-.89v-.783h-2v.783zm-7-.783v.783h2v-.783zm6.468-1.855c-.333-.533-.601-.978-.903-1.265l-1.377 1.451c.068.064.172.215.584.874zm-4.24 1.06c.412-.66.516-.81.584-.874l-1.377-1.45c-.302.286-.57.731-.903 1.264zm3.337-2.325a3 3 0 0 0 -4.13 0l1.377 1.451a1 1 0 0 1 1.376 0l1.377-1.45zm-2.065 5.403c-.513 0-.623-.005-.695-.02l-.39 1.962c.314.063.668.058 1.085.058zm-3.5-1.5c0 .417-.005.771.058 1.085l1.961-.39c-.014-.072-.019-.182-.019-.695zm2.805 1.48a1 1 0 0 1 -.786-.785l-1.961.39a3 3 0 0 0 2.357 2.357l.39-1.961zm-.805-2.263c0-.156 0-.186.002-.213l-1.995-.14c-.008.113-.007.224-.007.353zm-1.468-1.855c-.068.11-.128.203-.18.303l1.765.939c.013-.024.028-.05.111-.182zm1.47 1.642c.01-.14.05-.276.115-.4l-1.766-.939a3 3 0 0 0 -.344 1.2zm4.998.213c0-.129 0-.24-.007-.353l-1.995.14c.001.027.002.057.002.213zm-2.228-.795c.082.132.098.158.11.182l1.767-.939c-.053-.1-.113-.194-.181-.303zm2.22.442a2.998 2.998 0 0 0 -.343-1.199l-1.766.939c.066.124.105.26.115.4l1.995-.14zm-3.492 4.636c.417 0 .771.005 1.085-.058l-.39-1.961c-.072.014-.182.019-.695.019zm1.5-3.5c0 .513-.005.623-.02.695l1.962.39c.063-.314.058-.668.058-1.085zm-.415 3.442a3 3 0 0 0 2.357-2.357l-1.961-.39a1 1 0 0 1 -.786.786z" fill="#fff"/></svg>