<svg fill="none" height="24" width="24" xmlns="http://www.w3.org/2000/svg"><g stroke="currentColor" stroke-width="2"><path d="m3 8c0-1.886 0-2.828.586-3.414s1.528-.586 3.414-.586h10c1.886 0 2.828 0 3.414.586s.586 1.528.586 3.414v8c0 1.886 0 2.828-.586 3.414s-1.528.586-3.414.586h-10c-1.886 0-2.828 0-3.414-.586s-.586-1.528-.586-3.414z" stroke-linecap="round" stroke-linejoin="round"/><path d="m7 4v5.5m0 10.5v-8m10-8v5.5m0 10.5v-5.5m-14-5h4m0 0v2.5m0 0h10m-14 2.5h4m10 0h4m-4 0v-5m0 0h4"/></g></svg>
