<svg fill="none" height="24" width="24" xmlns="http://www.w3.org/2000/svg"><path d="m21 12v-1c0-1.886 0-2.828-.586-3.414s-1.528-.586-3.414-.586c-.981 0-1.472 0-1.894-.211-.423-.211-.717-.604-1.306-1.389l-.6-.8c-.589-.785-.883-1.178-1.306-1.389-.422-.211-.913-.211-1.894-.211h-3c-1.886 0-2.828 0-3.414.586s-.586 1.528-.586 3.414v10c0 1.886 0 2.828.586 3.414s1.528.586 3.414.586h5" stroke="#fff" stroke-linecap="round" stroke-width="2"/><path d="m18.5 21a1 1 0 1 1 -2 0 1 1 0 0 1 2 0z" fill="#fff"/><g stroke="#fff" stroke-width="2"><path d="m17.5 13v4.5" stroke-linecap="round"/><path d="m18 7h-16"/></g></svg>