<svg width="24" height="24" fill="none" xmlns="http://www.w3.org/2000/svg"><path d="M3 3v14c0 1.886 0 2.828.586 3.414C4.172 21 5.114 21 7 21h14M6.5 17l.498-1.329c.29-.77.434-1.155.653-1.328a1 1 0 0 1 1.021-.13c.256.113.492.45.964 1.124.528.754.792 1.131 1.064 1.243a1 1 0 0 0 1.056-.19c.216-.2.332-.645.564-1.535l1.244-4.768c.264-1.01.396-1.516.633-1.72a1 1 0 0 1 1.083-.144c.282.135.54.589 1.06 1.495.595 1.043.893 1.564 1.192 1.697a1 1 0 0 0 1.116-.209c.23-.232.32-.826.498-2.013L20 3.5" stroke="currentColor" stroke-width="2" stroke-linecap="round" stroke-linejoin="round"/></svg>