<svg fill="none" height="24" width="24" xmlns="http://www.w3.org/2000/svg"><g fill="currentColor"><path d="m21.692 12.723c.39-.39.397-1.03.015-1.43a.974.974 0 0 0 -1.399-.016zm-6.884 4.054c-.39.39-.397 1.03-.015 1.43a.974.974 0 0 0 1.399.016zm1.384 1.446 5.5-5.5-1.384-1.446-5.5 5.5z"/><path d="m14 19.95c0 .792-1.454 1.268-3.878.95-.532-.069.84-.316.97-.95.128-.633.408-.95 1.211-.95s1.697.425 1.697.95z" stroke="currentColor"/><path d="m7.5 18a1 1 0 1 0 0-2zm8.5-9a1 1 0 1 0 2 0zm-12.414 7.414.707-.707zm12.828-11.828.707-.707zm-9.414.414h6v-2h-6zm-3 8v-5h-2v5zm3.5 3h-.5v2h.5zm8.5-8v1h2v-1zm-14 5c0 .915-.002 1.701.082 2.328.088.655.287 1.284.797 1.793l1.414-1.414c-.076-.076-.17-.212-.229-.646-.062-.461-.064-1.09-.064-2.061zm5 3c-.971 0-1.599-.002-2.061-.064-.434-.059-.57-.153-.646-.229l-1.414 1.414c.51.51 1.138.709 1.793.797.628.084 1.413.082 2.328.082zm6-11c.971 0 1.599.002 2.061.064.434.059.57.153.646.229l1.414-1.414c-.51-.51-1.138-.709-1.793-.797-.628-.084-1.413-.082-2.328-.082zm5 3c0-.915.002-1.701-.082-2.328-.088-.655-.287-1.284-.797-1.793l-1.414 1.414c.076.076.17.212.229.646.062.461.064 1.09.064 2.061zm-11-5c-.915 0-1.701-.002-2.328.082-.655.088-1.284.287-1.793.797l1.414 1.414c.076-.076.212-.17.646-.229.461-.062 1.09-.064 2.061-.064zm-3 5c0-.971.002-1.599.064-2.061.059-.434.153-.57.229-.646l-1.414-1.414c-.51.51-.709 1.138-.797 1.793-.084.628-.082 1.413-.082 2.328z"/></g><path d="m10 13-2.036-1.842c-.692-.626-1.038-.939-1.466-.938-.427 0-.773.313-1.464.938l-2.034 1.842m14-4-2.67-1.335c-.642-.32-.963-.481-1.298-.441-.336.04-.602.27-1.133.73l-3.526 3.054" stroke="currentColor" stroke-linecap="round" stroke-linejoin="round" stroke-width="2"/></svg>
