<svg fill="none" height="24" width="24" xmlns="http://www.w3.org/2000/svg"><g fill="#fff"><path d="m20.414 20.414-.707-.707zm-16.828 0-.707.707zm16.828-16.828.707-.707zm-13.414.414h10v-2h-10zm-3 13v-10h-2v10zm13 3h-10v2h10zm3-13v10h2v-10zm-3 15c.915 0 1.701.002 2.328-.082.655-.088 1.284-.287 1.793-.797l-1.414-1.414c-.076.076-.212.17-.646.229-.462.062-1.09.064-2.061.064zm3-5c0 .971-.002 1.599-.064 2.061-.059.434-.153.57-.229.646l1.414 1.414c.51-.51.709-1.138.797-1.793.084-.628.082-1.413.082-2.328zm-18 0c0 .915-.002 1.701.082 2.328.088.655.287 1.284.797 1.793l1.414-1.414c-.076-.076-.17-.212-.229-.646-.062-.461-.064-1.09-.064-2.061zm5 3c-.971 0-1.599-.002-2.061-.064-.434-.059-.57-.153-.646-.229l-1.414 1.414c.51.51 1.138.709 1.793.797.628.084 1.413.082 2.328.082zm10-16c.971 0 1.599.002 2.061.064.434.059.57.153.646.229l1.414-1.414c-.51-.51-1.138-.709-1.793-.797-.628-.084-1.413-.082-2.328-.082zm5 3c0-.915.002-1.701-.082-2.328-.088-.655-.287-1.284-.797-1.793l-1.414 1.414c.076.076.17.212.229.646.062.461.064 1.09.064 2.061zm-15-5c-.915 0-1.701-.002-2.328.082-.655.088-1.284.287-1.793.797l1.414 1.414c.076-.076.212-.17.646-.229.461-.062 1.09-.064 2.061-.064zm-3 5c0-.971.002-1.599.064-2.061.059-.434.153-.57.229-.646l-1.414-1.414c-.51.51-.709 1.138-.797 1.793-.084.628-.082 1.413-.082 2.328z"/><path d="m12.5 3a.5.5 0 0 0 -1 0zm-1 18a.5.5 0 0 0 1 0zm-3.5-18a.5.5 0 0 0 -1 0zm-1 18a.5.5 0 0 0 1 0zm10-18a.5.5 0 0 0 -1 0zm-1 18a.5.5 0 0 0 1 0zm5-8.5a.5.5 0 0 0 0-1zm-18-1a.5.5 0 0 0 0 1zm18-3.05a.5.5 0 0 0 0-1zm-18-1a.5.5 0 0 0 0 1zm18 9.1a.5.5 0 0 0 0-1zm-18-1a.5.5 0 0 0 0 1zm8.5-12.55v18h1v-18zm-4.5 0v18h1v-18zm9 0v18h1v-18zm5 8.5h-18v1h18zm0-4.05h-18v1h18zm0 8.1h-18v1h18z"/></g></svg>