<svg fill="none" height="24" width="24" xmlns="http://www.w3.org/2000/svg"><path d="m5.84 15.91-.945.323a1 1 0 0 0 1.92-.095l-.974-.229zm2.562-10.91.986-.168a1 1 0 0 0 -1.96-.06zm2.56 15-.985.168a1 1 0 0 0 1.945.114zm3.201-10.91.955-.298a1 1 0 0 0 -1.914.017l.96.282zm2.56 8.183-.954.298a1 1 0 0 0 1.894.044zm4.277-4.273a1 1 0 1 0 0-2zm-18-2a1 1 0 1 0 0 2zm1.963 2.351-.946.325zm-.596-1.165-.581.814zm14.403-.005.573.819-.573-.82zm-11.956 3.957 2.56-10.91-1.946-.457-2.56 10.91zm.601-10.97 2.56 15 1.972-.336-2.56-15zm4.506 15.114 3.2-10.91-1.918-.563-3.2 10.91zm1.287-10.892 2.56 8.181 1.909-.597-2.56-8.182-1.91.598zm4.454 8.225 1.442-3.957-1.88-.685-1.441 3.957 1.88.685zm2.381-4.615h.957v-2h-.957zm-13.256 2.585-.878-2.558-1.892.649.878 2.557zm-3.715-4.585h-.072v2h.072zm2.837 2.027c-.104-.305-.208-.613-.327-.862a1.978 1.978 0 0 0 -.634-.792l-1.162 1.627c-.058-.041-.058-.077-.01.023a7.2 7.2 0 0 1 .241.653l1.892-.65zm-2.837-.027c.367 0 .56.002.695.017.11.012.077.024.019-.017l1.162-1.627a1.977 1.977 0 0 0 -.955-.343c-.274-.031-.6-.03-.921-.03zm16.032.658c.123-.34.189-.516.248-.636.049-.097.048-.062-.009-.022l-1.147-1.638c-.315.22-.503.505-.635.77-.12.244-.229.545-.337.841zm.94-2.658c-.317 0-.636-.002-.906.029a1.978 1.978 0 0 0 -.942.333l1.147 1.638c-.057.04-.09.028.018.016.133-.014.321-.016.682-.016v-2z" fill="#fff"/></svg>