<svg fill="none" height="24" width="24" xmlns="http://www.w3.org/2000/svg"><path d="m16.546 3v-1c-.02 0-.041 0-.061.002l.06.998zm-2.608.835-.528-.849.528.85zm-6.484-.835.061-.998a1.001 1.001 0 0 0 -.06-.002v1zm-5.454 5.655h-1zm10 12.345-.57.821a1 1 0 0 0 1.136.003zm10-12.345h-1zm-9.983-2.857.859.513zm-.034 0-.859.513zm.017.02v-1zm4.485-3.816a6.58 6.58 0 0 0 -3.075.984l1.056 1.698a4.58 4.58 0 0 1 2.14-.686zm-3.075.984a6.829 6.829 0 0 0 -2.251 2.3l1.717 1.025c.4-.669.946-1.226 1.59-1.627zm-.569 2.3a6.829 6.829 0 0 0 -2.25-2.3l-1.058 1.698c.644.401 1.19.958 1.59 1.627l1.717-1.026zm-2.25-2.3a6.58 6.58 0 0 0 -3.076-.984l-.122 1.996a4.58 4.58 0 0 1 2.14.686l1.057-1.698zm-3.138-.986c-1.723 0-3.369.71-4.576 1.962l1.44 1.388a4.358 4.358 0 0 1 3.136-1.35zm-4.575 1.962a6.762 6.762 0 0 0 -1.878 4.693h2c0-1.246.478-2.434 1.317-3.305l-1.44-1.388zm-1.878 4.693c0 1.639.749 3.285 1.73 4.76.993 1.494 2.298 2.925 3.576 4.157a46.419 46.419 0 0 0 5.09 4.226l.024.017.007.004.002.002.571-.821.57-.821-.004-.004a3.82 3.82 0 0 1 -.098-.069 43.018 43.018 0 0 1 -1.413-1.063 44.396 44.396 0 0 1 -3.36-2.91c-1.223-1.18-2.418-2.498-3.3-3.825-.894-1.345-1.395-2.593-1.395-3.653zm11 12.345.567.824.002-.002.007-.005.024-.016.089-.062c.077-.055.188-.134.328-.236a45.462 45.462 0 0 0 4.676-3.902c1.278-1.229 2.585-2.658 3.578-4.156.982-1.481 1.729-3.135 1.729-4.79h-2c0 1.08-.503 2.338-1.396 3.685-.881 1.33-2.075 2.644-3.297 3.819a43.462 43.462 0 0 1 -4.771 3.945l-.079.055-.019.014-.004.002v.001zm11-12.345a6.762 6.762 0 0 0 -1.878-4.693l-1.44 1.388a4.762 4.762 0 0 1 1.318 3.305zm-1.878-4.693a6.358 6.358 0 0 0 -4.576-1.962v2c1.17 0 2.298.481 3.137 1.35l1.44-1.388zm-9.962 1.323c-.021.035.02-.037.074-.104a.99.99 0 0 1 .766-.363v2a1.01 1.01 0 0 0 .87-.497l.006-.01-1.717-1.026zm-.035 1.026.006.01a1.101 1.101 0 0 0 .087.124c.066.08.324.373.783.373v-2a.99.99 0 0 1 .767.363c.055.067.095.14.074.104z" fill="currentColor"/></svg>