<svg fill="none" height="24" width="24" xmlns="http://www.w3.org/2000/svg"><path d="m15.5 14.5s-3.679-.378-5.5-1c-2.455-.839-4-2-4-2" stroke="currentColor" stroke-width="2"/><path d="m4.207 5.793a1 1 0 0 0 -1.414 1.414zm-.914 1.914a1 1 0 0 0 1.414-1.414zm-1.293 2.293a1 1 0 1 0 0 2zm.5 2a1 1 0 1 0 0-2zm-.5 2.5a1 1 0 1 0 0 2zm.5 2a1 1 0 1 0 0-2zm2.207-10.207-.5-.5-1.414 1.414.5.5zm-2.207 3.707h-.5v2h.5zm0 4.5h-.5v2h.5z" fill="currentColor"/><path d="m21.042 14c-1.633.852-4.144.5-7 .5-1.633 0-3.552 4.278-6 3-2.449-1.278-2.542-1.092-2.542-4.5 0-4.235 3.042-7 7.542-7 3.909 0 6.795 3.296 7.5 5s2.132 2.148.5 3z" stroke="currentColor" stroke-width="2"/></svg>