<svg fill="none" height="24" width="24" xmlns="http://www.w3.org/2000/svg"><g stroke="#fff" stroke-width="2"><path d="m3 12.429c0-.4 0-.599.056-.76a1 1 0 0 1 .614-.613c.16-.056.36-.056.759-.056h10.141c.4 0 .599 0 .76.056a1 1 0 0 1 .613.614c.056.16.056.36.056.759v2.071c0 .464 0 .696-.013.892a6 6 0 0 1 -5.595 5.595c-.195.013-.427.013-.891.013s-.696 0-.892-.013a6 6 0 0 1 -5.595-5.595c-.013-.196-.013-.428-.013-.892z" stroke-linecap="round"/><path d="m12 11h5.222c1.534 0 2.778 1.25 2.778 2.908 0 1.657-1.244 3.092-2.778 3.092h-1.11"/><path d="m6.188 3-.106.212c-.254.506-.38.76-.364 1.028.017.269.174.505.488.976l.064.095c.266.4.4.6.43.829.031.23-.045.457-.197.913l-.316.947m8.125-5-.105.212c-.254.506-.38.76-.364 1.028.017.269.174.505.488.976l.064.095c.266.4.4.6.43.829.031.23-.045.457-.197.913l-.316.947" stroke-linecap="round"/></g></svg>