<svg fill="none" height="24" width="24" xmlns="http://www.w3.org/2000/svg"><path d="m12 11v-8m0 0 2.5 2m-2.5-2-2.5 2" stroke="currentColor" stroke-linecap="round" stroke-linejoin="round" stroke-width="2"/><path d="m3 14h4.546c.42 0 .63 0 .833.043.07.014.138.032.205.054.197.064.38.168.744.376 1.153.659 1.73.988 2.354 1.055.211.022.425.022.636 0 .625-.067 1.201-.396 2.354-1.055.364-.208.547-.312.744-.376.067-.022.136-.04.205-.054.203-.043.413-.043.832-.043h4.547v3c0 1.886 0 2.828-.586 3.414s-1.528.586-3.414.586h-10c-1.886 0-2.828 0-3.414-.586s-.586-1.528-.586-3.414z" stroke="currentColor" stroke-width="2"/><path d="m2 14a1 1 0 1 0 2 0zm18 0a1 1 0 1 0 2 0zm-3.5-8a1 1 0 1 0 0 2zm-9 2a1 1 0 0 0 0-2zm-4.385 3.304.943.334zm-.1.423-.992-.123zm17.891-.408.953-.302zm.082.384-.994.11zm-1.18-2.886.913-.406zm-.609-1.141-.75.662zm-.897-.583-.302.953.3-.953zm-13.27.533.727.687zm13.862 1.597.929 2.09 1.827-.813-.928-2.089zm-14.677 2.078 1.083-2.161-1.79-.895-1.08 2.163 1.788.894zm-2.217.921v1.778h2v-1.778zm18-.073v1.851h2v-1.85h-2zm-3.5-4.149h.511v-2h-.511zm-9.359 0h.359v-2h-.359zm-4.711 2.407c-.101.201-.19.375-.256.563l1.885.668c.015-.045.038-.093.16-.337l-1.79-.894zm1.57 1.815c0-.272.002-.325.008-.372l-1.985-.245c-.025.197-.023.392-.023.617zm-1.827-1.252a3 3 0 0 0 -.15.634l1.985.246a.999.999 0 0 1 .05-.212zm17.65.343c.099.224.117.268.13.309l1.906-.605c-.054-.171-.127-.331-.209-.516zm2.177.836c0-.202.001-.378-.018-.556l-1.988.22c.005.043.006.091.006.336zm-2.047-.527a1 1 0 0 1 .04.192l1.989-.221a3.005 3.005 0 0 0 -.123-.576zm.768-3.21c-.242-.547-.442-1.025-.773-1.398l-1.498 1.324c.077.088.147.217.444.885l1.828-.812zm-3.71-.412c.732 0 .878.011.99.046l.601-1.907c-.475-.15-.993-.139-1.59-.139v2zm2.937-.986a3 3 0 0 0 -1.346-.875l-.601 1.907a1 1 0 0 1 .449.292zm-14.65 2.125c.313-.624.384-.744.461-.826l-1.454-1.373c-.328.348-.54.794-.795 1.304l1.789.895zm1.844-3.139c-.57 0-1.064-.01-1.523.128l.579 1.915c.107-.033.246-.043.942-.043v-2zm-1.382 2.313a1 1 0 0 1 .438-.27l-.579-1.915a3 3 0 0 0 -1.313.812z" fill="currentColor"/></svg>
