<svg fill="none" height="24" width="24" xmlns="http://www.w3.org/2000/svg"><circle cx="12" cy="12" r="9" stroke="#fff" stroke-width="2"/><g fill="#fff"><path clip-rule="evenodd" d="m11.39 10.649a2.501 2.501 0 0 0 -.741.74l-2.963 4.58c-.146.226.12.492.346.345l4.579-2.963a2.5 2.5 0 0 0 .74-.74l2.963-4.58c.146-.226-.12-.491-.346-.345l-4.579 2.963zm-.39 2.351a1.414 1.414 0 1 0 2-2 1.414 1.414 0 0 0 -2 2z" fill-rule="evenodd"/><path d="m10.649 11.39-.42-.272.42.271zm.74-.741-.271-.42zm-3.703 5.32-.42-.272.42.271zm.346.345.271.42zm4.579-2.963-.272-.42.271.42zm.74-.74-.42-.272.42.271zm2.963-4.58-.42-.271.42.272zm-.346-.345-.271-.42zm-4.9 3.975a2 2 0 0 1 .593-.592l-.543-.84a3 3 0 0 0 -.889.889l.84.543zm-2.961 4.579 2.963-4.579-.84-.543-2.963 4.579zm-.346-.346c.226-.146.492.12.346.346l-.84-.543c-.439.678.359 1.476 1.037 1.037zm4.579-2.963-4.58 2.964.543.84 4.58-2.963-.544-.84zm.592-.592a2 2 0 0 1 -.592.592l.543.84a3 3 0 0 0 .89-.889l-.84-.543zm2.963-4.579-2.963 4.579.84.543 2.963-4.579zm.346.346c-.226.146-.492-.12-.346-.346l.84.543c.44-.679-.359-1.476-1.037-1.037zm-4.579 2.963 4.579-2.963-.543-.84-4.58 2.963zm.985 1.577a.914.914 0 0 1 -1.292 0l-.707.708c.747.747 1.959.747 2.707 0l-.708-.707zm0-1.292a.914.914 0 0 1 0 1.293l.707.707a1.914 1.914 0 0 0 0-2.707zm-1.292 0a.914.914 0 0 1 1.292 0l.707-.707a1.914 1.914 0 0 0 -2.707 0zm0 1.293a.914.914 0 0 1 0-1.293l-.707-.707a1.914 1.914 0 0 0 0 2.707z"/></g></svg>