<svg fill="none" height="24" width="24" xmlns="http://www.w3.org/2000/svg"><path d="m6.586 20.414.707-.707zm10.828 0 .707.707zm0-16.828.707-.707zm-.414 3.414v10h2v-10zm-3 13h-4v2h4zm-7-3v-10h-2v10zm3-13h4v-2h-4zm0 16c-.971 0-1.599-.002-2.061-.064-.434-.059-.57-.153-.646-.229l-1.414 1.414c.51.51 1.138.709 1.793.797.628.084 1.413.082 2.328.082zm-5-3c0 .915-.002 1.701.082 2.328.088.655.287 1.284.797 1.793l1.414-1.414c-.076-.076-.17-.212-.229-.646-.062-.461-.064-1.09-.064-2.061zm12 0c0 .971-.002 1.599-.064 2.061-.059.434-.153.57-.229.646l1.414 1.414c.51-.51.709-1.138.797-1.793.084-.628.082-1.413.082-2.328zm-3 5c.915 0 1.701.002 2.328-.082.655-.088 1.284-.287 1.793-.797l-1.414-1.414c-.076.076-.212.17-.646.229-.462.062-1.09.064-2.061.064zm5-15c0-.915.002-1.701-.082-2.328-.088-.655-.287-1.284-.797-1.793l-1.414 1.414c.076.076.17.212.229.646.062.461.064 1.09.064 2.061zm-5-3c.971 0 1.599.002 2.061.064.434.059.57.153.646.229l1.414-1.414c-.51-.51-1.138-.709-1.793-.797-.628-.084-1.413-.082-2.328-.082zm-7 3c0-.971.002-1.599.064-2.061.059-.434.153-.57.229-.646l-1.414-1.414c-.51.51-.709 1.138-.797 1.793-.084.628-.082 1.413-.082 2.328zm3-5c-.915 0-1.701-.002-2.328.082-.655.088-1.284.287-1.793.797l1.414 1.414c.076-.076.212-.17.646-.229.461-.062 1.09-.064 2.061-.064z" fill="#fff"/><path d="m10 5h4a1 1 0 1 0 0-2h-4a1 1 0 1 0 0 2z" fill="#fff"/><path d="m9 18h6" stroke="#fff" stroke-linecap="round"/></svg>