<svg fill="none" height="24" width="24" xmlns="http://www.w3.org/2000/svg" xmlns:xlink="http://www.w3.org/1999/xlink"><clipPath id="a"><path d="m0 0h24v24h-24z"/></clipPath><g clip-path="url(#a)" stroke="#fff" stroke-width="2"><path d="m3 21h17.5" stroke-linecap="round"/><path d="m18.376 15.715-12.953-4.479c-.985-.34-1.477-.51-1.81-.854a2 2 0 0 1 -.367-.53c-.206-.43-.194-.951-.17-1.993l.004-.152c.052-2.211.078-3.317.49-3.607a1 1 0 0 1 .744-.168c.497.085.996 1.072 1.993 3.046.134.265.2.398.3.503a1 1 0 0 0 .182.153c.12.078.262.121.547.207l.832.252c.765.23 1.148.346 1.451.243a1 1 0 0 0 .467-.332c.197-.252.214-.651.248-1.45.082-1.919.122-2.878.5-3.162a1 1 0 0 1 .78-.186c.465.085.933.923 1.868 2.601l1.905 3.417c.304.544.456.817.679 1.027.223.211.503.348 1.064.62l2.708 1.32a1.911 1.911 0 0 1 -1.462 3.524z"/></g></svg>