<svg fill="none" height="24" width="24" xmlns="http://www.w3.org/2000/svg"><path d="m9.3 9a1 1 0 0 0 0-2zm0 8a1 1 0 1 0 0-2zm5.4-2a1 1 0 1 0 0 2zm0-8a1 1 0 1 0 0 2zm-7.7 2h2.3v-2h-2.3zm2.3 6h-2.3v2h2.3zm7.7 0h-2.3v2h2.3zm-2.3-6h2.3v-2h-2.3zm-12.7 3a5 5 0 0 0 5 5v-2a3 3 0 0 1 -3-3zm18 0a3 3 0 0 1 -3 3v2a5 5 0 0 0 5-5zm2 0a5 5 0 0 0 -5-5v2a3 3 0 0 1 3 3zm-18 0a3 3 0 0 1 3-3v-2a5 5 0 0 0 -5 5z" fill="currentColor"/><path d="m15 12h-6" stroke="currentColor" stroke-linecap="round" stroke-width="2"/></svg>
