<svg fill="none" height="24" width="24" xmlns="http://www.w3.org/2000/svg"><g fill="#fff"><path d="m19.414 20.414.707.707zm-14.828 0-.707.707zm14.828-9.828.707-.707zm-11.414.414h8v-2h-8zm-3 6v-3h-2v3zm11 3h-8v2h8zm3-6v3h2v-3zm-3 8c.915 0 1.701.002 2.328-.082.655-.088 1.284-.287 1.793-.797l-1.414-1.414c-.076.076-.212.17-.646.229-.462.062-1.09.064-2.061.064zm3-5c0 .971-.002 1.599-.064 2.061-.059.434-.153.57-.229.646l1.414 1.414c.51-.51.709-1.138.797-1.793.084-.628.082-1.413.082-2.328zm-16 0c0 .915-.002 1.701.082 2.328.088.655.287 1.284.797 1.793l1.414-1.414c-.076-.076-.17-.212-.229-.646-.062-.461-.064-1.09-.064-2.061zm5 3c-.971 0-1.599-.002-2.061-.064-.434-.059-.57-.153-.646-.229l-1.414 1.414c.51.51 1.138.709 1.793.797.628.084 1.413.082 2.328.082zm8-9c.971 0 1.599.002 2.061.064.434.059.57.153.646.229l1.414-1.414c-.51-.51-1.138-.709-1.793-.797-.628-.084-1.413-.082-2.328-.082zm5 3c0-.915.002-1.701-.082-2.328-.088-.655-.287-1.284-.797-1.793l-1.414 1.414c.076.076.17.212.229.646.062.462.064 1.09.064 2.061zm-13-5c-.915 0-1.701-.002-2.328.082-.655.088-1.284.287-1.793.797l1.414 1.414c.076-.076.212-.17.646-.229.461-.062 1.09-.064 2.061-.064zm-3 5c0-.971.002-1.599.064-2.061.059-.434.153-.57.229-.646l-1.414-1.414c-.51.51-.709 1.138-.797 1.793-.084.628-.082 1.413-.082 2.328z"/><path d="m16 6h-1zm-8 4h1v-.001-.003-.013-.051-.198-.734-2.5h-2v3.5zm1-3.5c0-1.174.447-1.718.942-2.026.572-.354 1.351-.474 2.058-.474v-2c-.856 0-2.077.131-3.114.776-1.114.692-1.886 1.898-1.886 3.724zm3-2.5c.706 0 1.514.118 2.108.441.524.285.892.72.892 1.559h2c0-1.66-.85-2.726-1.937-3.316-1.013-.552-2.207-.684-3.063-.684zm3 2v4h2v-4z"/></g></svg>