<svg fill="none" height="24" width="24" xmlns="http://www.w3.org/2000/svg"><g stroke="currentColor"><path d="m4.5 7c0-1.886 0-2.828.586-3.414s1.528-.586 3.414-.586h7c1.886 0 2.828 0 3.414.586s.586 1.528.586 3.414v7c0 1.886 0 2.828-.586 3.414s-1.528.586-3.414.586h-7c-1.886 0-2.828 0-3.414-.586s-.586-1.528-.586-3.414z" stroke-width="2"/><path d="m8 7.5c0-.471 0-.707.146-.854.147-.146.384-.146.854-.146h6c.471 0 .707 0 .854.146.146.147.146.383.146.854v2.5c0 .471 0 .707-.146.854-.147.146-.384.146-.854.146h-6c-.471 0-.707 0-.854-.146-.146-.147-.146-.384-.146-.854z" fill="currentColor" stroke-width="2"/><path d="m6 18h12c0 .932 0 1.398-.152 1.765a2 2 0 0 1 -1.083 1.083c-.367.152-.833.152-1.765.152h-6c-.932 0-1.398 0-1.765-.152a2 2 0 0 1 -1.083-1.083c-.152-.367-.152-.833-.152-1.765z" stroke-width="2"/></g><path d="m9 14.5a1 1 0 1 1 -2 0 1 1 0 0 1 2 0z" fill="currentColor"/><path d="m13 14.5h3.5" stroke="currentColor" stroke-linecap="round" stroke-linejoin="round"/></svg>
