<svg fill="none" height="24" width="24" xmlns="http://www.w3.org/2000/svg"><path d="m20.22 12.683.733.68zm-8.903-8.903.68.733zm-.217-.736-.099-.995zm.954.148.564.826zm8.754 8.754-.826-.564zm-.826-.564c-.15.22-.315.427-.495.621l1.466 1.36a7.33 7.33 0 0 0 .681-.854zm-.495.621a5.283 5.283 0 0 1 -3.887 1.697v2c2.115 0 4.021-.9 5.353-2.337zm-3.887 1.697a5.3 5.3 0 0 1 -5.3-5.3h-2a7.3 7.3 0 0 0 7.3 7.3zm-5.3-5.3c0-1.536.652-2.918 1.697-3.887l-1.36-1.466a7.283 7.283 0 0 0 -2.337 5.353zm1.697-3.887c.194-.18.402-.346.62-.495l-1.126-1.652a7.334 7.334 0 0 0 -.854.68zm-.798-.473c.263-.027.53-.04.801-.04v-2c-.337 0-.67.017-.999.05zm-7.199 7.96a8.001 8.001 0 0 1 7.199-7.96l-.199-1.99c-5.053.5-9 4.763-9 9.95zm8 8a8 8 0 0 1 -8-8h-2c0 5.523 4.477 10 10 10zm8-8a8 8 0 0 1 -8 8v2c5.523 0 10-4.477 10-10zm-7.382-7.982a1.106 1.106 0 0 0 -.618-2.018v2a.895.895 0 1 1 -.51-1.634zm9.016 8.491a.894.894 0 0 1 -1.634-.509h2a1.106 1.106 0 1 0 -2.018-.618z" fill="currentColor"/></svg>
