<svg fill="none" height="24" width="24" xmlns="http://www.w3.org/2000/svg"><g stroke="currentColor" stroke-linecap="round" stroke-linejoin="round" stroke-width="2"><path d="m12 21c-1.886 0-2.828 0-3.414-.586s-.586-1.528-.586-3.414v-4c0-1.886 0-2.828.586-3.414s1.528-.586 3.414-.586 2.828 0 3.414.586.586 1.528.586 3.414v4c0 1.886 0 2.828-.586 3.414s-1.528.586-3.414.586z"/><path d="m12 11.5v-3.192c0-.686 0-1.029.063-1.274a2 2 0 0 1 2.24-1.478c.252.039.567.174 1.197.444s.945.405 1.196.444a2 2 0 0 0 2.24-1.478c.064-.245.064-.588.064-1.274v-.692"/></g></svg>
