<svg fill="none" height="24" width="24" xmlns="http://www.w3.org/2000/svg"><g stroke="currentColor" stroke-linecap="round" stroke-width="2"><path d="m6.5 15.536v-8.536c0-1.886 0-2.828.586-3.414s1.528-.586 3.414-.586h6.5c1.886 0 2.828 0 3.414.586s.586 1.528.586 3.414v10c0 1.886 0 2.828-.586 3.414s-1.528.586-3.414.586h-10c-1.886 0-2.828 0-3.414-.586s-.586-1.528-.586-3.414v-8.6m13.5 6.1h-6m6 3h-6"/><path d="m10 8.5c0-.943 0-1.414.293-1.707s.764-.293 1.707-.293h3c.943 0 1.414 0 1.707.293s.293.764.293 1.707v.5c0 .943 0 1.414-.293 1.707s-.764.293-1.707.293h-3c-.943 0-1.414 0-1.707-.293s-.293-.764-.293-1.707z"/></g></svg>
