<svg fill="none" height="24" width="24" xmlns="http://www.w3.org/2000/svg"><path d="m14.48 15.456-.733-.68zm-5.935-5.936-.68-.733zm-.145-.49-.099-.995zm.636.098.564.826zm5.836 5.836.826.563zm-.826-.564a3.23 3.23 0 0 1 -.3.375l1.467 1.36c.176-.19.339-.393.485-.608zm-.3.375a3.188 3.188 0 0 1 -2.346 1.025v2a5.189 5.189 0 0 0 3.813-1.665l-1.466-1.36zm-2.346 1.025a3.2 3.2 0 0 1 -3.2-3.2h-2a5.2 5.2 0 0 0 5.2 5.2zm-3.2-3.2c0-.927.393-1.761 1.025-2.347l-1.36-1.466a5.189 5.189 0 0 0 -1.665 3.813zm1.025-2.347c.117-.109.242-.209.375-.3l-1.127-1.65a5.22 5.22 0 0 0 -.609.485l1.36 1.466zm-.726-.228c.164-.017.331-.025.501-.025v-2a7.07 7.07 0 0 0 -.699.035zm-4.499 4.975a5 5 0 0 1 4.499-4.975l-.199-1.99a7 7 0 0 0 -6.3 6.965zm5 5a5 5 0 0 1 -5-5h-2a7 7 0 0 0 7 7zm5-5a5 5 0 0 1 -5 5v2a7 7 0 0 0 7-7zm-4.4-5.046a1.07 1.07 0 0 0 -.6-1.954v2a.93.93 0 1 1 -.527-1.698zm6.098 5.573a.93.93 0 0 1 -1.698-.527h2a1.07 1.07 0 1 0 -1.954-.6z" fill="currentColor"/><path d="m19 7.5v4m-2-2h4m-9-6.5v1.5m0 0v1.5m0-1.5h-1.5m1.5 0h1.5" stroke="currentColor" stroke-linecap="round" stroke-linejoin="round" stroke-width="2"/></svg>
