<svg fill="none" height="24" width="24" xmlns="http://www.w3.org/2000/svg"><path d="m1.83 8.257a1 1 0 1 0 1.34 1.486zm2.803-1.177h1a1 1 0 0 0 -1.67-.743zm-1.633 7.42a1 1 0 1 0 0 2zm3.263 2a1 1 0 0 0 0-2zm7.237 0a1 1 0 0 0 0-2zm-4.5-1-.715-.699a1 1 0 0 0 .715 1.7v-1zm3.421-3.5.715.7.01-.01.009-.01zm-4.29-3.996a1 1 0 0 0 1.737.992l-1.736-.992zm7.715-.76a1 1 0 1 0 1.308 1.513l-1.308-1.514zm5.154 1.834h-1zm-3.447 2.105-.121-.992a1 1 0 0 0 .068 1.99zm-.185 2.662a1 1 0 0 0 -1.736.993zm-14.198-4.102 2.132-1.921-1.339-1.486-2.131 1.921zm.463-2.664v8.422h2v-.02-.02-.019-.019-.019-.019-.019-.02-.018-.019-.019-.019-.019-.019-.018-.02-.018-.019-.018-.019-.019-.018-.019-.018-.019-.018-.019-.018-.018-.019-.018-.018-.019-.018-.018-.018-.018-.018-.019-.018-.018-.018-.018-.018-.018-.017-.018-.018-.018-.018-.018-.017-.018-.018-.017-.018-.018-.017-.018-.017-.018-.017-.018-.017-.018-.017-.017-.018-.017-.017-.017-.018-.017-.017-.017-.017-.018-.017-.017-.017-.017-.017-.017-.017-.017-.017-.016-.017-.017-.017-.017-.017-.016-.017-.017-.017-.016-.017-.016-.017-.017-.016-.017-.016-.017-.016-.017-.016-.017-.016-.017-.016-.016-.017-.016-.016-.017-.016-.016-.016-.017-.016-.016-.016-.016-.016-.017-.016-.016-.016-.016-.016-.016-.016-.016-.016-.016-.016-.016-.016-.015-.016-.016-.016-.016-.016-.016-.015-.016-.016-.016-.016-.015-.016-.016-.015-.016-.016-.015-.016-.016-.015-.016-.015-.016-.015-.016-.016-.015-.016-.015-.016-.015-.016-.015-.015-.016-.015-.016-.015-.016-.015-.015-.016-.015-.015-.016-.015-.016-.015-.015-.015-.016-.015-.015-.016-.015-.015-.015-.016-.015-.015-.015-.016-.015-.015-.015-.015-.015-.016-.015-.015-.015-.015-.015-.016-.015-.015-.015-.015-.015-.015-.015-.016-.015-.015-.015-.015-.015-.015-.015-.015-.015-.015-.016-.015-.015-.015-.015-.015-.015-.015-.015-.015-.015-.015-.015-.015-.015-.015-.015-.015-.015-.015-.015-.015-.015-.016-.015-.015-.015-.015-.015-.015-.015-.015-.015-.015-.015-.015-.015-.015-.015-.015-.015-.015-.015-.015-.016-.015-.015-.015-.015-.015-.015-.015-.015-.015-.015-.016-.015-.015-.015-.015-.015-.015-.015-.016-.015-.015-.015-.015-.015-.016-.015-.015-.015-.015-.016-.015-.015-.015-.016-.015-.015-.015-.016-.015-.015-.015-.016-.015-.015-.016-.015-.015-.016-.015-.015-.016-.015-.016-.015-.015-.016-.015-.016-.015-.016-.015-.016-.015-.016-.015-.016-.015-.016-.016-.015-.016-.015-.016-.016-.015-.016-.016-.015-.016-.016-.015-.016-.016-.016-.016-.015-.016-.016-.016-.016-.016-.015-.016-.016-.016-.016-.016-.016-.016-.016-.016-.016-.016-.016-.016-.016-.017-.016-.016-.016-.016-.016-.017-.016-.016-.016-.017-.016-.016-.017-.016-.016-.017-.016-.017-.016-.017-.016-.017-.016-.017-.016-.017-.017-.016-.017-.016-.017-.017-.017-.016-.017-.017-.017-.017-.017-.016-.017-.017-.017-.017-.017-.017-.017-.017-.017-.018-.017-.017-.017-.017-.018-.017-.017-.017-.018-.017-.017-.018-.017-.018-.017-.018-.017-.018-.017-.018-.018-.017-.018-.018-.017-.018-.018-.018-.018-.018-.017-.018-.018-.018-.018-.018-.018-.018-.019-.018-.018-.018-.018-.019-.018-.018-.019-.018-.018-.019-.018-.019-.018-.019-.018-.02-.018-.018-.02-.018-.019-.018-.02-.018-.019-.019-.019-.019-.019-.019-.02-.018-.02-.019-.019-.019h-2zm1 7.421h-1.633v2h1.632v-2zm0 2h1.631v-2h-1.632v2zm8.868-2h-4.501v2h4.5v-2zm-3.786 1.7 3.421-3.5-1.43-1.398-3.421 3.5zm3.44-3.52c1.069-1.155 1.612-2.335 1.634-3.45a3.159 3.159 0 0 0 -1.297-2.656c-1.585-1.158-4.075-.819-5.36 1.43l1.736.993c.715-1.25 1.856-1.237 2.443-.808.29.212.487.544.478 1.002-.01.477-.25 1.21-1.102 2.13l1.468 1.36zm6.845-3.6c0 .286-.094.443-.225.566-.16.152-.42.284-.767.381a5.201 5.201 0 0 1 -1.386.16h-.019.001c.001 0 .002 0-.051.998l-.053.999h.008a.68.68 0 0 0 .053.002l.134.003c.112 0 .268-.002.454-.013a6.73 6.73 0 0 0 1.396-.222c.514-.143 1.116-.394 1.602-.852.516-.486.853-1.164.853-2.022zm-2.447 2.105.12.993h-.002-.001l.016-.001.08-.007c.073-.004.182-.009.315-.008.272.003.61.032.93.12.324.088.565.22.72.386.135.144.269.38.269.833h2c0-.914-.297-1.652-.808-2.2-.492-.524-1.112-.8-1.65-.948a5.742 5.742 0 0 0 -1.44-.19 6.227 6.227 0 0 0 -.648.027l-.014.002h-.005-.002zm2.447 2.315c0 .381-.303.786-1.031.916-.727.13-1.351-.133-1.6-.57l-1.737.993c.803 1.403 2.428 1.771 3.689 1.546 1.258-.225 2.679-1.16 2.679-2.885zm-2.846-4.743c.637-.551 1.444-.711 2.035-.582.289.062.49.184.611.319.112.123.2.302.2.585h2c0-.756-.257-1.42-.718-1.928-.45-.497-1.05-.796-1.668-.93-1.225-.267-2.669.073-3.768 1.022z" fill="#fff"/></svg>