<svg fill="none" height="24" width="24" xmlns="http://www.w3.org/2000/svg"><path d="m3 10.238c0-1.282 0-1.923.283-2.397a2 2 0 0 1 .691-.691c.474-.283 1.115-.283 2.397-.283h.639c.08 0 .12 0 .158-.002a2 2 0 0 0 1.618-.932l.09-.13a2 2 0 0 1 1.528-.802l.158-.001h2.876l.158.001a2 2 0 0 1 1.527.803c.023.03.046.063.091.13l.091.129a2 2 0 0 0 1.685.804h.639c1.282 0 1.923 0 2.397.283.284.17.521.407.69.691.284.474.284 1.115.284 2.397v4.762c0 1.886 0 2.828-.586 3.414s-1.528.586-3.414.586h-10c-1.886 0-2.828 0-3.414-.586s-.586-1.528-.586-3.414z" stroke="currentColor" stroke-linecap="round" stroke-width="2"/><path d="m15.143 12.571a3.143 3.143 0 1 1 -6.286 0 3.143 3.143 0 0 1 6.286 0z" stroke="currentColor" stroke-linecap="round" stroke-width="2"/><path d="m16.571 10a.571.571 0 1 1 1.143 0 .571.571 0 1 1 -1.143 0z" fill="currentColor"/></svg>
