<svg fill="none" height="24" width="24" xmlns="http://www.w3.org/2000/svg" xmlns:xlink="http://www.w3.org/1999/xlink"><clipPath id="a"><path d="m0 0h24v24h-24z"/></clipPath><g clip-path="url(#a)" stroke="#fff" stroke-width="2"><path d="m3 6.513c0-.944 0-1.416.156-1.788a2 2 0 0 1 1.07-1.069c.37-.156.843-.156 1.787-.156h11.974c.944 0 1.416 0 1.788.156a2 2 0 0 1 1.069 1.07c.156.37.156.843.156 1.787v2.044a16 16 0 0 1 -1.874 7.483l-.088.165c-3.024 5.596-11.052 5.596-14.076 0l-.088-.165-.029-.055a16 16 0 0 1 -1.845-7.428z"/><path d="m8 10 2.586 2.586c.666.666 1 1 1.414 1s.748-.334 1.414-1l2.586-2.586" stroke-linecap="round"/></g></svg>