<svg fill="none" height="24" width="24" xmlns="http://www.w3.org/2000/svg"><g fill="currentColor"><path d="m3.586 18.414-.707.707zm16.828 0 .707.707zm0-12.828-.707.707zm-.414 3.414v6h2v-6zm-3 9h-10v2h10zm-13-3v-6h-2v6zm3.001-9h9.997v-2h-9.995v2zm-.001 12c-.971 0-1.599-.002-2.061-.064-.434-.059-.57-.153-.646-.229l-1.414 1.414c.51.51 1.138.709 1.793.797.628.084 1.413.082 2.328.082zm-5-3c0 .915-.002 1.701.082 2.328.088.655.287 1.284.797 1.793l1.414-1.414c-.076-.076-.17-.212-.229-.646-.062-.461-.064-1.09-.064-2.061zm18 0c0 .971-.002 1.599-.064 2.061-.059.434-.153.57-.229.646l1.414 1.414c.51-.51.709-1.138.797-1.793.084-.628.082-1.413.082-2.328zm-3 5c.915 0 1.701.002 2.328-.082.655-.088 1.284-.287 1.793-.797l-1.414-1.414c-.076.076-.212.17-.646.229-.462.062-1.09.064-2.061.064zm5-11c0-.915.002-1.701-.082-2.328-.088-.655-.287-1.284-.797-1.793l-1.414 1.414c.076.076.17.212.229.646.062.461.064 1.09.064 2.061zm-5.001-3c.971 0 1.6.002 2.062.064.434.059.57.153.646.229l1.414-1.414c-.51-.51-1.138-.709-1.794-.797-.627-.084-1.413-.082-2.327-.082v2zm-12.999 3c0-.971.002-1.599.064-2.061.059-.434.153-.57.229-.646l-1.414-1.414c-.51.51-.709 1.138-.797 1.793-.084.628-.082 1.413-.082 2.328zm3.001-5c-.915 0-1.701-.002-2.328.082-.656.088-1.285.287-1.794.797l1.414 1.414c.076-.076.212-.17.646-.229.463-.062 1.09-.064 2.062-.064z"/><path d="m21 15v-6c0-1.886 0-2.828-.586-3.414s-1.528-.586-3.414-.586h-5v14h5c1.886 0 2.828 0 3.414-.586s.586-1.528.586-3.414z"/></g></svg>