<svg fill="none" height="24" width="24" xmlns="http://www.w3.org/2000/svg"><g fill="currentColor"><path d="m2.586 19.414-.707.707zm18.828 0 .707.707zm0-14.828.707-.707zm-.414 3.414v8h2v-8zm-3 11h-12v2h12zm-15-3v-8h-2v8zm3-11h12v-2h-11.999v2zm0 14c-.971 0-1.599-.002-2.061-.064-.434-.059-.57-.153-.646-.229l-1.414 1.414c.51.51 1.138.709 1.793.797.628.084 1.413.082 2.328.082zm-5-3c0 .915-.002 1.701.082 2.328.088.655.287 1.284.797 1.793l1.414-1.414c-.076-.076-.17-.212-.229-.646-.062-.461-.064-1.09-.064-2.061zm20 0c0 .971-.002 1.599-.064 2.061-.059.434-.153.57-.229.646l1.414 1.414c.51-.51.709-1.138.797-1.793.084-.628.082-1.413.082-2.328zm-3 5c.915 0 1.701.002 2.328-.082.655-.088 1.284-.287 1.793-.797l-1.414-1.414c-.076.076-.212.17-.646.229-.462.062-1.09.064-2.061.064zm5-13c0-.915.002-1.701-.082-2.328-.088-.655-.287-1.284-.797-1.793l-1.414 1.414c.076.076.17.212.229.646.062.461.064 1.09.064 2.061zm-5-3c.97 0 1.599.002 2.061.064.434.059.57.153.646.229l1.414-1.414c-.51-.51-1.138-.709-1.793-.797-.628-.084-1.414-.082-2.329-.082v2zm-15 3c0-.971.002-1.599.064-2.061.059-.434.153-.57.229-.646l-1.414-1.414c-.51.51-.709 1.138-.797 1.793-.084.628-.082 1.413-.082 2.328zm3-5c-.914 0-1.7-.002-2.328.082-.655.088-1.284.287-1.793.797l1.414 1.414c.076-.076.212-.17.646-.229.461-.062 1.09-.064 2.061-.064z"/><path d="m12 20v-16h-10v16z"/></g></svg>
