<svg fill="none" height="24" width="24" xmlns="http://www.w3.org/2000/svg"><g stroke="currentColor" stroke-width="2"><path d="m9 12c0-.932 0-1.398.152-1.765a2 2 0 0 1 1.083-1.083c.367-.152.833-.152 1.765-.152s1.398 0 1.765.152a2 2 0 0 1 1.083 1.083c.152.367.152.833.152 1.765s0 1.398-.152 1.765a2 2 0 0 1 -1.083 1.083c-.367.152-.833.152-1.765.152s-1.398 0-1.765-.152a2 2 0 0 1 -1.083-1.083c-.152-.367-.152-.833-.152-1.765z"/><circle cx="18.5" cy="5.5" r="2.5"/><circle cx="18.5" cy="18.5" r="2.5"/><circle cx="5.5" cy="18.5" r="2.5"/><circle cx="5.5" cy="5.5" r="2.5"/></g><path d="m8.207 6.793-.707-.707-1.414 1.414.707.707zm.586 3.414.707.707 1.414-1.414-.707-.707zm-2 5.586-.707.707 1.414 1.414.707-.707zm2.914-.086.707-.707-1.414-1.414-.707.707zm6.086 1.5.707.707 1.414-1.414-.707-.707zm-.086-2.914-.707-.707-1.414 1.414.707.707zm-1.414-6-.707.707 1.414 1.414.707-.707zm2.914-.086.707-.707-1.414-1.414-.707.707zm-10.414 0 2 2 1.414-1.414-2-2zm1.414 9 1.5-1.5-1.414-1.414-1.5 1.5zm9-1.414-1.5-1.5-1.414 1.414 1.5 1.5zm-1.5-6.086 1.5-1.5-1.414-1.414-1.5 1.5z" fill="currentColor"/></svg>
