<svg fill="none" height="24" width="24" xmlns="http://www.w3.org/2000/svg"><path d="m8 11.017c0-2.6.885-5.123 2.51-7.154a1.909 1.909 0 0 1 2.98 0 11.452 11.452 0 0 1 2.51 7.154v2.762c0 1.14 0 1.71-.226 2.144a2 2 0 0 1 -.851.851c-.434.226-1.004.226-2.144.226h-1.558c-1.14 0-1.71 0-2.144-.226a2 2 0 0 1 -.851-.851c-.226-.434-.226-1.004-.226-2.144z" stroke="#fff" stroke-width="2"/><path d="m13 8a1 1 0 1 1 -2 0 1 1 0 0 1 2 0z" fill="#fff"/><g stroke="#fff" stroke-width="2"><path d="m16 9.5.854 1.281c1.825 2.738 2.738 4.106 2.172 5.163-.565 1.056-2.21 1.056-5.5 1.056h-3.052c-3.29 0-4.935 0-5.5-1.056-.566-1.057.347-2.425 2.172-5.163l.854-1.281"/><path d="m12 20v2m3-2v1m-6-1v1" stroke-linecap="round"/></g></svg>