<svg fill="none" height="24" width="24" xmlns="http://www.w3.org/2000/svg"><g stroke="currentColor" stroke-width="2"><path d="m21 21v-.45c0-.977 0-1.465-.113-1.864a3 3 0 0 0 -2.073-2.073c-.399-.113-.887-.113-1.864-.113h-4.4c-.977 0-1.465 0-1.864.113a3 3 0 0 0 -2.073 2.073c-.113.399-.113.887-.113 1.864v.45m-5.5-3.5v-1.6c0-.837 0-1.255.083-1.6a3 3 0 0 1 2.217-2.217c.345-.083.763-.083 1.6-.083h.1" stroke-linecap="round" stroke-linejoin="round"/><path d="m18.5 9.5a3.5 3.5 0 1 1 -7 0 3.5 3.5 0 0 1 7 0z"/><path d="m11 4.38c-.586-.832-1.589-1.38-2.727-1.38-1.808 0-3.273 1.382-3.273 3.088 0 1.344.91 2.488 2.182 2.912" stroke-linecap="round"/></g></svg>
