<svg fill="none" height="24" width="24" xmlns="http://www.w3.org/2000/svg"><g stroke="#fff" stroke-width="2"><path d="m3.12 13.54c-.29-2.113-.433-3.17.165-3.855.597-.685 1.664-.685 3.797-.685h9.835c2.134 0 3.2 0 3.798.685s.454 1.742.166 3.855l-.41 3c-.224 1.65-.337 2.474-.902 2.967s-1.397.493-3.06.493h-9.018c-1.664 0-2.496 0-3.061-.493-.566-.494-.678-1.318-.903-2.966l-.409-3z"/><path d="m17 9v-1c0-1.886 0-2.828-.586-3.414s-1.528-.586-3.414-.586h-2c-1.886 0-2.828 0-3.414.586s-.586 1.528-.586 3.414v1"/></g></svg>