<svg fill="none" height="24" width="24" xmlns="http://www.w3.org/2000/svg"><g stroke="currentColor" stroke-width="2"><path d="m11.979 18.622v-5.708m-7.135 8.086s1.427-1.902 7.135-1.902c5.707 0 8.085 1.902 8.085 1.902" stroke-linecap="round"/><path d="m4.085 3.19c.944-.944 3.622.204 5.98 2.563 2.36 2.36 3.508 5.037 2.564 5.98-.944.944-3.621-.203-5.98-2.562-2.36-2.36-3.507-5.037-2.564-5.981z"/><path d="m12.023 12.121c1.24-.265 2.913-1.288 4.45-2.825 2.36-2.36 3.507-5.037 2.563-5.98-.944-.944-3.621.203-5.98 2.563-.461.46-.876.933-1.238 1.403" stroke-linecap="round"/></g></svg>
