<svg fill="none" height="24" width="24" xmlns="http://www.w3.org/2000/svg"><path d="m10.293 12.293a1 1 0 1 0 1.414 1.414zm8.414-5.586.707-.707-1.414-1.414-.707.707zm.586-3.414-.707.707 1.414 1.414.707-.707zm2.414.414a1 1 0 0 0 -1.414-1.414zm-10 10 7-7-1.414-1.414-7 7zm9-9 1-1-1.414-1.414-1 1z" fill="currentColor"/><path d="m10 7h-3c-1.886 0-2.828 0-3.414.586s-.586 1.528-.586 3.414v6c0 1.886 0 2.828.586 3.414s1.528.586 3.414.586h6c1.886 0 2.828 0 3.414-.586s.586-1.528.586-3.414v-3" stroke="currentColor" stroke-linecap="round" stroke-width="2"/></svg>
