<svg fill="none" height="24" width="24" xmlns="http://www.w3.org/2000/svg"><g fill="#fff"><path d="m4.94 18.237-.647.762zm-.195-2.86-.744-.668zm4.793 5.015-.41.912zm2.462.818v1zm5.306-2.098-.41-.911.41.912zm1.593-.83.678.736zm.12-2.82.737-.676-.738.675zm-2.125 2.738-2.843 1.28.82 1.823 2.844-1.28-.82-1.823zm-6.947 1.28-3.236-1.457-.82 1.824 3.235 1.456.821-1.824zm-3.236-1.457a26.04 26.04 0 0 1 -.85-.393 1.618 1.618 0 0 1 -.275-.157l-1.293 1.527c.202.172.44.304.675.422.24.12.549.258.923.427l.82-1.824zm-1.241-4.371c-.348.218-.635.397-.857.548-.216.148-.434.31-.612.509l1.489 1.335c.01-.012.065-.065.25-.192.181-.123.428-.277.79-.504zm.117 3.822a1 1 0 0 1 -.097-1.43l-1.49-1.334a3 3 0 0 0 .293 4.29l1.294-1.524zm8.465 2.006c-1.294.582-1.673.73-2.052.73v2c.909 0 1.742-.397 2.873-.906zm-4.925 1.824c1.131.509 1.964.906 2.873.906v-2c-.38 0-.758-.148-2.052-.73l-.82 1.824zm8.589-1.28c.443-.199.806-.362 1.087-.504.272-.137.548-.294.774-.502l-1.355-1.47c-.013.011-.082.066-.321.187-.231.117-.545.258-1.006.466l.82 1.823zm-.702-4.65c.442.245.743.413.963.549.228.14.292.2.304.214l1.475-1.351c-.208-.227-.47-.406-.73-.566-.268-.165-.616-.358-1.04-.594zm2.563 3.644a3 3 0 0 0 .179-4.232l-1.475 1.35a1 1 0 0 1 -.06 1.411l1.356 1.47z"/><path d="m5.1 13.783-.677.735.677-.736zm-.118-2.822-.738-.675zm9.445 4.947-.41-.912zm-2.39.802-.013-1 .012 1zm-2.464-.802.41-.912zm2.39.802-.011 1 .012-1zm4.94-1.916-.411-.912.41.912zm1.858-.984-.712-.702zm.056-2.751-.74.673zm-2.325 2.823-2.476 1.114.821 1.824 2.476-1.114zm-6.509 1.114-2.878-1.295-.82 1.823 2.878 1.296zm-2.878-1.295c-.46-.208-.775-.35-1.006-.466-.239-.12-.308-.176-.32-.188l-1.356 1.47c.226.21.502.366.774.503.28.142.644.305 1.087.505l.82-1.824zm-1.09-4.575c-.425.236-.773.429-1.041.594-.26.16-.522.339-.73.566l1.475 1.35c.012-.012.076-.073.304-.213.22-.136.521-.304.963-.549l-.972-1.748zm-.237 3.921a1 1 0 0 1 -.06-1.41l-1.474-1.351a3 3 0 0 0 .179 4.232l1.355-1.47zm8.239 1.949c-1.256.565-1.625.71-1.993.714l.025 2c.881-.01 1.69-.396 2.788-.89zm-4.854 1.824c1.098.494 1.907.88 2.788.89l.025-2c-.368-.004-.737-.149-1.993-.714zm2.861-1.11h-.048l-.025 2h.098zm5.289-.004c.522-.235.948-.427 1.275-.594.315-.161.635-.346.884-.599l-1.423-1.405-.019.016a.887.887 0 0 1 -.066.046 3.263 3.263 0 0 1 -.287.162 29.47 29.47 0 0 1 -1.185.55l.82 1.824zm-.76-4.812c.531.266.896.449 1.161.598.13.074.219.13.28.174a.93.93 0 0 1 .065.049l.018.017 1.48-1.346c-.24-.263-.551-.461-.86-.635-.32-.18-.738-.39-1.25-.645zm2.919 3.62a3 3 0 0 0 .084-4.128l-1.479 1.346a1 1 0 0 1 -.028 1.376l1.423 1.405z"/><path d="m7.098 9.794-.41.912zm-1.859-.984.712-.702zm-.056-2.75.74.673zm6.853 5.651.013 1zm-2.463-.802-.41.912zm2.39.802-.011 1 .012-1zm4.94-1.916-.411-.912.41.912zm1.858-.984.711.703-.712-.703zm.056-2.751.74-.673zm-4.134-2.217-.447.894zm-5.366 0-.448-.895zm2.683-.989v1zm4.492 6.028-2.476 1.114.821 1.824 2.476-1.114zm-6.508 1.114-2.476-1.114-.82 1.824 2.475 1.114.82-1.824zm4.252-5.26 2.317 1.158.894-1.788-2.316-1.159-.895 1.79zm-6.789 1.158 2.317-1.158-.895-1.789-2.316 1.159zm.061 2.988a29.6 29.6 0 0 1 -1.185-.55 3.288 3.288 0 0 1 -.287-.162.912.912 0 0 1 -.066-.046l-.02-.016-1.422 1.405c.25.253.569.438.884.6.327.166.753.358 1.275.593zm-.955-4.776c-.512.256-.93.465-1.25.645-.309.174-.62.372-.86.635l1.48 1.346.018-.017a.907.907 0 0 1 .064-.05c.062-.043.151-.1.28-.172.266-.15.63-.333 1.162-.599zm-.603 4.002a1 1 0 0 1 -.028-1.376l-1.48-1.346a3 3 0 0 0 .085 4.127zm8.066 1.888c-1.256.565-1.625.71-1.993.714l.025 2c.881-.01 1.69-.396 2.788-.89zm-4.853 1.824c1.098.494 1.907.88 2.788.89l.025-2c-.368-.004-.737-.149-1.992-.714zm2.861-1.11h-.048l-.025 2h.098zm5.289-.004c.522-.235.948-.427 1.275-.594.315-.16.635-.346.884-.599l-1.423-1.405-.019.016a.912.912 0 0 1 -.066.046 3.303 3.303 0 0 1 -.287.162c-.271.139-.643.306-1.185.55l.82 1.824zm-.76-4.812c.531.266.896.449 1.161.599.13.073.219.129.28.173.03.021.051.037.065.049l.018.017 1.48-1.346c-.24-.263-.551-.461-.86-.635-.32-.18-.738-.39-1.25-.645zm2.919 3.62a3 3 0 0 0 .084-4.128l-1.479 1.346a1 1 0 0 1 -.028 1.376l1.423 1.405zm-4.342-6.568c-1.226-.612-2.13-1.092-3.13-1.092v2c.417 0 .83.179 2.236.882l.894-1.789zm-5.366 1.79c1.406-.704 1.82-.883 2.236-.883v-2c-1 0-1.904.48-3.13 1.093z"/></g></svg>