<svg fill="none" height="24" width="24" xmlns="http://www.w3.org/2000/svg"><g fill="currentColor"><path d="m8.564 18.897.218-.976zm8.343-12.446-.954.302zm-3.573-.851-.4-.917zm1.457-.534-.105-.995zm-7.3 3.618.836.548-.837-.548zm.509 6.316v-.817h-2v.817zm0-.817v-1.89h-2v1.89zm3-6.473 2.734-1.193-.8-1.833-2.734 1.192.8 1.833zm-5 7.29c0 .846-.001 1.553.053 2.112.054.56.174 1.124.525 1.605l1.615-1.18c-.034-.047-.107-.18-.15-.618-.041-.441-.043-1.033-.043-1.919zm5.183 2.085c-.813.354-1.356.59-1.776.727-.418.136-.569.123-.625.11l-.436 1.952c.58.13 1.146.014 1.681-.16.534-.174 1.181-.458 1.956-.797zm-4.605 1.632a3 3 0 0 0 1.768 1.157l.436-1.952a1 1 0 0 1 -.59-.386l-1.614 1.18zm11.422-10.717c0-.408 0-.75-.013-1.025a3.225 3.225 0 0 0 -.127-.826l-1.907.604c.008.023.026.1.037.317.01.216.01.502.01.93zm-4.266-1.484c.392-.17.654-.285.857-.362.203-.078.28-.091.304-.094l-.209-1.989c-.283.03-.551.116-.808.214s-.57.235-.944.398zm4.126-.367a3 3 0 0 0 -3.174-2.078l.21 1.99a1 1 0 0 1 1.057.692zm-9.86 6.143c0-.975.001-1.627.056-2.131.051-.48.143-.734.27-.929l-1.672-1.095c-.362.554-.515 1.15-.586 1.81-.069.636-.068 1.413-.068 2.345zm2.2-6.416c-.853.373-1.566.682-2.122 1-.576.328-1.062.707-1.425 1.26l1.674 1.096c.127-.194.323-.38.743-.62.44-.251 1.037-.513 1.93-.903z"/><path d="m3.346 16.047-.827.562.827-.563zm1.299.844-.178.984zm4.689-13.291-.4-.917zm1.457-.534.104.994zm2.116 1.385-.954.302zm-9.417 2.233.837.548zm3.51-.974 1.4-.61-.8-1.834-1.4.611zm1.4-.61 1.334-.583-.8-1.833-1.334.582.8 1.833zm-4.4 7.975v-.894h-2v.894zm0-.894v-1.89h-2v1.89zm-2 .894c0 .801-.001 1.47.047 2 .049.532.156 1.068.472 1.533l1.654-1.125c-.03-.043-.096-.172-.134-.59-.038-.417-.039-.978-.039-1.818zm5.094 2.01c-.768.341-1.281.569-1.679.703-.396.135-.54.127-.593.118l-.355 1.968c.553.1 1.086-.02 1.591-.192.504-.17 1.116-.444 1.848-.77zm-4.575 1.525a3 3 0 0 0 1.948 1.266l.355-1.968a1 1 0 0 1 -.65-.422l-1.652 1.122zm7.215-12.094c.392-.17.654-.285.857-.362.203-.078.28-.091.304-.094l-.209-1.989c-.283.03-.551.116-.808.214s-.57.235-.944.398zm4.266 1.484c0-.408 0-.75-.013-1.025a3.225 3.225 0 0 0 -.127-.826l-1.907.604c.008.023.026.1.037.317.01.216.01.502.01.93zm-3.105-1.94a1 1 0 0 1 1.058.693l1.907-.604a3 3 0 0 0 -3.174-2.078l.21 1.99zm-4.695-.184c-.853.373-1.566.682-2.122 1-.576.328-1.062.707-1.425 1.26l1.674 1.096c.127-.194.323-.38.743-.62.44-.251 1.037-.512 1.93-.902l-.8-1.833zm-2.2 6.416c0-.975.001-1.627.056-2.131.051-.48.143-.734.27-.929l-1.672-1.095c-.362.554-.515 1.15-.586 1.81-.069.636-.068 1.413-.068 2.345zm8.067 10.422.467-.884zm-.316-.206-.624.78zm8.759-3.192-.837-.548.837.547zm-.087-9.666-.711.702.712-.702zm-.705-.462.36-.933zm-8.228 3.497.837.547zm8.51.77v2.253h2v-2.253zm-3 6.836-1.067.465.8 1.834 1.067-.466zm-2-8.582 1.4-.61-.8-1.834-1.4.611zm-3 6.473v-1.89h-2v1.89zm3.933 2.575c-1.166.508-1.946.846-2.541 1.016-.583.166-.771.102-.858.057l-.934 1.77c.764.402 1.57.315 2.338.096.756-.215 1.683-.622 2.794-1.106l-.8-1.834zm-5.933-2.576c0 1.212-.002 2.224.103 3.003.107.79.35 1.564 1.024 2.104l1.249-1.563c-.077-.06-.21-.208-.291-.809-.083-.613-.085-1.464-.085-2.735zm2.534 3.648a1 1 0 0 1 -.158-.104l-1.249 1.563a3 3 0 0 0 .474.31l.933-1.77zm7.466-6.121c0 .975-.001 1.627-.055 2.131-.052.48-.144.734-.272.929l1.674 1.095c.362-.554.515-1.15.586-1.81.068-.636.067-1.413.067-2.345zm-2.2 6.416c.853-.373 1.566-.682 2.122-1 .576-.328 1.062-.707 1.425-1.26l-1.674-1.096c-.127.194-.323.38-.742.62-.441.251-1.038.513-1.931.903zm4.2-8.669c0-1.048.002-1.924-.079-2.606-.081-.689-.264-1.373-.786-1.901l-1.423 1.404c.055.056.16.2.223.732.063.537.065 1.272.065 2.371zm-5.6-2.357c1.008-.44 1.682-.732 2.2-.888.511-.155.686-.117.76-.088l.717-1.867c-.693-.267-1.393-.16-2.057.04-.657.2-1.46.551-2.42.97zm4.735-2.15a3 3 0 0 0 -1.058-.693l-.718 1.867a1 1 0 0 1 .353.23zm-6.935.928c-.853.373-1.566.682-2.122 1-.576.328-1.062.707-1.425 1.26l1.674 1.096c.127-.194.323-.38.742-.62.441-.251 1.038-.513 1.931-.903zm-2.2 6.416c0-.975.001-1.627.056-2.131.051-.48.143-.734.27-.929l-1.673-1.095c-.362.554-.515 1.15-.586 1.81-.068.636-.067 1.413-.067 2.345z"/></g></svg>
