<svg fill="none" height="24" width="24" xmlns="http://www.w3.org/2000/svg"><path d="m5.5 11.91a1 1 0 1 0 -2 0zm14-.91h1v-1h-1zm-16 10a1 1 0 1 0 2 0zm5.5-10v-1h-1v1zm0 6h-1zm9.914 3.414-.707-.707zm-.414-9.414v6h2v-6zm-13 10v-9.09h-2v9.09zm10-1h-2.5v2h2.5zm-5.5-3v-6h-2v6zm-1-5h10.5v-2h-10.5zm4 8c-.971 0-1.599-.002-2.061-.064-.434-.059-.57-.153-.646-.229l-1.414 1.414c.51.51 1.138.709 1.793.797.627.084 1.413.082 2.328.082zm-5-3c0 .915-.002 1.701.082 2.328.088.655.287 1.284.797 1.793l1.414-1.414c-.076-.076-.17-.212-.229-.646-.062-.461-.064-1.09-.064-2.061zm10.5 0c0 .971-.002 1.599-.064 2.061-.059.434-.153.57-.229.646l1.414 1.414c.51-.51.709-1.138.797-1.793.084-.627.082-1.413.082-2.328zm-3 5c.915 0 1.701.002 2.328-.082.655-.088 1.284-.287 1.793-.797l-1.414-1.414c-.076.076-.212.17-.646.229-.462.062-1.09.064-2.061.064z" fill="currentColor"/><path d="m16.384 3h-8.768c-1.27 0-1.904 0-2.403.326-.498.326-.753.908-1.262 2.07l-.713 1.632c-.07.16-.105.24-.132.32a2 2 0 0 0 -.099.47c-.007.086-.007.172-.007.347 0 .777 0 1.166.107 1.48a2 2 0 0 0 1.249 1.248c.313.107.702.107 1.48.107h12.328c.778 0 1.167 0 1.48-.107a2 2 0 0 0 1.25-1.249c.106-.313.106-.702.106-1.48 0-.173 0-.26-.007-.346a1.999 1.999 0 0 0 -.098-.47c-.028-.08-.063-.16-.133-.32l-.713-1.631c-.51-1.163-.764-1.745-1.262-2.07-.5-.327-1.134-.327-2.403-.327zm-4.384 8v-3m-5 3v-3m10 3v-3" stroke="currentColor" stroke-linecap="round" stroke-linejoin="round" stroke-width="2"/></svg>