<svg fill="none" height="24" width="24" xmlns="http://www.w3.org/2000/svg"><path d="m12.9 19h-5.9c-1.886 0-2.828 0-3.414-.586s-.586-1.528-.586-3.414v-6c0-1.886 0-2.828.586-3.414s1.528-.586 3.414-.586h10c1.886 0 2.828 0 3.414.586s.586 1.528.586 3.414v2" stroke="currentColor" stroke-linecap="round" stroke-linejoin="round" stroke-width="2"/><path d="m18 13v6m3-3h-6" stroke="currentColor" stroke-linecap="round" stroke-width="2"/><path d="m12.27 5a.5.5 0 1 0 -1 0zm-1 14a.5.5 0 0 0 1 0zm2.345-4.5a.5.5 0 0 0 0-1zm-10.615-1a.5.5 0 0 0 0 1zm18-3a.5.5 0 0 0 0-1zm-18-1a.5.5 0 0 0 0 1zm8.27-4.5v14h1v-14zm2.345 8.5h-10.615v1h10.615zm7.385-4h-18v1h18z" fill="currentColor"/></svg>