<svg fill="none" height="24" width="24" xmlns="http://www.w3.org/2000/svg"><g stroke="currentColor"><path d="m3 12h4.546c.42 0 .63 0 .833.043.07.014.138.032.205.054.197.064.38.168.744.376 1.153.659 1.73.988 2.354 1.055.211.022.425.022.636 0 .625-.067 1.201-.396 2.354-1.055.364-.208.547-.312.744-.376.067-.022.136-.04.205-.054.203-.043.413-.043.832-.043h4.547v4c0 1.886 0 2.828-.586 3.414s-1.528.586-3.414.586h-10c-1.886 0-2.828 0-3.414-.586s-.586-1.528-.586-3.414z" stroke-width="2"/><path d="m3 14v-2.667c0-.66 0-.99.103-1.299.102-.308.3-.572.697-1.1l2.5-3.334c.589-.785.883-1.178 1.306-1.389.422-.211.913-.211 1.894-.211h5c.981 0 1.472 0 1.894.211.423.211.717.604 1.306 1.389l2.5 3.333c.396.529.595.793.697 1.101.103.308.103.638.103 1.3v2.666" stroke-width="2"/><path d="m9 7h6m-8 2h10" stroke-linecap="round"/></g></svg>
