<svg fill="none" height="24" width="24" xmlns="http://www.w3.org/2000/svg" xmlns:xlink="http://www.w3.org/1999/xlink"><clipPath id="a"><path d="m0 0h24v24h-24z"/></clipPath><clipPath id="b"><path d="m0 0h24v24h-24z" transform="matrix(-1 0 0 -1 24 24)"/></clipPath><g clip-path="url(#a)"><g clip-path="url(#b)"><path d="m5.5 8c0 1.886 0 2.828.586 3.414s1.528.586 3.414.586h2.5m6.5-4c0 1.886 0 2.828-.586 3.414s-1.528.586-3.414.586h-2.5m0 0v4m-2.5 2.5a2.5 2.5 0 1 1 5 0 2.5 2.5 0 0 1 -5 0zm6.5-13a2.5 2.5 0 1 1 5 0 2.5 2.5 0 0 1 -5 0zm-13 0a2.5 2.5 0 1 1 5 0 2.5 2.5 0 0 1 -5 0z" stroke="#fff" stroke-width="2"/></g></g></svg>