<svg fill="none" height="24" width="24" xmlns="http://www.w3.org/2000/svg" xmlns:xlink="http://www.w3.org/1999/xlink"><clipPath id="a"><path d="m0 0h24v24h-24z"/></clipPath><g clip-path="url(#a)"><path d="m16 5.5c-1.886 0-2.828 0-3.414.586s-.586 1.528-.586 3.414v2.5m4 6.5c-1.886 0-2.828 0-3.414-.586s-.586-1.528-.586-3.414v-2.5m0 0h-4m-2.5-2.5a2.5 2.5 0 1 1 0 5 2.5 2.5 0 0 1 0-5zm13 6.5a2.5 2.5 0 1 1 0 5 2.5 2.5 0 0 1 0-5zm0-13a2.5 2.5 0 1 1 0 5 2.5 2.5 0 0 1 0-5z" stroke="currentColor" stroke-width="2"/></g></svg>
