<svg fill="none" height="24" width="24" xmlns="http://www.w3.org/2000/svg"><path d="m19.837 17.024.873-.488zm-9.583-10.9-.873-.488zm1.746-2.074v1zm-6.964 13.462 6.091-10.9-1.746-.976-6.091 10.9zm7.837-10.9 6.091 10.9 1.746-.976-6.091-10.9zm5.217 12.388h-12.18v2h12.18zm-14.8-2.463c-.354.633-.678 1.207-.86 1.686-.184.489-.327 1.147.05 1.79l1.723-1.013c.087.148-.015.228.097-.069.116-.307.348-.727.735-1.419l-1.746-.976zm2.619 2.463c-.793 0-1.273-.003-1.597-.05-.315-.048-.194-.098-.108.05l-1.724 1.012c.377.642 1.022.839 1.539.915.507.076 1.165.073 1.89.073zm13.055-1.488c.387.692.619 1.112.735 1.42.112.296.01.216.097.068l1.725 1.012c.376-.642.233-1.3.048-1.79-.181-.479-.505-1.052-.859-1.686zm-.873 3.488c.726 0 1.384.003 1.891-.073.517-.076 1.162-.273 1.539-.915l-1.725-1.012c.087-.148.207-.098-.108-.05-.324.047-.804.05-1.597.05zm-6.964-14.388c.403-.721.651-1.16.862-1.433.207-.268.191-.13.011-.13v-2c-.767 0-1.269.486-1.595.909-.323.418-.654 1.017-1.024 1.678zm3.492-.976c-.37-.661-.701-1.26-1.024-1.678-.326-.423-.828-.908-1.595-.908v2c-.18 0-.196-.14.011.13.21.272.459.711.862 1.432z" fill="currentColor"/></svg>
