<svg fill="none" height="24" width="24" xmlns="http://www.w3.org/2000/svg"><path d="m3 9c0-1.886 0-2.828.586-3.414s1.528-.586 3.414-.586h2c1.886 0 2.828 0 3.414.586s.586 1.528.586 3.414v3c0 1.886 0 2.828-.586 3.414s-1.528.586-3.414.586h-2c-1.886 0-2.828 0-3.414-.586s-.586-1.528-.586-3.414zm10-1h2.908c.953 0 1.43 0 1.843.2.414.201.709.576 1.299 1.325l1.313 1.666c.206.261.308.392.387.534.111.2.187.42.224.646.026.16.026.326.026.659 0 .904 0 1.356-.143 1.714a2 2 0 0 1 -1.113 1.113c-.358.143-.81.143-1.714.143h-1.03c-1.886 0-2.828 0-3.414-.586s-.586-1.528-.586-3.414zm7 8a3 3 0 1 1 -6 0h-4a3 3 0 1 1 -6 0" stroke="#fff" stroke-width="2"/></svg>