<svg fill="none" height="24" width="24" xmlns="http://www.w3.org/2000/svg"><g stroke="currentColor" stroke-linecap="round" stroke-width="2"><path d="m18 9.222c1.657 0 3 1.393 3 3.111a3.134 3.134 0 0 1 -1.454 2.667m-1.546-5.778c1.2-3.555-1.8-6.222-5.1-6.222s-5.85 2.667-5.4 4.667m10.5 1.555c-.67 0-1.29.229-1.79.615-.168.129-.322.276-.46.438m-5.562-.275a3.933 3.933 0 0 0 -.32-.606c-.673-1.041-1.818-1.727-3.118-1.727-2.071 0-3.75 1.74-3.75 3.889 0 1.407.72 2.64 1.8 3.322"/><path d="m12 22v-7.5m0 0-3 3m3-3 3 3" stroke-linejoin="round"/></g></svg>
