<svg fill="none" height="24" width="24" xmlns="http://www.w3.org/2000/svg"><path d="m3 12c0-1.886 0-2.828.586-3.414s1.528-.586 3.414-.586h10c1.886 0 2.828 0 3.414.586s.586 1.528.586 3.414v4c0 1.886 0 2.828-.586 3.414s-1.528.586-3.414.586h-10c-1.886 0-2.828 0-3.414-.586s-.586-1.528-.586-3.414z" stroke="currentColor" stroke-width="2"/><path d="m18 8-.461-1.076c-.504-1.175-.756-1.763-1.257-2.094-.5-.33-1.14-.33-2.42-.33h-6.862c-1.886 0-2.828 0-3.414.586s-.586 1.528-.586 3.414v6.5" stroke="currentColor" stroke-width="2"/><rect fill="currentColor" height="2" rx="1" width="2" x="16.5" y="11"/></svg>
