<svg fill="none" height="24" width="24" xmlns="http://www.w3.org/2000/svg"><g stroke="currentColor" stroke-linecap="round" stroke-linejoin="round" stroke-width="2"><rect height="7" rx="2" width="18" x="3" y="3"/><path d="m14 17.5c0-1.404 0-2.107.337-2.611.146-.218.334-.406.552-.552.504-.337 1.207-.337 2.611-.337s2.107 0 2.611.337c.218.146.406.334.552.552.337.504.337 1.207.337 2.611s0 2.107-.337 2.611a1.999 1.999 0 0 1 -.552.552c-.504.337-1.207.337-2.611.337s-2.107 0-2.611-.337a1.999 1.999 0 0 1 -.552-.552c-.337-.504-.337-1.207-.337-2.611zm-11 0c0-1.404 0-2.107.337-2.611a2 2 0 0 1 .552-.552c.504-.337 1.207-.337 2.611-.337s2.107 0 2.611.337a2 2 0 0 1 .552.552c.337.504.337 1.207.337 2.611s0 2.107-.337 2.611a2 2 0 0 1 -.552.552c-.504.337-1.207.337-2.611.337s-2.107 0-2.611-.337a2 2 0 0 1 -.552-.552c-.337-.504-.337-1.207-.337-2.611z"/></g></svg>
